<svg xmlns="http://www.w3.org/2000/svg" width="600" height="400"><path style="stroke:none;fill-rule:evenodd;fill:#e4e4fd;fill-opacity:1" d="M-.668-.445h13.39c10.837 3.465 21.106 7.633 30.805 12.5-1.453-.035-2.789-.332-4.02-.895-1.6.309-1.6.754 0 1.34C57.353 18.96 74.54 25.953 91.07 33.48A2696.442 2696.442 0 0 0 150 162.055c4.922 4.77 9.16 9.828 12.723 15.175-.63.864-1.524.864-2.68 0-3.602-2.695-6.723-5.671-9.375-8.925A4785.522 4785.522 0 0 0 93.082 83.48a10061.48 10061.48 0 0 0-77.68-20.98 153.394 153.394 0 0 0-16.07-3.125V-.445Zm0 0"/><path style="stroke:none;fill-rule:evenodd;fill:#fefefe;fill-opacity:1" d="M12.723-.445h586.609V10.27a9508.64 9508.64 0 0 1-41.52 3.125 1599.767 1599.767 0 0 0-39.507 78.125c-7.414 8.554-16.567 16.144-27.457 22.765-1.34.598-2.68.598-4.016 0-5.887-5.328-11.246-10.836-16.074-16.515 2.012-2.082 1.12-3.274-2.676-3.575-5.77-8.164-14.25-14.86-25.45-20.09-9.554-1.277-17.589.508-24.105 5.36-1.34.594-2.68.594-4.02 0-13.327-11.367-25.16-23.422-35.487-36.16-8.29-5.29-16.106-10.793-23.438-16.52a639.838 639.838 0 0 1-37.5-3.57c-21.02 46.672-36.422 94.14-46.207 142.41a811.14 811.14 0 0 0-20.09 66.965 468.43 468.43 0 0 1-9.375 22.32c-4.863 8.477-12.008 9.371-21.43 2.68a224.66 224.66 0 0 1-14.062-16.07c2.195-1.079 2.64-2.27 1.34-3.575-3.13-.71-4.914-2.195-5.356-4.465 1.508-.753 1.508-1.648 0-2.675-2.699-1.524-4.93-3.309-6.695-5.36.05-.965.496-1.86 1.336-2.675-2.668-1.786-5.793-3.125-9.375-4.02 3.125-1.34 6.254-2.68 9.375-4.02-1.715-1.964-3.95-2.265-6.695-.89-2.508-1.414-4.293-3.2-5.356-5.36.106-2.93-.789-5.605-2.68-8.035-2.421-1.254-5.101-2.297-8.035-3.125a72.79 72.79 0 0 1 7.368-3.125c.644-.843.867-1.738.667-2.675-1.914-.07-3.703.226-5.355.89-1.07-.406-1.516-1.004-1.34-1.785-7.37-11.016-15.629-21.73-24.777-32.145A4002.019 4002.019 0 0 1 93.75 31.695c-16.266-7.129-33.004-13.675-50.223-19.64C33.828 7.188 23.56 3.02 12.723-.445Zm0 0"/><path style="stroke:none;fill-rule:evenodd;fill:#e3e3fd;fill-opacity:1" d="M599.332 10.27v57.14c-14.293-.148-28.582 0-42.86.445a3864.607 3864.607 0 0 0-38.84 51.34c-4.624 1.743-9.534 3.082-14.73 4.02-3.84.715-7.414.566-10.714-.445 3.261-.915 3.261-2.102 0-3.575-2.68.895-5.356 1.785-8.036 2.68-1.047-1.633-.156-2.973 2.68-4.02a14.436 14.436 0 0 0-4.02-2.23c-4.5-2.688-8.07-5.96-10.714-9.82-.536-3.188-3.215-5.121-8.036-5.805a32.094 32.094 0 0 1 6.696-2.23c4.828 5.68 10.187 11.187 16.074 16.515 1.336.598 2.676.598 4.016 0 10.89-6.62 20.043-14.21 27.457-22.765a1599.767 1599.767 0 0 1 39.508-78.125 9508.64 9508.64 0 0 0 41.519-3.125Zm0 0"/><path style="stroke:none;fill-rule:evenodd;fill:#e2e2fd;fill-opacity:1" d="M468.082 94.195a244.56 244.56 0 0 1-5.36 2.68c-1.304-2.004-1.75-4.086-1.34-6.25-4.96-1.957-9.425-4.484-13.39-7.59-11.87-3.715-22.14-2.226-30.805 4.465-13.511-.82-26.011-3.797-37.5-8.93-6.957-.117-13.652-1.007-20.09-2.675-13.347.585-26.742 1.183-40.179 1.785-.668.445-1.336.89-2.008 1.34-24.996 50.597-45.086 102.085-60.265 154.46-3.934 11.735-9.739 23.043-17.415 33.93-4.382 3.41-9.07 3.559-14.062.445-4.39-2.476-7.961-5.304-10.711-8.48 3.254-1.605 3.254-3.094 0-4.465-6.73 3.977-9.406 2.785-8.039-3.57v-1.785a10.356 10.356 0 0 0 2.68-2.235c-2.97-1.132-5.649-2.468-8.036-4.015 1.442-1.078 3.227-1.672 5.356-1.785a224.66 224.66 0 0 0 14.062 16.07c9.422 6.691 16.567 5.797 21.43-2.68a468.43 468.43 0 0 0 9.375-22.32 811.14 811.14 0 0 1 20.09-66.965c9.785-48.27 25.188-95.738 46.207-142.41a639.838 639.838 0 0 0 37.5 3.57c7.332 5.727 15.148 11.23 23.438 16.52 10.328 12.738 22.16 24.793 35.488 36.16 1.34.594 2.68.594 4.02 0 6.515-4.852 14.55-6.637 24.105-5.36 11.199 5.23 19.68 11.926 25.449 20.09Zm0 0"/><path style="stroke:none;fill-rule:evenodd;fill:#cdcdfc;fill-opacity:1" d="M-.668 59.375c5.426.758 10.785 1.8 16.07 3.125a10061.48 10061.48 0 0 1 77.68 20.98 4785.522 4785.522 0 0 1 57.586 84.825c-1.152-.86-2.047-.86-2.676 0 1.602 3.3 4.504 5.98 8.703 8.035 3.004 3.351 5.016 6.625 6.028 9.82-22.395-17.465-45.61-34.578-69.641-51.34a5008.206 5008.206 0 0 0-93.75-11.16V59.375ZM599.332 67.41v56.25a716.445 716.445 0 0 0-42.86-2.23 697.197 697.197 0 0 1-38.167 24.55 680.755 680.755 0 0 1-27.457-13.39c.902-1.36 2.242-2.55 4.02-3.57-2.462-1.27-5.138-2.313-8.036-3.125 2.043-.922 3.828-1.965 5.356-3.125 3.3 1.011 6.875 1.16 10.714.445 5.196-.938 10.106-2.278 14.73-4.02a3864.607 3864.607 0 0 1 38.84-51.34c14.278-.445 28.567-.593 42.86-.445Zm0 0"/><path style="stroke:none;fill-rule:evenodd;fill:#ccccfc;fill-opacity:1" d="M461.383 90.625h-5.356v4.465c-3.87-2.727-8.336-4.957-13.394-6.695a64.892 64.892 0 0 0-10.715-.45V85.27c-1.977-.235-3.762.062-5.356.89a36.304 36.304 0 0 1-2.68 5.36c-4.331-3.586-7.456-3.29-9.374.89 1.937 1.395 4.168 2.586 6.699 3.57-2.535 2.274-4.992 2.274-7.367 0-.961.489-1.63 1.082-2.008 1.79a780.756 780.756 0 0 1-34.824 14.73 284.636 284.636 0 0 1-20.09 10.715c-13.191 3.722-26.36 7.445-39.508 11.16a2111.11 2111.11 0 0 0-29.465 49.105c-11.61 25.016-23.215 50.016-34.82 75-3.164 6.899-8.074 13.149-14.73 18.75a9.076 9.076 0 0 0-2.012-4.46h-4.016a19.516 19.516 0 0 1-.672 7.14c-2.03-.59-3.593-1.484-4.687-2.68-3.57-3.273-7.14-6.546-10.715-9.82 1.078-.824 1.3-1.715.672-2.68a75.204 75.204 0 0 0-7.367-3.57c1.441-1.074 3.226-1.672 5.359-1.785 2.75 3.176 6.32 6.004 10.711 8.48 4.992 3.114 9.68 2.965 14.062-.445 7.676-10.887 13.48-22.195 17.415-33.93 15.18-52.375 35.27-103.863 60.265-154.46.672-.45 1.34-.895 2.008-1.34 13.437-.602 26.832-1.2 40.18-1.785 6.437 1.668 13.132 2.558 20.09 2.675 11.488 5.133 23.988 8.11 37.5 8.93 8.664-6.691 18.933-8.18 30.804-4.465 3.965 3.106 8.43 5.633 13.39 7.59Zm0 0"/><path style="stroke:none;fill-rule:evenodd;fill:#a318bf;fill-opacity:1" d="M431.918 87.945c-.211 1.52.008 3.008.672 4.465 2.816-1.996 5.941-2.89 9.375-2.68.855 1.825.187 3.313-2.008 4.465-1.906.188-3.691.633-5.36 1.34a44.91 44.91 0 0 0 8.036 3.125c-.094 1.617-1.211 2.809-3.348 3.57a25.354 25.354 0 0 0-7.367-.89c-.293 1.047.156 1.941 1.34 2.68 2.316.468 4.105 1.359 5.36 2.675-.446.895-1.34 1.489-2.68 1.785-2.442-1.113-5.122-1.707-8.036-1.785-1.289 1.578-1.734 3.364-1.34 5.36h-4.019v-3.575c.297-1.046-.152-1.94-1.336-2.675-1.824.605-3.61 1.203-5.36 1.785-1.34 1.191-2.679 1.191-4.015 0a160.662 160.662 0 0 1 4.016-5.36c-1.946-1.285-3.286-2.773-4.016-4.46.379-.707 1.047-1.301 2.008-1.79 2.375 2.274 4.832 2.274 7.367 0-2.531-.984-4.762-2.175-6.7-3.57 1.919-4.18 5.044-4.476 9.376-.89a36.304 36.304 0 0 0 2.68-5.36c1.593-.828 3.378-1.125 5.355-.89v2.675Zm0 0"/><path style="stroke:none;fill-rule:evenodd;fill:#b2b0fa;fill-opacity:1" d="M431.918 87.945a64.892 64.892 0 0 1 10.715.45c5.058 1.738 9.523 3.968 13.394 6.695.176.781-.27 1.379-1.34 1.785-3.113-2.25-6.687-2.844-10.714-1.785-1.485-.05-2.825-.348-4.016-.895 2.195-1.152 2.863-2.64 2.008-4.465-3.434-.21-6.559.684-9.375 2.68-.664-1.457-.883-2.945-.672-4.465Zm0 0"/><path style="stroke:none;fill-rule:evenodd;fill:#230df5;fill-opacity:1" d="M439.957 94.195c1.191.547 2.531.844 4.016.895 2.203 2.008 5.105 3.496 8.707 4.465.25 1.394-.864 1.988-3.348 1.785-1.906-1.274-4.14-2.164-6.7-2.68a44.91 44.91 0 0 1-8.034-3.125c1.668-.707 3.453-1.152 5.359-1.34Zm0 0"/><path style="stroke:none;fill-rule:evenodd;fill:#b7b7fb;fill-opacity:1" d="M411.832 97.77c.73 1.687 2.07 3.175 4.016 4.46a160.662 160.662 0 0 0-4.016 5.36c-19.504 20.336-38.031 41.168-55.582 62.5-12.133 6.648-24.855 12.75-38.168 18.305a95351.726 95351.726 0 0 0-26.117 29.91c-14.55 19.992-29.059 39.93-43.527 59.82a38.407 38.407 0 0 1-2.68-1.785c-2.676 1.191-5.356 2.379-8.035 3.57-1.313-2.308-1.758-4.691-1.34-7.14a9.076 9.076 0 0 1 2.012 4.46c6.656-5.601 11.566-11.851 14.73-18.75 11.605-24.984 23.21-49.984 34.82-75a2111.11 2111.11 0 0 1 29.465-49.105c13.149-3.715 26.317-7.438 39.508-11.16 6.941-3.36 13.64-6.93 20.09-10.715a780.756 780.756 0 0 0 34.824-14.73Zm0 0"/><path style="stroke:none;fill-rule:evenodd;fill:#c2befa;fill-opacity:1" d="M442.633 98.66c2.558.516 4.793 1.406 6.699 2.68-1.09 1.027-2.43 1.027-4.02 0-1.34.297-2.234.89-2.68 1.785 2.04 1.895 4.716 3.234 8.036 4.02-3.008 1.136-5.688 2.476-8.035 4.015h-14.73v-4.465c2.913.078 5.593.672 8.034 1.785 1.34-.296 2.235-.89 2.68-1.785-1.254-1.316-3.043-2.207-5.36-2.675-1.183-.739-1.632-1.633-1.339-2.68a25.354 25.354 0 0 1 7.367.89c2.137-.761 3.254-1.953 3.348-3.57Zm0 0"/><path style="stroke:none;fill-rule:evenodd;fill:#dbdbfd;fill-opacity:1" d="M43.527 12.055c17.22 5.965 33.957 12.511 50.223 19.64a4002.019 4002.019 0 0 0 57.59 126.785c9.148 10.415 17.406 21.13 24.777 32.145-1.336-.078-2.449.223-3.347.895-.665-1.461-.887-2.95-.672-4.465h-4.016c-3.164-3.028-5.84-6.301-8.039-9.825 1.156.864 2.05.864 2.68 0-3.563-5.347-7.801-10.406-12.723-15.175A2696.442 2696.442 0 0 1 91.07 33.48C74.54 25.953 57.352 18.96 39.508 12.5c-1.602-.586-1.602-1.031 0-1.34 1.23.563 2.566.86 4.02.895Zm0 0"/><path style="stroke:none;fill-rule:evenodd;fill:#2019f9;fill-opacity:1" d="M411.832 107.59c1.336 1.191 2.676 1.191 4.016 0a126533.25 126533.25 0 0 0-56.918 65.18c-12.473 6.687-25.422 12.937-38.84 18.75-23.95 27.761-45.824 56.332-65.625 85.71a82.68 82.68 0 0 1-8.707 7.145c-2.145.168-3.934-.277-5.356-1.34 3.344-1.187 6.02-2.824 8.036-4.91 14.468-19.89 28.976-39.828 43.527-59.82 8.703-9.973 17.41-19.942 26.117-29.91 13.313-5.555 26.035-11.657 38.168-18.305 17.55-21.332 36.078-42.164 55.582-62.5Zm0 0"/><path style="stroke:none;fill-rule:evenodd;fill:#b7b7fb;fill-opacity:1" d="M422.543 108.48c-10.852 13.297-19.559 27.286-26.113 41.965-10.79 21.551-22.399 42.977-34.825 64.285-2.425 1.833-4.21 3.918-5.355 6.25-33.777 23.114-67.484 46.18-101.117 69.2a166.345 166.345 0 0 1-16.07 4.91 16.944 16.944 0 0 1-2.68-4.465c1.55-3.93 4.676-4.527 9.375-1.785 1.054-.664 1.945-1.406 2.68-2.235-1.18-.628-2.07-1.375-2.68-2.23a82.68 82.68 0 0 0 8.707-7.145c19.8-29.378 41.676-57.949 65.625-85.71 13.418-5.813 26.367-12.063 38.84-18.75a126533.25 126533.25 0 0 1 56.918-65.18c1.75-.582 3.535-1.18 5.359-1.785 1.184.734 1.633 1.629 1.336 2.675Zm0 0"/><path style="stroke:none;fill-rule:evenodd;fill:#ccccfc;fill-opacity:1" d="M422.543 108.48v3.575c0 .593.45.89 1.34.89-7.29 7.547-12.422 15.88-15.403 25a3067.045 3067.045 0 0 1-49.55 129.465c-11.16 10.121-22.325 20.238-33.485 30.36-1.543 1.109-3.332 2-5.355 2.675-.649.848-.871 1.743-.672 2.68a386.227 386.227 0 0 1-34.148 3.57c-10.485-.515-20.977-.96-31.477-1.34-7.34-1.742-14.93-2.636-22.766-2.675-2.828-.754-5.507-1.5-8.035-2.235h5.356c-1.43-6.617 1.472-7.808 8.707-3.57.96-.484 1.629-1.082 2.007-1.785a166.345 166.345 0 0 0 16.07-4.91c33.634-23.02 67.34-46.086 101.118-69.2 1.145-2.332 2.93-4.417 5.355-6.25 12.426-21.308 24.036-42.734 34.825-64.285 6.554-14.68 15.261-28.668 26.113-41.965Zm0 0"/><path style="stroke:none;fill-rule:evenodd;fill:#b87be3;fill-opacity:1" d="M427.902 106.695v4.465c-.43 1.383-1.77 1.977-4.02 1.785-.89 0-1.339-.297-1.339-.89h4.02c-.395-1.996.05-3.782 1.34-5.36Zm0 0"/><path style="stroke:none;fill-rule:evenodd;fill:#a519be;fill-opacity:1" d="M461.383 90.625c-.41 2.164.035 4.246 1.34 6.25a244.56 244.56 0 0 0 5.359-2.68c3.797.301 4.688 1.493 2.676 3.575a32.094 32.094 0 0 0-6.695 2.23c4.82.684 7.5 2.617 8.035 5.805-1.926.898-3.711.601-5.356-.895-1.57.375-2.91.969-4.02 1.785 1.38 1.664 3.387 2.856 6.028 3.575.629.96.406 1.851-.668 2.675a716.9 716.9 0 0 0-8.039-2.675c-1.512 1.898-1.734 3.98-.668 6.25 2.293-.97 4.3-.668 6.027.89 1.282.406 2.399 1 3.348 1.785.66-1.457.883-2.945.668-4.465.262-2.152 2.047-3.043 5.36-2.675v5.355c2.679-.594 5.355-1.191 8.034-1.785 1.508.555 2.848 1.3 4.02 2.23-2.836 1.047-3.727 2.387-2.68 4.02 2.68-.895 5.356-1.785 8.036-2.68 3.261 1.473 3.261 2.66 0 3.575-1.528 1.16-3.313 2.203-5.356 3.125 2.898.812 5.574 1.855 8.035 3.125-1.777 1.02-3.117 2.21-4.02 3.57-1.84.262-3.624.558-5.355.89-1.457.11-2.347.704-2.68 1.79 1.051 1.847 2.84 3.335 5.356 4.46a37.84 37.84 0 0 0-1.336 1.79c-3.203-.848-6.102-2.036-8.707-3.575-.664 1.762-.887 3.547-.668 5.36-.43 1.382-1.77 1.976-4.02 1.785a170.607 170.607 0 0 1-2.68-6.25 70.607 70.607 0 0 0-7.362 2.68c-1.649-.696-2.094-1.586-1.34-2.68a73.4 73.4 0 0 1 7.363-3.57 842.389 842.389 0 0 1-8.035-3.575c.14-2.207 1.48-2.8 4.02-1.785 1.34-.89 2.679-1.785 4.015-2.68l-1.336-.89c-2.715.902-5.394 1.797-8.039 2.68-.89-.598-1.785-1.192-2.676-1.79 1.953-1.75 4.188-3.386 6.695-4.91-1.988-1.402-4.218-2.593-6.695-3.57l1.34-.895a16.592 16.592 0 0 0-5.36-.445 19.59 19.59 0 0 0-.667-7.14 71.572 71.572 0 0 1-7.368 2.675c-1.367-.316-2.261-.91-2.68-1.785 2.348-1.539 5.028-2.879 8.036-4.015-3.32-.786-5.996-2.125-8.035-4.02.445-.895 1.34-1.488 2.68-1.785 1.59 1.027 2.93 1.027 4.019 0 2.484.203 3.598-.39 3.348-1.785-3.602-.97-6.504-2.457-8.707-4.465 4.027-1.059 7.601-.465 10.714 1.785 1.07-.406 1.516-1.004 1.34-1.785v-4.465h5.356Zm0 0"/><path style="stroke:none;fill-rule:evenodd;fill:#b0acf9;fill-opacity:1" d="M460.043 110.27c1.805 2.402 3.59 4.785 5.36 7.14-1.727-1.558-3.735-1.86-6.028-.89-1.066-2.27-.844-4.352.668-6.25Zm0 0"/><path style="stroke:none;fill-rule:evenodd;fill:#2a10f4;fill-opacity:1" d="M460.043 110.27a716.9 716.9 0 0 1 8.039 2.675c-.23.887.215 1.48 1.336 1.785.215 1.52-.008 3.008-.668 4.465-.95-.785-2.066-1.379-3.348-1.785-1.77-2.355-3.554-4.738-5.359-7.14Zm0 0"/><path style="stroke:none;fill-rule:evenodd;fill:#c1b4f7;fill-opacity:1" d="M472.098 105.805c2.644 3.86 6.214 7.132 10.714 9.82-2.68.594-5.355 1.191-8.035 1.785v-5.355c-3.312-.368-5.097.523-5.359 2.675-1.121-.304-1.566-.898-1.336-1.785 1.074-.824 1.297-1.715.668-2.675-2.64-.72-4.648-1.91-6.027-3.575 1.109-.816 2.449-1.41 4.02-1.785 1.644 1.496 3.429 1.793 5.355.895Zm0 0"/><path style="stroke:none;fill-rule:evenodd;fill:#fefefe;fill-opacity:1" d="M457.367 127.23c.89.598 1.785 1.192 2.676 1.79-.316 1.152.129 2.042 1.34 2.675 2.594 1.172 5.27 2.36 8.035 3.575a73.4 73.4 0 0 0-7.363 3.57c-.754 1.094-.309 1.984 1.34 2.68a70.607 70.607 0 0 1 7.363-2.68c.894 2.203 1.789 4.285 2.68 6.25 5.863 6.629 11 13.472 15.402 20.535a1884.267 1884.267 0 0 1 26.785 83.93 2995.748 2995.748 0 0 1 42.188 87.945c13.832 4.906 27.671 9.82 41.519 14.73v47.325h-600V382.59a432.743 432.743 0 0 1 41.516-16.52 1394.022 1394.022 0 0 1 51.562-20.98 4609.647 4609.647 0 0 1 34.82-79.465c4.606-13.379 10.856-26.473 18.75-39.285 2.266-3.625 5.165-6.899 8.708-9.82 1.19.542 2.53.84 4.019.89 1.332-.078 2.45.223 3.348.895 2.629 4.699 5.98 9.164 10.043 13.39-2.86 1.395-3.082 2.883-.668 4.465 2.605-1.5 5.28-2.097 8.035-1.785 1.125 2.516.008 4.45-3.348 5.805 1.88 2.613 4.336 2.765 7.363.445 1.993.586 3.555 1.477 4.688 2.68-1.668 1.746-3.902 3.086-6.695 4.015.734.828 1.625 1.57 2.68 2.235 1.226-.563 2.566-.86 4.015-.895 3.09 2.668 3.539 5.645 1.34 8.93.52 2.172 1.41 4.254 2.68 6.25-1.813 1.453-1.364 2.644 1.34 3.57a363.034 363.034 0 0 0 18.75 27.68c.445.89 1.34 1.488 2.679 1.785 1.168 4.383 4.293 8.102 9.375 11.16a533.25 533.25 0 0 0 17.41 3.125 3817.364 3817.364 0 0 0 48.215 37.055 659.998 659.998 0 0 1 28.125 10.265c1.309-.425 2.422-1.02 3.348-1.785 10.488-12.203 21.648-24.11 33.48-35.715 1.34-2.082 2.68-4.164 4.02-6.25 16.87-50.351 32.05-100.945 45.535-151.785a1418.049 1418.049 0 0 1 16.07-38.39c4.988-5.54 12.356-7.477 22.098-5.805a201.614 201.614 0 0 1 14.734 8.48Zm0 0"/><path style="stroke:none;fill-rule:evenodd;fill:#b7b7fb;fill-opacity:1" d="M599.332 123.66v56.25c-25.832-4.672-52.168-7.203-79.02-7.59a2635.843 2635.843 0 0 1-34.82-38.84c1.73-.332 3.516-.628 5.356-.89a680.755 680.755 0 0 0 27.457 13.39 697.197 697.197 0 0 0 38.168-24.55 716.445 716.445 0 0 1 42.859 2.23Zm0 0"/><path style="stroke:none;fill-rule:evenodd;fill:#b8b8fb;fill-opacity:1" d="M-.668 123.66a5008.206 5008.206 0 0 1 93.75 11.16c24.031 16.762 47.246 33.875 69.64 51.34-1.011-3.195-3.023-6.469-6.027-9.82-4.199-2.055-7.101-4.735-8.703-8.035.63-.86 1.524-.86 2.676 0 2.652 3.254 5.773 6.23 9.375 8.925 2.2 3.524 4.875 6.797 8.039 9.825-.894 8.332-1.785 8.332-2.68 0h-5.359v2.675c-9.484-3.148-19.531-4.933-30.133-5.355a6328.512 6328.512 0 0 1-130.578 2.68V123.66Zm0 0"/><path style="stroke:none;fill-rule:evenodd;fill:#cdc5f9;fill-opacity:1" d="M461.383 131.695c-1.211-.632-1.656-1.523-1.34-2.675 2.644-.883 5.324-1.778 8.039-2.68l1.336.89c-1.336.895-2.676 1.79-4.016 2.68-2.539-1.015-3.879-.422-4.02 1.785Zm0 0"/><path style="stroke:none;fill-rule:evenodd;fill:#b8b8fb;fill-opacity:1" d="M486.832 141.52a2154.978 2154.978 0 0 0 30.8 33.48c13.833.93 27.673 1.824 41.52 2.68a927.368 927.368 0 0 0 40.18 4.91v56.25c-13.379-2.676-26.77-5.352-40.18-8.035-14.726-9.672-28.789-19.79-42.187-30.36a1521.72 1521.72 0 0 0-28.125-49.105 2043.252 2043.252 0 0 1 30.805 74.105c1.64 3.082 3.648 6.059 6.023 8.93-.629.86-1.52.86-2.676 0a34.953 34.953 0 0 1-4.687-5.355 2774.262 2774.262 0 0 0-28.797-70.09c-2.14-5.914-6.16-11.121-12.051-15.625-.219-1.813.004-3.598.668-5.36 2.605 1.54 5.504 2.727 8.707 3.575Zm0 0"/><path style="stroke:none;fill-rule:evenodd;fill:#e2e2fd;fill-opacity:1" d="M457.367 127.23a201.614 201.614 0 0 0-14.734-8.48c-9.742-1.672-17.11.266-22.098 5.805a1418.049 1418.049 0 0 0-16.07 38.39C390.98 213.785 375.8 264.38 358.93 314.73a8711.75 8711.75 0 0 1-4.02 6.25c-11.832 11.606-22.992 23.512-33.48 35.715-.926.766-2.04 1.36-3.348 1.785a659.998 659.998 0 0 0-28.125-10.265 3817.364 3817.364 0 0 1-48.215-37.055 533.25 533.25 0 0 1-17.41-3.125c-5.082-3.058-8.207-6.777-9.375-11.16 6.711-4.023 9.39-2.832 8.035 3.57 2.528.735 5.207 1.48 8.035 2.235 7.836.039 15.426.933 22.766 2.675 10.5.38 20.992.825 31.477 1.34a386.227 386.227 0 0 0 34.148-3.57c-.2-.938.023-1.832.672-2.68 2.023-.675 3.812-1.566 5.355-2.675 11.16-10.122 22.325-20.239 33.485-30.36a3067.045 3067.045 0 0 0 49.55-129.465c2.98-9.12 8.114-17.453 15.403-25 2.25.192 3.59-.402 4.02-1.785h14.73c.418.875 1.312 1.469 2.68 1.785a71.572 71.572 0 0 0 7.367-2.675 19.59 19.59 0 0 1 .668 7.14c1.84-.14 3.625.008 5.359.445l-1.34.895c2.477.977 4.707 2.168 6.695 3.57-2.507 1.524-4.742 3.16-6.695 4.91Zm0 0"/><path style="stroke:none;fill-rule:evenodd;fill:#cdcdfc;fill-opacity:1" d="M599.332 238.84v57.14l-42.86-12.5a1609.492 1609.492 0 0 1-33.48-49.105c1.156.86 2.047.86 2.676 0-2.375-2.871-4.383-5.848-6.023-8.93a2043.252 2043.252 0 0 0-30.805-74.105 1521.72 1521.72 0 0 1 28.125 49.105c13.398 10.57 27.46 20.688 42.187 30.36 13.41 2.683 26.801 5.36 40.18 8.035Zm0 0"/><path style="stroke:none;fill-rule:evenodd;fill:#231bf9;fill-opacity:1" d="M485.492 133.48a2635.843 2635.843 0 0 0 34.82 38.84c26.852.387 53.188 2.918 79.02 7.59v2.68a927.368 927.368 0 0 1-40.18-4.91 7686.284 7686.284 0 0 1-41.52-2.68 2154.978 2154.978 0 0 1-30.8-33.48 37.84 37.84 0 0 1 1.336-1.79c-2.516-1.125-4.305-2.613-5.356-4.46.333-1.086 1.223-1.68 2.68-1.79Zm0 0"/><path style="stroke:none;fill-rule:evenodd;fill:#2b21fa;fill-opacity:1" d="M160.043 189.73c-.332 1.27-1.45 2.165-3.348 2.68-1.484-1.37-3.496-1.965-6.027-1.785a136.257 136.257 0 0 0-17.41-3.57A1951.786 1951.786 0 0 1-.668 189.73v-2.675a6328.512 6328.512 0 0 0 130.578-2.68c10.602.422 20.649 2.207 30.133 5.355Zm0 0"/><path style="stroke:none;fill-rule:evenodd;fill:#a419be;fill-opacity:1" d="M168.082 187.055h4.016c-.215 1.515.007 3.004.672 4.465.898-.672 2.011-.973 3.347-.895-.176.781.27 1.379 1.34 1.785 1.652-.664 3.441-.96 5.356-.89.199.937-.024 1.832-.668 2.675a72.79 72.79 0 0 0-7.368 3.125c2.934.828 5.614 1.871 8.036 3.125v2.68c-2.532.18-4.54-.414-6.028-1.785-1.14 1.45-2.48 1.746-4.015.89-.965 1.442-.743 2.782.667 4.02 2.665.16 5.34.012 8.036-.445v2.675h4.02c-.423 2.454.027 4.836 1.339 7.145 1.656-.395 2.996-.988 4.016-1.785 2.746-1.375 4.98-1.074 6.695.89-3.121 1.34-6.25 2.68-9.375 4.02 3.582.895 6.707 2.234 9.375 4.02-.84.816-1.285 1.71-1.336 2.675-.336 1.27-1.453 2.164-3.352 2.68-1.183 1.91-.511 3.398 2.012 4.465 2.442-1.113 5.117-1.711 8.035-1.785 1.508 1.027 1.508 1.922 0 2.675-4.355.489-5.695 1.977-4.02 4.465 3.063.825 6.188.825 9.376 0 1.3 1.305.855 2.496-1.34 3.575-2.129.113-3.914.707-5.356 1.785 2.387 1.547 5.067 2.882 8.036 4.015a10.356 10.356 0 0 1-2.68 2.235c-2.7-.918-5.379-1.813-8.035-2.68-1.352 1.352-1.797 3.434-1.34 6.25h-4.016a19.537 19.537 0 0 0-.672-7.145c-2.03.594-3.593 1.489-4.687 2.68-1.45.035-2.79.332-4.016.895-1.054-.664-1.945-1.407-2.68-2.235 2.794-.93 5.028-2.27 6.696-4.015-1.133-1.203-2.695-2.094-4.688-2.68-3.027 2.32-5.484 2.168-7.363-.445 3.356-1.356 4.473-3.29 3.348-5.805-2.754-.313-5.43.285-8.035 1.785-2.414-1.582-2.192-3.07.668-4.465 2.129-.113 3.914-.707 5.359-1.785-2.012-1.117-4.246-2.012-6.7-2.68-1.507-1.167-1.507-2.355 0-3.57 1.43-2 3.665-3.637 6.7-4.91a50.59 50.59 0 0 1-6.027-3.125c-.664 1.762-.887 3.547-.672 5.355h-5.356c.41-2.164-.035-4.246-1.34-6.25a253.03 253.03 0 0 0-5.355 2.68c-1.488-.05-2.828-.347-4.02-.89-.113-.891.333-1.633 1.34-2.235 8.594-2.25 8.149-4.183-1.34-5.805.813-2.796 3.047-3.39 6.696-1.785.215-1.515-.008-3.004-.668-4.465-2.824.063-5.727.36-8.707.895-1.238-.766-2.133-1.656-2.676-2.68 3.016-.816 5.695-2.007 8.035-3.57-2.918-1.121-5.597-2.46-8.035-4.02 1.004-.597 1.453-1.34 1.336-2.23 2.531-.18 4.543.414 6.027 1.785 1.899-.515 3.016-1.41 3.348-2.68v-2.675h5.36c.894 8.332 1.785 8.332 2.679 0Zm0 0"/><path style="stroke:none;fill-rule:evenodd;fill:#b8b8fb;fill-opacity:1" d="M150.668 190.625c.117.89-.332 1.633-1.336 2.23 2.438 1.56 5.117 2.899 8.035 4.02-2.34 1.563-5.02 2.754-8.035 3.57-3.008.39-5.91.985-8.707 1.785a1320.09 1320.09 0 0 1-48.883 38.84 951.834 951.834 0 0 1-57.59 7.145 386.349 386.349 0 0 0-34.82 5.805v-64.29c44.727.641 89.371-.253 133.926-2.675a136.257 136.257 0 0 1 17.41 3.57Zm0 0"/><path style="stroke:none;fill-rule:evenodd;fill:#e2e2fd;fill-opacity:1" d="M477.457 143.305c5.89 4.504 9.91 9.71 12.05 15.625a2774.262 2774.262 0 0 1 28.798 70.09 34.953 34.953 0 0 0 4.687 5.355 1609.492 1609.492 0 0 0 33.48 49.105l42.86 12.5v56.25c-13.848-4.91-27.687-9.824-41.52-14.73a2995.748 2995.748 0 0 0-42.187-87.945 1884.267 1884.267 0 0 0-26.785-83.93c-4.402-7.063-9.54-13.906-15.402-20.535 2.25.191 3.59-.403 4.019-1.785Zm0 0"/><path style="stroke:none;fill-rule:evenodd;fill:#cdcdfc;fill-opacity:1" d="M149.332 200.445c.543 1.024 1.438 1.914 2.676 2.68a56.292 56.292 0 0 1 8.707-.895c.66 1.461.883 2.95.668 4.465-3.649-1.605-5.883-1.011-6.696 1.785-4.347 1.622-8.14 3.704-11.382 6.25a2204.287 2204.287 0 0 0-50.223 77.68 2692.002 2692.002 0 0 0-93.75 26.785V254.02a386.349 386.349 0 0 1 34.82-5.805 951.834 951.834 0 0 0 57.59-7.145 1320.09 1320.09 0 0 0 48.883-38.84c2.797-.8 5.7-1.394 8.707-1.785Zm0 0"/><path style="stroke:none;fill-rule:evenodd;fill:#bfb9fa;fill-opacity:1" d="M182.813 200.445c1.89 2.43 2.785 5.106 2.68 8.035h-4.02v-2.675a35.243 35.243 0 0 1-8.036.445c-1.41-1.238-1.632-2.578-.667-4.02 1.535.856 2.875.56 4.015-.89 1.488 1.37 3.496 1.965 6.028 1.785v-2.68Zm0 0"/><path style="stroke:none;fill-rule:evenodd;fill:#beaef5;fill-opacity:1" d="M161.383 206.695c2.484-.203 3.601.395 3.347 1.785-1.332-.503-2.445-1.097-3.347-1.785Zm0 0"/><path style="stroke:none;fill-rule:evenodd;fill:#e4e3fd;fill-opacity:1" d="M154.688 208.48c9.488 1.622 9.933 3.555 1.34 5.805-1.008.602-1.454 1.344-1.34 2.235-3.543 2.921-6.442 6.195-8.708 9.82-7.894 12.812-14.144 25.906-18.75 39.285-11.89 26.46-23.5 52.95-34.82 79.465a1394.022 1394.022 0 0 0-51.562 20.98A432.743 432.743 0 0 0-.668 382.59v-63.395a2692.002 2692.002 0 0 1 93.75-26.785 2204.287 2204.287 0 0 1 50.223-77.68c3.242-2.546 7.035-4.628 11.382-6.25Zm0 0"/><path style="stroke:none;fill-rule:evenodd;fill:#2417f5;fill-opacity:1" d="m177.457 210.27 1.336 3.57c-5.824-1.086-6.27-2.278-1.336-3.57Zm0 0"/><path style="stroke:none;fill-rule:evenodd;fill:#cdb6f3;fill-opacity:1" d="M185.492 208.48c1.063 2.16 2.848 3.946 5.356 5.36-1.02.797-2.36 1.39-4.016 1.785-1.312-2.309-1.762-4.691-1.34-7.145Zm0 0"/><path style="stroke:none;fill-rule:evenodd;fill:#aea4f7;fill-opacity:1" d="M181.473 208.48a15.09 15.09 0 0 1-.668 6.25c-.516-.496-1.184-.792-2.012-.89-.445-1.192-.89-2.383-1.336-3.57 1.055-.805 2.395-1.403 4.016-1.79Zm0 0"/><path style="stroke:none;fill-rule:evenodd;fill:#c0acf4;fill-opacity:1" d="M170.758 223.66a32.959 32.959 0 0 0-5.356-2.68h5.356c-.215-1.808.008-3.593.672-5.355a50.59 50.59 0 0 0 6.027 3.125c-3.035 1.273-5.27 2.91-6.7 4.91Zm0 0"/><path style="stroke:none;fill-rule:evenodd;fill:#dcd9fc;fill-opacity:1" d="M165.402 220.98a32.959 32.959 0 0 1 5.356 2.68c-1.508 1.215-1.508 2.403 0 3.57 2.453.668 4.687 1.563 6.699 2.68-1.445 1.078-3.23 1.672-5.36 1.785-4.062-4.226-7.413-8.691-10.042-13.39-.899-.672-2.016-.973-3.348-.895a253.03 253.03 0 0 1 5.356-2.68c1.304 2.004 1.75 4.086 1.34 6.25Zm0 0"/><path style="stroke:none;fill-rule:evenodd;fill:#b6acf7;fill-opacity:1" d="M185.492 221.875c7.324.781 7.996 2.27 2.008 4.465-1.7-1.254-2.371-2.742-2.008-4.465Zm0 0"/><path style="stroke:none;fill-rule:evenodd;fill:#b7b3fa;fill-opacity:1" d="M176.117 222.77h4.016c.297 3.832-1.488 4.43-5.356 1.785.485-.61.93-1.207 1.34-1.785Zm0 0"/><path style="stroke:none;fill-rule:evenodd;fill:#d3caf9;fill-opacity:1" d="M196.207 225.445c1.766 2.051 3.996 3.836 6.695 5.36-2.918.074-5.593.672-8.035 1.785-2.523-1.067-3.195-2.555-2.012-4.465 1.899-.516 3.016-1.41 3.352-2.68Zm0 0"/><path style="stroke:none;fill-rule:evenodd;fill:#d5ccf9;fill-opacity:1" d="M202.902 233.48c.442 2.27 2.227 3.754 5.356 4.465-3.188.825-6.313.825-9.375 0-1.676-2.488-.336-3.976 4.02-4.465Zm0 0"/><path style="stroke:none;fill-rule:evenodd;fill:#1c0ff7;fill-opacity:1" d="M198.883 246.875c.527 1.594 1.418 3.082 2.68 4.465.46 2.816.011 4.898-1.34 6.25-.895-1.488-1.786-2.977-2.68-4.465-.457-2.816-.012-4.898 1.34-6.25Zm0 0"/><path style="stroke:none;fill-rule:evenodd;fill:#b5acf8;fill-opacity:1" d="M198.883 246.875c2.656.867 5.336 1.762 8.035 2.68v1.785h-5.356c-1.261-1.383-2.152-2.871-2.68-4.465Zm0 0"/><path style="stroke:none;fill-rule:evenodd;fill:#c1b6f8;fill-opacity:1" d="M197.543 253.125c.894 1.488 1.785 2.977 2.68 4.465a39.696 39.696 0 0 1-7.368-2.68c-2.113 1.082-2.335 2.274-.667 3.57 7.109 1.825 7.109 3.614 0 5.36-1.27-1.996-2.16-4.078-2.68-6.25 2.199-3.285 1.75-6.262-1.34-8.93 1.094-1.191 2.656-2.086 4.687-2.68.668 2.364.891 4.747.672 7.145h4.016Zm0 0"/><path style="stroke:none;fill-rule:evenodd;fill:#a51fc0;fill-opacity:1" d="M201.563 251.34h5.355c-1.367 6.355 1.309 7.547 8.039 3.57 3.254 1.371 3.254 2.86 0 4.465-2.133.113-3.918.71-5.36 1.785a75.204 75.204 0 0 1 7.368 3.57c.629.965.406 1.856-.672 2.68-1.785-.594-3.57-1.191-5.356-1.785a318.487 318.487 0 0 1-4.019-1.785c-1.363 1.75-1.363 3.535 0 5.355-.914 1.496-2.7 2.094-5.356 1.785 2.079-7.703-.601-8.894-8.035-3.57-2.703-.926-3.152-2.117-1.34-3.57 7.11-1.746 7.11-3.535 0-5.36-1.667-1.296-1.445-2.488.668-3.57a39.696 39.696 0 0 0 7.368 2.68c1.351-1.352 1.8-3.434 1.34-6.25Zm0 0"/><path style="stroke:none;fill-rule:evenodd;fill:#2d18f6;fill-opacity:1" d="M210.938 265.625c2.421 4.418 5.546 8.586 9.375 12.5.832 1.008 1.949 1.898 3.347 2.68 1.047 1.683.82 3.172-.668 4.465-6.039-5.086-11.398-10.442-16.074-16.075-1.363-1.82-1.363-3.605 0-5.355 1.363.617 2.703 1.21 4.02 1.785Zm0 0"/><path style="stroke:none;fill-rule:evenodd;fill:#b1b0fb;fill-opacity:1" d="m210.938 265.625 5.355 1.785c3.574 3.274 7.144 6.547 10.715 9.82-1.45-.03-2.79-.332-4.016-.89a38.407 38.407 0 0 1-2.68 1.785c-3.828-3.914-6.953-8.082-9.375-12.5Zm0 0"/><path style="stroke:none;fill-rule:evenodd;fill:#a31bc0;fill-opacity:1" d="M236.383 272.77c-.418 2.449.027 4.832 1.34 7.14 2.68-1.191 5.359-2.379 8.035-3.57a38.407 38.407 0 0 0 2.68 1.785c-2.016 2.086-4.692 3.723-8.036 4.91 1.422 1.063 3.211 1.508 5.356 1.34.61.855 1.5 1.602 2.68 2.23-.735.829-1.625 1.57-2.68 2.235-4.7-2.742-7.824-2.145-9.375 1.785a16.944 16.944 0 0 0 2.68 4.465c-.38.703-1.047 1.3-2.008 1.785-7.235-4.238-10.137-3.047-8.707 3.57h-5.356c1.356-6.402-1.324-7.593-8.035-3.57-1.34-.297-2.234-.895-2.68-1.785a428.932 428.932 0 0 1 8.036-4.465c-2.336-1.375-5.012-2.266-8.036-2.68-.254-1.43.418-2.62 2.008-3.57 2.684 1.75 5.586 2.047 8.707.895 1.488-1.293 1.715-2.782.668-4.465-1.398-.782-2.515-1.672-3.347-2.68a38.407 38.407 0 0 0 2.68-1.785c1.226.558 2.566.86 4.015.89 1.094 1.196 2.656 2.09 4.687 2.68.668-2.363.89-4.742.672-7.14h4.016Zm0 0"/><path style="stroke:none;fill-rule:evenodd;fill:#d9d7fd;fill-opacity:1" d="M201.563 270.98a335.02 335.02 0 0 0 10.714 16.965c3.024.414 5.7 1.305 8.036 2.68a428.932 428.932 0 0 0-8.036 4.465 363.034 363.034 0 0 1-18.75-27.68c7.434-5.324 10.114-4.133 8.036 3.57Zm0 0"/><path style="stroke:none;fill-rule:evenodd;fill:#bcbbfb;fill-opacity:1" d="M206.918 269.195c4.676 5.633 10.035 10.989 16.074 16.075-3.12 1.152-6.023.855-8.707-.895-1.59.95-2.262 2.14-2.008 3.57a335.02 335.02 0 0 1-10.714-16.965c2.656.31 4.44-.289 5.355-1.785Zm0 0"/></svg>