<svg xmlns="http://www.w3.org/2000/svg" width="600" height="400"><path style="stroke:none;fill-rule:evenodd;fill:#fdfdfe;fill-opacity:1" d="M-.676-.695h20.27a36433.103 36433.103 0 0 0 206.758 149.824c-.805.648-1.704.879-2.704.695a71.951 71.951 0 0 1-12.16-5.574A8341.438 8341.438 0 0 0-.676 10.453V-.695Zm0 0"/><path style="stroke:none;fill-rule:evenodd;fill:#d8dde5;fill-opacity:1" d="M19.594-.695h8.11a11837.961 11837.961 0 0 0 210.808 152.613 45.01 45.01 0 0 1 8.11 7.664 71.72 71.72 0 0 1-12.161-5.574c-4.348 1.023-7.95-.371-10.813-4.184 1 .184 1.899-.047 2.704-.695A36433.103 36433.103 0 0 1 19.594-.695Zm0 0"/><path style="stroke:none;fill-rule:evenodd;fill:#fefefe;fill-opacity:1" d="M27.703-.695h524.324a28634.267 28634.267 0 0 1-206.757 168.64h-1.352c-17.324 1.426-34.664 2.82-52.027 4.18a323.575 323.575 0 0 1-34.457-6.969c-3.641-1.875-7.247-3.734-10.813-5.574a45.01 45.01 0 0 0-8.11-7.664A11837.961 11837.961 0 0 1 27.704-.695ZM558.785-.695h40.54v27.87a13941.43 13941.43 0 0 0-228.38 128.923c-1.699 1.367-3.504 1.832-5.406 1.394A33947.887 33947.887 0 0 0 558.785-.695Zm0 0"/><path style="stroke:none;fill-rule:evenodd;fill:#fdfdfe;fill-opacity:1" d="M-.676 16.027A18371.724 18371.724 0 0 1 165.54 119.86c-1.351.93-2.703.93-4.05 0A13415.719 13415.719 0 0 0-.677 36.934V16.027Zm0 0"/><path style="stroke:none;fill-rule:evenodd;fill:#d6dce4;fill-opacity:1" d="M552.027-.695h6.758A33947.887 33947.887 0 0 1 365.54 157.492c1.902.438 3.707-.027 5.406-1.394a13941.43 13941.43 0 0 1 228.38-128.922v5.578a26404.38 26404.38 0 0 0-213.513 119.164c-1.617.91-1.617 1.605 0 2.09a2066.617 2066.617 0 0 1 91.891-43.207 608.205 608.205 0 0 1-33.785 19.511 2745.094 2745.094 0 0 0-74.324 34.844 27.185 27.185 0 0 1-6.758 1.395 150.077 150.077 0 0 1-17.566 1.394A28634.267 28634.267 0 0 0 552.027-.695Zm0 0"/><path style="stroke:none;fill-rule:evenodd;fill:#fdfdfd;fill-opacity:1" d="M599.324 32.754v12.543a3323.91 3323.91 0 0 0-79.73 44.598c-3.133.687-5.836 2.082-8.106 4.183a574.862 574.862 0 0 0-33.785 16.723 2066.617 2066.617 0 0 0-91.89 43.207c-1.618-.485-1.618-1.18 0-2.09A26404.38 26404.38 0 0 1 599.323 32.754Zm0 0"/><path style="stroke:none;fill-rule:evenodd;fill:#d7dde4;fill-opacity:1" d="M-.676 10.453A8341.438 8341.438 0 0 1 211.488 144.25l-21.625-9.754a4196.293 4196.293 0 0 1-49.324-22.3c-.676.23-1.351.464-2.027.695a457.241 457.241 0 0 1 29.73 16.027A19422.404 19422.404 0 0 1-.676 55.051v-5.574a2266.54 2266.54 0 0 0 98.649 42.507L-.676 42.508v-5.574a13415.719 13415.719 0 0 1 162.164 82.925c1.348.93 2.7.93 4.051 0A18371.724 18371.724 0 0 0-.676 16.027v-5.574Zm0 0"/><path style="stroke:none;fill-rule:evenodd;fill:#fbfbfc;fill-opacity:1" d="m-.676 42.508 98.649 49.476A2266.54 2266.54 0 0 1-.676 49.477v-6.97Zm0 0"/><path style="stroke:none;fill-rule:evenodd;fill:#dadfe6;fill-opacity:1" d="M599.324 45.297v8.363a3045.286 3045.286 0 0 0-79.73 36.235 3323.91 3323.91 0 0 1 79.73-44.598Zm0 0"/><path style="stroke:none;fill-rule:evenodd;fill:#d7dde4;fill-opacity:1" d="M-.676 56.445a7973.155 7973.155 0 0 1 178.38 86.41c-5.407-1.652-10.81-2.812-16.216-3.484 12.73 7.477 26.246 12.121 40.54 13.938-4.493-1.45-8.544-3.54-12.165-6.27a513.962 513.962 0 0 1 18.246 4.18c1.446-.04 2.57-.504 3.38-1.395a145.771 145.771 0 0 1 20.269 12.547 179.157 179.157 0 0 0-21.621-4.879c7.215 2.79 13.972 6.274 20.27 10.453a164.598 164.598 0 0 1-19.595-6.968c-.675.23-1.351.464-2.027.695 4.805 2.242 9.309 4.797 13.512 7.668a1420.152 1420.152 0 0 1-81.082-30.664 597.99 597.99 0 0 0 24.324 4.879 282.177 282.177 0 0 1-25.676-10.453c4.496 1.175 9 1.875 13.516 2.09A11628.865 11628.865 0 0 0-.676 62.02v-5.575Zm0 0"/><path style="stroke:none;fill-rule:evenodd;fill:#fdfdfd;fill-opacity:1" d="M-.676 62.02A11628.865 11628.865 0 0 1 153.38 135.19a65.622 65.622 0 0 1-13.516-2.09 223.143 223.143 0 0 1-18.918-5.574A3510.243 3510.243 0 0 0-.675 80.141V62.02Zm0 0"/><path style="stroke:none;fill-rule:evenodd;fill:#b9c3d0;fill-opacity:1" d="M599.324 53.66v5.574a523.46 523.46 0 0 0-51.351 24.391 1181.887 1181.887 0 0 0 51.351-21.605v5.578a16371.192 16371.192 0 0 0-150 65.504l27.028-15.332c4.312-.825 8.367-2.45 12.16-4.88-.899-.464-1.801-.93-2.7-1.39a316.167 316.167 0 0 0 35.133-18.121 59.208 59.208 0 0 0-9.457.7c2.27-2.102 4.973-3.497 8.106-4.184a3045.286 3045.286 0 0 1 79.73-36.235Zm0 0"/><path style="stroke:none;fill-rule:evenodd;fill:#fcfdfd;fill-opacity:1" d="M599.324 67.598v23.691a1685.302 1685.302 0 0 0-114.863 40.418 1129.695 1129.695 0 0 0-79.055 26.48c-.676-.23-1.351-.464-2.027-.695a248.585 248.585 0 0 0 14.863-9.058 684.065 684.065 0 0 1 31.082-15.332 16371.192 16371.192 0 0 1 150-65.504Zm0 0"/><path style="stroke:none;fill-rule:evenodd;fill:#fbfbfc;fill-opacity:1" d="M-.676 56.445v-1.394a19422.404 19422.404 0 0 0 168.918 73.867 777.073 777.073 0 0 0 39.192 18.121c1.066 1.254 2.418 2.184 4.054 2.785-.808.89-1.933 1.356-3.379 1.395a513.962 513.962 0 0 0-18.246-4.18 94.237 94.237 0 0 0-12.16-4.184A7973.155 7973.155 0 0 0-.676 56.445Zm0 0"/><path style="stroke:none;fill-rule:evenodd;fill:#ebeef1;fill-opacity:1" d="M599.324 59.234v2.786a1181.887 1181.887 0 0 1-51.351 21.605 523.46 523.46 0 0 1 51.351-24.39Zm0 0"/><path style="stroke:none;fill-rule:evenodd;fill:#d7dde4;fill-opacity:1" d="M-.676 80.14a3510.243 3510.243 0 0 1 121.621 47.387 750.318 750.318 0 0 0-31.082-7.668c9.867 3.305 19.328 7.254 28.38 11.848A5613.365 5613.365 0 0 1-.677 99.652V95.47a2591.35 2591.35 0 0 0 81.082 20.21A2845.449 2845.449 0 0 0-.676 85.716V80.14Zm0 0"/><path style="stroke:none;fill-rule:evenodd;fill:#fbfcfc;fill-opacity:1" d="M-.676 85.715a2845.449 2845.449 0 0 1 81.082 29.965A2591.35 2591.35 0 0 1-.676 95.469v-9.754Zm0 0"/><path style="stroke:none;fill-rule:evenodd;fill:#fdfdfd;fill-opacity:1" d="M-.676 99.652a5613.365 5613.365 0 0 0 118.918 32.055 326.533 326.533 0 0 1 22.973 6.969 1420.152 1420.152 0 0 0 81.082 30.664c.566 1.004 1.465 1.703 2.703 2.09a146.16 146.16 0 0 1-31.082-4.88 4661.6 4661.6 0 0 0-121.621-33.448 405.452 405.452 0 0 1-25.676-6.97A1091.771 1091.771 0 0 0-.676 108.017v-8.364Zm0 0"/><path style="stroke:none;fill-rule:evenodd;fill:#fcfcfd;fill-opacity:1" d="M599.324 98.258v16.726a21354.356 21354.356 0 0 0-165.539 40.418c-1.035-.097-1.71-.562-2.027-1.394a824.525 824.525 0 0 0 56.754-20.211 24.158 24.158 0 0 1 8.11-.695 4342.073 4342.073 0 0 1 102.702-34.844Zm0 0"/><path style="stroke:none;fill-rule:evenodd;fill:#d6dce4;fill-opacity:1" d="M-.676 108.016c16.004 5.71 31.77 11.75 47.297 18.117a602.266 602.266 0 0 0-28.379-6.274c9.406 2.84 18.414 6.325 27.028 10.454A2024.002 2024.002 0 0 0-.676 119.163v-11.148Zm0 0"/><path style="stroke:none;fill-rule:evenodd;fill:#d7dce4;fill-opacity:1" d="M599.324 91.29v2.788a8340.37 8340.37 0 0 0-114.863 37.629 1685.302 1685.302 0 0 1 114.863-40.418Zm0 0"/><path style="stroke:none;fill-rule:evenodd;fill:#a4b1c2;fill-opacity:1" d="M476.352 117.77a343.412 343.412 0 0 1-32.434 12.543 608.205 608.205 0 0 0 33.785-19.512 574.862 574.862 0 0 1 33.785-16.723c3.2-.492 6.356-.723 9.457-.7a316.167 316.167 0 0 1-35.133 18.122c.899.46 1.801.926 2.7 1.39-3.793 2.43-7.848 4.055-12.16 4.88Zm0 0"/><path style="stroke:none;fill-rule:evenodd;fill:#d7dde4;fill-opacity:1" d="M599.324 114.984v5.575a6736.16 6736.16 0 0 0-160.812 38.328c1.804.23 3.605.46 5.406.695a171.086 171.086 0 0 1 36.488-2.789c-.566 1.008-1.465 1.703-2.703 2.094a1494.42 1494.42 0 0 1-41.89 3.484 16.994 16.994 0 0 1-6.758-.7c5.289-1.25 5.062-1.944-.676-2.089-4.266 1.086-8.543 1.316-12.84.695a68.998 68.998 0 0 1 16.219-6.27c.316.833.992 1.298 2.027 1.395 55.16-13.699 110.34-27.175 165.54-40.418Zm0 0"/><path style="stroke:none;fill-rule:evenodd;fill:#fcfcfd;fill-opacity:1" d="M-.676 119.164a2024.002 2024.002 0 0 1 45.946 11.148c8.93 3.07 17.937 5.86 27.027 8.364 9.969 4.594 20.328 8.543 31.082 11.847-8.14.075-16.25-.625-24.324-2.09a2964.785 2964.785 0 0 1-79.73-13.937v-15.332Zm0 0"/><path style="stroke:none;fill-rule:evenodd;fill:#b9c3d0;fill-opacity:1" d="M599.324 94.078v1.39a4314.764 4314.764 0 0 0-100.676 34.844c-1.39.47-2.066 1.399-2.027 2.79a24.158 24.158 0 0 0-8.11.695 824.525 824.525 0 0 1-56.753 20.21 68.998 68.998 0 0 0-16.219 6.27c4.297.621 8.574.391 12.84-.695 5.738.145 5.965.84.676 2.09 2.207.687 4.46.922 6.757.7.149.858.598 1.554 1.352 2.089-7.617.883-8.066 1.578-1.351 2.09-8.563 1.527-17.348 1.527-26.352 0-8.422.949-16.754 2.34-25 4.18a108.67 108.67 0 0 1 12.16-4.876 66 66 0 0 0-13.512-.699 280.075 280.075 0 0 1 35.133-16.722 248.585 248.585 0 0 1-14.863 9.058c.676.23 1.351.465 2.027.696a1129.695 1129.695 0 0 1 79.055-26.481 8340.37 8340.37 0 0 1 114.863-37.629Zm0 0"/><path style="stroke:none;fill-rule:evenodd;fill:#d5dbe3;fill-opacity:1" d="M599.324 95.469v2.789a4342.073 4342.073 0 0 0-102.703 34.844c-.039-1.391.637-2.32 2.027-2.79A4314.764 4314.764 0 0 1 599.324 95.47Zm0 0"/><path style="stroke:none;fill-rule:evenodd;fill:#fcfcfd;fill-opacity:1" d="M599.324 120.559v13.937a830.06 830.06 0 0 0-60.812 13.938c-4.434-.114-8.485.816-12.16 2.785a288.5 288.5 0 0 1-45.946 5.574 171.086 171.086 0 0 0-36.488 2.789c-1.8-.234-3.602-.465-5.406-.695a6736.16 6736.16 0 0 1 160.812-38.328Zm0 0"/><path style="stroke:none;fill-rule:evenodd;fill:#b9c3d0;fill-opacity:1" d="M189.863 134.496a185.68 185.68 0 0 1 17.57 12.543 777.073 777.073 0 0 1-39.19-18.121 457.241 457.241 0 0 0-29.731-16.027c.675-.23 1.351-.465 2.027-.696 16.54 7.606 32.98 15.04 49.324 22.301Zm0 0"/><path style="stroke:none;fill-rule:evenodd;fill:#bac3d1;fill-opacity:1" d="M46.621 126.133a405.452 405.452 0 0 0 25.676 6.969c.148.859.601 1.558 1.351 2.09 9.473 3.257 18.934 6.507 28.38 9.757a337.286 337.286 0 0 1-29.731-6.273 453.528 453.528 0 0 1-27.027-8.363c-8.614-4.13-17.622-7.614-27.028-10.454a602.266 602.266 0 0 1 28.38 6.274Zm0 0"/><path style="stroke:none;fill-rule:evenodd;fill:#b9c3d0;fill-opacity:1" d="M120.945 127.527a223.143 223.143 0 0 0 18.918 5.575 282.177 282.177 0 0 0 25.676 10.453 597.99 597.99 0 0 1-24.324-4.88 326.533 326.533 0 0 0-22.973-6.968c-9.05-4.594-18.512-8.543-28.379-11.848a750.318 750.318 0 0 1 31.082 7.668Zm0 0"/><path style="stroke:none;fill-rule:evenodd;fill:#91a1b6;fill-opacity:1" d="m476.352 117.77-27.028 15.332a684.065 684.065 0 0 0-31.082 15.332 280.075 280.075 0 0 0-35.133 16.722c-4.234.715-8.738.715-13.515 0a2745.094 2745.094 0 0 1 74.324-34.844 343.412 343.412 0 0 0 32.434-12.542Zm0 0"/><path style="stroke:none;fill-rule:evenodd;fill:#d9dfe6;fill-opacity:1" d="M599.324 134.496v6.969c-9.46 1.855-18.918 3.715-28.379 5.574-5.336-.27-5.336-.965 0-2.09a870.162 870.162 0 0 0-32.433 3.485 830.06 830.06 0 0 1 60.812-13.938Zm0 0"/><path style="stroke:none;fill-rule:evenodd;fill:#b9c3d0;fill-opacity:1" d="M-.676 134.496a2964.785 2964.785 0 0 0 79.73 13.938c10.876 3.855 22.137 5.25 33.782 4.18a2679.429 2679.429 0 0 0 47.977 11.148c1.125-.23 2.25-.461 3.375-.696-1.614-.91-1.614-1.609 0-2.09a250.624 250.624 0 0 0 29.73 5.575A146.16 146.16 0 0 0 225 171.43c-1.238-.387-2.137-1.086-2.703-2.09-4.203-2.871-8.707-5.426-13.512-7.668.676-.23 1.352-.465 2.028-.695a164.598 164.598 0 0 0 19.593 6.968 110.594 110.594 0 0 1 14.864 6.97 242.31 242.31 0 0 1-14.864 1.39c-6.922-2.047-14.129-2.743-21.62-2.09a71.48 71.48 0 0 0 9.456 2.789 67.24 67.24 0 0 1-21.62 2.09h-4.056c-8.18-4.102-16.738-7.586-25.675-10.453-5.782-1.735-11.637-2.2-17.567-1.395a71.67 71.67 0 0 1 9.461 4.879h-4.055c-13.964-1.855-27.925-3.715-41.894-5.574A528.144 528.144 0 0 0 75 158.887a675.832 675.832 0 0 1 66.89 7.664c1.126-.235 2.255-.465 3.38-.696-5.774-2.14-11.63-4-17.567-5.578A2503.834 2503.834 0 0 1-.676 138.676v-4.18Zm0 0"/><path style="stroke:none;fill-rule:evenodd;fill:#d9dee5;fill-opacity:1" d="M-.676 138.676a2503.834 2503.834 0 0 0 128.38 21.601 193.412 193.412 0 0 1 17.566 5.578c-1.125.23-2.254.461-3.38.696A675.832 675.832 0 0 0 75 158.887a528.144 528.144 0 0 1 37.836 7.664A3604.492 3604.492 0 0 0 4.73 156.098c2.985.265 5.684.964 8.106 2.09H-.676v-8.364a1108.2 1108.2 0 0 0 55.406 4.88c-18.53-3.493-37-6.977-55.406-10.454v-5.574ZM72.297 133.102a4661.6 4661.6 0 0 1 121.621 33.449 250.624 250.624 0 0 1-29.73-5.574c-1.614.48-1.614 1.18 0 2.09-1.125.234-2.25.464-3.375.695a2679.429 2679.429 0 0 1-47.977-11.149c-11.645 1.07-22.906-.324-33.781-4.18a129.376 129.376 0 0 0 24.324 2.09c-10.754-3.304-21.113-7.253-31.082-11.847a337.286 337.286 0 0 0 29.73 6.273c-9.445-3.25-18.906-6.5-28.379-9.758-.75-.53-1.203-1.23-1.351-2.09Zm0 0"/><path style="stroke:none;fill-rule:evenodd;fill:#b8c2d0;fill-opacity:1" d="M177.703 142.855a94.237 94.237 0 0 1 12.16 4.184c3.621 2.73 7.672 4.82 12.164 6.27-14.293-1.817-27.808-6.461-40.539-13.938 5.407.672 10.809 1.832 16.215 3.484Zm0 0"/><path style="stroke:none;fill-rule:evenodd;fill:#f9fafb;fill-opacity:1" d="M-.676 144.25c18.406 3.477 36.875 6.96 55.406 10.453a1108.2 1108.2 0 0 1-55.406-4.879v-5.574Zm0 0"/><path style="stroke:none;fill-rule:evenodd;fill:#e1e6eb;fill-opacity:1" d="M599.324 147.04v4.179a641.664 641.664 0 0 1-36.488 3.484 311.862 311.862 0 0 1 36.488-7.664Zm0 0"/><path style="stroke:none;fill-rule:evenodd;fill:#f4f6f8;fill-opacity:1" d="M112.836 166.55c13.969 1.86 27.93 3.72 41.894 5.575-1.746.918-3.773 1.383-6.082 1.395a5744.057 5744.057 0 0 0-99.324-9.758 431.605 431.605 0 0 1-36.488-5.575c-2.422-1.125-5.121-1.824-8.106-2.09a3604.492 3604.492 0 0 1 108.106 10.454Zm0 0"/><path style="stroke:none;fill-rule:evenodd;fill:#f7f8fa;fill-opacity:1" d="M588.512 156.793h10.812v2.789a1203.658 1203.658 0 0 0-43.242 5.574 53.78 53.78 0 0 1-12.164-.695 1116.471 1116.471 0 0 1 44.594-7.668Zm0 0"/><path style="stroke:none;fill-rule:evenodd;fill:#fafafb;fill-opacity:1" d="M231.758 162.371c1.8.461 3.601.93 5.406 1.39a186.797 186.797 0 0 0 14.863 10.454 6.48 6.48 0 0 1-4.054.7h-2.703a110.594 110.594 0 0 0-14.864-6.97c-6.297-4.18-13.054-7.664-20.27-10.453a179.157 179.157 0 0 1 21.622 4.88Zm0 0"/><path style="stroke:none;fill-rule:evenodd;fill:#a7b3c4;fill-opacity:1" d="M445.27 166.55h-9.457c-6.715-.51-6.266-1.206 1.351-2.09-.754-.534-1.203-1.23-1.351-2.089a1494.42 1494.42 0 0 0 41.89-3.484c1.238-.39 2.137-1.086 2.703-2.094a288.5 288.5 0 0 0 45.946-5.574 194.504 194.504 0 0 1 20.27-.696c-33.493 8.774-67.278 14.118-101.352 16.028Zm0 0"/><path style="stroke:none;fill-rule:evenodd;fill:#d3dae2;fill-opacity:1" d="M599.324 159.582v8.363a580.19 580.19 0 0 0-39.187 1.395 479.424 479.424 0 0 1 36.484-4.88 320.565 320.565 0 0 0-40.539.696 1203.658 1203.658 0 0 1 43.242-5.574Zm0 0"/><path style="stroke:none;fill-rule:evenodd;fill:#b9c3d1;fill-opacity:1" d="M588.512 156.793a1116.471 1116.471 0 0 0-44.594 7.668 53.78 53.78 0 0 0 12.164.695 320.565 320.565 0 0 1 40.54-.695 479.424 479.424 0 0 0-36.485 4.879 1064.855 1064.855 0 0 1-41.895 2.785H503.38c2.879-1.133 6.031-1.832 9.457-2.09-3.434-.195-6.59-1.125-9.457-2.789a107.652 107.652 0 0 0 32.433-6.969 2997.037 2997.037 0 0 0 52.7-3.484Zm0 0"/><path style="stroke:none;fill-rule:evenodd;fill:#d3d9e1;fill-opacity:1" d="M-.676 160.977a1640.701 1640.701 0 0 0 144.594 20.207 876.657 876.657 0 0 0-21.621 3.484 113.24 113.24 0 0 0 20.27 2.789v1.395h-13.512c-11.028-.93-22.29-1.395-33.785-1.395-18.73-.168-37.2.762-55.407 2.785a198.351 198.351 0 0 0-40.539 2.79v-9.759c25.676.82 51.352 1.75 77.028 2.79 10.441.132 20.8-.563 31.082-2.09A4302.31 4302.31 0 0 0-.676 170.73v-9.753Zm0 0"/><path style="stroke:none;fill-rule:evenodd;fill:#d1d7e0;fill-opacity:1" d="M49.324 163.762a5744.057 5744.057 0 0 1 99.324 9.758c2.309-.012 4.336-.477 6.082-1.395h4.055c7.121.824 13.88 2.914 20.27 6.273-43.676-2.433-86.922-7.312-129.73-14.636Zm0 0"/><path style="stroke:none;fill-rule:evenodd;fill:#d3d9e2;fill-opacity:1" d="M435.813 166.55h9.457c4.527-.23 9.03.005 13.515.696a345.684 345.684 0 0 0-36.488 5.578c-13.3.446-26.59 1.14-39.863 2.09-2.75-.008-5.227-.473-7.434-1.394 2.82-2.008 5.973-2.938 9.46-2.79a236.176 236.176 0 0 1 25-4.18c9.005 1.528 17.79 1.528 26.353 0Zm0 0"/><path style="stroke:none;fill-rule:evenodd;fill:#b9c3d1;fill-opacity:1" d="M570.945 147.04a18846.756 18846.756 0 0 1-105.406 25.784 2786.222 2786.222 0 0 0-85.133 13.238H365.54a620.745 620.745 0 0 1 31.082-6.273c-11.238.172-22.5.406-33.785.7 3.27-3.618 7.324-5.938 12.164-6.97 2.207.922 4.684 1.387 7.434 1.395 13.273-.95 26.562-1.644 39.863-2.09a345.684 345.684 0 0 1 36.488-5.578 66.328 66.328 0 0 0-13.515-.695c34.074-1.91 67.859-7.254 101.351-16.028-6.738-.12-13.496.11-20.27.696 3.676-1.969 7.727-2.899 12.16-2.785a870.162 870.162 0 0 1 32.434-3.485c-5.336 1.125-5.336 1.82 0 2.09Zm0 0"/><path style="stroke:none;fill-rule:evenodd;fill:#fbfbfc;fill-opacity:1" d="M599.324 167.945v5.575a1579.81 1579.81 0 0 0-100 8.363 512.675 512.675 0 0 0-48.648 2.785c-3.153-.23-6.309-.465-9.461-.695 3.387-.973 6.539-2.133 9.46-3.485 4.47-.77 8.973-1.234 13.512-1.394a2144.48 2144.48 0 0 0 54.055-6.969 1064.855 1064.855 0 0 0 41.895-2.785 580.19 580.19 0 0 1 39.187-1.395Zm0 0"/><path style="stroke:none;fill-rule:evenodd;fill:#bdc7d3;fill-opacity:1" d="M257.434 165.156a323.575 323.575 0 0 0 34.457 6.969c17.363-1.36 34.703-2.754 52.027-4.18-2.129 3.555-4.832 6.34-8.106 8.36 1.543-2.23.641-3.157-2.703-2.785a697.596 697.596 0 0 1-29.73 2.785h-1.352c-9.867-2.86-20.004-3.328-30.406-1.39-5.691-1.95-10.418-5.2-14.187-9.759Zm0 0"/><path style="stroke:none;fill-rule:evenodd;fill:#92a1b6;fill-opacity:1" d="M362.836 166.55c-2.395 1.942-5.098 3.567-8.106 4.88l6.758 1.394c-3.89.758-7.496 1.922-10.812 3.48-6.332.75-12.64 1.68-18.918 2.79v-1.395a7.622 7.622 0 0 1 4.055-1.394c3.273-2.02 5.976-4.805 8.105-8.36h1.352a150.077 150.077 0 0 0 17.566-1.394Zm0 0"/><path style="stroke:none;fill-rule:evenodd;fill:#fcfcfd;fill-opacity:1" d="M-.676 170.73a4302.31 4302.31 0 0 1 108.11 13.243 194.347 194.347 0 0 1-31.082 2.09 9058.911 9058.911 0 0 0-77.028-2.79V170.73Zm0 0"/><path style="stroke:none;fill-rule:evenodd;fill:#d3d9e1;fill-opacity:1" d="M237.164 163.762a232.893 232.893 0 0 1 21.621 10.453 26.426 26.426 0 0 1-8.11 2.09c-1.34.242-2.241-.223-2.702-1.39a6.48 6.48 0 0 0 4.054-.7 186.797 186.797 0 0 1-14.863-10.453Zm0 0"/><path style="stroke:none;fill-rule:evenodd;fill:#7b8ea7;fill-opacity:1" d="M369.594 165.156c4.777.715 9.281.715 13.515 0a66 66 0 0 1 13.512.7 108.67 108.67 0 0 0-12.16 4.874c-3.488-.148-6.64.782-9.461 2.79-4.84 1.03-8.895 3.351-12.164 6.968h-2.7l-13.515 1.395c3.031-.817 5.734-2.442 8.11-4.88a6.507 6.507 0 0 0-4.055-.698c3.316-1.559 6.922-2.723 10.812-3.48l-6.758-1.395c3.008-1.313 5.711-2.938 8.106-4.88 2.32-.179 4.574-.644 6.758-1.394Zm0 0"/><path style="stroke:none;fill-rule:evenodd;fill:#d2d8e1;fill-opacity:1" d="M503.379 172.125h14.863a2144.48 2144.48 0 0 1-54.054 6.969c5.433-2.5 11.289-4.13 17.57-4.88a860.698 860.698 0 0 1 21.62-2.089Zm0 0"/><path style="stroke:none;fill-rule:evenodd;fill:#d9dee5;fill-opacity:1" d="M599.324 173.52v5.574c-33.285.433-66.62 1.36-100 2.789a1579.81 1579.81 0 0 1 100-8.363Zm0 0"/><path style="stroke:none;fill-rule:evenodd;fill:#f6f7f9;fill-opacity:1" d="M335.813 176.305a7.622 7.622 0 0 0-4.055 1.394 211.178 211.178 0 0 1-28.38 1.395v-2.79a697.596 697.596 0 0 0 29.731-2.784c3.344-.372 4.246.554 2.704 2.785Zm0 0"/><path style="stroke:none;fill-rule:evenodd;fill:#9eacbe;fill-opacity:1" d="m189.863 134.496 21.625 9.754a71.951 71.951 0 0 0 12.16 5.574c2.864 3.813 6.465 5.207 10.813 4.184a71.72 71.72 0 0 0 12.16 5.574c3.566 1.84 7.172 3.7 10.813 5.574 3.77 4.559 8.496 7.809 14.187 9.758 10.402-1.937 20.54-1.469 30.406 1.39h-4.054c-6.746.7-13.504 1.395-20.27 2.094-.75.532-1.203 1.23-1.351 2.09-9.352 2.801-17.91 1.41-25.676-4.183a26.426 26.426 0 0 0 8.11-2.09 232.893 232.893 0 0 0-21.622-10.453c-1.805-.461-3.605-.93-5.406-1.39a145.771 145.771 0 0 0-20.27-12.548c-1.636-.601-2.988-1.531-4.054-2.785a185.68 185.68 0 0 0-17.57-12.543Zm0 0"/><path style="stroke:none;fill-rule:evenodd;fill:#c63b76;fill-opacity:1" d="M297.973 176.305h4.054a61.926 61.926 0 0 0 1.352 18.12 117.135 117.135 0 0 0 14.863-8.363 15.703 15.703 0 0 1 2.703 3.485 126.801 126.801 0 0 0-14.863 9.758c3.926 3.648 8.43 6.203 13.512 7.664 1.363 2.004.914 3.863-1.352 5.574a117.135 117.135 0 0 0-14.863-8.363 61.946 61.946 0 0 0-1.352 18.12h-4.054a61.946 61.946 0 0 0-1.352-18.12 118.285 118.285 0 0 1-14.863 8.363c0-.93-.45-1.395-1.352-1.395-.117-1.386.336-2.546 1.352-3.484 4.504-2.785 9.008-5.574 13.512-8.36-1.907-1.913-4.157-3.074-6.758-3.484-2.024-2.34-4.504-4.199-7.43-5.578-.762-1.707-.312-3.097 1.352-4.18a218.489 218.489 0 0 1 14.187 8.364 18.783 18.783 0 0 0 1.352-9.758v-8.363Zm0 0"/><path style="stroke:none;fill-rule:evenodd;fill:#a6b3c4;fill-opacity:1" d="M-.676 158.188h13.512a431.605 431.605 0 0 0 36.488 5.574c42.809 7.324 86.055 12.203 129.73 14.636-6.39-3.359-13.148-5.449-20.269-6.273a71.67 71.67 0 0 0-9.46-4.879c5.929-.805 11.784-.34 17.566 1.395 8.937 2.867 17.496 6.351 25.675 10.453a292.233 292.233 0 0 1-27.027 2.09 45.831 45.831 0 0 0 10.813 3.484 393.53 393.53 0 0 0 20.27 4.184c-17.821.996-35.84.535-54.056-1.395a113.24 113.24 0 0 1-20.27-2.789 876.657 876.657 0 0 1 21.622-3.484A1640.701 1640.701 0 0 1-.676 160.977v-2.79Zm0 0"/><path style="stroke:none;fill-rule:evenodd;fill:#99a7bb;fill-opacity:1" d="M599.324 141.465v5.574a311.862 311.862 0 0 0-36.488 7.664 641.664 641.664 0 0 0 36.488-3.484v5.574h-10.812a2997.037 2997.037 0 0 1-52.7 3.484 107.652 107.652 0 0 1-32.433 6.97c2.867 1.663 6.023 2.593 9.457 2.788-3.426.258-6.578.957-9.457 2.09-7.207.605-14.414 1.3-21.621 2.09-6.281.75-12.137 2.379-17.57 4.879-4.54.16-9.043.625-13.512 1.394a327.366 327.366 0 0 0-48.649 6.969c-.636-1.664-1.988-2.594-4.054-2.789a80.09 80.09 0 0 1-17.567 1.394 2786.222 2786.222 0 0 1 85.133-13.238c35.36-8.543 70.492-17.137 105.406-25.785 9.461-1.86 18.918-3.719 28.38-5.574Zm0 0"/><path style="stroke:none;fill-rule:evenodd;fill:#7285a0;fill-opacity:1" d="M245.27 174.914h2.703c.46 1.168 1.363 1.633 2.703 1.39 7.765 5.594 16.324 6.985 25.676 4.184h1.351a354.53 354.53 0 0 1 9.461 3.485c-.902.464-1.805.93-2.703 1.394 4.578.918 9.082.684 13.512-.699a18.783 18.783 0 0 1-1.352 9.758 218.489 218.489 0 0 0-14.187-8.363c-1.664 1.082-2.114 2.472-1.352 4.18 2.926 1.378 5.406 3.237 7.43 5.577-11.473-2.054-23.188-3.218-35.133-3.484l-1.352-1.395c4.325-.14 8.38-1.07 12.16-2.789a358.632 358.632 0 0 0-17.566-4.18l5.406-1.394a119.655 119.655 0 0 1-25-3.484L225 177.699c1.605-1.293 3.406-1.758 5.406-1.394a242.31 242.31 0 0 0 14.864-1.39Zm0 0"/><path style="stroke:none;fill-rule:evenodd;fill:#d4dae2;fill-opacity:1" d="M297.973 176.305v5.578a99.367 99.367 0 0 0-20.27-1.395h-1.351c.148-.86.601-1.558 1.351-2.09 6.766-.699 13.524-1.394 20.27-2.093Zm0 0"/><path style="stroke:none;fill-rule:evenodd;fill:#617393;fill-opacity:1" d="M302.027 176.305h1.352v8.363a117.953 117.953 0 0 0 28.379-5.574 335.382 335.382 0 0 1 18.918-2.79 6.507 6.507 0 0 1 4.054.7c-2.375 2.437-5.078 4.062-8.109 4.879-4.047-.29-7.652.64-10.808 2.785-4.59 4.621-9.993 8.105-16.22 10.453 3.684.254 7.29.953 10.813 2.09a103.466 103.466 0 0 1-8.11 4.879c3.626.64 7 1.8 10.138 3.484 6.96-2.453 13.492-1.754 19.593 2.09-2.207.691-4.46.922-6.757.7a73.432 73.432 0 0 0-14.188 1.394 114.76 114.76 0 0 1-11.488-2.79c-5.082-1.46-9.586-4.015-13.512-7.663a126.801 126.801 0 0 1 14.863-9.758 15.703 15.703 0 0 0-2.703-3.484 117.135 117.135 0 0 1-14.863 8.363 61.926 61.926 0 0 1-1.352-18.121Zm0 0"/><path style="stroke:none;fill-rule:evenodd;fill:#bac4d1;fill-opacity:1" d="M331.758 177.7v1.394a117.953 117.953 0 0 1-28.38 5.574v-5.574c9.5.172 18.958-.293 28.38-1.395Zm0 0"/><path style="stroke:none;fill-rule:evenodd;fill:#f2f4f6;fill-opacity:1" d="M365.54 186.063h-2.704a42.516 42.516 0 0 1-10.809-.696c3.008-1.312 5.711-2.937 8.11-4.879h2.699c11.285-.293 22.547-.527 33.785-.699a620.745 620.745 0 0 0-31.082 6.274Zm0 0"/><path style="stroke:none;fill-rule:evenodd;fill:#bdc6d3;fill-opacity:1" d="M599.324 179.094v4.18a5627.922 5627.922 0 0 0-62.836 2.788 45.015 45.015 0 0 1-10.812-1.394 6.206 6.206 0 0 1-2.028 2.789 11.979 11.979 0 0 0-6.757-1.394 696.334 696.334 0 0 0-63.512 2.789c-11.723-.235-23.434 0-35.137.695a99.159 99.159 0 0 0-18.918 4.879c-6.508-1.153-13.265-1.848-20.27-2.09-.753-.535-1.202-1.23-1.35-2.094a217.012 217.012 0 0 0 24.323-2.785 327.366 327.366 0 0 1 48.649-6.969c-2.922 1.352-6.074 2.512-9.461 3.485 3.152.23 6.308.464 9.46.695a512.675 512.675 0 0 1 48.65-2.785 3359.314 3359.314 0 0 1 100-2.79Zm0 0"/><path style="stroke:none;fill-rule:evenodd;fill:#9ba9bc;fill-opacity:1" d="M277.703 180.488a99.367 99.367 0 0 1 20.27 1.395v2.785c-4.43 1.383-8.934 1.617-13.512.7.898-.466 1.8-.93 2.703-1.395a354.53 354.53 0 0 0-9.46-3.485Zm0 0"/><path style="stroke:none;fill-rule:evenodd;fill:#c4ccd8;fill-opacity:1" d="M360.137 180.488c-2.399 1.942-5.102 3.567-8.11 4.88 3.575.69 7.18.925 10.809.695-8.313 1.605-16.871 1.84-25.672.695 3.274-1.688 6.43-3.313 9.457-4.875l13.516-1.395Zm0 0"/><path style="stroke:none;fill-rule:evenodd;fill:#8899b0;fill-opacity:1" d="M192.566 179.094h4.055c16.781 2.613 34.797 5.168 54.055 7.664a108.966 108.966 0 0 1-35.137-2.09c-3.46.332-3.46 1.027 0 2.09a32.614 32.614 0 0 1-9.457.699 207.625 207.625 0 0 0-29.73-2.789 45.831 45.831 0 0 1-10.813-3.484c9.117-.286 18.129-.98 27.027-2.09Zm0 0"/><path style="stroke:none;fill-rule:evenodd;fill:#d8dde4;fill-opacity:1" d="M599.324 183.273v2.79a8457.463 8457.463 0 0 1-54.73 5.574c-6.258-1.739-6.032-2.899.676-3.485-3.153-.23-6.305-.464-9.457-.695a382.22 382.22 0 0 1-47.301 2.785 214.348 214.348 0 0 0 28.379-4.18c2.382-.199 4.636.266 6.757 1.395a6.206 6.206 0 0 0 2.028-2.789 45.015 45.015 0 0 0 10.812 1.394 5627.922 5627.922 0 0 1 62.836-2.789Zm0 0"/><path style="stroke:none;fill-rule:evenodd;fill:#b6c1cf;fill-opacity:1" d="M129.055 188.852a665.63 665.63 0 0 0-61.489 2.785 330.315 330.315 0 0 1-27.703-1.395c18.207-2.023 36.676-2.953 55.407-2.785 11.496 0 22.757.465 33.785 1.395Zm0 0"/><path style="stroke:none;fill-rule:evenodd;fill:#f4f5f7;fill-opacity:1" d="M516.89 186.063a214.348 214.348 0 0 1-28.378 4.18 1225.5 1225.5 0 0 0-25.676 1.394c-7.668.23-15.328 0-22.973-.696 4.766-.25 9.27-.945 13.516-2.09a696.334 696.334 0 0 1 63.512-2.788Zm0 0"/><path style="stroke:none;fill-rule:evenodd;fill:#ced5de;fill-opacity:1" d="M176.352 184.668a207.625 207.625 0 0 1 29.73 2.789c9.207 1.379 18.664 1.848 28.379 1.395-.86 2.015-2.434 2.945-4.73 2.785a7617.36 7617.36 0 0 0-33.11-2.785 393.53 393.53 0 0 1-20.27-4.184Zm0 0"/><path style="stroke:none;fill-rule:evenodd;fill:#c1cad5;fill-opacity:1" d="M599.324 186.063v5.574h-18.918c-18.05.976-36.066 1.675-54.054 2.09l1.351-1.391c-3.379-.234-6.758-.465-10.137-.7a698.501 698.501 0 0 1-88.511 4.88 456.577 456.577 0 0 0 33.78-4.88 1225.5 1225.5 0 0 1 25.677-1.394 382.22 382.22 0 0 0 47.3-2.785c3.153.23 6.305.465 9.458.695-6.707.586-6.934 1.746-.676 3.485a8457.463 8457.463 0 0 0 54.73-5.575Zm0 0"/><path style="stroke:none;fill-rule:evenodd;fill:#a2afc1;fill-opacity:1" d="M129.055 188.852h13.511c7.157.253 7.157.949 0 2.09-11.058.714-21.867 1.874-32.43 3.484a363.52 363.52 0 0 0-27.702-1.395 1178.702 1178.702 0 0 1-83.11 4.18v-4.18a198.351 198.351 0 0 1 40.54-2.789 330.315 330.315 0 0 0 27.702 1.395 665.63 665.63 0 0 1 61.489-2.785Zm0 0"/><path style="stroke:none;fill-rule:evenodd;fill:#b4bfcd;fill-opacity:1" d="M142.566 188.852v-1.395c18.215 1.93 36.235 2.39 54.055 1.395a7617.36 7617.36 0 0 1 33.11 2.785c2.296.16 3.87-.77 4.73-2.785 3.476-.493 6.629.203 9.457 2.09-3.293 1.913-6.895 2.613-10.809 2.09a275.607 275.607 0 0 0-43.246-.696c15.301 2.422 30.617 4.746 45.95 6.969-17.563.695-35.133.93-52.704.695a2876.603 2876.603 0 0 0-68.922-5.574h-4.05c10.562-1.61 21.37-2.77 32.43-3.485 7.156-1.14 7.156-1.836 0-2.09Zm0 0"/><path style="stroke:none;fill-rule:evenodd;fill:#d9dee6;fill-opacity:1" d="M453.379 188.852c-4.246 1.144-8.75 1.84-13.516 2.09 7.645.695 15.305.925 22.973.695a456.577 456.577 0 0 1-33.781 4.879c29.59.25 59.093-1.38 88.511-4.88 3.38.235 6.758.466 10.137.7-.45.46-.902.93-1.351 1.39a1742.975 1742.975 0 0 0 54.054-2.09A2251.006 2251.006 0 0 1 475 202.09c-1.672.324-3.023 1.02-4.055 2.09a285.84 285.84 0 0 0-39.187-3.485c1.351-.46 2.703-.93 4.055-1.39-14.016-1.543-26.176-3.172-36.489-4.88a99.159 99.159 0 0 1 18.918-4.878 442.904 442.904 0 0 1 35.137-.695Zm0 0"/><path style="stroke:none;fill-rule:evenodd;fill:#fafbfc;fill-opacity:1" d="M580.406 191.637h18.918v4.183a9324.053 9324.053 0 0 1-113.511 8.36h-14.868c1.032-1.07 2.383-1.766 4.055-2.09a2251.006 2251.006 0 0 0 105.406-10.453Zm0 0"/><path style="stroke:none;fill-rule:evenodd;fill:#8294ac;fill-opacity:1" d="M110.137 194.426h4.05A856.606 856.606 0 0 0 49.325 200c-8.363-.45-16.472.016-24.324 1.395H-.676v-4.184c27.746-.414 55.45-1.809 83.11-4.18 9.27.114 18.504.578 27.703 1.395Zm0 0"/><path style="stroke:none;fill-rule:evenodd;fill:#99a8bb;fill-opacity:1" d="M114.188 194.426c23.199 1.597 46.171 3.457 68.921 5.574a152.555 152.555 0 0 0-31.082 2.09c4.762.25 9.27.945 13.512 2.09-9.469.234-18.93 0-28.375-.696l9.457-1.394A581.405 581.405 0 0 0 49.324 200a856.606 856.606 0 0 1 64.864-5.574Zm0 0"/><path style="stroke:none;fill-rule:evenodd;fill:#95a4b8;fill-opacity:1" d="M230.406 176.305c-2-.364-3.8.101-5.406 1.394l2.027 1.395a119.655 119.655 0 0 0 25 3.484l-5.406 1.395a358.632 358.632 0 0 1 17.566 4.18c-3.78 1.718-7.835 2.648-12.16 2.788.45.465.903.93 1.352 1.395 11.945.266 23.66 1.43 35.133 3.484.117 1.387-.332 2.547-1.348 3.485-13.5-.078-27.016-.309-40.543-.7a107.256 107.256 0 0 0-4.055-3.484c-3.425-.258-6.578-.957-9.457-2.09 3.914.524 7.516-.176 10.809-2.09-2.828-1.886-5.98-2.582-9.457-2.09-9.715.454-19.172-.015-28.379-1.394a32.614 32.614 0 0 0 9.457-.7c-3.46-1.062-3.46-1.757 0-2.089a108.966 108.966 0 0 0 35.137 2.09c-19.258-2.496-37.274-5.051-54.055-7.664a67.24 67.24 0 0 0 21.621-2.09 71.48 71.48 0 0 1-9.457-2.79c7.492-.651 14.7.044 21.621 2.09Zm0 0"/><path style="stroke:none;fill-rule:evenodd;fill:#8d9db3;fill-opacity:1" d="M346.621 181.883c-3.027 1.562-6.183 3.187-9.457 4.875 8.8 1.144 17.36.91 25.672-.696h17.57a80.09 80.09 0 0 0 17.567-1.394c2.066.195 3.418 1.125 4.054 2.789a217.012 217.012 0 0 1-24.324 2.785 80.2 80.2 0 0 0-14.867.7c9.601 2.804 19.512 4.199 29.73 4.18-3.601.929-3.601 1.858 0 2.788l-5.402 1.395c5.875.746 11.73.511 17.566-.7 5.407.7 10.81 1.395 16.215 2.09l-8.11 1.395c11.954.238 23.665.933 35.138 2.09a361.476 361.476 0 0 1-58.786-2.785c-2.925.23-5.855.464-8.78.695 5.3 1.113 5.3 1.812 0 2.09a943.269 943.269 0 0 0-45.946-2.09c12.953-4.403 26.016-5.102 39.187-2.09 2.118.031 3.918-.664 5.407-2.09-10.493-3.14-21.305-5-32.434-5.574l9.461-1.395a173.302 173.302 0 0 1-21.621-3.484c.488-.953.937-1.883 1.351-2.789 3.157-2.145 6.762-3.074 10.81-2.785Zm0 0"/><path style="stroke:none;fill-rule:evenodd;fill:#c5cdd8;fill-opacity:1" d="M250.676 194.426c6.324-.23 12.629 0 18.918.695a77.276 77.276 0 0 1-12.836 2.09c-2.684-.094-4.711-1.024-6.082-2.785Zm0 0"/><path style="stroke:none;fill-rule:evenodd;fill:#d9dee5;fill-opacity:1" d="M599.324 195.82v5.575a903.898 903.898 0 0 0-56.758 3.484c18.914.695 37.832.93 56.758.695v1.395c-35.594.008-71.18-.457-106.758-1.395h-6.753v-1.394c37.859-2.555 75.699-5.344 113.511-8.36Zm0 0"/><path style="stroke:none;fill-rule:evenodd;fill:#5e7393;fill-opacity:1" d="M288.512 195.82c2.601.41 4.851 1.57 6.758 3.485-4.504 2.785-9.008 5.574-13.512 8.36-1.016.937-1.469 2.097-1.352 3.483a36.542 36.542 0 0 1-14.867-2.09 27.309 27.309 0 0 1 8.11-2.785 6.071 6.071 0 0 1-2.704-2.093 292.2 292.2 0 0 0-28.379-2.09c1.61-.973 2.961-2.133 4.055-3.485 13.527.391 27.043.622 40.543.7 1.016-.938 1.465-2.098 1.348-3.485Zm0 0"/><path style="stroke:none;fill-rule:evenodd;fill:#acb8c8;fill-opacity:1" d="M377.703 190.242c.149.863.598 1.559 1.352 2.094 7.004.242 13.761.937 20.27 2.09 10.312 1.707 22.472 3.336 36.488 4.879-1.352.46-2.704.93-4.055 1.39a285.84 285.84 0 0 1 39.187 3.485h14.868v1.394a328.745 328.745 0 0 1-37.84-1.394c-11.473-1.157-23.184-1.852-35.137-2.09l8.11-1.395c-5.407-.695-10.81-1.39-16.216-2.09a53.009 53.009 0 0 1-17.566.7l5.402-1.395c-3.601-.93-3.601-1.86 0-2.789-10.218.02-20.128-1.375-29.73-4.18a80.2 80.2 0 0 1 14.867-.699Zm0 0"/><path style="stroke:none;fill-rule:evenodd;fill:#fcfcfd;fill-opacity:1" d="M599.324 201.395v4.18c-18.926.234-37.844 0-56.758-.696a903.898 903.898 0 0 1 56.758-3.484Zm0 0"/><path style="stroke:none;fill-rule:evenodd;fill:#f9fafb;fill-opacity:1" d="M-.676 202.79c140.457-.923 140.457.933 0 5.573v-5.574Zm0 0"/><path style="stroke:none;fill-rule:evenodd;fill:#d5dbe3;fill-opacity:1" d="M-.676 202.79v-1.395H25c32.434-.235 64.867 0 97.297.695l9.46 1.394a397.329 397.329 0 0 1-28.378 4.18c18.008-.309 36.027-.309 54.055 0-7.036.61-13.793 1.77-20.27 3.484a1830.017 1830.017 0 0 0-75.676 6.97 709.115 709.115 0 0 0-62.164 6.968v-6.969a1161.582 1161.582 0 0 0 72.973-7.664c-24.332-.012-48.656.684-72.973 2.09v-4.18c140.457-4.64 140.457-6.496 0-5.574Zm0 0"/><path style="stroke:none;fill-rule:evenodd;fill:#b6c0ce;fill-opacity:1" d="M165.54 204.18a2633.39 2633.39 0 0 0 33.784 1.394c.461 1.168 1.363 1.633 2.703 1.395a801.42 801.42 0 0 0-52.703 6.969 332.78 332.78 0 0 1-32.433 2.789 1121.69 1121.69 0 0 0 24.324-4.88 6.473 6.473 0 0 0-4.05-.699c6.476-1.714 13.233-2.875 20.269-3.484a1578.197 1578.197 0 0 0-54.055 0 397.329 397.329 0 0 0 28.379-4.18l-9.461-1.394c-32.43-.695-64.863-.93-97.297-.695 7.852-1.38 15.96-1.844 24.324-1.395a581.405 581.405 0 0 1 97.297 2.09l-9.457 1.394c9.445.696 18.906.93 28.375.696Zm0 0"/><path style="stroke:none;fill-rule:evenodd;fill:#d2d9e1;fill-opacity:1" d="M202.027 206.969a263.894 263.894 0 0 0 43.243.695 72.731 72.731 0 0 1 9.46 2.79 119.807 119.807 0 0 1-13.515 3.483c-.805-.89-1.93-1.355-3.38-1.394a1430.308 1430.308 0 0 0-46.62 8.363c-4.242 1.59-8.746 1.824-13.512.696a594.657 594.657 0 0 1 35.133-8.36 465.827 465.827 0 0 0-31.078 3.485c5.066-2.223 10.472-3.852 16.215-4.88-16.207.415-32.422 1.11-48.649 2.09a801.42 801.42 0 0 1 52.703-6.968Zm0 0"/><path style="stroke:none;fill-rule:evenodd;fill:#9eacbe;fill-opacity:1" d="M199.324 205.574c21.176-.23 42.348 0 63.512.7-2.824 1.328-3.274 3.183-1.348 5.574-.902.464-1.804.93-2.703 1.394a373.676 373.676 0 0 0-52.703 11.149c-7.703 1.488-8.152 3.117-1.352 4.879-.957 1.257-2.308 1.722-4.054 1.39h-18.918c-4.086-.62-4.54-1.781-1.352-3.484-1.351-.461-2.703-.926-4.054-1.39 9.902-.024 19.363-1.65 28.378-4.88a286.733 286.733 0 0 0 36.485-6.969c4.547-.89 9.05-2.054 13.515-3.484a72.731 72.731 0 0 0-9.46-2.789 263.894 263.894 0 0 1-43.243-.695c-1.34.238-2.242-.227-2.703-1.395Zm0 0"/><path style="stroke:none;fill-rule:evenodd;fill:#b5bfce;fill-opacity:1" d="M492.566 205.574c35.579.938 71.164 1.403 106.758 1.395v5.574a549.683 549.683 0 0 0-63.511-2.785c-14.684-.594-29.102-1.988-43.247-4.184Zm0 0"/><path style="stroke:none;fill-rule:evenodd;fill:#f9fafb;fill-opacity:1" d="M-.676 218.117v-5.574a1253.203 1253.203 0 0 1 72.973-2.09 1161.582 1161.582 0 0 1-72.973 7.664Zm0 0"/><path style="stroke:none;fill-rule:evenodd;fill:#6d829e;fill-opacity:1" d="M335.813 184.668a69.069 69.069 0 0 1-1.352 2.789 173.302 173.302 0 0 0 21.621 3.484l-9.46 1.395c11.128.574 21.94 2.434 32.433 5.574-1.489 1.426-3.29 2.121-5.407 2.09-13.171-3.012-26.234-2.313-39.187 2.09 15.34.324 30.656 1.02 45.945 2.09 5.301-.278 5.301-.977 0-2.09 2.926-.23 5.856-.465 8.781-.695a361.476 361.476 0 0 0 58.786 2.785 328.745 328.745 0 0 0 37.84 1.394h6.753c14.145 2.196 28.563 3.59 43.247 4.184.562 1.004 1.464 1.703 2.699 2.09 9.039.62 18.05 1.55 27.027 2.785-16.652-.063-33.32-.293-50-.696h-20.27c-5.585-1.37-11.44-1.835-17.566-1.394-13.898-3.195-28.086-3.66-42.566-1.395a1261.617 1261.617 0 0 0-66.895-4.18 69.378 69.378 0 0 0-9.457 2.09l5.402 2.79c-5.074 1.05-10.027.82-14.863-.7-1.351-.93-2.703-1.855-4.054-2.785 2.296.223 4.55-.008 6.757-.699-6.101-3.844-12.632-4.543-19.593-2.09-3.137-1.683-6.512-2.844-10.137-3.484a103.466 103.466 0 0 0 8.11-4.88 45.228 45.228 0 0 0-10.813-2.089c6.226-2.348 11.629-5.832 16.219-10.453Zm0 0"/><path style="stroke:none;fill-rule:evenodd;fill:#fafbfb;fill-opacity:1" d="M181.758 216.727c-11.184 1.28-21.996 3.605-32.434 6.968h-2.703c-25.48.032-50.93.961-76.351 2.785-6.532-.23-13.063-.464-19.594-.695 5.722-.469 11.129-1.629 16.215-3.484a5418.001 5418.001 0 0 1 50-5.574 332.78 332.78 0 0 0 32.433-2.79c16.227-.98 32.442-1.675 48.649-2.09-5.743 1.028-11.149 2.657-16.215 4.88Zm0 0"/><path style="stroke:none;fill-rule:evenodd;fill:#99a7bb;fill-opacity:1" d="M477.703 212.543a32.631 32.631 0 0 0-9.46.7c1.75.679 3.55.913 5.405.695-5.132 1.37-10.539 1.835-16.214 1.394H446.62c-1.488-1.531-3.289-1.766-5.406-.7.453.466.902.93 1.351 1.395-2.027.235-4.054.465-6.078.7a159.019 159.019 0 0 0-29.054-3.485c9.007-.93 9.007-1.86 0-2.789-9.012-.93-18.02-.93-27.028 0a402.985 402.985 0 0 1 14.864 3.484 350.574 350.574 0 0 0-41.215 1.395 59.438 59.438 0 0 1-14.192-4.879 59.703 59.703 0 0 1 9.461.695c4.836 1.52 9.79 1.75 14.863.7l-5.402-2.79a69.378 69.378 0 0 1 9.457-2.09c22.344.802 44.645 2.196 66.895 4.18 14.48-2.265 28.668-1.8 42.566 1.395Zm0 0"/><path style="stroke:none;fill-rule:evenodd;fill:#9facbf;fill-opacity:1" d="M137.164 211.148a6.473 6.473 0 0 1 4.05.7 1121.69 1121.69 0 0 1-24.323 4.879 5418.001 5418.001 0 0 0-50 5.574H54.73a11.068 11.068 0 0 1-5.407-.7c4.293-.917 8.348-2.078 12.164-3.484a1830.017 1830.017 0 0 1 75.676-6.969Zm0 0"/><path style="stroke:none;fill-rule:evenodd;fill:#b7c1cf;fill-opacity:1" d="M473.648 213.938a882.174 882.174 0 0 0 48.649 9.058c-1.352.234-2.703.465-4.055.7a881.274 881.274 0 0 1-60.808-8.364c5.675.441 11.082-.023 16.214-1.394Zm0 0"/><path style="stroke:none;fill-rule:evenodd;fill:#f9fafb;fill-opacity:1" d="M495.27 213.938h20.27a1762.193 1762.193 0 0 0 83.784 8.363v5.574c-37.05-3.55-73.992-7.96-110.812-13.242a17 17 0 0 1 6.758-.696Zm0 0"/><path style="stroke:none;fill-rule:evenodd;fill:#f3f5f7;fill-opacity:1" d="M241.215 213.938a286.733 286.733 0 0 1-36.485 6.968h-13.515c15.312-3.011 30.851-5.8 46.62-8.363 1.45.039 2.575.504 3.38 1.394Zm0 0"/><path style="stroke:none;fill-rule:evenodd;fill:#b1bccb;fill-opacity:1" d="M446.621 215.332c5.406 1.856 10.813 3.715 16.215 5.574a211.777 211.777 0 0 0-16.215-.695 7582.344 7582.344 0 0 1 21.621 6.27 365.781 365.781 0 0 1-37.836-2.786 88.928 88.928 0 0 0-20.27-.699 91.224 91.224 0 0 0 21.622 4.879c8.617 3.387 17.625 5.941 27.027 7.664a263.998 263.998 0 0 1-31.082-3.484 693.101 693.101 0 0 1-27.027-5.575c-3.582-2.667-7.637-3.828-12.164-3.484 3.465 1.063 3.465 1.762 0 2.09-7.852-.688-15.059-3.012-21.621-6.969a326.28 326.28 0 0 0 33.785-3.484 11.112 11.112 0 0 0-5.406-.696 402.985 402.985 0 0 0-14.864-3.484c9.008-.93 18.016-.93 27.028 0 9.007.93 9.007 1.86 0 2.79 9.812.269 19.496 1.433 29.054 3.484 2.024-.235 4.051-.465 6.078-.7-.449-.464-.898-.93-1.351-1.394 2.117-1.067 3.918-.832 5.406.699Zm0 0"/><path style="stroke:none;fill-rule:evenodd;fill:#a0adc0;fill-opacity:1" d="M535.813 209.758c21.238-.297 42.41.633 63.511 2.785v9.758a1762.193 1762.193 0 0 1-83.785-8.363c16.68.402 33.348.632 50 .695a399.297 399.297 0 0 0-27.027-2.785c-1.235-.387-2.137-1.086-2.7-2.09Zm0 0"/><path style="stroke:none;fill-rule:evenodd;fill:#8895ad;fill-opacity:1" d="M319.594 206.969a114.76 114.76 0 0 0 11.488 2.789 73.432 73.432 0 0 1 14.188-1.395c1.351.93 2.703 1.856 4.054 2.785a59.703 59.703 0 0 0-9.46-.695 59.438 59.438 0 0 0 14.19 4.879 350.574 350.574 0 0 1 41.216-1.394c1.855-.22 3.66.015 5.406.695a326.28 326.28 0 0 1-33.785 3.484 150.078 150.078 0 0 1-17.567 1.395h-2.703c-3.176-2.371-6.781-3.07-10.808-2.09 3.21 1.355 2.761 2.285-1.352 2.789a24.26 24.26 0 0 1-8.11.695H325c-1.453-1.93-3.254-3.554-5.406-4.879-5.73-2.265-11.137-4.82-16.215-7.664v13.938h-1.352a61.946 61.946 0 0 1 1.352-18.121 117.135 117.135 0 0 1 14.863 8.363c2.266-1.711 2.715-3.57 1.352-5.574Zm0 0"/><path style="stroke:none;fill-rule:evenodd;fill:#d6dce3;fill-opacity:1" d="M477.703 212.543c6.125-.441 11.98.023 17.567 1.394a17 17 0 0 0-6.758.696 2378.656 2378.656 0 0 0 110.812 13.242v6.969a1513.34 1513.34 0 0 0-80.406-9.758 47.115 47.115 0 0 1-12.836 1.394 1375.528 1375.528 0 0 0-43.246-5.574c-5.402-1.86-10.809-3.719-16.215-5.574h10.813a881.274 881.274 0 0 0 60.808 8.363l4.055-.699a882.174 882.174 0 0 1-48.649-9.059 11.118 11.118 0 0 1-5.406-.695 32.631 32.631 0 0 1 9.461-.699Zm0 0"/><path style="stroke:none;fill-rule:evenodd;fill:#acb8c8;fill-opacity:1" d="M325 220.906c-7.246-.039-14.453.426-21.621 1.395v-13.938c5.078 2.844 10.484 5.399 16.215 7.664 2.152 1.325 3.953 2.95 5.406 4.88Zm0 0"/><path style="stroke:none;fill-rule:evenodd;fill:#b6c0ce;fill-opacity:1" d="M346.621 219.512h-4.055c-5.699.308-6.601 2.398-2.703 6.273 8.211 6.856 17.223 12.2 27.028 16.028a72.985 72.985 0 0 1 12.164 5.574c2.605 2.75 5.757 4.843 9.457 6.273-9.688-1.926-19.149-4.945-28.375-9.062a21.614 21.614 0 0 1-6.758-2.786 80.931 80.931 0 0 0-9.461-7.667c1.8-.93 1.8-1.856 0-2.786-6.719-2.074-12.574-5.558-17.566-10.453a24.26 24.26 0 0 0 8.109-.695c4.113-.504 4.562-1.434 1.351-2.79 4.028-.98 7.633-.28 10.81 2.09Zm0 0"/><path style="stroke:none;fill-rule:evenodd;fill:#d7dde4;fill-opacity:1" d="M366.89 218.117c6.563 3.957 13.77 6.281 21.622 6.969 3.465-.328 3.465-1.027 0-2.09 4.527-.344 8.582.816 12.164 3.484-1-.183-1.899.051-2.703.696a924.577 924.577 0 0 1 60.812 28.574 521.731 521.731 0 0 0-35.137-11.848c13.555 5.602 26.614 11.871 39.188 18.817a2400.938 2400.938 0 0 0-74.324-27.18 2092.808 2092.808 0 0 1 90.543 46.691 1274.764 1274.764 0 0 1-65.543-23.695c-.676.235-1.348.465-2.024.7 9.059 3.742 17.617 8.156 25.676 13.238a790.072 790.072 0 0 0-43.246-14.633 31639.241 31639.241 0 0 1 205.406 128.918v4.183a23250.798 23250.798 0 0 1-201.351-125.437c-1.07 1.191-.621 2.355 1.351 3.484a8697.192 8697.192 0 0 1 181.082 130.317h-8.11a27481.402 27481.402 0 0 1-212.16-154.707c9.227 4.117 18.688 7.136 28.376 9.062-3.7-1.43-6.852-3.523-9.457-6.273a136.85 136.85 0 0 0 18.918 4.879 3139.745 3139.745 0 0 1-47.297-22.996c-1.617.48-1.617 1.18 0 2.09 6 2.742 11.402 6.226 16.215 10.452-9.805-3.828-18.817-9.171-27.028-16.027-3.898-3.875-2.996-5.965 2.703-6.273a1778.512 1778.512 0 0 0 83.786 41.812c1.617-.48 1.617-1.18 0-2.09a1513.103 1513.103 0 0 1-77.028-39.722 150.078 150.078 0 0 0 17.567-1.395Zm0 0"/><path style="stroke:none;fill-rule:evenodd;fill:#f8f9fa;fill-opacity:1" d="M342.566 219.512H349.324a1513.103 1513.103 0 0 0 77.028 39.722c1.617.91 1.617 1.61 0 2.09a1778.512 1778.512 0 0 1-83.786-41.812Zm0 0"/><path style="stroke:none;fill-rule:evenodd;fill:#b3becc;fill-opacity:1" d="M61.488 218.117c-3.816 1.406-7.87 2.567-12.164 3.485 1.746.683 3.551.918 5.406.699a1373.15 1373.15 0 0 0-33.785 4.875l9.461 1.394a354.404 354.404 0 0 1-31.082 3.485v-6.97a709.115 709.115 0 0 1 62.164-6.968Zm0 0"/><path style="stroke:none;fill-rule:evenodd;fill:#8f9eb4;fill-opacity:1" d="M297.973 222.3c-5.23-.44-10.188.024-14.864 1.395h-1.351c-4.528-.16-9.031-.625-13.516-1.394-3.219-.196-5.922.734-8.105 2.785-3.137.687-5.84 2.082-8.11 4.184-2.703.93-5.406 1.855-8.109 2.785-3.2.492-6.356.722-9.457.699a117.135 117.135 0 0 0 14.863-8.363c-.308-.555-.758-.79-1.351-.696a192.784 192.784 0 0 0 18.918-10.453c5.023.488 9.976.258 14.867-.699a118.285 118.285 0 0 0 14.863-8.363 61.946 61.946 0 0 1 1.352 18.12Zm0 0"/><path style="stroke:none;fill-rule:evenodd;fill:#dfe3e9;fill-opacity:1" d="M325 220.906h1.352c4.992 4.895 10.847 8.38 17.566 10.453 1.8.93 1.8 1.856 0 2.786a80.931 80.931 0 0 1 9.46 7.667 3080.007 3080.007 0 0 1-48.648-17.421c-7.195-.696-14.402-.93-21.62-.696 4.675-1.37 9.632-1.836 14.863-1.394H303.379A154.997 154.997 0 0 1 325 220.906Zm0 0"/><path style="stroke:none;fill-rule:evenodd;fill:#778aa4;fill-opacity:1" d="M233.11 193.031c2.878 1.133 6.03 1.832 9.456 2.09 1.45 1.188 2.801 2.348 4.055 3.484-1.094 1.352-2.445 2.512-4.055 3.485a292.2 292.2 0 0 1 28.38 2.09 6.071 6.071 0 0 0 2.702 2.093c-2.847.5-5.55 1.43-8.109 2.786a36.542 36.542 0 0 0 14.867 2.09c.903 0 1.352.464 1.352 1.394a51.198 51.198 0 0 1-14.867.7 192.784 192.784 0 0 1-18.918 10.452 64.493 64.493 0 0 0-12.16 4.18c-.528-1.832-2.329-3.227-5.407-4.18-5.261.883-10.215 2.278-14.867 4.18a54.354 54.354 0 0 0-10.809 1.395c-6.8-1.762-6.351-3.391 1.352-4.88a373.676 373.676 0 0 1 52.703-11.148c.899-.465 1.8-.93 2.703-1.394-1.925-2.391-1.476-4.246 1.348-5.575-21.164-.699-42.336-.93-63.512-.699a2633.39 2633.39 0 0 1-33.785-1.394c-4.242-1.145-8.75-1.84-13.512-2.09A152.555 152.555 0 0 1 183.11 200c17.57.234 35.141 0 52.703-.695a3570.397 3570.397 0 0 1-45.949-6.97 275.607 275.607 0 0 1 43.246.696Zm0 0"/><path style="stroke:none;fill-rule:evenodd;fill:#afbbca;fill-opacity:1" d="M281.758 223.695c0 .926-.45 1.39-1.352 1.39-3.535 1.825-7.136 3.68-10.812 5.575-.45-.23-.903-.46-1.352-.695 1.801-1.395 3.606-2.79 5.406-4.18a66 66 0 0 0-13.511-.7c2.183-2.05 4.886-2.98 8.105-2.784 4.485.77 8.988 1.234 13.516 1.394Zm0 0"/><path style="stroke:none;fill-rule:evenodd;fill:#fefefe;fill-opacity:1" d="M281.758 223.695h1.351c7.22-.234 14.426 0 21.621.696a3080.007 3080.007 0 0 0 48.649 17.422 21.614 21.614 0 0 0 6.758 2.785 27481.402 27481.402 0 0 0 212.16 154.707H68.242a19120.303 19120.303 0 0 0 212.164-174.22c.903 0 1.352-.464 1.352-1.39Zm0 0"/><path style="stroke:none;fill-rule:evenodd;fill:#d2d9e1;fill-opacity:1" d="M54.73 222.3h12.16c-5.085 1.856-10.492 3.016-16.214 3.485 6.531.23 13.062.465 19.594.695a1084.989 1084.989 0 0 1 76.351-2.785c-17.418 5.754-35.434 8.54-54.055 8.36-7.644-.926-15.527-1.39-23.648-1.395-23.2.961-46.398 1.89-69.594 2.79v-1.395a354.404 354.404 0 0 0 31.082-3.485l-9.46-1.394A1373.15 1373.15 0 0 1 54.73 222.3Zm0 0"/><path style="stroke:none;fill-rule:evenodd;fill:#95a5b9;fill-opacity:1" d="M462.836 220.906a1375.528 1375.528 0 0 1 43.246 5.574c4.711 1.442 9.664 2.602 14.863 3.485a24.141 24.141 0 0 1-8.11.695h-8.105a696.086 696.086 0 0 0-18.918-2.785 100.93 100.93 0 0 1-17.57-1.395c-7.039-2.05-14.246-4.144-21.62-6.27 5.37.024 10.776.255 16.214.696Zm0 0"/><path style="stroke:none;fill-rule:evenodd;fill:#acb7c7;fill-opacity:1" d="M191.215 220.906h13.515c-9.015 3.23-18.476 4.856-28.378 4.88 1.351.464 2.703.929 4.054 1.39-3.187 1.703-2.734 2.863 1.352 3.484v1.395h-5.406c-4.493-.918-8.997-1.848-13.516-2.785-8.121.93-16.227 1.859-24.324 2.785 1.031-1.07 2.383-1.766 4.054-2.09-.898-.465-1.8-.93-2.703-1.395a154.54 154.54 0 0 0 24.325-4.18 79.805 79.805 0 0 0-14.864-.695c10.438-3.363 21.25-5.687 32.434-6.968a465.827 465.827 0 0 1 31.078-3.485 594.657 594.657 0 0 0-35.133 8.36c4.766 1.128 9.27.894 13.512-.696Zm0 0"/><path style="stroke:none;fill-rule:evenodd;fill:#fafbfc;fill-opacity:1" d="M-.676 372.824v-1.394c75.723-43.23 151.399-86.434 227.028-129.618a162.071 162.071 0 0 0 17.566-9.757c2.703-.93 5.406-1.856 8.11-2.785 3.796-.102 7.402-1.032 10.808-2.79 2.531-.023 2.984.672 1.351 2.09A36295.969 36295.969 0 0 0-.675 372.824Zm0 0"/><path style="stroke:none;fill-rule:evenodd;fill:#fefefe;fill-opacity:1" d="M400.676 226.48a693.101 693.101 0 0 0 27.027 5.575 7773.114 7773.114 0 0 0 171.621 45.992v32.058c-27.492-10.226-54.969-20.445-82.433-30.664a2151.94 2151.94 0 0 0-58.106-23.691 924.577 924.577 0 0 0-60.812-28.574c.804-.645 1.703-.88 2.703-.696Zm0 0"/><path style="stroke:none;fill-rule:evenodd;fill:#f5f7f8;fill-opacity:1" d="M430.406 223.695a971.079 971.079 0 0 0 51.352 10.45 656.773 656.773 0 0 1-50-6.27 91.224 91.224 0 0 1-21.621-4.879 88.928 88.928 0 0 1 20.27.7Zm0 0"/><path style="stroke:none;fill-rule:evenodd;fill:#b5c0ce;fill-opacity:1" d="M599.324 234.844v5.574c-4.976.23-9.93 0-14.863-.695-3.664-2.438-7.719-3.828-12.164-4.184a132.49 132.49 0 0 0-25.676-1.394l8.11 1.394c-14.31.012-28.274-1.613-41.895-4.879a24.141 24.141 0 0 0 8.11-.695c-5.2-.883-10.153-2.043-14.864-3.485 4.336.125 8.613-.34 12.836-1.394a1513.34 1513.34 0 0 1 80.406 9.758Zm0 0"/><path style="stroke:none;fill-rule:evenodd;fill:#f4f5f7;fill-opacity:1" d="M202.027 237.629a932.283 932.283 0 0 0-25.675 4.879 1923.274 1923.274 0 0 0 39.187-14.633c3.668-.348 7.274-.582 10.813-.7a263.625 263.625 0 0 1-24.325 10.454Zm0 0"/><path style="stroke:none;fill-rule:evenodd;fill:#d7dde4;fill-opacity:1" d="M260.137 225.086a66 66 0 0 1 13.511.7c-1.8 1.39-3.605 2.784-5.406 4.179.45.234.903.465 1.352.695 3.676-1.894 7.277-3.75 10.812-5.574A19120.303 19120.303 0 0 1 68.242 399.305h-6.754a12594.78 12594.78 0 0 1 198.649-162.371A17923.246 17923.246 0 0 0-.676 378.398v-5.574A36295.969 36295.969 0 0 1 264.187 228.57c1.633-1.418 1.18-2.113-1.351-2.09-3.406 1.758-7.012 2.688-10.809 2.79 2.27-2.102 4.973-3.497 8.11-4.184Zm0 0"/><path style="stroke:none;fill-rule:evenodd;fill:#d8dee5;fill-opacity:1" d="M430.406 223.695a365.781 365.781 0 0 0 37.836 2.785 100.93 100.93 0 0 0 17.57 1.395c-1.03 1.07-2.382 1.766-4.054 2.09a1368.146 1368.146 0 0 1 82.43 22.996c-30.266-4.309-60.45-8.719-90.54-13.238a2501.657 2501.657 0 0 0 125.676 32.75v5.574a7773.114 7773.114 0 0 1-171.62-45.992 263.998 263.998 0 0 0 31.081 3.484c-9.402-1.723-18.41-4.277-27.027-7.664a656.773 656.773 0 0 0 50 6.27 971.079 971.079 0 0 1-51.352-10.45Zm0 0"/><path style="stroke:none;fill-rule:evenodd;fill:#f7f8f9;fill-opacity:1" d="M92.566 232.055c-31.07 3.328-62.152 6.582-93.242 9.757v-8.363a25958.18 25958.18 0 0 0 69.594-2.789c8.121.004 16.004.469 23.648 1.395Zm0 0"/><path style="stroke:none;fill-rule:evenodd;fill:#91a0b5;fill-opacity:1" d="M146.621 223.695h2.703c4.977-.23 9.93 0 14.863.696a154.54 154.54 0 0 1-24.324 4.18c.903.464 1.805.929 2.703 1.394-1.671.324-3.023 1.02-4.054 2.09-4.946-.473-9.45.453-13.512 2.789a54.86 54.86 0 0 0-12.164 1.394c-16.02.727-31.785 2.117-47.297 4.18l-16.215 1.394a1658.309 1658.309 0 0 0-50 4.18v-4.18c31.09-3.175 62.172-6.43 93.242-9.757 18.621.18 36.637-2.606 54.055-8.36Zm0 0"/><path style="stroke:none;fill-rule:evenodd;fill:#d8dee5;fill-opacity:1" d="M504.73 230.66h8.106c13.621 3.266 27.586 4.89 41.894 4.88l-8.109-1.395a132.49 132.49 0 0 1 25.676 1.394c4.445.356 8.5 1.746 12.164 4.184 4.934.695 9.887.925 14.863.695v8.363A1594.346 1594.346 0 0 1 525 234.844c-1.656.027-3.008.492-4.055 1.394a373.727 373.727 0 0 1-25.675-4.879 32.768 32.768 0 0 1 9.46-.699Zm0 0"/><path style="stroke:none;fill-rule:evenodd;fill:#f9fafb;fill-opacity:1" d="M125 234.844c5.875-.23 11.727 0 17.566.695A2622.326 2622.326 0 0 1-.676 266.9v-2.786a5098.69 5098.69 0 0 0 113.512-27.875A54.86 54.86 0 0 1 125 234.844Zm0 0"/><path style="stroke:none;fill-rule:evenodd;fill:#b9c3d0;fill-opacity:1" d="M485.813 227.875c6.44.86 12.75 1.79 18.917 2.785a32.768 32.768 0 0 0-9.46.7 373.727 373.727 0 0 0 25.675 4.878 428.819 428.819 0 0 0 27.028 5.575c16.359 6.632 33.476 10.812 51.351 12.542v5.575a346.463 346.463 0 0 1-35.136-6.97 1368.146 1368.146 0 0 0-82.43-22.995c1.672-.324 3.023-1.02 4.055-2.09Zm0 0"/><path style="stroke:none;fill-rule:evenodd;fill:#bdc7d3;fill-opacity:1" d="M176.352 232.055a425.833 425.833 0 0 0-22.973 6.968A22478.415 22478.415 0 0 1-.676 272.473v-5.575a2622.326 2622.326 0 0 0 143.242-31.359c-5.84-.695-11.691-.926-17.566-.695 4.063-2.336 8.566-3.262 13.512-2.79 8.097-.925 16.203-1.855 24.324-2.784 4.52.937 9.023 1.867 13.516 2.785Zm0 0"/><path style="stroke:none;fill-rule:evenodd;fill:#d7dce4;fill-opacity:1" d="M112.836 236.238A5098.69 5098.69 0 0 1-.676 264.113v-4.183A2266.322 2266.322 0 0 0 75 241.113a32.766 32.766 0 0 0-9.46-.695c15.51-2.063 31.276-3.453 47.296-4.18Zm0 0"/><path style="stroke:none;fill-rule:evenodd;fill:#fefefe;fill-opacity:1" d="M61.488 399.305H-.676v-20.907a17923.246 17923.246 0 0 1 260.813-141.464 12594.78 12594.78 0 0 0-198.649 162.37Zm0 0"/><path style="stroke:none;fill-rule:evenodd;fill:#f5f6f8;fill-opacity:1" d="M379.055 247.387a72.985 72.985 0 0 0-12.164-5.575c-4.813-4.226-10.215-7.71-16.215-10.453-1.617-.91-1.617-1.609 0-2.09a3139.745 3139.745 0 0 0 47.297 22.997 136.85 136.85 0 0 1-18.918-4.88Zm0 0"/><path style="stroke:none;fill-rule:evenodd;fill:#fcfdfd;fill-opacity:1" d="M462.836 262.719c17.113 6.965 34.23 13.933 51.351 20.906a3615.217 3615.217 0 0 0 85.137 39.023v4.18a6248.171 6248.171 0 0 0-98.648-34.844c-7.156-3.218-14.363-6.472-21.621-9.754a2092.808 2092.808 0 0 0-90.543-46.69 2400.938 2400.938 0 0 1 74.324 27.179Zm0 0"/><path style="stroke:none;fill-rule:evenodd;fill:#fafbfc;fill-opacity:1" d="M65.54 240.418c3.187-.227 6.339.004 9.46.695A2266.322 2266.322 0 0 1-.676 259.93v-9.754a523.97 523.97 0 0 0 50-8.363l16.215-1.395Zm0 0"/><path style="stroke:none;fill-rule:evenodd;fill:#fbfcfd;fill-opacity:1" d="M95.27 262.719a406.204 406.204 0 0 0-25.676 6.969 167877.86 167877.86 0 0 1-70.27 15.328v-12.543c51.528-11 102.88-22.149 154.055-33.45a212.3 212.3 0 0 1 18.918-2.09A1502.414 1502.414 0 0 0 95.27 262.72Zm0 0"/><path style="stroke:none;fill-rule:evenodd;fill:#fcfcfd;fill-opacity:1" d="M564.188 252.96a346.463 346.463 0 0 0 35.136 6.97v12.543a2501.657 2501.657 0 0 1-125.676-32.75c30.09 4.52 60.274 8.93 90.54 13.238Zm0 0"/><path style="stroke:none;fill-rule:evenodd;fill:#d2d8e1;fill-opacity:1" d="M49.324 241.813a523.97 523.97 0 0 1-50 8.363v-4.184a1658.309 1658.309 0 0 1 50-4.18Zm0 0"/><path style="stroke:none;fill-rule:evenodd;fill:#d4dae2;fill-opacity:1" d="M176.352 232.055h5.406c1.922.293 3.722.988 5.406 2.09a1178.595 1178.595 0 0 0-60.812 20.906 752.538 752.538 0 0 1-31.082 7.668 1502.414 1502.414 0 0 1 77.027-25.785 212.3 212.3 0 0 0-18.918 2.09 425.833 425.833 0 0 1 22.973-6.97Zm0 0"/><path style="stroke:none;fill-rule:evenodd;fill:#d5dbe3;fill-opacity:1" d="M547.973 241.813a982.636 982.636 0 0 0 51.351 8.363v4.18c-17.875-1.731-34.992-5.91-51.351-12.543Zm0 0"/><path style="stroke:none;fill-rule:evenodd;fill:#f7f8f9;fill-opacity:1" d="M520.945 236.238c1.047-.902 2.399-1.367 4.055-1.394a1594.346 1594.346 0 0 0 74.324 13.937v1.395a982.636 982.636 0 0 1-51.351-8.363 428.819 428.819 0 0 1-27.028-5.575Zm0 0"/><path style="stroke:none;fill-rule:evenodd;fill:#d7dce4;fill-opacity:1" d="M226.352 241.813C150.722 284.995 75.047 328.198-.676 371.43v-5.575c58.07-32.738 116.18-65.492 174.324-98.257A785208.819 785208.819 0 0 0-.676 351.918v-5.578a22155.448 22155.448 0 0 0 210.813-102.438c-6.328 1.618-12.633 3.707-18.922 6.274 10.824-7.547 22.762-12.656 35.812-15.332 2.328.152 2.551.851.676 2.09-9.012 5.109-18.02 10.218-27.027 15.332 8.742-2.637 17.3-6.121 25.676-10.453Zm0 0"/><path style="stroke:none;fill-rule:evenodd;fill:#fdfdfe;fill-opacity:1" d="M-.676 328.223v-25.086a2009.423 2009.423 0 0 0 112.164-39.024 184.84 184.84 0 0 1 21.621-5.578 346.453 346.453 0 0 1 47.297-10.453A15992.424 15992.424 0 0 0-.676 328.222Zm0 0"/><path style="stroke:none;fill-rule:evenodd;fill:#bbc5d2;fill-opacity:1" d="M458.785 255.75a2151.94 2151.94 0 0 1 58.106 23.691 284.223 284.223 0 0 0 33.785 16.028 1617.287 1617.287 0 0 1-36.489-11.844 238891.96 238891.96 0 0 0-51.351-20.906c-12.574-6.946-25.633-13.215-39.188-18.817a521.731 521.731 0 0 1 35.137 11.848Zm0 0"/><path style="stroke:none;fill-rule:evenodd;fill:#f8f9fa;fill-opacity:1" d="M-.676 346.34v-8.36a6304.222 6304.222 0 0 0 159.461-73.867 146.343 146.343 0 0 0 27.028-13.242 11.051 11.051 0 0 1 5.402-.695c6.289-2.567 12.594-4.656 18.922-6.274A22155.448 22155.448 0 0 1-.676 346.34Zm0 0"/><path style="stroke:none;fill-rule:evenodd;fill:#fefefe;fill-opacity:1" d="M437.164 272.473c7.203 2.789 14.414 5.574 21.621 8.363A3372.407 3372.407 0 0 0 575 336.586a87.61 87.61 0 0 0 24.324 11.148v39.024A31639.241 31639.241 0 0 0 393.918 257.84a790.072 790.072 0 0 1 43.246 14.633Zm0 0"/><path style="stroke:none;fill-rule:evenodd;fill:#b7c2cf;fill-opacity:1" d="M181.758 232.055v-1.395h18.918a1122.019 1122.019 0 0 1-39.188 14.637c1.348.465 2.7.93 4.051 1.394-11.254 3.118-22.066 7.067-32.43 11.844a184.84 184.84 0 0 0-21.62 5.578 291.358 291.358 0 0 0-52.028 15.328c-2.383-.617-2.156-1.316.676-2.09-.676-.23-1.352-.464-2.028-.695-2.418 1.266-4.898 1.5-7.433.696a431.54 431.54 0 0 0 18.918-7.664 406.204 406.204 0 0 1 25.676-6.97 752.538 752.538 0 0 0 31.082-7.667 1178.595 1178.595 0 0 1 60.812-20.906c-1.684-1.102-3.484-1.797-5.406-2.09Zm0 0"/><path style="stroke:none;fill-rule:evenodd;fill:#d7dde4;fill-opacity:1" d="M111.488 264.113A2009.423 2009.423 0 0 1-.676 303.137v-18.121c23.41-5.102 46.836-10.211 70.27-15.329a431.54 431.54 0 0 1-18.918 7.665c2.535.804 5.015.57 7.433-.696.676.23 1.352.465 2.028.696-2.832.773-3.059 1.472-.676 2.09a291.358 291.358 0 0 1 52.027-15.329Zm0 0"/><path style="stroke:none;fill-rule:evenodd;fill:#a6b2c3;fill-opacity:1" d="M247.973 223.695c.593-.093 1.043.14 1.351.696a117.135 117.135 0 0 1-14.863 8.363 59.208 59.208 0 0 0 9.457-.7 162.071 162.071 0 0 1-17.566 9.758c-8.375 4.333-16.934 7.817-25.676 10.454 9.008-5.114 18.015-10.223 27.027-15.332 1.875-1.239 1.652-1.938-.676-2.09-13.05 2.676-24.988 7.785-35.812 15.332a11.051 11.051 0 0 0-5.403.695 146.343 146.343 0 0 1-27.027 13.242 11.066 11.066 0 0 0-5.406.696 1222.352 1222.352 0 0 1-71.621 31.359 2513.354 2513.354 0 0 1 101.351-46.691c1.801-1.856 3.602-3.715 5.403-5.575 4.812-1.718 9.316-3.808 13.515-6.273a263.625 263.625 0 0 0 24.325-10.453c-3.54.117-7.145.351-10.813.699 4.652-1.902 9.606-3.297 14.867-4.18 3.078.953 4.88 2.348 5.406 4.18 3.946-1.809 8-3.203 12.16-4.18Zm0 0"/><path style="stroke:none;fill-rule:evenodd;fill:#fdfdfd;fill-opacity:1" d="M599.324 390.941v8.364h-18.918a8697.192 8697.192 0 0 0-181.082-130.317c-1.972-1.129-2.422-2.293-1.351-3.484A23250.798 23250.798 0 0 0 599.324 390.94Zm0 0"/><path style="stroke:none;fill-rule:evenodd;fill:#b6c0ce;fill-opacity:1" d="M158.785 264.113A6304.222 6304.222 0 0 1-.675 337.98v-4.183a1105.323 1105.323 0 0 1 82.433-37.629 1222.352 1222.352 0 0 0 71.62-31.36 11.066 11.066 0 0 1 5.407-.695Zm0 0"/><path style="stroke:none;fill-rule:evenodd;fill:#b9c3d0;fill-opacity:1" d="M479.055 282.23c7.257 3.282 14.465 6.536 21.62 9.754 5.419 3.664 11.278 6.684 17.567 9.063-1.89.828-3.691.594-5.406-.7l-1.348 2.79c-16.863-9.399-34.43-16.832-52.703-22.301-7.207-2.79-14.418-5.574-21.62-8.363-8.06-5.082-16.618-9.496-25.677-13.239.676-.234 1.348-.464 2.024-.699a1274.764 1274.764 0 0 0 65.543 23.695Zm0 0"/><path style="stroke:none;fill-rule:evenodd;fill:#d5dbe3;fill-opacity:1" d="M215.54 227.875a1923.274 1923.274 0 0 1-39.188 14.633 932.283 932.283 0 0 1 25.675-4.88c-4.199 2.466-8.703 4.556-13.515 6.274-1.801 1.86-3.602 3.72-5.403 5.575a2513.354 2513.354 0 0 0-101.351 46.691A1105.323 1105.323 0 0 0-.676 333.797v-5.574a15992.424 15992.424 0 0 1 181.082-80.141 346.453 346.453 0 0 0-47.297 10.453c10.364-4.777 21.176-8.726 32.43-11.844l-4.05-1.394a1122.019 1122.019 0 0 0 39.187-14.637c1.746.332 3.097-.133 4.054-1.39a54.354 54.354 0 0 1 10.81-1.395Zm0 0"/><path style="stroke:none;fill-rule:evenodd;fill:#fcfdfd;fill-opacity:1" d="M-.676 365.855v-13.937c58.23-28.176 116.34-56.281 174.324-84.32A1057422.34 1057422.34 0 0 0-.676 365.855Zm0 0"/><path style="stroke:none;fill-rule:evenodd;fill:#d7dde4;fill-opacity:1" d="M516.89 279.441c27.465 10.22 54.942 20.438 82.434 30.664v12.543a3615.217 3615.217 0 0 1-85.136-39.023 1617.287 1617.287 0 0 0 36.488 11.844 284.223 284.223 0 0 1-33.785-16.028Zm0 0"/><path style="stroke:none;fill-rule:evenodd;fill:#d6dce3;fill-opacity:1" d="M458.785 280.836c18.274 5.469 35.84 12.902 52.703 22.3l1.348-2.788c1.715 1.293 3.516 1.527 5.406.699-6.289-2.379-12.148-5.399-17.566-9.063a6248.171 6248.171 0 0 1 98.648 34.844v4.184a6620.428 6620.428 0 0 1-71.62-24.39 863.112 863.112 0 0 1 58.109 29.964 1530.253 1530.253 0 0 1-68.247-32.055c-.675.23-1.351.461-2.027.696A1811.286 1811.286 0 0 1 575 336.586a3372.407 3372.407 0 0 1-116.215-55.75Zm0 0"/><path style="stroke:none;fill-rule:evenodd;fill:#fcfcfd;fill-opacity:1" d="M599.324 331.012v11.148c-4.504-1.86-9.008-3.719-13.511-5.574a863.112 863.112 0 0 0-58.11-29.965 6620.428 6620.428 0 0 0 71.621 24.39Zm0 0"/><path style="stroke:none;fill-rule:evenodd;fill:#bec7d4;fill-opacity:1" d="M585.813 336.586c4.503 1.855 9.007 3.715 13.511 5.574v5.574A87.61 87.61 0 0 1 575 336.586a1811.286 1811.286 0 0 0-59.46-31.36c.675-.234 1.35-.464 2.026-.695a1530.253 1530.253 0 0 0 68.246 32.055Zm0 0"/></svg>