<svg xmlns="http://www.w3.org/2000/svg" width="600" height="400"><path style="stroke:none;fill-rule:evenodd;fill:#fefefe;fill-opacity:1" d="M-.508-.367h600v400h-600v-400Zm0 0"/><path style="stroke:none;fill-rule:evenodd;fill:#527cb4;fill-opacity:1" d="M223.48 85.191v76.051h-17.23c1.082-.683 2.434-.926 4.055-.73V9.872c3.058-.15 6.097-.392 9.12-.731v76.05h4.055Zm0 0"/><path style="stroke:none;fill-rule:evenodd;fill:#8eaace;fill-opacity:1" d="M522.465 9.14c2.484-.71 5.183-.956 8.11-.73v32.906c.167 39.73 0 79.465-.509 119.196-.504-50.457-.675-100.914-.504-151.371h-7.097Zm0 0"/><path style="stroke:none;fill-rule:evenodd;fill:#4a77b1;fill-opacity:1" d="M522.465 9.14h7.097c-.171 50.458 0 100.915.504 151.372.508-39.73.676-79.465.508-119.196h7.094v91.407h7.094v28.52h-29.39c2.136-.708 4.5-.95 7.093-.731V9.14Zm0 0"/><path style="stroke:none;fill-rule:evenodd;fill:#b9c7da;fill-opacity:1" d="M223.48 85.191a1400.406 1400.406 0 0 1 1.012 75.32 431.773 431.773 0 0 1 35.473.731H223.48v-76.05Zm0 0"/><path style="stroke:none;fill-rule:evenodd;fill:#c6cad0;fill-opacity:1" d="M544.762 132.723c1.011 9.132 1.347 18.398 1.015 27.789a649.95 649.95 0 0 1 43.582.73h-44.597v-28.52Zm0 0"/><path style="stroke:none;fill-rule:evenodd;fill:#000;fill-opacity:1" d="M206.25 161.242h53.715v16.09h-4.05v-13.164H138.343v13.164h-4.055v-13.164H16.723v13.164h-4.055v-16.09H206.25ZM515.371 161.242h73.988v16.09h-4.054v-13.164H467.738v13.164h-4.054v-12.434c-39.016-.73-78.207-.972-117.57-.73v13.164h-4.051v-16.09H515.37Zm0 0"/><path style="stroke:none;fill-rule:evenodd;fill:#a1a1a1;fill-opacity:1" d="M134.29 177.332c-1-4.004-1.34-8.148-1.013-12.434H17.738c.325 4.286-.011 8.43-1.015 12.434v-13.164h117.566v13.164ZM255.914 177.332c-1.004-4.004-1.34-8.148-1.016-12.434H139.36c.325 4.286-.011 8.43-1.015 12.434v-13.164h117.57v13.164Zm0 0"/><path style="stroke:none;fill-rule:evenodd;fill:#9c9c9c;fill-opacity:1" d="M463.684 164.898H347.129c.324 4.286-.012 8.43-1.016 12.434v-13.164c39.364-.242 78.555 0 117.57.73Zm0 0"/><path style="stroke:none;fill-rule:evenodd;fill:#a2a2a2;fill-opacity:1" d="M585.305 177.332c-1.004-4.004-1.34-8.148-1.016-12.434H468.75c.328 4.286-.012 8.43-1.012 12.434v-13.164h117.567v13.164Zm0 0"/><path style="stroke:none;fill-rule:evenodd;fill:#e38129;fill-opacity:1" d="M82.602 219.012h3.039v152.101H75.508V238.758c1.308.172 2.32-.07 3.039-.73v-16.821h3.039c-.168 49.727 0 99.453.508 149.176.508-50.457.676-100.914.508-151.371Zm0 0"/><path style="stroke:none;fill-rule:evenodd;fill:#e79246;fill-opacity:1" d="M82.602 219.012c.168 50.457 0 100.914-.508 151.37-.508-49.722-.676-99.448-.508-149.175h-3.04a24.327 24.327 0 0 0 4.056-2.195Zm0 0"/><path style="stroke:none;fill-rule:evenodd;fill:#e27d22;fill-opacity:1" d="M85.64 222.668h2.028v148.445h-2.027V222.668Zm0 0"/><path style="stroke:none;fill-rule:evenodd;fill:#e99f5c;fill-opacity:1" d="M526.52 369.652c-31.582.73-63.34.973-95.27.73a248.85 248.85 0 0 1 17.23-5.116c1.61-.375 2.793-1.106 3.547-2.196.418.336.926.578 1.52.73 6.77-2.695 13.527-5.374 20.27-8.042 4.726-1.953 9.12-4.266 13.175-6.945 1.977-1.27 2.992-2.852 3.043-4.754 1.192.16 2.203-.082 3.04-.73 2.714-3.337 4.741-6.872 6.081-10.606a1463.42 1463.42 0 0 0 3.547-18.645 5280.725 5280.725 0 0 0 5.067-80.441c.859-4.918 1.875-9.793 3.043-14.625.109 10.511.785 20.992 2.023 31.445a995.822 995.822 0 0 1 3.043-26.324 4440.754 4440.754 0 0 1 6.082 103.105 466.285 466.285 0 0 0 4.559 42.414Zm0 0"/><path style="stroke:none;fill-rule:evenodd;fill:#e79a54;fill-opacity:1" d="M87.668 222.668c1.516.36 2.867.848 4.055 1.465H90.71c-2.023 48.5-2.7 97.25-2.027 146.25v.73h-1.016V222.668Zm0 0"/><path style="stroke:none;fill-rule:evenodd;fill:#e27e22;fill-opacity:1" d="M90.71 224.133c.673 49-.003 97.75-2.026 146.25-.672-49 .004-97.75 2.027-146.25Zm0 0"/><path style="stroke:none;fill-rule:evenodd;fill:#e27d22;fill-opacity:1" d="M72.465 233.637h2.027v137.476h-2.027V233.637Zm0 0"/><path style="stroke:none;fill-rule:evenodd;fill:#e6954b;fill-opacity:1" d="M74.492 233.637c.977 1.293 1.313 2.754 1.016 4.39h3.039c-.719.66-1.73.903-3.04.73v132.356h-1.015V233.637Zm0 0"/><path style="stroke:none;fill-rule:evenodd;fill:#e89d58;fill-opacity:1" d="M72.465 233.637v137.476h-1.012c-.676-175.5-1.351-175.5-2.027 0h-1.012v-.73c.668-40.227-.008-80.203-2.027-119.926H65.37c.719-.66 1.734-.906 3.043-.73v-10.97h3.04c-.306-1.87.03-3.577 1.01-5.12Zm0 0"/><path style="stroke:none;fill-rule:evenodd;fill:#e27d22;fill-opacity:1" d="M71.453 371.113h-2.027c.676-175.5 1.351-175.5 2.027 0Zm0 0"/><path style="stroke:none;fill-rule:evenodd;fill:#e37e23;fill-opacity:1" d="M91.723 238.758h3.039v131.625h-3.04V238.758Zm0 0"/><path style="stroke:none;fill-rule:evenodd;fill:#e38836;fill-opacity:1" d="M90.71 224.133h1.013v146.25h3.039V244.605h1.015a1951.85 1951.85 0 0 0 2.028 125.778v.73h-9.121v-.73c2.023-48.5 2.699-97.25 2.027-146.25Zm0 0"/><path style="stroke:none;fill-rule:evenodd;fill:#e27e22;fill-opacity:1" d="M95.777 244.605h2.028v125.778a1951.85 1951.85 0 0 1-2.028-125.778ZM66.387 250.457c2.02 39.723 2.695 79.7 2.027 119.926-2.023-39.723-2.7-79.7-2.027-119.926Zm0 0"/><path style="stroke:none;fill-rule:evenodd;fill:#e89b55;fill-opacity:1" d="M97.805 244.605h4.054v8.047h3.04v118.461h-1.012c-.676-156.976-1.352-156.976-2.028 0h-1.015c-.676-167.699-1.352-167.699-2.028 0h-1.011V244.605Zm0 0"/><path style="stroke:none;fill-rule:evenodd;fill:#e27d22;fill-opacity:1" d="M100.844 371.113h-2.028c.676-167.699 1.352-167.699 2.028 0ZM103.887 371.113h-2.028c.676-156.976 1.352-156.976 2.028 0Zm0 0"/><path style="stroke:none;fill-rule:evenodd;fill:#e3822c;fill-opacity:1" d="M104.898 263.621c2.028.488 4.055.973 6.082 1.461v11.7h4.055v94.331h-10.137V263.621Zm0 0"/><path style="stroke:none;fill-rule:evenodd;fill:#e27e22;fill-opacity:1" d="M62.332 272.395h3.04v97.988h-3.04v-97.988ZM61.316 275.32c.672 31.942-.004 63.63-2.027 95.063V292.14c-.64-5.907.035-11.512 2.027-16.82Zm0 0"/><path style="stroke:none;fill-rule:evenodd;fill:#e48a39;fill-opacity:1" d="M65.371 250.457h1.016c-.672 40.227.004 80.203 2.027 119.926v.73H59.29v-.73c2.023-31.434 2.7-63.121 2.027-95.063h1.016v95.063h3.04v-97.988h-3.04c.719-.66 1.73-.903 3.04-.73v-21.208Zm0 0"/><path style="stroke:none;fill-rule:evenodd;fill:#e27d22;fill-opacity:1" d="M115.035 281.902h2.028v89.211h-2.028v-89.21Zm0 0"/><path style="stroke:none;fill-rule:evenodd;fill:#e89c56;fill-opacity:1" d="M117.063 281.902c.914.516 1.253 1.25 1.011 2.192 1.309-.172 2.32.07 3.04.734h-1.012c-2.02 28.262-2.696 56.781-2.028 85.555v.73h-1.011v-89.21Zm0 0"/><path style="stroke:none;fill-rule:evenodd;fill:#e27e22;fill-opacity:1" d="M120.102 284.828c.668 28.774-.008 57.293-2.028 85.555-.668-28.774.008-57.293 2.028-85.555ZM121.113 287.02h3.043v83.363h-3.043V287.02Zm0 0"/><path style="stroke:none;fill-rule:evenodd;fill:#e48b3c;fill-opacity:1" d="M120.102 284.828h1.011v85.555h3.043v-72.395h3.04v.73c-1.352 11.692-2.024 23.637-2.028 35.833.34 11.945.676 23.89 1.016 35.832a1021.81 1021.81 0 0 0 1.011-64.352h1.016v65.082h-10.137v-.73c2.02-28.262 2.696-56.781 2.028-85.555Zm0 0"/><path style="stroke:none;fill-rule:evenodd;fill:#e27e22;fill-opacity:1" d="M127.195 298.719v7.312c.34 21.457 0 42.906-1.011 64.352-.34-11.942-.676-23.887-1.016-35.832.004-12.196.676-24.14 2.027-35.832Zm0 0"/><path style="stroke:none;fill-rule:evenodd;fill:#f5d0b0;fill-opacity:1" d="M127.195 297.988c.993 2.285 1.332 4.723 1.016 7.313 1.7-.156 2.715.332 3.039 1.465h-1.012c-.347-.614-1.023-.86-2.027-.735h-1.016v-8.042Zm0 0"/><path style="stroke:none;fill-rule:evenodd;fill:#e27d22;fill-opacity:1" d="M128.21 306.031c1.005-.125 1.68.121 2.028.735v64.347h-2.027v-65.082Zm0 0"/><path style="stroke:none;fill-rule:evenodd;fill:#e99e5b;fill-opacity:1" d="M59.29 292.14v78.973h-1.013c-.675-104.324-1.351-104.324-2.027 0h-1.012v-78.972h4.051Zm0 0"/><path style="stroke:none;fill-rule:evenodd;fill:#e27d22;fill-opacity:1" d="M58.277 371.113H56.25c.676-104.324 1.352-104.324 2.027 0Zm0 0"/><path style="stroke:none;fill-rule:evenodd;fill:#e89a55;fill-opacity:1" d="M130.238 306.766h4.052V317c1.308-.172 2.323.07 3.042.734h-3.043v53.38h-1.012c-.675-84.825-1.351-84.825-2.027 0h-1.012v-64.348Zm0 0"/><path style="stroke:none;fill-rule:evenodd;fill:#e27d22;fill-opacity:1" d="M133.277 371.113h-2.027c.676-84.824 1.352-84.824 2.027 0Zm0 0"/><path style="stroke:none;fill-rule:evenodd;fill:#e3822c;fill-opacity:1" d="M137.332 317.734c.324 1.13 1.34 1.618 3.04 1.461v3.657h4.054V371.113h-10.137v-53.379h3.043Zm0 0"/><path style="stroke:none;fill-rule:evenodd;fill:#e27d22;fill-opacity:1" d="M144.426 325.777h2.027v45.336h-2.027v-45.336Zm0 0"/><path style="stroke:none;fill-rule:evenodd;fill:#e2822c;fill-opacity:1" d="M55.238 307.496v63.617H22.805c2.136-.707 4.5-.949 7.093-.73v-2.192h3.04v-2.925h3.042v-7.313h3.04v-3.656h4.054v-8.777h3.04v-16.817h3.042V316.27h3.04v-8.774h3.042Zm0 0"/><path style="stroke:none;fill-rule:evenodd;fill:#e37f25;fill-opacity:1" d="M150.508 338.941h3.039v16.086h3.039V370.383h-6.078V338.94Zm0 0"/><path style="stroke:none;fill-rule:evenodd;fill:#f1c297;fill-opacity:1" d="M43.074 345.52v8.777H39.02c.718-.66 1.734-.906 3.042-.73-.32-2.833.016-5.516 1.012-8.047Zm0 0"/><path style="stroke:none;fill-rule:evenodd;fill:#de8c43;fill-opacity:1" d="M146.453 325.777c.992 2.286 1.332 4.723 1.012 7.313h3.043v37.293h6.078v-5.848h4.055v3.656h3.043v2.192c1.308-.172 2.32.07 3.039.73h-20.27v-45.336Zm0 0"/><path style="stroke:none;fill-rule:evenodd;fill:#e27e22;fill-opacity:1" d="M147.465 333.82c1.351 5.832 2.027 11.926 2.027 18.282-.336 6.093-.676 12.187-1.012 18.28a331.128 331.128 0 0 1-1.015-36.562Zm0 0"/><path style="stroke:none;fill-rule:evenodd;fill:#c3844c;fill-opacity:1" d="M526.52 369.652c.851.25 1.187.739 1.015 1.461H424.156c2.133-.707 4.5-.949 7.094-.73 31.93.242 63.688 0 95.27-.73Zm0 0"/><path style="stroke:none;fill-rule:evenodd;fill:#000;fill-opacity:1" d="M22.805 371.113H259.965v16.09h-4.05V374.04H138.343v13.164h-4.055V374.04H16.723v13.164h-4.055v-16.09h10.137ZM424.156 371.113H589.36v16.09h-4.054V374.04H467.738v13.164h-4.054V374.77c-39.016-.73-78.207-.973-117.57-.73v13.163h-4.051v-16.09h82.093Zm0 0"/><path style="stroke:none;fill-rule:evenodd;fill:#959595;fill-opacity:1" d="M134.29 387.203c-1-4.004-1.34-8.148-1.013-12.433H17.738c.325 4.285-.011 8.43-1.015 12.433V374.04h117.566v13.164ZM255.914 387.203c-1.004-4.004-1.34-8.148-1.016-12.433H139.36c.325 4.285-.011 8.43-1.015 12.433V374.04h117.57v13.164Zm0 0"/><path style="stroke:none;fill-rule:evenodd;fill:#8e8e8e;fill-opacity:1" d="M463.684 374.77H347.129c.324 4.285-.012 8.43-1.016 12.433V374.04c39.364-.242 78.555 0 117.57.73Zm0 0"/><path style="stroke:none;fill-rule:evenodd;fill:#959595;fill-opacity:1" d="M585.305 387.203c-1.004-4.004-1.34-8.148-1.016-12.433H468.75c.328 4.285-.012 8.43-1.012 12.433V374.04h117.567v13.164Zm0 0"/></svg>