<svg xmlns="http://www.w3.org/2000/svg" width="600" height="400"><path style="stroke:none;fill-rule:evenodd;fill:#75b8c6;fill-opacity:1" d="M-.645-.57h7.743c-.262 2.793.168 5.453 1.289 7.976.547 2.602-.313 4.5-2.582 5.7H.645c.347-1.825-.083-3.34-1.29-4.56V-.57Zm0 0"/><path style="stroke:none;fill-rule:evenodd;fill:#fefefe;fill-opacity:1" d="M7.098-.57h134.191A580.61 580.61 0 0 1 140 54.133c-9.188 1.922-17.79.594-25.805-3.992-17.843-2.184-35.047-6.36-51.613-12.536-9.383-5.09-19.277-9.27-29.68-12.535C23.77 20.234 15.598 14.348 8.387 7.406 7.266 4.883 6.836 2.223 7.097-.57Zm0 0"/><path style="stroke:none;fill-rule:evenodd;fill:#e5e5e5;fill-opacity:1" d="M141.29-.57h5.163V58.69c-2.437-1.261-4.59-2.78-6.453-4.558A580.61 580.61 0 0 0 141.29-.57Zm0 0"/><path style="stroke:none;fill-rule:evenodd;fill:#fefefe;fill-opacity:1" d="M146.453-.57h152.258v80.914c-1.867 1.64-4.23 2.398-7.098 2.277a100.674 100.674 0 0 0-21.289-2.848 166.107 166.107 0 0 1-12.906-9.687c-2.578 1.14-5.16 2.277-7.742 3.418-3.668-1.45-7.324-1.45-10.965 0a22.282 22.282 0 0 1-4.516-1.711 737.99 737.99 0 0 1-30.968-2.277c-7.649-3.422-15.82-4.942-24.516-4.559-7.266-.8-14.149-2.703-20.645-5.7a59.513 59.513 0 0 0-11.613-.566V-.57Zm0 0"/><path style="stroke:none;fill-rule:evenodd;fill:#e7e7e7;fill-opacity:1" d="M298.71-.57h6.45v80.914h-6.45V-.57Zm0 0"/><path style="stroke:none;fill-rule:evenodd;fill:#fefefe;fill-opacity:1" d="M305.16-.57H456.13v90.027h-83.871a426.445 426.445 0 0 1-33.547-1.707 484.64 484.64 0 0 1-33.55-7.406V-.57ZM462.582-.57h136.773v90.027H462.582V-.57Zm0 0"/><path style="stroke:none;fill-rule:evenodd;fill:#fdfdfd;fill-opacity:1" d="M-.645 8.547C.563 9.766.992 11.28.645 13.105h5.16c.015 1.73.875 3.06 2.582 3.989C15.27 21.652 22.152 26.21 29.03 30.77c11.266 3.644 22.02 8.203 32.258 13.675A453.444 453.444 0 0 1 96.13 54.7c11.863.836 23.262 3.305 34.195 7.41 4.461-1.91 8.117-1.152 10.965 2.278v25.07H57.418l-2.578-5.695c.168-3.5-.262-6.918-1.293-10.258.266-2.152-.598-3.863-2.578-5.129-4.711-1.098-9.012-.527-12.903 1.71.399-3.663-.03-7.081-1.293-10.257a58.291 58.291 0 0 0-3.226-18.234c-3.598-2.996-6.18-2.235-7.742 2.281a8.637 8.637 0 0 0-.645 4.559 89.74 89.74 0 0 0-2.578 10.257c-.777 1.594-2.066 2.735-3.871 3.418a7.179 7.179 0 0 1-1.293-4.558h-3.871c-1.29-.762-2.578-1.52-3.871-2.281-1.586-2.047-2.446-4.325-2.578-6.836-.86 0-1.293-.38-1.293-1.141A120.816 120.816 0 0 0-.645 32.48V8.547Zm0 0"/><path style="stroke:none;fill-rule:evenodd;fill:#82c6d4;fill-opacity:1" d="M7.098 48.434c-1.293-8.364-2.582-16.72-3.871-25.07h7.742a941.202 941.202 0 0 1 3.87 23.929c-2.663.02-5.245.398-7.741 1.14Zm0 0"/><path style="stroke:none;fill-rule:evenodd;fill:#b5b044;fill-opacity:1" d="M-.645 32.48a120.816 120.816 0 0 1 6.45 14.813c-2.309-.152-4.461.227-6.45 1.14V32.48Zm0 0"/><path style="stroke:none;fill-rule:evenodd;fill:#b6b243;fill-opacity:1" d="M36.773 59.828c-1.843 1.184-3.996 1.942-6.449 2.281-1.949 1.66-3.242 3.75-3.87 6.266-2.11.563-4.263.754-6.454.57a19.506 19.506 0 0 1-1.29-6.836c1.806-.683 3.095-1.824 3.872-3.418 1.988.91 4.137 1.29 6.45 1.137a25.189 25.189 0 0 0-.645-7.976c-.305-1.844-1.38-2.985-3.227-3.418a8.637 8.637 0 0 1 .645-4.559c1.562-4.516 4.144-5.277 7.742-2.281a58.291 58.291 0 0 1 3.226 18.234Zm0 0"/><path style="stroke:none;fill-rule:evenodd;fill:#8e6c62;fill-opacity:1" d="M5.805 47.293c0 .762.433 1.14 1.293 1.14.132 2.512.992 4.79 2.578 6.837l-5.16 3.421c-2.375-1.925-4.098-4.207-5.16-6.84v-3.417c1.988-.914 4.14-1.293 6.449-1.141Zm0 0"/><path style="stroke:none;fill-rule:evenodd;fill:#8f6e5d;fill-opacity:1" d="M25.16 48.434c1.848.433 2.922 1.574 3.227 3.418.64 2.632.855 5.293.644 7.976-2.312.152-4.46-.226-6.449-1.137a89.74 89.74 0 0 1 2.578-10.257Zm0 0"/><path style="stroke:none;fill-rule:evenodd;fill:#b2af43;fill-opacity:1" d="M9.676 55.27c1.293.761 2.582 1.52 3.87 2.28a56.984 56.984 0 0 1-3.87 2.278c.965 1.41 1.394 2.93 1.293 4.559-2.582-1.52-4.73-3.418-6.453-5.696 1.722-1.14 3.441-2.28 5.16-3.421Zm0 0"/><path style="stroke:none;fill-rule:evenodd;fill:#78bcbd;fill-opacity:1" d="M13.547 57.55h3.871a7.179 7.179 0 0 0 1.293 4.56c.02 2.35.45 4.632 1.289 6.835-2.844-.117-5.422-.879-7.742-2.277l-1.29-2.281c.102-1.63-.327-3.149-1.292-4.559a56.984 56.984 0 0 0 3.87-2.277Zm0 0"/><path style="stroke:none;fill-rule:evenodd;fill:#8f8f8f;fill-opacity:1" d="M8.387 7.406c7.21 6.942 15.383 12.828 24.515 17.664 10.403 3.266 20.297 7.446 29.68 12.535 16.566 6.176 33.77 10.352 51.613 12.536 8.016 4.586 16.618 5.914 25.805 3.992 1.863 1.777 4.016 3.297 6.453 4.558 3.895-.191 7.762 0 11.613.567 6.496 2.996 13.38 4.898 20.645 5.699 8.695-.383 16.867 1.137 24.516 4.559a737.99 737.99 0 0 0 30.968 2.277c1.43.73 2.934 1.297 4.516 1.71 3.64-1.448 7.297-1.448 10.965 0 2.582-1.14 5.164-2.276 7.742-3.417 4.016 3.34 8.316 6.57 12.906 9.687 7.266.2 14.363 1.149 21.29 2.848 2.866.121 5.23-.637 7.097-2.277h6.45a484.64 484.64 0 0 0 33.55 7.406 426.445 426.445 0 0 0 33.547 1.707c7.633 3.934 15.59 4.313 23.87 1.14 5.352 2.72 11.161 4.239 17.419 4.56 7.121 3.573 14 3.573 20.648 0 6.813 3.917 14.125 5.437 21.934 4.558h6.453a29.848 29.848 0 0 1 9.031 2.281 22.552 22.552 0 0 1 6.453-2.281 124.619 124.619 0 0 0 10.965 3.418 71.97 71.97 0 0 0 8.387-2.278c2.965 1.31 5.977 2.637 9.035 3.989 6.918.3 13.8.87 20.645 1.707a80.737 80.737 0 0 1 8.386-3.418 174.066 174.066 0 0 0 12.258 5.699 13.651 13.651 0 0 0 3.871-2.848c4.055.098 7.282 1.809 9.676 5.125 6.168-2.91 12.402-2.91 18.711 0l5.16-1.136c4.7 1.32 9.43 2.46 14.195 3.418v6.836c-9.753-3.012-19.648-4.532-29.68-4.559A52.146 52.146 0 0 0 560 119.09a296.557 296.557 0 0 1-7.098-5.7c-1.433 1.266-3.152 2.028-5.16 2.278a162.242 162.242 0 0 1-12.258-4.559c-2.152 1.141-4.3 2.282-6.453 3.422a273.702 273.702 0 0 1-32.258-5.699c-6.558 1.54-12.793.781-18.707-2.281-5.043 2.347-10.207 2.347-15.484 0-2.887-.332-5.465.047-7.742 1.14-7.07-.8-13.953-2.32-20.645-4.558-2.152.762-4.3 1.52-6.453 2.281a353.141 353.141 0 0 0-32.902-6.84 82.275 82.275 0 0 1-9.035 1.14 339.747 339.747 0 0 1-21.934-4.558c-9.683.625-19.363.246-29.031-1.14a318.951 318.951 0 0 1-30.969-6.836 89.22 89.22 0 0 1-16.773 1.14c-9.078-.05-17.684-1.761-25.809-5.129a42.317 42.317 0 0 1-4.516-5.129c-3.617 4.168-7.703 4.547-12.257 1.141a78.53 78.53 0 0 1-5.805 1.14 376.489 376.489 0 0 0-35.484-3.991c-7.696-3.325-15.868-4.844-24.516-4.559-7.672-.856-14.984-2.754-21.938-5.695a47.274 47.274 0 0 0-10.32-.57c-1.883.077-3.605-.305-5.164-1.141-2.848-3.43-6.504-4.188-10.965-2.278-10.933-4.105-22.332-6.574-34.195-7.41a453.444 453.444 0 0 0-34.84-10.254c-10.238-5.472-20.992-10.03-32.258-13.675-6.879-4.56-13.761-9.118-20.644-13.676-1.707-.93-2.567-2.258-2.582-3.989 2.27-1.199 3.129-3.097 2.582-5.699Zm0 0"/><path style="stroke:none;fill-rule:evenodd;fill:#906d62;fill-opacity:1" d="M36.773 59.828c1.262 3.176 1.692 6.594 1.293 10.258-1.652 1.629-3.804 2.39-6.453 2.277a106.555 106.555 0 0 0-1.289-10.254c2.453-.34 4.606-1.097 6.45-2.28Zm0 0"/><path style="stroke:none;fill-rule:evenodd;fill:#fdfdfd;fill-opacity:1" d="M146.453 65.527a47.274 47.274 0 0 1 10.32.57c6.954 2.942 14.266 4.84 21.938 5.696 8.648-.285 16.82 1.234 24.516 4.559a376.489 376.489 0 0 1 35.484 3.992 78.53 78.53 0 0 0 5.805-1.14c4.554 3.405 8.64 3.026 12.257-1.141a42.317 42.317 0 0 0 4.516 5.128c8.125 3.368 16.73 5.079 25.809 5.13-46.664 1.136-93.543 1.515-140.645 1.136v-23.93Zm0 0"/><path style="stroke:none;fill-rule:evenodd;fill:#b5b142;fill-opacity:1" d="M53.547 73.504c-2.211.148-4.363.527-6.45 1.14a390.275 390.275 0 0 0-10.968 7.977c-.996-.164-1.856-.543-2.582-1.14-.73-3.04-1.375-6.079-1.934-9.118 2.649.114 4.801-.648 6.453-2.277 3.891-2.238 8.192-2.809 12.903-1.711 1.98 1.266 2.843 2.977 2.578 5.129Zm0 0"/><path style="stroke:none;fill-rule:evenodd;fill:#906e65;fill-opacity:1" d="M53.547 73.504a29.678 29.678 0 0 1 1.293 10.258c-2.473-.325-4.621.054-6.453 1.136-1.262-3.175-1.692-6.593-1.29-10.253a29.907 29.907 0 0 1 6.45-1.141Zm0 0"/><path style="stroke:none;fill-rule:evenodd;fill:#e7e7e7;fill-opacity:1" d="M-.645 89.457h28.387c-2.297 1.336-3.586 3.234-3.87 5.7H-.646v-5.7Zm0 0"/><path style="stroke:none;fill-rule:evenodd;fill:#e6e6e6;fill-opacity:1" d="M141.29 64.387c1.558.836 3.28 1.218 5.163 1.14v23.93c47.102.379 93.98 0 140.645-1.137a89.22 89.22 0 0 0 16.773-1.14 318.951 318.951 0 0 0 30.969 6.836h-29.68v95.726c-2.148-1.52-4.3-1.52-6.45 0V95.156c-49.253-.379-98.284.004-147.097 1.14-1.707-.194-3.21.188-4.515 1.141-1.618 2.864-2.262 5.903-1.938 9.114-1.164 3.297-1.594 6.715-1.289 10.258l-2.582 5.699c-1.016-1.828-2.734-2.59-5.16-2.281.914-1.028 2.207-1.41 3.871-1.137V95.156c-16.574-.375-32.918.004-49.031 1.14h-1.293c-.649-1.804-1.938-2.374-3.871-1.71a56.883 56.883 0 0 0-10.965 8.547c-1.621-2.559-3.988-4.078-7.098-4.559a74.878 74.878 0 0 1-9.031 1.14 29.678 29.678 0 0 1-1.293-10.257h83.871v-25.07Zm0 0"/><path style="stroke:none;fill-rule:evenodd;fill:#e7e7e7;fill-opacity:1" d="M456.129-.57h6.453v90.027h136.773v5.7H462.582v4.558h-6.453v-5.7c-14.426-.37-28.617.008-42.582 1.141-6.258-.32-12.067-1.84-17.418-4.558-8.281 3.172-16.238 2.793-23.871-1.141h83.87V-.57Zm0 0"/><path style="stroke:none;fill-rule:evenodd;fill:#82c5d3;fill-opacity:1" d="M27.742 89.457a179.37 179.37 0 0 1 14.84 15.957c2.637 3.363 1.777 6.02-2.582 7.977a291.908 291.908 0 0 1-16.129-18.235c.285-2.465 1.574-4.363 3.871-5.699Zm0 0"/><path style="stroke:none;fill-rule:evenodd;fill:#b5b143;fill-opacity:1" d="m54.84 83.762 2.578 5.695c-.168 3.5.262 6.918 1.293 10.258v9.117c-2.727 1.672-5.09 1.293-7.098-1.14a620.874 620.874 0 0 1-3.226-22.794c1.832-1.082 3.98-1.46 6.453-1.136Zm0 0"/><path style="stroke:none;fill-rule:evenodd;fill:#fdfefd;fill-opacity:1" d="M-.645 51.852c1.063 2.632 2.786 4.914 5.16 6.84 1.723 2.277 3.872 4.175 6.454 5.695l1.289 2.281c.62 5.82 2.77 11.14 6.453 15.953 2.574-.555 4.297-1.883 5.16-3.988A45.366 45.366 0 0 1 20 68.945a18.783 18.783 0 0 0 6.453-.57c.629-2.516 1.922-4.605 3.871-6.266a106.555 106.555 0 0 1 1.29 10.254c.558 3.04 1.202 6.078 1.933 9.117.726.598 1.586.977 2.582 1.141 3.676-2.77 7.332-5.43 10.969-7.976-.403 3.66.027 7.078 1.289 10.253a620.874 620.874 0 0 0 3.226 22.793c2.008 2.434 4.371 2.813 7.098 1.141 2.004-2.148 4.582-3.289 7.742-3.418 1.77 2.7 4.352 4.598 7.742 5.695 4.746-3.054 9.477-6.093 14.192-9.113 2.152 1.137 3.87 2.656 5.16 4.555 3.402 5.414 7.273 5.797 11.613 1.14a10.897 10.897 0 0 0 3.871 3.418c.867 3.426 3.016 4.184 6.453 2.282a429.25 429.25 0 0 1 7.743 21.652 74.694 74.694 0 0 0 3.87 10.258c.38 3.582 2.532 4.914 6.45 3.988 2.398-4.094 3.902-8.46 4.52-13.105 1.687-.743 2.761.015 3.222 2.277v47.863c-.012 1.73-.871 3.059-2.578 3.988a5.564 5.564 0 0 0 2.578 1.711v3.418H-.645V95.156h24.516A291.908 291.908 0 0 0 40 113.391c4.36-1.957 5.219-4.614 2.582-7.977a179.37 179.37 0 0 0-14.84-15.957H-.645V51.852Zm0 0"/><path style="stroke:none;fill-rule:evenodd;fill:#7ec4d3;fill-opacity:1" d="M12.258 66.668c2.32 1.398 4.898 2.16 7.742 2.277a45.366 45.366 0 0 0 3.871 9.688c-.863 2.105-2.586 3.433-5.16 3.988-3.684-4.812-5.832-10.133-6.453-15.953Zm0 0"/><path style="stroke:none;fill-rule:evenodd;fill:#b5b140;fill-opacity:1" d="M89.676 96.297c-3.317 1.121-3.317 2.45 0 3.988-.715.438-1.145 1.004-1.29 1.711-4.714 3.02-9.445 6.059-14.19 9.113-3.391-1.097-5.973-2.996-7.743-5.695-.144-.703-.574-1.273-1.293-1.71 1.985-1.266 2.844-2.974 2.582-5.13 3.11.48 5.477 2 7.098 4.559a56.883 56.883 0 0 1 10.965-8.547c1.933-.664 3.222-.094 3.87 1.71Zm0 0"/><path style="stroke:none;fill-rule:evenodd;fill:#fefdfd;fill-opacity:1" d="M90.969 96.297c16.113-1.137 32.457-1.516 49.031-1.14v23.933c-1.664-.274-2.957.11-3.871 1.137-2.07.898-2.93 2.418-2.582 4.558-1.633 2.742-2.496 5.781-2.578 9.117h-1.293a165.218 165.218 0 0 0-6.45-23.93c-.585-5.359-3.597-6.878-9.03-4.558a67.075 67.075 0 0 1-5.165-7.41c-4.367-1-7.379.328-9.031 3.992-2.652-2.344-5.664-4.242-9.031-5.7Zm0 0"/><path style="stroke:none;fill-rule:evenodd;fill:#fefefe;fill-opacity:1" d="M151.613 96.297a4748.779 4748.779 0 0 1 147.098-1.14v94.585c-1.149 2.91-1.578 5.953-1.293 9.117a57.032 57.032 0 0 1-3.223 4.559 48.75 48.75 0 0 0-8.39-15.953c-2.078-1.809-4.66-2.95-7.739-3.418a171.247 171.247 0 0 0-3.226-11.399c-1.184-3.941-3.766-5.082-7.742-3.418a26.635 26.635 0 0 0-2.582 9.118 230.805 230.805 0 0 0-1.934-17.094c.246-3.996-.613-7.797-2.582-11.395-3.629-1.39-5.781-.25-6.453 3.418a47.168 47.168 0 0 0-1.934 9.118 2.96 2.96 0 0 1-1.937 1.136c.508-3.906-.352-7.515-2.578-10.824-3.922-.926-6.075.402-6.453 3.988a160.415 160.415 0 0 1-3.872 15.953c-2.433-2.335-5.015-2.718-7.742-1.136-1.164-.809-1.594-1.95-1.289-3.422a124.408 124.408 0 0 0-2.582-25.07 42.107 42.107 0 0 0-1.289-10.258c.719-6.899-2.078-8.418-8.387-4.555a110.577 110.577 0 0 1-2.582 10.254c-.785-4.512-3.578-6.223-8.386-5.129-2.598 5.219-3.891 10.727-3.871 16.527-1.262 3.176-1.692 6.594-1.29 10.254a49.557 49.557 0 0 0-2.582 3.418 50.844 50.844 0 0 0-2.578-3.418c-.289-4.172-1.578-7.972-3.87-11.394-1.259-4.696-3.41-9.063-6.454-13.106-6.723-1.258-11.457.828-14.195 6.266a180.297 180.297 0 0 1-3.223-9.117c-2.582-3.04-5.164-3.04-7.742 0-.258-2.145-.902-4.043-1.938-5.696.403-3.664-.027-7.082-1.289-10.257.215-4.954 0-9.891-.644-14.813-.13-2.453-1.203-4.355-3.227-5.7ZM334.84 94.016a140.308 140.308 0 0 0 29.031 1.14 339.747 339.747 0 0 0 21.934 4.559c3.039-.215 6.05-.594 9.035-1.14a353.141 353.141 0 0 1 32.902 6.84c2.153-.763 4.301-1.52 6.453-2.282a100.584 100.584 0 0 0 20.645 4.558 1495.94 1495.94 0 0 1 1.289 87.75H350.324c.758-5.71-1.82-7.609-7.742-5.699-.965 1.41-1.394 2.93-1.293 4.559v1.14h-29.676c-.984-2.007-2.703-3.148-5.16-3.418-.43-.761-.863-1.52-1.293-2.28V94.015h29.68Zm0 0"/><path style="stroke:none;fill-rule:evenodd;fill:#f6f6f6;fill-opacity:1" d="M413.547 95.156c13.965-1.133 28.156-1.511 42.582-1.14v5.699c-7.809.879-15.121-.64-21.934-4.559-6.648 3.574-13.527 3.574-20.648 0Zm0 0"/><path style="stroke:none;fill-rule:evenodd;fill:#fdfdfd;fill-opacity:1" d="M599.355 95.156v18.235a192.791 192.791 0 0 1-14.195-3.418l-5.16 1.136c-6.309-2.91-12.543-2.91-18.71 0-2.395-3.316-5.622-5.027-9.677-5.125a13.651 13.651 0 0 1-3.87 2.848 174.066 174.066 0 0 1-12.259-5.7 80.737 80.737 0 0 0-8.386 3.419 265.253 265.253 0 0 0-20.645-1.707c-3.058-1.352-6.07-2.68-9.035-3.989a71.97 71.97 0 0 1-8.387 2.278 124.619 124.619 0 0 1-10.965-3.418c-2.289.441-4.441 1.2-6.453 2.281a29.848 29.848 0 0 0-9.031-2.281v-4.559h136.773Zm0 0"/><path style="stroke:none;fill-rule:evenodd;fill:#916f64;fill-opacity:1" d="M89.676 96.297h1.293c3.367 1.457 6.379 3.355 9.031 5.7-2.117 1.483-4.27 3.003-6.453 4.554-1.29-1.899-3.008-3.418-5.16-4.555.144-.707.574-1.273 1.289-1.71-3.317-1.54-3.317-2.868 0-3.99Zm0 0"/><path style="stroke:none;fill-rule:evenodd;fill:#b5b141;fill-opacity:1" d="M114.195 105.414c.282 1.34-.148 2.477-1.293 3.418-1.597.504-2.886 1.266-3.87 2.277a10.897 10.897 0 0 1-3.872-3.418c-4.34 4.657-8.21 4.274-11.613-1.14 2.183-1.551 4.336-3.07 6.453-4.555 1.652-3.664 4.664-4.992 9.031-3.992a67.075 67.075 0 0 0 5.164 7.41Zm0 0"/><path style="stroke:none;fill-rule:evenodd;fill:#8f6d61;fill-opacity:1" d="M67.742 98.574c.262 2.156-.597 3.864-2.582 5.13.719.437 1.149 1.007 1.293 1.71-3.16.129-5.738 1.27-7.742 3.418v-9.117c3.047-.2 6.055-.578 9.031-1.14Zm0 0"/><path style="stroke:none;fill-rule:evenodd;fill:#947368;fill-opacity:1" d="M123.227 109.973c-3.735-.535-6.317.605-7.743 3.418-3.437 1.902-5.586 1.144-6.453-2.282.985-1.011 2.274-1.773 3.871-2.277 1.145-.941 1.575-2.078 1.293-3.418 5.434-2.32 8.446-.8 9.032 4.559Zm0 0"/><path style="stroke:none;fill-rule:evenodd;fill:#e7e7e7;fill-opacity:1" d="M454.84 107.691c2.277-1.093 4.855-1.472 7.742-1.14v88.89h136.773v5.7H462.582v69.515c-1.992-.914-4.14-1.293-6.453-1.14a50.117 50.117 0 0 0-1.29-12.536 605.024 605.024 0 0 0 1.29-55.84H351.613a21.352 21.352 0 0 0-1.289-5.699H456.13a1495.94 1495.94 0 0 0-1.29-87.75Zm0 0"/><path style="stroke:none;fill-rule:evenodd;fill:#fefefe;fill-opacity:1" d="M462.582 106.55c5.277 2.348 10.441 2.348 15.484 0 5.914 3.063 12.149 3.821 18.707 2.282a273.702 273.702 0 0 0 32.258 5.7l6.453-3.423c4.016 1.684 8.106 3.2 12.258 4.559 2.008-.25 3.727-1.012 5.16-2.277A296.557 296.557 0 0 0 560 119.09a52.146 52.146 0 0 1 9.676-3.422c10.031.027 19.926 1.547 29.68 4.559v75.214H462.581v-88.89Zm0 0"/><path style="stroke:none;fill-rule:evenodd;fill:#90705e;fill-opacity:1" d="M145.16 106.55c2.508 2.817 3.797 6.24 3.871 10.259h-5.16c-.305-3.543.125-6.961 1.29-10.258Zm0 0"/><path style="stroke:none;fill-rule:evenodd;fill:#b6b144;fill-opacity:1" d="M123.227 109.973c2.75 7.824 4.902 15.8 6.449 23.93-2.211.148-4.363.527-6.45 1.14a429.25 429.25 0 0 0-7.742-21.652c1.426-2.813 4.008-3.954 7.743-3.418Zm0 0"/><path style="stroke:none;fill-rule:evenodd;fill:#b5b042;fill-opacity:1" d="M151.613 96.297c2.024 1.344 3.098 3.246 3.227 5.7.644 4.921.86 9.858.644 14.812h-5.16v6.84a393.761 393.761 0 0 1-3.87 14.812c-1.724 1.52-3.442 1.52-5.165 0-.46-2.262-1.535-3.02-3.223-2.277-.617 4.644-2.12 9.011-4.52 13.105-3.917.926-6.07-.406-6.448-3.988a1000.02 1000.02 0 0 0 3.87-11.399c.083-3.336.946-6.375 2.579-9.117 5-.71 7.367 1.188 7.098 5.7.64-2.633.855-5.294.644-7.977.863-1.903 1.723-3.801 2.582-5.7h5.16c-.074-4.019-1.363-7.44-3.87-10.257-.325-3.211.32-6.25 1.937-9.114 1.304-.953 2.808-1.335 4.515-1.14Zm0 0"/><path style="stroke:none;fill-rule:evenodd;fill:#8d6a5f;fill-opacity:1" d="M155.484 116.809c1.262 3.175 1.692 6.593 1.29 10.257h-6.45v-10.258h5.16Zm0 0"/><path style="stroke:none;fill-rule:evenodd;fill:#85c7d5;fill-opacity:1" d="M50.969 117.95a7.088 7.088 0 0 1 3.87.57l18.063 15.953c-2.21 3.851-5.222 4.609-9.03 2.28-5.423-4.41-10.368-9.155-14.84-14.245-.387-1.785.257-3.305 1.937-4.559Zm0 0"/><path style="stroke:none;fill-rule:evenodd;fill:#8f6c60;fill-opacity:1" d="M136.129 120.227c2.426-.309 4.144.453 5.16 2.28a25.189 25.189 0 0 1-.644 7.977c.27-4.511-2.098-6.41-7.098-5.699-.348-2.14.512-3.66 2.582-4.558Zm0 0"/><path style="stroke:none;fill-rule:evenodd;fill:#b6b142;fill-opacity:1" d="M223.871 132.762c-2.652 2.86-3.941 6.277-3.871 10.258h5.16a124.408 124.408 0 0 1 2.582 25.07h-6.453a169.11 169.11 0 0 0-3.871-18.23c-4.309.745-6.89-.774-7.742-4.56-1.196 1.352-1.625 2.872-1.29 4.56h-7.741c-.02-5.801 1.273-11.31 3.87-16.528 4.81-1.094 7.602.617 8.387 5.129a110.577 110.577 0 0 0 2.582-10.254c6.309-3.863 9.106-2.344 8.387 4.555Zm0 0"/><path style="stroke:none;fill-rule:evenodd;fill:#fcfcfb;fill-opacity:1" d="M150.324 123.648v3.418a128.069 128.069 0 0 0 3.223 23.93c3.95 1.672 6.312.531 7.098-3.418h2.582c.23 3.094.875 6.133 1.933 9.117 2.543 2.989 4.906 2.989 7.098 0a74.818 74.818 0 0 0 3.87-10.257 51.16 51.16 0 0 0 2.583-3.418c2.098 2.582 3.82 5.242 5.16 7.976a98.348 98.348 0 0 1 3.871 10.258c.934 3.809 2.008 7.61 3.227 11.394 9.793 1.43 14.738-2.367 14.836-11.394-.125-3.617.734-7.035 2.582-10.258.976 4.195 3.558 5.332 7.742 3.418.96-1.406 1.39-2.926 1.289-4.555a169.11 169.11 0 0 1 3.871 18.23c-.398 3.665.031 7.083 1.293 10.259.55 6.554 3.348 7.316 8.387 2.277a41.995 41.995 0 0 0 3.226 5.7c-.007 3.988 2.145 5.698 6.45 5.128 1.925-2.988 2.785-6.215 2.582-9.687.988-.868 1.636-2.008 1.933-3.418a72.086 72.086 0 0 1 1.938 10.257c2.578 4.56 5.16 4.56 7.742 0v-4.558c1.031-1.758 1.46-3.656 1.289-5.7 1.25 2.403 1.68 5.063 1.289 7.977v9.117h-95.484c-5.614-2.476-10.774-5.515-15.48-9.117v-47.863a393.761 393.761 0 0 0 3.87-14.813Zm0 0"/><path style="stroke:none;fill-rule:evenodd;fill:#b6b142;fill-opacity:1" d="M150.324 127.066h6.45c1.035 1.653 1.68 3.551 1.937 5.696 2.578-3.04 5.16-3.04 7.742 0a180.297 180.297 0 0 0 3.223 9.117c2.738-5.438 7.472-7.524 14.195-6.266 3.043 4.043 5.195 8.41 6.453 13.106-1.847 1.18-3.996 1.941-6.453 2.277-1.34-2.734-3.062-5.394-5.16-7.976a51.16 51.16 0 0 1-2.582 3.417 7.826 7.826 0 0 1-3.871-1.136c-1.328 2.21-1.328 4.488 0 6.836-.04 1.742-.899 3.074-2.582 3.988.77.527 1.629.719 2.582.57-2.192 2.989-4.555 2.989-7.098 0a34.922 34.922 0 0 1-1.933-9.117 38.171 38.171 0 0 0-3.227-9.117c-.93 3.148-.715 6.184.645 9.117-.786 3.95-3.149 5.09-7.098 3.418a128.069 128.069 0 0 1-3.223-23.93Zm0 0"/><path style="stroke:none;fill-rule:evenodd;fill:#957665;fill-opacity:1" d="M223.871 132.762a42.107 42.107 0 0 1 1.29 10.258H220c-.07-3.98 1.219-7.399 3.871-10.258Zm0 0"/><path style="stroke:none;fill-rule:evenodd;fill:#8f6e5f;fill-opacity:1" d="M129.676 133.902h1.293a1000.02 1000.02 0 0 1-3.871 11.399 74.694 74.694 0 0 1-3.871-10.258 29.907 29.907 0 0 1 6.449-1.14Zm0 0"/><path style="stroke:none;fill-rule:evenodd;fill:#e5e5e5;fill-opacity:1" d="M141.29 138.46c1.722 1.52 3.44 1.52 5.163 0v47.864c-1.723-1.52-3.441-1.52-5.164 0v-47.863Zm0 0"/><path style="stroke:none;fill-rule:evenodd;fill:#81c5d4;fill-opacity:1" d="M80.645 141.879c8.585 3.586 15.898 8.71 21.937 15.387a24.961 24.961 0 0 1-5.164 3.988c-6.91-4.973-13.793-9.91-20.645-14.816a470.573 470.573 0 0 0 3.872-4.56Zm0 0"/><path style="stroke:none;fill-rule:evenodd;fill:#9e8563;fill-opacity:1" d="M163.227 147.578h-2.582c-1.36-2.933-1.575-5.969-.645-9.117a38.171 38.171 0 0 1 3.227 9.117Zm0 0"/><path style="stroke:none;fill-rule:evenodd;fill:#906f5d;fill-opacity:1" d="M176.129 146.438a74.818 74.818 0 0 1-3.871 10.257c-.953.149-1.813-.043-2.582-.57 1.683-.914 2.543-2.246 2.582-3.988-1.328-2.348-1.328-4.625 0-6.836a7.826 7.826 0 0 0 3.87 1.137Zm0 0"/><path style="stroke:none;fill-rule:evenodd;fill:#906e63;fill-opacity:1" d="M190.324 148.719c2.293 3.422 3.582 7.222 3.871 11.394-2.312-.152-4.465.227-6.453 1.14a98.348 98.348 0 0 0-3.87-10.257c2.456-.336 4.605-1.098 6.452-2.277Zm0 0"/><path style="stroke:none;fill-rule:evenodd;fill:#906f61;fill-opacity:1" d="M217.418 149.86c.102 1.628-.328 3.148-1.29 4.554-4.183 1.914-6.765.777-7.741-3.418-1.848 3.223-2.707 6.64-2.582 10.258a29.907 29.907 0 0 1-6.45-1.14c-.402-3.66.028-7.079 1.29-10.255h7.742c-.336-1.687.093-3.207 1.289-4.558.851 3.785 3.433 5.304 7.742 4.558Zm0 0"/><path style="stroke:none;fill-rule:evenodd;fill:#997a6c;fill-opacity:1" d="M262.582 161.254c-2.379-2.027-3.238-4.688-2.582-7.977h-6.453c.672-3.668 2.824-4.808 6.453-3.418 1.969 3.598 2.828 7.399 2.582 11.395Zm0 0"/><path style="stroke:none;fill-rule:evenodd;fill:#94736a;fill-opacity:1" d="M249.676 163.531c-.953.153-1.813-.039-2.578-.566 1.168-1.938 1.597-4.028 1.289-6.27h-7.742c.378-3.586 2.53-4.914 6.453-3.988 2.226 3.309 3.086 6.918 2.578 10.824Zm0 0"/><path style="stroke:none;fill-rule:evenodd;fill:#b5b141;fill-opacity:1" d="M253.547 153.277H260c-.656 3.29.203 5.95 2.582 7.977.856 5.66 1.5 11.36 1.934 17.094a26.635 26.635 0 0 1 2.582-9.118c3.976-1.664 6.558-.523 7.742 3.418 1.215 3.79 2.289 7.586 3.226 11.399-4.597 3.52-7.609 2.57-9.035-2.852-1.222-.55-2.511-.738-3.87-.57v5.7h-7.743c.39-2.915-.04-5.575-1.29-7.977-1.483.332-2.343 1.28-2.581 2.847.039 1.22.469 2.172 1.293 2.852v4.558h-7.742a72.086 72.086 0 0 0-1.938-10.257c-.297 1.41-.945 2.55-1.933 3.418-1.754.578-3.043 1.718-3.872 3.418-1.593.851-3.316 1.23-5.16 1.14a41.995 41.995 0 0 1-3.226-5.699c-5.04 5.04-7.836 4.277-8.387-2.277 2.11-2.25 4.262-4.532 6.45-6.836 2.726-1.582 5.308-1.2 7.741 1.136a160.415 160.415 0 0 0 3.872-15.953h7.742c.308 2.243-.121 4.332-1.29 6.27.766.527 1.626.719 2.579.566a2.96 2.96 0 0 0 1.937-1.136c.352-3.141.996-6.18 1.934-9.118Zm0 0"/><path style="stroke:none;fill-rule:evenodd;fill:#b6b141;fill-opacity:1" d="M194.195 160.113a50.844 50.844 0 0 1 2.578 3.418 49.557 49.557 0 0 1 2.582-3.418c2.086.614 4.239.992 6.45 1.14-.098 9.028-5.043 12.825-14.836 11.395a166.561 166.561 0 0 1-3.227-11.394c1.988-.914 4.14-1.293 6.453-1.14Zm0 0"/><path style="stroke:none;fill-rule:evenodd;fill:#83c6d4;fill-opacity:1" d="M111.613 163.531a8020.945 8020.945 0 0 0 21.934 15.387 42.317 42.317 0 0 0-4.516 5.129 205.325 205.325 0 0 1-21.289-15.387 23.887 23.887 0 0 1 3.871-5.129Zm0 0"/><path style="stroke:none;fill-rule:evenodd;fill:#8f6d61;fill-opacity:1" d="M221.29 168.09h6.452c-.304 1.472.125 2.613 1.29 3.422-2.188 2.304-4.34 4.586-6.45 6.836-1.262-3.176-1.691-6.594-1.293-10.258Zm0 0"/><path style="stroke:none;fill-rule:evenodd;fill:#8f6d5d;fill-opacity:1" d="M256.129 178.348c.172 2.043-.258 3.941-1.29 5.699-.823-.68-1.253-1.633-1.292-2.852.238-1.566 1.098-2.515 2.582-2.847Zm0 0"/><path style="stroke:none;fill-rule:evenodd;fill:#916f63;fill-opacity:1" d="M243.227 181.766c.203 3.472-.657 6.699-2.582 9.687-4.305.57-6.458-1.14-6.45-5.129 1.844.09 3.567-.289 5.16-1.14.829-1.7 2.118-2.84 3.872-3.418Zm0 0"/><path style="stroke:none;fill-rule:evenodd;fill:#906f61;fill-opacity:1" d="M278.066 184.047c3.079.469 5.66 1.61 7.739 3.418-.98 1.015-2.27 1.773-3.871 2.277-1.141.942-1.57 2.082-1.29 3.422a18.848 18.848 0 0 1-6.449-.57 22.773 22.773 0 0 0-3.226-5.13c-.625 1.079-.84 2.22-.645 3.419h-7.742v5.699h-3.871v-10.258h6.45v-5.699c1.359-.168 2.648.02 3.87.57 1.426 5.422 4.438 6.371 9.035 2.852Zm0 0"/><path style="stroke:none;fill-rule:evenodd;fill:#95746b;fill-opacity:1" d="M247.098 188.605h7.742c-2.582 4.56-5.164 4.56-7.742 0Zm0 0"/><path style="stroke:none;fill-rule:evenodd;fill:#8d6b5f;fill-opacity:1" d="M305.16 189.742c.43.762.863 1.52 1.293 2.281-2.976 1.801-3.836 4.079-2.582 6.836V200c-2.312.152-4.46-.227-6.453-1.14-.285-3.165.144-6.208 1.293-9.118 2.148-1.52 4.3-1.52 6.45 0Zm0 0"/><path style="stroke:none;fill-rule:evenodd;fill:#7fc3d2;fill-opacity:1" d="M146.453 186.324c4.707 3.602 9.867 6.64 15.48 9.117.946 1.383 2.235 2.52 3.872 3.418a54.48 54.48 0 0 0-1.29 2.282c-.472 1.359-1.546 2.12-3.226 2.277a59.58 59.58 0 0 0-7.094-3.418 2732.348 2732.348 0 0 0-12.906-7.977 5.564 5.564 0 0 1-2.578-1.71c1.707-.93 2.566-2.258 2.578-3.989 1.723-1.52 3.441-1.52 5.164 0Zm0 0"/><path style="stroke:none;fill-rule:evenodd;fill:#e7e7e7;fill-opacity:1" d="M257.418 186.324h1.293v14.817h-94.195c.394-.743.824-1.5 1.289-2.282-1.637-.898-2.926-2.035-3.871-3.418h95.484v-9.117Zm0 0"/><path style="stroke:none;fill-rule:evenodd;fill:#e6e6e5;fill-opacity:1" d="M311.613 195.441h29.676c-.55 2.86-1.41 5.52-2.578 7.977-3.559-1.5-7.645-2.262-12.258-2.277-4.328 0-8.41.379-12.258 1.136a45.603 45.603 0 0 1-2.582-6.836Zm0 0"/><path style="stroke:none;fill-rule:evenodd;fill:#f2f2f2;fill-opacity:1" d="M-.645 201.14V200H141.29c.43 34.004 0 67.813-1.289 101.426V201.14H-.645Zm0 0"/><path style="stroke:none;fill-rule:evenodd;fill:#b6b244;fill-opacity:1" d="M270.324 190.883a239.629 239.629 0 0 1-3.226 17.094c-1.793 1.203-3.727 1.39-5.809.57a125.08 125.08 0 0 1-2.578-7.406v-4.559h3.871v-5.7h7.742Zm0 0"/><path style="stroke:none;fill-rule:evenodd;fill:#b5b142;fill-opacity:1" d="M285.805 187.465a48.75 48.75 0 0 1 8.39 15.953 57.032 57.032 0 0 0 3.223-4.559c1.992.914 4.14 1.293 6.453 1.141-1.351 9.012-3.5 17.75-6.453 26.21-2.559.392-4.277-.37-5.16-2.28a45.523 45.523 0 0 1 1.289-11.395h-5.16c-1.047-6.953-3.63-13.41-7.742-19.37-.282-1.34.148-2.481 1.289-3.423 1.601-.504 2.89-1.262 3.87-2.277Zm0 0"/><path style="stroke:none;fill-rule:evenodd;fill:#b6b243;fill-opacity:1" d="M306.453 192.023c2.457.27 4.176 1.41 5.16 3.418a45.603 45.603 0 0 0 2.582 6.836c-.218 5.739 1.07 5.926 3.871.57 1.72-.757 3.438-.757 5.16 0 3.848 3.962 6.86 8.329 9.032 13.106-2.301.45-4.453 1.207-6.453 2.281a211.024 211.024 0 0 1-3.871-4.558 50.845 50.845 0 0 1-2.579 3.418c-2.957-1.352-5.968-1.352-9.03 0-2.25-3.414-3.54-7.211-3.872-11.395a46.081 46.081 0 0 0-2.582-6.84c-1.254-2.757-.394-5.035 2.582-6.836Zm0 0"/><path style="stroke:none;fill-rule:evenodd;fill:#8f6e60;fill-opacity:1" d="M341.29 194.3c1.823 3.102 2.683 6.52 2.581 10.259h-5.16v-1.141c1.168-2.457 2.027-5.117 2.578-7.977v-1.14Zm0 0"/><path style="stroke:none;fill-rule:evenodd;fill:#b6b243;fill-opacity:1" d="M350.324 195.441a21.352 21.352 0 0 1 1.29 5.7 77.614 77.614 0 0 0 1.288 11.394c-3.332-.539-5.91.219-7.742 2.281-1.422 6.043-4.86 11.172-10.32 15.383-3.156 1.04-4.875.086-5.164-2.847 2.773.125 3.203-.633 1.293-2.282.98-2.117 2.27-4.02 3.87-5.695a233.57 233.57 0 0 0 3.872-14.816h5.16c.102-3.739-.758-7.157-2.582-10.258-.101-1.63.328-3.149 1.293-4.559 5.922-1.91 8.5-.012 7.742 5.7Zm0 0"/><path style="stroke:none;fill-rule:evenodd;fill:#fefefe;fill-opacity:1" d="M-.645 201.14H140v100.286H-.645V201.14ZM280.645 193.164c4.113 5.961 6.695 12.418 7.742 19.371 1.304 3.903 2.593 7.7 3.87 11.395.884 1.91 2.602 2.672 5.161 2.28a1096.13 1096.13 0 0 1 1.293 75.216H146.453V200h7.742a59.58 59.58 0 0 1 7.094 3.418c1.68-.156 2.754-.918 3.227-2.277h94.195a125.08 125.08 0 0 0 2.578 7.406c2.082.82 4.016.633 5.809-.57a239.629 239.629 0 0 0 3.226-17.094c-.195-1.2.02-2.34.645-3.418a22.773 22.773 0 0 1 3.226 5.129c2.106.562 4.258.75 6.45.57Zm0 0"/><path style="stroke:none;fill-rule:evenodd;fill:#fdfdfc;fill-opacity:1" d="M338.71 203.418v1.14a233.57 233.57 0 0 1-3.87 14.817 8.096 8.096 0 0 1-2.582-3.422c-2.172-4.777-5.184-9.144-9.031-13.105-1.723-.758-3.442-.758-5.16 0-2.801 5.355-4.09 5.168-3.872-.57 3.848-.758 7.93-1.137 12.258-1.137 4.613.015 8.7.777 12.258 2.277Zm0 0"/><path style="stroke:none;fill-rule:evenodd;fill:#fdfdfd;fill-opacity:1" d="M351.613 201.14H456.13a605.024 605.024 0 0 1-1.29 55.84 1732.11 1732.11 0 0 0-4.515-41.027c-1.804-2.308-3.953-2.687-6.453-1.137a5538.357 5538.357 0 0 0-5.805 39.883c-2.207-2.496-4.785-2.875-7.742-1.137a39.41 39.41 0 0 0-2.582-2.28c-.055-5.567-3.066-8.036-9.031-7.407a113.232 113.232 0 0 0-5.809 9.688 24.717 24.717 0 0 1-4.515 2.277c-.86.379-1.719.762-2.582 1.14a364.646 364.646 0 0 0-3.871-22.793A56.569 56.569 0 0 1 400 223.93c-3.3-3.258-5.664-2.88-7.098 1.14a125.947 125.947 0 0 1-4.515 12.535c-.88-2.292-2.598-3.812-5.16-4.558-3.247.703-6.258 1.844-9.032 3.422a319.463 319.463 0 0 0-5.808-21.653c-.035-3.242-1.758-4.57-5.16-3.988-2.762 3.324-4.91 6.934-6.454 10.824-.992 3.227-1.855 3.606-2.578 1.141a106.49 106.49 0 0 0-1.293-10.258 77.614 77.614 0 0 1-1.289-11.394Zm0 0"/><path style="stroke:none;fill-rule:evenodd;fill:#fefefe;fill-opacity:1" d="M599.355 201.14v100.286H545.16a3006.987 3006.987 0 0 1-5.805-33.051c-1.906-3.98-4.488-4.36-7.742-1.137a818.85 818.85 0 0 1-6.453 31.907c-1.351-1.16-2.86-1.348-4.515-.57a87.315 87.315 0 0 1-6.45 7.41c-2.55-18.094-5.129-36.137-7.742-54.133-2.082-.82-4.015-.633-5.808.57a480.389 480.389 0 0 0-7.743 27.351c-2.625 3.883-5.847 7.301-9.675 10.254-3.012-1.898-5.59-4.18-7.743-6.836-2.82-.82-5.617-1.582-8.386-2.28a158.987 158.987 0 0 1-4.516-10.255v-69.515h136.773Zm0 0"/><path style="stroke:none;fill-rule:evenodd;fill:#fdfdfd;fill-opacity:1" d="M306.453 205.7c.332 4.183 1.621 7.98 3.871 11.394 2.395 10.558 5.406 10.558 9.031 0a50.845 50.845 0 0 0 2.579-3.418c1.32 1.597 2.609 3.117 3.87 4.558a30.774 30.774 0 0 0 3.872 9.118c.289 2.933 2.008 3.886 5.164 2.847 5.46-4.21 8.898-9.34 10.32-15.383a52.463 52.463 0 0 1 1.293 7.977c.281 17.621 5.656 19.14 16.129 4.559a32.92 32.92 0 0 1 3.223 11.394 32.706 32.706 0 0 1 1.937 6.84c4.102 3.129 7.328 2.367 9.676-2.281a8.984 8.984 0 0 0 3.227-2.278 62.53 62.53 0 0 1 4.515 11.395c.207 3.078 1.711 5.355 4.516 6.836 3.523-1.656 5.027-4.317 4.52-7.977 1.019-1.261 1.663-2.781 1.933-4.558.789 3.793 1.433 7.593 1.937 11.398-.742 3.55.766 5.828 4.516 6.836 3.543-.719 6.77-1.86 9.676-3.418 4.672-.715 7.683-2.996 9.031-6.84a21.162 21.162 0 0 1 3.871 6.27c2.504.847 4.871.656 7.098-.57 1.71 3 3.433 6.038 5.16 9.117 2.61 1.699 4.762 1.32 6.453-1.141 1.07-5.29 1.93-10.61 2.582-15.953a306.279 306.279 0 0 1 2.578 22.793c1.864 1.887 4.23 2.644 7.098 2.277v23.934h-20.645v-4.559c-2.882-.336-5.464.043-7.742 1.137-1.168.808-1.597 1.95-1.289 3.422h-64.52A377.328 377.328 0 0 0 340 291.168c-3.762 4.004-2.902 7.043 2.582 9.117-12.242 1.133-24.715 1.512-37.422 1.14v-19.374a3362.282 3362.282 0 0 0 19.356 9.117c5.082-2.734 5.082-5.582 0-8.547-6.829-2.254-13.278-5.105-19.356-8.547a905.578 905.578 0 0 1 1.293-68.375Zm0 0"/><path style="stroke:none;fill-rule:evenodd;fill:#927065;fill-opacity:1" d="M352.902 212.535a106.49 106.49 0 0 1 1.293 10.258h-7.742a52.463 52.463 0 0 0-1.293-7.977c1.832-2.062 4.41-2.82 7.742-2.28Zm0 0"/><path style="stroke:none;fill-rule:evenodd;fill:#8f6d62;fill-opacity:1" d="M319.355 217.094c-3.625 10.558-6.636 10.558-9.03 0 3.062-1.352 6.073-1.352 9.03 0Zm0 0"/><path style="stroke:none;fill-rule:evenodd;fill:#906e61;fill-opacity:1" d="M332.258 215.953a8.096 8.096 0 0 0 2.582 3.422 20.893 20.893 0 0 0-3.871 5.695c1.91 1.649 1.48 2.407-1.293 2.282a30.774 30.774 0 0 1-3.871-9.118c2-1.074 4.152-1.832 6.453-2.28Zm0 0"/><path style="stroke:none;fill-rule:evenodd;fill:#957564;fill-opacity:1" d="M368.387 214.816h-6.453a16.231 16.231 0 0 0 1.293 7.407c-.43.57-.864 1.14-1.293 1.707-1.754-.774-3.473-1.532-5.16-2.278 1.542-3.89 3.69-7.5 6.453-10.824 3.402-.582 5.125.746 5.16 3.988Zm0 0"/><path style="stroke:none;fill-rule:evenodd;fill:#937360;fill-opacity:1" d="M401.934 234.188h-3.868a52.05 52.05 0 0 1 1.29-7.977c-2.473.324-4.622-.055-6.454-1.14 1.434-4.02 3.797-4.4 7.098-1.141.336 3.52.98 6.937 1.934 10.257Zm0 0"/><path style="stroke:none;fill-rule:evenodd;fill:#b6b142;fill-opacity:1" d="M368.387 214.816a319.463 319.463 0 0 1 5.808 21.653c2.774-1.578 5.785-2.719 9.032-3.422 2.562.746 4.28 2.266 5.16 4.558a125.947 125.947 0 0 0 4.515-12.535c1.832 1.086 3.98 1.465 6.453 1.14a52.05 52.05 0 0 0-1.289 7.977h3.868a364.646 364.646 0 0 1 3.87 22.793c-2.277 1.094-4.855 1.477-7.738 1.141a157.457 157.457 0 0 0-1.937-11.398c-.27 1.777-.914 3.297-1.934 4.558-3.164-.23-6.172.149-9.035 1.14a62.53 62.53 0 0 0-4.515-11.394 8.984 8.984 0 0 1-3.227 2.278 24.548 24.548 0 0 1-5.16-3.989 18.774 18.774 0 0 0-6.453-.57 32.92 32.92 0 0 0-3.223-11.394c-10.473 14.582-15.848 13.062-16.129-4.559h7.742c.723 2.465 1.586 2.086 2.578-1.14l5.16 2.277c.43-.567.864-1.137 1.294-1.707a16.231 16.231 0 0 1-1.293-7.407h6.453Zm0 0"/><path style="stroke:none;fill-rule:evenodd;fill:#906e64;fill-opacity:1" d="M365.805 238.746a18.774 18.774 0 0 1 6.453.57 24.548 24.548 0 0 0 5.16 3.989c-2.348 4.648-5.574 5.41-9.676 2.28a32.706 32.706 0 0 0-1.937-6.839Zm0 0"/><path style="stroke:none;fill-rule:evenodd;fill:#b5b141;fill-opacity:1" d="M427.742 251.281c-2.664.516-4.816 1.656-6.453 3.418-1.348 3.844-4.36 6.125-9.031 6.84-2.258-1.32-3.547-3.223-3.871-5.7a24.717 24.717 0 0 0 4.515-2.276c1.774-3.32 3.707-6.551 5.809-9.688 5.965-.629 8.976 1.84 9.031 7.406Zm0 0"/><path style="stroke:none;fill-rule:evenodd;fill:#8d6a60;fill-opacity:1" d="M394.195 251.281c.508 3.66-.996 6.32-4.52 7.977-2.804-1.48-4.308-3.758-4.515-6.836 2.863-.992 5.871-1.371 9.035-1.14Zm0 0"/><path style="stroke:none;fill-rule:evenodd;fill:#8e6c63;fill-opacity:1" d="M454.84 256.98a50.117 50.117 0 0 1 1.289 12.536c2.312-.153 4.46.226 6.453 1.14a158.987 158.987 0 0 0 4.516 10.254c2.77.7 5.566 1.461 8.386 2.281 2.153 2.657 4.73 4.938 7.743 6.836 3.828-2.953 7.05-6.37 9.675-10.254a480.389 480.389 0 0 1 7.743-27.351c1.793-1.203 3.726-1.39 5.808-.57 2.613 17.996 5.192 36.039 7.742 54.132a87.315 87.315 0 0 0 6.45-7.41c1.656-.777 3.164-.59 4.515.57a818.85 818.85 0 0 0 6.453-31.906c3.254-3.222 5.836-2.843 7.742 1.137a3006.987 3006.987 0 0 0 5.805 33.05c.68 5.216 2.399 10.153 5.164 14.813 3.332-1.636 6.344-1.258 9.031 1.14 3.391-5.831 7.907-10.769 13.547-14.815 1.63.296 2.918 1.058 3.871 2.28A68.11 68.11 0 0 1 580 317.38c-1.719 1.52-3.441 3.039-5.16 4.558a79.895 79.895 0 0 0-3.871-7.976 66.491 66.491 0 0 0-6.453 10.254c-2.735-.2-5.317.183-7.743 1.14-2.523-2.914-4.675-2.535-6.449 1.141h-5.164c-4.68-11.453-7.906-23.23-9.676-35.328-1.152 6-2.656 11.887-4.515 17.664-2.692.602-5.055.031-7.098-1.71-3.918 5.784-9.293 7.112-16.129 3.987-.969-.761-1.402-1.71-1.289-2.847a19.6 19.6 0 0 1-1.293-6.836 138.356 138.356 0 0 0-3.226-25.074c-3.317 7.882-8.262 14.91-14.836 21.086-1.723.757-3.442.757-5.164 0a122.172 122.172 0 0 1-11.61-8.547c-2.465.964-5.047 1.343-7.742 1.136-1.16-4.699-3.312-8.879-6.453-12.535-2.867.367-5.234-.39-7.098-2.277a306.279 306.279 0 0 0-2.578-22.793 206.699 206.699 0 0 1-2.582 15.953c-1.691 2.46-3.844 2.84-6.453 1.14-1.727-3.077-3.45-6.117-5.16-9.117-2.227 1.227-4.594 1.418-7.098.57a21.162 21.162 0 0 0-3.87-6.269c1.636-1.762 3.788-2.902 6.452-3.418.84.676 1.7 1.434 2.582 2.281 2.957-1.738 5.535-1.359 7.742 1.137a5538.357 5538.357 0 0 1 5.805-39.883c2.5-1.55 4.649-1.171 6.453 1.137a1732.11 1732.11 0 0 1 4.516 41.027Zm0 0"/><path style="stroke:none;fill-rule:evenodd;fill:#937265;fill-opacity:1" d="M408.387 255.84c.324 2.476 1.613 4.379 3.87 5.7-2.905 1.558-6.132 2.698-9.675 3.417-3.75-1.008-5.258-3.285-4.516-6.836 2.883.336 5.461-.047 7.739-1.14.863-.38 1.722-.762 2.582-1.141Zm0 0"/><path style="stroke:none;fill-rule:evenodd;fill:#c3c351;fill-opacity:1" d="M425.16 262.68h6.453c.93 7.965 1.79 15.945 2.582 23.93h-7.742c-.512-7.973-.941-15.95-1.293-23.93Zm0 0"/><path style="stroke:none;fill-rule:evenodd;fill:#81c5d4;fill-opacity:1" d="M305.16 274.074c6.078 3.442 12.527 6.293 19.356 8.547 5.082 2.965 5.082 5.813 0 8.547-6.532-3.05-12.98-6.09-19.356-9.117-3.125-2.535-3.125-5.196 0-7.977Zm0 0"/><path style="stroke:none;fill-rule:evenodd;fill:#faf9f8;fill-opacity:1" d="M505.16 301.426h-42.578v-11.399c2.695.207 5.277-.172 7.742-1.136 3.68 3.062 7.551 5.91 11.61 8.546 1.722.758 3.441.758 5.164 0 6.574-6.175 11.52-13.203 14.836-21.085a138.356 138.356 0 0 1 3.226 25.074Zm0 0"/><path style="stroke:none;fill-rule:evenodd;fill:#81c5d3;fill-opacity:1" d="M361.934 301.426c1.722 1.898 1.722 3.797 0 5.695-1.72 1.52-3.438 1.52-5.16 0-4.118-3.125-8.848-5.402-14.192-6.836-5.484-2.074-6.344-5.113-2.582-9.117a377.328 377.328 0 0 1 21.934 10.258Zm0 0"/><path style="stroke:none;fill-rule:evenodd;fill:#e1e2aa;fill-opacity:1" d="M427.742 298.004c2.278-1.094 4.86-1.473 7.742-1.137v4.559c-1.168-.809-1.597-1.95-1.289-3.422h-6.453Zm0 0"/><path style="stroke:none;fill-rule:evenodd;fill:#e5e5e5;fill-opacity:1" d="M141.29 192.023c4.35 2.672 8.651 5.332 12.905 7.977h-7.742v101.426h152.258c.426-25.27-.004-50.34-1.293-75.215 2.953-8.461 5.102-17.2 6.453-26.211v-1.14a46.081 46.081 0 0 1 2.582 6.84 905.578 905.578 0 0 0-1.293 68.374c-3.125 2.781-3.125 5.442 0 7.977v19.375c12.707.37 25.18-.008 37.422-1.14 5.344 1.433 10.074 3.71 14.191 6.835H305.16v92.309h-6.45V307.12a5088.268 5088.268 0 0 0-152.257-1.137v93.446h-5.164v-93.446H-.645v-4.558H140A1990.135 1990.135 0 0 0 141.29 200H-.646v-4.559H141.29v-3.418Zm0 0"/><path style="stroke:none;fill-rule:evenodd;fill:#82c6d4;fill-opacity:1" d="M270.324 256.98a1342.854 1342.854 0 0 1 23.223 10.258c.785 2.489-.074 4.766-2.578 6.836a164.103 164.103 0 0 1-23.227-12.535c.88-1.55 1.738-3.07 2.582-4.559Zm0 0"/><path style="stroke:none;fill-rule:evenodd;fill:#7fc5d3;fill-opacity:1" d="M241.934 235.328a12.21 12.21 0 0 1 5.164.57c4.039 4.707 8.554 9.079 13.547 13.106-.036 2.184-1.11 4.082-3.227 5.695a350.339 350.339 0 0 0-19.352-15.383c1.559-1.183 2.852-2.515 3.868-3.988Zm0 0"/><path style="stroke:none;fill-rule:evenodd;fill:#81c5d4;fill-opacity:1" d="M208.387 223.93a185.637 185.637 0 0 1 24.515 13.105c-1.035 2.02-2.543 3.73-4.515 5.13a211.733 211.733 0 0 1-22.582-13.677c1.46-1.277 2.32-2.797 2.582-4.558Zm0 0"/><path style="stroke:none;fill-rule:evenodd;fill:#937361;fill-opacity:1" d="M288.387 212.535h5.16a45.523 45.523 0 0 0-1.29 11.395 1185.717 1185.717 0 0 1-3.87-11.395Zm0 0"/><path style="stroke:none;fill-rule:evenodd;fill:#81c5d4;fill-opacity:1" d="M174.84 205.7c8.547 3.163 16.289 7.534 23.226 13.105-.578 1.965-1.652 3.675-3.226 5.125a413.654 413.654 0 0 1-22.582-13.672l2.582-4.559Zm0 0"/><path style="stroke:none;fill-rule:evenodd;fill:#e7e7e7;fill-opacity:1" d="M427.742 298.004v9.117h-65.808c1.722-1.898 1.722-3.797 0-5.695h64.52c-.31-1.473.12-2.613 1.288-3.422Zm0 0"/><path style="stroke:none;fill-rule:evenodd;fill:#efefee;fill-opacity:1" d="M545.16 301.426h54.195v7.976c-1.972-.082-3.261.676-3.87 2.278a13.361 13.361 0 0 0-3.872 2.851c-4.273.063-8.144 1.012-11.613 2.848a68.11 68.11 0 0 0-3.227-12.535c-.953-1.223-2.242-1.985-3.87-2.281-5.641 4.046-10.157 8.984-13.548 14.816-2.687-2.399-5.699-2.777-9.03-1.14-2.766-4.66-4.485-9.598-5.165-14.813Zm0 0"/><path style="stroke:none;fill-rule:evenodd;fill:#f3f3f3;fill-opacity:1" d="M-.645 307.121v-1.137H141.29v93.446H140V307.12H-.645ZM298.71 307.121H147.743v92.309h-1.289v-93.446c50.973-.379 101.723 0 152.258 1.137Zm0 0"/><path style="stroke:none;fill-rule:evenodd;fill:#fefffe;fill-opacity:1" d="M-.645 307.121H140v92.309H-.645V307.12Zm0 0"/><path style="stroke:none;fill-rule:evenodd;fill:#fefefe;fill-opacity:1" d="M298.71 307.121v92.309H147.743V307.12h150.969ZM356.773 307.121c1.723 1.52 3.442 1.52 5.16 0h65.81c1.206 4.828 1.636 9.766 1.288 14.817h7.742a62.05 62.05 0 0 0-1.289-14.817h20.645c.422 12.742-.008 25.277-1.29 37.61-1.429-2.817-4.01-3.954-7.741-3.422-.442-.954-1.301-1.332-2.582-1.137-1.739-1.254-3.676-2.395-5.805-3.418a8.571 8.571 0 0 1-.645-4.559c-3.332-.543-5.914.22-7.742 2.278a177.794 177.794 0 0 1-21.293-10.258c-1.574 1.453-2.648 3.164-3.226 5.129 6.976 4.699 14.504 8.687 22.582 11.965.988-.079 1.633-.457 1.937-1.137 3.074 2.117 6.516 3.637 10.32 4.558 4.72 3.602 9.88 6.641 15.485 9.118v45.582H305.16V307.12h51.613Zm0 0"/><path style="stroke:none;fill-rule:evenodd;fill:#c3c353;fill-opacity:1" d="M427.742 298.004h6.453c-.308 1.473.121 2.613 1.29 3.422v5.695a62.05 62.05 0 0 1 1.288 14.817h-7.742c.348-5.051-.082-9.989-1.289-14.817v-9.117Zm0 0"/><path style="stroke:none;fill-rule:evenodd;fill:#e6e6e6;fill-opacity:1" d="M456.129 277.492c3.14 3.656 5.293 7.836 6.453 12.535v11.399h42.578a19.6 19.6 0 0 0 1.293 6.836 437.08 437.08 0 0 0-43.871-1.14v41.026c-2.992-.562-5.574-1.699-7.742-3.418 1.281-12.332 1.71-24.867 1.289-37.609h-20.645v-5.695h20.645v-23.934Zm0 0"/><path style="stroke:none;fill-rule:evenodd;fill:#fefefd;fill-opacity:1" d="M545.16 326.496c-4.95.848-7.097 3.504-6.45 7.977 4.99-1.004 9.935-1.004 14.837 0 3.344-2.02 7-3.16 10.969-3.418v-6.84a66.491 66.491 0 0 1 6.453-10.254 79.895 79.895 0 0 1 3.87 7.976v1.141c-.179 5.348 2.833 7.817 9.032 7.406 2.024 2.625 3.527 5.473 4.516 8.547 1.8 2.309 3.953 2.692 6.453 1.14a129.972 129.972 0 0 1 4.515-12.534v71.793h-27.097c-4.324-4.575-9.914-7.426-16.774-8.547-4.87-5.524-8.097-4.953-9.68 1.71 4.005 3.25 8.52 5.528 13.551 6.837h-96.773c-.797-14.34.063-28.395 2.578-42.164 2.86-2.579 2.86-4.856 0-6.84-1.289-.38-2.148-1.137-2.578-2.278v-41.027a437.08 437.08 0 0 1 43.871 1.14c-.113 1.137.32 2.087 1.29 2.848 6.835 3.125 12.21 1.797 16.128-3.988 2.043 1.742 4.406 2.313 7.098 1.711a149.842 149.842 0 0 0 4.515-17.664c1.77 12.098 4.996 23.875 9.676 35.328Zm0 0"/><path style="stroke:none;fill-rule:evenodd;fill:#82c6d4;fill-opacity:1" d="M373.547 309.402c9.746-.539 17.703 2.5 23.871 9.118-.02 2.355-1.313 4.253-3.871 5.695-5.676-5.527-12.774-8.567-21.29-9.113-.902-1.93-.472-3.829 1.29-5.7Zm0 0"/><path style="stroke:none;fill-rule:evenodd;fill:#a58b71;fill-opacity:1" d="M599.355 309.402v1.141c-1.148.695-2.44 1.074-3.87 1.137.609-1.602 1.898-2.36 3.87-2.278Zm0 0"/><path style="stroke:none;fill-rule:evenodd;fill:#bbba47;fill-opacity:1" d="M599.355 310.543v7.977c-2.152.757-4.3 1.52-6.453 2.277-3.238-.508-5.82.25-7.742 2.281-1.898 1.41-4.05 2.55-6.45 3.418-1.593-.957-2.886-2.098-3.87-3.418v-1.14l5.16-4.56c3.469-1.835 7.34-2.784 11.613-2.847a13.361 13.361 0 0 1 3.871-2.851c1.43-.063 2.723-.442 3.871-1.137Zm0 0"/><path style="stroke:none;fill-rule:evenodd;fill:#906d64;fill-opacity:1" d="M599.355 318.52v9.117a129.972 129.972 0 0 0-4.515 12.535c-2.5 1.55-4.653 1.168-6.453-1.14-.989-3.075-2.492-5.923-4.516-8.548-6.2.41-9.21-2.058-9.031-7.406.984 1.32 2.277 2.461 3.87 3.418 2.4-.867 4.552-2.008 6.45-3.418 2.742.606 4.676 2.125 5.809 4.559a33.005 33.005 0 0 1 1.933-6.84c2.153-.758 4.301-1.52 6.453-2.277Zm0 0"/><path style="stroke:none;fill-rule:evenodd;fill:#e7e1d4;fill-opacity:1" d="M592.902 320.797a33.005 33.005 0 0 0-1.933 6.84c-1.133-2.434-3.067-3.953-5.809-4.559 1.922-2.031 4.504-2.789 7.742-2.281Zm0 0"/><path style="stroke:none;fill-rule:evenodd;fill:#f7f4f3;fill-opacity:1" d="M556.773 325.355c-1.988.915-4.136 1.293-6.449 1.141 1.774-3.676 3.926-4.055 6.45-1.14Zm0 0"/><path style="stroke:none;fill-rule:evenodd;fill:#81c5d3;fill-opacity:1" d="M430.324 334.473c1.719 1.898 1.719 3.797 0 5.699-.304.68-.949 1.058-1.937 1.137-8.078-3.278-15.606-7.266-22.582-11.965.578-1.965 1.652-3.676 3.226-5.13a177.794 177.794 0 0 0 21.293 10.259Zm0 0"/><path style="stroke:none;fill-rule:evenodd;fill:#c3c455;fill-opacity:1" d="M564.516 324.215v6.84c-3.97.257-7.625 1.398-10.97 3.418-4.901-1.004-9.847-1.004-14.835 0-.649-4.473 1.5-7.13 6.45-7.977h5.163c2.313.152 4.461-.226 6.45-1.14 2.425-.958 5.007-1.34 7.742-1.141Zm0 0"/><path style="stroke:none;fill-rule:evenodd;fill:#c3c453;fill-opacity:1" d="M521.934 328.773c5.195-.277 6.918 1.625 5.164 5.7-6.032 2.664-11.625 5.89-16.774 9.687-4.976 2.453-7.344 1.121-7.097-3.988a257.387 257.387 0 0 1 18.707-11.399Zm0 0"/><path style="stroke:none;fill-rule:evenodd;fill:#c3c55c;fill-opacity:1" d="M444.516 340.172a347.2 347.2 0 0 0-3.871 4.558c-3.805-.921-7.247-2.44-10.32-4.558 1.718-1.902 1.718-3.8 0-5.7 1.827-2.058 4.41-2.82 7.741-2.277a8.571 8.571 0 0 0 .645 4.559c2.129 1.023 4.066 2.164 5.805 3.418Zm0 0"/><path style="stroke:none;fill-rule:evenodd;fill:#bdc770;fill-opacity:1" d="M447.098 341.309c3.73-.532 6.312.605 7.742 3.421-2.992-.562-5.574-1.703-7.742-3.421Zm0 0"/><path style="stroke:none;fill-rule:evenodd;fill:#c3c453;fill-opacity:1" d="M465.16 350.426v-5.696c8.426-2.05 17.027-2.617 25.809-1.71 1.168 1.937 1.597 4.027 1.289 6.27-9.051.085-18.082.468-27.098 1.136Zm0 0"/><path style="stroke:none;fill-rule:evenodd;fill:#80c3cf;fill-opacity:1" d="M444.516 340.172c1.28-.195 2.14.183 2.582 1.137 2.168 1.718 4.75 2.859 7.742 3.421 2.168 1.72 4.75 2.856 7.742 3.418.43 1.141 1.29 1.899 2.578 2.278 2.86 1.984 2.86 4.262 0 6.84a25.858 25.858 0 0 1-9.031-3.418c-5.606-2.477-10.766-5.516-15.484-9.118a347.2 347.2 0 0 1 3.87-4.558Zm0 0"/><path style="stroke:none;fill-rule:evenodd;fill:#e7e7e7;fill-opacity:1" d="M456.129 353.848a25.858 25.858 0 0 0 9.031 3.418c-2.515 13.77-3.375 27.824-2.578 42.164h-6.453v-45.582Zm0 0"/><path style="stroke:none;fill-rule:evenodd;fill:#81c5d4;fill-opacity:1" d="M478.066 357.266a305.877 305.877 0 0 0 23.223 9.687c1.98 4.477.258 6.375-5.16 5.695-7.336-2.855-14.219-6.273-20.645-10.253a29.739 29.739 0 0 1 2.582-5.13Zm0 0"/><path style="stroke:none;fill-rule:evenodd;fill:#84c7d5;fill-opacity:1" d="M514.195 373.219a66.707 66.707 0 0 1 14.192 5.129c2.238.742 4.39.55 6.453-.57 4.941 2.952 4.512 5.613-1.293 7.976-2.133.832-4.285 1.02-6.45.57-5.105-3.496-10.699-6.156-16.773-7.976a34.951 34.951 0 0 1 3.871-5.13Zm0 0"/><path style="stroke:none;fill-rule:evenodd;fill:#7fc5d3;fill-opacity:1" d="M572.258 399.43h-12.903c-5.03-1.309-9.546-3.586-13.55-6.836 1.582-6.664 4.808-7.235 9.68-1.711 6.859 1.12 12.449 3.972 16.773 8.547Zm0 0"/></svg>