<svg xmlns="http://www.w3.org/2000/svg" width="600" height="400"><path style="stroke:none;fill-rule:evenodd;fill:#fefefe;fill-opacity:1" d="M-.59-.469h591.73c-37.894 54.074-80.218 105.79-126.968 155.14-34.39 34.81-72.777 66.587-115.156 95.329-4.485-7.617-7.633-6.996-9.45 1.871-3.671-.223-7.214.09-10.628.934-48.543-2.524-93.032-14.364-133.465-35.516-4.903-9.008-9.825-18.043-14.766-27.101a6211.984 6211.984 0 0 0-57.871-120.563c-8.773-16.855-20.39-32.277-34.844-46.262-11.226-7.418-22.64-7.726-34.254-.933-10.578 8.785-18.648 18.91-24.21 30.375a233.184 233.184 0 0 0-12.403 26.168C10.77 73.32 4.863 67.403-.59 61.215V-.47Zm0 0"/><path style="stroke:none;fill-rule:evenodd;fill:#e2802a;fill-opacity:1" d="M591.14-.469h8.27V.47c-39.015 55.312-82.52 108.273-130.512 158.879a2359.64 2359.64 0 0 1-50.199 46.726c-9.02 7.453-18.078 14.93-27.164 22.43-1.969.934-3.543 2.18-4.723 3.738-3.855 1.492-7.007 3.672-9.449 6.543a182.965 182.965 0 0 0-18.898 13.086c-3.777.5-6.926-.125-9.45-1.871 42.38-28.742 80.766-60.52 115.157-95.328C510.922 105.32 553.246 53.605 591.14-.468Zm0 0"/><path style="stroke:none;fill-rule:evenodd;fill:#fefefe;fill-opacity:1" d="M599.41.469v147.66c-25.55 21-53.11 40.156-82.68 57.48a253.707 253.707 0 0 1-18.894 8.875c-17.902-18.37-40.344-22.89-67.324-13.55a104.197 104.197 0 0 1-11.813 5.14 2359.64 2359.64 0 0 0 50.2-46.726C516.89 108.742 560.394 55.78 599.41.468Zm0 0"/><path style="stroke:none;fill-rule:evenodd;fill:#0c0c0c;fill-opacity:1" d="M195.473 217.29c-4.227-1.474-8.164-3.34-11.813-5.606a33611.97 33611.97 0 0 0-66.73-138.32C109.2 58.32 99.36 44.3 87.402 31.308c-11.515-11.114-22.933-11.114-34.254 0-13.793 16.375-23.832 34.129-30.117 53.27-2.785-1.274-4.754-3.145-5.906-5.606a233.184 233.184 0 0 1 12.402-26.168C35.09 41.34 43.16 31.215 53.738 22.43c11.614-6.793 23.028-6.485 34.254.933 14.453 13.985 26.07 29.407 34.844 46.262a6211.984 6211.984 0 0 1 57.871 120.563c4.941 9.058 9.863 18.093 14.766 27.101Zm0 0"/><path style="stroke:none;fill-rule:evenodd;fill:#fdfdfd;fill-opacity:1" d="M183.66 211.684c-29.297-15.36-56.465-32.961-81.496-52.805-27.55-22.418-53.336-45.938-77.36-70.563-.937-1.164-1.527-2.41-1.773-3.738 6.285-19.14 16.324-36.894 30.117-53.27 11.32-11.113 22.739-11.113 34.254 0C99.36 44.302 109.2 58.32 116.93 73.364a33611.97 33611.97 0 0 1 66.73 138.32Zm0 0"/><path style="stroke:none;fill-rule:evenodd;fill:#4f7ab3;fill-opacity:1" d="M-.59 61.215c5.453 6.187 11.36 12.105 17.715 17.758 1.152 2.46 3.121 4.332 5.906 5.605.246 1.328.836 2.574 1.774 3.738 24.023 24.625 49.808 48.145 77.36 70.563 25.03 19.844 52.198 37.445 81.495 52.805 3.649 2.265 7.586 4.132 11.813 5.605 40.433 21.152 84.922 32.992 133.464 35.516 1.579 2.05 3.547 3.922 5.907 5.605-.406.785-1.192 1.098-2.364.938-33.695-1.371-65.98-7.446-96.851-18.227a861.732 861.732 0 0 0-33.07-12.617 129.338 129.338 0 0 0-10.04-5.606c-.472.211-.667.524-.59.934-43.28-22.89-82.847-49.68-118.702-80.375a3435.737 3435.737 0 0 1-53.739-50.465c-1.086-2.422-3.054-4.289-5.906-5.61C9.727 81.587 5 76.294-.59 71.497V61.215Zm0 0"/><path style="stroke:none;fill-rule:evenodd;fill:#fafbfb;fill-opacity:1" d="M-.59 71.496C5 76.293 9.727 81.586 13.582 87.383A920.865 920.865 0 0 1-.59 125.699V71.496Zm0 0"/><path style="stroke:none;fill-rule:evenodd;fill:#0d0d0d;fill-opacity:1" d="M13.582 87.383c2.852 1.32 4.82 3.187 5.906 5.61A841.874 841.874 0 0 0-.59 150.932V125.7a920.865 920.865 0 0 0 14.172-38.316Zm0 0"/><path style="stroke:none;fill-rule:evenodd;fill:#fefefe;fill-opacity:1" d="M19.488 92.992a3435.737 3435.737 0 0 0 53.739 50.465c35.855 30.695 75.421 57.484 118.703 80.375 10.398 20.047 25.36 37.648 44.882 52.805 11.633 7.586 25.02 11.168 40.157 10.746-69.719 29.851-142.16 34.367-217.324 13.55-21.098-6.476-41.176-14.421-60.235-23.831V150.934a841.874 841.874 0 0 1 20.078-57.942Zm0 0"/><path style="stroke:none;fill-rule:evenodd;fill:#4e7ab3;fill-opacity:1" d="M599.41 148.129v8.414a751.982 751.982 0 0 1-46.062 34.11 1980.31 1980.31 0 0 1-49.61 29.44c-2.566.235-4.535 1.169-5.902 2.805-31.285 14.848-64.75 25.598-100.395 32.243a452.712 452.712 0 0 1-44.882 4.207 179.736 179.736 0 0 0 7.086-6.543c48.152-2.73 92.246-14.57 132.285-35.516 2.566-.234 4.535-1.168 5.906-2.805a253.707 253.707 0 0 0 18.894-8.875c29.57-17.324 57.13-36.48 82.68-57.48Zm0 0"/><path style="stroke:none;fill-rule:evenodd;fill:#fefefe;fill-opacity:1" d="M599.41 156.543v242.988h-10.629c-16.855-49.199-37.133-97.488-60.828-144.86-6.887-12.151-14.957-23.679-24.215-34.577a1980.31 1980.31 0 0 0 49.61-29.442 751.982 751.982 0 0 0 46.062-34.109Zm0 0"/><path style="stroke:none;fill-rule:evenodd;fill:#0c0b0b;fill-opacity:1" d="M497.836 214.484c-1.371 1.637-3.34 2.57-5.906 2.805-17.918-17.246-39.176-20.203-63.782-8.879-12.468 6.02-24.28 12.719-35.433 20.094h-1.18c9.086-7.5 18.145-14.977 27.164-22.43a104.197 104.197 0 0 0 11.813-5.14c26.98-9.34 49.422-4.82 67.324 13.55Zm0 0"/><path style="stroke:none;fill-rule:evenodd;fill:#fcfcfc;fill-opacity:1" d="M491.93 217.29c-40.04 20.944-84.133 32.784-132.285 35.515-.786 0-1.18-.313-1.18-.934a182.965 182.965 0 0 1 18.898-13.086c3.856-1.488 7.004-3.672 9.45-6.543 2.656-.543 4.62-1.785 5.902-3.738 11.152-7.375 22.965-14.074 35.433-20.094 24.606-11.324 45.864-8.367 63.782 8.88Zm0 0"/><path style="stroke:none;fill-rule:evenodd;fill:#0c0c0c;fill-opacity:1" d="M503.738 220.094c9.258 10.898 17.328 22.426 24.215 34.578 23.695 47.371 43.973 95.66 60.828 144.86h-8.27c-16.3-50.376-36.968-99.594-62.007-147.66a316.684 316.684 0 0 0-20.668-28.974c1.367-1.636 3.336-2.57 5.902-2.804Zm0 0"/><path style="stroke:none;fill-rule:evenodd;fill:#0e0d0d;fill-opacity:1" d="M202.559 228.504c9.77 16.863 23.152 31.664 40.156 44.394 14.234 8.793 29.984 10.973 47.246 6.54 5.93-2.036 11.836-4.06 17.715-6.075-9.453 5.614-19.692 10.29-30.707 14.02-15.137.422-28.524-3.16-40.156-10.746-19.524-15.157-34.485-32.758-44.883-52.805-.078-.41.117-.723.59-.934a129.338 129.338 0 0 1 10.039 5.606Zm0 0"/><path style="stroke:none;fill-rule:evenodd;fill:#fefefe;fill-opacity:1" d="M497.836 222.898a316.684 316.684 0 0 1 20.668 28.973c25.039 48.066 45.707 97.285 62.008 147.66H-.59V283.645c94.852 46.316 191.309 48.34 289.371 6.074 15.594-6.942 30.555-14.574 44.88-22.895 4.253.028 7.8-1.219 10.632-3.738 2.832 2.52 6.375 3.766 10.629 3.738a41.924 41.924 0 0 0-2.363-7.476 452.712 452.712 0 0 0 44.882-4.207c35.645-6.645 69.11-17.395 100.395-32.243Zm0 0"/><path style="stroke:none;fill-rule:evenodd;fill:#fcfcfc;fill-opacity:1" d="M202.559 228.504a861.732 861.732 0 0 1 33.07 12.617c30.871 10.781 63.156 16.856 96.851 18.227-7.644 5.359-15.91 10.03-24.804 14.015-5.88 2.016-11.785 4.04-17.715 6.075-17.262 4.433-33.012 2.253-47.246-6.54-17.004-12.73-30.387-27.53-40.156-44.394Zm0 0"/><path style="stroke:none;fill-rule:evenodd;fill:#757575;fill-opacity:1" d="M391.535 228.504h1.18c-1.281 1.953-3.246 3.195-5.902 3.738 1.18-1.558 2.753-2.804 4.722-3.738Zm0 0"/><path style="stroke:none;fill-rule:evenodd;fill:#8d8076;fill-opacity:1" d="M386.813 232.242c-2.446 2.871-5.594 5.055-9.45 6.543 2.442-2.87 5.594-5.05 9.45-6.543Zm0 0"/><path style="stroke:none;fill-rule:evenodd;fill:#0a0909;fill-opacity:1" d="M349.016 250c2.523 1.746 5.671 2.371 9.449 1.871 0 .621.394.934 1.18.934-2.211 2.16-4.575 4.34-7.086 6.543a41.924 41.924 0 0 1 2.363 7.476c-4.254.028-7.797-1.219-10.629-3.738-2.832 2.52-6.379 3.766-10.633 3.738a24.895 24.895 0 0 1 2.363-7.012c-.082-.714-.476-1.183-1.18-1.402-2.359-1.683-4.327-3.555-5.906-5.605 3.415-.844 6.958-1.157 10.63-.934 1.816-8.867 4.964-9.488 9.449-1.871Zm0 0"/><path style="stroke:none;fill-rule:evenodd;fill:#e2812b;fill-opacity:1" d="M334.844 258.41c.703.219 1.097.688 1.18 1.402a24.895 24.895 0 0 0-2.364 7.012c-14.324 8.32-29.285 15.953-44.879 22.895-98.062 42.265-194.52 40.242-289.37-6.074v-6.543c19.058 9.41 39.136 17.355 60.234 23.832 75.164 20.816 147.605 16.3 217.324-13.551 11.015-3.73 21.254-8.406 30.707-14.02 8.894-3.984 17.16-8.656 24.804-14.015 1.172.16 1.957-.153 2.364-.938Zm0 0"/></svg>