<svg xmlns="http://www.w3.org/2000/svg" width="600" height="400"><path style="stroke:none;fill-rule:evenodd;fill:#fefefe;fill-opacity:1" d="M-.75-.727h69v7.25C62.258 1.73 56.008 1.25 49.5 5.074c-3 4.348-3 8.696 0 13.043 4.871 3.238 7.871 7.586 9 13.043 4.621 4.047 9.871 7.188 15.75 9.418 10 .969 20 .969 30 0a21.581 21.581 0 0 0 7.5-5.797A280.836 280.836 0 0 0 144 26.813c4.18 1.472 8.43 1.714 12.75.722l21-10.144c1.129-.973 1.629-2.18 1.5-3.621 5.125-3.47 7.125-8.297 6-14.497h1.5V15.22c-8.652 4.152-11.402 10.914-8.25 20.289a13.657 13.657 0 0 0 2.25 3.62 255.053 255.053 0 0 0 25.5 4.349 243.162 243.162 0 0 1 31.5 16.668c3.36 2.328 5.86 5.468 7.5 9.421 19.64 11.727 35.89 26.946 48.75 45.653 9.113 8.07 17.363 16.765 24.75 26.086-.129 1.441.371 2.652 1.5 3.62 2.723 1.098 5.223 2.305 7.5 3.626v14.492c-2.715 9.789.781 16.07 10.5 18.84l3 4.347a48.81 48.81 0 0 0-10.5 3.625c-1.621 1.926-2.625 4.102-3 6.52-6.473 3.957-7.723 9.27-3.75 15.945 1.008 1.09 2.258 1.575 3.75 1.45-1.438 2.117-3.188 4.05-5.25 5.796-.828 7.356-.828 14.602 0 21.739a165.895 165.895 0 0 0-30.75 5.07c-3.926 3.055-6.926 6.676-9 10.871-5.898-.93-10.898.52-15 4.348h-15c-10.012-.239-20.012 0-30 .726-4.344 2.485-6.348 6.106-6 10.868a2292.502 2292.502 0 0 1-30-.723 63.319 63.319 0 0 1-12.75 9.418 45.301 45.301 0 0 1-6.75-8.695c-8.984-3.415-14.484-.512-16.5 8.695-1-.48-2-.965-3-1.45a245.225 245.225 0 0 0-3-8.695c-1.813-3.687-4.813-5.62-9-5.797-.93-5.507.32-10.34 3.75-14.492 1-3.863 1-7.73 0-11.594-2.922-2.265-4.672-5.164-5.25-8.695 3.125-3.008 5.625-6.39 7.5-10.144a346.613 346.613 0 0 1 30-2.176 158.574 158.574 0 0 0 21.75-13.766c2.133-3.668 2.633-7.535 1.5-11.597-8.973-8.801-19.723-11.942-32.25-9.418a3255.31 3255.31 0 0 0-39 9.418c-6.71-2.852-13.71-3.575-21-2.172-3.629 2.187-5.129 5.324-4.5 9.422-4.238-.61-7.488.84-9.75 4.347a57.441 57.441 0 0 0-.75 13.043 43.109 43.109 0 0 1-6 2.172c-11 .484-22 .969-33 1.45-5.234 2.64-6.984 6.745-5.25 12.32 7.879 8.515 17.629 13.828 29.25 15.941-4.691 2.316-9.691 4.008-15 5.074-4.816 3.957-7.066 9.028-6.75 15.215-1.5 1.934-3 3.867-4.5 5.797a215.254 215.254 0 0 0-6-30.434c-6.34-6.648-14.09-8.82-23.25-6.523-6.855 2.574-12.855 6.195-18 10.871V-.727Zm0 0"/><path style="stroke:none;fill-rule:evenodd;fill:#d0d8e8;fill-opacity:1" d="M68.25-.727h79.5c1.184 1.88 2.684 3.57 4.5 5.075v7.246c-2.973.879-3.473 2.328-1.5 4.347a500.457 500.457 0 0 0-29.25 6.524 303.807 303.807 0 0 1-17.25-1.45 10.85 10.85 0 0 0-3.75 2.9c-2.934-.415-6.184-.415-9.75 0-1.082-.606-1.832-1.575-2.25-2.9-1.61 1.13-3.36.887-5.25-.726.5-.48 1-.965 1.5-1.45-3.027-3.523-6.777-6.179-11.25-7.968-.5.965-1 1.93-1.5 2.899-2.059-2.047-3.309-4.461-3.75-7.247v-7.25Zm0 0"/><path style="stroke:none;fill-rule:evenodd;fill:#ccd6ec;fill-opacity:1" d="M147.75-.727h37.5c1.125 6.2-.875 11.028-6 14.497-.352-.868-1.102-1.348-2.25-1.45a101.996 101.996 0 0 1-12.75 2.172c1.71 1.074 1.71 2.281 0 3.625-20.09 6.371-40.84 9.754-62.25 10.145-4.3-.492-8.05-1.942-11.25-4.348 3.566-.414 6.816-.414 9.75 0a10.85 10.85 0 0 1 3.75-2.898 303.807 303.807 0 0 0 17.25 1.449 500.457 500.457 0 0 1 29.25-6.524c-1.973-2.02-1.473-3.468 1.5-4.347V4.348c-1.816-1.504-3.316-3.196-4.5-5.075Zm0 0"/><path style="stroke:none;fill-rule:evenodd;fill:#dbdbdb;fill-opacity:1" d="M186.75-.727h51c-.129 1.446.371 2.653 1.5 3.625l-6 4.348c.5.484 1 .965 1.5 1.45a15.699 15.699 0 0 0-6 2.175c.754 1.762 1.254 3.453 1.5 5.07-1.941.711-3.941.954-6 .727.531 2.957.531 5.613 0 7.969 1.684 1.511 3.684 2.48 6 2.898-2 .969-2 1.934 0 2.899l10.5 4.347c5.871 6.407 12.371 11.961 19.5 16.668 10.09 4.059 18.59 11.063 25.5 21.016-.5.48-1 .965-1.5 1.45 1.684 1.51 3.684 2.476 6 2.897.664 2.2-.336 3.891-3 5.07-4.742-1.015-9.742-2.706-15-5.07 1.5-.484 3-.968 4.5-1.449-2.36-.511-4.863-1.48-7.5-2.898.5-.485 1-.969 1.5-1.45-4.082-1.855-7.082-4.753-9-8.695-3.477 1.11-6.227-.097-8.25-3.625-1.61 1.13-3.36.89-5.25-.722 1.5-.485 3-.97 4.5-1.45-3-.968-6-1.933-9-2.898 2.184-.613 2.934-1.82 2.25-3.625a5.488 5.488 0 0 1-2.25 1.45c-5.2-6.317-11.695-9.216-19.5-8.696-3.512-.008-6.512-1.215-9-3.625A113.413 113.413 0 0 1 198 36.957c-.574.805-1.324 1.29-2.25 1.45-3.734.292-7.234-.434-10.5-2.177.5-.48 1-.964 1.5-1.449-1.898-1.937-2.648-4.11-2.25-6.52 6.926 4.274 8.426 3.79 4.5-1.448-.273-4.153-1.023-8.016-2.25-11.594V-.727Zm0 0"/><path style="stroke:none;fill-rule:evenodd;fill:#d9dade;fill-opacity:1" d="M237.75-.727h18c1.184 1.88 2.684 3.57 4.5 5.075-3.828 4.125-7.828 7.023-12 8.695 1 .484 2 .965 3 1.45-2.5.484-5 .968-7.5 1.448a5.287 5.287 0 0 1 1.5 2.176 22.672 22.672 0 0 1-7.5 2.172c2.305 2.414 4.805 5.555 7.5 9.422 2.559 2.613 5.309 3.578 8.25 2.898 1.379 3.09 3.375 4.055 6 2.899 3.145 1.762 2.895 2.969-.75 3.62 1.89 1.614 3.64 1.856 5.25.727 1.547 3.297 3.797 4.266 6.75 2.899.5.484 1 .965 1.5 1.45a10.335 10.335 0 0 1-4.5 2.171 17.41 17.41 0 0 1 5.25 2.176c.5-.485 1-.965 1.5-1.45 1.895 2.614 4.395 4.547 7.5 5.797.5-.484 1-.964 1.5-1.449 1 1.934 2.5 3.383 4.5 4.348 1.113-1.652 2.363-1.652 3.75 0 3.121 2.328 5.371 4.746 6.75 7.246 1.34-1.754 2.59-1.754 3.75 0a10.342 10.342 0 0 1-4.5 2.176c1 .48 2 .965 3 1.449-.828 2.027-1.324 3.957-1.5 5.797a24.662 24.662 0 0 0 6 5.797c-.176 1.836-.672 3.77-1.5 5.797 1.75 1.691 3.5 3.382 5.25 5.07.5-.48 1-.965 1.5-1.45.684 1.805-.066 3.012-2.25 3.626 4.32 3.152 7.57 6.293 9.75 9.422l1.5-1.454c7.773 6.403 17.27 10.75 28.5 13.047 1.523-1.644 2.523-1.16 3 1.45 1.973-3.665 3.723-3.665 5.25 0 1.527-3.665 3.277-3.665 5.25 0 2.098-.801 4.098-1.282 6-1.45 1.602 2.582 3.852 3.309 6.75 2.172-1.176-2.957-.68-5.855 1.5-8.695 1.125-9.09-2.375-16.336-10.5-21.738-11.621-4.004-21.621-10.286-30-18.84a49.689 49.689 0 0 1-10.5-4.348c.074-3.621-1.926-6.52-6-8.695 2-.485 4-.969 6-1.45-1.383-2.968-.633-5.624 2.25-7.972 1.371 1.672 2.621 1.43 3.75-.727a5.274 5.274 0 0 1-1.5-2.172c4.379-1.25 5.879-3.664 4.5-7.246a22.678 22.678 0 0 1 7.5-2.175c-3.156-.707-3.656-2.399-1.5-5.07a49.566 49.566 0 0 1-6-7.973c.5-.48 1-.965 1.5-1.45-5.047-2.437-10.047-4.851-15-7.246a294.312 294.312 0 0 1-16.5-2.898c-3.375-1.082-5.375-3.258-6-6.524h27c-.195 1.075.055 2.04.75 2.903 2.277-.645 4.027.324 5.25 2.898 3.355-.281 6.605-.281 9.75 0 .684 1.801-.066 3.008-2.25 3.621 2.637 1.422 5.14 2.387 7.5 2.899-4 .965-4 1.933 0 2.898-.5.485-1 .969-1.5 1.45 7.625 5.644 8.625 10.956 3 15.94 4.566.52 5.066 1.49 1.5 2.9.5.484 1 .968 1.5 1.448a35.2 35.2 0 0 0-7.5 2.899c1 .484 2 .969 3 1.45-1.617 2.96-4.117 4.894-7.5 5.796 2 1.45 2 2.898 0 4.352 4 .964 4 1.93 0 2.898 2.5 1.93 5 3.863 7.5 5.797-.5.48-1 .965-1.5 1.45 2.332 2.382 4.832 2.866 7.5 1.448 3.848 9.004 11.094 15.524 21.75 19.563.5-.48 1-.965 1.5-1.45 3.129 1.934 5.379 4.59 6.75 7.973 1.422.895 2.672.653 3.75-.726.684 1.804-.066 3.011-2.25 3.625 2.637 1.422 5.14 2.386 7.5 2.898-1 .484-2 .965-3 1.45a619.895 619.895 0 0 1 4.5 5.796c-1.5.485-3 .965-4.5 1.45l4.5 4.347a10.975 10.975 0 0 1-4.5 2.899c4 1.449 4 2.898 0 4.347 2.703.461 3.2 1.426 1.5 2.899 2.637 1.421 5.14 2.386 7.5 2.898-4.566.52-5.066 1.488-1.5 2.898-1.566 2.211-3.816 3.422-6.75 3.626a5150.54 5150.54 0 0 1-23.25-5.075c-6.5-.48-13-.965-19.5-1.449-11.098-3.05-21.848-7.64-32.25-13.766-6.328 3.672-5.578 6.813 2.25 9.418-.5.485-1 .97-1.5 1.45 2.219 1.73 4.219 2.453 6 2.175-1 1.93-2 3.864-3 5.797 3.48 4.973 6.48 9.563 9 13.766a7.613 7.613 0 0 1-4.5.726 254.065 254.065 0 0 1-10.5-13.77c.8-6.058-2.2-9.92-9-11.593 1.172-1.555.918-3.246-.75-5.07a70.604 70.604 0 0 0-8.25-6.524c.5-.484 1-.964 1.5-1.449l-6-2.898c1.7-1.473 1.203-2.438-1.5-2.899 3.441-1.425 2.941-2.632-1.5-3.625-1.328-1.195-1.828-2.644-1.5-4.347-4.633.441-7.133-1.493-7.5-5.797-9.46-6.445-19.96-13.207-31.5-20.29-6.137-7.386-13.137-13.667-21-18.84 7.805-.519 14.3 2.38 19.5 8.696A5.488 5.488 0 0 0 246 50c.684 1.805-.066 3.012-2.25 3.625 3 .965 6 1.93 9 2.898-1.5.48-3 .965-4.5 1.45 1.89 1.613 3.64 1.851 5.25.722 2.023 3.528 4.773 4.735 8.25 3.625 1.918 3.942 4.918 6.84 9 8.696-.5.48-1 .964-1.5 1.449 2.637 1.418 5.14 2.387 7.5 2.898-1.5.48-3 .965-4.5 1.45 5.258 2.363 10.258 4.054 15 5.07 2.664-1.18 3.664-2.871 3-5.07-2.316-.422-4.316-1.387-6-2.899.5-.484 1-.969 1.5-1.45-6.91-9.952-15.41-16.956-25.5-21.015-7.129-4.707-13.629-10.261-19.5-16.668l-10.5-4.347c-2-.965-2-1.93 0-2.899-2.316-.418-4.316-1.387-6-2.898.531-2.356.531-5.012 0-7.969a13.065 13.065 0 0 0 6-.727c-.246-1.617-.746-3.308-1.5-5.07a15.699 15.699 0 0 1 6-2.176l-1.5-1.449 6-4.348c-1.129-.972-1.629-2.18-1.5-3.625Zm0 0"/><path style="stroke:none;fill-rule:evenodd;fill:#d6dae1;fill-opacity:1" d="M255.75-.727h6c1.61 3.414 2.605 6.555 3 9.422a15.699 15.699 0 0 0-6 2.176c.754 1.762 1.254 3.453 1.5 5.07-2.824.313-5.328 1.282-7.5 2.899 9.809 9.43 21.309 16.676 34.5 21.738.82 1.34 1.82 2.55 3 3.625 6.406 2.156 12.906 3.363 19.5 3.621-.5-.48-1-.965-1.5-1.449 3.383-.902 5.883-2.836 7.5-5.797-1-.48-2-.965-3-1.45 3-.48 6-.964 9-1.448-1-.965-2-1.93-3-2.899 2.5-.48 5-.965 7.5-1.449-1-.48-2-.965-3-1.45 2-1.448 2-2.898 0-4.347 1.758-.605 3.258-1.57 4.5-2.898-1.75-.723-3-1.93-3.75-3.621-1.61 1.129-3.36.886-5.25-.727 1-.48 2-.965 3-1.45-2.36-.51-4.863-1.476-7.5-2.898.5-.48 1-.964 1.5-1.449a17.231 17.231 0 0 1-6.75-5.07c-1.965 3.465-3.465 3.465-4.5 0-.5.48-1 .965-1.5 1.45-4-1.934-8-3.868-12-5.798-3.285 1.57-5.785.602-7.5-2.898-3.14 1.062-3.89.094-2.25-2.903h16.5c.625 3.266 2.625 5.442 6 6.524a294.312 294.312 0 0 0 16.5 2.898c4.953 2.395 9.953 4.809 15 7.246-.5.485-1 .97-1.5 1.45a49.566 49.566 0 0 0 6 7.972c-2.156 2.672-1.656 4.364 1.5 5.07a22.678 22.678 0 0 0-7.5 2.176c1.379 3.582-.121 5.996-4.5 7.246a5.274 5.274 0 0 0 1.5 2.172c-1.129 2.157-2.379 2.399-3.75.727-2.883 2.348-3.633 5.004-2.25 7.973-2 .48-4 .964-6 1.449 4.074 2.176 6.074 5.074 6 8.695a49.689 49.689 0 0 0 10.5 4.348c8.379 8.554 18.379 14.836 30 18.84 8.125 5.402 11.625 12.648 10.5 21.738-2.18 2.84-2.676 5.738-1.5 8.695-2.898 1.137-5.148.41-6.75-2.172-1.902.168-3.902.649-6 1.45-1.973-3.665-3.723-3.665-5.25 0-1.527-3.665-3.277-3.665-5.25 0-.477-2.61-1.477-3.094-3-1.45-11.23-2.297-20.727-6.644-28.5-13.047l-1.5 1.454c-2.18-3.13-5.43-6.27-9.75-9.422 2.184-.614 2.934-1.82 2.25-3.625-.5.484-1 .968-1.5 1.449-1.75-1.688-3.5-3.379-5.25-5.07.828-2.028 1.324-3.961 1.5-5.797a24.662 24.662 0 0 1-6-5.797c.176-1.84.672-3.77 1.5-5.797-1-.484-2-.969-3-1.45a10.342 10.342 0 0 0 4.5-2.175c-1.16-1.754-2.41-1.754-3.75 0-1.379-2.5-3.629-4.918-6.75-7.246-1.387-1.652-2.637-1.652-3.75 0-2-.965-3.5-2.414-4.5-4.348-.5.485-1 .965-1.5 1.45-3.105-1.25-5.605-3.184-7.5-5.797-.5.484-1 .964-1.5 1.449a17.41 17.41 0 0 0-5.25-2.176 10.335 10.335 0 0 0 4.5-2.172c-.5-.484-1-.965-1.5-1.45-2.953 1.368-5.203.4-6.75-2.898-1.61 1.13-3.36.887-5.25-.726 3.645-.652 3.895-1.86.75-3.621-2.625 1.156-4.621.191-6-2.899-2.941.68-5.691-.285-8.25-2.898-2.695-3.867-5.195-7.008-7.5-9.422a22.672 22.672 0 0 0 7.5-2.172 5.287 5.287 0 0 0-1.5-2.176c2.5-.48 5-.964 7.5-1.449l-3-1.449c4.172-1.672 8.172-4.57 12-8.695-1.816-1.504-3.316-3.196-4.5-5.075Zm0 0"/><path style="stroke:none;fill-rule:evenodd;fill:#d4d9e4;fill-opacity:1" d="M261.75-.727h19.5c-1.64 2.997-.89 3.965 2.25 2.903 1.715 3.5 4.215 4.469 7.5 2.898 4 1.93 8 3.864 12 5.797.5-.484 1-.969 1.5-1.45 1.035 3.466 2.535 3.466 4.5 0a17.231 17.231 0 0 0 6.75 5.071c-.5.485-1 .969-1.5 1.45 2.637 1.421 5.14 2.386 7.5 2.898-1 .484-2 .969-3 1.45 1.89 1.612 3.64 1.855 5.25.726.75 1.691 2 2.898 3.75 3.62-1.242 1.329-2.742 2.294-4.5 2.9 2 1.448 2 2.898 0 4.347 1 .484 2 .969 3 1.449-2.5.484-5 .969-7.5 1.45 1 .968 2 1.933 3 2.898-3 .484-6 .968-9 1.449 1 .484 2 .969 3 1.45-1.617 2.96-4.117 4.894-7.5 5.796.5.484 1 .969 1.5 1.45-6.594-.259-13.094-1.466-19.5-3.622a16.623 16.623 0 0 1-3-3.625c-13.191-5.062-24.691-12.308-34.5-21.738 2.172-1.617 4.676-2.586 7.5-2.899-.246-1.617-.746-3.308-1.5-5.07a15.699 15.699 0 0 1 6-2.176c-.395-2.867-1.39-6.008-3-9.422Zm0 0"/><path style="stroke:none;fill-rule:evenodd;fill:#fefefe;fill-opacity:1" d="M380.25-.727h81c6.809 19.227 20.309 25.266 40.5 18.118a21.4 21.4 0 0 0 4.5-6.52c5.879-1.812 8.879-5.676 9-11.598h19.5c-6.3 3.047-12.8 6.184-19.5 9.422-2.723 3.598-3.719 7.703-3 12.32.766 6.25-.234 12.047-3 17.391a45.444 45.444 0 0 0-3 2.899c-7.027-4.867-14.027-9.7-21-14.492-5.047-3.165-10.547-5.098-16.5-5.797-1.883.054-3.383-.668-4.5-2.176-19.52-.453-39.02-1.176-58.5-2.172h-6c-5.145-4.676-11.145-8.3-18-10.871-1.32-1.965-1.82-4.14-1.5-6.524Zm0 0"/><path style="stroke:none;fill-rule:evenodd;fill:#ccd6ed;fill-opacity:1" d="M461.25-.727h54c-.121 5.922-3.121 9.786-9 11.598a21.4 21.4 0 0 1-4.5 6.52c-20.191 7.148-33.691 1.109-40.5-18.118Zm0 0"/><path style="stroke:none;fill-rule:evenodd;fill:#fcfcfd;fill-opacity:1" d="M546.75-.727h40.5v8.7c-4.137-2.008-8.637-2.977-13.5-2.899-10.543.043-14.043 4.875-10.5 14.492a94.732 94.732 0 0 1-9.75 10.145c-3.258 8.922-.008 13.512 9.75 13.766-7.586 1.418-12.582-1.239-15-7.97 1.773-4.546 1.773-8.894 0-13.042 2.469-8.067 1.969-15.797-1.5-23.192Zm0 0"/><path style="stroke:none;fill-rule:evenodd;fill:#cad5f0;fill-opacity:1" d="M68.25 6.523c.441 2.786 1.691 5.2 3.75 7.247.5-.97 1-1.934 1.5-2.899 4.473 1.79 8.223 4.445 11.25 7.969-.5.484-1 .969-1.5 1.45 1.89 1.612 3.64 1.855 5.25.726.418 1.324 1.168 2.293 2.25 2.898 3.2 2.406 6.95 3.856 11.25 4.348 21.41-.39 42.16-3.774 62.25-10.145 1.71-1.344 1.71-2.55 0-3.625 4.309-.457 8.559-1.18 12.75-2.172 1.148.102 1.898.582 2.25 1.45.129 1.44-.371 2.648-1.5 3.62l-21 10.145c-4.32.992-8.57.75-12.75-.723a280.836 280.836 0 0 1-32.25 7.97 21.581 21.581 0 0 1-7.5 5.796c-10 .969-20 .969-30 0-5.879-2.23-11.129-5.371-15.75-9.418-1.129-5.457-4.129-9.805-9-13.043-3-4.347-3-8.695 0-13.043 6.508-3.824 12.758-3.344 18.75 1.45Zm0 0"/><path style="stroke:none;fill-rule:evenodd;fill:#d4dae5;fill-opacity:1" d="M534.75-.727h12c3.469 7.395 3.969 15.125 1.5 23.192-4.48 2.875-9.48 4.566-15 5.07.5.485 1 .969 1.5 1.45-4.863 3.37-9.863 3.85-15 1.449-1.84-3.711-4.34-6.852-7.5-9.418-.719-4.618.277-8.723 3-12.32 6.7-3.239 13.2-6.376 19.5-9.423Zm0 0"/><path style="stroke:none;fill-rule:evenodd;fill:#baccf7;fill-opacity:1" d="M546.75 90.578c-9.465 4.242-19.465 5.45-30 3.625-4.816-1.742-8.816-4.64-12-8.695-7.434-1.5-14.438-.774-21 2.172C467.406 85 454.156 78.234 444 67.39c-1.805-3.156-2.555-6.535-2.25-10.144h-16.5c.09 3.652-.91 7.035-3 10.145.477 1.664 1.477 2.87 3 3.625l13.5 13.043c9.46 4.386 19.46 6.078 30 5.07-11.734 1.676-23.734 1.918-36 .726a29.262 29.262 0 0 0-6-5.074 23.455 23.455 0 0 0-3-5.797 58.077 58.077 0 0 0-13.5-9.418c2.691-4.199 4.191-9.27 4.5-15.218a33.192 33.192 0 0 1-10.5-1.45c-2.152-1.343-4.152-3.035-6-5.074 2.469-2.25 2.969-4.668 1.5-7.246 7.57-2.812 14.32-6.918 20.25-12.316 1.113-2.813.863-5.469-.75-7.973 6.063-1.195 12.063-.957 18 .727-5.012 2.664-5.516 5.804-1.5 9.418-1.73 1.324-1.48 2.535.75 3.625.5-.485 1-.97 1.5-1.45.7 2.075 1.95 3.766 3.75 5.07-4.566.524-5.066 1.489-1.5 2.9-.5.483-1 .968-1.5 1.448 2.852 2.395 5.852 2.88 9 1.45-1.242 1.328-2.742 2.293-4.5 2.898 1.89 1.613 3.64 1.855 5.25.727 1.715 3.503 4.215 4.468 7.5 2.898 2.395 3.941 5.645 7.082 9.75 9.422-.5.48-1 .965-1.5 1.45 2.625 1.655 5.375 2.382 8.25 2.171 2.379 3.5 4.125 6.64 5.25 9.422 5.824 1.617 11.074 1.86 15.75.722 8.348 3.618 16.348 6.516 24 8.696a5.527 5.527 0 0 1 2.25-1.45 148.876 148.876 0 0 0 18.75 8.696c2.5-.48 5-.965 7.5-1.45.695.864.945 1.829.75 2.9Zm0 0"/><path style="stroke:none;fill-rule:evenodd;fill:#c0d0f5;fill-opacity:1" d="M405.75 16.668c19.48.996 38.98 1.719 58.5 2.172 1.117 1.508 2.617 2.23 4.5 2.176 2.238 5.617 1.234 10.687-3 15.214 1.508 1.942 3.008 3.872 4.5 5.797-.828 2.028-1.324 3.961-1.5 5.797 2.629 2.899 4.629 6.04 6 9.422 5.285.621 9.785 2.797 13.5 6.524a597.205 597.205 0 0 1 33 7.246c10 3.863 20 7.726 30 11.593a50.41 50.41 0 0 0 12 .723c-1.145 2.555-3.145 4.004-6 4.348-3.867-.153-7.367.812-10.5 2.898.195-1.07-.055-2.035-.75-2.898-2.5.484-5 .968-7.5 1.449a148.876 148.876 0 0 1-18.75-8.695 5.527 5.527 0 0 0-2.25 1.449c-7.652-2.18-15.652-5.078-24-8.695-4.676 1.136-9.926.894-15.75-.723-1.125-2.781-2.871-5.922-5.25-9.422-2.875.21-5.625-.516-8.25-2.172.5-.484 1-.969 1.5-1.45-4.105-2.339-7.355-5.48-9.75-9.421-3.285 1.57-5.785.605-7.5-2.898-1.61 1.128-3.36.886-5.25-.727 1.758-.605 3.258-1.57 4.5-2.898-3.148 1.43-6.148.945-9-1.45.5-.48 1-.965 1.5-1.449-3.566-1.41-3.066-2.375 1.5-2.898-1.8-1.305-3.05-2.996-3.75-5.07-.5.48-1 .964-1.5 1.449-2.23-1.09-2.48-2.301-.75-3.625-4.016-3.614-3.512-6.754 1.5-9.418-5.938-1.684-11.938-1.922-18-.727 1.613 2.504 1.863 5.16.75 7.973-5.93 5.398-12.68 9.504-20.25 12.316 1.469 2.578.969 4.996-1.5 7.246 1.848 2.04 3.848 3.73 6 5.074h-7.5c.117-2.074-.383-4.003-1.5-5.796a6.701 6.701 0 0 1 3-2.176c-1.71-1.074-1.71-2.281 0-3.621a6.701 6.701 0 0 0-3-2.176c5.438.02 9.938-1.91 13.5-5.797-1.21-2.473-3.21-3.68-6-3.621-.652-4.836.348-9.188 3-13.043Zm0 0"/><path style="stroke:none;fill-rule:evenodd;fill:#c5d3f2;fill-opacity:1" d="M468.75 21.016c5.953.699 11.453 2.632 16.5 5.797 1.324 6.39-.68 11.46-6 15.214 1.242 1.328 2.742 2.293 4.5 2.899-2.184.613-2.934 1.82-2.25 3.625 3.004 4.785 7.004 6.719 12 5.797 5.48 3.328 11.48 5.261 18 5.797.5-.485 1-.965 1.5-1.45.582 1.344 1.582 2.313 3 2.899 1.852-1.617 3.602-1.617 5.25 0a6.47 6.47 0 0 0 2.25-2.899c1 1.934 2.5 3.383 4.5 4.348 2.5-.484 5-.965 7.5-1.45l5.25 7.247c4.918 1.914 10.414 3.847 16.5 5.797 2.734-1.344 4.734-.38 6 2.898 1.793-.5 1.793-1.222 0-2.172 2.316-.422 4.316-1.386 6-2.898-1.438-1.664-.938-3.113 1.5-4.348-1-.484-2-.969-3-1.449 2-.484 4-.969 6-1.45-.5-.484-1-.968-1.5-1.448a14.332 14.332 0 0 0 3.75-2.176c6.125 2.855 13.125 4.785 21 5.797.574-.805 1.324-1.29 2.25-1.45v7.246c-6.145-1.136-11.145.555-15 5.075-7.438.62-14.438 2.312-21 5.07a50.41 50.41 0 0 1-12-.723c-10-3.867-20-7.73-30-11.593a597.205 597.205 0 0 0-33-7.246c-3.715-3.727-8.215-5.903-13.5-6.524-1.371-3.383-3.371-6.523-6-9.422.176-1.836.672-3.77 1.5-5.797-1.492-1.925-2.992-3.855-4.5-5.797 4.234-4.527 5.238-9.597 3-15.214Zm0 0"/><path style="stroke:none;fill-rule:evenodd;fill:#cfd7ea;fill-opacity:1" d="M512.25 21.016c3.16 2.566 5.66 5.707 7.5 9.418 5.137 2.402 10.137 1.921 15-1.45-.5-.48-1-.964-1.5-1.449 5.52-.504 10.52-2.195 15-5.07 1.773 4.148 1.773 8.496 0 13.043-2.215 3.344-5.215 6-9 7.969-7.223.234-13.973 1.925-20.25 5.074-4.602-2.27-7.852-5.649-9.75-10.145 2.766-5.343 3.766-11.14 3-17.39Zm0 0"/><path style="stroke:none;fill-rule:evenodd;fill:#cad5ef;fill-opacity:1" d="M587.25-.727h12v66.668c-.926.16-1.676.645-2.25 1.45-7.875-1.012-14.875-2.942-21-5.797a14.332 14.332 0 0 1-3.75 2.176c.5.48 1 .964 1.5 1.449-2 .48-4 .965-6 1.449 1 .48 2 .965 3 1.45-2.438 1.234-2.938 2.683-1.5 4.347-1.684 1.512-3.684 2.476-6 2.898 1.793.95 1.793 1.672 0 2.172-1.266-3.277-3.266-4.242-6-2.898-6.086-1.95-11.582-3.883-16.5-5.797l-5.25-7.246-7.5 1.449c-2-.965-3.5-2.414-4.5-4.348a6.47 6.47 0 0 1-2.25 2.899c-1.648-1.617-3.398-1.617-5.25 0-1.418-.586-2.418-1.555-3-2.899-.5.485-1 .965-1.5 1.45-6.52-.536-12.52-2.47-18-5.797-4.996.922-8.996-1.012-12-5.797-.684-1.805.066-3.012 2.25-3.625-1.758-.606-3.258-1.57-4.5-2.899 5.32-3.754 7.324-8.824 6-15.215a7227.931 7227.931 0 0 1 21 14.493 45.444 45.444 0 0 1 3-2.899c1.898 4.496 5.148 7.875 9.75 10.145 6.277-3.149 13.027-4.84 20.25-5.074 3.785-1.97 6.785-4.625 9-7.97 2.418 6.731 7.414 9.388 15 7.97-9.758-.254-13.008-4.844-9.75-13.766a94.732 94.732 0 0 0 9.75-10.145c-3.543-9.617-.043-14.449 10.5-14.492 4.863-.078 9.363.89 13.5 2.899v-8.7Zm0 0"/><path style="stroke:none;fill-rule:evenodd;fill:#dbdada;fill-opacity:1" d="M324.75-.727h55.5c-.32 2.383.18 4.559 1.5 6.524 6.855 2.57 12.855 6.195 18 10.871.332 4.027-.168 7.89-1.5 11.594-1.688 1.758-3.688 3.207-6 4.347-8.457-2.53-16.453-1.804-24 2.172 1.61 1.07 2.613 2.52 3 4.348-3.164 2.531-4.914 5.672-5.25 9.422a30.68 30.68 0 0 1 5.25 3.625c7.43-.59 13.43 1.824 18 7.246a71.882 71.882 0 0 1-10.5 6.52c4.938 4.73 10.938 6.906 18 6.523a550.075 550.075 0 0 0 28.5 24.637c4.988.199 9.488 1.648 13.5 4.347 4.473.723 8.973.965 13.5.727 1.379 9.687-2.121 17.66-10.5 23.91.5.484 1 .969 1.5 1.45-3.027.651-5.777 1.859-8.25 3.624-1.902-.168-3.902-.652-6-1.45-3.348 2.868-5.102 6.009-5.25 9.419a415.858 415.858 0 0 1-25.5 18.844c-13.816 3.316-27.816 4.28-42 2.898-4.469-6.988-10.469-12.062-18-15.219-1.602-1.355-3.602-1.836-6-1.449-3.867-.695-7.367-2.144-10.5-4.348a7.613 7.613 0 0 0 4.5-.726c-2.52-4.203-5.52-8.793-9-13.766 1-1.933 2-3.867 3-5.797-1.781.278-3.781-.445-6-2.175.5-.48 1-.965 1.5-1.45-7.828-2.605-8.578-5.746-2.25-9.418 10.402 6.125 21.152 10.715 32.25 13.766 6.5.484 13 .969 19.5 1.45a5150.54 5150.54 0 0 0 23.25 5.073c2.934-.203 5.184-1.414 6.75-3.624-3.566-1.41-3.066-2.38 1.5-2.899-2.36-.512-4.863-1.477-7.5-2.898 1.7-1.473 1.203-2.438-1.5-2.899 4-1.449 4-2.898 0-4.347a10.975 10.975 0 0 0 4.5-2.899l-4.5-4.348c1.5-.484 3-.964 4.5-1.449a619.895 619.895 0 0 0-4.5-5.797l3-1.449c-2.36-.512-4.863-1.476-7.5-2.898 2.184-.614 2.934-1.82 2.25-3.625-1.078 1.379-2.328 1.62-3.75.726-1.371-3.383-3.621-6.039-6.75-7.972-.5.484-1 .968-1.5 1.449-10.656-4.04-17.902-10.559-21.75-19.563-2.668 1.418-5.168.934-7.5-1.449.5-.484 1-.969 1.5-1.45-2.5-1.933-5-3.866-7.5-5.796 4-.969 4-1.934 0-2.898 2-1.454 2-2.903 0-4.352 3.383-.902 5.883-2.836 7.5-5.797-1-.48-2-.965-3-1.45a35.2 35.2 0 0 1 7.5-2.898c-.5-.48-1-.964-1.5-1.449 3.566-1.41 3.066-2.379-1.5-2.898 5.625-4.985 4.625-10.297-3-15.942.5-.48 1-.964 1.5-1.449-4-.965-4-1.933 0-2.898-2.36-.512-4.863-1.477-7.5-2.899 2.184-.613 2.934-1.82 2.25-3.62-3.145-.282-6.395-.282-9.75 0-1.223-2.575-2.973-3.544-5.25-2.9-.695-.862-.945-1.827-.75-2.902Zm0 0"/><path style="stroke:none;fill-rule:evenodd;fill:#cbd6ef;fill-opacity:1" d="M186.75 15.219c1.227 3.578 1.977 7.441 2.25 11.594 3.926 5.238 2.426 5.722-4.5 1.449-.398 2.41.352 4.582 2.25 6.52-.5.484-1 .968-1.5 1.448 3.266 1.743 6.766 2.47 10.5 2.176.629 1.047 1.625 1.77 3 2.172 4.5.484 9 .969 13.5 1.45a82.439 82.439 0 0 0 13.5 5.796c2 .969 2 1.934 0 2.903a91.905 91.905 0 0 0 13.5 8.695c-.344.578-.844.816-1.5.723a243.162 243.162 0 0 0-31.5-16.668 255.053 255.053 0 0 1-25.5-4.348 13.657 13.657 0 0 1-2.25-3.621c-3.152-9.375-.402-16.137 8.25-20.29Zm0 0"/><path style="stroke:none;fill-rule:evenodd;fill:#cad5ee;fill-opacity:1" d="M399.75 16.668h6c-2.652 3.855-3.652 8.207-3 13.043 2.79-.059 4.79 1.148 6 3.621-3.563 3.887-8.063 5.816-13.5 5.797a6.701 6.701 0 0 1 3 2.176c-1.71 1.34-1.71 2.547 0 3.62a6.701 6.701 0 0 0-3 2.177c1.117 1.793 1.617 3.722 1.5 5.796h7.5a33.192 33.192 0 0 0 10.5 1.45c-.309 5.949-1.809 11.02-4.5 15.218a58.077 58.077 0 0 1 13.5 9.418 23.455 23.455 0 0 1 3 5.797 38.659 38.659 0 0 1-10.5-.722c.5-.485 1-.97 1.5-1.45-4-1.933-8-3.867-12-5.796.5-.485 1-.97 1.5-1.45-2.5-1.449-4.5-3.383-6-5.797-5.691.133-10.691-1.316-15-4.347 2-.485 4-.969 6-1.45 1.586-2.722 1.586-5.14 0-7.246-2-.968-4-1.933-6-2.898 2-.969 2-1.934 0-2.898-5.785-.118-11.285-1.082-16.5-2.903 5.719-1.828 11.719-2.793 18-2.898a87.915 87.915 0 0 0-12-9.418c8-.969 16-1.934 24-2.899-.941-1.328-1.441-2.777-1.5-4.347 1.332-3.703 1.832-7.567 1.5-11.594Zm0 0"/><path style="stroke:none;fill-rule:evenodd;fill:#b4c7fa;fill-opacity:1" d="M483.75 87.68h-10.5c-1.336.886-2.836 1.367-4.5 1.449-10.54 1.008-20.54-.684-30-5.07l-13.5-13.043c-1.523-.754-2.523-1.961-3-3.625 2.09-3.11 3.09-6.493 3-10.145h16.5c-.305 3.61.445 6.988 2.25 10.145C454.156 78.234 467.406 85 483.75 87.68Zm0 0"/><path style="stroke:none;fill-rule:evenodd;fill:#ced7ed;fill-opacity:1" d="M599.25 73.188v2.898c-1.492-.125-2.742.36-3.75 1.45l-3 14.491c-3.531 3.043-7.531 5.461-12 7.246a71.245 71.245 0 0 0-20.25-5.796c-1.648-1.598-2.652-3.532-3-5.797 2.855-.344 4.855-1.793 6-4.348 6.563-2.758 13.563-4.45 21-5.07 3.855-4.52 8.855-6.211 15-5.075Zm0 0"/><path style="stroke:none;fill-rule:evenodd;fill:#fbfcfe;fill-opacity:1" d="M546.75 90.578c3.133-2.086 6.633-3.05 10.5-2.898.348 2.265 1.352 4.199 3 5.797-4.5 1.449-7.5 4.347-9 8.699-13.113-3.73-26.113-3.73-39 0-1.816.625-3.316 1.59-4.5 2.898a101.751 101.751 0 0 1-10.5 4.348c-2.313 1.16-4.813 1.64-7.5 1.45-4.121-3.927-9.121-6.34-15-7.247.383-5.465-.117-10.777-1.5-15.945h10.5c6.563-2.946 13.566-3.672 21-2.172 3.184 4.055 7.184 6.953 12 8.695 10.535 1.824 20.535.617 30-3.625Zm0 0"/><path style="stroke:none;fill-rule:evenodd;fill:#cbd5ed;fill-opacity:1" d="M426.75 84.781a29.262 29.262 0 0 1 6 5.074c12.266 1.192 24.266.95 36-.726 1.664-.082 3.164-.563 4.5-1.45 1.383 5.169 1.883 10.481 1.5 15.946-3.652 3.566-7.652 6.95-12 10.145-1.871 2.183-1.871 4.355 0 6.52-1.941.71-3.941.952-6 .726.09 3.695 2.09 5.867 6 6.52-.5.484-1 .968-1.5 1.448 2.348.883 4.352 2.09 6 3.625h-1.5c-3.555 3.258-5.555 6.88-6 10.868-9.121 3.226-19.121 5.16-30 5.796a26.648 26.648 0 0 1 3 5.075h-1.5c-3.637-.446-7.137.039-10.5 1.449a5.313 5.313 0 0 0 1.5 2.176c-1.941.707-3.941.949-6 .722-.168-.894-.664-1.617-1.5-2.172 3.336-3.222 7.332-5.156 12-5.796-.84-2.274.16-4.204 3-5.801 4.527-2.27 8.527-5.168 12-8.696 3.68-1.05 7.18-2.5 10.5-4.347-1.621-4.043-1.621-8.149 0-12.317.2-3.046 1.7-5.218 4.5-6.523-2.594-3.453-3.09-7.078-1.5-10.867 2.766 2.082 5.266 1.84 7.5-.727-6.828-1.761-13.828-2.726-21-2.898 2-.965 2-1.934 0-2.899-8.527.97-15.527-1.445-21-7.246 2.73-.289 4.73-1.5 6-3.625Zm0 0"/><path style="stroke:none;fill-rule:evenodd;fill:#d5dae5;fill-opacity:1" d="M224.25 42.754c7.863 5.172 14.863 11.453 21 18.84 11.54 7.082 22.04 13.843 31.5 20.289.367 4.305 2.867 6.238 7.5 5.797-.328 1.703.172 3.152 1.5 4.347 4.441.993 4.941 2.2 1.5 3.625 2.703.461 3.2 1.426 1.5 2.899l6 2.898c-.5.485-1 .965-1.5 1.45a70.604 70.604 0 0 1 8.25 6.523c1.668 1.824 1.922 3.516.75 5.07 6.8 1.672 9.8 5.535 9 11.594a254.065 254.065 0 0 0 10.5 13.77c3.133 2.203 6.633 3.652 10.5 4.347-5.008.629-9.508-.336-13.5-2.898-7.387-9.32-15.637-18.016-24.75-26.086-12.86-18.707-29.11-33.926-48.75-45.653-1.64-3.953-4.14-7.093-7.5-9.421.656.093 1.156-.145 1.5-.723a91.905 91.905 0 0 1-13.5-8.695c2-.97 2-1.934 0-2.903a82.439 82.439 0 0 1-13.5-5.797c-4.5-.48-9-.965-13.5-1.449-1.375-.402-2.371-1.125-3-2.172.926-.16 1.676-.644 2.25-1.449a113.413 113.413 0 0 0 17.25 2.172c2.488 2.41 5.488 3.617 9 3.625Zm0 0"/><path style="stroke:none;fill-rule:evenodd;fill:#c1d0f4;fill-opacity:1" d="M599.25 76.086v34.785a13.01 13.01 0 0 0-6 .723l1.5 1.449c-1.5.484-3 .965-4.5 1.45.5.484 1 .968 1.5 1.448-4.117 1.926-7.617 4.586-10.5 7.973-4.637-2.89-9.637-5.062-15-6.523a29.12 29.12 0 0 0-6-5.07c-5.152-1.602-8.152-4.981-9-10.145 1.5-4.352 4.5-7.25 9-8.7a71.245 71.245 0 0 1 20.25 5.797c4.469-1.785 8.469-4.203 12-7.246l3-14.492c1.008-1.09 2.258-1.574 3.75-1.45Zm0 0"/><path style="stroke:none;fill-rule:evenodd;fill:#b1c4fa;fill-opacity:1" d="M551.25 102.176c.848 5.164 3.848 8.543 9 10.144.078 5-2.422 8.14-7.5 9.418 1 .485 2 .969 3 1.45.84 2.269-.16 4.203-3 5.796 3.754 2.168 6.254 5.309 7.5 9.422a6.664 6.664 0 0 1-3 2.172c3 .969 5 2.899 6 5.797-.582 2.621-.582 5.04 0 7.25-2.45.715-4.953.953-7.5.723-2.871.41-5.371-.07-7.5-1.45 2.79.055 4.79-1.152 6-3.625-2.703-.457-3.2-1.425-1.5-2.898-3.313-2.117-4.313-4.773-3-7.969a6.672 6.672 0 0 0-3-2.176c.5-.48 1-.964 1.5-1.449-2.21-1.027-3.21-2.719-3-5.07-4.54.39-8.54-.82-12-3.625 1.656-2.434 1.156-4.61-1.5-6.52-5.152-.332-9.652-2.746-13.5-7.246-2-2.898-2-5.797 0-8.695-1.785-1.348-3.781-1.832-6-1.45 12.887-3.73 25.887-3.73 39 0Zm0 0"/><path style="stroke:none;fill-rule:evenodd;fill:#aac0fb;fill-opacity:1" d="M512.25 102.176c2.219-.383 4.215.101 6 1.449-2 2.898-2 5.797 0 8.695 3.848 4.5 8.348 6.914 13.5 7.246 2.656 1.91 3.156 4.086 1.5 6.52 3.46 2.805 7.46 4.016 12 3.625-.21 2.351.79 4.043 3 5.07-.5.485-1 .969-1.5 1.45a6.672 6.672 0 0 1 3 2.175c-1.313 3.196-.313 5.852 3 7.969-1.7 1.473-1.203 2.441 1.5 2.898-1.21 2.473-3.21 3.68-6 3.625a33.192 33.192 0 0 0-10.5-1.449c2.18-1.164 4.676-1.887 7.5-2.176-1.375-2.875-3.875-5.773-7.5-8.695 1.816-1.613 1.816-3.3 0-5.07-4.176-2.34-6.926-5.723-8.25-10.145-.5.48-1 .965-1.5 1.45-6.555-4.81-13.055-8.672-19.5-11.594a34.873 34.873 0 0 1-.75-10.145c1.184-1.308 2.684-2.273 4.5-2.898Zm0 0"/><path style="stroke:none;fill-rule:evenodd;fill:#bcccf6;fill-opacity:1" d="M474.75 103.625c2.102 8.121-.898 13.195-9 15.215 2 3.383 2 6.765 0 10.144 2.79.871 3.29 2.078 1.5 3.625-1.648-1.535-3.652-2.742-6-3.625.5-.48 1-.964 1.5-1.449-3.91-.652-5.91-2.824-6-6.52a13.065 13.065 0 0 0 6-.726c-1.871-2.164-1.871-4.336 0-6.52 4.348-3.195 8.348-6.578 12-10.144Zm0 0"/><path style="stroke:none;fill-rule:evenodd;fill:#a5bbfb;fill-opacity:1" d="M507.75 105.074a34.873 34.873 0 0 0 .75 10.145c6.445 2.922 12.945 6.785 19.5 11.594.5-.485 1-.97 1.5-1.45 1.324 4.422 4.074 7.805 8.25 10.145 1.816 1.77 1.816 3.457 0 5.07 3.625 2.922 6.125 5.82 7.5 8.695-2.824.29-5.32 1.012-7.5 2.176h-10.5c1.008-1.113 2.258-2.078 3.75-2.898.926-1.375.676-2.582-.75-3.625 1-.965 2-1.93 3-2.899-2.21-1.027-3.21-2.718-3-5.07a145.92 145.92 0 0 0-18-5.074c-1.078-3.703-3.578-5.395-7.5-5.07-2.25-5.551-3.25-11.348-3-17.391h-4.5a101.751 101.751 0 0 0 10.5-4.348Zm0 0"/><path style="stroke:none;fill-rule:evenodd;fill:#b9cbf8;fill-opacity:1" d="M599.25 110.871v92.754a13.01 13.01 0 0 0-6 .723c.5.484 1 .968 1.5 1.449-10.36 3.36-16.86.219-19.5-9.422-3.195-3.402-3.7-7.27-1.5-11.594 7.422-2.14 14.422-5.039 21-8.695a84.94 84.94 0 0 1-24-9.418c-4.441-5.04-9.441-9.145-15-12.32 2.547.23 5.05-.008 7.5-.723-.582-2.21-.582-4.629 0-7.25-1-2.898-3-4.828-6-5.797a6.664 6.664 0 0 0 3-2.172c-1.246-4.113-3.746-7.254-7.5-9.422 2.84-1.593 3.84-3.527 3-5.797-1-.48-2-.964-3-1.449 5.078-1.277 7.578-4.418 7.5-9.418a29.12 29.12 0 0 1 6 5.07c5.363 1.462 10.363 3.633 15 6.524 2.883-3.387 6.383-6.047 10.5-7.973-.5-.48-1-.964-1.5-1.449l4.5-1.449c-.5-.484-1-.965-1.5-1.45a13.01 13.01 0 0 1 6-.722Zm0 0"/><path style="stroke:none;fill-rule:evenodd;fill:#96adfa;fill-opacity:1" d="M497.25 109.422h4.5c-.25 6.043.75 11.84 3 17.39 3.922-.324 6.422 1.368 7.5 5.07a145.92 145.92 0 0 1 18 5.075c-.21 2.352.79 4.043 3 5.07-1 .97-2 1.934-3 2.899 1.426 1.043 1.676 2.25.75 3.625-1.492.82-2.742 1.785-3.75 2.898h-9c-.965-3.914-1.965-7.297-3-10.144-3.367-2.868-6.867-4.317-10.5-4.348a46.736 46.736 0 0 1-6.75-7.246c-4.594.574-9.344 2.027-14.25 4.348.754 1.761 1.254 3.453 1.5 5.07-3.156 1.937-4.156 4.351-3 7.246a29.02 29.02 0 0 1-6 5.074 700.22 700.22 0 0 0 0-18.117c2.54-2.027 3.54-4.687 3-7.969 2.645.207 5.145-.277 7.5-1.449 2.445-4.008 3.441-8.355 3-13.043 2.688.192 5.188-.289 7.5-1.45Zm0 0"/><path style="stroke:none;fill-rule:evenodd;fill:#d6dae1;fill-opacity:1" d="M398.25 28.262c.059 1.57.559 3.02 1.5 4.347-8 .965-16 1.93-24 2.899a87.915 87.915 0 0 1 12 9.418c-6.281.105-12.281 1.07-18 2.898 5.215 1.82 10.715 2.785 16.5 2.903 2 .964 2 1.93 0 2.898 2 .965 4 1.93 6 2.898 1.586 2.106 1.586 4.524 0 7.247-2 .48-4 .964-6 1.449 4.309 3.031 9.309 4.48 15 4.347 1.5 2.414 3.5 4.348 6 5.797-.5.48-1 .965-1.5 1.45 4 1.93 8 3.863 12 5.796-.5.48-1 .965-1.5 1.45 3.465.718 6.965.96 10.5.722-1.27 2.125-3.27 3.336-6 3.625 5.473 5.801 12.473 8.215 21 7.246 2 .965 2 1.934 0 2.899 7.172.172 14.172 1.136 21 2.898-2.234 2.567-4.734 2.809-7.5.727-1.59 3.789-1.094 7.414 1.5 10.867-2.8 1.305-4.3 3.477-4.5 6.523-1.621 4.168-1.621 8.274 0 12.317a49.435 49.435 0 0 1-10.5 4.347c-3.473 3.528-7.473 6.426-12 8.696-2.84 1.597-3.84 3.527-3 5.8-4.668.641-8.664 2.575-12 5.797.836.555 1.332 1.278 1.5 2.172h-1.5c-3.273-.312-5.77.895-7.5 3.625a354.815 354.815 0 0 1-55.5-.726c-.383-5.442-3.383-8.098-9-7.969-.71-2.563-2.21-5.219-4.5-7.973 7.531 3.157 13.531 8.23 18 15.22 14.184 1.382 28.184.417 42-2.9a415.858 415.858 0 0 0 25.5-18.843c.148-3.41 1.902-6.55 5.25-9.418 2.098.797 4.098 1.281 6 1.45 2.473-1.766 5.223-2.974 8.25-3.626-.5-.48-1-.965-1.5-1.45 8.379-6.25 11.879-14.222 10.5-23.91a63.481 63.481 0 0 1-13.5-.726c-4.012-2.699-8.512-4.148-13.5-4.347a550.075 550.075 0 0 1-28.5-24.637c-7.063.383-13.063-1.793-18-6.524a71.882 71.882 0 0 0 10.5-6.52c-4.57-5.421-10.57-7.835-18-7.245A30.68 30.68 0 0 0 366 48.55c.336-3.75 2.086-6.89 5.25-9.422-.387-1.828-1.39-3.277-3-4.348 7.547-3.976 15.543-4.703 24-2.172 2.313-1.14 4.313-2.59 6-4.347Zm0 0"/><path style="stroke:none;fill-rule:evenodd;fill:#bbccf6;fill-opacity:1" d="M465.75 132.61c.844 4.046 2.844 7.43 6 10.144-.754 1.762-1.254 3.453-1.5 5.07a355.899 355.899 0 0 0-33 2.903c-1.785 1.007-3.285 2.218-4.5 3.62a26.648 26.648 0 0 0-3-5.074c10.879-.636 20.879-2.57 30-5.796.445-3.989 2.445-7.61 6-10.868Zm0 0"/><path style="stroke:none;fill-rule:evenodd;fill:#fdfdfe;fill-opacity:1" d="M519.75 151.45h18a33.192 33.192 0 0 1 10.5 1.448c2.129 1.38 4.629 1.86 7.5 1.45 5.559 3.175 10.559 7.28 15 12.32a84.94 84.94 0 0 0 24 9.418c-6.578 3.656-13.578 6.555-21 8.695-2.2 4.324-1.695 8.192 1.5 11.594-.512 1.215-1.512 1.7-3 1.45-4.168-2.208-8.668-3.657-13.5-4.348-1.5-.965-3-1.93-4.5-2.899a93.457 93.457 0 0 0-9-13.043c-1.156-1.73-2.656-3.18-4.5-4.347-2.977-3.86-6.977-6.278-12-7.247-2.96-2.37-5.96-4.789-9-7.246v-7.246Zm0 0"/><path style="stroke:none;fill-rule:evenodd;fill:#a6bcfb;fill-opacity:1" d="M474.75 103.625c5.879.906 10.879 3.32 15 7.246.441 4.688-.555 9.035-3 13.043-2.355 1.172-4.855 1.656-7.5 1.45.54 3.28-.46 5.94-3 7.968a700.22 700.22 0 0 1 0 18.117c-11.781-.77-23.281.438-34.5 3.625-3.594 2.488-7.598 4.18-12 5.07a7301.28 7301.28 0 0 1-19.5 14.493c-4.816.07-9.816-.41-15-1.45 5.645-1.93 11.645-3.136 18-3.62a64.715 64.715 0 0 1 13.5-11.594c-.5-.485-1-.97-1.5-1.45 2.336-.304 4.336-1.03 6-2.175h1.5c1.215-1.403 2.715-2.614 4.5-3.621a355.899 355.899 0 0 1 33-2.903c.246-1.617.746-3.308 1.5-5.07-3.156-2.715-5.156-6.098-6-10.145h1.5c1.79-1.547 1.29-2.754-1.5-3.625 2-3.379 2-6.761 0-10.144 8.102-2.02 11.102-7.094 9-15.215Zm0 0"/><path style="stroke:none;fill-rule:evenodd;fill:#cdd6ea;fill-opacity:1" d="M318.75 141.305c3.992 2.562 8.492 3.527 13.5 2.898 2.398-.387 4.398.094 6 1.45 2.29 2.753 3.79 5.41 4.5 7.972 5.617-.129 8.617 2.527 9 7.969a354.815 354.815 0 0 0 55.5.726c1.73-2.73 4.227-3.937 7.5-3.625-3.238 1.864-4.238 4.278-3 7.246-13.508-.238-27.008 0-40.5.727a5.274 5.274 0 0 1 1.5 2.172c-3.398 1.664-6.898 1.906-10.5.726a5.287 5.287 0 0 1-1.5-2.175 97.29 97.29 0 0 0-16.5-2.172c-2-1.45-2-2.899 0-4.348-2.703-.46-3.2-1.426-1.5-2.898-4.68-1.403-8.18-4.059-10.5-7.973-.457-3.328-1.957-3.809-4.5-1.45-2.277-1.32-4.777-2.527-7.5-3.624-1.129-.969-1.629-2.18-1.5-3.621Zm0 0"/><path style="stroke:none;fill-rule:evenodd;fill:#7a91ef;fill-opacity:1" d="M512.25 151.45h7.5v7.245c1.027 5.489-.473 10.078-4.5 13.77-9 .48-18 .965-27 1.45 1.79 4.773-.207 6.948-6 6.519-10.402-.547-14.402-5.137-12-13.766-5.672-.531-6.672-2.465-3-5.797-.5-.484-1-.969-1.5-1.45 10.707-1.558 19.21-5.421 25.5-11.597 4-.965 8-.965 12 0 2.488 2.41 5.488 3.621 9 3.625Zm0 0"/><path style="stroke:none;fill-rule:evenodd;fill:#849bf4;fill-opacity:1" d="M512.25 151.45c-3.512-.005-6.512-1.216-9-3.626-4-.965-8-.965-12 0-6.29 6.176-14.793 10.04-25.5 11.598.5.48 1 .965 1.5 1.45-3.672 3.331-2.672 5.265 3 5.796-2.402 8.629 1.598 13.219 12 13.766 5.793.43 7.79-1.746 6-6.52 9-.484 18-.969 27-1.45 4.027-3.69 5.527-8.28 4.5-13.769 3.04 2.457 6.04 4.875 9 7.246 2.219 3.993 1.969 7.86-.75 11.594a43.286 43.286 0 0 1-12.75 5.074c.5.48 1 .965 1.5 1.45-7 .48-14 .964-21 1.449-4.55 2.672-9.55 4.12-15 4.347.84 2.27-.16 4.2-3 5.797-7.484.723-14.984.965-22.5.723-3.426-1.516-6.926-1.516-10.5 0-6.363-1.07-11.367-4.21-15-9.418 1.438-1.664.938-3.113-1.5-4.348.582-2.21.582-4.625 0-7.246a72.89 72.89 0 0 0 7.5-3.625c1.375-5.027 4.875-9.133 10.5-12.316a9227.357 9227.357 0 0 1 33-5.797c3-1.934 5.5-4.352 7.5-7.25-.5-.48-1-.965-1.5-1.45 11.309-7.863 20.309-5.687 27 6.524Zm0 0"/><path style="stroke:none;fill-rule:evenodd;fill:#8fa7f8;fill-opacity:1" d="M518.25 151.45h-6c-6.691-12.212-15.691-14.387-27-6.524.5.484 1 .969 1.5 1.449-2 2.898-4.5 5.316-7.5 7.25a9227.357 9227.357 0 0 0-33 5.797c-5.625 3.183-9.125 7.289-10.5 12.316a72.89 72.89 0 0 1-7.5 3.625c.582 2.621.582 5.035 0 7.246 2.438 1.235 2.938 2.684 1.5 4.348 3.633 5.207 8.637 8.348 15 9.418v4.352c-1.738 3.085-4.488 5.02-8.25 5.796-13.54-2.918-26.04-8.23-37.5-15.945-2.867-4.023-2.617-7.887.75-11.594a49.844 49.844 0 0 1 10.5-4.347 7301.28 7301.28 0 0 0 19.5-14.492c4.402-.891 8.406-2.583 12-5.07 11.219-3.188 22.719-4.395 34.5-3.626a29.02 29.02 0 0 0 6-5.074c-1.156-2.895-.156-5.309 3-7.246-.246-1.617-.746-3.309-1.5-5.07 4.906-2.32 9.656-3.774 14.25-4.348a46.736 46.736 0 0 0 6.75 7.246c3.633.031 7.133 1.48 10.5 4.348 1.035 2.847 2.035 6.23 3 10.144Zm0 0"/><path style="stroke:none;fill-rule:evenodd;fill:#bbccf6;fill-opacity:1" d="M332.25 150c2.32 3.914 5.82 6.57 10.5 7.973-1.7 1.472-1.203 2.437 1.5 2.898-2 1.45-2 2.899 0 4.348a97.29 97.29 0 0 1 16.5 2.172 5.287 5.287 0 0 0 1.5 2.175c3.602 1.18 7.102.938 10.5-.726a5.274 5.274 0 0 0-1.5-2.172 566.962 566.962 0 0 1 40.5-.727c-1.145 1.114-2.645 1.84-4.5 2.176-9 .48-18 .965-27 1.45 1.7 1.472 1.203 2.437-1.5 2.898-14.555 1.656-28.555-.274-42-5.797 1.7-1.473 1.203-2.441-1.5-2.898.977-2.333.227-4.508-2.25-6.524a18.145 18.145 0 0 1-.75-7.246Zm0 0"/><path style="stroke:none;fill-rule:evenodd;fill:#b3c6f9;fill-opacity:1" d="M332.25 150c-.238 2.46.008 4.879.75 7.246 2.477 2.016 3.227 4.191 2.25 6.524 2.703.457 3.2 1.425 1.5 2.898 13.445 5.523 27.445 7.453 42 5.797 2.703-.461 3.2-1.426 1.5-2.899 9-.484 18-.968 27-1.449 1.855-.336 3.355-1.062 4.5-2.176-1.238-2.968-.238-5.382 3-7.246h1.5a13.115 13.115 0 0 0 6-.722 5.313 5.313 0 0 1-1.5-2.176c3.363-1.41 6.863-1.895 10.5-1.45-1.664 1.145-3.664 1.872-6 2.176.5.48 1 .965 1.5 1.45a64.715 64.715 0 0 0-13.5 11.593c-6.355.485-12.355 1.692-18 3.621-1.938-.343-3.438.141-4.5 1.45-1.973-3.043-4.473-3.524-7.5-1.45-15.813 2.458-31.313 1.25-46.5-3.62a61.136 61.136 0 0 1-9-6.524v-14.492c2.543-2.36 4.043-1.88 4.5 1.449Zm0 0"/><path style="stroke:none;fill-rule:evenodd;fill:#99b0fb;fill-opacity:1" d="M390.75 174.637c1.781 3.59 4.781 5.039 9 4.347-3.367 3.707-3.617 7.57-.75 11.594 11.46 7.715 23.96 13.027 37.5 15.945 3.762-.777 6.512-2.71 8.25-5.796 1.785 7.199-.715 12.03-7.5 14.492a64.665 64.665 0 0 1-12-1.45c.254-1.917-.246-3.609-1.5-5.074a177.376 177.376 0 0 1-24-8.695 1215.752 1215.752 0 0 0-49.5 0c-6.555-2.238-9.555-6.828-9-13.77l-3-4.347c3.094-1.848 6.594-3.059 10.5-3.621 10.5-.485 21-.969 31.5-1.45 1.32-1.027 2.32-2.234 3-3.625 3.027-2.074 5.527-1.593 7.5 1.45Zm0 0"/><path style="stroke:none;fill-rule:evenodd;fill:#f4f6fe;fill-opacity:1" d="M395.25 173.188c5.184 1.039 10.184 1.519 15 1.449a49.844 49.844 0 0 0-10.5 4.347c-4.219.692-7.219-.757-9-4.347 1.063-1.309 2.563-1.793 4.5-1.45Zm0 0"/><path style="stroke:none;fill-rule:evenodd;fill:#a5bbfb;fill-opacity:1" d="M327.75 163.043a61.136 61.136 0 0 0 9 6.523c15.188 4.871 30.688 6.079 46.5 3.621-.68 1.391-1.68 2.598-3 3.625-10.5.481-21 .965-31.5 1.45-3.906.562-7.406 1.773-10.5 3.62-9.719-2.769-13.215-9.05-10.5-18.839Zm0 0"/><path style="stroke:none;fill-rule:evenodd;fill:#98affa;fill-opacity:1" d="M528.75 165.941c5.023.97 9.023 3.387 12 7.246.645 4.875-.855 8.981-4.5 12.32a136.924 136.924 0 0 0-22.5 6.52c1.71 1.344 1.71 2.551 0 3.625-14.945-.41-29.445 1.282-43.5 5.075-3.875-1.297-7.875-1.778-12-1.454-1-.964-2-1.93-3-2.898 7.516.242 15.016 0 22.5-.723 2.84-1.597 3.84-3.527 3-5.797 5.45-.226 10.45-1.675 15-4.347 7-.485 14-.969 21-1.45-.5-.484-1-.968-1.5-1.449a43.286 43.286 0 0 0 12.75-5.074c2.719-3.734 2.969-7.601.75-11.594Zm0 0"/><path style="stroke:none;fill-rule:evenodd;fill:#cad5ef;fill-opacity:1" d="M141.75 221.016a304.894 304.894 0 0 1-22.5-7.246c-7.742 1.765-14.492.8-20.25-2.899a34.873 34.873 0 0 1-.75-10.144c-.629-4.098.871-7.235 4.5-9.422 7.29-1.403 14.29-.68 21 2.172a3255.31 3255.31 0 0 1 39-9.418c12.527-2.524 23.277.617 32.25 9.418 1.133 4.062.633 7.93-1.5 11.597a158.574 158.574 0 0 1-21.75 13.766 346.613 346.613 0 0 0-30 2.176Zm0 0"/><path style="stroke:none;fill-rule:evenodd;fill:#a3b9fc;fill-opacity:1" d="M341.25 186.23c-.555 6.942 2.445 11.532 9 13.77 16.488-.336 32.988-.336 49.5 0a177.376 177.376 0 0 0 24 8.695c1.254 1.465 1.754 3.157 1.5 5.075a64.665 64.665 0 0 0 12 1.449c-1.52 1.699-3.52 2.664-6 2.898a162.426 162.426 0 0 1-27-6.523 3631.524 3631.524 0 0 0-72-4.348c-3.813-2.68-5.313-6.3-4.5-10.871.375-2.418 1.379-4.594 3-6.52a48.81 48.81 0 0 1 10.5-3.625Zm0 0"/><path style="stroke:none;fill-rule:evenodd;fill:#b1c5fa;fill-opacity:1" d="M554.25 190.578c1.5.969 3 1.934 4.5 2.899 2.496 6.289.996 11.601-4.5 15.945a365.668 365.668 0 0 1-27 5.07c-6.867 4.309-14.367 7.207-22.5 8.696-1.254 1.464-1.754 3.156-1.5 5.074a384.916 384.916 0 0 1-42 2.172c-2.926-2.512-4.426-5.653-4.5-9.418 2.238-4.094 5.738-6.508 10.5-7.246 6.52.238 13.02-.004 19.5-.727 10.25-2.406 19.25-5.547 27-9.418 2 .238 4 .48 6 .723-1.71 1.074-1.71 2.28 0 3.625 6.457 3.87 11.957 2.906 16.5-2.899a80.536 80.536 0 0 1 15-2.176c3.71-3.699 4.71-7.804 3-12.32Zm0 0"/><path style="stroke:none;fill-rule:evenodd;fill:#fbfcfe;fill-opacity:1" d="M455.25 196.375c1 .969 2 1.934 3 2.898.5 1.454 1.5 2.418 3 2.903.602 4.71 2.602 8.578 6 11.594-4.762.738-8.262 3.152-10.5 7.246-3.656.558-6.656 2.25-9 5.07a175.88 175.88 0 0 1-22.5.726c1.371-3.265 3.371-6.167 6-8.695 2.48-.234 4.48-1.199 6-2.898 6.785-2.461 9.285-7.293 7.5-14.492v-4.352c3.574-1.516 7.074-1.516 10.5 0Zm0 0"/><path style="stroke:none;fill-rule:evenodd;fill:#9fb6fb;fill-opacity:1" d="M540.75 173.188c1.844 1.167 3.344 2.617 4.5 4.347 1.727 7.23-.773 12.3-7.5 15.219 1.684 2.336.934 4.027-2.25 5.07-2.3-.64-4.55-1.125-6.75-1.449a6.701 6.701 0 0 0-3 2.176 313.59 313.59 0 0 0-21 2.898c-3.828 1.246-7.324 2.938-10.5 5.074a84.744 84.744 0 0 1-27 .723 29.12 29.12 0 0 0-6-5.07c-1.5-.485-2.5-1.45-3-2.903 4.125-.324 8.125.157 12 1.454 14.055-3.793 28.555-5.485 43.5-5.075 1.71-1.074 1.71-2.28 0-3.625a136.924 136.924 0 0 1 22.5-6.52c3.645-3.339 5.145-7.445 4.5-12.32Zm0 0"/><path style="stroke:none;fill-rule:evenodd;fill:#aac0fb;fill-opacity:1" d="M545.25 177.535a93.457 93.457 0 0 1 9 13.043c1.71 4.516.71 8.621-3 12.32a80.536 80.536 0 0 0-15 2.176c-4.543 5.805-10.043 6.77-16.5 2.899-1.71-1.344-1.71-2.551 0-3.625-2-.243-4-.485-6-.723-7.75 3.871-16.75 7.012-27 9.418-6.48.723-12.98.965-19.5.727-3.398-3.016-5.398-6.883-6-11.594a29.12 29.12 0 0 1 6 5.07 84.744 84.744 0 0 0 27-.723c3.176-2.136 6.672-3.828 10.5-5.074a313.59 313.59 0 0 1 21-2.898 6.701 6.701 0 0 1 3-2.176c2.2.324 4.45.809 6.75 1.45 3.184-1.044 3.934-2.735 2.25-5.071 6.727-2.918 9.227-7.988 7.5-15.219Zm0 0"/><path style="stroke:none;fill-rule:evenodd;fill:#bfcff5;fill-opacity:1" d="M575.25 196.375c2.64 9.64 9.14 12.781 19.5 9.422-.5-.48-1-.965-1.5-1.45a13.01 13.01 0 0 1 6-.722v20.29c-9.5 3.062-19 6.444-28.5 10.144a6.47 6.47 0 0 1-2.25-2.899c-.582 1.344-1.582 2.313-3 2.899a6681.39 6681.39 0 0 1-74.25 24.636c-1.387-1.652-2.637-1.652-3.75 0-2.621-2.754-4.871-5.652-6.75-8.695 2.828-2.25 4.328-5.148 4.5-8.695 3.398-3.106 7.398-5.52 12-7.246 3.129 1.23 6.129 1.714 9 1.449 5.633-3.207 11.633-6.828 18-10.871-.5-.48-1-.965-1.5-1.45 12.7-.535 24.7-2.468 36-5.796-1.262-2.414-.512-2.657 2.25-.723a20.83 20.83 0 0 0 6-4.348c1.719 1.387 3.219.907 4.5-1.449.746-4.324.996-8.672.75-13.047 1.488.25 2.488-.234 3-1.449Zm0 0"/><path style="stroke:none;fill-rule:evenodd;fill:#afc3fb;fill-opacity:1" d="M327.75 196.375c-.813 4.57.688 8.191 4.5 10.871 24.016 1.211 48.016 2.66 72 4.348a162.426 162.426 0 0 0 27 6.523c-2.629 2.528-4.629 5.43-6 8.696-2.098 2.945-5.098 4.394-9 4.347-4.176-3.719-9.18-6.375-15-7.972-14.29.085-28.29-1.602-42-5.07-8.469 1.109-16.969.866-25.5-.727a24.965 24.965 0 0 1-6-3.621c-1.492.125-2.742-.36-3.75-1.45-3.973-6.675-2.723-11.988 3.75-15.945Zm0 0"/><path style="stroke:none;fill-rule:evenodd;fill:#b8caf9;fill-opacity:1" d="M327.75 213.77a24.965 24.965 0 0 0 6 3.62c8.531 1.594 17.031 1.837 25.5.727 13.71 3.469 27.71 5.156 42 5.07 5.82 1.598 10.824 4.254 15 7.973 3.902.047 6.902-1.402 9-4.347-.336 12.25-6.336 15.628-18 10.144a37.083 37.083 0 0 1-11.25 2.898c-6.5-.968-13-1.933-19.5-2.898-4.469-.512-8.219.7-11.25 3.621-2.5.484-5 .969-7.5 1.45 1 .484 2 .968 3 1.449-1.71 1.074-1.71 2.285 0 3.625-3.738 1.507-3.738 2.714 0 3.625-2 .48-4 .964-6 1.449 1.055 2.273 3.055 4.691 6 7.246-2.5.48-5 .965-7.5 1.45 1 .48 2 .964 3 1.448-3.324.246-6.324 1.211-9 2.899a3027.779 3027.779 0 0 0-60 4.347c-5.527-2.773-7.027-6.882-4.5-12.32 2.074-4.195 5.074-7.816 9-10.871a165.895 165.895 0 0 1 30.75-5.07c-.828-7.137-.828-14.383 0-21.739 2.063-1.746 3.813-3.68 5.25-5.796Zm0 0"/><path style="stroke:none;fill-rule:evenodd;fill:#c2d1f4;fill-opacity:1" d="M98.25 200.727A34.873 34.873 0 0 0 99 210.87c5.758 3.7 12.508 4.664 20.25 2.899a304.894 304.894 0 0 0 22.5 7.246c-1.875 3.754-4.375 7.136-7.5 10.144-2.219-1.457-4.719-1.457-7.5 0a282.46 282.46 0 0 1-9.75-4.347c-5.316 1.753-10.566 1.753-15.75 0-4.797-1.653-9.297-4.551-13.5-8.696a57.441 57.441 0 0 1 .75-13.043c2.262-3.508 5.512-4.957 9.75-4.347Zm0 0"/><path style="stroke:none;fill-rule:evenodd;fill:#c6d3f1;fill-opacity:1" d="M599.25 223.914v17.39c-9.273 3.055-19.773 5.712-31.5 7.97l3 1.453c-3.926 3.074-6.926 5.972-9 8.695a54.934 54.934 0 0 0 10.5 5.797c-5.535 2.265-11.035 5.164-16.5 8.695-2.5.48-5 .965-7.5 1.45 4.164 2.577 3.664 4.027-1.5 4.347 1.5.48 3 .965 4.5 1.45-3.96.468-7.46 1.917-10.5 4.347-7.5.48-15 .965-22.5 1.449.5.48 1 .965 1.5 1.45a36.113 36.113 0 0 0-9 3.62 478.751 478.751 0 0 0-31.5-5.07c-5.5-.969-11-.969-16.5 0 3.074.762 5.824 1.969 8.25 3.621.684 1.805-.066 3.012-2.25 3.625.5.48 1 .965 1.5 1.45-5.023.363-9.777 1.57-14.25 3.62a296.784 296.784 0 0 1-17.25-1.449c-3.07 2.2-6.57 3.406-10.5 3.625.5.485 1 .965 1.5 1.45-15.266.456-30.516 1.18-45.75 2.175a53.479 53.479 0 0 1-10.5-1.449c-18.613.832-35.113 2.281-49.5 4.348-6.516.199-12.766-.528-18.75-2.176-33-.48-66-.965-99-1.45a3785.434 3785.434 0 0 0-16.5-3.62 590.95 590.95 0 0 0-16.5 5.796c-10.691 2.176-21.191 1.692-31.5-1.449-2.809-.027-3.309.696-1.5 2.172a149.358 149.358 0 0 1-21.75 3.625 750.389 750.389 0 0 1-66.75.723c-2.5.484-5 .969-7.5 1.449.5.484 1 .969 1.5 1.45a36.182 36.182 0 0 0-9 3.624 950.962 950.962 0 0 1-32.25-1.449c-1.223 1.918-2.973 2.883-5.25 2.898v-13.043a804.676 804.676 0 0 1 46.5-5.074 227.729 227.729 0 0 1 18.75-6.523c1.5 1.933 3 1.933 4.5 0 1.25 1.21 2.5 2.418 3.75 3.625a306.849 306.849 0 0 0 48.75-.727c15.23-.004 29.98 2.41 44.25 7.25 3.984-3.113 8.484-5.289 13.5-6.523-1.426-1.04-1.676-2.246-.75-3.625 2.398 2.226 5.148 2.953 8.25 2.176-.5-.485-1-.965-1.5-1.45 2.258-2.16 3.504-4.816 3.75-7.972 19.04 4.715 38.54 9.062 58.5 13.047 6.703-1.45 13.703-3.383 21-5.801 1 .969 2 1.933 3 2.898 1.434-2.02 3.434-2.984 6-2.898 2.305.89 4.305.89 6 0 1 .969 2 1.933 3 2.898 4-.965 8-1.93 12-2.898 1 .969 2 1.933 3 2.898 1.5-1.93 3-1.93 4.5 0a137.145 137.145 0 0 0 21-7.246 197.347 197.347 0 0 0 21 1.45l2.25-2.173-1.5-4.347c11.379-4.684 23.379-7.102 36-7.246 2.18-2.2 4.43-2.442 6.75-.727 6.86-.926 13.36-2.855 19.5-5.797 3.285 1.57 5.785.606 7.5-2.898a6.47 6.47 0 0 0 2.25 2.898c2-1.93 4-1.93 6 0a6.47 6.47 0 0 0 2.25-2.898c1.5 3.867 3 3.867 4.5 0 1.25 3.625 3 3.867 5.25.726 5.5-.484 11-.968 16.5-1.449-.5-.484-1-.969-1.5-1.449 2.402-.398 4.652-1.121 6.75-2.176a5.448 5.448 0 0 0 2.25 1.45c4.266-.481 8.016-1.93 11.25-4.348 4.281 1.664 5.527.457 3.75-3.621 1.23-2.61 2.23-5.27 3-7.973 1.879 3.043 4.129 5.941 6.75 8.695 1.113-1.652 2.363-1.652 3.75 0a6681.39 6681.39 0 0 0 74.25-24.636c1.418-.586 2.418-1.555 3-2.899a6.47 6.47 0 0 0 2.25 2.899c9.5-3.7 19-7.082 28.5-10.145Zm0 0"/><path style="stroke:none;fill-rule:evenodd;fill:#bbcdf7;fill-opacity:1" d="M558.75 193.477c4.832.691 9.332 2.14 13.5 4.347a57.488 57.488 0 0 1-.75 13.047c-1.281 2.356-2.781 2.836-4.5 1.45a20.83 20.83 0 0 1-6 4.347c-2.762-1.934-3.512-1.691-2.25.723-11.3 3.328-23.3 5.261-36 5.797.5.484 1 .968 1.5 1.449-6.367 4.043-12.367 7.664-18 10.87-2.871.266-5.871-.218-9-1.448-1.313-1.485-3.063-2.454-5.25-2.899-3.832 2.477-6.082 5.856-6.75 10.145-.172 3.547-1.672 6.445-4.5 8.695-3.625 2.227-7.625 3.676-12 4.348-19.008-4.875-38.508-7.047-58.5-6.524a303.313 303.313 0 0 1-18.75-5.07 65.304 65.304 0 0 1-12.75 2.172c4 1.449 4 2.898 0 4.347l7.5 10.149c-3 .48-6 .965-9 1.45 1 .48 2 .964 3 1.448a82.064 82.064 0 0 0-9.75 3.621c-31.594 6.786-64.844 9.442-99.75 7.973-4.215-3.488-5.215-7.594-3-12.32 4.102-3.828 9.102-5.278 15-4.348-2.527 5.438-1.027 9.547 4.5 12.32a3027.779 3027.779 0 0 1 60-4.347c2.676-1.688 5.676-2.653 9-2.899-1-.484-2-.968-3-1.449 2.5-.484 5-.969 7.5-1.45-2.945-2.554-4.945-4.972-6-7.245 2-.485 4-.969 6-1.45-3.738-.91-3.738-2.117 0-3.624-1.71-1.34-1.71-2.551 0-3.625-1-.48-2-.965-3-1.45 2.5-.48 5-.964 7.5-1.449 3.031-2.922 6.781-4.133 11.25-3.621 6.5.965 13 1.93 19.5 2.898a37.083 37.083 0 0 0 11.25-2.898c11.664 5.484 17.664 2.106 18-10.144a175.88 175.88 0 0 0 22.5-.727c2.344-2.82 5.344-4.512 9-5.07.074 3.765 1.574 6.906 4.5 9.418a384.916 384.916 0 0 0 42-2.172c-.254-1.918.246-3.61 1.5-5.075 8.133-1.488 15.633-4.386 22.5-8.695a365.668 365.668 0 0 0 27-5.07c5.496-4.344 6.996-9.656 4.5-15.945Zm0 0"/><path style="stroke:none;fill-rule:evenodd;fill:#f5f7fd;fill-opacity:1" d="M497.25 234.059c-4.602 1.726-8.602 4.14-12 7.246.668-4.29 2.918-7.668 6.75-10.145 2.188.445 3.938 1.414 5.25 2.899Zm0 0"/><path style="stroke:none;fill-rule:evenodd;fill:#cad5ef;fill-opacity:1" d="M599.25 241.305v43.476c-4.422.403-8.672-.078-12.75-1.449a14.224 14.224 0 0 1-3.75 2.176c.5.48 1 .965 1.5 1.449-6.363-.004-12.363 1.203-18 3.621-2.012-2.031-3.266-1.547-3.75 1.45-3.5-.481-7-.966-10.5-1.45a142.224 142.224 0 0 1-21 7.246c-1.965-3.465-3.465-3.465-4.5 0-1.629-3.125-3.375-3.367-5.25-.722-16.242 4.093-33.742 7.476-52.5 10.144-2.25 3.14-4 2.899-5.25-.723-1.05 2.22-2.8 3.668-5.25 4.348a421.033 421.033 0 0 0-21.75-1.45 14.32 14.32 0 0 1-3.75 2.173c.5.484 1 .969 1.5 1.449-3.266.238-6.012 1.445-8.25 3.625-2.762-1.934-3.512-1.691-2.25.723l-20.25.726c-7.379-.047-14.379-1.015-21-2.898-1.902.168-3.902.648-6 1.449-3.258-4.027-4.008-3.785-2.25.723-6.137 1.777-11.387.57-15.75-3.621-1.5 3.863-3 3.863-4.5 0-1 .964-2 1.93-3 2.898-1.5-1.934-3-1.934-4.5 0-1.973-3.664-3.723-3.664-5.25 0-1.527-3.664-3.277-3.664-5.25 0-1.5-1.934-3-1.934-4.5 0-3.258-4.027-4.008-3.785-2.25.723l-10.5.726c-4.18-.11-7.93-1.074-11.25-2.898-1.902.168-3.902.648-6 1.449-1.973-3.664-3.723-3.664-5.25 0-1.527-3.664-3.277-3.664-5.25 0-.5-.484-1-.969-1.5-1.45-2.547 1.786-5.547 2.755-9 2.9-4.938.687-8.938-.763-12-4.348-1.5 3.863-3 3.863-4.5 0-5.969.71-11.719-.739-17.25-4.348-4.816 1.754-9.57 1.754-14.25 0a17.186 17.186 0 0 1-6 2.898c-7.355-1.422-14.855-3.355-22.5-5.797a6.49 6.49 0 0 1-2.25 2.899c-9.516-.402-19.266-.402-29.25 0a14.32 14.32 0 0 1-3.75 2.172c.5.484 1 .969 1.5 1.449-5.5.484-11 .969-16.5 1.45.5.484 1 .968 1.5 1.448-7.008 1.938-14.008 3.872-21 5.797a422.115 422.115 0 0 0-60 6.524c-10.68.578-21.18-.387-31.5-2.899a66.354 66.354 0 0 0-13.5 2.899c-1.906-.102-3.656-.586-5.25-1.45a27.634 27.634 0 0 1-5.25 2.899 160.773 160.773 0 0 0-19.5 0v-10.145c2.277-.015 4.027-.98 5.25-2.898 10.68.664 21.43 1.144 32.25 1.45a36.182 36.182 0 0 1 9-3.626c-.5-.48-1-.965-1.5-1.449 2.5-.48 5-.965 7.5-1.45 22.254.75 44.504.509 66.75-.722a149.358 149.358 0 0 0 21.75-3.625c-1.809-1.476-1.309-2.2 1.5-2.172 10.309 3.14 20.809 3.625 31.5 1.45a590.95 590.95 0 0 1 16.5-5.797c5.48 1.187 10.977 2.398 16.5 3.62 33 .485 66 .97 99 1.45 5.984 1.648 12.234 2.375 18.75 2.176 14.387-2.067 30.887-3.516 49.5-4.348a53.479 53.479 0 0 0 10.5 1.45 1295.184 1295.184 0 0 1 45.75-2.177c-.5-.484-1-.964-1.5-1.449 3.93-.219 7.43-1.426 10.5-3.625 5.809.656 11.559 1.14 17.25 1.45 4.473-2.051 9.227-3.258 14.25-3.622-.5-.484-1-.968-1.5-1.449 2.184-.613 2.934-1.82 2.25-3.625-2.426-1.652-5.176-2.86-8.25-3.621 5.5-.969 11-.969 16.5 0a478.751 478.751 0 0 1 31.5 5.07 36.113 36.113 0 0 1 9-3.62c-.5-.485-1-.97-1.5-1.45 7.5-.484 15-.969 22.5-1.45 3.04-2.429 6.54-3.878 10.5-4.347-1.5-.484-3-.969-4.5-1.45 5.164-.32 5.664-1.769 1.5-4.347 2.5-.484 5-.968 7.5-1.449 5.465-3.531 10.965-6.43 16.5-8.695a54.934 54.934 0 0 1-10.5-5.797c2.074-2.723 5.074-5.621 9-8.695l-3-1.454c11.727-2.257 22.227-4.914 31.5-7.968Zm0 0"/><path style="stroke:none;fill-rule:evenodd;fill:#bfcff5;fill-opacity:1" d="M480.75 250a52.166 52.166 0 0 1-3 7.973c1.777 4.078.531 5.285-3.75 3.62-3.234 2.419-6.984 3.868-11.25 4.348a5.448 5.448 0 0 1-2.25-1.449c-2.098 1.055-4.348 1.778-6.75 2.176.5.48 1 .965 1.5 1.45-5.5.48-11 .964-16.5 1.448-2.25 3.141-4 2.899-5.25-.726-1.5 3.867-3 3.867-4.5 0a6.47 6.47 0 0 1-2.25 2.898c-2-1.93-4-1.93-6 0a6.47 6.47 0 0 1-2.25-2.898c-1.715 3.504-4.215 4.469-7.5 2.898-6.14 2.942-12.64 4.871-19.5 5.797-2.32-1.715-4.57-1.473-6.75.727-12.621.144-24.621 2.562-36 7.246l1.5 4.347c-.75.723-1.5 1.45-2.25 2.172a197.347 197.347 0 0 1-21-1.449 137.145 137.145 0 0 1-21 7.246c-1.5-1.93-3-1.93-4.5 0-1-.965-2-1.93-3-2.898-4 .969-8 1.933-12 2.898-1-.965-2-1.93-3-2.898-1.695.89-3.695.89-6 0-2.566-.086-4.566.879-6 2.898-1-.965-2-1.93-3-2.898-7.297 2.418-14.297 4.351-21 5.8-19.96-3.984-39.46-8.331-58.5-13.046-.246 3.156-1.492 5.812-3.75 7.972.5.485 1 .965 1.5 1.45-3.102.777-5.852.05-8.25-2.176-.926 1.379-.676 2.586.75 3.625-5.016 1.234-9.516 3.41-13.5 6.523-14.27-4.84-29.02-7.254-44.25-7.25a306.849 306.849 0 0 1-48.75.727c-1.25-1.207-2.5-2.414-3.75-3.625-1.5 1.933-3 1.933-4.5 0a227.729 227.729 0 0 0-18.75 6.523 804.676 804.676 0 0 0-46.5 5.074v-24.64c15.793 6.41 32.293 10.035 49.5 10.87l-4.5-4.347a16.203 16.203 0 0 0 2.25-5.074c2.957 5.344 7.207 6.793 12.75 4.348a41.68 41.68 0 0 0 7.5-6.52c-1-.484-2-.969-3-1.45 3-.483 6-.968 9-1.448a6.672 6.672 0 0 1-3-2.176c5.023-1.07 8.273-3 9.75-5.797 4.223 2.133 8.473 4.305 12.75 6.524a86.181 86.181 0 0 1 18 2.898c-2 .965-2 1.93 0 2.898 4.602 2.676 9.602 4.125 15 4.348-1.426 1.04-1.676 2.246-.75 3.621 3.746 2.867 7.996 3.594 12.75 2.176 2-.969 2-1.934 0-2.899a44.401 44.401 0 0 0 6.75-3.625c.746-4.804.996-9.636.75-14.492.996 2.711 1.996 5.61 3 8.696 1 .484 2 .968 3 1.449 2.016-9.207 7.516-12.11 16.5-8.695a45.301 45.301 0 0 0 6.75 8.695 63.319 63.319 0 0 0 12.75-9.418c9.957.305 19.957.547 30 .723-.441 5.238 1.059 9.828 4.5 13.769a1267.91 1267.91 0 0 0 27.75 9.418 58.215 58.215 0 0 1 9.75-3.621c-1.5-3.383-3-6.766-4.5-10.145 1.7-1.472 1.203-2.441-1.5-2.898a6.672 6.672 0 0 0 3-2.176c-1.145-.594-2.645-.836-4.5-.723.375-2.277-.625-4.453-3-6.523 2.813-2.242 4.313-5.14 4.5-8.695h15c-2.215 4.726-1.215 8.832 3 12.32 34.906 1.469 68.156-1.187 99.75-7.973a82.064 82.064 0 0 1 9.75-3.62c-1-.485-2-.97-3-1.45 3-.484 6-.969 9-1.45l-7.5-10.148c4-1.449 4-2.898 0-4.347 4.39-.313 8.64-1.04 12.75-2.172a303.313 303.313 0 0 0 18.75 5.07c19.992-.523 39.492 1.649 58.5 6.524 4.375-.672 8.375-2.121 12-4.348Zm0 0"/><path style="stroke:none;fill-rule:evenodd;fill:#bbccf8;fill-opacity:1" d="M87.75 218.117c4.203 4.145 8.703 7.043 13.5 8.696 5.184 1.753 10.434 1.753 15.75 0a282.46 282.46 0 0 0 9.75 4.347c2.781-1.457 5.281-1.457 7.5 0 .578 3.531 2.328 6.43 5.25 8.695 1 3.864 1 7.73 0 11.594-3.43 4.153-4.68 8.985-3.75 14.492 4.188.176 7.188 2.11 9 5.797a70.842 70.842 0 0 1-.75 14.492 44.401 44.401 0 0 1-6.75 3.625c2 .965 2 1.93 0 2.899-4.754 1.418-9.004.691-12.75-2.176-.926-1.375-.676-2.582.75-3.621-5.398-.223-10.398-1.672-15-4.348-2-.968-2-1.933 0-2.898a86.181 86.181 0 0 0-18-2.899c-4.277-2.218-8.527-4.39-12.75-6.523-1.477 2.797-4.727 4.727-9.75 5.797a6.672 6.672 0 0 0 3 2.176c-3 .48-6 .965-9 1.449 1 .48 2 .965 3 1.45a41.68 41.68 0 0 1-7.5 6.519c-5.543 2.445-9.793.996-12.75-4.348a16.203 16.203 0 0 1-2.25 5.074l4.5 4.348c-17.207-.836-33.707-4.461-49.5-10.871V250c5.145-4.676 11.145-8.297 18-10.871 9.16-2.297 16.91-.125 23.25 6.523a215.254 215.254 0 0 1 6 30.434c1.5-1.93 3-3.863 4.5-5.797-.316-6.187 1.934-11.258 6.75-15.215 5.309-1.066 10.309-2.758 15-5.074-11.621-2.113-21.371-7.426-29.25-15.941-1.734-5.575.016-9.68 5.25-12.32 11-.481 22-.966 33-1.45a43.109 43.109 0 0 0 6-2.172Zm0 0"/><path style="stroke:none;fill-rule:evenodd;fill:#b8caf8;fill-opacity:1" d="M252.75 261.594c-.188 3.554-1.688 6.453-4.5 8.695 2.375 2.07 3.375 4.246 3 6.524 1.855-.114 3.355.128 4.5.722a6.672 6.672 0 0 1-3 2.176c2.703.457 3.2 1.426 1.5 2.898l4.5 10.145a58.215 58.215 0 0 0-9.75 3.621 1267.91 1267.91 0 0 1-27.75-9.418c-3.441-3.941-4.941-8.531-4.5-13.77-.348-4.761 1.656-8.382 6-10.867a311.203 311.203 0 0 1 30-.726Zm0 0"/><path style="stroke:none;fill-rule:evenodd;fill:#cdd6ec;fill-opacity:1" d="M599.25 284.781v27.54c-8.121-1.087-15.871-3.505-23.25-7.247-4.43.133-4.68.86-.75 2.172a969.78 969.78 0 0 1-67.5 5.797c.5.484 1 .969 1.5 1.45-6.285.109-12.285 1.316-18 3.624-2.277-2.047-4.277-1.805-6 .723a97.295 97.295 0 0 0-16.5 2.176 5.274 5.274 0 0 1-1.5 2.171c-5 .485-10 .97-15 1.45 1 .484 2 .968 3 1.449-7 .484-14 .969-21 1.45 2.703.46 3.2 1.425 1.5 2.898-6 .484-12 .968-18 1.449 1 .484 2 .969 3 1.449-3.5.484-7 .969-10.5 1.45-2.703.925-4.703 2.613-6 5.073a43.106 43.106 0 0 1-12.75 2.899c-10.16-.223-20.41-.465-30.75-.727a198.316 198.316 0 0 1-21.75-6.52c-8.172 2.497-16.422 1.29-24.75-3.624-25.977-2.137-51.227-7.207-75.75-15.215-5.691.309-11.441.793-17.25 1.45-5.07-3.583-10.066-3.583-15 0a226.803 226.803 0 0 0-22.5-1.45c-4.586 2.379-9.59 3.586-15 3.621.5.484 1 .969 1.5 1.45a77.851 77.851 0 0 1-16.5 2.898c1 .484 2 .968 3 1.449a784.646 784.646 0 0 1-28.5 5.797c1 .484 2 .969 3 1.449-2.824.313-5.324 1.281-7.5 2.898 1 .485 2 .97 3 1.45-7.5.484-15 .968-22.5 1.449 1.7 1.473 1.203 2.441-1.5 2.898-5 .485-10 .97-15 1.45 1 .484 2 .968 3 1.449-16.703.57-33.203-1.121-49.5-5.07a201.059 201.059 0 0 1-42 2.898V329.71a160.773 160.773 0 0 1 19.5 0 27.634 27.634 0 0 0 5.25-2.899c1.594.864 3.344 1.348 5.25 1.45a66.354 66.354 0 0 1 13.5-2.899c10.32 2.512 20.82 3.477 31.5 2.899a422.115 422.115 0 0 1 60-6.524c6.992-1.925 13.992-3.86 21-5.797-.5-.48-1-.964-1.5-1.449 5.5-.48 11-.965 16.5-1.449-.5-.48-1-.965-1.5-1.45a14.32 14.32 0 0 0 3.75-2.171c9.984-.402 19.734-.402 29.25 0a6.49 6.49 0 0 0 2.25-2.899c7.645 2.442 15.145 4.375 22.5 5.797 2.21-.586 4.21-1.55 6-2.898 4.68 1.754 9.434 1.754 14.25 0 5.531 3.61 11.281 5.058 17.25 4.348 1.5 3.863 3 3.863 4.5 0 3.063 3.585 7.063 5.035 12 4.347 3.453-.144 6.453-1.113 9-2.898.5.48 1 .965 1.5 1.449 1.973-3.664 3.723-3.664 5.25 0 1.527-3.664 3.277-3.664 5.25 0 2.098-.8 4.098-1.281 6-1.45 3.32 1.825 7.07 2.79 11.25 2.9l10.5-.727c-1.758-4.508-1.008-4.75 2.25-.723 1.5-1.934 3-1.934 4.5 0 1.973-3.664 3.723-3.664 5.25 0 1.527-3.664 3.277-3.664 5.25 0 1.5-1.934 3-1.934 4.5 0 1-.969 2-1.934 3-2.898 1.5 3.863 3 3.863 4.5 0 4.363 4.19 9.613 5.398 15.75 3.62-1.758-4.507-1.008-4.75 2.25-.722 2.098-.8 4.098-1.281 6-1.45 6.621 1.884 13.621 2.852 21 2.9l20.25-.727c-1.262-2.414-.512-2.657 2.25-.723 2.238-2.18 4.984-3.387 8.25-3.625-.5-.48-1-.965-1.5-1.45a14.32 14.32 0 0 0 3.75-2.171c7.324.3 14.574.781 21.75 1.45 2.45-.68 4.2-2.13 5.25-4.349 1.25 3.622 3 3.864 5.25.723 18.758-2.668 36.258-6.05 52.5-10.144 1.875-2.645 3.621-2.403 5.25.722 1.035-3.465 2.535-3.465 4.5 0a142.224 142.224 0 0 0 21-7.246c3.5.485 7 .969 10.5 1.45.484-2.997 1.738-3.481 3.75-1.45 5.637-2.418 11.637-3.625 18-3.621-.5-.484-1-.969-1.5-1.45a14.224 14.224 0 0 0 3.75-2.175c4.078 1.371 8.328 1.852 12.75 1.45Zm0 0"/><path style="stroke:none;fill-rule:evenodd;fill:#d0d8e9;fill-opacity:1" d="M599.25 312.32v50.723a305.853 305.853 0 0 1-42-1.45 17.013 17.013 0 0 0-3.75-2.898c-39.73.25-79.73.25-120 0-8.313 2.895-16.063 5.793-23.25 8.696-6-1.422-12.254-1.903-18.75-1.45a14.332 14.332 0 0 1-3.75 2.176c.5.48 1 .965 1.5 1.45a755.124 755.124 0 0 1-81-.727 6.47 6.47 0 0 0-2.25-2.899c-6.254-.226-12.254.254-18 1.45-1.5-.965-3-1.93-4.5-2.899-2.523.445-5.023.93-7.5 1.45a119.04 119.04 0 0 1-13.5-5.797c-.5.484-1 .968-1.5 1.449-5.34-1.223-11.09-2.672-17.25-4.348a6.47 6.47 0 0 0-2.25-2.898c-2.3.644-4.55 1.125-6.75 1.449-2.45-.68-4.2-2.129-5.25-4.348-2 3.867-4 3.867-6 0-3.441.656-7.191.656-11.25 0-5.043.078-9.543 1.528-13.5 4.348a5.448 5.448 0 0 1-2.25-1.45c-.363 2.376-1.613 4.548-3.75 6.524.5.48 1 .965 1.5 1.45-2.91.437-5.41 1.644-7.5 3.62-2.914.895-6.164.895-9.75 0a14.332 14.332 0 0 1-3.75 2.176c.5.48 1 .965 1.5 1.45-7.566-.106-14.566 1.585-21 5.07-2.398-.16-4.898-.64-7.5-1.45-2.656.778-3.156 1.985-1.5 3.625-3.266.235-6.016 1.442-8.25 3.622-2.762-1.93-3.512-1.688-2.25.726-20.332 1.031-39.582 2.238-57.75 3.621-1.418-.586-2.418-1.55-3-2.898-.5.484-1 .969-1.5 1.449a311.289 311.289 0 0 0-29.25-2.172L39 377.535c-3.816.195-7.816 1.164-12 2.899-1.277-2.356-2.777-2.836-4.5-1.45a53.67 53.67 0 0 1-20.25-5.796 64.914 64.914 0 0 1-3 1.449v-31.883c14.145.5 28.145-.465 42-2.899 16.297 3.95 32.797 5.641 49.5 5.07-1-.48-2-.964-3-1.448 5-.48 10-.965 15-1.45 2.703-.457 3.2-1.425 1.5-2.898 7.5-.48 15-.965 22.5-1.45-1-.48-2-.964-3-1.449 2.176-1.617 4.676-2.585 7.5-2.898-1-.48-2-.965-3-1.45a784.646 784.646 0 0 0 28.5-5.796c-1-.48-2-.965-3-1.45a77.851 77.851 0 0 0 16.5-2.898c-.5-.48-1-.965-1.5-1.449 5.41-.035 10.414-1.242 15-3.621 7.645.117 15.145.602 22.5 1.45 4.934-3.583 9.93-3.583 15 0a296.783 296.783 0 0 1 17.25-1.45c24.523 8.008 49.773 13.078 75.75 15.215 8.328 4.914 16.578 6.12 24.75 3.625a198.316 198.316 0 0 0 21.75 6.52c10.34.261 20.59.503 30.75.726a43.106 43.106 0 0 0 12.75-2.899c1.297-2.46 3.297-4.148 6-5.074 3.5-.48 7-.965 10.5-1.449-1-.48-2-.965-3-1.45 6-.48 12-.964 18-1.448 1.7-1.473 1.203-2.438-1.5-2.899 7-.48 14-.965 21-1.45-1-.48-2-.964-3-1.448 5-.48 10-.965 15-1.45a5.274 5.274 0 0 0 1.5-2.171 97.295 97.295 0 0 1 16.5-2.176c1.723-2.527 3.723-2.77 6-.723 5.715-2.308 11.715-3.515 18-3.625-.5-.48-1-.965-1.5-1.449a969.78 969.78 0 0 0 67.5-5.797c-3.93-1.312-3.68-2.039.75-2.172 7.379 3.742 15.129 6.16 23.25 7.246Zm0 0"/><path style="stroke:none;fill-rule:evenodd;fill:#d3d9e6;fill-opacity:1" d="M599.25 363.043v20.289c-67.246.531-130.746-.434-190.5-2.898a6.701 6.701 0 0 0-3 2.175 439.3 439.3 0 0 0-62.25 5.07 841.905 841.905 0 0 1-71.25-5.07 14.224 14.224 0 0 1-3.75-2.175c-4.078.195-8.078.68-12 1.449a17.303 17.303 0 0 0-5.25-2.172c-16.5-.969-33-.969-49.5 0-2.652 1.476-5.152 1.719-7.5.723-3.07 2.195-6.57 3.406-10.5 3.625 1.7 1.472 1.203 2.437-1.5 2.898-4.5.48-9 .965-13.5 1.45.5.48 1 .964 1.5 1.448-4.742.872-9.242.149-13.5-2.175-2.809-.024-3.309.699-1.5 2.175-16.719 3.028-33.719 4.957-51 5.797.5.485 1 .965 1.5 1.45a518.463 518.463 0 0 0-39 2.171H-.75v-24.636a64.914 64.914 0 0 0 3-1.45 53.67 53.67 0 0 0 20.25 5.797c1.723-1.386 3.223-.906 4.5 1.45 4.184-1.735 8.184-2.704 12-2.899l3.75 3.625c9.871.27 19.621.996 29.25 2.172.5-.48 1-.965 1.5-1.45.582 1.348 1.582 2.313 3 2.9 18.168-1.384 37.418-2.59 57.75-3.622-1.262-2.414-.512-2.656 2.25-.726 2.234-2.18 4.984-3.387 8.25-3.622-1.656-1.64-1.156-2.847 1.5-3.625 2.602.81 5.102 1.29 7.5 1.45 6.434-3.485 13.434-5.176 21-5.07-.5-.485-1-.97-1.5-1.45a14.332 14.332 0 0 0 3.75-2.176c3.586.895 6.836.895 9.75 0 2.09-1.976 4.59-3.183 7.5-3.62-.5-.485-1-.97-1.5-1.45 2.137-1.976 3.387-4.148 3.75-6.523a5.448 5.448 0 0 0 2.25 1.449c3.957-2.82 8.457-4.27 13.5-4.348 4.059.656 7.809.656 11.25 0 2 3.867 4 3.867 6 0 1.05 2.219 2.8 3.668 5.25 4.348 2.2-.324 4.45-.805 6.75-1.45a6.47 6.47 0 0 1 2.25 2.9c6.16 1.675 11.91 3.124 17.25 4.347.5-.48 1-.965 1.5-1.45a119.04 119.04 0 0 0 13.5 5.797c2.477-.52 4.977-1.003 7.5-1.449 1.5.969 3 1.934 4.5 2.899 5.746-1.196 11.746-1.676 18-1.45a6.47 6.47 0 0 1 2.25 2.899 755.124 755.124 0 0 0 81 .726c-.5-.484-1-.968-1.5-1.449a14.332 14.332 0 0 0 3.75-2.176c6.496-.453 12.75.028 18.75 1.45 7.188-2.903 14.938-5.801 23.25-8.696 40.27.25 80.27.25 120 0a17.013 17.013 0 0 1 3.75 2.899 305.853 305.853 0 0 0 42 1.449Zm0 0"/><path style="stroke:none;fill-rule:evenodd;fill:#d5dae4;fill-opacity:1" d="M599.25 383.332v15.941H66.75a518.463 518.463 0 0 1 39-2.171c-.5-.485-1-.965-1.5-1.45 17.281-.84 34.281-2.77 51-5.797-1.809-1.476-1.309-2.199 1.5-2.175 4.258 2.324 8.758 3.047 13.5 2.175-.5-.484-1-.968-1.5-1.449 4.5-.484 9-.969 13.5-1.449 2.703-.46 3.2-1.426 1.5-2.898 3.93-.22 7.43-1.43 10.5-3.625 2.348.996 4.848.753 7.5-.723 16.5-.969 33-.969 49.5 0a17.303 17.303 0 0 1 5.25 2.172 82.817 82.817 0 0 1 12-1.45 14.224 14.224 0 0 0 3.75 2.176 841.905 841.905 0 0 0 71.25 5.07 439.3 439.3 0 0 1 62.25-5.07 6.701 6.701 0 0 1 3-2.175c59.754 2.464 123.254 3.43 190.5 2.898Zm0 0"/></svg>