<svg xmlns="http://www.w3.org/2000/svg" width="600" height="400"><path style="stroke:none;fill-rule:evenodd;fill:#f7f7f7;fill-opacity:1" d="M-.684-.656h181.368c-2.414 1.66-4.688 3.636-6.82 5.918-2.727.441-5.454.879-8.18 1.316-1.66 2.29-3.934 3.606-6.82 3.95-.626 3.152-2.442 5.347-5.454 6.577-4.066.657-8.16.875-12.273.657-2.91 6.992-8.137 9.187-15.684 6.582a30.523 30.523 0 0 1-3.406 7.894 158.547 158.547 0 0 0-12.274 3.946A20.229 20.229 0 0 1 105 32.238a40.692 40.692 0 0 1-6.137 3.29c-1.297.94-1.523 2.038-.68 3.288 5.84 2.211 6.067 4.625.68 7.235-5.02.898-8.425-1.074-10.226-5.918-1.364 4.383-2.727 8.77-4.09 13.156a88.655 88.655 0 0 1-8.863-5.262A40.38 40.38 0 0 1 70.227 50c2.941 1.727 3.398 3.918 1.363 6.578-4.711 2.293-9.711 3.61-15 3.95 1.387 1.378 1.617 2.913.683 4.605C53.68 67.71 51.18 71 49.773 75c-2.109.438-3.93-.219-5.457-1.973-2.136 1.598-3.273 3.79-3.406 6.578a15.42 15.42 0 0 0-3.41 2.633c1.125 1.25 1.352 2.567.684 3.946-1.946.937-3.993 1.156-6.137.66-1.098 2.328-2.688 4.3-4.774 5.918.415 2.558.415 5.191 0 7.894-2.441-2.273-5.394-3.152-8.863-2.629.113 3.196 1.477 5.828 4.09 7.895-1.895 3.39-3.938 3.39-6.137 0-2.847 3.902-2.62 7.629.684 11.183-4.711 3.09-5.164 6.82-1.363 11.184a78.672 78.672 0 0 1-5.457 10.527c1.687 1.028 3.05 2.344 4.09 3.946a41.501 41.501 0 0 0-2.044 7.894c-8.851 6.39-7.714 9.684 3.41 9.871-2.73.438-5.456.875-8.183 1.317a4.745 4.745 0 0 0-1.363 1.972c1.816 2.192 1.816 4.387 0 6.579L7.5 171.71a12.583 12.583 0 0 0 4.09-3.95c3.676 3.884 3.223 7.395-1.363 10.528a9.607 9.607 0 0 0 2.726 3.29 9.644 9.644 0 0 0-2.726 3.288c2.753 2.762 3.21 5.836 1.363 9.211a12.611 12.611 0 0 0-4.09-3.945l-1.363 1.972c3.718 2.82 7.129 6.114 10.226 9.868-1.066 2.43-1.52 5.058-1.363 7.894a20.117 20.117 0 0 0 6.137 3.95 68.349 68.349 0 0 1-5.453 7.234c.906 2.195 1.816 4.387 2.726 6.582-4.02 4.527-3.562 8.472 1.363 11.84 7.528.726 8.891 4.015 4.09 9.87a37.63 37.63 0 0 0 7.5 9.208 22.73 22.73 0 0 0 .684 10.527c.824-3.687 1.96-7.2 3.406-10.527a48.86 48.86 0 0 0 8.863 11.844 3015.072 3015.072 0 0 1-4.09 3.289c1.758 3.015 4.032 5.648 6.82 7.894a46.664 46.664 0 0 0-8.183 7.238 9.644 9.644 0 0 0 2.727 3.29c-2.832 2.48-3.285 5.328-1.363 8.55a12.571 12.571 0 0 0 4.09-3.945c3.222 2.23 5.949 4.86 8.183 7.894a6.065 6.065 0 0 0 2.727-1.972c-3.786-3.18-3.332-4.934 1.363-5.266.91 2.195 1.82 4.387 2.726 6.582 2.149-.5 4.196-.281 6.137.656.68 3.04.906 6.11.684 9.211 4.922.184 8.558 2.375 10.91 6.579 2.578-3.348 5.078-3.348 7.5 0 .371-2.407 1.508-4.38 3.406-5.922 4.133-.961 8.223-2.059 12.274-3.29.91.438 1.82.88 2.726 1.317-8.45 2.3-8.902 5.59-1.363 9.867a73.931 73.931 0 0 1 16.363 0c1.879-3.222 4.379-3.879 7.5-1.972 1.594-.668 2.73-1.766 3.41-3.29 3.637-.437 7.274-.878 10.91-1.316 7.176-4.113 14.903-7.184 23.18-9.21a276.722 276.722 0 0 1 23.184-10.528 78.935 78.935 0 0 1 16.363-10.524 926.836 926.836 0 0 1 17.047-28.289 201.25 201.25 0 0 0 8.18-30.265c3.609-11.563 8.378-22.528 14.32-32.895v1.317a288.429 288.429 0 0 0-13.637 45.394 145.887 145.887 0 0 1 5.453 12.5c-2.183 5.906-3.773 12.047-4.773 18.422-4.371 4.973-9.371 9.363-15 13.156-3.793 6.922-8.793 13.063-15 18.422a24.427 24.427 0 0 1-6.137 10.527c.457.88.91 1.754 1.363 2.633-1.511 1.461-2.421 3.215-2.726 5.262 3.992 6.668 6.265 13.687 6.82 21.05 4.168-3.538 7.348-2.663 9.543 2.634-1.348 3.617-.89 7.128 1.363 10.527a90.257 90.257 0 0 1 10.91 7.234 11.876 11.876 0 0 1-5.453.66c2.93 6.141 7.247 11.403 12.954 15.79 1.363-.88 2.726-1.754 4.09-2.633a133.636 133.636 0 0 0 22.5 8.554c5.117.086 9.89 1.184 14.32 3.29 4.215-2.036 8.078-1.598 11.59 1.316l6.82-3.95c3.664.06 5.484 1.817 5.453 5.266a40.279 40.279 0 0 0 12.953-1.316c5.45 2.047 11.133 3.144 17.047 3.289 1.137 1.094 2.273 2.191 3.41 3.289 2.004-2.176 4.504-3.488 7.5-3.95 5.59.75 11.043.75 16.363 0 3-3.066 6.41-3.507 10.227-1.312 3.5-.594 6.684-1.91 9.547-3.949 4.5 5.227 7 4.133 7.5-3.29 2.226-.71 4.047-.054 5.453 1.974 2.34-1.536 3.25-3.73 2.727-6.579 2.964.239 5.695 1.118 8.183 2.633 4.57-.644 5.024-2.18 1.363-4.605 3.008-.965 5.278-.086 6.817 2.629 4.094.879 8.183.879 12.273 0 2.114-1.598 3.703-3.57 4.774-5.918 3.61 4.707 7.699 5.144 12.273 1.312 2.012 1.242 3.375 2.996 4.09 5.266a483.2 483.2 0 0 1 .684-9.211 15.933 15.933 0 0 0 3.406 1.316c2.578-1.882 5.531-2.761 8.863-2.632a46.342 46.342 0 0 0 15 .656c4.586-2.52 9.586-3.832 15-3.946 1.145-1.332 1.598-2.867 1.363-4.605a64.384 64.384 0 0 0 15 .656 63.657 63.657 0 0 1 12.274-7.894c5.457-.875 10.91-1.754 16.363-2.63a39.12 39.12 0 0 1 6.82-11.183 14.487 14.487 0 0 1-2.726-4.605 33.16 33.16 0 0 0 3.406-9.871c5.774-1.707 9.184-5.438 10.23-11.184 1.43-.648 2.794-.43 4.09.66 1.809-3.617 4.766-5.812 8.864-6.582.488-5.722 3.215-10.11 8.18-13.156a6.286 6.286 0 0 0 .683-3.95h-4.09a10.726 10.726 0 0 1 .68-5.261 282.561 282.561 0 0 1 18.41-14.473 4.819 4.819 0 0 0-1.363-1.976 21.222 21.222 0 0 0 6.136-1.973c.47-2.863-.21-5.496-2.046-7.894 1.59-4.832 4.543-8.782 8.863-11.84 1.015-2.555.785-4.969-.68-7.239 3.621-1.535 7.258-3.07 10.906-4.605v161.844h-600v-400Zm0 0"/><path style="stroke:none;fill-rule:evenodd;fill:#eecfba;fill-opacity:1" d="M180.684-.656h95.453c2.554 4.308 6.191 5.62 10.91 3.945C285 1.441 285.457.566 288.41.656c5.442.082 9.531 2.274 12.274 6.582 1.207-1.086 1.66-2.402 1.363-3.949 2.125.027 4.172.465 6.137 1.316 6.636-4.378 9.136-3.062 7.5 3.946 4.21.402 6.48-1.352 6.816-5.262 3.848.234 7.484 1.113 10.91 2.633 2.88.02 5.38-.86 7.5-2.633a35.025 35.025 0 0 1 8.18 3.95c2.191-.794 4.008-2.11 5.457-3.95 1.195 3.746 3.469 4.621 6.816 2.633 2.301 1.086 2.532 2.398.684 3.945 1.457 4.215 4.183 5.531 8.18 3.95-2.016-2.692-1.336-4.446 2.046-5.266 3.004 1.812 5.051 4.445 6.137 7.898 1.727-1.222 3.547-1.441 5.453-.66a42.943 42.943 0 0 0 6.82 5.922c3.07-.992 5.57-2.746 7.5-5.262.72 2.742.04 5.153-2.046 7.235 1.511 2.78 3.554 5.191 6.136 7.238v10.527c1.805 3.61 4.758 5.364 8.864 5.262.437 2.922-.473 5.336-2.727 7.238 3.73 6.02 8.274 11.504 13.637 16.446-3.379 2.714-3.379 5.347 0 7.894-.781 4.309-2.598 8.035-5.457 11.184 1.242 2.355 1.469 4.77.683 7.238-1.996 1.262-3.132 3.016-3.41 5.262a17.226 17.226 0 0 1 2.727 7.894c-2.07 5.426-3.207 11.13-3.406 17.106-3.797 4.73-4.48 9.992-2.047 15.789a543.896 543.896 0 0 0-12.953 25c-15.313 9.699-22.36 23.297-21.137 40.789 0 .879-.457 1.316-1.363 1.316v-6.578c.449-7.379-2.278-13.297-8.184-17.762 1.914-1.672 4.188-2.328 6.816-1.976.293-2.16-.16-4.137-1.363-5.918 4.809-2.668 8.445-6.395 10.91-11.184-.453-.879-.91-1.754-1.363-2.633 3.617-9.496 4.3-19.148 2.047-28.949-4.59-3.289-3.906-5.047 2.043-5.262-.766-5.882-2.36-11.585-4.774-17.105-2.41 5.031-5.136 5.031-8.18 0-.91-1.316-.91-2.633 0-3.95 2.325-1.062 3.462-2.816 3.41-5.26h-4.093v3.948h-6.816a6.286 6.286 0 0 0-.684-3.949c-2.273 1.754-4.543 1.754-6.816 0-1.922-4.055-4.422-7.781-7.5-11.184-1.907-.78-3.727-.562-5.453.657a508.834 508.834 0 0 1-17.047-7.895c-2.336 1.914-4.383 1.692-6.137-.656-8.637-.438-17.273-.879-25.91-1.316-1.649-1.465-1.649-3 0-4.606-1.277-1.387-2.871-2.262-4.774-2.633a759.52 759.52 0 0 0-18.406 1.317c-4.16-2.586-8.703-3.243-13.637-1.973 1.2 1.785 1.657 3.758 1.364 5.922-2.969-.113-5.696-.992-8.184-2.633.137 1.469-.547 2.785-2.043 3.95a124.73 124.73 0 0 0-15-1.317c-2.578 3.973-5.988 4.848-10.226 2.629-4.18 3.914-8.954 4.793-14.32 2.633-3.387.43-6.344 1.746-8.864 3.949a9.87 9.87 0 0 1-3.41-2.633c-1.938 2.953-4.438 5.145-7.5 6.578-.91-.437-1.817-.875-2.727-1.316 3.625-4.535 2.489-5.852-3.41-3.946.024 6.192-2.25 7.508-6.816 3.946-2.45 1.668-4.95 1.668-7.5 0a54.948 54.948 0 0 1-4.774 10.527c-3.73 2.938-6.683 6.445-8.863 10.527a64.06 64.06 0 0 1-8.863 6.579c-2.25 2.503-2.707 5.132-1.364 7.894-1.363 1.754-2.726 1.754-4.09 0-3.245 8.242-8.015 15.48-14.32 21.711.914 7.727-1.586 14.523-7.5 20.395a242.642 242.642 0 0 1-2.726 14.472 47.504 47.504 0 0 1-8.864 3.95c1.364 1.093 2.727 2.19 4.09 3.288-6.558 1.454-7.011 3.864-1.363 7.239a24.696 24.696 0 0 0-4.09 6.578 36.767 36.767 0 0 0 6.137 10.527c-.027 5.606 1.562 10.649 4.77 15.13-.907.878-1.817 1.753-2.727 2.632 2.183.36 4.23 1.016 6.137 1.973.699 3.129 1.605 6.199 2.726 9.21 5.09-5.386 7.137-4.507 6.137 2.633 2.734 2.149 4.55 4.778 5.457 7.895 6.344-.438 10.433 2.195 12.27 7.894 2.843-.984 5.57-.984 8.183 0 5.434-5.128 11.797-6.664 19.09-4.605 2.293-4.563 3.656-4.344 4.094.656 5.898-3.004 12.261-5.418 19.09-7.234a19.69 19.69 0 0 0 6.816-5.266 11.89 11.89 0 0 1 5.457-.656c-.016-2.379.668-4.574 2.043-6.578 6.629-5.07 10.265-11.649 10.91-19.738a428.713 428.713 0 0 0 14.316-28.946c1.368.438 2.274 1.313 2.73 2.63-5.94 10.366-10.71 21.331-14.32 32.894a201.25 201.25 0 0 1-8.18 30.265 926.836 926.836 0 0 0-17.046 28.29 78.935 78.935 0 0 0-16.363 10.523 276.722 276.722 0 0 0-23.184 10.527c-8.277 2.027-16.004 5.098-23.18 9.211-3.636.438-7.273.879-10.91 1.316-.68 1.524-1.816 2.622-3.41 3.29-3.121-1.907-5.621-1.25-7.5 1.972a73.931 73.931 0 0 0-16.363 0c-7.54-4.277-7.086-7.566 1.363-9.867-.906-.438-1.816-.879-2.726-1.316-4.051 1.23-8.141 2.328-12.274 3.289-1.898 1.543-3.035 3.515-3.406 5.922-2.422-3.348-4.922-3.348-7.5 0-2.352-4.204-5.988-6.395-10.91-6.579a31.608 31.608 0 0 0-.684-9.21c-1.941-.938-3.988-1.157-6.137-.657-.906-2.195-1.816-4.387-2.726-6.582-4.695.332-5.149 2.086-1.363 5.266a6.065 6.065 0 0 1-2.727 1.972c-2.234-3.035-4.96-5.664-8.184-7.894a12.571 12.571 0 0 1-4.09 3.945c-1.921-3.222-1.468-6.07 1.364-8.55a9.644 9.644 0 0 1-2.727-3.29 46.664 46.664 0 0 1 8.184-7.238c-2.79-2.246-5.063-4.879-6.82-7.894 1.363-1.094 2.726-2.192 4.09-3.29a48.86 48.86 0 0 1-8.864-11.843 58.294 58.294 0 0 0-3.406 10.527 22.73 22.73 0 0 1-.684-10.527 37.63 37.63 0 0 1-7.5-9.207c4.801-5.856 3.438-9.145-4.09-9.871-4.925-3.368-5.382-7.313-1.363-11.84-.91-2.196-1.82-4.387-2.726-6.582a68.349 68.349 0 0 0 5.453-7.235A20.117 20.117 0 0 1 15 209.867c-.156-2.836.297-5.465 1.363-7.894-3.097-3.754-6.508-7.047-10.226-9.868l1.363-1.972a12.611 12.611 0 0 1 4.09 3.945c1.848-3.375 1.39-6.45-1.363-9.21a9.644 9.644 0 0 1 2.726-3.29 9.607 9.607 0 0 1-2.726-3.289c4.585-3.133 5.039-6.644 1.363-10.527a12.583 12.583 0 0 1-4.09 3.949l-1.363-1.316c1.816-2.192 1.816-4.387 0-6.579a4.745 4.745 0 0 1 1.363-1.972c2.727-.442 5.453-.88 8.184-1.317-11.125-.187-12.262-3.48-3.41-9.87a41.501 41.501 0 0 1 2.042-7.895c-1.039-1.602-2.402-2.918-4.09-3.946a78.672 78.672 0 0 0 5.458-10.527c-3.801-4.363-3.348-8.094 1.363-11.184-3.305-3.554-3.531-7.28-.684-11.183 2.2 3.39 4.242 3.39 6.137 0-2.613-2.067-3.977-4.7-4.09-7.895 3.469-.523 6.422.356 8.863 2.63.415-2.704.415-5.337 0-7.895 2.086-1.617 3.676-3.59 4.774-5.918 2.144.496 4.191.277 6.137-.66.668-1.38.441-2.696-.684-3.946a15.42 15.42 0 0 1 3.41-2.633c.133-2.789 1.27-4.98 3.406-6.578 1.528 1.754 3.348 2.41 5.457 1.973 1.407-4 3.907-7.29 7.5-9.867.934-1.692.704-3.227-.683-4.606 5.289-.34 10.289-1.656 15-3.949 2.035-2.66 1.578-4.851-1.363-6.578a40.38 40.38 0 0 0 5.457-1.973 88.655 88.655 0 0 0 8.863 5.262c1.363-4.387 2.726-8.773 4.09-13.156 1.8 4.844 5.207 6.816 10.226 5.918 5.387-2.61 5.16-5.024-.68-7.235-.843-1.25-.617-2.347.68-3.289A40.692 40.692 0 0 0 105 32.238a20.229 20.229 0 0 0 4.773 3.946 158.547 158.547 0 0 1 12.274-3.946 30.523 30.523 0 0 0 3.406-7.894c7.547 2.605 12.774.41 15.684-6.582 4.113.218 8.207 0 12.273-.657 3.012-1.23 4.828-3.425 5.453-6.578 2.887-.343 5.16-1.66 6.82-3.949 2.727-.437 5.454-.875 8.18-1.316 2.133-2.282 4.407-4.258 6.82-5.918Zm0 0"/><path style="stroke:none;fill-rule:evenodd;fill:#f7f7f7;fill-opacity:1" d="M276.137-.656h323.18V233.55a943.974 943.974 0 0 1-8.18-14.473 232.065 232.065 0 0 1-17.727-8.55 184.137 184.137 0 0 1-20.457-6.579 19.683 19.683 0 0 1-2.043-5.922c-1.379-1.101-2.972-1.539-4.773-1.316-.586-6.535-3.54-7.852-8.864-3.95a49.421 49.421 0 0 0-6.136-4.605c4.21-5.336 2.847-7.531-4.09-6.578a16.995 16.995 0 0 1-5.457 3.29c-1.383-4.622-4.563-7.036-9.543-7.235 2.363-2.707 5.09-3.367 8.18-1.977 1.82-3.066 1.82-6.14 0-9.207-3.207-1.597-5.704-.722-7.5 2.63-2.985-4.063-6.848-4.942-11.59-2.63-2.121-.293-3.942-1.172-5.453-2.633-1.622 1.762-3.668 2.641-6.137 2.633-5.582.559-11.266.559-17.047 0a62.693 62.693 0 0 1-16.363 3.946c-2.086-.04-3.676-.915-4.774-2.633-.68.66-1.363 1.316-2.047 1.976A161.657 161.657 0 0 1 435 171.711a59.299 59.299 0 0 0-17.047-.66c-.906.879-1.816 1.754-2.726 2.633a58.317 58.317 0 0 0-19.09 3.949 119.304 119.304 0 0 0-10.227 9.867c-.523 8.129-3.476 15.145-8.863 21.05-1.223-17.491 5.824-31.09 21.137-40.788a543.896 543.896 0 0 1 12.953-25c-2.434-5.797-1.75-11.059 2.047-15.79.199-5.976 1.336-11.679 3.406-17.105a17.226 17.226 0 0 0-2.727-7.894c.278-2.246 1.414-4 3.41-5.262.786-2.469.559-4.883-.683-7.238 2.86-3.149 4.676-6.875 5.457-11.184-3.379-2.547-3.379-5.18 0-7.894-5.363-4.942-9.906-10.426-13.637-16.446 2.254-1.902 3.164-4.316 2.727-7.238-4.106.102-7.059-1.652-8.864-5.262V30.922c-2.582-2.047-4.625-4.457-6.136-7.238 2.086-2.082 2.765-4.493 2.047-7.235-1.93 2.516-4.43 4.27-7.5 5.262a42.943 42.943 0 0 1-6.82-5.922c-1.907-.781-3.727-.562-5.454.66-1.086-3.453-3.133-6.086-6.137-7.898-3.382.82-4.062 2.574-2.046 5.265-3.997 1.582-6.723.266-8.18-3.949 1.848-1.547 1.617-2.86-.684-3.945-3.347 1.988-5.62 1.113-6.816-2.633-1.45 1.84-3.266 3.156-5.457 3.95a35.025 35.025 0 0 0-8.18-3.95c-2.12 1.773-4.62 2.652-7.5 2.633-3.426-1.52-7.062-2.399-10.91-2.633-.336 3.91-2.605 5.664-6.816 5.262 1.636-7.008-.864-8.324-7.5-3.946a15.799 15.799 0 0 0-6.137-1.316c.297 1.547-.156 2.863-1.363 3.95-2.743-4.31-6.832-6.5-12.274-6.583-2.953-.09-3.41.785-1.363 2.633-4.719 1.676-8.356.363-10.91-3.945Zm0 0"/><path style="stroke:none;fill-rule:evenodd;fill:#ca8576;fill-opacity:1" d="M375.684 203.29c-1.649-.966-3.465-1.403-5.457-1.317.011-2.38-.668-4.57-2.043-6.578-8.754-5.922-13.07-13.817-12.957-23.684-3.739-2.89-3.512-5.524.683-7.895-1.668-7.086-6.441-11.468-14.32-13.16-3.945-6.664-9.856-10.39-17.727-11.183a86.576 86.576 0 0 1-13.636-11.84c-5.188.031-7.914-2.38-8.18-7.238-1.805-.223-3.395.214-4.774 1.316a10.728 10.728 0 0 1-.683-5.262c-4.613.211-9.16-.23-13.637-1.316-2.566.492-4.613 1.808-6.137 3.945a26.445 26.445 0 0 1-4.77-5.262c-6.882.543-13.702.543-20.456 0-1.371.575-1.371 1.454 0 2.633-19.524-.261-36.34 5.66-50.453 17.762-3.746 2.3-7.836 3.617-12.274 3.945a42.744 42.744 0 0 1-6.816 5.922c-1.297-1.086-2.66-1.305-4.094-.656 1.297.945 1.524 2.039.684 3.289a107.053 107.053 0 0 0-16.364 11.84 263.041 263.041 0 0 0-23.183 44.738c-.91 2.633-.91 5.262 0 7.895 3.672 5 7.988 9.605 12.957 13.816 14.484.098 28.351 1.195 41.59 3.29.668-1.7.894-3.458.68-5.263 8.015 3.47 9.831 1.715 5.456-5.265a14.274 14.274 0 0 1 3.41-3.946c1.008 1.414 2.372 2.29 4.09 2.633a22.288 22.288 0 0 1 8.864-1.316 10.736 10.736 0 0 1 .68-5.266 39.378 39.378 0 0 0 8.183-5.262 151.729 151.729 0 0 0 10.227-15.789c1.078 1.184 2.441 2.063 4.09 2.633A428.713 428.713 0 0 1 225 220.395c-.645 8.09-4.281 14.667-10.91 19.738-1.375 2.004-2.059 4.199-2.043 6.578a11.89 11.89 0 0 0-5.457.656 19.69 19.69 0 0 1-6.817 5.266c-6.828 1.816-13.191 4.23-19.09 7.234-.437-5-1.8-5.219-4.093-.656-7.293-2.059-13.656-.524-19.09 4.605-2.613-.984-5.34-.984-8.184 0-1.836-5.699-5.925-8.332-12.27-7.894-.905-3.117-2.722-5.746-5.456-7.895 1-7.14-1.047-8.02-6.137-2.632a70.341 70.341 0 0 1-2.726-9.211 21.303 21.303 0 0 0-6.137-1.973c.91-.879 1.82-1.754 2.726-2.633-3.207-4.48-4.796-9.523-4.77-15.129a36.767 36.767 0 0 1-6.136-10.527 24.696 24.696 0 0 1 4.09-6.578c-5.648-3.375-5.195-5.785 1.363-7.239a3015.692 3015.692 0 0 0-4.09-3.289 47.504 47.504 0 0 0 8.864-3.949 242.642 242.642 0 0 0 2.726-14.472c5.914-5.872 8.414-12.668 7.5-20.395 6.305-6.23 11.075-13.469 14.32-21.71 1.364 1.753 2.727 1.753 4.09 0-1.343-2.763-.886-5.392 1.364-7.895a64.06 64.06 0 0 0 8.863-6.579c2.18-4.082 5.133-7.59 8.863-10.527a54.948 54.948 0 0 0 4.774-10.527c2.55 1.668 5.05 1.668 7.5 0 4.566 3.562 6.84 2.246 6.816-3.946 5.899-1.906 7.035-.59 3.41 3.946.91.441 1.817.879 2.727 1.316 3.062-1.433 5.562-3.625 7.5-6.578a9.87 9.87 0 0 0 3.41 2.633c2.52-2.203 5.477-3.52 8.863-3.95 5.367 2.16 10.14 1.282 14.32-2.632 4.239 2.219 7.649 1.344 10.227-2.63 4.93.13 9.93.567 15 1.317 1.496-1.164 2.18-2.48 2.043-3.949 2.488 1.64 5.215 2.52 8.184 2.633.293-2.164-.164-4.137-1.364-5.922 4.934-1.27 9.477-.613 13.637 1.973a759.52 759.52 0 0 1 18.406-1.317c1.903.371 3.497 1.246 4.774 2.633-1.649 1.606-1.649 3.14 0 4.606 8.637.437 17.273.878 25.91 1.316 1.754 2.348 3.8 2.57 6.137.656a508.834 508.834 0 0 0 17.047 7.895c1.726-1.219 3.546-1.438 5.453-.657 3.078 3.403 5.578 7.13 7.5 11.184 2.273 1.754 4.543 1.754 6.816 0a6.286 6.286 0 0 1 .684 3.95h6.816v-3.95h4.094c.05 2.445-1.086 4.2-3.41 5.262-.91 1.316-.91 2.633 0 3.949 3.043 5.031 5.77 5.031 8.18 0 2.413 5.52 4.007 11.223 4.773 17.105-5.95.215-6.633 1.973-2.043 5.262 2.254 9.801 1.57 19.453-2.047 28.95.453.878.91 1.753 1.363 2.632-2.465 4.79-6.101 8.516-10.91 11.184 1.203 1.781 1.656 3.758 1.363 5.918-2.628-.352-4.902.304-6.816 1.976 5.906 4.465 8.633 10.383 8.184 17.762Zm0 0"/><path style="stroke:none;fill-rule:evenodd;fill:#964251;fill-opacity:1" d="M370.227 201.973c-2.352-.051-2.805.386-1.364 1.316-.465 1.102-1.375 1.543-2.726 1.316-1.696 2.485-1.696 5.118 0 7.895a644.187 644.187 0 0 1-28.637 10.527h-2.727c.711-7.675-2.472-10.304-9.546-7.894h-1.364c.117-1.313-.336-2.406-1.363-3.29-2.273-.44-4.547-.878-6.816-1.316-.82-2.136-1.727-4.109-2.73-5.922-1.29-4.59-4.47-6.343-9.544-5.261-3.375-.313-5.648-2.067-6.82-5.266-4.238.293-8.332.293-12.274 0 1.82-3.07 1.82-6.14 0-9.21-2.914-1.72-5.64-1.282-8.18 1.316-3.25-1.118-5.976-2.875-8.183-5.262 7.488-.008 9.985-3.516 7.5-10.527-1.969-7.856-6.285-9.61-12.953-5.262-1.64-3.86-.277-6.488 4.09-7.895 6.05 4.192 10.14 2.88 12.273-3.949 2.64-4.879 1.051-7.95-4.773-9.21-3.13 1.483-5.63 3.679-7.5 6.577-2.305-2.308-5.031-2.965-8.18-1.972-2.898 2.937-5.172 6.226-6.82 9.867-2.563-.356-4.38.523-5.453 2.633-3.594 2.683-3.594 5.535 0 8.554 3.922.953 7.558.293 10.91-1.976.828.164 1.281.601 1.363 1.316-1.273 1.406-1.73 3.16-1.363 5.266-5.988-1.946-10.531-.192-13.637 5.261-7.258-.902-9.984 1.727-8.183 7.895v1.316A151.729 151.729 0 0 1 225 204.606a39.378 39.378 0 0 1-8.184 5.261 10.736 10.736 0 0 0-.68 5.266c-3.046-.16-6 .277-8.863 1.316-1.718-.344-3.082-1.219-4.09-2.633a14.274 14.274 0 0 0-3.41 3.946c4.375 6.98 2.559 8.734-5.457 5.265a10.72 10.72 0 0 1-.68 5.262c-13.238-2.094-27.105-3.191-41.59-3.289-4.968-4.21-9.284-8.816-12.956-13.816-.91-2.633-.91-5.262 0-7.895a263.041 263.041 0 0 1 23.183-44.738 107.053 107.053 0 0 1 16.364-11.84c.84-1.25.613-2.344-.684-3.29 1.434-.648 2.797-.429 4.094.657a42.744 42.744 0 0 0 6.816-5.922c4.438-.328 8.528-1.644 12.274-3.945 14.113-12.102 30.93-18.024 50.453-17.762-1.371-1.18-1.371-2.058 0-2.633 6.754.543 13.574.543 20.457 0a26.445 26.445 0 0 0 4.77 5.262c1.523-2.137 3.57-3.453 6.136-3.945a48.223 48.223 0 0 0 13.637 1.316 10.728 10.728 0 0 0 .683 5.262c1.38-1.102 2.97-1.54 4.774-1.316.265 4.859 2.992 7.27 8.18 7.238a86.576 86.576 0 0 0 13.636 11.84c7.871.793 13.782 4.52 17.727 11.183 7.879 1.692 12.652 6.074 14.32 13.16-4.195 2.371-4.422 5.004-.683 7.895-.114 9.867 4.203 17.762 12.957 23.684 1.375 2.007 2.054 4.199 2.043 6.578Zm0 0"/><path style="stroke:none;fill-rule:evenodd;fill:#2d1011;fill-opacity:1" d="M221.59 124.344c8.89.285 11.164 4.011 6.82 11.183-9.66.625-11.933-3.105-6.82-11.183Zm0 0"/><path style="stroke:none;fill-rule:evenodd;fill:#cb0000;fill-opacity:1" d="M221.59 126.973h6.82c1.121 7.511-1.379 9.27-7.5 5.265-.789-1.883-.562-3.636.68-5.265Zm0 0"/><path style="stroke:none;fill-rule:evenodd;fill:#270f10;fill-opacity:1" d="M303.41 142.762c-1.797-6.375.93-8.785 8.18-7.235 4.074 5.106 2.937 8.836-3.406 11.184-2.66-.274-4.25-1.59-4.774-3.95Zm0 0"/><path style="stroke:none;fill-rule:evenodd;fill:#c70001;fill-opacity:1" d="M303.41 142.762c1.438-7.336 4.621-8.215 9.543-2.63-2.215 4.009-5.394 4.888-9.543 2.63Zm0 0"/><path style="stroke:none;fill-rule:evenodd;fill:#260b09;fill-opacity:1" d="M240.684 149.344c-1.36 3.922-1.586 7.87-.684 11.84-2.078 3.406-5.035 4.5-8.863 3.289-5.582-7.871-5.125-15.328 1.363-22.368 7.25-1.55 9.977.864 8.184 7.239Zm0 0"/><path style="stroke:none;fill-rule:evenodd;fill:#bf0001;fill-opacity:1" d="M240.684 149.344a41.701 41.701 0 0 1-8.184-4.606c5.055-2.847 7.781-1.312 8.184 4.606Zm0 0"/><path style="stroke:none;fill-rule:evenodd;fill:#c60001;fill-opacity:1" d="M209.316 155.922c-2.89.23-5.617-.211-8.18-1.317 1.438-7.335 4.622-8.214 9.548-2.632-.856 1.207-1.313 2.523-1.368 3.949Zm0 0"/><path style="stroke:none;fill-rule:evenodd;fill:#cf0000;fill-opacity:1" d="M231.137 148.027c6.191.414 7.554 2.828 4.09 7.235-6.516.097-7.88-2.313-4.09-7.235Zm0 0"/><path style="stroke:none;fill-rule:evenodd;fill:#240d0f;fill-opacity:1" d="M209.316 155.922c.055-1.426.512-2.742 1.368-3.95-4.926-5.581-8.11-4.702-9.547 2.633-2.395-4.542-.805-7.175 4.773-7.894 5.098.531 6.918 3.164 5.453 7.894-.523.73-1.203 1.168-2.047 1.317Zm0 0"/><path style="stroke:none;fill-rule:evenodd;fill:#c60001;fill-opacity:1" d="M229.773 157.238h8.18c-2.726 8.77-5.453 8.77-8.18 0Zm0 0"/><path style="stroke:none;fill-rule:evenodd;fill:#cb0000;fill-opacity:1" d="M212.047 161.184c7.785-1.082 9.601 1.332 5.453 7.238a6.966 6.966 0 0 1-4.09.656c-1.148-2.473-1.601-5.101-1.363-7.894Zm0 0"/><path style="stroke:none;fill-rule:evenodd;fill:#cbdeeb;fill-opacity:1" d="M599.316 233.55v3.95c-3.648 1.535-7.285 3.07-10.906 4.605 1.465 2.27 1.695 4.684.68 7.239-4.32 3.058-7.274 7.008-8.863 11.84 1.836 2.398 2.515 5.03 2.046 7.894a21.222 21.222 0 0 1-6.136 1.973 4.819 4.819 0 0 1 1.363 1.976 282.561 282.561 0 0 0-18.41 14.473 10.726 10.726 0 0 0-.68 5.262h4.09a6.286 6.286 0 0 1-.684 3.949c-4.964 3.047-7.691 7.434-8.18 13.156-4.097.77-7.054 2.965-8.863 6.582-1.296-1.09-2.66-1.308-4.09-.66-1.046 5.746-4.456 9.477-10.23 11.184a33.16 33.16 0 0 1-3.406 9.87 14.487 14.487 0 0 0 2.726 4.606 39.12 39.12 0 0 0-6.82 11.184c-5.453.875-10.906 1.754-16.363 2.629a63.657 63.657 0 0 0-12.274 7.894 64.384 64.384 0 0 1-15-.656c.235 1.738-.218 3.273-1.363 4.605-5.414.114-10.414 1.426-15 3.946a46.342 46.342 0 0 1-15-.656c-3.332-.13-6.285.75-8.863 2.632a15.933 15.933 0 0 1-3.406-1.316 483.2 483.2 0 0 0-.684 9.21c-.715-2.269-2.078-4.023-4.09-5.265-4.574 3.832-8.664 3.395-12.273-1.312-1.07 2.347-2.66 4.32-4.774 5.918-4.09.879-8.18.879-12.273 0-1.54-2.715-3.809-3.594-6.817-2.63 3.66 2.427 3.207 3.962-1.363 4.606-2.488-1.515-5.219-2.394-8.183-2.633.523 2.848-.387 5.043-2.727 6.579-1.406-2.028-3.227-2.684-5.453-1.973-.5 7.422-3 8.516-7.5 3.289-2.863 2.04-6.047 3.355-9.547 3.95-3.816-2.196-7.227-1.755-10.227 1.312-5.32.75-10.773.75-16.363 0-2.996.46-5.496 1.773-7.5 3.949a2660.077 2660.077 0 0 0-3.41-3.29c-5.914-.144-11.598-1.241-17.047-3.288a40.279 40.279 0 0 1-12.953 1.316c.031-3.449-1.79-5.207-5.453-5.265l-6.82 3.949c-3.512-2.914-7.375-3.352-11.59-1.317-4.43-2.105-9.203-3.203-14.32-3.289a133.636 133.636 0 0 1-22.5-8.554c-1.364.879-2.727 1.754-4.09 2.632-5.707-4.386-10.024-9.648-12.954-15.789a11.876 11.876 0 0 0 5.454-.66 90.257 90.257 0 0 0-10.91-7.234c-2.255-3.399-2.712-6.91-1.364-10.527-2.195-5.297-5.375-6.172-9.543-2.633-.555-7.364-2.828-14.383-6.82-21.051.305-2.047 1.215-3.8 2.726-5.262-.453-.879-.906-1.754-1.363-2.633a24.427 24.427 0 0 0 6.137-10.527c6.207-5.36 11.207-11.5 15-18.422 5.629-3.793 10.629-8.183 15-13.156 1-6.375 2.59-12.516 4.773-18.422a145.887 145.887 0 0 0-5.453-12.5 288.429 288.429 0 0 1 13.637-45.394c1.363.437 2.273 1.316 2.726 2.632a161.818 161.818 0 0 0-5.457 15.79 7.392 7.392 0 0 0-1.363 3.945 718.244 718.244 0 0 0-4.09 23.687c.895 4.36 3.168 7.871 6.82 10.524 4.77 3.613 10.223 5.808 16.364 6.578.355 1.945-.098 3.699-1.363 5.265a260.176 260.176 0 0 0-20.457 14.473 143.256 143.256 0 0 0-6.817 16.45c3.496 2.433 3.496 4.847 0 7.234a53.403 53.403 0 0 0 6.137 10.527c.672 2.598.902 5.227.68 7.895 3.789.628 6.515-.688 8.183-3.946a12.625 12.625 0 0 0 4.09 4.602c4.59.074 9.137-.586 13.637-1.973 1.363.219 2.726.438 4.09.66 2.863 5.344 6.726 6.004 11.59 1.973 6.124 3.996 12.714 4.871 19.773 2.633 1.363.875 2.726 1.754 4.094 2.629a15.195 15.195 0 0 1 4.77-2.63c3.558 1.458 6.51 3.653 8.862 6.579a85.015 85.015 0 0 1 14.32-3.95 99.805 99.805 0 0 0 17.048 4.606c3.199 4.29 6.152 4.07 8.863-.656 8.785-.91 17.648-.91 26.59 0 1.226-5 4.183-6.317 8.863-3.95a34.935 34.935 0 0 0 8.184-3.945c1.476 3.618 4.203 5.813 8.18 6.578a57.799 57.799 0 0 1 8.863-5.261c4.96.98 9.96 1.86 15 2.629 1.437-.235 2.8-.676 4.09-1.317l5.456 3.95a44.395 44.395 0 0 1 8.18-2.633 41.13 41.13 0 0 0 12.274 1.316c-.16-5.504 2.34-7.258 7.5-5.262a15.302 15.302 0 0 0 4.773-2.632 54.507 54.507 0 0 0 2.047-11.844 186.218 186.218 0 0 0 15-10.524c.453-3.511.906-7.02 1.363-10.527 4.774-4.605 9.543-9.21 14.317-13.816-3.47-2.336-3.47-4.747 0-7.235-.454-.879-.91-1.754-1.364-2.633l5.453-7.894c-.453-.879-.906-1.754-1.363-2.633a37.017 37.017 0 0 1 4.774-2.633 131.16 131.16 0 0 1 2.046-13.156c-2.644-3.547-1.738-5.3 2.727-5.262-1.133-6.66 1.594-10.168 8.184-10.527-.864-4.785-1.32-9.387-1.368-13.816-6.742-3.825-14.015-6.458-21.816-7.895a282.643 282.643 0 0 1-30-14.473 732.783 732.783 0 0 0-26.59-3.289 99.034 99.034 0 0 1-27.273 0c-11.09-1.015-18.817 3.371-23.184 13.157a36.256 36.256 0 0 0-4.77 2.632 220.666 220.666 0 0 1-24.546 25.657 400.408 400.408 0 0 0-30 9.867c-.828-.16-1.282-.598-1.364-1.313 2.336-1.496 3.247-3.687 2.727-6.582 11.078-2.68 21.535-6.629 31.363-11.84 3.317.297 5.59-1.02 6.82-3.949.907 0 1.364-.437 1.364-1.316 5.387-5.906 8.34-12.922 8.863-21.051 3.18-3.46 6.59-6.75 10.227-9.867a58.317 58.317 0 0 1 19.09-3.95c.91-.878 1.82-1.753 2.726-2.632a59.299 59.299 0 0 1 17.047.66 161.657 161.657 0 0 0 14.316-1.973c.684-.66 1.368-1.316 2.047-1.976 1.098 1.718 2.688 2.593 4.774 2.633a62.693 62.693 0 0 0 16.363-3.946c5.781.559 11.465.559 17.047 0 2.469.008 4.515-.87 6.137-2.633 1.511 1.461 3.332 2.34 5.453 2.633 4.742-2.312 8.605-1.433 11.59 2.63 1.796-3.352 4.293-4.227 7.5-2.63 1.82 3.067 1.82 6.14 0 9.207-3.09-1.39-5.817-.73-8.18 1.977 4.98.199 8.16 2.613 9.543 7.234a16.995 16.995 0 0 0 5.457-3.289c6.937-.953 8.3 1.242 4.09 6.578a49.421 49.421 0 0 1 6.136 4.606c5.325-3.903 8.278-2.586 8.864 3.949 1.8-.223 3.394.215 4.773 1.316a19.683 19.683 0 0 0 2.043 5.922 184.137 184.137 0 0 0 20.457 6.578 232.065 232.065 0 0 0 17.727 8.551c2.75 4.965 5.476 9.79 8.18 14.473Zm0 0"/><path style="stroke:none;fill-rule:evenodd;fill:#281412;fill-opacity:1" d="M371.59 159.867c1.629.621 2.539 1.934 2.726 3.95l-.68 3.945c-7.562 3.23-11.199 1.039-10.91-6.578 2.75-2.774 5.704-3.211 8.864-1.317Zm0 0"/><path style="stroke:none;fill-rule:evenodd;fill:#c00;fill-opacity:1" d="M371.59 159.867c2.87 5.89 1.055 8.305-5.453 7.238-2.715-5.464-.899-7.875 5.453-7.238Zm0 0"/><path style="stroke:none;fill-rule:evenodd;fill:#290f0f;fill-opacity:1" d="M213.41 169.078a6.966 6.966 0 0 0 4.09-.656c4.148-5.906 2.332-8.32-5.453-7.238 1.578-2.47 3.851-3.13 6.816-1.973 3.637 3.508 3.637 7.016 0 10.527-2.136 1.004-3.953.785-5.453-.66Zm0 0"/><path style="stroke:none;fill-rule:evenodd;fill:#270d0c;fill-opacity:1" d="M278.863 153.29c-2.133 6.827-6.222 8.14-12.273 3.948-4.367 1.407-5.73 4.035-4.09 7.895 6.668-4.348 10.984-2.594 12.953 5.262 2.485 7.011-.012 10.52-7.5 10.527a47.086 47.086 0 0 0-10.906-6.578c-.367-2.106.09-3.86 1.363-5.266-.082-.715-.535-1.152-1.363-1.316-3.352 2.27-6.988 2.93-10.91 1.976-3.594-3.02-3.594-5.87 0-8.554 1.074-2.11 2.89-2.989 5.453-2.633 1.648-3.64 3.922-6.93 6.82-9.867 3.149-.993 5.875-.336 8.18 1.972 1.87-2.898 4.37-5.094 7.5-6.578 5.824 1.262 7.414 4.332 4.773 9.211Zm0 0"/><path style="stroke:none;fill-rule:evenodd;fill:#cb0000;fill-opacity:1" d="M258.41 169.078c2.563-1.105 5.29-1.547 8.18-1.316 1.12 7.511-1.38 9.27-7.5 5.265a6.315 6.315 0 0 1-.68-3.949Zm0 0"/><path style="stroke:none;fill-rule:evenodd;fill:#c40000;fill-opacity:1" d="M246.137 161.184c2.117 2.02 3.933 4.433 5.453 7.238-1.75.898-3.34.68-4.774-.66a16.46 16.46 0 0 1-.68-6.578Zm0 0"/><path style="stroke:none;fill-rule:evenodd;fill:#cf0000;fill-opacity:1" d="M251.59 158.55c6.355-.636 8.172 1.778 5.457 7.24-6.508 1.065-8.328-1.345-5.457-7.24Zm0 0"/><path style="stroke:none;fill-rule:evenodd;fill:#a70001;fill-opacity:1" d="M267.953 151.973c1.266 2.734 3.54 4.27 6.82 4.605-4.671 1.629-6.945.094-6.82-4.605Zm0 0"/><path style="stroke:none;fill-rule:evenodd;fill:#d10000;fill-opacity:1" d="M258.41 150.656c6.938-.281 8.3 2.13 4.09 7.239-5.402.156-6.77-2.258-4.09-7.239Zm0 0"/><path style="stroke:none;fill-rule:evenodd;fill:#cd0000;fill-opacity:1" d="M278.863 153.29c-6.105 2.769-8.605 1.015-7.5-5.263 5.664-2.62 8.16-.867 7.5 5.262Zm0 0"/><path style="stroke:none;fill-rule:evenodd;fill:#c70001;fill-opacity:1" d="M269.316 171.71c7.032 1.763 7.258 4.392.684 7.895-1.746-.148-2.883-1.027-3.41-2.632 1.543-1.477 2.453-3.23 2.726-5.262Zm0 0"/><path style="stroke:none;fill-rule:evenodd;fill:#c68378;fill-opacity:1" d="M257.047 174.344a47.086 47.086 0 0 1 10.906 6.578c2.207 2.387 4.934 4.144 8.184 5.262v3.949a199.699 199.699 0 0 0-23.864-11.844c-2.273 1.117-4.316 2.434-6.136 3.95-1.364-.442-2.274-1.317-2.727-2.634 3.106-5.453 7.649-7.207 13.637-5.261Zm0 0"/><path style="stroke:none;fill-rule:evenodd;fill:#260f11;fill-opacity:1" d="M292.5 169.078c2.781-3.465 5.738-3.465 8.863 0 1.59 7.238-1.363 10.09-8.863 8.555a12.417 12.417 0 0 1-2.047-3.29c-5.281 5.579-9.601 4.923-12.953-1.976 1.492-5.531 5.129-7.285 10.91-5.262.75 2.84 2.113 3.497 4.09 1.973Zm0 0"/><path style="stroke:none;fill-rule:evenodd;fill:#c60001;fill-opacity:1" d="M292.5 169.078c5.371-2.055 7.871-.3 7.5 5.266-6.121 4.004-8.621 2.246-7.5-5.266Zm0 0"/><path style="stroke:none;fill-rule:evenodd;fill:#cf0000;fill-opacity:1" d="M281.59 167.762c6.355-.637 8.172 1.773 5.457 7.238-6.508 1.066-8.328-1.348-5.457-7.238Zm0 0"/><path style="stroke:none;fill-rule:evenodd;fill:#210b0e;fill-opacity:1" d="M161.59 175.656c9.082-1.52 11.808 1.77 8.183 9.871-9.492 1.598-12.218-1.691-8.183-9.87Zm0 0"/><path style="stroke:none;fill-rule:evenodd;fill:#cf0000;fill-opacity:1" d="M162.953 176.973c6.356-.637 8.172 1.773 5.457 7.238-6.508 1.066-8.324-1.348-5.457-7.238Zm0 0"/><path style="stroke:none;fill-rule:evenodd;fill:#1d141b;fill-opacity:1" d="M243.41 179.605c.453 1.317 1.363 2.192 2.727 2.633-.293 2.207.617 3.524 2.726 3.946 3.637.879 5.91 3.07 6.82 6.578.29 2.164-.163 4.136-1.367 5.922-3.308.925-6.492.707-9.543-.657-.453-1.316-1.363-2.195-2.726-2.632v-1.317c-.457-1.316-1.363-2.191-2.73-2.629-1.649-.57-3.012-1.449-4.09-2.633V187.5c-1.801-6.168.925-8.797 8.183-7.895Zm0 0"/><path style="stroke:none;fill-rule:evenodd;fill:#eacbb8;fill-opacity:1" d="M276.137 190.133v2.629a132.456 132.456 0 0 0-20.453-8.551c-2.73-.879-5.457-.879-8.184 0 .758.504 1.21 1.16 1.363 1.973-2.11-.422-3.02-1.739-2.726-3.946 1.82-1.515 3.863-2.832 6.136-3.949 8.247 3.43 16.2 7.379 23.864 11.844Zm0 0"/><path style="stroke:none;fill-rule:evenodd;fill:#260d0d;fill-opacity:1" d="M329.316 167.762c3.875 1.566 4.786 4.195 2.73 7.894 2.99 3.422 6.626 5.832 10.907 7.239 4.09 5.042 2.953 8.77-3.406 11.183-2.66-.273-4.25-1.586-4.774-3.945-.984-.551-1.668-1.426-2.046-2.633-.207 8.797-4.07 10.992-11.59 6.578-1.344-2.101-1.57-4.297-.684-6.578 7.29-5.285 7.063-9.234-.68-11.844-3.617 3.91-7.933 4.79-12.957 2.633-2.59-7.121-.09-10.191 7.5-9.21-.468-3.93 1.348-5.684 5.457-5.263 3.504.793 6.688 2.106 9.543 3.946Zm0 0"/><path style="stroke:none;fill-rule:evenodd;fill:#ce0000;fill-opacity:1" d="M329.316 178.29c5.25.265 6.618 2.675 4.094 7.237-7.105.72-8.469-1.695-4.094-7.238ZM308.863 170.395c5.715-.13 7.535 2.285 5.453 7.238-6.503 1.066-8.324-1.348-5.453-7.238Zm0 0"/><path style="stroke:none;fill-rule:evenodd;fill:#c70001;fill-opacity:1" d="M329.316 167.762c2.34 4.004 1.43 7.074-2.726 9.21-5.785-4.75-4.875-7.82 2.726-9.21Zm0 0"/><path style="stroke:none;fill-rule:evenodd;fill:#c80000;fill-opacity:1" d="M317.047 165.133c2.629-.356 4.902.3 6.816 1.972-2.093 1.461-3.004 3.434-2.726 5.922-5.38-.507-6.742-3.136-4.09-7.894ZM235.227 187.5c1.437-7.336 4.62-8.215 9.546-2.633-2.289 3.953-5.468 4.828-9.546 2.633Zm0 0"/><path style="stroke:none;fill-rule:evenodd;fill:#200c0d;fill-opacity:1" d="M216.137 173.027c2.175 2.118 3.765 4.75 4.773 7.895 2.649-1.719 5.149-1.719 7.5 0 1.625.617 2.535 1.933 2.727 3.945.234 3.727-1.582 5.918-5.453 6.582-.024 6.383-3.204 9.235-9.547 8.551-4.008-2.527-4.918-5.816-2.727-9.867a42.958 42.958 0 0 1-6.82-12.5c1.308-5.621 4.488-7.153 9.547-4.606Zm0 0"/><path style="stroke:none;fill-rule:evenodd;fill:#cd0000;fill-opacity:1" d="M228.41 180.922c2.871 5.89 1.05 8.3-5.457 7.234-2.715-5.46-.898-7.875 5.457-7.234Zm0 0"/><path style="stroke:none;fill-rule:evenodd;fill:#cb0000;fill-opacity:1" d="M213.41 179.605c5.434.168 7.25 2.583 5.453 7.239-2.226.648-4.5.867-6.816.656-.238-2.79.215-5.422 1.363-7.895Zm0 0"/><path style="stroke:none;fill-rule:evenodd;fill:#ca0000;fill-opacity:1" d="M216.137 173.027c1 1.59 1.453 3.344 1.363 5.262-1.762-.312-3.125.125-4.09 1.316h-4.094c-.906-5.261 1.368-7.457 6.82-6.578Zm0 0"/><path style="stroke:none;fill-rule:evenodd;fill:#84abce;fill-opacity:1" d="M240.684 251.973c6.375 1.527 10.007-.664 10.906-6.578 3.035-2.211 5.308-1.774 6.82 1.316a23.393 23.393 0 0 0 .68 7.894c.918.989 2.05 1.43 3.41 1.317a164.065 164.065 0 0 0 25.91 16.445 7117.076 7117.076 0 0 0 73.637 24.344c3.14 4.094 7.23 4.973 12.27 2.633 5.425 1.844 10.882 2.281 16.367 1.312 1.363.88 2.726 1.754 4.09 2.633a69.812 69.812 0 0 0 2.726-5.922 473.757 473.757 0 0 1 12.953-3.289c-.676-2.668-.45-5.297.684-7.894 5.472-1.024 10.472-2.778 15-5.262v-5.266a7.823 7.823 0 0 1 4.09 1.317c4.324-5.266 9.324-9.871 15-13.817-3.414-3.383-2.735-6.234 2.046-8.55 2.426-4.75 3.336-9.579 2.727-14.473 1.703-3.516 4.203-6.367 7.5-8.555-3.297-1.984-4.664-4.836-4.09-8.55 2.496.726 4.766.726 6.817 0a187.247 187.247 0 0 1-2.727-22.372c.84-.144 1.523-.582 2.047-1.312 2.183-8.196-.77-11.266-8.863-9.211-9.684-2.692-18.778-1.598-27.274 3.289a99.461 99.461 0 0 1-12.273 1.973c-5.192-2.036-9.282-.72-12.274 3.949-.91 0-1.363.437-1.363 1.312a239.64 239.64 0 0 0-23.184 19.739c-1.902 6.69-5.086 12.832-9.543 18.421a14.84 14.84 0 0 1 1.364 3.29 68.023 68.023 0 0 0-4.774 9.867A72.928 72.928 0 0 0 348.41 250c-.457-.438-.91-.879-1.363-1.316a9.644 9.644 0 0 0 2.726-3.29 507.14 507.14 0 0 0-6.82-5.921c-10.68-2.75-21.59-3.848-32.726-3.29-4.168-3.765-9.168-6.175-15-7.234a69.812 69.812 0 0 0-2.727-5.922c-3.621-1.312-6.348-3.507-8.184-6.578-1.285-4.59-4.468-6.344-9.543-5.265a99.394 99.394 0 0 1-10.226-3.946c-4.258.383-6.305 2.578-6.137 6.578h-5.457c5.488-9.375 2.988-12.886-7.5-10.527-1.031 2.984-.805 5.836.684 8.555a38.614 38.614 0 0 0-6.82 1.972 161.818 161.818 0 0 1 5.456-15.789c3.051 1.364 6.235 1.582 9.543.657 1.204-1.786 1.657-3.758 1.368-5.922 8.035 5.66 17.129 8.73 27.27 9.21-2.075 2.747-1.622 4.938 1.362 6.579 2.758 4.98 6.848 6.297 12.274 3.949-.145 3.16 1.219 5.574 4.094 7.238a101.838 101.838 0 0 0 13.632 7.235c2.954 1.605 5.907 1.605 8.868 0 2.53 4.398 6.394 6.156 11.59 5.265.081.715.535 1.153 1.363 1.313a400.408 400.408 0 0 1 30-9.867 220.666 220.666 0 0 0 24.547-25.657 36.256 36.256 0 0 1 4.77-2.632c4.366-9.786 12.093-14.172 23.183-13.157a99.034 99.034 0 0 0 27.273 0 732.783 732.783 0 0 1 26.59 3.29 282.643 282.643 0 0 0 30 14.472c7.8 1.438 15.074 4.07 21.816 7.895.047 4.43.504 9.03 1.368 13.816-6.59.36-9.317 3.867-8.184 10.527-4.465-.039-5.371 1.715-2.727 5.262a131.16 131.16 0 0 0-2.046 13.156 37.017 37.017 0 0 0-4.774 2.633c.457.879.91 1.754 1.363 2.633l-5.453 7.894c.453.88.91 1.754 1.364 2.633-3.47 2.488-3.47 4.899 0 7.235-4.774 4.605-9.543 9.21-14.317 13.816-.457 3.508-.91 7.016-1.363 10.527a186.218 186.218 0 0 1-15 10.524 54.507 54.507 0 0 1-2.047 11.844 15.302 15.302 0 0 1-4.773 2.632c-5.16-1.996-7.66-.242-7.5 5.262a41.13 41.13 0 0 1-12.274-1.316 44.395 44.395 0 0 0-8.18 2.632l-5.457-3.949a14.318 14.318 0 0 1-4.09 1.317c-5.038-.77-10.038-1.649-15-2.63a57.799 57.799 0 0 0-8.863 5.262c-3.976-.765-6.703-2.96-8.18-6.578a34.935 34.935 0 0 1-8.183 3.946c-4.68-2.368-7.637-1.051-8.863 3.949-8.942-.91-17.805-.91-26.59 0-2.711 4.726-5.664 4.945-8.863.656a99.805 99.805 0 0 1-17.047-4.605 85.015 85.015 0 0 0-14.32 3.949c-2.352-2.926-5.305-5.121-8.864-6.578a15.195 15.195 0 0 0-4.77 2.629c-1.367-.875-2.73-1.754-4.093-2.63-7.059 2.239-13.649 1.364-19.774-2.632-4.863 4.031-8.726 3.371-11.59-1.973-1.363-.222-2.726-.441-4.09-.66-4.5 1.387-9.046 2.047-13.636 1.973a12.625 12.625 0 0 1-4.09-4.602c-1.668 3.258-4.394 4.574-8.183 3.946a23.493 23.493 0 0 0-.68-7.895 53.403 53.403 0 0 1-6.137-10.527c3.496-2.387 3.496-4.801 0-7.235a143.256 143.256 0 0 1 6.817-16.449 260.176 260.176 0 0 1 20.457-14.473c1.265-1.566 1.718-3.32 1.363-5.265-6.14-.77-11.594-2.965-16.363-6.578Zm0 0"/><path style="stroke:none;fill-rule:evenodd;fill:#2b0f11;fill-opacity:1" d="M191.59 184.867c-1.793-6.375.933-8.785 8.183-7.234 4.352 5.332 3.215 9.062-3.41 11.183-2.66-.273-4.25-1.59-4.773-3.949Zm0 0"/><path style="stroke:none;fill-rule:evenodd;fill:#c30001;fill-opacity:1" d="M191.59 184.867c.68-6.57 3.633-7.883 8.863-3.945.934 1.687.707 3.223-.68 4.605-2.863.891-5.59.672-8.183-.66Zm0 0"/><path style="stroke:none;fill-rule:evenodd;fill:#2b0f10;fill-opacity:1" d="M304.773 194.078c5.25-.262 6.614-2.676 4.09-7.234-5.441-1.551-7.715.422-6.816 5.918-2.73-6.371-.457-9.223 6.816-8.551 4.828 3.004 5.282 6.512 1.364 10.527-3.059 1.047-4.88.828-5.454-.66Zm0 0"/><path style="stroke:none;fill-rule:evenodd;fill:#d00000;fill-opacity:1" d="M334.773 190.133c.176-5.246 2.676-7 7.5-5.266 1.106 6.281-1.394 8.035-7.5 5.266Zm0 0"/><path style="stroke:none;fill-rule:evenodd;fill:#c30001;fill-opacity:1" d="M284.316 184.867c1.82 3.07 1.82 6.14 0 9.211-6.808-.652-8.171-3.504-4.09-8.55a6.938 6.938 0 0 1 4.09-.66Zm0 0"/><path style="stroke:none;fill-rule:evenodd;fill:#ce0000;fill-opacity:1" d="M304.773 194.078c-.468-1.101-1.375-1.543-2.726-1.316-.899-5.496 1.375-7.469 6.816-5.918 2.524 4.558 1.16 6.972-4.09 7.234Zm0 0"/><path style="stroke:none;fill-rule:evenodd;fill:#cb0000;fill-opacity:1" d="M323.863 186.184c5.5.222 7.32 2.636 5.453 7.238-2.226.648-4.5.867-6.816.656-.238-2.789.219-5.422 1.363-7.894Zm0 0"/><path style="stroke:none;fill-rule:evenodd;fill:#5775a5;fill-opacity:1" d="M450.684 190.133c-1.696 2.777-1.696 5.406 0 7.894 1.433 2.309 3.707 3.188 6.816 2.63a187.247 187.247 0 0 0 2.727 22.37c-2.051.727-4.32.727-6.817 0-.574 3.715.793 6.567 4.09 8.551-3.297 2.188-5.797 5.04-7.5 8.555.61 4.894-.3 9.722-2.727 14.472-4.78 2.317-5.46 5.168-2.046 8.551-5.676 3.946-10.676 8.551-15 13.817a7.823 7.823 0 0 0-4.09-1.317v5.266c-4.528 2.484-9.528 4.238-15 5.262-1.133 2.597-1.36 5.226-.684 7.894a473.757 473.757 0 0 0-12.953 3.29 69.812 69.812 0 0 1-2.727 5.921c-1.363-.879-2.726-1.754-4.09-2.633-5.484.969-10.94.531-16.367-1.312 1.813-8.125-1.37-10.977-9.543-8.555-2.097 1.461-3.003 3.434-2.726 5.922a7117.076 7117.076 0 0 1-73.637-24.344 164.065 164.065 0 0 1-25.91-16.445c7.422-.508 9.238-3.797 5.453-9.871-3.312-.922-6.492-.703-9.543.66-1.512-3.09-3.785-3.527-6.82-1.316-.453-1.317-1.363-2.192-2.727-2.633-2.89-.23-5.62.21-8.18 1.316 2.395-6.277 3.305-12.855 2.727-19.734.91 1.754 1.817 3.508 2.727 5.261.437 2.036 1.8 2.915 4.09 2.633-.368 2.473.539 4.227 2.726 5.262 2.66 3.227 5.613 3.227 8.863 0 .23-1.316.457-2.633.684-3.95-.191-2.01-1.102-3.327-2.727-3.945v-1.316c1.497-1.45 1.723-3.203.68-5.262-.574-2.535-2.164-3.851-4.77-3.949a50.49 50.49 0 0 0-6.136-2.629c-.258-2.054.879-2.933 3.406-2.633h5.457c-.168-4 1.88-6.195 6.137-6.578a99.394 99.394 0 0 0 10.226 3.946c-2.695 2.449-3.148 5.082-1.363 7.894-.254 2.23-1.39 3.988-3.41 5.266-1.043 2.058-.816 3.812.684 5.261-.118 1.31.336 2.407 1.363 3.29 3.441 1.18 6.398.52 8.863-1.973.055-3.68.285-7.188.68-10.527 1.918-.622 2.828-1.938 2.726-3.946 1.836 3.07 4.563 5.266 8.184 6.578a69.812 69.812 0 0 1 2.727 5.922c5.832 1.059 10.832 3.469 15 7.235 11.136-.559 22.046.539 32.726 3.289a507.14 507.14 0 0 1 6.82 5.922 9.644 9.644 0 0 1-2.726 3.289c.453.437.906.879 1.363 1.316 4.442.277 8.758.938 12.953 1.973a68.023 68.023 0 0 1 4.774-9.868 14.84 14.84 0 0 0-1.364-3.289c4.457-5.59 7.641-11.73 9.543-18.421a239.64 239.64 0 0 1 23.184-19.739c1.418 8.79 5.508 10.106 12.273 3.95 3.196-2.446 3.653-5.512 1.364-9.211a99.461 99.461 0 0 0 12.273-1.973c8.496-4.887 17.59-5.98 27.274-3.29Zm0 0"/><path style="stroke:none;fill-rule:evenodd;fill:#15172a;fill-opacity:1" d="M457.5 200.656c-3.11.559-5.383-.32-6.816-2.629-1.696-2.488-1.696-5.117 0-7.894 8.093-2.055 11.046 1.015 8.863 9.21-.524.731-1.207 1.169-2.047 1.313Zm0 0"/><path style="stroke:none;fill-rule:evenodd;fill:#ce0000;fill-opacity:1" d="M216.137 190.133c6.351-.64 8.172 1.773 5.453 7.234-6.508 1.067-8.324-1.344-5.453-7.234Zm0 0"/><path style="stroke:none;fill-rule:evenodd;fill:#d9e3eb;fill-opacity:1" d="M276.137 192.762c2.238 2.082 4.965 2.957 8.18 2.633 4.12 1.59 4.578 3.343 1.367 5.261-1.356-.226-2.262.215-2.73 1.317-10.142-.48-19.235-3.551-27.27-9.211-.91-3.508-3.184-5.7-6.82-6.578-.153-.813-.606-1.47-1.364-1.973 2.727-.879 5.453-.879 8.184 0a132.456 132.456 0 0 1 20.453 8.55Zm0 0"/><path style="stroke:none;fill-rule:evenodd;fill:#281817;fill-opacity:1" d="M284.316 184.867a6.938 6.938 0 0 0-4.09.66c-4.081 5.047-2.718 7.899 4.09 8.551v1.317c-3.214.324-5.941-.551-8.18-2.633V186.184c2.54-2.598 5.266-3.036 8.18-1.317Zm0 0"/><path style="stroke:none;fill-rule:evenodd;fill:#0000df;fill-opacity:1" d="M450.684 198.027c-.836-4.644.984-7.054 5.453-7.238 4.605 7.043 2.785 9.453-5.453 7.238Zm0 0"/><path style="stroke:none;fill-rule:evenodd;fill:#bb7e72;fill-opacity:1" d="M303.41 199.344c-1.969 1.734-2.875 3.926-2.726 6.578-1.508-1.45-3.329-2.324-5.457-2.633-1.364-.879-2.727-1.754-4.09-2.633h-5.453c3.21-1.918 2.753-3.672-1.368-5.261v-1.317c3.942.293 8.036.293 12.274 0 1.172 3.2 3.445 4.953 6.82 5.266Zm0 0"/><path style="stroke:none;fill-rule:evenodd;fill:#2d0f10;fill-opacity:1" d="M152.047 187.5c5.031-.23 7.762 1.96 8.18 6.578 5.675.863 7.496 3.93 5.457 9.211-5.942 4.277-9.579 2.961-10.91-3.945-3.891.191-6.165-1.563-6.82-5.266.35-2.883 1.714-5.078 4.093-6.578Zm0 0"/><path style="stroke:none;fill-rule:evenodd;fill:#cb0000;fill-opacity:1" d="M150.684 190.133c2.316-.211 4.59.008 6.816.656 1.79 4.86-.027 7.05-5.453 6.578-1.238-2.234-1.692-4.648-1.363-7.234Zm0 0"/><path style="stroke:none;fill-rule:evenodd;fill:#c00;fill-opacity:1" d="M160.227 195.395c1.359-.114 2.496.328 3.41 1.316a16.46 16.46 0 0 1 .68 6.578c-8.81.547-10.172-2.086-4.09-7.894Zm0 0"/><path style="stroke:none;fill-rule:evenodd;fill:#0300d6;fill-opacity:1" d="M244.773 187.5c5.286-.824 7.786 1.371 7.5 6.578l1.364-2.629c1.59 5.48-.453 7.453-6.137 5.918.91-.437 1.816-.875 2.727-1.316-6.457-.176-8.274-3.028-5.454-8.551Zm0 0"/><path style="stroke:none;fill-rule:evenodd;fill:#0000e3;fill-opacity:1" d="M409.773 204.605a29.312 29.312 0 0 1-6.82-1.316c-.652-3.656.715-6.285 4.094-7.894 4.094 2.207 5 5.277 2.726 9.21Zm0 0"/><path style="stroke:none;fill-rule:evenodd;fill:#121424;fill-opacity:1" d="M411.137 195.395c2.289 3.699 1.832 6.765-1.364 9.21 2.274-3.933 1.368-7.003-2.726-9.21-3.379 1.609-4.746 4.238-4.094 7.894-.816-1.84-2.18-3.156-4.09-3.945 2.992-4.668 7.082-5.985 12.274-3.95Zm0 0"/><path style="stroke:none;fill-rule:evenodd;fill:#20090a;fill-opacity:1" d="M355.227 213.816c2.293-3.918 1.156-6.55-3.41-7.894-3.462.93-5.055 3.121-4.77 6.578-1.235-.934-1.688-2.25-1.363-3.95-7.594.985-10.094-2.085-7.5-9.206 6.593-4.371 10-2.617 10.226 5.261 6.82-1.09 9.774 1.54 8.863 7.895-.523.73-1.203 1.168-2.046 1.316Zm0 0"/><path style="stroke:none;fill-rule:evenodd;fill:#ce0000;fill-opacity:1" d="M340.227 199.344c6.355-.64 8.171 1.773 5.457 7.234-6.508 1.067-8.329-1.344-5.457-7.234Zm0 0"/><path style="stroke:none;fill-rule:evenodd;fill:#ff01d3;fill-opacity:1" d="M441.137 199.344c.433 2.957-.246 5.59-2.047 7.894-.453-.879-.91-1.754-1.363-2.633-2.586 2.875-5.543 3.313-8.864 1.317.192-6.906 3.145-8.219 8.864-3.95.57-1.652 1.707-2.527 3.41-2.628Zm0 0"/><path style="stroke:none;fill-rule:evenodd;fill:#0000c9;fill-opacity:1" d="M285.684 200.656h5.453c-2.242 2.61-4.516 5.239-6.82 7.895-.239-2.79.218-5.422 1.367-7.895Zm0 0"/><path style="stroke:none;fill-rule:evenodd;fill:#2b1817;fill-opacity:1" d="M370.227 201.973c1.992-.086 3.808.351 5.457 1.316v6.578c-1.23 2.93-3.504 4.246-6.82 3.95-.91-.438-1.817-.88-2.727-1.317-1.696-2.777-1.696-5.41 0-7.895-.899 5.497 1.375 7.47 6.816 5.922 2.524-4.562 1.16-6.972-4.09-7.238-1.441-.93-.988-1.367 1.364-1.316Zm0 0"/><path style="stroke:none;fill-rule:evenodd;fill:#d10000;fill-opacity:1" d="M368.863 203.29c5.25.265 6.614 2.675 4.09 7.237-5.441 1.547-7.715-.425-6.816-5.922 1.351.227 2.261-.214 2.726-1.316Zm0 0"/><path style="stroke:none;fill-rule:evenodd;fill:#00c;fill-opacity:1" d="M398.863 199.344c1.91.789 3.274 2.105 4.09 3.945 2.176 2.465 1.723 3.563-1.363 3.29-2.254-1.9-3.164-4.313-2.727-7.235Zm0 0"/><path style="stroke:none;fill-rule:evenodd;fill:#c60001;fill-opacity:1" d="M355.227 213.816c-2.891.23-5.618-.21-8.18-1.316-.285-3.457 1.308-5.648 4.77-6.578 4.566 1.344 5.703 3.976 3.41 7.894Zm0 0"/><path style="stroke:none;fill-rule:evenodd;fill:#141727;fill-opacity:1" d="M441.137 199.344c-1.703.101-2.84.976-3.41 2.629-5.72-4.27-8.672-2.957-8.864 3.949-3.914 1.55-7.777 1.55-11.59 0-2.836-6.926-.336-10.215 7.5-9.871l3.41 3.293c4.567-3.364 8.887-3.364 12.954 0Zm0 0"/><path style="stroke:none;fill-rule:evenodd;fill:#0000e9;fill-opacity:1" d="M419.316 198.027c6.356-.64 8.172 1.774 5.457 7.235-6.507 1.066-8.324-1.344-5.457-7.235Zm0 0"/><path style="stroke:none;fill-rule:evenodd;fill:#191932;fill-opacity:1" d="M285.684 200.656c-1.149 2.473-1.606 5.106-1.368 7.895-2.984-1.64-3.437-3.832-1.363-6.578.469-1.102 1.375-1.543 2.73-1.317Zm0 0"/><path style="stroke:none;fill-rule:evenodd;fill:#100d23;fill-opacity:1" d="M398.863 199.344c-.437 2.922.473 5.336 2.727 7.234 3.086.274 3.539-.824 1.363-3.289a29.312 29.312 0 0 0 6.82 1.316c-6.765 6.157-10.855 4.84-12.273-3.949 0-.875.453-1.312 1.363-1.312Zm0 0"/><path style="stroke:none;fill-rule:evenodd;fill:#0f0d20;fill-opacity:1" d="M441.137 199.344c3.59 2.683 3.59 5.535 0 8.55l-6.137.657c-2.707-.09-4.754-.965-6.137-2.63 3.32 1.997 6.278 1.56 8.864-1.316.453.88.91 1.754 1.363 2.633 1.8-2.304 2.48-4.937 2.047-7.894Zm0 0"/><path style="stroke:none;fill-rule:evenodd;fill:#321815;fill-opacity:1" d="M303.41 199.344c5.074-1.082 8.254.672 9.543 5.261-.05 4.215-2.32 6.407-6.816 6.579-2.274-1.317-4.09-3.07-5.453-5.262-.149-2.652.757-4.844 2.726-6.578Zm0 0"/><path style="stroke:none;fill-rule:evenodd;fill:#d00000;fill-opacity:1" d="M304.773 200.656c5.434.172 7.25 2.586 5.454 7.239-6.508 1.066-8.325-1.348-5.454-7.239Zm0 0"/><path style="stroke:none;fill-rule:evenodd;fill:#c98679;fill-opacity:1" d="M312.953 204.605c1.004 1.813 1.91 3.786 2.73 5.922 2.27.438 4.544.875 6.817 1.317 1.027.883 1.48 1.976 1.363 3.289-3.515-.14-6.699.738-9.547 2.629-3.285-1.578-6.011-3.77-8.18-6.578 4.497-.172 6.766-2.364 6.817-6.579Zm0 0"/><path style="stroke:none;fill-rule:evenodd;fill:#230d0c;fill-opacity:1" d="M160.227 221.71c-7.774-1.358-10.047-5.526-6.817-12.5 2.727-.878 5.453-.878 8.18 0a25.545 25.545 0 0 0 7.5 5.923c1.933 5.187.117 8.254-5.453 9.21-1.774-.183-2.91-1.062-3.41-2.632Zm0 0"/><path style="stroke:none;fill-rule:evenodd;fill:#cd0000;fill-opacity:1" d="M154.773 209.867c2.63-.351 4.903.305 6.817 1.977a34.098 34.098 0 0 0-5.453 5.918c-3.055-2.149-3.508-4.778-1.364-7.895Zm0 0"/><path style="stroke:none;fill-rule:evenodd;fill:#2a0e0e;fill-opacity:1" d="M195.684 200.656c8.386.797 10.203 4.524 5.453 11.188-10.227.258-12.047-3.473-5.453-11.188Zm0 0"/><path style="stroke:none;fill-rule:evenodd;fill:#d00000;fill-opacity:1" d="M195.684 203.29c6.933-.286 8.296 2.128 4.09 7.237-5.407.153-6.77-2.257-4.09-7.238Zm0 0"/><path style="stroke:none;fill-rule:evenodd;fill:#141424;fill-opacity:1" d="M274.773 211.184c5.075-1.079 8.258.675 9.543 5.265.102 2.008-.808 3.324-2.726 3.946 2.293-3.918 1.156-6.551-3.406-7.895-3.465.93-5.059 3.121-4.774 6.578-1.785-2.812-1.332-5.445 1.363-7.894Zm0 0"/><path style="stroke:none;fill-rule:evenodd;fill:#151429;fill-opacity:1" d="M291.137 200.656c1.363.88 2.726 1.754 4.09 2.633v1.316c3.039 2.106 3.496 4.735 1.363 7.895-5.426 2.348-9.516 1.031-12.274-3.95 2.305-2.655 4.579-5.284 6.82-7.894Zm0 0"/><path style="stroke:none;fill-rule:evenodd;fill:#0000ea;fill-opacity:1" d="M295.227 204.605c1.918 5.63-.356 8.258-6.817 7.895-1.469-5.84.805-8.473 6.817-7.895Zm0 0"/><path style="stroke:none;fill-rule:evenodd;fill:#0000e3;fill-opacity:1" d="M281.59 220.395c-2.89.23-5.617-.211-8.18-1.317-.285-3.457 1.309-5.648 4.774-6.578 4.562 1.344 5.699 3.977 3.406 7.895Zm0 0"/><path style="stroke:none;fill-rule:evenodd;fill:#e4e2e2;fill-opacity:1" d="M295.227 204.605v-1.316c2.128.309 3.949 1.184 5.457 2.633 1.363 2.191 3.18 3.945 5.453 5.262 2.168 2.808 4.894 5 8.18 6.578-1.66 2.347-1.66 4.539 0 6.582v2.629a101.838 101.838 0 0 1-13.633-7.235c-2.875-1.664-4.239-4.078-4.094-7.238 2.133-3.16 1.676-5.79-1.363-7.895Zm0 0"/><path style="stroke:none;fill-rule:evenodd;fill:#261312;fill-opacity:1" d="M334.773 223.027h2.727v2.63c.52 2.894-.39 5.085-2.727 6.581-5.195.89-9.058-.867-11.59-5.265-2.96 1.605-5.913 1.605-8.867 0v-2.63c-1.66-2.042-1.66-4.234 0-6.581 2.848-1.89 6.032-2.77 9.547-2.63h1.364c7.074-2.41 10.257.22 9.546 7.895Zm0 0"/><path style="stroke:none;fill-rule:evenodd;fill:#cd0000;fill-opacity:1" d="M160.227 221.71c-.22-2.233.007-4.429.683-6.577 5.035-1.73 7.309.023 6.817 5.262-2.317 1.19-4.817 1.628-7.5 1.316Zm0 0"/><path style="stroke:none;fill-rule:evenodd;fill:#c80001;fill-opacity:1" d="M325.227 215.133c4.812-.805 7.312.949 7.5 5.262-7.258 4.449-9.762 2.695-7.5-5.262Zm0 0"/><path style="stroke:none;fill-rule:evenodd;fill:#121226;fill-opacity:1" d="M389.316 221.71c-2.523-6.995-.023-9.628 7.5-7.894 3.692-4.578 7.782-5.015 12.274-1.316 1.476 7.29-1.477 9.922-8.863 7.895-1.243 2.953-3.516 4.265-6.817 3.949-2.086-.188-3.45-1.063-4.094-2.633Zm0 0"/><path style="stroke:none;fill-rule:evenodd;fill:#0000eb;fill-opacity:1" d="M389.316 221.71c-.66-6.128 1.84-7.882 7.5-5.26 1.106 6.277-1.394 8.03-7.5 5.26Zm0 0"/><path style="stroke:none;fill-rule:evenodd;fill:#0000e3;fill-opacity:1" d="M401.59 211.184c5.433.171 7.254 2.582 5.457 7.238-7.5 1.058-9.317-1.352-5.457-7.238Zm0 0"/><path style="stroke:none;fill-rule:evenodd;fill:#181b2c;fill-opacity:1" d="M252.953 213.816c-2.527-.3-3.664.579-3.406 2.633a50.49 50.49 0 0 1 6.137 2.63c-3.32-.298-5.59 1.019-6.82 3.948-2.337 1.493-3.247 3.688-2.727 6.578-.91-1.753-1.817-3.507-2.727-5.261-3.816-.617-5.633-2.809-5.457-6.582a7.392 7.392 0 0 1 1.363-3.946 38.614 38.614 0 0 1 6.82-1.972c-1.488-2.719-1.714-5.57-.683-8.555 10.488-2.36 12.988 1.152 7.5 10.527Zm0 0"/><path style="stroke:none;fill-rule:evenodd;fill:#0000ea;fill-opacity:1" d="M242.047 213.816c4.863.34 6.683 2.973 5.453 7.895-8.125.95-9.945-1.684-5.453-7.895Zm0 0"/><path style="stroke:none;fill-rule:evenodd;fill:#0000ec;fill-opacity:1" d="M247.5 203.29c6.352-.638 8.172 1.773 5.453 7.237-6.504 1.067-8.324-1.347-5.453-7.238Zm0 0"/><path style="stroke:none;fill-rule:evenodd;fill:#271310;fill-opacity:1" d="M213.41 226.973c7.602-1.387 8.512-4.457 2.727-9.211a7.754 7.754 0 0 1-4.09 1.316c1.578-2.469 3.851-3.125 6.816-1.973 3.637 3.508 3.637 7.016 0 10.528-2.136 1.004-3.953.785-5.453-.66Zm0 0"/><path style="stroke:none;fill-rule:evenodd;fill:#ca887c;fill-opacity:1" d="M366.137 212.5c.91.438 1.816.879 2.726 1.316-9.828 5.211-20.285 9.16-31.363 11.84v-2.629a644.187 644.187 0 0 0 28.637-10.527Zm0 0"/><path style="stroke:none;fill-rule:evenodd;fill:#c60001;fill-opacity:1" d="M213.41 226.973c-1.148-2.473-1.601-5.102-1.363-7.895a7.754 7.754 0 0 0 4.09-1.316c5.785 4.754 4.875 7.824-2.727 9.21Zm0 0"/><path style="stroke:none;fill-rule:evenodd;fill:#11141d;fill-opacity:1" d="M255.684 219.078c2.605.098 4.195 1.414 4.77 3.95 1.042 2.058.816 3.812-.68 5.261-.258-3.559-1.622-6.629-4.09-9.21Zm0 0"/><path style="stroke:none;fill-rule:evenodd;fill:#c90001;fill-opacity:1" d="M314.316 224.344c.176-5.246 2.68-7 7.5-5.266a16.4 16.4 0 0 1 .684 6.578c-2.89.23-5.621-.207-8.184-1.312Zm0 0"/><path style="stroke:none;fill-rule:evenodd;fill:#0000ec;fill-opacity:1" d="M426.137 220.395c5.695-.868 7.742 1.328 6.136 6.578-5.664 2.62-8.16.867-7.5-5.262.91 0 1.364-.438 1.364-1.316Zm0 0"/><path style="stroke:none;fill-rule:evenodd;fill:#351816;fill-opacity:1" d="M212.047 219.078c-.238 2.793.215 5.422 1.363 7.895-2.445-.504-3.808-2.04-4.094-4.606.192-1.71 1.098-2.808 2.73-3.289Zm0 0"/><path style="stroke:none;fill-rule:evenodd;fill:#81a6c6;fill-opacity:1" d="M237.953 217.762c-.176 3.773 1.64 5.965 5.457 6.582.578 6.879-.332 13.457-2.726 19.734v7.895c-3.653-2.653-5.926-6.164-6.82-10.524a718.244 718.244 0 0 1 4.09-23.687Zm0 0"/><path style="stroke:none;fill-rule:evenodd;fill:#0000e3;fill-opacity:1" d="M248.863 223.027h5.453v5.262c-2.18 2.934-4.906 3.371-8.18 1.316-.519-2.89.391-5.085 2.727-6.578Zm0 0"/><path style="stroke:none;fill-rule:evenodd;fill:#020461;fill-opacity:1" d="M255.684 219.078c2.468 2.582 3.832 5.652 4.09 9.211-1.008.172-1.919-.047-2.727-.656 1.629-.863 1.629-1.52 0-1.977a40.24 40.24 0 0 1-2.73 2.633v-5.262h-5.454c1.23-2.93 3.5-4.246 6.82-3.949Zm0 0"/><path style="stroke:none;fill-rule:evenodd;fill:#c70001;fill-opacity:1" d="M334.773 223.027c2.856 6.672.809 8.864-6.136 6.578a10.774 10.774 0 0 1-.684-5.261c2.34-.172 4.613-.61 6.82-1.317Zm0 0"/><path style="stroke:none;fill-rule:evenodd;fill:#101025;fill-opacity:1" d="M426.137 220.395c7.504-2.625 10.004.007 7.5 7.894-5.2 4.066-8.61 2.969-10.227-3.289.04-1.406.492-2.504 1.363-3.29-.66 6.13 1.836 7.884 7.5 5.263 1.606-5.25-.441-7.446-6.136-6.578Zm0 0"/><path style="stroke:none;fill-rule:evenodd;fill:#0000da;fill-opacity:1" d="M259.773 229.605c2.852 6.47.582 9.102-6.82 7.895-1.328-4.96.945-7.59 6.82-7.895Zm0 0"/><path style="stroke:none;fill-rule:evenodd;fill:#161c2d;fill-opacity:1" d="M273.41 219.078c2.563 1.106 5.29 1.547 8.18 1.317-.395 3.34-.625 6.847-.68 10.527-2.465 2.492-5.422 3.152-8.863 1.973-1.027-.883-1.48-1.98-1.363-3.29-1.5-1.449-1.727-3.203-.684-5.261 2.02-1.278 3.156-3.035 3.41-5.266Zm0 0"/><path style="stroke:none;fill-rule:evenodd;fill:#0000d6;fill-opacity:1" d="M270.684 229.605c.675-6.57 3.632-7.886 8.863-3.949-.242 6.735-3.195 8.051-8.863 3.95Zm0 0"/><path style="stroke:none;fill-rule:evenodd;fill:#0f1120;fill-opacity:1" d="M259.773 228.29v1.315c-5.875.305-8.148 2.934-6.82 7.895-2.187-1.035-3.094-2.79-2.726-5.262-2.29.282-3.653-.597-4.09-2.633 3.273 2.055 6 1.618 8.18-1.316a40.24 40.24 0 0 0 2.73-2.633c1.629.457 1.629 1.114 0 1.977.808.61 1.719.828 2.726.656Zm0 0"/><path style="stroke:none;fill-rule:evenodd;fill:#121528;fill-opacity:1" d="M409.773 251.973c4.137 3.863 7.317 3.203 9.543-1.973a15.27 15.27 0 0 0-2.726-4.605c-2.746-.141-5.016.734-6.817 2.632-6.472-.777-8.972-4.285-7.5-10.527a20.264 20.264 0 0 1 6.137-3.95c-2.012-3.609-1.105-6.46 2.727-8.55 7.074-.617 10.027 2.672 8.863 9.867 3.469.934 5.059 3.13 4.773 6.582-2.246 4.524-4.52 9.13-6.82 13.813-2.273.879-4.543.879-6.816 0-1.028-.883-1.48-1.977-1.364-3.29Zm0 0"/><path style="stroke:none;fill-rule:evenodd;fill:#0000e2;fill-opacity:1" d="M412.5 225.656c6.559 2.309 7.016 5.38 1.363 9.211-4.988-2.191-5.441-5.258-1.363-9.21Zm0 0"/><path style="stroke:none;fill-rule:evenodd;fill:#0000df;fill-opacity:1" d="M441.137 237.5c-.68 6.57-3.633 7.887-8.864 3.95a6.295 6.295 0 0 1-.683-3.95c3.183-1.754 6.363-1.754 9.547 0Zm0 0"/><path style="stroke:none;fill-rule:evenodd;fill:#c90001;fill-opacity:1" d="M194.316 237.5c1.82 2.633 1.82 5.262 0 7.895-3.785.628-6.515-.688-8.18-3.946 1.665-3.262 4.395-4.578 8.18-3.949Zm0 0"/><path style="stroke:none;fill-rule:evenodd;fill:#1b2131;fill-opacity:1" d="M259.773 229.605c1.625.618 2.536 1.934 2.727 3.946a1390.82 1390.82 0 0 1-.684 3.949c-3.25 3.227-6.203 3.227-8.863 0 7.402 1.207 9.672-1.426 6.82-7.895Zm0 0"/><path style="stroke:none;fill-rule:evenodd;fill:#0000d6;fill-opacity:1" d="M405.684 236.184c6.808.656 8.171 3.507 4.09 8.554-6.981-.234-8.344-3.082-4.09-8.554Zm0 0"/><path style="stroke:none;fill-rule:evenodd;fill:#0000e8;fill-opacity:1" d="M416.59 245.395c-2.871-5.891-1.05-8.301 5.457-7.239 2.715 5.465.898 7.875-5.457 7.239Zm0 0"/><path style="stroke:none;fill-rule:evenodd;fill:#0000d5;fill-opacity:1" d="M310.227 237.5c1.968 1.738 2.875 3.93 2.726 6.578-5.668 4.102-8.621 2.79-8.863-3.945 1.515-2.024 3.558-2.899 6.137-2.633Zm0 0"/><path style="stroke:none;fill-rule:evenodd;fill:#26110e;fill-opacity:1" d="M194.316 237.5c-3.785-.629-6.515.688-8.18 3.95 1.665 3.257 4.395 4.573 8.18 3.945-4.707 2.41-7.89 1.093-9.543-3.946 1.653-5.043 4.836-6.36 9.543-3.949Zm0 0"/><path style="stroke:none;fill-rule:evenodd;fill:#230f09;fill-opacity:1" d="M194.316 237.5c3.637 2.633 3.637 5.262 0 7.895 1.82-2.633 1.82-5.262 0-7.895Zm0 0"/><path style="stroke:none;fill-rule:evenodd;fill:#0000df;fill-opacity:1" d="M248.863 242.762c1.598 6.781-1.129 8.976-8.18 6.582v-5.266c2.56-1.105 5.29-1.547 8.18-1.316Zm0 0"/><path style="stroke:none;fill-rule:evenodd;fill:#101425;fill-opacity:1" d="M431.59 237.5a6.295 6.295 0 0 0 .683 3.95c5.23 3.937 8.184 2.62 8.864-3.95 2.394 4.543.804 7.172-4.774 7.895-5.578-.723-7.168-3.352-4.773-7.895Zm0 0"/><path style="stroke:none;fill-rule:evenodd;fill:#321a17;fill-opacity:1" d="M167.047 248.027c2.855-6.672.808-8.867-6.137-6.578-.875 2.32-.644 4.516.68 6.578-5.723-4.554-4.813-8.062 2.726-10.527 3.825.621 5.641 2.813 5.457 6.578-.191 2.016-1.101 3.328-2.726 3.95Zm0 0"/><path style="stroke:none;fill-rule:evenodd;fill:#ca0001;fill-opacity:1" d="M167.047 248.027h-5.457c-1.324-2.062-1.555-4.257-.68-6.578 6.945-2.289 8.992-.094 6.137 6.578Zm0 0"/><path style="stroke:none;fill-rule:evenodd;fill:#13152d;fill-opacity:1" d="M394.773 245.395c4.606-.211 7.332 1.761 8.18 5.921a417.972 417.972 0 0 1-3.406 8.551c-5.293 3.93-9.16 2.836-11.594-3.289 1.422-4.285 3.695-8.012 6.82-11.183Zm0 0"/><path style="stroke:none;fill-rule:evenodd;fill:#0000d6;fill-opacity:1" d="M416.59 245.395a15.27 15.27 0 0 1 2.726 4.605c-2.226 5.176-5.406 5.836-9.543 1.973v-3.946c1.801-1.898 4.07-2.773 6.817-2.632Zm0 0"/><path style="stroke:none;fill-rule:evenodd;fill:#0000e2;fill-opacity:1" d="M394.773 248.027c5.344-.992 7.164.762 5.454 5.262-1.926-1.719-4.2-2.816-6.817-3.289.758-.504 1.211-1.16 1.363-1.973Zm0 0"/><path style="stroke:none;fill-rule:evenodd;fill:#181c2d;fill-opacity:1" d="M248.863 242.762c1.364.441 2.274 1.316 2.727 2.633-.899 5.914-4.531 8.105-10.906 6.578v-2.63c7.05 2.395 9.777.2 8.18-6.581Zm0 0"/><path style="stroke:none;fill-rule:evenodd;fill:#101526;fill-opacity:1" d="M262.5 255.922c-1.36.113-2.492-.328-3.41-1.317a23.393 23.393 0 0 1-.68-7.894c3.05-1.363 6.23-1.582 9.543-.66 3.785 6.074 1.969 9.363-5.453 9.87Zm0 0"/><path style="stroke:none;fill-rule:evenodd;fill:#0000ed;fill-opacity:1" d="M261.137 246.71c6.351-.636 8.172 1.774 5.453 7.24-6.508 1.062-8.324-1.348-5.453-7.24Zm0 0"/><path style="stroke:none;fill-rule:evenodd;fill:#0000ea;fill-opacity:1" d="M392.047 251.973c5.433.172 7.25 2.582 5.453 7.238-2.227.648-4.5.867-6.816.656-.243-2.789.214-5.422 1.363-7.894Zm0 0"/><path style="stroke:none;fill-rule:evenodd;fill:#0e0c22;fill-opacity:1" d="M310.227 236.184v1.316c-2.579-.266-4.622.61-6.137 2.633.242 6.734 3.195 8.047 8.863 3.945.117 1.313-.336 2.406-1.363 3.29 2.726.437 5.457.878 8.183 1.316a155.141 155.141 0 0 1 2.727 8.554h-4.09c-4.98 2.176-5.207 4.809-.683 7.895.523-.735 1.203-1.172 2.046-1.317v6.579c-6.933-4.274-12.843-9.758-17.726-16.446a34.535 34.535 0 0 1 2.726-5.922c-4.84-7.015-3.02-10.96 5.454-11.843Zm0 0"/><path style="stroke:none;fill-rule:evenodd;fill:#0000e4;fill-opacity:1" d="M306.137 249.344h4.09c-.004 3.078-1.141 5.71-3.41 7.894-2.454-2.457-2.68-5.086-.68-7.894Zm0 0"/><path style="stroke:none;fill-rule:evenodd;fill:#0000ec;fill-opacity:1" d="M318.41 257.238c-6.355.637-8.172-1.773-5.457-7.238 6.508-1.066 8.328 1.348 5.457 7.238Zm0 0"/><path style="stroke:none;fill-rule:evenodd;fill:#111425;fill-opacity:1" d="M375.684 248.027c9.632-.035 11.902 3.914 6.816 11.84 2.086 7.852-1.094 10.703-9.547 8.555-1.906-1.399-3.27-3.152-4.09-5.266a107.904 107.904 0 0 0 6.82-15.129Zm0 0"/><path style="stroke:none;fill-rule:evenodd;fill:#0000d6;fill-opacity:1" d="M377.047 258.55c-4.004-3.991-3.32-7.058 2.043-9.206 5.219 1.93 5.898 4.781 2.047 8.55a6.906 6.906 0 0 1-4.09.657Zm0 0"/><path style="stroke:none;fill-rule:evenodd;fill:#13132b;fill-opacity:1" d="M285.684 249.344c2.808 2.472 5.988 4.664 9.543 6.578 2.328 7.187-.399 10.035-8.18 8.55-2.39-3.07-5.344-5.48-8.863-7.234-1.61-6.996.89-9.629 7.5-7.894Zm0 0"/><path style="stroke:none;fill-rule:evenodd;fill:#0000ea;fill-opacity:1" d="M288.41 255.922h5.453c.45 8.469-2.277 9.785-8.18 3.945 1.516-1.004 2.426-2.32 2.727-3.945Zm0 0"/><path style="stroke:none;fill-rule:evenodd;fill:#0000e8;fill-opacity:1" d="M285.684 249.344c1.144 2.472 1.601 5.101 1.363 7.894-7.785 1.082-9.606-1.332-5.457-7.238a6.914 6.914 0 0 1 4.094-.656Zm0 0"/><path style="stroke:none;fill-rule:evenodd;fill:#0000e4;fill-opacity:1" d="M308.863 257.238c3.512.29 4.649 2.043 3.41 5.262-2.02-1.277-3.156-3.031-3.41-5.262Zm0 0"/><path style="stroke:none;fill-rule:evenodd;fill:#0000d2;fill-opacity:1" d="M318.41 257.238h4.09v2.63c-1.918.624-2.828 1.937-2.727 3.948-.843.145-1.523.582-2.046 1.317-4.524-3.086-4.297-5.719.683-7.895Zm0 0"/><path style="stroke:none;fill-rule:evenodd;fill:#00e;fill-opacity:1" d="M377.047 258.55c2.234 1.7 2.918 3.895 2.043 6.583-5.906 2.629-8.18.875-6.817-5.266 1.38-1.101 2.97-1.539 4.774-1.316Zm0 0"/><path style="stroke:none;fill-rule:evenodd;fill:#0000e0;fill-opacity:1" d="M319.773 270.395v-6.579c4.02-2.14 6.747-1.043 8.18 3.29-1.433 4.332-4.16 5.425-8.18 3.289Zm0 0"/><path style="stroke:none;fill-rule:evenodd;fill:#100e24;fill-opacity:1" d="M319.773 270.395c4.02 2.136 6.747 1.043 8.18-3.29-1.433-4.332-4.16-5.43-8.18-3.289-.101-2.011.809-3.324 2.727-3.949v-2.629c3.984-.468 7.164.848 9.547 3.946 8.308-3.27 8.308-5.243 0-5.922-4.324-5.45-2.961-8.739 4.09-9.867 1.734.093 3.324.53 4.773 1.316.676 2.594.902 5.226.68 7.894 2.578-.265 4.625.61 6.137 2.633 1.082 5.16.855 10.203-.68 15.13-6.176.913-11.856-.184-17.047-3.29-3.297 4.387-6.707 4.824-10.227 1.317Zm0 0"/><path style="stroke:none;fill-rule:evenodd;fill:#0000ed;fill-opacity:1" d="M340.227 263.816c6.355-.64 8.171 1.774 5.457 7.235-6.508 1.066-8.329-1.344-5.457-7.235Zm0 0"/><path style="stroke:none;fill-rule:evenodd;fill:#0000e6;fill-opacity:1" d="M332.047 262.5h5.453v7.895c-5.777-.29-7.598-2.922-5.453-7.895Zm0 0"/><path style="stroke:none;fill-rule:evenodd;fill:#0000d9;fill-opacity:1" d="M322.5 259.867h6.816a6.284 6.284 0 0 1-.68 3.95c-1.921-1.688-3.968-3-6.136-3.95Zm0 0"/><path style="stroke:none;fill-rule:evenodd;fill:#0000eb;fill-opacity:1" d="M340.227 257.238c4.707-.98 6.976.774 6.82 5.262h-8.184c-.09-1.918.364-3.672 1.364-5.262ZM333.41 246.71c6.352-.636 8.168 1.774 5.453 7.24-6.508 1.062-8.324-1.348-5.453-7.24Zm0 0"/><path style="stroke:none;fill-rule:evenodd;fill:#171b30;fill-opacity:1" d="M427.5 265.133c1.625.617 2.535 1.933 2.727 3.945.242 3.25-1.122 5.442-4.09 6.578-7.899-1.21-9.719-4.937-5.453-11.183 2.57-1.024 4.843-.805 6.816.66Zm0 0"/><path style="stroke:none;fill-rule:evenodd;fill:#0000e8;fill-opacity:1" d="M427.5 265.133c2.871 5.89 1.05 8.3-5.453 7.234-2.719-5.46-.899-7.875 5.453-7.234Zm0 0"/><path style="stroke:none;fill-rule:evenodd;fill:#0000d5;fill-opacity:1" d="M349.773 283.55c-1.8 1.9-4.074 2.778-6.82 2.634-4.25-5.47-2.887-8.32 4.094-8.551 2.094 1.46 3.004 3.433 2.726 5.918Zm0 0"/><path style="stroke:none;fill-rule:evenodd;fill:#141b2b;fill-opacity:1" d="M362.047 275.656c-1.797-6.375.93-8.785 8.18-7.234 5 7.894 2.726 11.402-6.817 10.527-1.027-.883-1.48-1.98-1.363-3.293Zm0 0"/><path style="stroke:none;fill-rule:evenodd;fill:#0000d6;fill-opacity:1" d="M362.047 275.656c.676-6.566 3.633-7.883 8.863-3.945-.242 6.734-3.195 8.05-8.863 3.945Zm0 0"/><path style="stroke:none;fill-rule:evenodd;fill:#121521;fill-opacity:1" d="M349.773 283.55c.278-2.484-.632-4.456-2.726-5.917-6.98.23-8.344 3.082-4.094 8.55-3.027-.078-4.39-1.609-4.09-4.605.899-5.371 4.082-7.125 9.547-5.262 2.797 2.207 3.254 4.618 1.363 7.235Zm0 0"/><path style="stroke:none;fill-rule:evenodd;fill:#131423;fill-opacity:1" d="M374.316 299.344c-5.039 2.34-9.128 1.46-12.27-2.633-.276-2.488.63-4.461 2.727-5.922 8.172-2.422 11.356.43 9.543 8.555Zm0 0"/><path style="stroke:none;fill-rule:evenodd;fill:#0000eb;fill-opacity:1" d="M366.137 291.45c6.351-.641 8.172 1.773 5.453 7.234-6.508 1.066-8.324-1.344-5.453-7.235Zm0 0"/></svg>