<svg xmlns="http://www.w3.org/2000/svg" width="600" height="400"><path style="stroke:none;fill-rule:evenodd;fill:#fefefe;fill-opacity:1" d="M-.938-.582h151.875v101.164H-.938V-.582ZM158.438-.582h279.375v93.023c-1.817 2.45-2.442 5.164-1.875 8.141h-165c-.243-1.996-.868-3.934-1.875-5.816.554-2.598-.075-4.922-1.875-6.977l-1.875-9.3c-2.567-9.505-6.317-18.81-11.25-27.907 2.53-7.727-1.844-9.664-13.125-5.816-2.465 1.976-2.465 3.914 0 5.816a48650.887 48650.887 0 0 0-32.813 70.93c-1.898 4.078-5.957 6.793-12.188 8.14-3.585-2.507-6.71-5.222-9.375-8.14.184-2.387-1.066-4.325-3.75-5.813-3.117-7.16-7.18-14.136-12.187-20.933-2.707-1.922-6.145-2.7-10.313-2.325a1154.843 1154.843 0 0 1-1.875-93.023Zm0 0"/><path style="stroke:none;fill-rule:evenodd;fill:#e5e5e6;fill-opacity:1" d="M437.813-.582h9.375c-.614 12.227.011 24.242 1.875 36.047a114.997 114.997 0 0 0-3.75 16.281c.074 3.93-.551 7.805-1.875 11.625-1.375 1.406-2 2.957-1.875 4.652v8.141c-1.825 2.844-2.45 5.945-1.875 9.3h-1.875V-.581Zm0 0"/><path style="stroke:none;fill-rule:evenodd;fill:#fefefe;fill-opacity:1" d="M447.188-.582h151.875v101.164h-95.625c-1.25 0-1.875-.387-1.875-1.164.554-2.598-.075-4.926-1.875-6.977-.141-3.144-.766-6.246-1.875-9.3-1.5-1.793-2.125-3.73-1.875-5.817a140.792 140.792 0 0 0-3.75-11.625c.53-2.226-.094-4.164-1.875-5.816-.016-3.54-.641-7.028-1.875-10.465-.329-3.754-1.583-7.242-3.75-10.465l-1.875-6.976c-1.497-7.922-4.31-15.676-8.438-23.254-3.938-7.16-8.938-7.547-15-1.164-4.809 9.129-8.246 18.433-10.313 27.906-1.863-11.805-2.488-23.82-1.875-36.047Zm0 0"/><path style="stroke:none;fill-rule:evenodd;fill:#17181a;fill-opacity:1" d="m482.813 31.977 1.875 6.976c.492 1.719-.133 3.27-1.875 4.652-3.282-3.562-5.157-7.44-5.625-11.628h5.625Zm0 0"/><path style="stroke:none;fill-rule:evenodd;fill:#828589;fill-opacity:1" d="M254.063 50.582c-4.375 1.55-8.75 1.55-13.125 0-2.465-1.902-2.465-3.84 0-5.816 11.28-3.848 15.656-1.91 13.125 5.816Zm0 0"/><path style="stroke:none;fill-rule:evenodd;fill:#191b1d;fill-opacity:1" d="M488.438 49.418c1.234 3.437 1.859 6.926 1.875 10.465-1.329 1.05-3.204 1.441-5.625 1.164.074-3.93-.551-7.809-1.875-11.629h5.625Zm0 0"/><path style="stroke:none;fill-rule:evenodd;fill:#202224;fill-opacity:1" d="M443.438 63.371c1.324-3.82 1.949-7.695 1.875-11.625 1.218-.355 2.468-.742 3.75-1.164 2.035 4.25 2.035 8.512 0 12.79h-5.625Zm0 0"/><path style="stroke:none;fill-rule:evenodd;fill:#151618;fill-opacity:1" d="M488.438 65.7h3.75a140.792 140.792 0 0 1 3.75 11.624h-5.625c.25-2.082-.375-4.02-1.875-5.812v-5.813Zm0 0"/><path style="stroke:none;fill-rule:evenodd;fill:#121314;fill-opacity:1" d="M441.563 68.023h5.625c.363 4.086-.891 7.961-3.75 11.63-1.66-.962-2.286-2.126-1.875-3.489v-8.14Zm0 0"/><path style="stroke:none;fill-rule:evenodd;fill:#768395;fill-opacity:1" d="M488.438 65.7v5.812c-1.981 4.886-6.981 6.633-15 5.234-5.63-4.062-4.38-6.973 3.75-8.723 3.164.301 5.976 1.079 8.437 2.325.395-1.813 1.332-3.36 2.813-4.649Zm0 0"/><path style="stroke:none;fill-rule:evenodd;fill:#16181a;fill-opacity:1" d="m265.313 78.488 1.875 9.301c-1.329 1.055-3.204 1.441-5.625 1.164-.012-2.95-.641-5.86-1.875-8.719.34-3 2.214-3.582 5.625-1.746Zm0 0"/><path style="stroke:none;fill-rule:evenodd;fill:#18191a;fill-opacity:1" d="M497.813 83.14c1.109 3.055 1.734 6.157 1.875 9.301-.602 1.801-2.477 2.575-5.625 2.325.449-3.579-.176-7.067-1.875-10.465 1.546-1.028 3.421-1.414 5.625-1.16Zm0 0"/><path style="stroke:none;fill-rule:evenodd;fill:#151617;fill-opacity:1" d="M437.813 85.465h1.875c4.601 3.555 4.601 7.43 0 11.629-1.743-1.383-2.368-2.934-1.875-4.653v-6.976Zm0 0"/><path style="stroke:none;fill-rule:evenodd;fill:#191b1c;fill-opacity:1" d="M269.063 94.766c1.007 1.882 1.632 3.82 1.875 5.816v5.813h-5.625c.53-3.81-.094-7.493-1.875-11.047 1.777-.559 3.652-.754 5.625-.582Zm0 0"/><path style="stroke:none;fill-rule:evenodd;fill:#171718;fill-opacity:1" d="M501.563 99.418c0 .777.625 1.164 1.875 1.164-.555 2.598.074 4.926 1.875 6.977v3.488h-5.625c-.012-2.953-.641-5.86-1.875-8.723.343-1.597 1.593-2.566 3.75-2.906Zm0 0"/><path style="stroke:none;fill-rule:evenodd;fill:#e7e7e7;fill-opacity:1" d="M150.938-.582h7.5c-.622 31.207.003 62.215 1.875 93.023-5.223 4.704-8.973 9.743-11.25 15.118a4845.735 4845.735 0 0 0-150-1.164v-5.813h151.875V-.582Zm0 0"/><path style="stroke:none;fill-rule:evenodd;fill:#e8e8e8;fill-opacity:1" d="M270.938 100.582h165v1.164c-1.75 1.238-2.38 2.79-1.875 4.649h-161.25c.445-1.5-.18-2.665-1.875-3.489v-2.324ZM503.438 100.582h95.625v5.813a1889.44 1889.44 0 0 0-93.75 1.164c-1.801-2.051-2.43-4.38-1.875-6.977Zm0 0"/><path style="stroke:none;fill-rule:evenodd;fill:#151617;fill-opacity:1" d="M435.938 101.746c2.238.547 3.488 1.707 3.75 3.488-.375 2.875-1.63 5.586-3.75 8.137-1.66-.957-2.286-2.121-1.875-3.488v-3.488c-.504-1.86.125-3.41 1.875-4.649Zm0 0"/><path style="stroke:none;fill-rule:evenodd;fill:#fdfdfe;fill-opacity:1" d="M-.938 106.395c50.325-.383 100.32.003 150 1.164-5.585 15.359-9.96 30.863-13.125 46.511v2.325l-1.875 4.652a55.326 55.326 0 0 0-3.75 10.465 77.986 77.986 0 0 1-1.875 10.465c-1.785 1.648-2.41 3.585-1.875 5.812a39.361 39.361 0 0 0-1.874 8.14 83.18 83.18 0 0 0-3.75 9.305c-.626 3.098-1.25 6.2-1.876 9.301-1.8 2.05-2.425 4.38-1.874 6.977a952.532 952.532 0 0 0-5.626 11.629l-1.874 4.648c-1.508 2.809-3.383 5.524-5.626 8.14-2.078-.066-3.953-.452-5.624-1.163-3.266-2.203-5.141-4.914-5.626-8.137-.414-2.984-1.664-5.7-3.75-8.14-1.753-1.243-2.378-2.794-1.874-4.653.386-3.48-.864-6.582-3.75-9.3-.66-3.958-1.91-7.837-3.75-11.63.124-1.695-.5-3.246-1.876-4.652v-2.324c-3.468-16.785-8.156-33.453-14.062-50-2.066-5.664-5.191-11.09-9.375-16.278-4.375-4.652-8.75-4.652-13.125 0-6.996 8.946-12.309 18.246-15.938 27.907-1.632 3.035-2.882 6.136-3.75 9.3-3.292 2.895-7.042 5.61-11.25 8.141-5.718-3.227-9.468-7.102-11.25-11.629v-56.976Zm0 0"/><path style="stroke:none;fill-rule:evenodd;fill:#c4d1e3;fill-opacity:1" d="M240.938 50.582c4.375 1.55 8.75 1.55 13.125 0 4.933 9.098 8.683 18.402 11.25 27.906-3.41-1.836-5.286-1.254-5.625 1.746 1.234 2.86 1.863 5.77 1.875 8.72 2.421.276 4.296-.11 5.625-1.165 1.8 2.055 2.43 4.379 1.875 6.977-1.973-.172-3.848.023-5.625.582 1.78 3.554 2.406 7.238 1.875 11.047h5.625v-3.489c1.695.824 2.32 1.989 1.875 3.489v4.652c-3.567 3.297-4.817 7.176-3.75 11.629 2.421.273 4.296-.114 5.625-1.164 1.8 2.05 2.43 4.379 1.875 6.976h-3.75c-4.465.989-8.215 2.54-11.25 4.653-10.227-17.246-19.915-16.86-29.063 1.16-5.883 12.66-10.883 25.453-15 38.375-11.566 2.332-13.129 6.21-4.688 11.625-2.906 6.312-7.277 12.129-13.125 17.445-4.304-1.012-5.554-2.562-3.75-4.652l-7.5-9.305c4.29-.664 8.352-1.828 12.188-3.488 1.23-4.094-1.582-6.418-8.438-6.977-3.421 1.34-7.171 2.117-11.25 2.328-2.968-4.855-7.343-9.117-13.125-12.793 0-3.875-3.125-5.812-9.375-5.812v-45.348c.708-2.047 1.958-3.984 3.75-5.816-.667-1.188-1.917-1.965-3.75-2.324 3.75-1.551 7.5-1.551 11.25 0-.207.718-.832 1.3-1.875 1.742 3.97 2.015 6.782 4.535 8.438 7.558 1.258.875 2.82 1.266 4.688 1.164 1.57-.398 2.195-1.171 1.875-2.324 2.683 1.489 3.933 3.426 3.75 5.813-1.481.328-2.731.91-3.75 1.742 2.738 3.594 6.175 6.887 10.312 9.887 1.95-.868 2.887-2.028 2.813-3.489 6.23-1.347 10.289-4.062 12.187-8.14a48650.887 48650.887 0 0 1 32.813-70.93Zm0 0"/><path style="stroke:none;fill-rule:evenodd;fill:#1a1b1d;fill-opacity:1" d="M225.938 91.277c2.242.426 3.488 1.395 3.75 2.91-1.176 2.481-2.114 5-2.813 7.56-2.219 1.429-4.406 1.429-6.563 0a80.94 80.94 0 0 1 5.625-10.47Zm0 0"/><path style="stroke:none;fill-rule:evenodd;fill:#161719;fill-opacity:1" d="M231.563 75h5.625l-3.75 11.629h-5.625A64.376 64.376 0 0 0 231.563 75Zm0 0"/><path style="stroke:none;fill-rule:evenodd;fill:#131415;fill-opacity:1" d="M252.188 61.047c1.64-.152 2.894.234 3.75 1.164 2.445 2.969 4.32 6.066 5.625 9.3-1.547 1.032-3.422 1.419-5.625 1.165-1.25-3.88-2.5-7.754-3.75-11.63Zm0 0"/><path style="stroke:none;fill-rule:evenodd;fill:#141516;fill-opacity:1" d="M242.813 58.723c1.832.359 3.085 1.136 3.75 2.324-2.954 2.883-4.829 5.984-5.625 9.3h-5.625c1.453-4.128 3.953-8.003 7.5-11.624Zm0 0"/><path style="stroke:none;fill-rule:evenodd;fill:#fdfdfe;fill-opacity:1" d="M272.813 106.395h161.25v3.488c-1.825 2.847-2.45 5.949-1.875 9.305-1.817 2.449-2.442 5.164-1.875 8.136-1.817 2.453-2.442 5.164-1.875 8.14-1.692 3.364-2.317 6.852-1.875 10.466-1.801 2.054-2.43 4.379-1.875 6.976l-1.875 11.63c.25 2.081-.375 4.019-1.875 5.812-1.22 2.25-1.844 4.578-1.875 6.976-1.825 2.848-2.45 5.95-1.875 9.305-2.168 3.223-3.422 6.71-3.75 10.465-1.782 1.648-2.407 3.586-1.875 5.812-2.57 2.832-4.446 5.934-5.625 9.305-2.481.195-4.668-.191-6.563-1.164-2.309-4.14-5.121-8.016-8.438-11.629-1.75-1.242-2.378-2.793-1.875-4.652-4.8-14.301-9.488-28.641-14.062-43.02-12.625-28.094-23.563-27.707-32.813 1.16v2.328c-1.796 2.094-3.046 4.418-3.75 6.977l-1.875 9.3c-1.796 2.094-3.046 4.423-3.75 6.977a77.986 77.986 0 0 0-1.875 10.465c-1.796 2.098-3.046 4.422-3.75 6.977-1.109 3.054-1.734 6.156-1.875 9.304a39.348 39.348 0 0 0-3.75 6.977 39.02 39.02 0 0 0-1.875 8.137c-2.328 4.691-6.078 8.957-11.25 12.793-1.832-.555-3.394-1.332-4.687-2.328-1.063-2.583-2.625-4.91-4.688-6.977-.539-3.996-1.789-7.875-3.75-11.625.532-2.227-.093-4.164-1.875-5.816.247-3.57-.375-7.06-1.875-10.465.555-2.598-.074-4.926-1.875-6.977a77.986 77.986 0 0 0-1.875-10.465c.532-2.226-.093-4.164-1.875-5.812.247-3.57-.375-7.059-1.875-10.465-1.007-1.883-1.632-3.82-1.875-5.816.297-3.954-.328-7.833-1.875-11.63.555-2.597-.074-4.921-1.875-6.976.415-3.23-.21-6.332-1.875-9.3.555-2.598-.074-4.927-1.875-6.977.442-3.614-.183-7.102-1.875-10.465v-4.652Zm0 0"/><path style="stroke:none;fill-rule:evenodd;fill:#c2cfe1;fill-opacity:1" d="M482.813 31.977h-5.625c.468 4.187 2.343 8.066 5.625 11.628 1.742-1.382 2.367-2.933 1.875-4.652 2.167 3.223 3.421 6.711 3.75 10.465h-5.625c1.324 3.82 1.949 7.7 1.875 11.629 2.421.277 4.296-.113 5.625-1.164 1.78 1.652 2.406 3.59 1.875 5.816h-3.75c-1.481 1.29-2.418 2.836-2.813 4.649-2.46-1.246-5.273-2.024-8.438-2.325-8.128 1.75-9.378 4.66-3.75 8.723 8.02 1.399 13.02-.348 15-5.234 1.5 1.793 2.125 3.73 1.875 5.812h5.625c-.25 2.086.375 4.024 1.875 5.817-2.203-.254-4.078.132-5.625 1.16 1.7 3.398 2.325 6.886 1.875 10.465 3.149.25 5.024-.524 5.625-2.325 1.801 2.051 2.43 4.38 1.875 6.977-2.156.34-3.406 1.309-3.75 2.906 1.235 2.864 1.864 5.77 1.875 8.723h5.625c-.25 2.082.375 4.02 1.875 5.812-2.203-.254-4.078.133-5.625 1.164 1.7 3.395 2.325 6.883 1.875 10.465h5.625v4.653c-1.386 3.664-1.386 7.539 0 11.625h5.625c1.375 1.406 2 2.957 1.875 4.652-2.242.426-3.488 1.394-3.75 2.906 1.473 3.524 3.657 6.817 6.563 9.887 3.05-1.703 3.367-3.64.938-5.816 3.113 2.035 6.863 2.613 11.25 1.746 7.675-6.418 15.8-12.618 24.375-18.606 4.539-.8 8.601-.219 12.187 1.742 4.48 5.239 8.23 10.664 11.25 16.282a825.127 825.127 0 0 1 17.813 51.164c-1.696-.825-2.32-1.989-1.875-3.489-2.204-.257-4.079.13-5.625 1.16 1.398 1.438 2.023 2.989 1.875 4.653-9.364-.2-12.801 2.512-10.313 8.14 6.547 2.008 11.86 1.235 15.938-2.328h1.875V275a522.695 522.695 0 0 1-15.938-39.535c-3.012-6.383-6.762-12.582-11.25-18.606-5.578-4.691-12.766-7.21-21.563-7.558-4.074 2.172-4.699 4.687-1.875 7.558-2.683 2.953-5.808 5.668-9.375 8.141-3.492 2.563-7.87 4.113-13.125 4.652-4.25-6.152-8-12.547-11.25-19.187 3.098-3.024 4.036-6.32 2.813-9.883-2.5-.777-5-1.55-7.5-2.328a858.848 858.848 0 0 0-15.938-63.953c3.575-5.305 2.325-9.957-3.75-13.953-2.816-13.977-8.128-27.543-15.937-40.696-8.887-5.207-15.137-4.047-18.75 3.489-8.77 23.187-15.332 46.445-19.688 69.765h-11.25c-.554-2.597.075-4.922 1.875-6.976.387 2.382 1.95 2.77 4.688 1.164.852-3.903 1.79-7.778 2.813-11.63h-5.625c-.567-2.976.058-5.687 1.875-8.14v3.489h5.625c1.066-4.45-.184-8.329-3.75-11.625-.575-3.356.05-6.458 1.875-9.305-.41 1.367.214 2.531 1.875 3.488 2.12-2.55 3.375-5.262 3.75-8.137-.262-1.78-1.512-2.941-3.75-3.488v-1.164c-.567-2.977.058-5.691 1.875-8.14-.493 1.718.132 3.269 1.875 4.652 4.601-4.2 4.601-8.074 0-11.63-.575-3.355.05-6.456 1.875-9.3-.41 1.363.214 2.527 1.875 3.488 2.859-3.668 4.113-7.543 3.75-11.629h-5.625c-.125-1.695.5-3.246 1.875-4.652h5.625c2.035-4.277 2.035-8.539 0-12.789-1.282.422-2.532.809-3.75 1.164a114.997 114.997 0 0 1 3.75-16.281c2.066-9.473 5.503-18.778 10.312-27.906 6.063-6.383 11.063-5.997 15 1.164 4.129 7.578 6.941 15.332 8.438 23.254Zm0 0"/><path style="stroke:none;fill-rule:evenodd;fill:#738092;fill-opacity:1" d="M464.063 36.629c9.12.215 12.246 2.926 9.375 8.137-6.938 3.414-11.938 2.445-15-2.907 1.527-1.91 3.402-3.652 5.625-5.23Zm0 0"/><path style="stroke:none;fill-rule:evenodd;fill:#141516;fill-opacity:1" d="M450.938 34.3h5.625a57.145 57.145 0 0 0-1.875 11.63h-5.625a57.059 57.059 0 0 0 1.875-11.63Zm0 0"/><path style="stroke:none;fill-rule:evenodd;fill:#161719;fill-opacity:1" d="M460.313 18.023c1.64-.152 2.894.235 3.75 1.165-2.141 3.37-3.391 6.859-3.75 10.464h-5.625c.37-4.18 2.246-8.054 5.625-11.629Zm0 0"/><path style="stroke:none;fill-rule:evenodd;fill:#121315;fill-opacity:1" d="M469.688 15.7c5.953 2.894 9.078 6.773 9.375 11.624h-5.625c-.004-3.691-1.88-6.984-5.625-9.883 1.042-.445 1.667-1.027 1.875-1.742Zm0 0"/><path style="stroke:none;fill-rule:evenodd;fill:#fefefe;fill-opacity:1" d="M599.063 106.395V213.37c-1.75-1.242-2.38-2.789-1.875-4.648a825.127 825.127 0 0 0-17.813-51.164c-3.02-5.618-6.77-11.043-11.25-16.282-3.586-1.96-7.648-2.543-12.188-1.742-8.574 5.988-16.699 12.188-24.375 18.606-4.386.867-8.136.289-11.25-1.746-.882-2.418-2.132-4.743-3.75-6.977.125-1.695-.5-3.246-1.875-4.652a38.547 38.547 0 0 0-1.875-8.137c-.261-1.781-1.511-2.941-3.75-3.488v-4.653a57.145 57.145 0 0 0-1.875-11.629c-1.5-1.793-2.125-3.73-1.875-5.812v-3.488a1889.44 1889.44 0 0 1 93.75-1.164Zm0 0"/><path style="stroke:none;fill-rule:evenodd;fill:#1a1c1d;fill-opacity:1" d="M218.438 107.559c2.242.425 3.488 1.394 3.75 2.906-1.165 3.469-3.04 6.765-5.625 9.883-1.875-.387-3.125-1.16-3.75-2.325a86.974 86.974 0 0 0 5.625-10.464Zm0 0"/><path style="stroke:none;fill-rule:evenodd;fill:#191b1c;fill-opacity:1" d="M272.813 111.047c1.69 3.363 2.316 6.851 1.875 10.465-1.329 1.05-3.204 1.437-5.625 1.164-1.067-4.453.183-8.332 3.75-11.63Zm0 0"/><path style="stroke:none;fill-rule:evenodd;fill:#171819;fill-opacity:1" d="M507.188 116.86a57.145 57.145 0 0 1 1.875 11.628h-5.625c.449-3.582-.176-7.07-1.875-10.465 1.546-1.03 3.421-1.418 5.625-1.164Zm0 0"/><path style="stroke:none;fill-rule:evenodd;fill:#1d1f20;fill-opacity:1" d="M432.188 119.188c3.566 3.296 4.816 7.175 3.75 11.624h-5.625v-3.488c-.567-2.972.058-5.687 1.875-8.136Zm0 0"/><path style="stroke:none;fill-rule:evenodd;fill:#151617;fill-opacity:1" d="M186.563 121.512c2.664 2.918 5.789 5.633 9.375 8.14.074 1.461-.864 2.621-2.813 3.489-4.137-3-7.574-6.293-10.313-9.887 1.02-.832 2.27-1.414 3.75-1.742Zm0 0"/><path style="stroke:none;fill-rule:evenodd;fill:#151618;fill-opacity:1" d="M209.063 123.836c2.804-.098 4.68.676 5.625 2.328-2.973 3.3-6.415 6.402-10.313 9.3-1.297-.609-2.234-1.386-2.813-2.323 4.508-2.493 7.008-5.594 7.5-9.305Zm0 0"/><path style="stroke:none;fill-rule:evenodd;fill:#18191a;fill-opacity:1" d="M509.063 133.14c2.238.548 3.488 1.708 3.75 3.489a38.547 38.547 0 0 1 1.875 8.137h-5.625c-1.387-4.086-1.387-7.961 0-11.625Zm0 0"/><path style="stroke:none;fill-rule:evenodd;fill:#bac5d5;fill-opacity:1" d="M160.313 92.441c4.167-.375 7.605.403 10.312 2.325 5.008 6.796 9.07 13.773 12.188 20.933.32 1.153-.305 1.926-1.875 2.324-.547-4.972-4.297-8.46-11.25-10.464-3.75-1.551-7.5-1.551-11.25 0-3.547 3.62-6.047 7.496-7.5 11.629h5.625c-.446-1.504.18-2.665 1.875-3.489v45.348c-5.528 2.05-6.778 4.766-3.75 8.14.136 1.774-1.114 2.938-3.75 3.489v-11.63c6.585-2.8 7.21-6.097 1.875-9.882-2.5-.777-5-.777-7.5 0-2.16 2.188-5.286 3.156-9.375 2.906 3.164-15.648 7.539-31.152 13.125-46.511 2.277-5.375 6.027-10.414 11.25-15.118Zm0 0"/><path style="stroke:none;fill-rule:evenodd;fill:#171819;fill-opacity:1" d="M147.188 123.836c2.203-.254 4.078.133 5.625 1.164-2.688 3.293-3.938 6.781-3.75 10.465h-5.625c.66-3.957 1.91-7.832 3.75-11.63Zm0 0"/><path style="stroke:none;fill-rule:evenodd;fill:#131415;fill-opacity:1" d="M169.688 107.559c6.953 2.004 10.703 5.492 11.25 10.464-1.868.102-3.43-.289-4.688-1.164-1.656-3.023-4.469-5.543-8.438-7.558 1.043-.442 1.668-1.024 1.875-1.742Zm0 0"/><path style="stroke:none;fill-rule:evenodd;fill:#171819;fill-opacity:1" d="M158.438 107.559c1.832.359 3.082 1.136 3.75 2.324-1.793 1.832-3.043 3.77-3.75 5.816-1.696.824-2.32 1.985-1.875 3.489h-5.625c1.453-4.133 3.953-8.008 7.5-11.63Zm0 0"/><path style="stroke:none;fill-rule:evenodd;fill:#0a0b0c;fill-opacity:1" d="M141.563 137.79c1.972-.173 3.847.019 5.625.581-5.665 14.856-7.54 14.664-5.625-.582Zm0 0"/><path style="stroke:none;fill-rule:evenodd;fill:#151618;fill-opacity:1" d="M516.563 149.418c1.617 2.234 2.867 4.559 3.75 6.977 2.43 2.175 2.113 4.113-.938 5.816-2.906-3.07-5.09-6.363-6.563-9.887.262-1.512 1.508-2.48 3.75-2.906Zm0 0"/><path style="stroke:none;fill-rule:evenodd;fill:#151617;fill-opacity:1" d="M554.063 149.418c4.058-.445 7.183.328 9.375 2.328-6.325.86-11.95 2.215-16.875 4.066l-1.875-1.16a57.369 57.369 0 0 1 9.375-5.234Zm0 0"/><path style="stroke:none;fill-rule:evenodd;fill:#7b8694;fill-opacity:1" d="M150.938 161.047c-3.543.234-6.356-.54-8.438-2.324-.434 1.437-1.371 2.597-2.813 3.488-.265-2.05.356-3.988 1.875-5.816-1.734-1.235-3.609-1.235-5.625 0v-2.325c4.09.25 7.215-.718 9.375-2.906 2.5-.777 5-.777 7.5 0 5.336 3.785 4.711 7.082-1.875 9.883Zm0 0"/><path style="stroke:none;fill-rule:evenodd;fill:#101113;fill-opacity:1" d="M139.688 162.21c-3.403 4.817-5.278 4.43-5.625-1.163l1.875-4.652c2.015-1.235 3.89-1.235 5.625 0-1.52 1.828-2.141 3.765-1.875 5.816Zm0 0"/><path style="stroke:none;fill-rule:evenodd;fill:#1a1c1e;fill-opacity:1" d="M25.313 157.559h5.625l-3.75 10.464c-2.422.278-4.297-.113-5.625-1.164.867-3.164 2.117-6.265 3.75-9.3Zm0 0"/><path style="stroke:none;fill-rule:evenodd;fill:#18191b;fill-opacity:1" d="M565.313 156.395c2.203-.254 4.078.132 5.625 1.164 3.007 3.273 4.882 6.761 5.625 10.464h-5.625c-1.125-4.027-3-7.902-5.625-11.628Zm0 0"/><path style="stroke:none;fill-rule:evenodd;fill:#171719;fill-opacity:1" d="M537.188 158.723c4.097.011 5.66 1.175 4.687 3.488-4.113 3.715-9.426 4.875-15.938 3.488 5.696-1.207 9.446-3.531 11.25-6.976Zm0 0"/><path style="stroke:none;fill-rule:evenodd;fill:#748193;fill-opacity:1" d="M158.438 161.047c6.25 0 9.375 1.937 9.375 5.812-5.04-.386-9.415.387-13.125 2.328-3.028-3.375-1.778-6.09 3.75-8.14Zm0 0"/><path style="stroke:none;fill-rule:evenodd;fill:#161719;fill-opacity:1" d="M574.688 172.676c3.046-.164 5.23.613 6.562 2.324 2.691 3.074 3.004 6.176.938 9.3-3.598-3.585-6.094-7.46-7.5-11.624Zm0 0"/><path style="stroke:none;fill-rule:evenodd;fill:#121214;fill-opacity:1" d="M-.938 171.512c1.645 3.406 4.145 6.699 7.5 9.883-2.957 2.246-5.457 2.05-7.5-.583v-9.3Zm0 0"/><path style="stroke:none;fill-rule:evenodd;fill:#717e90;fill-opacity:1" d="M561.563 178.488c10.898-.508 14.023 2.399 9.375 8.723-12.665.879-15.793-2.031-9.375-8.723Zm0 0"/><path style="stroke:none;fill-rule:evenodd;fill:#171819;fill-opacity:1" d="M582.188 188.953c3.046-.164 5.23.613 6.562 2.324 2.23 3.133 2.543 6.235.938 9.305-1.098-.242-2.036-.633-2.813-1.164-1.594-3.512-3.156-7-4.688-10.465Zm0 0"/><path style="stroke:none;fill-rule:evenodd;fill:#717e90;fill-opacity:1" d="M527.813 195.93c12.195-.422 15.32 2.488 9.375 8.722-11.075.868-14.2-2.039-9.375-8.722Zm0 0"/><path style="stroke:none;fill-rule:evenodd;fill:#131516;fill-opacity:1" d="M597.188 208.723c-.504 1.859.125 3.406 1.875 4.648v3.488h-1.875c-3.231-1.285-5.106-3.222-5.625-5.812.148-1.664-.477-3.215-1.875-4.652 1.546-1.032 3.421-1.418 5.625-1.16-.446 1.5.18 2.663 1.875 3.488Zm0 0"/><path style="stroke:none;fill-rule:evenodd;fill:#737f8f;fill-opacity:1" d="M591.563 211.047c.519 2.59 2.394 4.527 5.625 5.812-4.079 3.563-9.391 4.336-15.938 2.328-2.488-5.628.95-8.34 10.313-8.14Zm0 0"/><path style="stroke:none;fill-rule:evenodd;fill:#c3d0e2;fill-opacity:1" d="M83.438 299.418c-6.985.328-9.172 2.652-6.563 6.977 2.707 1.925 6.145 2.699 10.313 2.328a242.037 242.037 0 0 0 8.437 11.625c5.563 3.214 10.563 2.828 15-1.16 1.254-5.86 5.629-10.512 13.125-13.954.21-2.625-.727-5.144-2.813-7.558a287.528 287.528 0 0 1 11.25-37.793c4.594.234 8.97-.153 13.125-1.16a276.18 276.18 0 0 1-1.875 4.648c-.085 1.79 1.165 2.953 3.75 3.488v2.329c-3.042-.165-5.23.613-6.562 2.324-1.5 3.332-1.188 6.433.938 9.3v4.653h-5.625a38.287 38.287 0 0 1-1.875 8.14c.261 1.778 1.511 2.942 3.75 3.489.566 2.976-.06 5.687-1.875 8.14.273-2.84-1.29-3.617-4.688-2.328-1.547 3.828-2.484 7.707-2.813 11.63h5.625c-1.375 1.405-2 2.952-1.875 4.651h-5.625l-3.75 11.625h5.626c-.504-1.859.12-3.406 1.875-4.648v8.137c-1.375 1.406-2 2.957-1.875 4.652h-1.875v-3.488h-5.626c-.011 2.953-.636 5.86-1.874 8.723.343 2.996 2.218 3.578 5.624 1.742-2 11.312-4.812 22.554-8.437 33.722-2.34 5.52-5.777 10.75-10.313 15.696-6.68.144-10.742-1.989-12.187-6.395-4.043-8.48-7.48-17.008-10.313-25.582h5.626a39.326 39.326 0 0 1-1.876-8.137c-.28-1.226.032-2.386.938-3.488 7 2.203 11.688 1.04 14.063-3.492-1.848-4.238-6.223-5.598-13.126-4.067-2.55 1.84-3.8 3.973-3.75 6.395-3.292 1.223-4.542 3.16-3.75 5.813a55.326 55.326 0 0 1-3.75-10.465c2.204.254 4.079-.133 5.626-1.164-1.172-3.645-3.047-7.133-5.626-10.465-1.66.96-2.285 2.125-1.874 3.488-1.817-2.45-2.442-5.164-1.876-8.137 2.036-.14 3.286-.918 3.75-2.328A103.366 103.366 0 0 1 75 319.187c-.777-.53-1.715-.921-2.813-1.164-1.742 1.383-2.367 2.934-1.874 4.653a113.283 113.283 0 0 1-3.75-10.465c2.203.254 4.078-.133 5.624-1.164-1.171-3.649-3.046-7.137-5.624-10.465-1.66.957-2.286 2.121-1.876 3.488a57.827 57.827 0 0 1-3.75-8.14h5.626a70.893 70.893 0 0 0-3.75-10.465c4.964-2.395 6.527-5.492 4.687-9.3-3.188-1.056-6.625-1.442-10.313-1.165-1.57-2.742-4.382-5.07-8.437-6.977-1.297.61-2.234 1.387-2.813 2.325 4.282 2.539 6.782 5.64 7.5 9.304v2.325c-4.62-3.157-8.683-2.77-12.187 1.164A1187.21 1187.21 0 0 1 13.125 325c-2.602 1.227-5.414 1.418-8.438.582a38.47 38.47 0 0 0-5.625-5.234v-8.137c2.442 3.05 4.942 3.05 7.5 0-2.585-3.211-5.085-6.309-7.5-9.305v-8.14c7.446 3.695 12.446 2.726 15-2.907-2.554-5.629-7.554-6.597-15-2.906v-40.7c6.211 6.188 12.774 6.188 19.688 0 8.684-12.28 16.184-24.687 22.5-37.206 1.152-1.879 3.027-3.43 5.625-4.652l9.375 9.304a3611.4 3611.4 0 0 1 27.188 83.719Zm0 0"/><path style="stroke:none;fill-rule:evenodd;fill:#c3d0e2;fill-opacity:1" d="M77.813 195.93c-1.403-3.082-3.278-6.18-5.626-9.301-1.828 2.605-2.453 5.32-1.874 8.137-2.27 2.386-4.145 4.906-5.626 7.558.458 3.492 3.583 4.852 9.376 4.07 2.886 2.72 4.136 5.82 3.75 9.305 2.421.274 4.296-.113 5.624-1.164 2.887 2.719 4.137 5.82 3.75 9.3a57.065 57.065 0 0 1-3.75-3.487c-.624.968-1.25 1.941-1.874 2.906 1.238 2.863 1.863 5.773 1.874 8.723h5.626v-3.489c2.085 2.442 3.335 5.157 3.75 8.14-2.204-.253-4.079.134-5.626 1.161 1.098 3.895 3.598 7.383 7.5 10.465 2.66-.586 3.91-1.75 3.75-3.488 1.672.71 3.547 1.097 5.626 1.164-2.536 1.59-1.91 2.754 1.874 3.488 4.364-3.066 6.551-6.555 6.563-10.465-.719-.644-1.656-1.035-2.813-1.164.626-1.547 1.25-3.098 1.876-4.648h5.624c.801-3.344 2.051-6.641 3.75-9.887-.628-1.195-1.878-1.777-3.75-1.742-.55-2.598.075-4.926 1.876-6.977.386 2.383 1.949 2.77 4.687 1.164.504-3.168 1.441-6.27 2.813-9.304-1.547-1.032-3.422-1.418-5.626-1.16a83.18 83.18 0 0 1 3.75-9.305c-.41 1.367.215 2.53 1.876 3.488 2.64-3.746 4.515-7.621 5.624-11.629h-5.625c-.535-2.226.09-4.164 1.876-5.812 1.328 1.05 3.203 1.437 5.625 1.164a57.102 57.102 0 0 1 1.875-11.63h-5.625a55.326 55.326 0 0 1 3.75-10.464c.347 5.594 2.222 5.98 5.625 1.164 1.44-.89 2.378-2.05 2.812-3.488 2.082 1.785 4.895 2.558 8.438 2.324v11.629c-10.739 24.828-18.864 50.023-24.375 75.578a362.31 362.31 0 0 1-7.5 8.14c3.3 4.067 4.238 8.329 2.812 12.793-2.934 11.926-7.621 23.555-14.063 34.883-.398 3.457-2.273 6.559-5.624 9.301.23.707.855 1.094 1.874 1.164.41 1.367-.214 2.527-1.874 3.488a309.017 309.017 0 0 1-8.438-13.953 1106.884 1106.884 0 0 1-24.375-75.582c-3.512-8.32-7.887-16.46-13.125-24.418-5.625-4.652-11.25-4.652-16.875 0-4.695 4.266-8.133 8.918-10.313 13.953-9.765 1.891-11.64 5.38-5.625 10.465-.23.707-.855 1.094-1.875 1.164-10.437-.87-13.875 1.844-10.312 8.137 1.863.66 3.426 1.434 4.688 2.328-1.18 3.012-3.368 5.723-6.563 8.137-4.867-4.77-8.305-9.809-10.313-15.113v-52.328c2.043 2.632 4.543 2.828 7.5.582-3.355-3.184-5.855-6.477-7.5-9.883v-8.14c1.782 4.526 5.532 8.401 11.25 11.628 4.208-2.531 7.958-5.246 11.25-8.14 1.329 1.05 3.204 1.44 5.625 1.163l3.75-10.464h-5.625c3.63-9.66 8.942-18.961 15.938-27.907 4.375-4.652 8.75-4.652 13.125 0 4.184 5.188 7.309 10.614 9.375 16.278 5.906 16.547 10.594 33.215 14.063 50Zm0 0"/><path style="stroke:none;fill-rule:evenodd;fill:#6d7a8c;fill-opacity:1" d="M70.313 194.766c1.695.828 2.32 1.988 1.874 3.488h5.626c1.374 1.406 2 2.957 1.874 4.652-3.75 0-5.624 1.164-5.624 3.489-5.793.78-8.918-.579-9.376-4.07 1.481-2.653 3.356-5.173 5.626-7.56Zm0 0"/><path style="stroke:none;fill-rule:evenodd;fill:#161719;fill-opacity:1" d="M126.563 187.79h5.624c-1.109 4.007-2.984 7.882-5.625 11.628-1.66-.957-2.285-2.121-1.874-3.488a39.361 39.361 0 0 1 1.874-8.14Zm0 0"/><path style="stroke:none;fill-rule:evenodd;fill:#0f1012;fill-opacity:1" d="M77.813 195.93v2.324h-5.626c.446-1.5-.18-2.66-1.874-3.488-.579-2.817.046-5.532 1.874-8.137 2.348 3.121 4.223 6.219 5.626 9.3Zm0 0"/><path style="stroke:none;fill-rule:evenodd;fill:#748193;fill-opacity:1" d="M45.938 184.3c12.859.731 15.359 4.024 7.5 9.887-11.254-.59-13.754-3.882-7.5-9.886Zm0 0"/><path style="stroke:none;fill-rule:evenodd;fill:#0f1011;fill-opacity:1" d="M17.813 172.676c2.238.426 3.488 1.394 3.75 2.906-1.622 3.367-4.434 6.277-8.438 8.719-.938-.578-1.875-1.16-2.813-1.742 3.274-3.094 5.774-6.387 7.5-9.883Zm0 0"/><path style="stroke:none;fill-rule:evenodd;fill:#151618;fill-opacity:1" d="M130.313 171.512h5.625a57.102 57.102 0 0 0-1.875 11.629c-2.422.273-4.297-.114-5.625-1.164a77.986 77.986 0 0 0 1.875-10.465Zm0 0"/><path style="stroke:none;fill-rule:evenodd;fill:#141516;fill-opacity:1" d="M64.688 170.348c4.988 3.039 7.488 6.914 7.5 11.629h-5.626l-1.874-11.63Zm0 0"/><path style="stroke:none;fill-rule:evenodd;fill:#758294;fill-opacity:1" d="M36.563 169.188c10.355.94 12.855 4.042 7.5 9.3-6.786 2.153-11.16.989-13.126-3.488 1.11-2.234 2.985-4.172 5.625-5.813Zm0 0"/><path style="stroke:none;fill-rule:evenodd;fill:#181a1b;fill-opacity:1" d="M57.188 152.906h5.624a64.997 64.997 0 0 0 3.75 11.63h-5.624l-3.75-11.63Zm0 0"/><path style="stroke:none;fill-rule:evenodd;fill:#131516;fill-opacity:1" d="M36.563 141.277c2.203-.254 4.078.133 5.624 1.164a175.401 175.401 0 0 0-8.437 10.465c-1.633-.707-2.57-1.676-2.813-2.906 2.16-2.867 4.036-5.773 5.625-8.723Zm0 0"/><path style="stroke:none;fill-rule:evenodd;fill:#18191b;fill-opacity:1" d="M45.938 137.79c2.48-.196 4.667.19 6.562 1.163l6.563 8.14c-1.876 1.552-3.75 1.552-5.626 0a282.357 282.357 0 0 1-7.5-9.304Zm0 0"/><path style="stroke:none;fill-rule:evenodd;fill:#fdfdfd;fill-opacity:1" d="M259.688 211.047c1.433 3.02 2.062 6.121 1.875 9.3-.125 1.7.5 3.247 1.875 4.653 1.324 3.82 1.949 7.695 1.875 11.629a112.468 112.468 0 0 0 3.75 10.465c-.891 3 .359 5.328 3.75 6.976-.125 1.696.5 3.246 1.875 4.653-1.825 2.843-2.45 5.945-1.875 9.3a39.055 39.055 0 0 1 1.875 8.141c1.714 3.754 2.34 7.629 1.875 11.625 1.375 1.406 2 2.957 1.875 4.652l1.875 11.63c1.5 1.792 2.125 3.73 1.875 5.812 1.546 3.797 2.171 7.672 1.875 11.629 1.5 1.793 2.125 3.73 1.875 5.812V333.141h-127.5V245.93c3.503-1.461 6.628-1.075 9.375 1.164 9.39 9.316 17.828 19.008 25.312 29.07 2.367 2.668 5.809 3.637 10.313 2.906 5.09-3.011 8.53-6.695 10.312-11.047a448.533 448.533 0 0 0 14.063-37.21c1.007-1.88 1.632-3.817 1.875-5.813 1.8-2.05 2.43-4.379 1.875-6.977a64.481 64.481 0 0 0 5.625-10.464c2.32-1.993 3.57-4.32 3.75-6.977 2.507-1.875 5.632-2.457 9.375-1.746a189.856 189.856 0 0 0 9.375 12.21Zm0 0"/><path style="stroke:none;fill-rule:evenodd;fill:#c1cee0;fill-opacity:1" d="M454.688 176.164a55.326 55.326 0 0 1-3.75 10.465c.492-1.719-.133-3.27-1.875-4.652-2.754 1.968-4.004 4.293-3.75 6.976.16 2.133 1.41 3.684 3.75 4.652.582 3.735-.043 7.223-1.875 10.465v-4.652h-5.625c-1.067 4.453.183 8.328 3.75 11.629.582 3.734-.043 7.223-1.875 10.465.535-2.078-.09-4.016-1.875-5.813-2.754 1.965-4.004 4.293-3.75 6.977.16 2.129 1.41 3.68 3.75 4.648.582 3.738-.043 7.227-1.875 10.465v-4.648h-5.625c-1.067 4.453.183 8.328 3.75 11.625.566 2.976-.06 5.691-1.875 8.14-.032-1.777-1.282-2.355-3.75-1.742-2.407 3.25-2.407 6.543 0 9.883a53.232 53.232 0 0 1 3.75-2.324 42.083 42.083 0 0 1-3.75 12.789c.492-1.719-.133-3.27-1.875-4.653-.625.387-1.25.778-1.875 1.164-1.7 3.395-2.325 6.883-1.875 10.465h5.625a52.467 52.467 0 0 1-3.75 15.117c.585-3.195-.04-6.296-1.875-9.304-.625.195-1.25.39-1.875.582-1.782 3.555-2.407 7.238-1.875 11.047h5.625c-1.032 9.601-3.532 18.902-7.5 27.906v6.976a39.477 39.477 0 0 0-3.75 9.305c-1.926 6.719-4.739 13.305-8.438 19.766-1.91 1.383-4.098 2.543-6.563 3.488-3.722-2.273-6.535-4.988-8.437-8.137-3.652-6.867-6.465-13.843-8.438-20.933h5.625c-.859-3.926-2.109-7.801-3.75-11.625-2.421-.278-4.296.11-5.625 1.16-1.78-1.649-2.406-3.586-1.875-5.813 3.141-.793 4.395-2.343 3.75-4.652 10.188 2.766 14.875.828 14.063-5.812-1.793-1.622-4.293-2.399-7.5-2.325-3.637.528-7.074 1.301-10.313 2.325-1.328-1.051-3.203-1.438-5.625-1.164.125-1.696-.5-3.247-1.875-4.649 3.641-1.758 4.579-4.086 2.813-6.98a52.84 52.84 0 0 0-4.688-5.813c-1.66.961-2.285 2.121-1.875 3.488-1.796-2.093-3.046-4.421-3.75-6.976 3.325-.945 4.262-2.496 2.813-4.652-1.465-2.993-4.277-5.32-8.438-6.977l-1.875 1.746c1.715 1.633 2.961 3.379 3.75 5.23-2.769-.304-5.269.086-7.5 1.165-1.453 2.203-3.328 4.144-5.625 5.812-.328 3.754-1.582 7.242-3.75 10.465v-4.649h-5.625a57.059 57.059 0 0 0-1.875 11.63h5.625c-.18 2.656-1.43 4.98-3.75 6.976-.601-1.8-2.476-2.578-5.625-2.328a57.102 57.102 0 0 1-1.875 11.629h5.625c-4.437 20.16-11.625 39.93-21.562 59.3-2.617 2.36-5.742 2.747-9.375 1.165-5.14-6.27-8.578-12.86-10.313-19.766 2.758 3.414 5.57 6.902 8.438 10.465 1.297-.613 2.234-1.387 2.813-2.328a81.468 81.468 0 0 1-4.688-8.137c-1.895-.977-4.082-1.363-6.563-1.164-1.007-1.879-1.632-3.82-1.875-5.813 2.204.254 4.079-.132 5.625-1.164-1.171-3.648-3.046-7.136-5.625-10.465-1.66.957-2.285 2.122-1.875 3.489-1.816-2.45-2.44-5.164-1.875-8.14 2.34-.97 3.59-2.52 3.75-4.653 1.141-4.047-1.359-6.371-7.5-6.977.25-2.082-.375-4.02-1.875-5.812h5.625a57.145 57.145 0 0 0-1.875-11.63h-5.625c.25-2.081-.375-4.019-1.875-5.812h5.625c.075-3.933-.55-7.808-1.875-11.629h-5.625c.125-1.695-.5-3.246-1.875-4.652h5.625c.31-3.121-.003-6.223-.937-9.3-1.332-1.712-3.516-2.489-6.563-2.325a39.055 39.055 0 0 0-1.875-8.14 54.723 54.723 0 0 1 3.75 2.324c.625-.774 1.25-1.547 1.875-2.325-1.355-2.652-1.98-5.367-1.875-8.14h7.5c1.387 4.465 1.7 9.113.938 13.953 2.758 1.027 4.32 2.574 4.688 4.652 1.136 11.075 6.136 21.344 15 30.813 7.05 1.367 12.363.012 15.937-4.067a993.335 993.335 0 0 0 15-46.511c4.086-.985 6.898-2.73 8.438-5.235-2.618-2-3.864-4.328-3.75-6.976a271.653 271.653 0 0 1 3.75-13.371c8.39-.375 11.203-3.09 8.437-8.141-2.172-.578-3.734-1.547-4.688-2.906 1.895-4.914 5.02-9.371 9.375-13.371 1.547 3.468 4.047 6.57 7.5 9.3 2.305 2.09 3.555 4.415 3.75 6.977-6.84 1.164-9.027 3.875-6.562 8.14 2.707 1.923 6.145 2.7 10.313 2.325a227.833 227.833 0 0 0 5.625 15.117c-5.165 1.805-6.727 4.52-4.688 8.14 2.082 1.786 4.895 2.56 8.438 2.325a234.224 234.224 0 0 1 10.312 20.93c2.047 4.777 6.734 7.296 14.063 7.558 3.695-4.113 8.382-7.797 14.062-11.047-1.125-7.375-.188-14.742 2.813-22.093 2.863-2.758 5.363-5.665 7.5-8.72-1.692-2.417-2.942-4.937-3.75-7.558a747.903 747.903 0 0 0 13.125-62.793h11.25l3.75-1.16Zm0 0"/><path style="stroke:none;fill-rule:evenodd;fill:#e6e6e6;fill-opacity:1" d="M447.188 207.559v9.3h43.125c.917 1.739 2.164 3.29 3.75 4.653v4.652c-1.696-.824-2.32-1.988-1.875-3.488h-45V333.14h138.75c1.007 1.879 1.632 3.816 1.875 5.812H447.188v60.465h-9.375v-60.465c-7.067-.297-13.942.09-20.625 1.164a39.477 39.477 0 0 1 3.75-9.305c4.664 2.196 10.289 2.973 16.875 2.329a762.188 762.188 0 0 0-1.875-75.582v-4.653c1.816-2.449 2.44-5.164 1.875-8.14.03-2.399.656-4.727 1.875-6.977 1.832-3.238 2.457-6.726 1.875-10.465 1.78-1.648 2.406-3.586 1.875-5.812 1.832-3.242 2.457-6.73 1.875-10.465-.446-1.5.18-2.664 1.875-3.488Zm0 0"/><path style="stroke:none;fill-rule:evenodd;fill:#fefefe;fill-opacity:1" d="M494.063 226.164c-.387 3.48.863 6.582 3.75 9.3v1.165c2.82 24.45 11.257 48.094 25.312 70.93 4.281 2.886 8.969 3.082 14.063.582 5.484-6.809 12.363-13.012 20.625-18.606 3.742-.715 6.867-.133 9.375 1.742 2.304 2.09 3.554 4.418 3.75 6.977l3.75 4.652a70.734 70.734 0 0 0 3.75 10.465c.882 2.418 2.132 4.742 3.75 6.977 2.425 3.699 3.675 7.574 3.75 11.629v1.164h-138.75V222.676h45c-.446 1.5.18 2.664 1.875 3.488Zm0 0"/><path style="stroke:none;fill-rule:evenodd;fill:#c3d0e3;fill-opacity:1" d="M488.438 202.906c.886 2.364 2.761 4.301 5.625 5.817 4.156-1.012 8.53-1.399 13.125-1.164 1.386 10.527 7.011 20.023 16.875 28.488 3.933.789 7.683.594 11.25-.582.343 5.656 4.722 7.594 13.125 5.812 5.355-5.257 2.855-8.359-7.5-9.3 4.59-3.938 8.96-8.004 13.125-12.211 7.257-3.137 11.632-2.168 13.125 2.91-.82-.078-1.45.117-1.875.578 2.023 3.898 5.152 7.191 9.375 9.887 1.218 2.297 1.218 4.43 0 6.394a3862.702 3862.702 0 0 0 24.375 54.07v8.141c-6.836 1.117-9.024 3.828-6.563 8.137 1.531 1.539 3.719 2.312 6.563 2.328v31.394c-2.32-1.992-3.57-4.32-3.75-6.976-3.149-.25-5.024.523-5.625 2.324h-1.875c-.243-1.996-.868-3.933-1.875-5.812v-1.164h5.625c.148-3.223-.79-6.32-2.813-9.301-1.332-1.715-3.516-2.488-6.563-2.328-1.617-2.235-2.867-4.559-3.75-6.977 3.047 1.906 4.922 1.516 5.625-1.16a46.61 46.61 0 0 0-3.75-8.14c-1.546-1.032-3.421-1.419-5.625-1.165l-3.75-4.652h5.625c-.242-1.992-.867-3.934-1.875-5.813 8.391-.375 11.204-3.09 8.438-8.14-7.734-3.59-13.05-2.426-15.938 3.488-1.156.816-1.156 1.98 0 3.488-2.507-1.875-5.632-2.457-9.375-1.742-8.261 5.594-15.14 11.797-20.625 18.606-5.093 2.5-9.78 2.304-14.062-.582-14.055-22.836-22.492-46.48-25.313-70.93 1.782 1.648 2.407 3.586 1.875 5.812h5.625c-.57-3.511-1.507-7-2.812-10.464-.777-.532-1.715-.918-2.813-1.165-1.742 1.383-2.367 2.934-1.875 4.653-2.886-2.719-4.136-5.82-3.75-9.3v-3.49c3.274 3.376 5.149 2.99 5.625-1.163a38.526 38.526 0 0 1-1.875-8.14h-5.625a39.112 39.112 0 0 1 1.875 8.14c-1.585-1.364-2.832-2.914-3.75-4.653l-1.875-13.953Zm0 0"/><path style="stroke:none;fill-rule:evenodd;fill:#707d90;fill-opacity:1" d="M21.563 229.652c-.801 3.82-2.676 7.309-5.625 10.465-1.262-.894-2.825-1.668-4.688-2.328-3.563-6.293-.125-9.008 10.313-8.137Zm0 0"/><path style="stroke:none;fill-rule:evenodd;fill:#5176a8;fill-opacity:1" d="M525.938 229.652c.644 2.004 2.519 2.586 5.625 1.743 3.683-1.688 6.183-3.817 7.5-6.395 3.566-2.473 6.69-5.188 9.375-8.14-2.825-2.872-2.2-5.387 1.875-7.56 8.796.348 15.984 2.868 21.562 7.56 4.488 6.023 8.238 12.222 11.25 18.605A522.695 522.695 0 0 0 599.063 275v18.605a3862.702 3862.702 0 0 1-24.375-54.07c1.218-1.965 1.218-4.097 0-6.394-1.805-3.766-4.305-7.254-7.5-10.465-1.493-5.078-5.868-6.047-13.125-2.91a219.891 219.891 0 0 1-13.125 12.21c-2.5.778-4.375 1.938-5.625 3.489-3.567 1.176-7.317 1.37-11.25.582-9.864-8.465-15.489-17.961-16.875-28.488-4.594-.235-8.97.152-13.125 1.164.246-3.57-.375-7.059-1.875-10.47h11.25A505314.84 505314.84 0 0 0 487.5 136.63c-.96-3.48-3.148-6.582-6.563-9.305.727-16.05-3.96-31.554-14.062-46.511A190.52 190.52 0 0 1 457.5 95.93c-.93 2.293-1.242 4.62-.938 6.976-1.109 3.055-1.734 6.156-1.875 9.305a685.575 685.575 0 0 0-13.125 55.812c-1.109 3.055-1.734 6.157-1.875 9.301a747.903 747.903 0 0 1-13.125 62.793c.81 2.621 2.06 5.14 3.75 7.559-2.136 3.054-4.636 5.96-7.5 8.719-3 7.351-3.937 14.718-2.812 22.093-5.68 3.25-10.367 6.934-14.063 11.047-7.328-.262-12.015-2.781-14.062-7.558a234.224 234.224 0 0 0-10.313-20.93c.543-3.82-.707-7.309-3.75-10.465a227.833 227.833 0 0 1-5.625-15.117c-.375-3.64-1.625-7.13-3.75-10.465-.195-2.563-1.445-4.887-3.75-6.977-.55-3.785-3.05-6.886-7.5-9.3-4.355 4-7.48 8.457-9.375 13.37.954 1.36 2.516 2.329 4.688 2.907 2.766 5.05-.047 7.766-8.438 8.14a271.653 271.653 0 0 0-3.75 13.372c-.113 2.648 1.133 4.976 3.75 6.976-1.539 2.504-4.351 4.25-8.437 5.235a993.335 993.335 0 0 1-15 46.511c-3.574 4.079-8.887 5.434-15.938 4.067-8.863-9.469-13.863-19.738-15-30.813-.367-2.078-1.93-3.625-4.687-4.652.762-4.84.45-9.488-.938-13.953.583-3.735-.042-7.223-1.875-10.465a1453.296 1453.296 0 0 0-20.625-89.535c.293-4.957-.957-9.61-3.75-13.953-1.085-6.961-4.214-13.551-9.375-19.766-4.425 3.938-7.863 8.2-10.312 12.79a660.965 660.965 0 0 1-14.063 34.882l-3.75 9.305c-3.023 6.789-6.773 13.379-11.25 19.765-3.21 2.735-7.59 3.895-13.125 3.489-7.492-4.633-13.117-10.06-16.875-16.278-1.433-2.93-3.308-5.64-5.625-8.14-1.757-3.22-3.945-6.32-6.562-9.301-3.293-1.727-5.48-1.34-6.563 1.16-3.195 3.207-5.695 6.695-7.5 10.465a1030.567 1030.567 0 0 0-18.75 66.281c-1.109 3.055-1.734 6.156-1.875 9.3a287.528 287.528 0 0 0-11.25 37.794c2.086 2.414 3.024 4.933 2.813 7.558-7.496 3.442-11.871 8.094-13.125 13.954-4.438 3.988-9.438 4.375-15 1.16a242.037 242.037 0 0 1-8.438-11.625c-.12-3.407-1.37-6.508-3.75-9.305a3611.4 3611.4 0 0 0-27.187-83.719l-9.375-9.304c-2.598 1.222-4.473 2.773-5.625 4.652-6.316 12.52-13.816 24.926-22.5 37.207-6.914 6.187-13.477 6.187-19.688 0V233.14c2.008 5.304 5.446 10.343 10.313 15.113 3.195-2.414 5.383-5.125 6.563-8.137 2.949-3.156 4.824-6.644 5.624-10.465 1.02-.07 1.645-.457 1.875-1.164-6.015-5.086-4.14-8.574 5.625-10.465 2.18-5.035 5.618-9.687 10.313-13.953 5.625-4.652 11.25-4.652 16.875 0 5.238 7.957 9.613 16.098 13.125 24.418A1106.884 1106.884 0 0 0 93.75 304.07c2.7 4.743 5.512 9.39 8.438 13.953 1.66-.96 2.285-2.12 1.874-3.488 4.606-3.336 6.793-7.21 6.563-11.629-.719.649-1.656 1.035-2.813 1.164 6.442-11.328 11.13-22.957 14.063-34.882 1.426-4.465.488-8.727-2.813-12.793a362.31 362.31 0 0 0 7.5-8.141c5.512-25.555 13.637-50.75 24.376-75.578 2.636-.551 3.886-1.715 3.75-3.488 3.71-1.942 8.085-2.715 13.125-2.329 5.78 3.676 10.156 7.938 13.125 12.793 1.507 2.809 3.382 5.52 5.625 8.137 1.304 3.973 4.43 7.074 9.375 9.305-1.805 2.09-.555 3.64 3.75 4.652 5.847-5.316 10.218-11.133 13.125-17.445-8.442-5.414-6.88-9.293 4.687-11.625 4.117-12.922 9.117-25.715 15-38.375 9.148-18.02 18.836-18.406 29.063-1.16 1.007 1.879 1.632 3.816 1.875 5.812A2513.762 2513.762 0 0 1 294.375 265.7c5.867 3.274 6.18 6.762.938 10.465 2.609 8.281 6.046 16.422 10.312 24.418 2.45-1.48 5.262-2.64 8.438-3.488 3.843-8.043 6.968-16.184 9.375-24.418 1.75-3.672 3-7.547 3.75-11.63 5.324-17.085 11.886-34.14 19.687-51.163 2.781-4.09 7.469-6.223 14.063-6.395 5.75 3.832 9.812 8.293 12.187 13.371a2520.624 2520.624 0 0 1 24.375 61.63l5.625 5.812c2.227-1.235 3.164-2.785 2.813-4.649 3.285-3.078 5.16-6.566 5.625-10.464a2894.88 2894.88 0 0 0 24.375-106.977v-9.305c4.355-23.32 10.917-46.578 19.687-69.765 3.613-7.536 9.863-8.696 18.75-3.489 7.809 13.153 13.121 26.72 15.938 40.696 6.074 3.996 7.324 8.648 3.75 13.953A858.848 858.848 0 0 1 510 198.254c2.5.777 5 1.55 7.5 2.328 1.223 3.563.285 6.86-2.813 9.883 3.25 6.64 7 13.035 11.25 19.187Zm0 0"/><path style="stroke:none;fill-rule:evenodd;fill:#707d8f;fill-opacity:1" d="M518.438 250.582c11.226.191 13.726 3.098 7.5 8.719-6.942 1.62-10.692.265-11.25-4.067.566-1.879 1.82-3.43 3.75-4.652Zm0 0"/><path style="stroke:none;fill-rule:evenodd;fill:#101113;fill-opacity:1" d="M435.938 252.906V258.723a53.232 53.232 0 0 0-3.75 2.324c-2.407-3.34-2.407-6.633 0-9.883 2.468-.613 3.718-.035 3.75 1.742Zm0 0"/><path style="stroke:none;fill-rule:evenodd;fill:#6e7a8c;fill-opacity:1" d="M134.063 250.582c6.863.031 12.488 1.582 16.875 4.652-2.625.696-4.5 1.86-5.625 3.489-4.157 1.007-8.532 1.394-13.125 1.16.14-3.145.765-6.246 1.875-9.301Zm0 0"/><path style="stroke:none;fill-rule:evenodd;fill:#171819;fill-opacity:1" d="M501.563 247.094h5.625l1.875 11.629h-5.625c.296-3.957-.329-7.836-1.875-11.63Zm0 0"/><path style="stroke:none;fill-rule:evenodd;fill:#0e0f10;fill-opacity:1" d="M274.688 250.582c.445 1.5-.18 2.664-1.875 3.488-3.391-1.648-4.641-3.976-3.75-6.976-.493-1.719.132-3.27 1.875-4.653 1.726 2.649 2.976 5.36 3.75 8.141Zm0 0"/><path style="stroke:none;fill-rule:evenodd;fill:#141516;fill-opacity:1" d="M109.688 237.79c1.156.128 2.093.519 2.812 1.163-.012 3.91-2.2 7.399-6.563 10.465-3.785-.734-4.41-1.898-1.874-3.488 2.242-2.618 4.117-5.332 5.624-8.14Zm0 0"/><path style="stroke:none;fill-rule:evenodd;fill:#191b1d;fill-opacity:1" d="M92.813 236.629c.484 3.223 2.359 5.934 5.624 8.137.16 1.738-1.09 2.902-3.75 3.488-3.902-3.082-6.402-6.57-7.5-10.465 1.547-1.027 3.422-1.414 5.626-1.16Zm0 0"/><path style="stroke:none;fill-rule:evenodd;fill:#748294;fill-opacity:1" d="M540.938 231.977c10.355.941 12.855 4.043 7.5 9.3-8.403 1.782-12.782-.156-13.125-5.812 1.25-1.55 3.125-2.711 5.625-3.488Zm0 0"/><path style="stroke:none;fill-rule:evenodd;fill:#131415;fill-opacity:1" d="M439.688 237.79c-1.22 2.25-1.844 4.577-1.875 6.976-3.567-3.297-4.817-7.172-3.75-11.625h5.625v4.648Zm0 0"/><path style="stroke:none;fill-rule:evenodd;fill:#171819;fill-opacity:1" d="M497.813 236.629v-1.164c-.493-1.719.132-3.27 1.875-4.653 1.097.247 2.035.633 2.812 1.165a54.389 54.389 0 0 1 2.813 10.464h-5.625c.53-2.226-.094-4.164-1.875-5.812Zm0 0"/><path style="stroke:none;fill-rule:evenodd;fill:#1b222d;fill-opacity:1" d="M539.063 225c-1.317 2.578-3.817 4.707-7.5 6.395-3.106.843-4.981.261-5.625-1.743 5.253-.539 9.632-2.09 13.125-4.652Zm0 0"/><path style="stroke:none;fill-rule:evenodd;fill:#222934;fill-opacity:1" d="M567.188 222.676c3.195 3.21 5.695 6.699 7.5 10.465-4.223-2.696-7.352-5.989-9.375-9.887.425-.461 1.054-.656 1.875-.578Zm0 0"/><path style="stroke:none;fill-rule:evenodd;fill:#161819;fill-opacity:1" d="M263.438 225h5.625c1.324 3.82 1.949 7.695 1.875 11.629h-5.625c.074-3.934-.551-7.809-1.875-11.629Zm0 0"/><path style="stroke:none;fill-rule:evenodd;fill:#17181a;fill-opacity:1" d="M229.688 225c-.243 1.996-.868 3.934-1.875 5.813a58.151 58.151 0 0 0-3.75 3.488c-.625-1.16-1.25-2.324-1.875-3.488a38.492 38.492 0 0 0 1.875-8.137c3.148-.25 5.023.523 5.625 2.324Zm0 0"/><path style="stroke:none;fill-rule:evenodd;fill:#c3cfe0;fill-opacity:1" d="M173.438 181.977v4.652c-8.157-.344-11.594 1.98-10.313 6.976 3.39 2.204 7.453 2.786 12.188 1.743 2.882-1.29 4.132-3.036 3.75-5.23 3.757 6.218 9.382 11.644 16.875 16.277.605 5.207 4.98 6.949 13.125 5.234 2.398-2.906 2.398-5.813 0-8.723 4.476-6.386 8.226-12.976 11.25-19.765 2.89.93 6.015 1.316 9.375 1.16-1.875 5.816 1.875 8.14 11.25 6.976-1.497 2.778-3.372 5.489-5.625 8.141 1.546 1.031 3.421 1.418 5.625 1.164-.18 2.656-1.43 4.984-3.75 6.977-3.313-1.336-5.5-.563-6.563 2.324a57.118 57.118 0 0 1-2.813 6.394c.63 1.2 1.88 1.782 3.75 1.746.555 2.598-.074 4.926-1.875 6.977-.601-1.8-2.476-2.574-5.625-2.324a38.492 38.492 0 0 1-1.875 8.137c.625 1.164 1.25 2.328 1.875 3.488a58.151 58.151 0 0 1 3.75-3.488 448.533 448.533 0 0 1-14.062 37.21c-1.781 4.352-5.223 8.036-10.313 11.047-4.503.73-7.945-.238-10.312-2.906-7.484-10.062-15.922-19.754-25.313-29.07-2.746-2.239-5.87-2.625-9.375-1.164.672-2.176 2.547-3.918 5.625-5.23-3.07-2.27-5.882-2.075-8.437.577a66.412 66.412 0 0 0-4.688 6.977c1.547 1.031 3.422 1.418 5.625 1.164-2.703 1.535-3.953 3.473-3.75 5.816h-1.875c-4.386-3.07-10.011-4.62-16.875-4.652a1030.567 1030.567 0 0 1 18.75-66.281c3.297-1.906 6.11-4.23 8.438-6.977 1.387-1.449 1.074-2.613-.938-3.488 1.083-2.5 3.27-2.887 6.563-1.16 2.617 2.98 4.805 6.082 6.563 9.3Zm0 0"/><path style="stroke:none;fill-rule:evenodd;fill:#1a1b1d;fill-opacity:1" d="M182.813 252.906c6.824 1.535 11.203 4.637 13.125 9.305-.579.937-1.516 1.715-2.813 2.324-4.91-3.379-8.348-7.254-10.313-11.629Zm0 0"/><path style="stroke:none;fill-rule:evenodd;fill:#161719;fill-opacity:1" d="M218.438 238.953c2.035.14 3.285.914 3.75 2.324-1.645 3.059-2.899 6.16-3.75 9.305-2.204.254-4.079-.133-5.625-1.164a81.153 81.153 0 0 1 5.625-10.465ZM167.813 238.953c1.972-.172 3.847.02 5.625.582 3.125 2.711 6.25 5.426 9.375 8.14-1.72.434-3.282 1.016-4.688 1.743-3.48-3.555-6.918-7.043-10.313-10.465Zm0 0"/><path style="stroke:none;fill-rule:evenodd;fill:#161618;fill-opacity:1" d="M158.438 245.93v1.164c-1.57.398-2.196 1.172-1.875 2.324-2.204.254-4.079-.133-5.625-1.164a66.412 66.412 0 0 1 4.687-6.977c2.555-2.652 5.367-2.847 8.438-.578-3.079 1.313-4.954 3.055-5.625 5.23Zm0 0"/><path style="stroke:none;fill-rule:evenodd;fill:#121314;fill-opacity:1" d="M117.188 221.512c1.87-.035 3.12.547 3.75 1.742-1.7 3.246-2.95 6.543-3.75 9.887h-5.626c1.895-3.985 3.77-7.86 5.626-11.63Zm0 0"/><path style="stroke:none;fill-rule:evenodd;fill:#0c0d0e;fill-opacity:1" d="M87.188 223.836c-.504 1.86.12 3.41 1.874 4.652v3.489h-5.624c-.012-2.95-.637-5.86-1.876-8.723.626-.965 1.25-1.938 1.876-2.906a57.065 57.065 0 0 0 3.75 3.488Zm0 0"/><path style="stroke:none;fill-rule:evenodd;fill:#18191a;fill-opacity:1" d="M443.438 221.512c.53 2.226-.094 4.164-1.875 5.812-2.34-.969-3.59-2.52-3.75-4.648-.254-2.684.996-5.012 3.75-6.977 1.785 1.797 2.41 3.735 1.875 5.813Zm0 0"/><path style="stroke:none;fill-rule:evenodd;fill:#151617;fill-opacity:1" d="M494.063 222.676v-1.164a39.112 39.112 0 0 0-1.875-8.14h5.625c.32 2.73.94 5.444 1.875 8.14-.477 4.152-2.352 4.539-5.625 1.164Zm0 0"/><path style="stroke:none;fill-rule:evenodd;fill:#141516;fill-opacity:1" d="M261.563 220.348c.187-3.18-.442-6.282-1.875-9.301.601-1.8 2.476-2.574 5.625-2.324-.075 3.93.55 7.804 1.875 11.625h-5.625Zm0 0"/><path style="stroke:none;fill-rule:evenodd;fill:#17181a;fill-opacity:1" d="M237.188 207.559a64.481 64.481 0 0 1-5.625 10.464c-1.872.036-3.122-.546-3.75-1.746a57.118 57.118 0 0 0 2.812-6.394c1.063-2.887 3.25-3.66 6.563-2.324Zm0 0"/><path style="stroke:none;fill-rule:evenodd;fill:#141516;fill-opacity:1" d="M120.938 205.234c2.203-.257 4.078.13 5.624 1.16-1.37 3.036-2.308 6.137-2.812 9.305-2.738 1.606-4.3 1.219-4.688-1.164.626-3.101 1.25-6.203 1.876-9.3Zm0 0"/><path style="stroke:none;fill-rule:evenodd;fill:#6f7d90;fill-opacity:1" d="M209.063 202.906c2.398 2.91 2.398 5.817 0 8.723-8.145 1.715-12.52-.027-13.125-5.234 5.535.406 9.914-.754 13.125-3.489Zm0 0"/><path style="stroke:none;fill-rule:evenodd;fill:#1c1e21;fill-opacity:1" d="M79.688 202.906c1.84 3.793 3.09 7.672 3.75 11.63-1.329 1.05-3.204 1.437-5.626 1.163.387-3.484-.863-6.586-3.75-9.304 0-2.325 1.876-3.489 5.626-3.489Zm0 0"/><path style="stroke:none;fill-rule:evenodd;fill:#161718;fill-opacity:1" d="M447.188 204.07v3.489c-1.696.824-2.32 1.988-1.875 3.488-3.567-3.3-4.817-7.176-3.75-11.629h5.625v4.652Zm0 0"/><path style="stroke:none;fill-rule:evenodd;fill:#030304;fill-opacity:1" d="M492.188 198.254c1.5 3.41 2.12 6.898 1.875 10.469-2.864-1.516-4.739-3.453-5.625-5.817v-1.16c-.493-1.719.132-3.27 1.875-4.652 1.136.144 1.761.531 1.875 1.16Zm0 0"/><path style="stroke:none;fill-rule:evenodd;fill:#151921;fill-opacity:1" d="M186.563 187.79h1.875l7.5 9.304c-4.946-2.23-8.07-5.332-9.375-9.305Zm0 0"/><path style="stroke:none;fill-rule:evenodd;fill:#141516;fill-opacity:1" d="M244.688 190.117c1.12.274 1.742.856 1.875 1.742-2.157 2.868-4.032 5.774-5.625 8.723-2.204.254-4.079-.133-5.625-1.164 2.253-2.652 4.128-5.363 5.625-8.14l3.75-1.16Zm0 0"/><path style="stroke:none;fill-rule:evenodd;fill:#728092;fill-opacity:1" d="M173.438 181.977c2.316 2.5 4.19 5.21 5.625 8.14.382 2.196-.868 3.942-3.75 5.23-4.735 1.044-8.797.462-12.188-1.742-1.281-4.996 2.156-7.32 10.313-6.976v-4.652Zm0 0"/><path style="stroke:none;fill-rule:evenodd;fill:#0a0a0b;fill-opacity:1" d="M450.938 186.629c-1.22 2.25-1.844 4.574-1.875 6.976-2.34-.968-3.59-2.52-3.75-4.652-.254-2.683.996-5.008 3.75-6.976 1.742 1.382 2.367 2.933 1.875 4.652Zm0 0"/><path style="stroke:none;fill-rule:evenodd;fill:#707d8f;fill-opacity:1" d="M224.063 173.836c8.148.414 11.273 3.125 9.375 8.14 9.042-.199 12.792 2.512 11.25 8.141l-3.75 1.16c-9.375 1.164-13.125-1.16-11.25-6.976-3.36.156-6.485-.23-9.375-1.16l3.75-9.305Zm0 0"/><path style="stroke:none;fill-rule:evenodd;fill:#161819;fill-opacity:1" d="M484.688 191.277c.187-3.18-.442-6.28-1.875-9.3.601-1.801 2.476-2.575 5.625-2.325a57.065 57.065 0 0 0 1.875 11.625h-5.625Zm0 0"/><path style="stroke:none;fill-rule:evenodd;fill:#6d7a8c;fill-opacity:1" d="M188.438 187.79h-1.875c-2.243-2.618-4.118-5.33-5.625-8.138 4.078-.21 7.828-.988 11.25-2.328 6.855.559 9.667 2.883 8.437 6.977-3.836 1.66-7.898 2.824-12.188 3.488Zm0 0"/><path style="stroke:none;fill-rule:evenodd;fill:#758090;fill-opacity:1" d="M441.563 168.023h9.375c-2.278 3.145-2.278 6.247 0 9.301h-11.25c.14-3.144.765-6.246 1.875-9.3Zm0 0"/><path style="stroke:none;fill-rule:evenodd;fill:#16191f;fill-opacity:1" d="M160.313 173.836c2.011.875 2.324 2.039.937 3.488-2.328 2.746-5.14 5.07-8.438 6.977 1.805-3.77 4.305-7.258 7.5-10.465Zm0 0"/><path style="stroke:none;fill-rule:evenodd;fill:#18191b;fill-opacity:1" d="m456.563 166.86-1.875 9.304-3.75 1.16c-2.278-3.054-2.278-6.156 0-9.3 1.035-2.387 2.91-2.774 5.625-1.165Zm0 0"/><path style="stroke:none;fill-rule:evenodd;fill:#161719;fill-opacity:1" d="M479.063 175c.378-2.848-.247-5.563-1.875-8.14v-3.489h5.625L484.688 175h-5.625Zm0 0"/><path style="stroke:none;fill-rule:evenodd;fill:#667384;fill-opacity:1" d="M428.438 152.906h7.5v9.305c-2.735.078-5.235-.313-7.5-1.164v-8.14Zm0 0"/><path style="stroke:none;fill-rule:evenodd;fill:#fcfcfc;fill-opacity:1" d="M473.438 156.395v2.328c.8 2.918 2.05 5.629 3.75 8.136 1.628 2.578 2.253 5.293 1.875 8.141a39.484 39.484 0 0 0 3.75 6.977c1.433 3.02 2.062 6.12 1.875 9.3.328 3.754 1.582 7.243 3.75 10.47v1.16l1.875 13.952h-43.125V204.07c1.832-3.242 2.457-6.73 1.875-10.465.03-2.402.656-4.726 1.875-6.976a55.326 55.326 0 0 0 3.75-10.465l1.875-9.305a39.484 39.484 0 0 0 3.75-6.976c-.25-2.082.375-4.02 1.875-5.813 1.218-.355 2.468-.742 3.75-1.164a971.38 971.38 0 0 0 7.5 3.489Zm0 0"/><path style="stroke:none;fill-rule:evenodd;fill:#0e0f10;fill-opacity:1" d="M424.688 152.906h3.75v11.63h-5.625l1.875-11.63Zm0 0"/><path style="stroke:none;fill-rule:evenodd;fill:#748296;fill-opacity:1" d="M257.813 145.93c2.792 4.343 4.042 8.996 3.75 13.953-6.31.73-10.06-.82-11.25-4.649 3.378-2.859 5.882-5.96 7.5-9.304Zm0 0"/><path style="stroke:none;fill-rule:evenodd;fill:#26282a;fill-opacity:1" d="M428.438 135.465h5.625a266.596 266.596 0 0 0-2.813 11.629c-2.738 1.605-4.3 1.219-4.688-1.164-.44-3.614.184-7.102 1.875-10.465Zm0 0"/><path style="stroke:none;fill-rule:evenodd;fill:#c2cfe1;fill-opacity:1" d="M389.063 194.766c-1.696-.825-2.32-1.985-1.875-3.489h-5.625c.332 3.16 1.269 6.262 2.812 9.305 1.332 1.711 3.516 2.488 6.563 2.324v-3.488c3.316 3.613 6.128 7.488 8.437 11.629 1.895.973 4.082 1.36 6.563 1.164.84 3.516 2.398 3.902 4.687 1.16l4.688-8.719c-.63-1.199-1.88-1.78-3.75-1.746-.532-2.226.093-4.164 1.875-5.812 1.328 1.05 3.203 1.437 5.625 1.16-.192-3.16.433-6.258 1.875-9.3-.465-1.411-1.715-2.188-3.75-2.325-.575-3.356.05-6.457 1.875-9.305.324 5.2 1.886 5.586 4.687 1.164l.938-4.07c-.204-1.953-1.454-3.313-3.75-4.07 1.5-1.793 2.125-3.73 1.875-5.813h5.625v-3.488c2.265.851 4.765 1.242 7.5 1.164a2894.88 2894.88 0 0 1-24.375 106.976c-3.286 3.075-5.16 6.563-5.625 10.465.351 1.864-.586 3.414-2.813 4.649l-5.625-5.813a2520.624 2520.624 0 0 0-24.375-61.629c-2.375-5.078-6.438-9.539-12.188-13.37-6.593.171-11.28 2.304-14.062 6.394-7.8 17.023-14.363 34.078-19.688 51.164-6.308-.73-10.058.82-11.25 4.652 1.86 2.68 4.36 5.008 7.5 6.977-2.406 8.234-5.53 16.375-9.375 24.418-3.175.847-5.988 2.008-8.437 3.488-4.266-7.996-7.703-16.137-10.313-24.418 5.243-3.703 4.93-7.191-.937-10.465a2513.762 2513.762 0 0 0-30.938-126.746c3.63.758 7.38 1.145 11.25 1.164 2.5 0 3.75-.777 3.75-2.328 1.801 2.055 2.43 4.379 1.875 6.977h-5.625c1.325 3.824 1.95 7.699 1.875 11.629h5.625c.243 1.996.868 3.933 1.875 5.816-1.972-.176-3.847.02-5.625.578 1.782 3.555 2.407 7.238 1.875 11.047 2.422.277 4.297-.11 5.625-1.16 1.782 1.648 2.407 3.586 1.875 5.812h-5.625c.829 4.25 1.454 8.512 1.875 12.79 3.149.25 5.024-.524 5.625-2.325 1.801 2.05 2.43 4.379 1.875 6.977-2.203-.254-4.078.132-5.625 1.164 1.7 3.394 2.325 6.883 1.875 10.465 2.422.273 4.297-.114 5.625-1.164 1.782 1.652 2.407 3.59 1.875 5.816-2.238.543-3.488 1.707-3.75 3.488 1.118 3.067 1.739 6.168 1.875 9.301 2.422.277 4.297-.113 5.625-1.164 2.063 2.066 3.625 4.394 4.688 6.976 1.293.997 2.855 1.774 4.688 2.329 5.171-3.836 8.921-8.102 11.25-12.793-.41 1.367.214 2.53 1.875 3.488 3.035-3.652 4.91-7.527 5.625-11.625h-5.625a39.348 39.348 0 0 1 3.75-6.977c.386 2.38 1.949 2.77 4.687 1.16l2.813-10.464h-5.625c.703-2.555 1.953-4.88 3.75-6.977 1.082 1.48 2.332 1.48 3.75 0a81.83 81.83 0 0 0 3.75-7.558c-.465-2.032-2.34-3-5.625-2.907.703-2.554 1.953-4.883 3.75-6.976.601 1.8 2.476 2.574 5.625 2.324a57.065 57.065 0 0 1 1.875-11.625h-5.625c.703-2.559 1.953-4.883 3.75-6.977.601 1.797 2.476 2.575 5.625 2.325.277-3.422 1.523-6.715 3.75-9.883l-1.875-1.746c-2.844 2.207-5.344 4.53-7.5 6.976 9.25-28.867 20.187-29.254 32.812-1.16a2849.575 2849.575 0 0 0 14.063 43.02Zm0 0"/><path style="stroke:none;fill-rule:evenodd;fill:#717e91;fill-opacity:1" d="M377.813 250.582c3.042 3.156 4.292 6.645 3.75 10.465-3.543.234-6.356-.54-8.438-2.324-2.04-3.621-.477-6.336 4.688-8.141Zm0 0"/><path style="stroke:none;fill-rule:evenodd;fill:#748193;fill-opacity:1" d="M396.563 248.254c12.195-.418 15.32 2.488 9.375 8.723-12.665.878-15.793-2.028-9.375-8.723Zm0 0"/><path style="stroke:none;fill-rule:evenodd;fill:#141516;fill-opacity:1" d="M315.938 228.488c2.035.14 3.285.914 3.75 2.325-1.645 3.058-2.899 6.16-3.75 9.304-2.204.254-4.079-.133-5.625-1.164 2.257-3.43 4.132-6.918 5.625-10.465Zm0 0"/><path style="stroke:none;fill-rule:evenodd;fill:#141416;fill-opacity:1" d="M295.313 229.652c3.046-.164 5.23.614 6.562 2.325 1.043 2.46 2.61 4.785 4.688 6.976-.579.942-1.516 1.715-2.813 2.324-3.719-3.62-6.531-7.496-8.438-11.625Zm0 0"/><path style="stroke:none;fill-rule:evenodd;fill:#637080;fill-opacity:1" d="M368.438 225c2.125 3.336 3.375 6.824 3.75 10.465-4.168.375-7.606-.403-10.313-2.324-2.465-4.266-.277-6.977 6.563-8.141Zm0 0"/><path style="stroke:none;fill-rule:evenodd;fill:#191c21;fill-opacity:1" d="M357.188 208.723c4.449 2.414 6.949 5.515 7.5 9.3-3.454-2.73-5.954-5.832-7.5-9.3Zm0 0"/><path style="stroke:none;fill-rule:evenodd;fill:#141516;fill-opacity:1" d="M321.563 212.21h5.625c-.715 4.099-2.59 7.974-5.625 11.626-1.66-.957-2.286-2.121-1.875-3.488a39.02 39.02 0 0 1 1.875-8.137Zm0 0"/><path style="stroke:none;fill-rule:evenodd;fill:#1e1f22;fill-opacity:1" d="M295.313 212.21c1.96 3.75 3.21 7.63 3.75 11.626-1.329 1.05-3.204 1.441-5.625 1.164-.137-3.133-.758-6.234-1.875-9.3.261-1.782 1.511-2.946 3.75-3.49Zm0 0"/><path style="stroke:none;fill-rule:evenodd;fill:#17181a;fill-opacity:1" d="M390.938 207.559a451.15 451.15 0 0 1 11.25 9.3c-.579.942-1.516 1.715-2.813 2.328-6.59-3.109-9.402-6.988-8.438-11.628Zm0 0"/><path style="stroke:none;fill-rule:evenodd;fill:#1c1e1f;fill-opacity:1" d="M411.563 202.906c1.87-.035 3.12.547 3.75 1.746l-4.688 8.72c-2.29 2.741-3.848 2.355-4.688-1.161 1.18-3.371 3.055-6.473 5.625-9.305Zm0 0"/><path style="stroke:none;fill-rule:evenodd;fill:#16181a;fill-opacity:1" d="M327.188 195.93h5.625c-.934 3.472-1.872 6.96-2.813 10.465-2.738 1.609-4.3 1.218-4.688-1.16.141-3.15.766-6.25 1.875-9.305Zm0 0"/><path style="stroke:none;fill-rule:evenodd;fill:#1a1b1c;fill-opacity:1" d="M291.563 195.93c1.5 3.406 2.12 6.894 1.875 10.465-1.329 1.05-3.204 1.437-5.625 1.164.449-3.582-.176-7.07-1.875-10.465 1.546-1.031 3.421-1.418 5.625-1.164Zm0 0"/><path style="stroke:none;fill-rule:evenodd;fill:#202124;fill-opacity:1" d="M389.063 194.766c-.504 1.859.125 3.41 1.875 4.652v3.488c-3.047.164-5.231-.613-6.563-2.324-1.543-3.043-2.48-6.144-2.813-9.305h5.625c-.445 1.504.18 2.664 1.875 3.489Zm0 0"/><path style="stroke:none;fill-rule:evenodd;fill:#191a1b;fill-opacity:1" d="M417.188 186.629c2.035.137 3.285.914 3.75 2.324-1.442 3.043-2.067 6.14-1.875 9.3-2.422.278-4.297-.108-5.625-1.16.328-3.753 1.582-7.241 3.75-10.464Zm0 0"/><path style="stroke:none;fill-rule:evenodd;fill:#161719;fill-opacity:1" d="M332.813 178.488c3.285-.093 5.16.875 5.625 2.907a81.83 81.83 0 0 1-3.75 7.558c-1.418 1.48-2.668 1.48-3.75 0a77.986 77.986 0 0 1 1.875-10.465Zm0 0"/><path style="stroke:none;fill-rule:evenodd;fill:#202225;fill-opacity:1" d="M287.813 178.488a77.986 77.986 0 0 1 1.875 10.465c-.602 1.8-2.477 2.574-5.625 2.324a137.275 137.275 0 0 0-1.875-12.789h5.625Zm0 0"/><path style="stroke:none;fill-rule:evenodd;fill:#18191a;fill-opacity:1" d="M374.063 175c3.046-.164 5.23.613 6.562 2.324 2.23 3.133 2.543 6.235.938 9.305-1.098-.242-2.036-.633-2.813-1.164-1.594-3.512-3.156-7-4.688-10.465Zm0 0"/><path style="stroke:none;fill-rule:evenodd;fill:#141515;fill-opacity:1" d="M420.938 170.348c2.296.757 3.546 2.117 3.75 4.07l-.938 4.07c-2.8 4.422-4.363 4.035-4.688-1.164.032-2.398.657-4.726 1.875-6.976Zm0 0"/><path style="stroke:none;fill-rule:evenodd;fill:#18191c;fill-opacity:1" d="M338.438 162.21h5.625a57.065 57.065 0 0 0-1.875 11.626c-3.149.25-5.024-.524-5.625-2.324l1.875-9.301Zm0 0"/><path style="stroke:none;fill-rule:evenodd;fill:#19191b;fill-opacity:1" d="M284.063 162.21c1.5 3.407 2.12 6.895 1.875 10.466-1.329 1.05-3.204 1.437-5.625 1.16.53-3.809-.094-7.492-1.875-11.047 1.777-.559 3.652-.754 5.625-.578Zm0 0"/><path style="stroke:none;fill-rule:evenodd;fill:#111213;fill-opacity:1" d="M368.438 158.723c1.867-.102 3.43.285 4.687 1.16 2.457 3.492 2.766 6.98.938 10.465-3.606-3.512-5.481-7.387-5.625-11.625Zm0 0"/><path style="stroke:none;fill-rule:evenodd;fill:#717e90;fill-opacity:1" d="M353.438 155.234c10.28-.023 13.406 2.883 9.375 8.72-13.372 1.41-16.497-1.5-9.375-8.72Zm0 0"/><path style="stroke:none;fill-rule:evenodd;fill:#161719;fill-opacity:1" d="M342.188 155.234v-2.328c2.156-2.445 4.656-4.77 7.5-6.976l1.875 1.746c-2.227 3.168-3.473 6.46-3.75 9.883-3.149.25-5.024-.528-5.625-2.325Zm0 0"/><path style="stroke:none;fill-rule:evenodd;fill:#1d1f21;fill-opacity:1" d="M280.313 144.766c1.546 3.797 2.171 7.675 1.875 11.629h-5.625c.074-3.93-.551-7.805-1.875-11.63h5.625Zm0 0"/><path style="stroke:none;fill-rule:evenodd;fill:#18191a;fill-opacity:1" d="M357.188 142.441c6.402 1.692 10.152 4.79 11.25 9.305-.625.774-1.25 1.547-1.875 2.324-4.114-3.55-7.239-7.425-9.375-11.629Zm0 0"/><path style="stroke:none;fill-rule:evenodd;fill:#6d7a8b;fill-opacity:1" d="M272.813 128.488c-.465 4 .16 7.875 1.875 11.63-3.872-.02-7.622-.407-11.25-1.165-.243-1.996-.868-3.933-1.875-5.812 3.035-2.114 6.785-3.664 11.25-4.653Zm0 0"/><path style="stroke:none;fill-rule:evenodd;fill:#17181a;fill-opacity:1" d="M272.813 128.488h3.75c1.664 2.969 2.289 6.07 1.875 9.301 0 1.55-1.25 2.328-3.75 2.328-1.715-3.754-2.34-7.629-1.875-11.629Zm0 0"/><path style="stroke:none;fill-rule:evenodd;fill:#c2d0e2;fill-opacity:1" d="M257.813 145.93c-1.618 3.343-4.122 6.445-7.5 9.304 1.19 3.828 4.94 5.38 11.25 4.649a1453.296 1453.296 0 0 1 20.625 89.535c-2.004 1.086-4.5 1.477-7.5 1.164-.774-2.781-2.024-5.492-3.75-8.14-1.743 1.382-2.368 2.933-1.875 4.652a112.468 112.468 0 0 1-3.75-10.465h5.625c.074-3.934-.551-7.809-1.875-11.629h-5.625c-1.375-1.406-2-2.953-1.875-4.652h5.625c-1.325-3.82-1.95-7.696-1.875-11.625-3.149-.25-5.024.523-5.625 2.324a189.856 189.856 0 0 1-9.375-12.211c-3.743-.711-6.868-.129-9.375 1.746 1.593-2.95 3.468-5.855 5.625-8.723-.133-.886-.754-1.468-1.875-1.742 1.542-5.629-2.208-8.34-11.25-8.14 1.898-5.016-1.227-7.727-9.375-8.141a660.965 660.965 0 0 0 14.062-34.883c2.45-4.59 5.887-8.851 10.313-12.789 5.16 6.215 8.289 12.805 9.375 19.766Zm0 0"/><path style="stroke:none;fill-rule:evenodd;fill:#171819;fill-opacity:1" d="M252.188 191.277c5.925 2.817 9.05 6.692 9.375 11.63h-5.625a64.278 64.278 0 0 1-3.75-11.63Zm0 0"/><path style="stroke:none;fill-rule:evenodd;fill:#c2cfe1;fill-opacity:1" d="M492.188 198.254c-.114-.629-.739-1.016-1.875-1.16-1.743 1.383-2.368 2.933-1.875 4.652-2.168-3.226-3.422-6.715-3.75-10.469h5.625a57.065 57.065 0 0 1-1.875-11.625c-3.149-.25-5.024.524-5.625 2.325a39.484 39.484 0 0 1-3.75-6.977h5.625l-1.875-11.629h-5.625v3.488a27.277 27.277 0 0 1-3.75-8.136h5.625c-.403-4.38-2.907-8.258-7.5-11.63-1.516.356-2.766.938-3.75 1.743 2.652 2.32 4.527 4.84 5.625 7.559a971.38 971.38 0 0 1-7.5-3.489c-1.282.422-2.532.809-3.75 1.164 2.43-2.175 2.113-4.113-.938-5.816-3.902 3.476-6.094 7.351-6.563 11.629h5.625a39.484 39.484 0 0 1-3.75 6.976c-2.714-1.609-4.59-1.222-5.625 1.164h-9.375a685.575 685.575 0 0 1 13.125-55.812c7.477-.18 10.29-2.504 8.438-6.977-1.531-1.539-3.719-2.316-6.563-2.328-.304-2.355.008-4.683.938-6.976a190.52 190.52 0 0 0 9.375-15.118c10.102 14.958 14.79 30.461 14.063 46.512 3.414 2.723 5.601 5.824 6.562 9.305 5.316 20.55 10.629 41.094 15.938 61.625h-11.25Zm0 0"/><path style="stroke:none;fill-rule:evenodd;fill:#131415;fill-opacity:1" d="M462.188 154.07c-1.5 1.793-2.125 3.73-1.875 5.813h-5.625c.468-4.278 2.66-8.153 6.562-11.63 3.05 1.704 3.367 3.642.938 5.817Zm0 0"/><path style="stroke:none;fill-rule:evenodd;fill:#17181a;fill-opacity:1" d="M473.438 158.723v-2.328c-1.098-2.72-2.973-5.239-5.625-7.56.984-.804 2.234-1.386 3.75-1.741 4.593 3.37 7.097 7.25 7.5 11.629h-5.625Zm0 0"/><path style="stroke:none;fill-rule:evenodd;fill:#717d8f;fill-opacity:1" d="M456.563 102.906c2.843.012 5.03.79 6.562 2.328 1.852 4.473-.96 6.797-8.438 6.977.141-3.148.766-6.25 1.875-9.305Zm0 0"/><path style="stroke:none;fill-rule:evenodd;fill:#6c7a8d;fill-opacity:1" d="M282.188 249.418c1.832 3.242 2.457 6.73 1.875 10.465h-7.5c0-.774-.625-1.16-1.875-1.16-1.375-1.407-2-2.957-1.875-4.653 1.695-.824 2.32-1.988 1.875-3.488 3 .313 5.496-.078 7.5-1.164Zm0 0"/><path style="stroke:none;fill-rule:evenodd;fill:#151617;fill-opacity:1" d="M150.938 255.234h1.875a46.49 46.49 0 0 0-3.75 8.137c-.106 1.29-.731 2.453-1.875 3.488-2.586-.535-3.836-1.699-3.75-3.488a276.18 276.18 0 0 0 1.875-4.648c1.125-1.63 3-2.793 5.625-3.489Zm0 0"/><path style="stroke:none;fill-rule:evenodd;fill:#191a1c;fill-opacity:1" d="M209.063 255.234c2.203-.257 4.078.13 5.625 1.16-1.704 3.946-5.141 7.047-10.313 9.305-.938-.39-1.875-.777-2.813-1.164 3.512-2.8 6.008-5.902 7.5-9.3Zm0 0"/><path style="stroke:none;fill-rule:evenodd;fill:#fdfdfe;fill-opacity:1" d="M435.938 257.559a762.188 762.188 0 0 1 1.875 75.582c-6.586.644-12.211-.133-16.875-2.329v-6.976c3.968-9.004 6.468-18.305 7.5-27.906v-2.325a52.467 52.467 0 0 0 3.75-15.117v-6.976a42.083 42.083 0 0 0 3.75-12.79v-1.163Zm0 0"/><path style="stroke:none;fill-rule:evenodd;fill:#060708;fill-opacity:1" d="M274.688 258.723c1.25 0 1.875.386 1.875 1.16-.106 2.773.519 5.488 1.875 8.14-.625.778-1.25 1.551-1.875 2.325a54.723 54.723 0 0 0-3.75-2.325c-.575-3.355.05-6.457 1.875-9.3Zm0 0"/><path style="stroke:none;fill-rule:evenodd;fill:#727f92;fill-opacity:1" d="M327.188 261.047c-.75 4.082-2 7.957-3.75 11.629-3.141-1.969-5.641-4.297-7.5-6.977 1.19-3.832 4.94-5.383 11.25-4.652Zm0 0"/><path style="stroke:none;fill-rule:evenodd;fill:#101012;fill-opacity:1" d="M507.188 264.535h5.625c-.075 3.93.55 7.809 1.875 11.63h-5.625a57.059 57.059 0 0 0-1.875-11.63Zm0 0"/><path style="stroke:none;fill-rule:evenodd;fill:#f9f9f9;fill-opacity:1" d="M149.063 263.371c1.87 23.442 2.496 47.086 1.875 70.93h-20.625v-8.137c.03-2.402.656-4.726 1.875-6.976-.125-1.7.5-3.247 1.875-4.653l1.875-9.3c1.816-2.454 2.44-5.165 1.875-8.141 1.75-3.672 3-7.547 3.75-11.63v-4.651a56.754 56.754 0 0 0 5.625-11.625v-2.329c1.144-1.035 1.769-2.199 1.875-3.488Zm0 0"/><path style="stroke:none;fill-rule:evenodd;fill:#141617;fill-opacity:1" d="M432.188 271.512v6.976h-5.625c-.45-3.582.175-7.07 1.875-10.465.625-.386 1.25-.777 1.875-1.164 1.742 1.383 2.367 2.934 1.875 4.653Zm0 0"/><path style="stroke:none;fill-rule:evenodd;fill:#151618;fill-opacity:1" d="M57.188 275c.074 1.258.699 2.422 1.874 3.488-1.546 1.032-3.421 1.418-5.624 1.164-.72-3.664-3.22-6.765-7.5-9.304.578-.938 1.515-1.715 2.812-2.325 4.055 1.907 6.867 4.235 8.438 6.977Zm0 0"/><path style="stroke:none;fill-rule:evenodd;fill:#131415;fill-opacity:1" d="M147.188 269.188a56.754 56.754 0 0 1-5.625 11.625c-2.125-2.868-2.438-5.97-.938-9.301 1.332-1.711 3.52-2.489 6.563-2.325Zm0 0"/><path style="stroke:none;fill-rule:evenodd;fill:#1a1b1d;fill-opacity:1" d="M36.563 271.512c2.804-.098 4.68.675 5.624 2.324-3.351 2.742-5.226 5.844-5.624 9.305h-5.626c1.125-4.028 3-7.903 5.625-11.63Zm0 0"/><path style="stroke:none;fill-rule:evenodd;fill:#161719;fill-opacity:1" d="M364.688 285.465c-.918-1.738-2.165-3.29-3.75-4.652-.79-1.852-2.036-3.598-3.75-5.231l1.875-1.746c4.16 1.656 6.972 3.984 8.437 6.976 1.45 2.157.512 3.708-2.813 4.653Zm0 0"/><path style="stroke:none;fill-rule:evenodd;fill:#717e90;fill-opacity:1" d="M57.188 275c3.687-.277 7.124.11 10.312 1.164 1.84 3.809.277 6.906-4.688 9.3-2.16-1.308-4.035-1.308-5.624 0-2.637-.55-3.887-1.71-3.75-3.487v-2.325c2.203.254 4.078-.132 5.624-1.164-1.175-1.066-1.8-2.23-1.874-3.488Zm0 0"/><path style="stroke:none;fill-rule:evenodd;fill:#18191a;fill-opacity:1" d="M274.688 276.164c3.046-.164 5.23.613 6.562 2.324.934 3.078 1.246 6.18.938 9.301h-5.625c.464-3.996-.16-7.871-1.875-11.625Zm0 0"/><path style="stroke:none;fill-rule:evenodd;fill:#232c3b;fill-opacity:1" d="M411.563 269.188c-.465 3.898-2.34 7.386-5.625 10.464.464-3.902 2.34-7.39 5.625-10.464Zm0 0"/><path style="stroke:none;fill-rule:evenodd;fill:#17181a;fill-opacity:1" d="M347.813 287.79h-5.625c.664-4.337 3.164-8.212 7.5-11.626 1.515.356 2.765.938 3.75 1.742-3.18 3.008-5.055 6.305-5.625 9.883Zm0 0"/><path style="stroke:none;fill-rule:evenodd;fill:#748193;fill-opacity:1" d="M102.188 277.324c10.757 1.028 13.257 4.32 7.5 9.887-13.418-.168-15.918-3.465-7.5-9.887Zm0 0"/><path style="stroke:none;fill-rule:evenodd;fill:#111213;fill-opacity:1" d="M512.813 280.813c1.867-.098 3.43.289 4.687 1.164 2.855 3.476 3.793 6.964 2.813 10.464-4.301-3.328-6.797-7.207-7.5-11.628Zm0 0"/><path style="stroke:none;fill-rule:evenodd;fill:#1d1e20;fill-opacity:1" d="M552.188 280.813c4.218-.372 7.968.21 11.25 1.746-5.59 1.062-10.59 2.808-15 5.23-1.875-.387-3.125-1.16-3.75-2.324 3.164-1.188 5.664-2.738 7.5-4.652Zm0 0"/><path style="stroke:none;fill-rule:evenodd;fill:#707d8f;fill-opacity:1" d="M574.688 292.441c-1.442-.886-2.38-2.05-2.813-3.488-1.258-.875-2.82-1.262-4.688-1.164 2.887-5.914 8.204-7.078 15.938-3.488 2.766 5.05-.047 7.765-8.438 8.14Zm0 0"/><path style="stroke:none;fill-rule:evenodd;fill:#111214;fill-opacity:1" d="M62.813 285.465a70.893 70.893 0 0 1 3.75 10.465h-5.626c-.48-3.602-1.73-7.09-3.75-10.465 1.59-1.309 3.465-1.309 5.626 0Zm0 0"/><path style="stroke:none;fill-rule:evenodd;fill:#1a1b1d;fill-opacity:1" d="M428.438 293.605v2.325h-5.625c-.532-3.809.093-7.493 1.875-11.047.625-.192 1.25-.387 1.875-.582 1.835 3.008 2.46 6.11 1.875 9.304Zm0 0"/><path style="stroke:none;fill-rule:evenodd;fill:#161718;fill-opacity:1" d="M141.563 285.465c-.75 4.082-2 7.957-3.75 11.629-2.239-.547-3.489-1.711-3.75-3.489a38.287 38.287 0 0 0 1.875-8.14h5.625Zm0 0"/><path style="stroke:none;fill-rule:evenodd;fill:#738092;fill-opacity:1" d="M-.938 294.766v-5.813c7.446-3.691 12.446-2.723 15 2.906-2.554 5.633-7.554 6.602-15 2.907Zm0 0"/><path style="stroke:none;fill-rule:evenodd;fill:#111314;fill-opacity:1" d="M567.188 287.79c1.867-.099 3.43.288 4.687 1.163.434 1.438 1.371 2.602 2.813 3.488 1.007 1.88 1.632 3.82 1.875 5.813h-5.625c-.196-2.559-1.446-4.887-3.75-6.977-1.157-1.507-1.157-2.672 0-3.488Zm0 0"/><path style="stroke:none;fill-rule:evenodd;fill:#131415;fill-opacity:1" d="M27.188 287.79c1.87-.036 3.12.546 3.75 1.745-1.278 3.77-3.778 7.063-7.5 9.883-1.172-4.043.078-7.918 3.75-11.629Zm0 0"/><path style="stroke:none;fill-rule:evenodd;fill:#1b1c1e;fill-opacity:1" d="M372.188 301.746a70.719 70.719 0 0 1-3.75-9.305c-.41-1.367.214-2.527 1.875-3.488a52.84 52.84 0 0 1 4.687 5.813c1.766 2.894.828 5.222-2.813 6.98Zm0 0"/><path style="stroke:none;fill-rule:evenodd;fill:#161719;fill-opacity:1" d="M537.188 290.117c6.617.617 7.242 2.164 1.875 4.649-3.274 2.738-7.649 3.902-13.125 3.488v-3.488c5.69.18 9.44-1.371 11.25-4.649Zm0 0"/><path style="stroke:none;fill-rule:evenodd;fill:#1e1f22;fill-opacity:1" d="M278.438 292.441h5.625c1.324 3.82 1.949 7.696 1.875 11.63h-5.625l-1.875-11.63Zm0 0"/><path style="stroke:none;fill-rule:evenodd;fill:#1d1f22;fill-opacity:1" d="M344.063 298.254c-1.579 2.187-2.204 4.512-1.875 6.98h-5.625c.218-3.91.843-7.785 1.875-11.629h5.625v4.649Zm0 0"/><path style="stroke:none;fill-rule:evenodd;fill:#6f7c90;fill-opacity:1" d="M83.438 299.418c2.378 2.797 3.628 5.898 3.75 9.305-4.168.37-7.606-.403-10.313-2.328-2.61-4.325-.422-6.649 6.563-6.977Zm0 0"/><path style="stroke:none;fill-rule:evenodd;fill:#111213;fill-opacity:1" d="M420.938 300.582c2.238.547 3.488 1.707 3.75 3.488-.375 2.875-1.63 5.586-3.75 8.14-2.344-3.925-2.344-7.8 0-11.628Zm0 0"/><path style="stroke:none;fill-rule:evenodd;fill:#121213;fill-opacity:1" d="M66.563 312.21a39.361 39.361 0 0 1-1.876-8.14c-.41-1.367.215-2.53 1.876-3.488 2.578 3.328 4.453 6.816 5.624 10.465-1.546 1.031-3.421 1.418-5.624 1.164Zm0 0"/><path style="stroke:none;fill-rule:evenodd;fill:#202124;fill-opacity:1" d="m135.938 305.234-1.875 9.301h-5.625c.328-3.922 1.265-7.8 2.812-11.629 3.398-1.289 4.96-.511 4.688 2.328Zm0 0"/><path style="stroke:none;fill-rule:evenodd;fill:#717e90;fill-opacity:1" d="M599.063 301.746v10.465c-2.844-.016-5.032-.79-6.563-2.328-2.46-4.309-.273-7.02 6.563-8.137Zm0 0"/><path style="stroke:none;fill-rule:evenodd;fill:#18191b;fill-opacity:1" d="M17.813 304.07c4.039 4.133 2.476 8.012-4.688 11.63-1.297-.614-2.234-1.387-2.813-2.329l7.5-9.3Zm0 0"/><path style="stroke:none;fill-rule:evenodd;fill:#202124;fill-opacity:1" d="M574.688 302.906c2.203-.254 4.078.133 5.625 1.164a46.61 46.61 0 0 1 3.75 8.14c-.704 2.677-2.579 3.067-5.625 1.161a70.734 70.734 0 0 1-3.75-10.465Zm0 0"/><path style="stroke:none;fill-rule:evenodd;fill:#1c1d1f;fill-opacity:1" d="M-.938 302.906c2.415 2.996 4.915 6.094 7.5 9.305-2.558 3.05-5.058 3.05-7.5 0v-9.305Zm0 0"/><path style="stroke:none;fill-rule:evenodd;fill:#748092;fill-opacity:1" d="M383.438 313.371a25.838 25.838 0 0 1-3.75-5.812c3.238-1.024 6.675-1.797 10.312-2.325 3.207-.074 5.707.704 7.5 2.325.813 6.64-3.875 8.578-14.063 5.812Zm0 0"/><path style="stroke:none;fill-rule:evenodd;fill:#151618;fill-opacity:1" d="M374.063 306.395c2.421-.274 4.296.113 5.625 1.164a25.838 25.838 0 0 0 3.75 5.812c.644 2.309-.61 3.86-3.75 4.652a981.124 981.124 0 0 1-5.625-11.628Zm0 0"/><path style="stroke:none;fill-rule:evenodd;fill:#121314;fill-opacity:1" d="M282.188 309.883h5.625a57.145 57.145 0 0 1 1.875 11.629h-5.625c.296-3.957-.329-7.832-1.875-11.63Zm0 0"/><path style="stroke:none;fill-rule:evenodd;fill:#17181a;fill-opacity:1" d="M338.438 312.21c-1.11 3.056-1.735 6.153-1.875 9.302h-5.625a57.102 57.102 0 0 0 1.875-11.63c3.148-.25 5.023.528 5.625 2.329Zm0 0"/><path style="stroke:none;fill-rule:evenodd;fill:#191d24;fill-opacity:1" d="M104.063 314.535c-1.02-.07-1.645-.457-1.876-1.164 3.352-2.742 5.227-5.844 5.626-9.3 1.156-.13 2.093-.516 2.812-1.165.23 4.418-1.957 8.293-6.563 11.63Zm0 0"/><path style="stroke:none;fill-rule:evenodd;fill:#17181a;fill-opacity:1" d="M74.063 329.652a39.484 39.484 0 0 1-3.75-6.976c-.493-1.719.132-3.27 1.874-4.653 1.098.243 2.036.633 2.813 1.164a103.366 103.366 0 0 0 2.813 8.137c-.465 1.41-1.715 2.188-3.75 2.328Zm0 0"/><path style="stroke:none;fill-rule:evenodd;fill:#151617;fill-opacity:1" d="M420.938 323.836c-1.508 1.965-3.383 3.902-5.625 5.816-.891-3.77-.891-7.644 0-11.629h5.625v5.813Zm0 0"/><path style="stroke:none;fill-rule:evenodd;fill:#161819;fill-opacity:1" d="M132.188 319.188c-1.22 2.25-1.844 4.574-1.875 6.976-1.754 1.242-2.38 2.79-1.875 4.649h-5.625l3.75-11.625h5.624Zm0 0"/><path style="stroke:none;fill-rule:evenodd;fill:#191a1c;fill-opacity:1" d="M582.188 320.348c3.046-.16 5.23.613 6.562 2.328 2.023 2.98 2.96 6.078 2.813 9.3h-5.625c-.075-4.054-1.325-7.93-3.75-11.628Zm0 0"/><path style="stroke:none;fill-rule:evenodd;fill:#151618;fill-opacity:1" d="M385.313 334.3c-.375-3.636-1.625-7.124-3.75-10.464 1.328-1.05 3.203-1.438 5.625-1.16 1.64 3.824 2.89 7.699 3.75 11.625h-5.625Zm0 0"/><path style="stroke:none;fill-rule:evenodd;fill:#191b1c;fill-opacity:1" d="M285.938 328.488v-1.164c6.14.606 8.64 2.93 7.5 6.977-.16 2.133-1.41 3.683-3.75 4.652h-1.875c.582-3.734-.043-7.223-1.875-10.465Zm0 0"/><path style="stroke:none;fill-rule:evenodd;fill:#0f1011;fill-opacity:1" d="M327.188 326.164c2.804-.101 4.68.676 5.625 2.324-.95 3.364-2.825 6.461-5.625 9.301-.891-3.766-.891-7.64 0-11.625Zm0 0"/><path style="stroke:none;fill-rule:evenodd;fill:#101112;fill-opacity:1" d="M77.813 345.93a39.304 39.304 0 0 1-1.876-8.14c-.41-1.364.215-2.528 1.876-3.49 2.578 3.333 4.453 6.821 5.624 10.466-1.546 1.03-3.421 1.418-5.624 1.164Zm0 0"/><path style="stroke:none;fill-rule:evenodd;fill:#e5e5e5;fill-opacity:1" d="M158.438 247.094v86.047h127.5v-4.653c1.832 3.242 2.457 6.73 1.875 10.465H158.438v60.465h-7.5v-60.465h-22.5c-.125-1.695.5-3.246 1.875-4.652h20.625c.62-23.844-.004-47.488-1.875-70.93a46.49 46.49 0 0 1 3.75-8.137c-.204-2.343 1.046-4.28 3.75-5.816-.32-1.152.304-1.926 1.875-2.324Zm0 0"/><path style="stroke:none;fill-rule:evenodd;fill:#161718;fill-opacity:1" d="M409.688 334.3h5.625c-.704 4.423-3.2 8.302-7.5 11.63l-1.875-2.325c1.644-3.058 2.898-6.16 3.75-9.304Zm0 0"/><path style="stroke:none;fill-rule:evenodd;fill:#17181a;fill-opacity:1" d="M126.563 338.953c-1.579 2.184-2.204 4.512-1.876 6.977-3.406 1.836-5.28 1.254-5.624-1.743 1.238-2.863 1.863-5.769 1.874-8.722h5.626v3.488Zm0 0"/><path style="stroke:none;fill-rule:evenodd;fill:#151618;fill-opacity:1" d="M599.063 343.605v4.649h-5.625c.503-1.856-.125-3.406-1.875-4.649.503-1.859-.125-3.41-1.875-4.652.601-1.8 2.476-2.574 5.625-2.324.18 2.656 1.43 4.984 3.75 6.976Zm0 0"/><path style="stroke:none;fill-rule:evenodd;fill:#7e8896;fill-opacity:1" d="M299.063 330.813c10.28-.02 13.406 2.886 9.375 8.722-13.372 1.406-16.497-1.5-9.375-8.723Zm0 0"/><path style="stroke:none;fill-rule:evenodd;fill:#fdfdfd;fill-opacity:1" d="M53.438 281.977c-.137 1.777 1.113 2.937 3.75 3.488 2.019 3.375 3.269 6.863 3.75 10.465a57.827 57.827 0 0 0 3.75 8.14 39.361 39.361 0 0 0 1.874 8.14 113.283 113.283 0 0 0 3.75 10.466 39.484 39.484 0 0 0 3.75 6.976c-.566 2.973.06 5.688 1.876 8.137.328 2.746.953 5.461 1.874 8.14a55.326 55.326 0 0 0 3.75 10.466l1.876 6.976c2.832 8.574 6.269 17.102 10.312 25.582 1.445 4.406 5.508 6.54 12.188 6.395 4.535-4.946 7.972-10.176 10.312-15.696 3.625-11.168 6.438-22.41 8.438-33.722-.329-2.465.296-4.793 1.874-6.977h24.376v60.465H-.938v-79.07a38.47 38.47 0 0 1 5.625 5.234c3.023.836 5.835.645 8.437-.582a1187.21 1187.21 0 0 0 28.125-41.86c3.504-3.933 7.566-4.32 12.188-1.163Zm0 0"/><path style="stroke:none;fill-rule:evenodd;fill:#fefefe;fill-opacity:1" d="M360.938 280.813c1.585 1.363 2.832 2.914 3.75 4.652.703 2.555 1.953 4.883 3.75 6.976a70.719 70.719 0 0 0 3.75 9.305c1.375 1.402 2 2.953 1.875 4.649 1.894 3.98 3.769 7.859 5.625 11.628-.532 2.227.093 4.164 1.875 5.813 2.125 3.34 3.375 6.828 3.75 10.465 1.972 7.09 4.785 14.066 8.437 20.933 1.902 3.149 4.715 5.864 8.438 8.137 2.464-.945 4.652-2.105 6.562-3.488 3.7-6.461 6.512-13.047 8.438-19.766 6.683-1.074 13.558-1.46 20.625-1.164v60.465H158.438v-60.465h131.25c-.567 2.977.058 5.692 1.875 8.14.328 2.747.949 5.458 1.875 8.141.242 1.993.867 3.934 1.875 5.813v1.164c1.734 6.906 5.171 13.496 10.312 19.766 3.633 1.582 6.758 1.195 9.375-1.164 9.938-19.372 17.125-39.141 21.563-59.301.14-3.149.765-6.246 1.875-9.301 2.32-1.996 3.57-4.32 3.75-6.977-.329-2.468.296-4.793 1.875-6.98 2.167-3.223 3.421-6.711 3.75-10.465 2.296-1.668 4.171-3.61 5.625-5.812 2.23-1.079 4.73-1.47 7.5-1.164ZM587.813 338.953h1.875c1.75 1.242 2.378 2.793 1.875 4.652 1.074 6.922 3.574 13.512 7.5 19.766v36.047H447.188v-60.465h140.625Zm0 0"/><path style="stroke:none;fill-rule:evenodd;fill:#141517;fill-opacity:1" d="M389.063 338.953c2.203-.254 4.078.133 5.625 1.164.945 3.125 3.445 5.645 7.5 7.559-3.07 2.265-5.883 2.074-8.438-.582-2.129-2.61-3.695-5.32-4.688-8.14Zm0 0"/><path style="stroke:none;fill-rule:evenodd;fill:#748192;fill-opacity:1" d="M87.188 355.234c-1.754-1.242-2.38-2.793-1.876-4.652-.05-2.422 1.2-4.555 3.75-6.394 6.903-1.532 11.278-.172 13.126 4.066-2.376 4.531-7.063 5.695-14.063 3.492-.906 1.102-1.219 2.262-.938 3.488Zm0 0"/><path style="stroke:none;fill-rule:evenodd;fill:#0f1012;fill-opacity:1" d="M293.438 355.234a39.112 39.112 0 0 1-1.875-8.14c-.41-1.367.214-2.531 1.875-3.489 2.578 3.329 4.453 6.817 5.625 10.465-1.547 1.032-3.422 1.418-5.625 1.164Zm0 0"/><path style="stroke:none;fill-rule:evenodd;fill:#1c1e1f;fill-opacity:1" d="M321.563 343.605c2.203-.253 4.078.133 5.625 1.16l-3.75 9.305c-1.547 1.032-3.422 1.418-5.625 1.164l3.75-11.629Zm0 0"/><path style="stroke:none;fill-rule:evenodd;fill:#aab8cc;fill-opacity:1" d="M591.563 343.605c1.75 1.243 2.378 2.793 1.875 4.649h5.625v15.117c-3.926-6.254-6.426-12.844-7.5-19.766Zm0 0"/><path style="stroke:none;fill-rule:evenodd;fill:#1c1e20;fill-opacity:1" d="M85.313 350.582c-.504 1.86.12 3.41 1.874 4.652a39.326 39.326 0 0 0 1.876 8.137h-5.626c-.624-2.324-1.25-4.648-1.874-6.976-.793-2.653.457-4.59 3.75-5.813Zm0 0"/><path style="stroke:none;fill-rule:evenodd;fill:#1a1c1d;fill-opacity:1" d="M115.313 352.906h5.624c-.812 3.102-1.75 6.2-2.812 9.305-1.332 1.71-3.52 2.488-6.563 2.324l3.75-11.629Zm0 0"/><path style="stroke:none;fill-rule:evenodd;fill:#151618;fill-opacity:1" d="M315.938 359.883c2.203-.254 4.078.133 5.625 1.164-2.286 3.683-5.098 7.172-8.438 10.465-1.297-.61-2.234-1.387-2.813-2.325 1.899-3.128 3.774-6.226 5.625-9.304Zm0 0"/><path style="stroke:none;fill-rule:evenodd;fill:#141516;fill-opacity:1" d="M295.313 362.21v-1.163c2.48-.2 4.667.187 6.562 1.164a81.468 81.468 0 0 0 4.688 8.137c-.579.941-1.516 1.714-2.813 2.328-2.867-3.563-5.68-7.051-8.438-10.465Zm0 0"/><path style="stroke:none;fill-rule:evenodd;fill:#131415;fill-opacity:1" d="M87.188 368.023c2.203-.253 4.078.133 5.624 1.164 1.508 2.81 3.383 5.52 5.626 8.137-.938.387-1.876.778-2.813 1.164-4.766-2.84-7.578-6.328-8.438-10.465Zm0 0"/><path style="stroke:none;fill-rule:evenodd;fill:#141517;fill-opacity:1" d="M109.688 369.188c3.628 4.05 2.066 7.925-4.688 11.625-1.297-.61-2.234-1.383-2.813-2.325 2.86-2.992 5.36-6.093 7.5-9.3Zm0 0"/></svg>