<svg xmlns="http://www.w3.org/2000/svg" width="600" height="400"><path style="stroke:none;fill-rule:evenodd;fill:#fdfdfd;fill-opacity:1" d="M-.723-.484h193.735c-.188.847.293 1.496 1.445 1.937 3.344.692 6.477 1.66 9.398 2.906 1-.507 1.723-1.156 2.168-1.937a264.085 264.085 0 0 1-5.78-2.906H347.71c1.098 2.406 2.543 2.406 4.336 0h47.71c-.585 3.761 1.583 6.992 6.509 9.683 1-.508 1.722-1.152 2.168-1.933a543.067 543.067 0 0 1-7.23-7.75h37.593c1.527 2.363 3.453 4.625 5.781 6.78 1.445-.323 2.41-.968 2.89-1.937-2.097-1.394-3.542-3.007-4.335-4.843h33.254c.894 3.84 3.785 5.777 8.672 5.812a178.725 178.725 0 0 1-4.336-5.812h118.554v33.898a187.868 187.868 0 0 1-4.336-3.875c-.484.648-.964 1.293-1.449 1.938 1.133 2.968 3.063 5.55 5.785 7.75V81.84c-1.554-1.028-3-1.028-4.336 0a35.74 35.74 0 0 0 4.336 6.781v50.363c-2.277-1.554-3.242-3.488-2.89-5.812-1.7-.211-3.145.11-4.34.969a71.536 71.536 0 0 0 4.34 8.714c.984-.351 1.949-.671 2.89-.968v83.293c-2.824-1.36-4.27-.715-4.336 1.937.024 3.149 1.47 5.73 4.336 7.75v164.649h-20.242v-7.75H574.7v7.75h-26.023c.25-2.286.73-4.547 1.445-6.782h-4.34v6.782h-27.468v-6.782h-4.336v6.782h-30.364c-.965-9.04-1.925-9.04-2.89 0h-34.7c1.04-2.192 1.524-4.454 1.446-6.782h-4.336v6.782h-39.035c.25-2.286.73-4.547 1.445-6.782h-4.34v6.782h-44.816c-.371-2.22.11-4.32 1.445-6.297-1.371-.465-2.816-.63-4.34-.485-.25 2.29-.73 4.547-1.445 6.782h-54.938a35.044 35.044 0 0 0 1.446-6.782h-4.336c.074 2.329-.406 4.59-1.45 6.782h-82.406c.961-2.258 1.926-4.52 2.89-6.782-4.714.957-7.124 3.215-7.23 6.782H-.723V244.55c3.848-1.559 4.57-3.496 2.168-5.809-.55.54-1.277.86-2.168.969V40.195c4.95-.195 6.157-1.484 3.614-3.875-.97.727-2.172 1.051-3.614.97V-.485Zm0 0"/><path style="stroke:none;fill-rule:evenodd;fill:#222;fill-opacity:1" d="M193.012-.484h7.23c1.828.949 3.758 1.918 5.781 2.906-.445.781-1.168 1.43-2.168 1.937-2.921-1.246-6.054-2.214-9.398-2.906-1.152-.441-1.633-1.09-1.445-1.937Zm0 0"/><path style="stroke:none;fill-rule:evenodd;fill:#181818;fill-opacity:1" d="M289.879.484c4.21 1.516 8.066 3.454 11.566 5.813-.445.781-1.168 1.426-2.168 1.937-4.043-1.738-7.656-3.836-10.843-6.296.804-.372 1.285-.856 1.445-1.454Zm0 0"/><path style="stroke:none;fill-rule:evenodd;fill:#191919;fill-opacity:1" d="M347.71-.484h4.337c-1.793 2.406-3.238 2.406-4.336 0Zm0 0"/><path style="stroke:none;fill-rule:evenodd;fill:#1c1c1c;fill-opacity:1" d="M399.758-.484h1.445a543.067 543.067 0 0 0 7.23 7.75c-.445.78-1.167 1.425-2.167 1.933-4.926-2.691-7.094-5.922-6.508-9.683Zm0 0"/><path style="stroke:none;fill-rule:evenodd;fill:#1e1e1e;fill-opacity:1" d="M438.797-.484h4.336c.793 1.836 2.238 3.449 4.336 4.843-.48.97-1.446 1.614-2.89 1.938-2.329-2.156-4.255-4.418-5.782-6.781ZM476.387-.484h4.336c1.359 1.906 2.804 3.84 4.336 5.812-4.887-.035-7.778-1.973-8.672-5.812Zm0 0"/><path style="stroke:none;fill-rule:evenodd;fill:#151515;fill-opacity:1" d="M513.977.484c3.097 2.196 5.507 4.778 7.226 7.75-.445.782-1.168 1.426-2.168 1.934-3.914-2.926-5.601-6.156-5.058-9.684Zm0 0"/><path style="stroke:none;fill-rule:evenodd;fill:#1f1f1f;fill-opacity:1" d="M545.781 1.453c2.543 1.59 4.711 3.527 6.508 5.813 1.129 1.398.887 2.687-.723 3.87-4.468-2.73-6.398-5.956-5.785-9.683Zm0 0"/><path style="stroke:none;fill-rule:evenodd;fill:#1a1a1a;fill-opacity:1" d="M210.363 4.36c5.328.652 10.149 2.105 14.457 4.355-.906.73-1.629 1.535-2.168 2.422-3.257-1.817-6.87-3.27-10.843-4.356-1.09-.652-1.57-1.457-1.446-2.422Zm0 0"/><path style="stroke:none;fill-rule:evenodd;fill:#1e1e1e;fill-opacity:1" d="M353.492 4.36c5.574.816 9.426 3.077 11.567 6.777-.446.785-1.168 1.43-2.168 1.937-3.485-2.804-6.618-5.71-9.399-8.715Zm0 0"/><path style="stroke:none;fill-rule:evenodd;fill:#171717;fill-opacity:1" d="M576.145 3.39c3.16 1.282 5.328 3.22 6.507 5.81 1.13 1.398.887 2.69-.726 3.874-3.75-3.035-5.676-6.265-5.781-9.683Zm0 0"/><path style="stroke:none;fill-rule:evenodd;fill:#1e1e1e;fill-opacity:1" d="M448.914 9.2c4.672 1.675 8.043 4.26 10.121 7.75-1.664 1.19-3.348 1.19-5.058 0-2.141-2.528-3.829-5.11-5.063-7.75Zm0 0"/><path style="stroke:none;fill-rule:evenodd;fill:#191919;fill-opacity:1" d="M304.336 10.168c5.25 1.074 9.59 3.172 13.012 6.297-1.118 1.191-2.567 1.512-4.336.969-3.785-2.04-6.676-4.461-8.676-7.266Zm0 0"/><path style="stroke:none;fill-rule:evenodd;fill:#1d1d1d;fill-opacity:1" d="M486.508 9.2c3.722 2.206 6.613 4.952 8.672 8.234-.48.484-.965.968-1.446 1.453-4.707-2.434-7.117-5.66-7.226-9.688Zm0 0"/><path style="stroke:none;fill-rule:evenodd;fill:#1a1a1a;fill-opacity:1" d="M229.156 11.137c5.106 1.16 9.442 3.097 13.012 5.812-1.25 1.047-2.695 1.211-4.336.485-4.273-1.403-7.164-3.5-8.676-6.297Zm0 0"/><path style="stroke:none;fill-rule:evenodd;fill:#222;fill-opacity:1" d="M411.324 11.137c4.184 2.164 7.559 4.906 10.121 8.234-.757.672-1.722 1.152-2.89 1.453a130.17 130.17 0 0 1-8.676-8.234c.805-.371 1.285-.856 1.445-1.453Zm0 0"/><path style="stroke:none;fill-rule:evenodd;fill:#171717;fill-opacity:1" d="M522.652 13.074c1.438-.082 2.645.242 3.614.969 1.687 2.262 3.37 4.52 5.058 6.781-.445.781-1.168 1.426-2.168 1.938-3.36-2.887-5.527-6.117-6.504-9.688Zm0 0"/><path style="stroke:none;fill-rule:evenodd;fill:#1b1b1b;fill-opacity:1" d="M367.953 15.012c6.106 1.629 9.477 4.375 10.121 8.234-1.375.598-2.578.434-3.617-.484-3.117-2.246-5.285-4.828-6.504-7.75Zm0 0"/><path style="stroke:none;fill-rule:evenodd;fill:#181818;fill-opacity:1" d="M555.902 14.043a54.837 54.837 0 0 1 7.23 8.719c-.722.32-1.444.644-2.167.968-4.668-2.671-6.356-5.898-5.063-9.687Zm0 0"/><path style="stroke:none;fill-rule:evenodd;fill:#1d1d1d;fill-opacity:1" d="M586.266 15.98a54.848 54.848 0 0 1 7.226 8.72c-1.664 1.19-3.347 1.19-5.058 0-2.66-2.833-3.383-5.74-2.168-8.72Zm0 0"/><path style="stroke:none;fill-rule:evenodd;fill:#171717;fill-opacity:1" d="M247.953 18.887a88.058 88.058 0 0 1 10.844 4.843c.812 1.184.332 2.153-1.45 2.903-4.038-1.735-7.652-3.832-10.84-6.293.802-.371 1.286-.856 1.446-1.453Zm0 0"/><path style="stroke:none;fill-rule:evenodd;fill:#1a1a1a;fill-opacity:1" d="M320.242 19.855c4.184 1.34 7.797 3.274 10.844 5.81.812 1.187.332 2.155-1.45 2.905-4.663-2.293-7.792-5.199-9.394-8.715Zm0 0"/><path style="stroke:none;fill-rule:evenodd;fill:#1b1b1b;fill-opacity:1" d="M460.48 20.824c4.239 1.754 7.13 4.336 8.676 7.746-.445.785-1.168 1.43-2.168 1.938a117.3 117.3 0 0 0-7.953-8.23c.805-.372 1.285-.856 1.445-1.454Zm0 0"/><path style="stroke:none;fill-rule:evenodd;fill:#191919;fill-opacity:1" d="M498.074 21.793c4.43 2.687 6.356 5.914 5.781 9.684-4.468-2.73-6.398-5.957-5.78-9.684Zm0 0"/><path style="stroke:none;fill-rule:evenodd;fill:#747474;fill-opacity:1" d="M78.797 24.7c2.55-.934 5.441-1.255 8.672-.97.344 1.25-.137 2.22-1.446 2.903-1.52-1.7-3.93-2.344-7.226-1.934Zm0 0"/><path style="stroke:none;fill-rule:evenodd;fill:#1b1b1b;fill-opacity:1" d="M424.336 22.762a113.62 113.62 0 0 1 8.676 8.23c-.758.672-1.723 1.156-2.89 1.453-4.532-2.797-6.458-6.023-5.786-9.683Zm0 0"/><path style="stroke:none;fill-rule:evenodd;fill:#000;fill-opacity:1" d="M78.797 24.7c3.297-.41 5.707.234 7.226 1.933-4.441.308-8.777-.016-13.011-.969 1.718-.898 3.648-1.219 5.785-.965Zm0 0"/><path style="stroke:none;fill-rule:evenodd;fill:#020202;fill-opacity:1" d="M93.254 24.7a55.11 55.11 0 0 1 14.457.964c-2.41.324-4.82.648-7.23.969-3.094-.055-5.5-.7-7.227-1.934Zm0 0"/><path style="stroke:none;fill-rule:evenodd;fill:#151515;fill-opacity:1" d="M52.77 25.664c4.44-.305 8.78.016 13.011.969-4.652 1.816-9.469 2.137-14.457.969a34.98 34.98 0 0 0 1.446-1.938Zm0 0"/><path style="stroke:none;fill-rule:evenodd;fill:#1b1b1b;fill-opacity:1" d="M114.941 24.7c4.778.53 9.598.855 14.457.964v2.906a165.913 165.913 0 0 0-14.457-.968v-2.903Zm0 0"/><path style="stroke:none;fill-rule:evenodd;fill:#4976b1;fill-opacity:1" d="M388.191 30.508v4.844a31.657 31.657 0 0 1-1.445 13.074c-9.625.484-19.266.644-28.914.484-2.477-1.097-3.441-2.715-2.89-4.844a52.104 52.104 0 0 1 1.445-16.949c9.031-.18 17.949-.664 26.746-1.453 3.695.7 5.383 2.313 5.058 4.844Zm0 0"/><path style="stroke:none;fill-rule:evenodd;fill:#1c1c1c;fill-opacity:1" d="M532.77 25.664c3.16 1.285 5.332 3.219 6.507 5.813 1.13 1.398.887 2.691-.722 3.875a98.997 98.997 0 0 1-7.23-8.235c.804-.367 1.284-.851 1.445-1.453Zm0 0"/><path style="stroke:none;fill-rule:evenodd;fill:#232323;fill-opacity:1" d="M135.18 27.602c4.886-.04 9.707.285 14.457.968v2.907a147.737 147.737 0 0 1-13.012-1.454c-1.086-.648-1.566-1.457-1.445-2.421Zm0 0"/><path style="stroke:none;fill-rule:evenodd;fill:#1a1a1a;fill-opacity:1" d="M563.133 27.602c1.441-.082 2.644.242 3.613.968l5.063 6.782c-.485.968-1.446 1.613-2.895 1.937-2.746-3.035-4.676-6.262-5.781-9.687Zm0 0"/><path style="stroke:none;fill-rule:evenodd;fill:#272727;fill-opacity:1" d="M39.758 27.602h4.34c.316 1.14-.168 2.109-1.446 2.906a190.496 190.496 0 0 1-9.398 1.937c-1.852-.11-3.055-.754-3.617-1.937a139.042 139.042 0 0 1 10.12-2.906Zm0 0"/><path style="stroke:none;fill-rule:evenodd;fill:#171717;fill-opacity:1" d="M263.855 27.602c5.274 1.132 9.61 3.23 13.012 6.296-1.12 1.192-2.566 1.512-4.336.97-3.855-2.079-6.746-4.5-8.676-7.266Zm0 0"/><path style="stroke:none;fill-rule:evenodd;fill:#131313;fill-opacity:1" d="M599.277 33.414v5.813c-2.722-2.2-4.652-4.782-5.785-7.75.485-.645.965-1.29 1.45-1.938a187.868 187.868 0 0 0 4.335 3.875Zm0 0"/><path style="stroke:none;fill-rule:evenodd;fill:#161616;fill-opacity:1" d="M156.867 30.508c3.805.8 7.66 1.61 11.567 2.422 1.468 1.015 1.71 2.144.722 3.39a193.59 193.59 0 0 0-10.844-2.906c-1.28-.8-1.761-1.766-1.445-2.906Zm0 0"/><path style="stroke:none;fill-rule:evenodd;fill:#202020;fill-opacity:1" d="M334.7 30.508c2.702.347 4.874 1.316 6.503 2.906 1.137 1.73 2.824 3.184 5.063 4.36-2.368 1.886-4.536 1.726-6.508-.485-1.621-2.059-3.79-3.832-6.504-5.328.805-.371 1.285-.856 1.445-1.453Zm0 0"/><path style="stroke:none;fill-rule:evenodd;fill:#17191b;fill-opacity:1" d="M388.191 30.508c3.504 1.73 3.504 3.344 0 4.844v-4.844Zm0 0"/><path style="stroke:none;fill-rule:evenodd;fill:#171717;fill-opacity:1" d="M20.965 31.477c2.238.312 3.2 1.28 2.89 2.906-4.453.293-8.546 1.262-12.289 2.906-2.152-.894-2.394-1.863-.722-2.906 3.636-.805 7.011-1.774 10.12-2.906Zm0 0"/><path style="stroke:none;fill-rule:evenodd;fill:#1b1b1b;fill-opacity:1" d="M472.047 33.414c3.039 2.594 5.93 5.34 8.676 8.234-1.325.36-2.532.844-3.614 1.45-3.918-2.926-5.601-6.157-5.062-9.684Zm0 0"/><path style="stroke:none;fill-rule:evenodd;fill:#1d1d1d;fill-opacity:1" d="M506.746 34.383c3.899 2.277 6.79 5.183 8.676 8.715-.723.324-1.445.648-2.168.968-3.176-2.464-5.824-5.21-7.953-8.23.804-.371 1.285-.856 1.445-1.453Zm0 0"/><path style="stroke:none;fill-rule:evenodd;fill:#191919;fill-opacity:1" d="M177.11 35.352c5 .867 9.34 2.48 13.011 4.843-.723.32-1.445.645-2.168.97a182.563 182.563 0 0 1-12.289-3.876 43.523 43.523 0 0 0 1.445-1.937Zm0 0"/><path style="stroke:none;fill-rule:evenodd;fill:#1b1b1b;fill-opacity:1" d="M434.457 35.352c1.441-.082 2.645.238 3.617.968 1.078 1.774 2.524 3.387 4.336 4.844 1.012 1.523.527 2.813-1.445 3.871a117.3 117.3 0 0 0-7.953-8.23c.804-.371 1.285-.856 1.445-1.453Zm0 0"/><path style="stroke:none;fill-rule:evenodd;fill:#1c1c1c;fill-opacity:1" d="M-.723 40.195V37.29c1.442.082 2.645-.242 3.614-.969C5.434 38.71 4.227 40-.723 40.195Zm0 0"/><path style="stroke:none;fill-rule:evenodd;fill:#1a1a1a;fill-opacity:1" d="M279.758 37.29c5.25 1.07 9.59 3.17 13.012 6.292-1.118 1.191-2.567 1.516-4.336.969-3.786-2.04-6.676-4.461-8.676-7.262Zm0 0"/><path style="stroke:none;fill-rule:evenodd;fill:#1e1e1e;fill-opacity:1" d="M392.531 38.258c1.91-.164 3.598.156 5.059.969a74.322 74.322 0 0 0 6.508 6.293c-1.5 1.566-3.188 1.726-5.063.484-2.566-2.477-4.738-5.063-6.504-7.746Zm0 0"/><path style="stroke:none;fill-rule:evenodd;fill:#191919;fill-opacity:1" d="M541.445 39.227c1.442-.086 2.645.238 3.614.968l5.062 6.778c-1.664 1.191-3.351 1.191-5.062 0-1.641-2.516-2.844-5.098-3.614-7.746Zm0 0"/><path style="stroke:none;fill-rule:evenodd;fill:#1a1a1a;fill-opacity:1" d="M573.254 40.195c3.2 2.5 5.61 5.407 7.226 8.715-.722.324-1.445.645-2.168.969-4.48-2.715-6.167-5.945-5.058-9.684Zm0 0"/><path style="stroke:none;fill-rule:evenodd;fill:#1b1b1b;fill-opacity:1" d="M195.902 41.164c4.227.77 8.082 2.059 11.567 3.871 1.93.969 1.93 1.938 0 2.906-5.305-1.406-9.16-3.668-11.567-6.777Zm0 0"/><path style="stroke:none;fill-rule:evenodd;fill:#161616;fill-opacity:1" d="M354.941 44.066c-.55 2.13.414 3.746 2.891 4.844-.574.992-1.539 1.156-2.89.485-2.133-2.239-4.544-4.336-7.231-6.297.445-.782 1.168-1.426 2.168-1.934a21.177 21.177 0 0 0 5.062 2.902ZM480.723 46.004c1.441-.082 2.644.242 3.613.969l5.062 6.78c-.445.782-1.168 1.427-2.168 1.938-3.363-2.886-5.53-6.117-6.507-9.687Zm0 0"/><path style="stroke:none;fill-rule:evenodd;fill:#1d1d1d;fill-opacity:1" d="M295.664 46.973c4.184 1.34 7.797 3.277 10.844 5.812.812 1.188.332 2.153-1.45 2.906l-10.84-7.265c.802-.371 1.286-.856 1.446-1.453Zm0 0"/><path style="stroke:none;fill-rule:evenodd;fill:#191919;fill-opacity:1" d="M444.578 47.941c2.195.012 3.879.657 5.059 1.938 1.324 2.098 3.011 4.031 5.062 5.812-1.664 1.192-3.351 1.192-5.062 0-2.102-2.492-3.785-5.074-5.059-7.75ZM515.422 47.941c1.7-.21 3.144.11 4.336.97a38.446 38.446 0 0 1 4.34 6.78c-.723.32-1.446.645-2.172.97-3.117-2.536-5.285-5.442-6.504-8.72Zm0 0"/><path style="stroke:none;fill-rule:evenodd;fill:#1c1c1c;fill-opacity:1" d="M214.7 48.91c5.796.7 9.894 2.637 12.288 5.813-.48.32-.965.644-1.445.968a186.88 186.88 0 0 0-12.29-5.328c.806-.37 1.286-.855 1.446-1.453Zm0 0"/><path style="stroke:none;fill-rule:evenodd;fill:#151515;fill-opacity:1" d="M405.543 49.879c3.07.516 5.238 1.805 6.504 3.875 2.441 6.066.996 6.39-4.336.969-1.457-1.477-2.184-3.094-2.168-4.844Zm0 0"/><path style="stroke:none;fill-rule:evenodd;fill:#1b1b1b;fill-opacity:1" d="M360.723 52.785c6.254 1.637 9.144 4.543 8.675 8.715-2.976-1.71-5.625-3.648-7.953-5.809-.699-.918-.937-1.886-.722-2.906Zm0 0"/><path style="stroke:none;fill-rule:evenodd;fill:#171717;fill-opacity:1" d="M550.121 51.816c1.438-.082 2.645.239 3.613.97.68 1.69 1.645 3.304 2.891 4.843 1.129 1.394.89 2.687-.723 3.871-3.543-2.809-5.472-6.035-5.78-9.684ZM580.48 53.754c1.442-.082 2.645.238 3.618.969.68 1.691 1.644 3.304 2.89 4.84 1.012 1.527.528 2.816-1.445 3.874-2.914-2.933-4.602-6.164-5.063-9.683Zm0 0"/><path style="stroke:none;fill-rule:evenodd;fill:#181818;fill-opacity:1" d="M232.047 56.66c4.86 1.145 9.2 2.922 13.012 5.324-1.118 1.192-2.567 1.516-4.336.97a24897.17 24897.17 0 0 0-10.121-4.84c.804-.372 1.285-.856 1.445-1.454Zm0 0"/><path style="stroke:none;fill-rule:evenodd;fill:#161616;fill-opacity:1" d="M310.121 57.629c3.695 1.008 6.828 2.621 9.399 4.84 1.082 1.101.84 2.07-.723 2.906-4.645-1.805-7.54-4.387-8.676-7.746Zm0 0"/><path style="stroke:none;fill-rule:evenodd;fill:#181818;fill-opacity:1" d="M490.844 58.594c3.16 1.285 5.328 3.218 6.504 5.812 1.132 1.399.89 2.692-.723 3.875-3.75-3.039-5.676-6.265-5.781-9.687Zm0 0"/><path style="stroke:none;fill-rule:evenodd;fill:#141414;fill-opacity:1" d="M454.7 60.531c4.702 1.227 7.593 3.645 8.675 7.266-.484.484-.965.969-1.45 1.453-3.519-2.457-5.929-5.363-7.226-8.719Zm0 0"/><path style="stroke:none;fill-rule:evenodd;fill:#1e1e1e;fill-opacity:1" d="M524.098 60.531c1.699-.21 3.144.114 4.336.969 1.882 2.836 3.328 5.742 4.336 8.719h-4.336l-4.336-9.688Zm0 0"/><path style="stroke:none;fill-rule:evenodd;fill:#1b1b1b;fill-opacity:1" d="M415.664 62.469c1.91-.164 3.598.16 5.059.968 1.32 2.098 3.007 4.036 5.058 5.813-.976 1.793-2.422 2.117-4.336.969-1.965-2.637-3.894-5.219-5.78-7.75Zm0 0"/><path style="stroke:none;fill-rule:evenodd;fill:#191919;fill-opacity:1" d="M249.398 65.375a84.818 84.818 0 0 1 10.844 4.844c.813 1.183.332 2.152-1.445 2.906a158.27 158.27 0 0 1-10.844-6.297c.8-.371 1.285-.855 1.445-1.453Zm0 0"/><path style="stroke:none;fill-rule:evenodd;fill:#181818;fill-opacity:1" d="M373.734 64.406c3.305 1.41 5.954 3.348 7.954 5.813 1.082 1.097.843 2.066-.723 2.906-3.399-2.121-6.29-4.54-8.676-7.266.805-.37 1.285-.855 1.445-1.453Zm0 0"/><path style="stroke:none;fill-rule:evenodd;fill:#1d1d1d;fill-opacity:1" d="M557.348 65.375c3.687.059 5.855 1.352 6.507 3.875a23.38 23.38 0 0 0 2.168 3.875c-.48.969-1.445 1.613-2.89 1.934a75.959 75.959 0 0 1-5.785-9.684Zm0 0"/><path style="stroke:none;fill-rule:evenodd;fill:#131313;fill-opacity:1" d="M587.71 67.313c2.763.07 4.45 1.039 5.06 2.906 2.359 2.383 2.359 4.64 0 6.777-2.13-3.152-3.817-6.379-5.06-9.683Zm0 0"/><path style="stroke:none;fill-rule:evenodd;fill:#1a1a1a;fill-opacity:1" d="M324.578 68.281c3.985 1.867 7.36 4.29 10.121 7.262-.758.672-1.722 1.156-2.89 1.453a75.445 75.445 0 0 1-8.676-7.262c.805-.37 1.285-.855 1.445-1.453ZM87.469 70.219h14.457v2.906H87.469v-2.906Zm0 0"/><path style="stroke:none;fill-rule:evenodd;fill:#1b1b1b;fill-opacity:1" d="M68.676 70.219h11.566v2.906c-4.453-.234-8.789.09-13.012.969-.484-.485-.964-.969-1.449-1.453.805-.98 1.77-1.79 2.895-2.422Zm0 0"/><path style="stroke:none;fill-rule:evenodd;fill:#2b2b2b;fill-opacity:1" d="M107.71 70.219a105.9 105.9 0 0 0 15.903.969v2.906c-4.363.156-8.699-.004-13.011-.485-2.13-.687-3.094-1.82-2.891-3.39Zm0 0"/><path style="stroke:none;fill-rule:evenodd;fill:#141414;fill-opacity:1" d="M499.52 72.156c1.437-.086 2.644.239 3.613.969a46.503 46.503 0 0 0 5.058 7.262c-1.855.664-3.543.5-5.058-.485-1.645-2.515-2.848-5.097-3.613-7.746Zm0 0"/><path style="stroke:none;fill-rule:evenodd;fill:#212121;fill-opacity:1" d="M54.219 72.156H60v2.903c-4.66-.286-9 .359-13.012 1.937-1.566-.836-1.808-1.805-.722-2.902a123.3 123.3 0 0 0 7.953-1.938Zm0 0"/><path style="stroke:none;fill-rule:evenodd;fill:#151515;fill-opacity:1" d="M129.398 73.125c5.27.074 10.09 1.043 14.457 2.902-4.332.95-8.671.785-13.011-.484-1.09-.648-1.57-1.453-1.446-2.418Zm0 0"/><path style="stroke:none;fill-rule:evenodd;fill:#141414;fill-opacity:1" d="M464.82 73.125c1.438-.086 2.645.238 3.614.969a7614.85 7614.85 0 0 1 5.058 6.777c-.722.324-1.445.645-2.168.969-3.695-2.371-5.863-5.274-6.504-8.715ZM532.77 74.094c1.44-.086 2.644.238 3.617.965 1.687 2.261 3.37 4.523 5.058 6.78-.722.325-1.445.645-2.168.97-3.675-2.364-5.843-5.27-6.507-8.715Zm0 0"/><path style="stroke:none;fill-rule:evenodd;fill:#1a1a1a;fill-opacity:1" d="M263.855 75.059c5.25 1.074 9.586 3.171 13.012 6.296-1.12 1.192-2.566 1.516-4.336.97-3.785-2.04-6.68-4.462-8.676-7.266Zm0 0"/><path style="stroke:none;fill-rule:evenodd;fill:#191919;fill-opacity:1" d="M427.23 74.094c1.266-.13 2.23.195 2.891.965a74.784 74.784 0 0 0 5.781 7.265c-.757.672-1.722 1.156-2.89 1.453-3.75-3.039-5.68-6.265-5.782-9.683Zm0 0"/><path style="stroke:none;fill-rule:evenodd;fill:#171717;fill-opacity:1" d="M32.531 76.027c2.137-.254 4.063.07 5.782.97a108.213 108.213 0 0 1-11.567 3.874c-1.445-.32-2.41-.969-2.89-1.937a498.248 498.248 0 0 0 8.675-2.907Zm0 0"/><path style="stroke:none;fill-rule:evenodd;fill:#1c1c1c;fill-opacity:1" d="M149.637 76.027c4.633 1.36 9.453 2.328 14.46 2.907v2.906c-4.609-.383-8.945-1.352-13.011-2.906-1.281-.797-1.766-1.766-1.45-2.907Zm0 0"/><path style="stroke:none;fill-rule:evenodd;fill:#1b1b1b;fill-opacity:1" d="M385.3 76.027c3.536 2.106 6.427 4.688 8.677 7.75-.446.782-1.168 1.43-2.168 1.938-4.336-2.88-6.508-6.106-6.508-9.688Zm0 0"/><path style="stroke:none;fill-rule:evenodd;fill:#191919;fill-opacity:1" d="M567.469 77.965c3.316 2.781 5.246 6.008 5.785 9.687h-4.34c-.512-2.488-1.473-4.91-2.89-7.265a9.278 9.278 0 0 1 1.445-2.422Zm0 0"/><path style="stroke:none;fill-rule:evenodd;fill:#1e1e1e;fill-opacity:1" d="M336.145 79.902c4.898 1.5 8.753 3.922 11.566 7.266-1.496 1.566-3.184 1.727-5.059.484-3.12-2.246-5.289-4.828-6.507-7.75Zm0 0"/><path style="stroke:none;fill-rule:evenodd;fill:#181818;fill-opacity:1" d="M13.734 80.871c2.32-.183 4.246.3 5.786 1.453-4.34 1.453-8.676 2.906-13.012 4.36-1.93-.97-1.93-1.938 0-2.907 2.738-.75 5.148-1.718 7.226-2.906Zm0 0"/><path style="stroke:none;fill-rule:evenodd;fill:#070707;fill-opacity:1" d="M599.277 81.84v6.781a35.74 35.74 0 0 1-4.336-6.781c1.336-1.028 2.782-1.028 4.336 0Zm0 0"/><path style="stroke:none;fill-rule:evenodd;fill:#141414;fill-opacity:1" d="M169.879 81.84c5.137.43 9.476 1.883 13.012 4.36-.48.484-.965.968-1.446 1.452-3.37-1.132-6.746-2.261-10.12-3.39-1.087-.649-1.571-1.457-1.446-2.422Zm0 0"/><path style="stroke:none;fill-rule:evenodd;fill:#1f1f1f;fill-opacity:1" d="M279.758 84.746c2.707.348 4.875 1.317 6.508 2.906 1.132 1.73 2.82 3.18 5.058 4.356-1.12 1.191-2.566 1.515-4.336.969-2.351-2.543-5.242-4.805-8.675-6.778.804-.37 1.285-.855 1.445-1.453Zm0 0"/><path style="stroke:none;fill-rule:evenodd;fill:#191919;fill-opacity:1" d="M508.191 84.746c4 1.945 6.41 4.692 7.23 8.23-.48.485-.964.97-1.444 1.454-3.07-2.422-5.48-5.168-7.23-8.23.804-.372 1.284-.856 1.444-1.454Zm0 0"/><path style="stroke:none;fill-rule:evenodd;fill:#1a1a1a;fill-opacity:1" d="M474.941 85.715c3.91 2.66 6.32 5.887 7.227 9.683h-4.336c-.613-2.761-2.059-5.347-4.34-7.746a40.844 40.844 0 0 0 1.45-1.937Zm0 0"/><path style="stroke:none;fill-rule:evenodd;fill:#1c1c1c;fill-opacity:1" d="M437.348 86.684c3.164 1.28 5.332 3.218 6.507 5.808 1.13 1.399.887 2.692-.722 3.875a99.576 99.576 0 0 1-7.23-8.23c.804-.371 1.284-.856 1.445-1.453Zm0 0"/><path style="stroke:none;fill-rule:evenodd;fill:#191919;fill-opacity:1" d="M541.445 86.684c1.266-.13 2.23.195 2.89.968 1.446 2.582 2.895 5.164 4.34 7.746-1.195.86-2.64 1.184-4.34.97-.823-2.884-2.269-5.626-4.335-8.231.805-.371 1.285-.856 1.445-1.453Zm0 0"/><path style="stroke:none;fill-rule:evenodd;fill:#1b1b1b;fill-opacity:1" d="M188.676 87.652c5.054 1.207 9.39 3.145 13.012 5.809-.723.324-1.446.648-2.168.969a106.258 106.258 0 0 0-9.399-3.387c-1.21-.98-1.691-2.11-1.445-3.39Zm0 0"/><path style="stroke:none;fill-rule:evenodd;fill:#1a1a1a;fill-opacity:1" d="M395.422 88.621c1.441-.086 2.644.238 3.613.969 1.625 2.66 3.793 5.082 6.508 7.262a16.203 16.203 0 0 0-3.617 1.453c-3.36-2.887-5.528-6.114-6.504-9.684Zm0 0"/><path style="stroke:none;fill-rule:evenodd;fill:#1b1b1b;fill-opacity:1" d="M347.71 91.527c5.114 1.102 8.485 3.524 10.122 7.262l-1.445 1.453c-3.98-2.426-6.871-5.332-8.676-8.715ZM573.254 91.527c1.437-.086 2.644.239 3.613.965 1.656 2.84 2.86 5.746 3.613 8.719h-4.335a57.213 57.213 0 0 1-2.891-9.684Zm0 0"/><path style="stroke:none;fill-rule:evenodd;fill:#1e1e1e;fill-opacity:1" d="M207.469 95.398a88.382 88.382 0 0 1 10.844 4.844c1.082 1.098.843 2.067-.723 2.906l-11.567-5.812a36.51 36.51 0 0 0 1.446-1.938Zm0 0"/><path style="stroke:none;fill-rule:evenodd;fill:#171717;fill-opacity:1" d="M294.219 95.398c5.277 2.012 8.168 4.754 8.672 8.235-.965.644-1.926.644-2.891 0-2.41-2.262-4.82-4.52-7.23-6.781.804-.372 1.285-.856 1.449-1.454Zm0 0"/><path style="stroke:none;fill-rule:evenodd;fill:#191919;fill-opacity:1" d="M515.422 98.305c1.441-.082 2.644.242 3.613.968a66.732 66.732 0 0 1 5.063 7.266c-.762.668-1.727 1.152-2.895 1.453-2.777-3-4.703-6.23-5.781-9.687Zm0 0"/><path style="stroke:none;fill-rule:evenodd;fill:#141414;fill-opacity:1" d="M482.168 99.273c1.441-.082 2.644.243 3.613.97 1.688 2.257 3.375 4.519 5.063 6.78-.723.32-1.446.645-2.168.97-3.676-2.368-5.844-5.274-6.508-8.72Zm0 0"/><path style="stroke:none;fill-rule:evenodd;fill:#161616;fill-opacity:1" d="M446.023 100.242c1.442-.082 2.645.238 3.614.969 1.687 2.258 3.375 4.52 5.062 6.781-.722.32-1.445.645-2.168.965-3.699-2.367-5.867-5.273-6.508-8.715Zm0 0"/><path style="stroke:none;fill-rule:evenodd;fill:#171717;fill-opacity:1" d="M405.543 101.21c1.437-.081 2.644.24 3.613.97 1.688 2.257 3.375 4.52 5.063 6.777-.446.785-1.172 1.43-2.172 1.938-3.36-2.887-5.527-6.114-6.504-9.684Zm0 0"/><path style="stroke:none;fill-rule:evenodd;fill:#1f1f1f;fill-opacity:1" d="M547.23 100.242c1.696-.21 3.145.11 4.336.969 2.32 2.727 3.766 5.629 4.336 8.715h-4.336c-.867-3.352-2.312-6.582-4.336-9.684Zm0 0"/><path style="stroke:none;fill-rule:evenodd;fill:#1a1a1a;fill-opacity:1" d="M360.723 103.148c3.535 2.102 6.425 4.684 8.675 7.747-.445.785-1.168 1.43-2.168 1.937-4.335-2.875-6.507-6.105-6.507-9.684Zm0 0"/><path style="stroke:none;fill-rule:evenodd;fill:#171717;fill-opacity:1" d="M224.82 104.117c4.453 1.524 8.313 3.625 11.567 6.293-1.121 1.192-2.567 1.516-4.34.969a64.832 64.832 0 0 0-8.672-5.324 43.524 43.524 0 0 0 1.445-1.938Zm0 0"/><path style="stroke:none;fill-rule:evenodd;fill:#1a1a1a;fill-opacity:1" d="M580.48 105.086c1.27-.129 2.23.195 2.895.969l4.336 7.746c-2.18 1.199-3.867.879-5.059-.969-1.562-2.48-2.285-5.062-2.172-7.746Zm0 0"/><path style="stroke:none;fill-rule:evenodd;fill:#1d1d1d;fill-opacity:1" d="M305.781 107.023c1.914-.168 3.602.157 5.063.97a75.398 75.398 0 0 0 6.504 6.292c-1.496 1.567-3.184 1.727-5.059.485-2.57-2.477-4.738-5.063-6.508-7.747Zm0 0"/><path style="stroke:none;fill-rule:evenodd;fill:#171717;fill-opacity:1" d="M522.652 111.863c1.696-.21 3.145.114 4.336.969a84.034 84.034 0 0 0 4.336 7.266c-1.324.363-2.527.843-3.613 1.453-2.11-3.149-3.797-6.375-5.059-9.688Zm0 0"/><path style="stroke:none;fill-rule:evenodd;fill:#181818;fill-opacity:1" d="M490.844 111.863c1.265-.125 2.23.196 2.89.969 1.883 2.836 3.329 5.742 4.34 8.719h-4.34c-.437-2.985-1.882-5.727-4.336-8.235.805-.37 1.286-.855 1.446-1.453Zm0 0"/><path style="stroke:none;fill-rule:evenodd;fill:#0f0f0f;fill-opacity:1" d="M239.277 113.8c4.692 1.524 8.547 3.782 11.567 6.782-1.446 1.29-2.89 1.29-4.336 0-3.047-2.027-5.457-4.285-7.23-6.781Zm0 0"/><path style="stroke:none;fill-rule:evenodd;fill:#202020;fill-opacity:1" d="M453.254 112.832c1.91-.164 3.598.16 5.058.969 1.211 2.265 2.415 4.527 3.614 6.781-.48.645-.961 1.29-1.446 1.938-3.14-2.918-5.55-6.145-7.226-9.688Zm0 0"/><path style="stroke:none;fill-rule:evenodd;fill:#1a1a1a;fill-opacity:1" d="M415.664 113.8c3.16 1.282 5.328 3.22 6.504 5.813 1.129 1.399.887 2.688-.723 3.875a98.865 98.865 0 0 1-7.226-8.234c.8-.371 1.285-.856 1.445-1.453Zm0 0"/><path style="stroke:none;fill-rule:evenodd;fill:#1c1c1c;fill-opacity:1" d="M554.457 113.8c2.348-.136 4.035.513 5.063 1.938 2.074 2.559 2.316 5.145.722 7.75-2.777-3-4.707-6.23-5.785-9.687Zm0 0"/><path style="stroke:none;fill-rule:evenodd;fill:#171717;fill-opacity:1" d="M370.844 115.738c1.441-.082 2.644.242 3.613.969 1.688 2.258 3.375 4.52 5.063 6.781-.446.782-1.168 1.426-2.172 1.934-3.36-2.883-5.528-6.113-6.504-9.684Zm0 0"/><path style="stroke:none;fill-rule:evenodd;fill:#1b1b1b;fill-opacity:1" d="M318.797 118.645c2.191.011 3.879.656 5.058 1.937 1.32 2.094 3.008 4.031 5.06 5.809-1.665 1.195-3.349 1.195-5.06 0-2.14-2.528-3.828-5.11-5.058-7.746Zm0 0"/><path style="stroke:none;fill-rule:evenodd;fill:#1a1a1a;fill-opacity:1" d="M586.266 118.645c1.437-.082 2.644.238 3.613.968 1.656 2.84 2.86 5.746 3.613 8.715h-4.336c-.965-3.226-1.926-6.457-2.89-9.683Zm0 0"/><path style="stroke:none;fill-rule:evenodd;fill:#1d1d1d;fill-opacity:1" d="M255.18 123.488c4.379 1.965 7.75 4.547 10.12 7.746-.722.325-1.445.649-2.167.97-2.86-1.915-5.75-3.852-8.676-5.813-.68-1.043-.437-2.012.723-2.903Zm0 0"/><path style="stroke:none;fill-rule:evenodd;fill:#909090;fill-opacity:1" d="M83.133 128.328c-1.309-.683-1.79-1.652-1.445-2.906H97.59v3.875c-5.121.305-9.942-.02-14.457-.969Zm0 0"/><path style="stroke:none;fill-rule:evenodd;fill:#1b1b1b;fill-opacity:1" d="M498.074 125.422c1.438-.082 2.64.242 3.613.969 1.657 2.84 2.86 5.746 3.614 8.718h-4.336a56.443 56.443 0 0 1-2.89-9.687Zm0 0"/><path style="stroke:none;fill-rule:evenodd;fill:#0b0b0b;fill-opacity:1" d="M529.879 125.422c2.762.074 4.45 1.043 5.062 2.906 1.743 1.973 1.98 3.906.723 5.813-3.023-2.5-4.953-5.407-5.785-8.72Zm0 0"/><path style="stroke:none;fill-rule:evenodd;fill:#000;fill-opacity:1" d="M83.133 128.328c1.465-1.223 3.637-1.867 6.504-1.937 2.172.324 4.34.648 6.508.968-4.235.954-8.57 1.278-13.012.97Zm0 0"/><path style="stroke:none;fill-rule:evenodd;fill:#222;fill-opacity:1" d="M103.375 126.39a70.09 70.09 0 0 1 11.566.485c2.13.688 3.094 1.82 2.891 3.39a95.976 95.976 0 0 0-14.457-.968v-2.906Zm0 0"/><path style="stroke:none;fill-rule:evenodd;fill:#191919;fill-opacity:1" d="M461.926 126.39c1.699-.21 3.148.114 4.34.97a38.646 38.646 0 0 0 4.336 6.78c-.48.97-1.446 1.614-2.891 1.938a76 76 0 0 1-5.785-9.687Zm0 0"/><path style="stroke:none;fill-rule:evenodd;fill:#1c1c1c;fill-opacity:1" d="M68.676 126.39h7.226v2.907c-4.855.113-9.675.437-14.457.969v-2.907c2.77.278 5.18-.046 7.23-.968Zm0 0"/><path style="stroke:none;fill-rule:evenodd;fill:#1b1b1b;fill-opacity:1" d="M422.89 127.36c1.915-.165 3.598.16 5.063.968a43.621 43.621 0 0 0 3.613 6.297c-.187 1.023-.91 1.832-2.168 2.422-2.582-3.137-4.75-6.363-6.507-9.688Zm0 0"/><path style="stroke:none;fill-rule:evenodd;fill:#191919;fill-opacity:1" d="M561.688 127.36c1.437-.083 2.644.242 3.613.968 1.656 2.84 2.86 5.746 3.613 8.719h-4.336c-.965-3.23-1.926-6.457-2.89-9.688Zm0 0"/><path style="stroke:none;fill-rule:evenodd;fill:#161616;fill-opacity:1" d="M125.059 128.328c4.996.836 9.816 1.965 14.46 3.39-.878.845-2.085 1.329-3.617 1.454a138.446 138.446 0 0 0-7.949-1.453c-2.133-.688-3.094-1.817-2.894-3.39Zm0 0"/><path style="stroke:none;fill-rule:evenodd;fill:#1a1a1a;fill-opacity:1" d="M380.965 128.328c1.265-.125 2.23.195 2.89.969a74.784 74.784 0 0 0 5.782 7.266c-.758.667-1.723 1.152-2.89 1.453-3.75-3.04-5.68-6.266-5.782-9.688Zm0 0"/><path style="stroke:none;fill-rule:evenodd;fill:#222;fill-opacity:1" d="M49.879 129.297h5.785v2.906c-4.883.445-9.703 1.09-14.46 1.938v-2.907c3.304-.09 6.198-.738 8.675-1.937Zm0 0"/><path style="stroke:none;fill-rule:evenodd;fill:#1b1b1b;fill-opacity:1" d="M330.363 130.266c4.235 1.754 7.125 4.336 8.672 7.75-.445.78-1.168 1.425-2.168 1.937a115.635 115.635 0 0 0-7.953-8.234c.805-.371 1.285-.856 1.45-1.453Zm0 0"/><path style="stroke:none;fill-rule:evenodd;fill:#171717;fill-opacity:1" d="M145.3 133.172c5.15.45 9.97 1.582 14.458 3.39-.903.727-1.625 1.536-2.168 2.422-3.332-1.52-6.945-2.648-10.844-3.39-1.086-.653-1.57-1.457-1.445-2.422Zm0 0"/><path style="stroke:none;fill-rule:evenodd;fill:#1b1b1b;fill-opacity:1" d="M599.277 138.984v2.903c-.941.297-1.906.617-2.89.968a71.536 71.536 0 0 1-4.34-8.714c1.195-.86 2.64-1.18 4.34-.97-.352 2.325.613 4.259 2.89 5.813Zm0 0"/><path style="stroke:none;fill-rule:evenodd;fill:#181818;fill-opacity:1" d="M31.086 134.14c3.246.04 4.207.848 2.89 2.423a142.409 142.409 0 0 1-10.843 3.39c-.723-.324-1.445-.648-2.168-.969a66.586 66.586 0 0 1 10.12-4.843Zm0 0"/><path style="stroke:none;fill-rule:evenodd;fill:#171717;fill-opacity:1" d="M268.191 135.11c4.235 1.054 7.368 2.992 9.399 5.812.816 1.183.332 2.152-1.445 2.902-3.653-2.582-6.301-5.488-7.954-8.715Zm0 0"/><path style="stroke:none;fill-rule:evenodd;fill:#161616;fill-opacity:1" d="M164.098 138.984c5.41.36 9.75 1.973 13.011 4.84-1.25 1.051-2.699 1.211-4.34.485-2.167-1.211-4.578-2.18-7.226-2.903-1.09-.652-1.57-1.457-1.445-2.422Zm0 0"/><path style="stroke:none;fill-rule:evenodd;fill:#191919;fill-opacity:1" d="M535.664 139.953c1.504-1.25 3.191-1.25 5.059 0 2.562 3.004 2.562 5.91 0 8.715a38.657 38.657 0 0 0-5.059-8.715Zm0 0"/><path style="stroke:none;fill-rule:evenodd;fill:#1d1d1d;fill-opacity:1" d="M469.156 140.922c1.281-1.238 2.727-1.238 4.336 0 2.711 2.652 3.676 5.394 2.895 8.23-1.422.575-2.387.25-2.895-.968a27.189 27.189 0 0 0-4.336-7.262Zm0 0"/><path style="stroke:none;fill-rule:evenodd;fill:#171717;fill-opacity:1" d="M503.855 138.984c2.348-.136 4.036.508 5.06 1.938 2.077 2.558 2.315 5.14.722 7.746-2.36-3.094-4.29-6.32-5.782-9.684Zm0 0"/><path style="stroke:none;fill-rule:evenodd;fill:#212121;fill-opacity:1" d="M13.734 139.953c1.414.3 2.38.945 2.891 1.934a188.154 188.154 0 0 1-12.29 5.812c-1-.508-1.722-1.152-2.167-1.937 3.953-1.957 7.809-3.895 11.566-5.809Zm0 0"/><path style="stroke:none;fill-rule:evenodd;fill:#1d1d1d;fill-opacity:1" d="M433.012 139.953c3.441 2.336 5.851 5.238 7.23 8.715-.722.324-1.445.644-2.168.969-2.832-2.258-5-4.84-6.508-7.75a38.743 38.743 0 0 0 1.446-1.934Zm0 0"/><path style="stroke:none;fill-rule:evenodd;fill:#171717;fill-opacity:1" d="M391.086 140.922a54.314 54.314 0 0 1 7.226 8.715c-.722.324-1.445.644-2.167.968-4.48-2.714-6.168-5.945-5.06-9.683Zm0 0"/><path style="stroke:none;fill-rule:evenodd;fill:#1a1a1a;fill-opacity:1" d="M567.469 140.922h4.34c.109 3.363 1.07 6.59 2.89 9.683h-4.336l-2.894-9.683Zm0 0"/><path style="stroke:none;fill-rule:evenodd;fill:#161616;fill-opacity:1" d="M340.48 142.855c1.442-.082 2.645.243 3.618.97 1.687 2.26 3.37 4.523 5.058 6.78-.445.782-1.168 1.43-2.168 1.938-3.36-2.887-5.527-6.113-6.508-9.688Zm0 0"/><path style="stroke:none;fill-rule:evenodd;fill:#242424;fill-opacity:1" d="M182.89 145.762c4.762 1.605 9.102 3.703 13.012 6.297-1.12 1.191-2.566 1.511-4.336.968-3.375-1.777-6.746-3.55-10.12-5.328a38.787 38.787 0 0 0 1.445-1.937Zm0 0"/><path style="stroke:none;fill-rule:evenodd;fill:#1e1e1e;fill-opacity:1" d="M279.758 146.73c1.914-.164 3.601.16 5.062.97 2.168 2.097 4.336 4.195 6.504 6.296-.758.668-1.722 1.152-2.89 1.453-3.997-2.465-6.891-5.367-8.676-8.719Zm0 0"/><path style="stroke:none;fill-rule:evenodd;fill:#181818;fill-opacity:1" d="M511.086 152.543c1.437-.082 2.644.238 3.613.969 1.656 2.84 2.86 5.746 3.614 8.715h-4.336c-.965-3.227-1.93-6.457-2.891-9.684Zm0 0"/><path style="stroke:none;fill-rule:evenodd;fill:#151515;fill-opacity:1" d="M542.89 152.543c3.294.246 4.981 1.539 5.063 3.875 1.184 2.156.703 4.094-1.445 5.809-1.957-3.118-3.164-6.344-3.617-9.684Zm0 0"/><path style="stroke:none;fill-rule:evenodd;fill:#131313;fill-opacity:1" d="M476.387 153.512c2.347-.137 4.031.508 5.058 1.937 1.946 2.254 2.188 4.516.723 6.778-2.566-2.625-4.496-5.532-5.781-8.715Zm0 0"/><path style="stroke:none;fill-rule:evenodd;fill:#161616;fill-opacity:1" d="M398.313 154.48c1.44-.085 2.644.239 3.613.97.683 1.69 1.648 3.304 2.894 4.84 1.008 1.526.528 2.815-1.445 3.874-2.945-2.965-4.629-6.191-5.063-9.684Zm0 0"/><path style="stroke:none;fill-rule:evenodd;fill:#1e1e1e;fill-opacity:1" d="M438.797 153.512c1.695-.215 3.144.11 4.336.968 2.32 2.723 3.765 5.63 4.336 8.715h-4.336c-.867-3.351-2.313-6.582-4.336-9.683Zm0 0"/><path style="stroke:none;fill-rule:evenodd;fill:#232323;fill-opacity:1" d="M200.242 154.48a99.174 99.174 0 0 0 10.844 5.81c.89.92.652 1.726-.723 2.42-3.664-1.347-7.277-3.124-10.843-5.323-.68-1.043-.442-2.012.722-2.907Zm0 0"/><path style="stroke:none;fill-rule:evenodd;fill:#222;fill-opacity:1" d="M573.254 154.48c1.437-.085 2.644.239 3.613.97 1.207 2.585 2.41 5.167 3.613 7.745-2.175 1.2-3.863.88-5.058-.968-1.188-2.536-1.91-5.118-2.168-7.747Zm0 0"/><path style="stroke:none;fill-rule:evenodd;fill:#1b1b1b;fill-opacity:1" d="M350.602 155.45c3.16 1.28 5.328 3.218 6.507 5.808 1.13 1.398.887 2.691-.722 3.875a99.576 99.576 0 0 1-7.23-8.23c.804-.372 1.284-.856 1.445-1.454ZM292.77 158.352c4.238 1.757 7.128 4.34 8.675 7.75-.445.78-1.168 1.43-2.168 1.937a117.348 117.348 0 0 0-7.953-8.234c.805-.371 1.285-.856 1.446-1.453Zm0 0"/><path style="stroke:none;fill-rule:evenodd;fill:#141414;fill-opacity:1" d="M214.7 165.133c4.37 1.457 8.226 3.554 11.566 6.297-1.121 1.191-2.567 1.511-4.34.968-2.766-2.324-5.176-4.746-7.227-7.265Zm0 0"/><path style="stroke:none;fill-rule:evenodd;fill:#0e0e0e;fill-opacity:1" d="M548.676 166.102c2.066.367 3.273 1.335 3.613 2.906 1.504 2.324 1.742 4.586.723 6.777-3.207-2.762-4.653-5.988-4.336-9.683Zm0 0"/><path style="stroke:none;fill-rule:evenodd;fill:#1d1d1d;fill-opacity:1" d="M483.613 166.102c3.059.832 4.742 2.449 5.063 4.843 1.183 2.157.703 4.094-1.446 5.809-2.261-3.402-3.464-6.953-3.617-10.652Zm0 0"/><path style="stroke:none;fill-rule:evenodd;fill:#1e1e1e;fill-opacity:1" d="M516.867 166.102h4.336c.664 3.27 1.629 6.5 2.895 9.683h-4.34c-.965-3.226-1.926-6.457-2.89-9.683Zm0 0"/><path style="stroke:none;fill-rule:evenodd;fill:#121212;fill-opacity:1" d="M405.543 168.04c2.762.07 4.45 1.038 5.059 2.905 2.359 2.383 2.359 4.64 0 6.778-2.13-3.153-3.817-6.38-5.059-9.684Zm0 0"/><path style="stroke:none;fill-rule:evenodd;fill:#151515;fill-opacity:1" d="M446.023 167.07h4.34c.657 2.618 1.621 5.2 2.89 7.75-.48.645-.964 1.29-1.444 1.934-2.778-2.996-4.707-6.227-5.786-9.684Zm0 0"/><path style="stroke:none;fill-rule:evenodd;fill:#191919;fill-opacity:1" d="M359.277 169.008c1.442-.082 2.645.238 3.614.969a46.53 46.53 0 0 0 5.062 7.261 16.203 16.203 0 0 0-3.617 1.453c-2.7-3.007-4.387-6.234-5.059-9.683Zm0 0"/><path style="stroke:none;fill-rule:evenodd;fill:#181818;fill-opacity:1" d="M577.59 169.977c1.027-.875 2.472-1.2 4.336-.97a56.768 56.768 0 0 1 2.894 9.684h-4.34c.118-3.175-.847-6.082-2.89-8.714Zm0 0"/><path style="stroke:none;fill-rule:evenodd;fill:#151515;fill-opacity:1" d="M302.89 170.945c1.442-.086 2.645.239 3.618.97a7614.85 7614.85 0 0 0 5.058 6.776c-.722.325-1.445.649-2.168.97-3.699-2.368-5.867-5.274-6.507-8.716Zm0 0"/><path style="stroke:none;fill-rule:evenodd;fill:#1a1a1a;fill-opacity:1" d="M227.71 175.785c1.52-.14 2.966.02 4.337.485a65.688 65.688 0 0 0 6.508 5.328c.812 1.187.332 2.156-1.446 2.906-3.484-2.805-6.617-5.711-9.398-8.719Zm0 0"/><path style="stroke:none;fill-rule:evenodd;fill:#121212;fill-opacity:1" d="M453.254 180.629c1.437-.082 2.644.242 3.613.969 1.528 2.953 1.77 5.859.723 8.718-2.781-2.925-4.227-6.156-4.336-9.687Zm0 0"/><path style="stroke:none;fill-rule:evenodd;fill:#1d1d1d;fill-opacity:1" d="M489.398 180.629c3.29.25 4.977 1.539 5.059 3.875 1.168 2.012.926 3.95-.723 5.812-3.187-2.855-4.632-6.082-4.336-9.687Zm0 0"/><path style="stroke:none;fill-rule:evenodd;fill:#232323;fill-opacity:1" d="M522.652 179.66c1.438-.082 2.645.242 3.614.969 1.894 2.91 2.132 5.816.722 8.719-3.582-2.696-5.027-5.926-4.336-9.688Zm0 0"/><path style="stroke:none;fill-rule:evenodd;fill:#1d1d1d;fill-opacity:1" d="M553.012 179.66h4.336c1.304 3.266 1.304 6.496 0 9.688-.844-.203-1.57-.528-2.168-.97-.727-2.917-1.45-5.823-2.168-8.718Zm0 0"/><path style="stroke:none;fill-rule:evenodd;fill:#1b1b1b;fill-opacity:1" d="M412.77 181.598c1.44-.082 2.644.242 3.617.968 1.488 2.024 2.691 4.121 3.613 6.297-.164 1.239-1.129 2.047-2.89 2.422-1.9-3.148-3.344-6.375-4.34-9.687Zm0 0"/><path style="stroke:none;fill-rule:evenodd;fill:#161616;fill-opacity:1" d="M366.508 182.566c1.695-.21 3.144.11 4.336.97 1.164 2.339 2.61 4.597 4.336 6.78-.723.32-1.446.645-2.168.97-3.117-2.536-5.285-5.442-6.504-8.72Zm0 0"/><path style="stroke:none;fill-rule:evenodd;fill:#191919;fill-opacity:1" d="M583.375 182.566c1.438-.082 2.645.243 3.613.97.727 2.917 1.45 5.823 2.168 8.714h-4.336a50.83 50.83 0 0 1-1.445-9.684Zm0 0"/><path style="stroke:none;fill-rule:evenodd;fill:#1e1e1e;fill-opacity:1" d="M311.566 183.535c1.91-.164 3.598.156 5.059.969 1.11 2.61 2.793 5.031 5.063 7.262a16.095 16.095 0 0 0-3.614 1.453c-2.586-3.133-4.754-6.364-6.508-9.684Zm0 0"/><path style="stroke:none;fill-rule:evenodd;fill:#181818;fill-opacity:1" d="M240.723 187.41c4.914.992 8.289 3.25 10.12 6.778-.445.785-1.167 1.43-2.167 1.937-3.41-2.637-6.059-5.54-7.953-8.715Zm0 0"/><path style="stroke:none;fill-rule:evenodd;fill:#161616;fill-opacity:1" d="M493.734 194.188h4.34c.66 3.273 1.625 6.5 2.89 9.687h-4.339a37.4 37.4 0 0 0-2.89-9.688Zm0 0"/><path style="stroke:none;fill-rule:evenodd;fill:#0d0d0d;fill-opacity:1" d="M526.988 194.188h4.336c1.25 12.75-.195 12.75-4.336 0Zm0 0"/><path style="stroke:none;fill-rule:evenodd;fill:#191919;fill-opacity:1" d="M557.348 194.188h4.34c1.3 3.265 1.3 6.496 0 9.687-2.532-2.969-3.977-6.2-4.34-9.688Zm0 0"/><path style="stroke:none;fill-rule:evenodd;fill:#181818;fill-opacity:1" d="M418.555 195.156c2.347-.133 4.035.512 5.058 1.938a49.627 49.627 0 0 0 2.168 5.328c-.187 1.023-.91 1.832-2.168 2.422-2.12-3.098-3.808-6.324-5.058-9.688Zm0 0"/><path style="stroke:none;fill-rule:evenodd;fill:#222;fill-opacity:1" d="M457.59 194.188c2.348-.133 4.035.511 5.062 1.937 2.075 2.563 2.313 5.145.723 7.75-.848-.203-1.57-.527-2.172-.969-1.226-2.926-2.43-5.832-3.613-8.719Zm0 0"/><path style="stroke:none;fill-rule:evenodd;fill:#141414;fill-opacity:1" d="M373.734 195.156h4.34a38.167 38.167 0 0 0 2.89 7.75c-.484.645-.964 1.29-1.444 1.938-2.774-2.989-4.704-6.219-5.786-9.688Zm0 0"/><path style="stroke:none;fill-rule:evenodd;fill:#171717;fill-opacity:1" d="M321.688 196.125c1.265-.125 2.23.195 2.89.969a55.79 55.79 0 0 0 3.613 5.812c1.086 1.098.844 2.067-.722 2.906-3.07-2.425-5.477-5.171-7.227-8.234.801-.371 1.285-.855 1.445-1.453Zm0 0"/><path style="stroke:none;fill-rule:evenodd;fill:#212121;fill-opacity:1" d="M587.71 196.125c1.442-.027 2.407.457 2.892 1.453a56.067 56.067 0 0 1 2.89 9.203h-4.336a47.566 47.566 0 0 1-1.445-10.656Zm0 0"/><path style="stroke:none;fill-rule:evenodd;fill:#1c1c1c;fill-opacity:1" d="M252.29 199.031c1.698-.21 3.144.11 4.335.969 1.563 2.418 3.492 4.68 5.785 6.781-1.664 1.192-3.351 1.192-5.062 0-2.141-2.531-3.828-5.113-5.059-7.75Zm0 0"/><path style="stroke:none;fill-rule:evenodd;fill:#181818;fill-opacity:1" d="M80.242 203.875H91.81v2.906a55.308 55.308 0 0 1-14.461-.969 42.193 42.193 0 0 0 2.894-1.937Zm0 0"/><path style="stroke:none;fill-rule:evenodd;fill:#0e0e0e;fill-opacity:1" d="M99.035 204.844c4.977-.196 9.797.289 14.457 1.453-3.855 1.762-7.953 1.922-12.289.484-1.488-.328-2.21-.972-2.168-1.937Zm0 0"/><path style="stroke:none;fill-rule:evenodd;fill:#1c1c1c;fill-opacity:1" d="M67.23 205.813h4.336v2.902c-4.254.144-8.351.789-12.289 1.937-.722-.32-1.445-.644-2.168-.968 3.098-1.657 6.473-2.946 10.121-3.871Zm0 0"/><path style="stroke:none;fill-rule:evenodd;fill:#191919;fill-opacity:1" d="M119.277 206.781a176.558 176.558 0 0 1 14.457 3.871c-.48.97-1.445 1.618-2.89 1.938a86.795 86.795 0 0 0-10.121-2.906c-1.282-.797-1.762-1.766-1.446-2.903ZM424.336 208.715h4.34c.965 3.23 1.926 6.46 2.89 9.687h-4.336c-.507-3.297-1.472-6.523-2.894-9.687Zm0 0"/><path style="stroke:none;fill-rule:evenodd;fill:#131313;fill-opacity:1" d="M463.375 208.715h4.336c.601 12.82-.844 12.82-4.336 0ZM500.965 207.75c.89.105 1.613.43 2.168.965a32.343 32.343 0 0 0 2.168 7.75c-1.192.86-2.637 1.18-4.336.969-1.031-3.317-1.031-6.547 0-9.684Zm0 0"/><path style="stroke:none;fill-rule:evenodd;fill:#1a1a1a;fill-opacity:1" d="M531.324 207.75h4.34c1 3.29 1 6.516 0 9.684-.848-.204-1.57-.528-2.172-.97a48.431 48.431 0 0 1-2.168-8.714Zm0 0"/><path style="stroke:none;fill-rule:evenodd;fill:#131313;fill-opacity:1" d="M561.688 207.75h4.335c1 3.29 1 6.516 0 9.684-2.53-2.97-3.976-6.196-4.336-9.684Zm0 0"/><path style="stroke:none;fill-rule:evenodd;fill:#171717;fill-opacity:1" d="M328.914 209.684c1.441-.082 2.645.242 3.617.968.68 1.692 1.645 3.309 2.89 4.844 1.13 1.399.888 2.691-.722 3.875-3.316-2.773-5.242-6.004-5.785-9.687Zm0 0"/><path style="stroke:none;fill-rule:evenodd;fill:#181818;fill-opacity:1" d="M380.965 208.715c1.437-.082 2.644.242 3.613.969 1.211 2.777 2.414 5.52 3.613 8.234-1.37.469-2.816.629-4.336.484a57.148 57.148 0 0 1-2.89-9.687Zm0 0"/><path style="stroke:none;fill-rule:evenodd;fill:#191919;fill-opacity:1" d="M590.602 210.652h4.34a50.917 50.917 0 0 1 1.445 9.688h-4.34c.23-3.297-.254-6.524-1.445-9.688Zm0 0"/><path style="stroke:none;fill-rule:evenodd;fill:#161616;fill-opacity:1" d="M45.543 211.621c2.137-.254 4.062.07 5.781.969-3.367 2.101-7.222 3.715-11.566 4.844-1.168-.297-2.133-.782-2.89-1.454 3.25-1.238 6.14-2.687 8.675-4.359Zm0 0"/><path style="stroke:none;fill-rule:evenodd;fill:#202020;fill-opacity:1" d="M262.41 211.621c4.242.766 6.895 2.703 7.953 5.813 1.008 1.523.528 2.816-1.449 3.875-2.879-3.063-5.047-6.29-6.504-9.688Zm0 0"/><path style="stroke:none;fill-rule:evenodd;fill:#1a1a1a;fill-opacity:1" d="M139.52 212.59c4.777 1.281 9.117 3.055 13.011 5.328-2.254 1.7-4.664 1.7-7.23 0-2.41-1.129-4.82-2.262-7.227-3.39a41.367 41.367 0 0 0 1.446-1.938ZM29.637 218.402c2.496.332 3.218 1.301 2.172 2.907-2.743 1.964-5.875 3.578-9.399 4.84-.48-.485-.965-.97-1.445-1.45 3.156-1.953 6.047-4.05 8.672-6.297Zm0 0"/><path style="stroke:none;fill-rule:evenodd;fill:#1b1b1b;fill-opacity:1" d="M155.422 221.309c3.3.101 6.191.91 8.676 2.421 4.097 1.395 4.82 3.168 2.168 5.325-4.024-2.528-7.637-5.11-10.844-7.746Zm0 0"/><path style="stroke:none;fill-rule:evenodd;fill:#212121;fill-opacity:1" d="M430.121 222.277c1.438-.086 2.645.239 3.613.97 1.38 2.839 2.102 5.741 2.168 8.714h-4.336a50.877 50.877 0 0 1-1.445-9.684Zm0 0"/><path style="stroke:none;fill-rule:evenodd;fill:#171717;fill-opacity:1" d="M467.71 222.277h4.337c.664 3.27 1.629 6.5 2.894 9.684h-4.34c-.507-3.297-1.472-6.524-2.89-9.684ZM503.855 222.277c3.848 2.532 5.774 5.758 5.782 9.684H505.3c-.48-3.227-.965-6.457-1.446-9.684Zm0 0"/><path style="stroke:none;fill-rule:evenodd;fill:#1c1c1c;fill-opacity:1" d="M535.664 222.277H540c.168 3.254.648 6.48 1.445 9.684h-4.336c-.48-3.227-.964-6.457-1.445-9.684Zm0 0"/><path style="stroke:none;fill-rule:evenodd;fill:#151515;fill-opacity:1" d="M566.023 222.277h4.34c-1.25 12.778-2.695 12.778-4.34 0ZM336.145 223.246c1.44-.086 2.644.238 3.613.969 1.894 2.906 2.137 5.812.722 8.715-2.777-2.926-4.222-6.153-4.335-9.684Zm0 0"/><path style="stroke:none;fill-rule:evenodd;fill:#262626;fill-opacity:1" d="M386.746 222.277c1.442-.086 2.645.239 3.617.97 1.375 2.839 2.098 5.741 2.168 8.714h-4.34a50.877 50.877 0 0 1-1.445-9.684Zm0 0"/><path style="stroke:none;fill-rule:evenodd;fill:#1a1a1a;fill-opacity:1" d="M272.531 224.215c3.86 2.59 6.27 5.816 7.227 9.683h-4.336c-.824-2.882-2.274-5.628-4.336-8.234.8-.371 1.285-.851 1.445-1.45Zm0 0"/><path style="stroke:none;fill-rule:evenodd;fill:#1e1e1e;fill-opacity:1" d="M599.277 225.18v9.687c-2.867-2.02-4.312-4.601-4.336-7.75.067-2.652 1.512-3.297 4.336-1.937Zm0 0"/><path style="stroke:none;fill-rule:evenodd;fill:#202020;fill-opacity:1" d="M13.734 228.086c1.817-.035 3.262.45 4.34 1.453-3.433 1.977-6.328 4.234-8.676 6.781-1.773.543-3.218.223-4.34-.968a130.136 130.136 0 0 0 8.676-7.266Zm0 0"/><path style="stroke:none;fill-rule:evenodd;fill:#1e1e1e;fill-opacity:1" d="M171.324 230.992c4.184 1.34 7.801 3.278 10.844 5.813.871 1.418.148 2.386-2.168 2.906-4.102-2.414-6.992-5.32-8.676-8.719Zm0 0"/><path style="stroke:none;fill-rule:evenodd;fill:#0a0a0a;fill-opacity:1" d="M391.086 237.773c1.023-.875 2.469-1.199 4.336-.968 1.594 12.36.148 12.68-4.336.968Zm0 0"/><path style="stroke:none;fill-rule:evenodd;fill:#1f1f1f;fill-opacity:1" d="M434.457 236.805h4.34c.168 3.254.648 6.48 1.445 9.683h-4.34c-.48-3.226-.964-6.457-1.445-9.683Zm0 0"/><path style="stroke:none;fill-rule:evenodd;fill:#1c1c1c;fill-opacity:1" d="M472.047 235.836h4.34c1.3 3.266 1.3 6.492 0 9.684-.848-.204-1.57-.524-2.168-.97-.727-2.917-1.45-5.823-2.172-8.714Zm0 0"/><path style="stroke:none;fill-rule:evenodd;fill:#171717;fill-opacity:1" d="M506.746 235.836h4.34c.168 3.254.648 6.48 1.445 9.684h-4.34c.059-3.274-.421-6.5-1.445-9.684Zm0 0"/><path style="stroke:none;fill-rule:evenodd;fill:#1e1e1e;fill-opacity:1" d="M538.555 235.836h4.336a29.695 29.695 0 0 1 1.445 9.684H540c.059-3.274-.422-6.5-1.445-9.684Zm0 0"/><path style="stroke:none;fill-rule:evenodd;fill:#232323;fill-opacity:1" d="M568.914 235.836h4.34a29.68 29.68 0 0 0 1.445 9.684c-2.347.136-4.035-.508-5.062-1.938a21.442 21.442 0 0 1-.723-7.746Zm0 0"/><path style="stroke:none;fill-rule:evenodd;fill:#1b1b1b;fill-opacity:1" d="M279.758 237.773c1.441-.085 2.644.239 3.617.97 1.652 2.839 2.86 5.741 3.613 8.714h-4.336a56.768 56.768 0 0 1-2.894-9.684Zm0 0"/><path style="stroke:none;fill-rule:evenodd;fill:#161616;fill-opacity:1" d="M341.926 236.805c1.441-.086 2.644.238 3.617.968 1.527 2.954 1.77 5.86.723 8.715-3.188-2.851-4.633-6.082-4.34-9.683Zm0 0"/><path style="stroke:none;fill-rule:evenodd;fill:#1c1c1c;fill-opacity:1" d="M-.723 244.55v-4.84c.891-.108 1.618-.429 2.168-.968 2.403 2.313 1.68 4.25-2.168 5.809Zm0 0"/><path style="stroke:none;fill-rule:evenodd;fill:#171717;fill-opacity:1" d="M185.781 241.648c3.367 2.266 6.262 4.848 8.676 7.747-.445.78-1.168 1.43-2.168 1.937-4.336-2.875-6.504-6.105-6.508-9.684Zm0 0"/><path style="stroke:none;fill-rule:evenodd;fill:#0f0f0f;fill-opacity:1" d="M438.797 250.363c2.066.367 3.273 1.336 3.613 2.907 1.176 2.324.934 4.585-.723 6.777-2.433-3.004-3.398-6.23-2.89-9.684Zm0 0"/><path style="stroke:none;fill-rule:evenodd;fill:#101010;fill-opacity:1" d="M476.387 250.363c1.437-.082 2.644.239 3.613.969 1.188 2.957.945 5.863-.723 8.715-1.89-3.106-2.855-6.332-2.89-9.684Zm0 0"/><path style="stroke:none;fill-rule:evenodd;fill:#151515;fill-opacity:1" d="M509.637 251.332c1.027-.875 2.472-1.2 4.34-.969a50.877 50.877 0 0 1 1.445 9.684h-4.336c.445-3.11-.035-6.016-1.45-8.715Zm0 0"/><path style="stroke:none;fill-rule:evenodd;fill:#131313;fill-opacity:1" d="M541.445 250.363h4.336c.168 3.254.653 6.48 1.45 9.684h-4.34c.23-3.293-.254-6.524-1.446-9.684Zm0 0"/><path style="stroke:none;fill-rule:evenodd;fill:#141414;fill-opacity:1" d="M571.809 250.363h4.336c-.594 12.774-2.043 12.774-4.336 0ZM346.266 252.3c2.039-1.284 3.722-.964 5.058.97a19.136 19.136 0 0 0 2.168 6.292c-1.367.47-2.816.63-4.336.485a20.487 20.487 0 0 0-2.89-7.746Zm0 0"/><path style="stroke:none;fill-rule:evenodd;fill:#1b1b1b;fill-opacity:1" d="M395.422 250.363h4.336c1.523 3.246 1.523 6.473 0 9.684-2.528-2.969-3.977-6.195-4.336-9.684Zm0 0"/><path style="stroke:none;fill-rule:evenodd;fill:#1f1f1f;fill-opacity:1" d="M285.543 251.332h4.336a56.403 56.403 0 0 1 2.89 9.684h-4.335c-.965-3.227-1.926-6.457-2.891-9.684Zm0 0"/><path style="stroke:none;fill-rule:evenodd;fill:#1b1b1b;fill-opacity:1" d="M195.902 254.238c1.442-.086 2.645.239 3.618.969 1.687 2.258 3.37 4.52 5.058 6.777-.48.97-1.445 1.618-2.89 1.938-2.75-3.031-4.68-6.262-5.786-9.684ZM350.602 264.89h4.34a50.87 50.87 0 0 1 1.445 9.688h-4.34a29.703 29.703 0 0 0-1.445-9.687Zm0 0"/><path style="stroke:none;fill-rule:evenodd;fill:#141414;fill-opacity:1" d="M399.758 264.89h4.34c-.563 12.798-2.008 12.798-4.34 0Zm0 0"/><path style="stroke:none;fill-rule:evenodd;fill:#1b1b1b;fill-opacity:1" d="M441.688 264.89h4.335c.465 3.294-.02 6.52-1.445 9.688-2.433-3.008-3.394-6.234-2.89-9.687Zm0 0"/><path style="stroke:none;fill-rule:evenodd;fill:#282828;fill-opacity:1" d="M479.277 263.922c1.442-.082 2.645.242 3.614.969.722 3.214.96 6.441.722 9.687h-4.336v-10.656Zm0 0"/><path style="stroke:none;fill-rule:evenodd;fill:#272727;fill-opacity:1" d="M512.531 263.922h4.336c.324 3.562.809 7.117 1.446 10.656h-4.336c-.641-3.539-1.122-7.094-1.446-10.656Zm0 0"/><path style="stroke:none;fill-rule:evenodd;fill:#1b1b1b;fill-opacity:1" d="M548.676 268.766c.61 2.207-.356 3.824-2.895 4.843a29.929 29.929 0 0 1-1.445-9.687h4.34v4.844Zm0 0"/><path style="stroke:none;fill-rule:evenodd;fill:#1a1a1a;fill-opacity:1" d="M574.7 264.89c1.57.118 2.534.762 2.89 1.938 1.113 2.531 1.594 5.113 1.445 7.75H574.7v-9.687Zm0 0"/><path style="stroke:none;fill-rule:evenodd;fill:#1f1f1f;fill-opacity:1" d="M291.324 264.89h4.34c1.3 3.266 1.3 6.497 0 9.688-.848-.203-1.57-.527-2.172-.969-.722-2.918-1.445-5.824-2.168-8.718Zm0 0"/><path style="stroke:none;fill-rule:evenodd;fill:#141414;fill-opacity:1" d="M206.023 266.828c2.34 1.57 4.028 3.508 5.063 5.813 1.129 1.398.887 2.687-.723 3.87-2.73-2.218-4.66-4.804-5.785-7.745a38.787 38.787 0 0 0 1.445-1.938Zm0 0"/><path style="stroke:none;fill-rule:evenodd;fill:#8e8e8e;fill-opacity:1" d="M548.676 268.766c1.386 1.707 1.87 3.644 1.445 5.812-1.867.227-3.312-.094-4.34-.969 2.54-1.02 3.504-2.636 2.895-4.843Zm0 0"/><path style="stroke:none;fill-rule:evenodd;fill:#111;fill-opacity:1" d="M515.422 278.45c1.57.116 2.535.76 2.89 1.937 1.114 2.535 1.594 5.117 1.446 7.75h-4.336v-9.688Zm0 0"/><path style="stroke:none;fill-rule:evenodd;fill:#181818;fill-opacity:1" d="M547.23 278.45c1.805.073 3.012.722 3.614 1.937.718 2.562.96 5.144.722 7.75h-4.336v-9.688Zm0 0"/><path style="stroke:none;fill-rule:evenodd;fill:#171717;fill-opacity:1" d="M576.145 278.45h4.335v9.687h-4.335v-9.688Zm0 0"/><path style="stroke:none;fill-rule:evenodd;fill:#1c1c1c;fill-opacity:1" d="M295.664 279.418H300a29.703 29.703 0 0 1 1.445 9.687h-4.336c.227-3.296-.254-6.523-1.445-9.687Zm0 0"/><path style="stroke:none;fill-rule:evenodd;fill:#0a0a0a;fill-opacity:1" d="M359.277 282.324c-1.289 7.367-2.734 7.047-4.336-.969-.191-.847.29-1.492 1.446-1.937a46.227 46.227 0 0 0 2.89 2.906Zm0 0"/><path style="stroke:none;fill-rule:evenodd;fill:#878787;fill-opacity:1" d="M359.277 282.324a46.227 46.227 0 0 1-2.89-2.906c-1.157.445-1.637 1.09-1.446 1.937-1.308-.687-1.789-1.656-1.449-2.906h5.785v3.875Zm0 0"/><path style="stroke:none;fill-rule:evenodd;fill:#212121;fill-opacity:1" d="M402.652 278.45h4.336v9.687h-4.336v-9.688Zm0 0"/><path style="stroke:none;fill-rule:evenodd;fill:#1a1a1a;fill-opacity:1" d="M444.578 278.45h4.336v9.687h-4.336v-9.688Zm0 0"/><path style="stroke:none;fill-rule:evenodd;fill:#020202;fill-opacity:1" d="M482.168 278.45c1.848 1.155 2.812 2.769 2.89 4.843-.48 1.613-.96 3.227-1.445 4.844-1.425-3.168-1.906-6.395-1.445-9.688Zm0 0"/><path style="stroke:none;fill-rule:evenodd;fill:#1b1b1b;fill-opacity:1" d="M211.809 280.387c1.437-.082 2.644.242 3.613.968 1.656 2.84 2.86 5.747 3.613 8.72H214.7c-.965-3.231-1.926-6.458-2.89-9.688Zm0 0"/><path style="stroke:none;fill-rule:evenodd;fill:#181818;fill-opacity:1" d="M357.832 292.977c1.805.078 3.012.722 3.613 1.937.72 2.563.961 5.149.723 7.75h-4.336v-9.687Zm0 0"/><path style="stroke:none;fill-rule:evenodd;fill:#0d0d0d;fill-opacity:1" d="M405.543 292.977c1.723.457 2.687 1.425 2.89 2.906a34.329 34.329 0 0 1 1.446 6.781h-4.336v-9.687Zm0 0"/><path style="stroke:none;fill-rule:evenodd;fill:#1b1b1b;fill-opacity:1" d="M446.023 292.977h4.34v9.687h-4.34v-9.687Zm0 0"/><path style="stroke:none;fill-rule:evenodd;fill:#1a1a1a;fill-opacity:1" d="M483.613 292.977c1.809.078 3.012.722 3.617 1.937.72 2.563.957 5.149.723 7.75h-4.34v-9.687Zm0 0"/><path style="stroke:none;fill-rule:evenodd;fill:#151515;fill-opacity:1" d="M516.867 292.977h4.336v9.687h-4.336v-9.687Zm0 0"/><path style="stroke:none;fill-rule:evenodd;fill:#1f1f1f;fill-opacity:1" d="M548.676 292.977h4.336v9.687h-4.336v-9.687Zm0 0"/><path style="stroke:none;fill-rule:evenodd;fill:#0c0c0c;fill-opacity:1" d="M577.59 292.977c2.258 1.605 3.703 3.543 4.336 5.812v3.875h-4.336v-9.687Zm0 0"/><path style="stroke:none;fill-rule:evenodd;fill:#282828;fill-opacity:1" d="M298.555 292.977h4.336a32.544 32.544 0 0 1 1.445 10.656H300a32.753 32.753 0 0 0-1.445-10.656Zm0 0"/><path style="stroke:none;fill-rule:evenodd;fill:#181818;fill-opacity:1" d="M217.59 294.914c1.808.074 3.012.723 3.613 1.938 1.563 2.484 2.285 5.066 2.172 7.75h-4.34a50.917 50.917 0 0 0-1.445-9.688Zm0 0"/><path style="stroke:none;fill-rule:evenodd;fill:#606060;fill-opacity:1" d="M577.59 292.977c1.027-.875 2.472-1.196 4.336-.97v6.782c-.633-2.27-2.078-4.207-4.336-5.812Zm0 0"/><path style="stroke:none;fill-rule:evenodd;fill:#1e1e1e;fill-opacity:1" d="M301.445 307.508h4.336v9.683h-4.336v-9.683Zm0 0"/><path style="stroke:none;fill-rule:evenodd;fill:#171717;fill-opacity:1" d="M359.277 307.508h4.336v9.683h-4.336v-9.683Zm0 0"/><path style="stroke:none;fill-rule:evenodd;fill:#060606;fill-opacity:1" d="M406.988 307.508c1.848 1.156 2.809 2.77 2.89 4.84-.48 1.617-.964 3.23-1.444 4.843-1.426-3.164-1.91-6.394-1.446-9.683Zm0 0"/><path style="stroke:none;fill-rule:evenodd;fill:#1d1d1d;fill-opacity:1" d="M447.469 306.54h4.34v10.651h-4.34V306.54Zm0 0"/><path style="stroke:none;fill-rule:evenodd;fill:#0a0a0a;fill-opacity:1" d="M487.953 307.508c.82 3.707-.144 6.937-2.894 9.683-.82-3.707.144-6.937 2.894-9.683Zm0 0"/><path style="stroke:none;fill-rule:evenodd;fill:#000;fill-opacity:1" d="M518.313 316.223v-5.813c-.317-1.137.164-2.105 1.445-2.902.484 1.449.965 2.902 1.445 4.355-.098 1.926-1.062 3.38-2.89 4.36ZM553.012 307.508v8.715c-1.828-.98-2.793-2.434-2.89-4.36.097-1.922 1.062-3.375 2.89-4.355Zm0 0"/><path style="stroke:none;fill-rule:evenodd;fill:#777;fill-opacity:1" d="M487.953 307.508c-2.75 2.746-3.715 5.976-2.894 9.683-1.418-3.351-1.899-6.906-1.446-10.652 1.867-.23 3.313.09 4.34.969Zm0 0"/><path style="stroke:none;fill-rule:evenodd;fill:#656565;fill-opacity:1" d="M553.012 307.508c-1.828.98-2.793 2.433-2.89 4.355.097 1.926 1.062 3.38 2.89 4.36-1.024.875-2.469 1.199-4.336.968V306.54c1.867-.23 3.312.09 4.336.969Zm0 0"/><path style="stroke:none;fill-rule:evenodd;fill:#121212;fill-opacity:1" d="M220.48 308.473h4.34a29.703 29.703 0 0 0 1.446 9.687h-4.34a29.718 29.718 0 0 0-1.446-9.687Zm0 0"/><path style="stroke:none;fill-rule:evenodd;fill:#9a9a9a;fill-opacity:1" d="M577.59 306.54h5.785v10.651h-5.785V306.54Zm0 0"/><path style="stroke:none;fill-rule:evenodd;fill:#000;fill-opacity:1" d="M579.035 307.508c1.828.98 2.793 2.433 2.89 4.355-.48 1.453-.96 2.907-1.445 4.36-1.421-2.836-1.902-5.743-1.445-8.715Zm0 0"/><path style="stroke:none;fill-rule:evenodd;fill:#6f6f6f;fill-opacity:1" d="M518.313 316.223c1.828-.98 2.792-2.434 2.89-4.36-.48-1.453-.96-2.906-1.445-4.355-1.281.797-1.762 1.765-1.446 2.902-1.347-1.031-1.832-2.324-1.445-3.87h5.785v10.651c-1.867.23-3.312-.093-4.34-.968Zm0 0"/><path style="stroke:none;fill-rule:evenodd;fill:#1d1d1d;fill-opacity:1" d="M406.988 321.066h4.336v10.653h-4.336v-10.653Zm0 0"/><path style="stroke:none;fill-rule:evenodd;fill:#060606;fill-opacity:1" d="M448.914 321.066c1.848 1.157 2.813 2.77 2.895 4.84-.485 1.617-.965 3.23-1.446 4.844-1.43-3.164-1.91-6.395-1.449-9.684Zm0 0"/><path style="stroke:none;fill-rule:evenodd;fill:#171717;fill-opacity:1" d="M485.059 321.066h4.34v9.684h-4.34v-9.684Zm0 0"/><path style="stroke:none;fill-rule:evenodd;fill:#030303;fill-opacity:1" d="M553.012 321.066c.824 3.707-.14 6.938-2.89 9.684-.825-3.707.14-6.938 2.89-9.684Zm0 0"/><path style="stroke:none;fill-rule:evenodd;fill:#171717;fill-opacity:1" d="M579.035 321.066h4.34v9.684h-4.34v-9.684Zm0 0"/><path style="stroke:none;fill-rule:evenodd;fill:#070606;fill-opacity:1" d="M110.602 333.656c-2.266-.941-4.676-1.105-7.227-.484a149.15 149.15 0 0 1-8.676 10.168c-3.023-.23-5.918.578-8.676 2.422-1.445.648-2.89.648-4.335 0-1.79-2.535-1.79-5.117 0-7.746-4.602-1.938-7.012-4.684-7.231-8.235 3.973.305 7.828-.02 11.566-.969 4.34-9.039 8.676-9.039 13.012 0 3.742.95 7.598 1.274 11.567.97v3.874Zm0 0"/><path style="stroke:none;fill-rule:evenodd;fill:#202020;fill-opacity:1" d="M223.375 323.004h4.336v9.683h-4.336v-9.683Zm0 0"/><path style="stroke:none;fill-rule:evenodd;fill:#171717;fill-opacity:1" d="M518.313 321.066h4.34v9.684h-4.34v-9.684Zm0 0"/><path style="stroke:none;fill-rule:evenodd;fill:#999;fill-opacity:1" d="M359.277 321.066h5.782v10.653h-5.782v-10.653Zm0 0"/><path style="stroke:none;fill-rule:evenodd;fill:#000;fill-opacity:1" d="M360.723 322.035c1.828.98 2.793 2.434 2.89 4.356-.48 1.453-.965 2.906-1.445 4.359-1.422-2.836-1.902-5.742-1.445-8.715Zm0 0"/><path style="stroke:none;fill-rule:evenodd;fill:#797979;fill-opacity:1" d="M553.012 321.066c1.422 3.352 1.902 6.903 1.445 10.653-1.867.23-3.312-.094-4.336-.969 2.75-2.746 3.715-5.977 2.89-9.684Zm0 0"/><path style="stroke:none;fill-rule:evenodd;fill:#191919;fill-opacity:1" d="M302.89 322.035h4.34v9.684h-4.34v-9.684Zm0 0"/><path style="stroke:none;fill-rule:evenodd;fill:#e17f28;fill-opacity:1" d="M110.602 333.656c3.925 6.23 8.265 12.364 13.011 18.403-.687.945-1.652 1.753-2.89 2.421-9.637.645-19.278.645-28.914 0-.809-.703-1.29-1.511-1.446-2.421 1.875-2.832 3.32-5.735 4.336-8.72a149.15 149.15 0 0 0 8.676-10.167c2.55-.621 4.96-.457 7.227.484Zm0 0"/><path style="stroke:none;fill-rule:evenodd;fill:#111;fill-opacity:1" d="M406.988 335.594h4.336v9.683h-4.336v-9.683Zm0 0"/><path style="stroke:none;fill-rule:evenodd;fill:#000;fill-opacity:1" d="M448.914 335.594c1.848 1.156 2.813 2.77 2.895 4.844-.485 1.613-.965 3.226-1.446 4.84-1.43-3.165-1.91-6.395-1.449-9.684Zm0 0"/><path style="stroke:none;fill-rule:evenodd;fill:#181818;fill-opacity:1" d="M485.059 335.594h4.34v9.683h-4.34v-9.683Zm0 0"/><path style="stroke:none;fill-rule:evenodd;fill:#121212;fill-opacity:1" d="M518.313 335.594h4.34v9.683h-4.34v-9.683Zm0 0"/><path style="stroke:none;fill-rule:evenodd;fill:#1d1d1d;fill-opacity:1" d="M550.121 335.594h4.336v9.683h-4.336v-9.683Zm0 0"/><path style="stroke:none;fill-rule:evenodd;fill:#151515;fill-opacity:1" d="M579.035 335.594h4.34v9.683h-4.34v-9.683Zm0 0"/><path style="stroke:none;fill-rule:evenodd;fill:#191919;fill-opacity:1" d="M302.89 335.594h4.34v10.652h-4.34v-10.652Zm0 0"/><path style="stroke:none;fill-rule:evenodd;fill:#010101;fill-opacity:1" d="M360.723 335.594c1.847 1.156 2.812 2.77 2.89 4.844-.48 1.613-.965 3.226-1.445 4.84-1.426-3.165-1.906-6.395-1.445-9.684Zm0 0"/><path style="stroke:none;fill-rule:evenodd;fill:#0a0a0a;fill-opacity:1" d="M223.375 337.531c2.75 2.746 3.71 5.977 2.89 9.684-2.75-2.746-3.714-5.977-2.89-9.684Zm0 0"/><path style="stroke:none;fill-rule:evenodd;fill:#757575;fill-opacity:1" d="M223.375 337.531c1.023-.875 2.469-1.199 4.336-.969.457 3.75-.027 7.301-1.445 10.653.82-3.707-.141-6.938-2.891-9.684Zm0 0"/><path style="stroke:none;fill-rule:evenodd;fill:#171717;fill-opacity:1" d="M302.89 350.121c2.75 2.746 3.715 5.977 2.891 9.684h-4.336c.168-3.254.649-6.48 1.446-9.684Zm0 0"/><path style="stroke:none;fill-rule:evenodd;fill:#131313;fill-opacity:1" d="M359.277 350.121h4.336v9.684h-4.336v-9.684Zm0 0"/><path style="stroke:none;fill-rule:evenodd;fill:#1e1e1e;fill-opacity:1" d="M406.988 350.121h4.336v9.684h-4.336v-9.684Zm0 0"/><path style="stroke:none;fill-rule:evenodd;fill:#191919;fill-opacity:1" d="M447.469 350.121h4.34v9.684h-4.34v-9.684Zm0 0"/><path style="stroke:none;fill-rule:evenodd;fill:#030303;fill-opacity:1" d="M485.059 350.121c2.75 2.746 3.714 5.977 2.894 9.684-2.75-2.746-3.715-5.977-2.894-9.684Zm0 0"/><path style="stroke:none;fill-rule:evenodd;fill:#212121;fill-opacity:1" d="M518.313 350.121h4.34v9.684h-4.34v-9.684Zm0 0"/><path style="stroke:none;fill-rule:evenodd;fill:#040404;fill-opacity:1" d="M550.121 350.121c1.844 1.156 2.809 2.77 2.89 4.844-.48 1.613-.964 3.226-1.445 4.84-1.425-3.164-1.91-6.395-1.445-9.684Zm0 0"/><path style="stroke:none;fill-rule:evenodd;fill:#050505;fill-opacity:1" d="M579.035 350.121c2.75 2.746 3.715 5.977 2.89 9.684-2.745-2.746-3.71-5.977-2.89-9.684Zm0 0"/><path style="stroke:none;fill-rule:evenodd;fill:#8c8c8c;fill-opacity:1" d="M485.059 350.121c1.027-.875 2.472-1.2 4.34-.969.453 3.75-.028 7.301-1.446 10.653.82-3.707-.144-6.938-2.894-9.684Zm0 0"/><path style="stroke:none;fill-rule:evenodd;fill:#828282;fill-opacity:1" d="M579.035 350.121c1.028-.875 2.473-1.2 4.34-.969.453 3.75-.027 7.301-1.45 10.653.825-3.707-.14-6.938-2.89-9.684Zm0 0"/><path style="stroke:none;fill-rule:evenodd;fill:#191919;fill-opacity:1" d="M221.926 351.09h4.34a29.695 29.695 0 0 0-1.446 9.683h-4.34c.485-3.226.965-6.457 1.446-9.683Zm0 0"/><path style="stroke:none;fill-rule:evenodd;fill:#1b1b1b;fill-opacity:1" d="M300 364.648h4.336a21.292 21.292 0 0 1-.723 7.75c-.445.782-1.168 1.426-2.168 1.938-1.425-3.168-1.906-6.395-1.445-9.688Zm0 0"/><path style="stroke:none;fill-rule:evenodd;fill:#191919;fill-opacity:1" d="M359.277 364.648c2.75 2.75 3.715 5.977 2.891 9.688h-4.336a29.703 29.703 0 0 1 1.445-9.688Zm0 0"/><path style="stroke:none;fill-rule:evenodd;fill:#121212;fill-opacity:1" d="M409.879 367.555c-.637 2.27-2.082 4.207-4.336 5.812v-9.687h4.336v3.875Zm0 0"/><path style="stroke:none;fill-rule:evenodd;fill:#151515;fill-opacity:1" d="M450.363 366.586v7.75h-4.34v-2.906c.961-2.13 1.926-4.39 2.891-6.782 1.156.442 1.637 1.09 1.45 1.938Zm0 0"/><path style="stroke:none;fill-rule:evenodd;fill:#828282;fill-opacity:1" d="M450.363 366.586c.188-.848-.293-1.496-1.449-1.938-.965 2.391-1.93 4.653-2.89 6.782v-7.75h5.785c.34 1.25-.141 2.218-1.446 2.906Zm0 0"/><path style="stroke:none;fill-rule:evenodd;fill:#1e1e1e;fill-opacity:1" d="M483.613 363.68h4.34v9.687h-4.34v-9.687Zm0 0"/><path style="stroke:none;fill-rule:evenodd;fill:#202020;fill-opacity:1" d="M516.867 363.68h4.336v10.656h-4.336V363.68Zm0 0"/><path style="stroke:none;fill-rule:evenodd;fill:#1c1c1c;fill-opacity:1" d="M548.676 363.68h4.336v9.687h-4.336v-9.687ZM577.59 363.68h4.336v10.656h-4.336V363.68Zm0 0"/><path style="stroke:none;fill-rule:evenodd;fill:#141414;fill-opacity:1" d="M219.035 365.617c1.7-.21 3.145.11 4.34.969-1.313 2.828-1.793 5.734-1.45 8.715h-4.335c.48-3.227.965-6.457 1.445-9.684Zm0 0"/><path style="stroke:none;fill-rule:evenodd;fill:#6b6b6b;fill-opacity:1" d="M409.879 367.555v6.78c-1.867.228-3.313-.093-4.336-.968 2.254-1.605 3.7-3.543 4.336-5.812Zm0 0"/><path style="stroke:none;fill-rule:evenodd;fill:#141414;fill-opacity:1" d="M446.023 378.207c2.75 2.75 3.715 5.977 2.891 9.688h-4.336a50.917 50.917 0 0 1 1.445-9.688Zm0 0"/><path style="stroke:none;fill-rule:evenodd;fill:#161616;fill-opacity:1" d="M482.168 378.207h4.34c.504 3.453-.461 6.684-2.895 9.688-1.425-3.168-1.906-6.395-1.445-9.688Zm0 0"/><path style="stroke:none;fill-rule:evenodd;fill:#1d1d1d;fill-opacity:1" d="M515.422 378.207h4.336v9.688h-4.336v-9.688Zm0 0"/><path style="stroke:none;fill-rule:evenodd;fill:#1a1a1a;fill-opacity:1" d="M547.23 378.207h4.336v9.688h-4.336v-9.688Zm0 0"/><path style="stroke:none;fill-rule:evenodd;fill:#171717;fill-opacity:1" d="M576.145 378.207h4.335v9.688h-4.335v-9.688Zm0 0"/><path style="stroke:none;fill-rule:evenodd;fill:#1e1e1e;fill-opacity:1" d="M298.555 378.207h4.336c-4.13 12.738-5.575 12.738-4.336 0Zm0 0"/><path style="stroke:none;fill-rule:evenodd;fill:#191919;fill-opacity:1" d="M356.387 378.207h4.336c-.48 3.23-.965 6.457-1.446 9.688h-4.336a50.917 50.917 0 0 0 1.446-9.688Zm0 0"/><path style="stroke:none;fill-rule:evenodd;fill:#111;fill-opacity:1" d="M404.098 378.207h4.336a29.703 29.703 0 0 0-1.446 9.688h-4.336c1.02-3.184 1.5-6.41 1.446-9.688Zm0 0"/><path style="stroke:none;fill-rule:evenodd;fill:#191919;fill-opacity:1" d="M214.7 379.176h4.335a57.148 57.148 0 0 0-2.89 9.687h-4.336c.964-3.23 1.925-6.457 2.89-9.687Zm0 0"/><path style="stroke:none;fill-rule:evenodd;fill:#161616;fill-opacity:1" d="M297.11 399.516h-4.34c1.043-2.192 1.523-4.454 1.449-6.782h4.336a35.044 35.044 0 0 1-1.446 6.782Zm0 0"/><path style="stroke:none;fill-rule:evenodd;fill:#131313;fill-opacity:1" d="M356.387 399.516h-4.34a34.472 34.472 0 0 0 1.445-6.782c1.524-.144 2.969.02 4.34.485-1.336 1.976-1.816 4.078-1.445 6.297Zm0 0"/><path style="stroke:none;fill-rule:evenodd;fill:#0d0d0d;fill-opacity:1" d="M404.098 399.516h-2.895v-6.782h4.34a34.532 34.532 0 0 0-1.445 6.782Zm0 0"/><path style="stroke:none;fill-rule:evenodd;fill:#191919;fill-opacity:1" d="M446.023 399.516h-2.89v-6.782h4.336c.078 2.329-.406 4.59-1.446 6.782Zm0 0"/><path style="stroke:none;fill-rule:evenodd;fill:#000;fill-opacity:1" d="M483.613 399.516h-2.89c.964-9.04 1.925-9.04 2.89 0Zm0 0"/><path style="stroke:none;fill-rule:evenodd;fill:#181818;fill-opacity:1" d="M518.313 399.516h-4.336v-6.782h4.336v6.782Zm0 0"/><path style="stroke:none;fill-rule:evenodd;fill:#0c0c0c;fill-opacity:1" d="M548.676 399.516h-2.895v-6.782h4.34a34.532 34.532 0 0 0-1.445 6.782Zm0 0"/><path style="stroke:none;fill-rule:evenodd;fill:#1b1b1b;fill-opacity:1" d="M579.035 399.516H574.7v-7.75h4.336v7.75Zm0 0"/><path style="stroke:none;fill-rule:evenodd;fill:#1e1e1e;fill-opacity:1" d="M210.363 399.516h-4.34c.106-3.567 2.516-5.825 7.23-6.782-.964 2.262-1.929 4.524-2.89 6.782Zm0 0"/></svg>