<svg xmlns="http://www.w3.org/2000/svg" width="600" height="400"><path style="stroke:none;fill-rule:evenodd;fill:#fefefe;fill-opacity:1" d="M-.625-.656h600v14.472h-600V-.656Zm0 0"/><path style="stroke:none;fill-rule:evenodd;fill:#9cb1cd;fill-opacity:1" d="M20.582 13.816h36.176v13.157h-4.992V16.449H25.57v10.524h-4.988V13.816Zm0 0"/><path style="stroke:none;fill-rule:evenodd;fill:#9bb1cd;fill-opacity:1" d="M423.492 13.816h36.176V28.29h-4.988V16.45h-26.2v11.84h-4.988V13.816Zm0 0"/><path style="stroke:none;fill-rule:evenodd;fill:#e6e6e7;fill-opacity:1" d="M459.668 13.816h139.707v2.633h-138.46v11.84h-1.247V13.816Zm0 0"/><path style="stroke:none;fill-rule:evenodd;fill:#dadfe6;fill-opacity:1" d="M56.758 13.816h164.656v2.633H58.004v68.418c.414 99.785 0 199.348-1.246 298.684V13.816Zm0 0"/><path style="stroke:none;fill-rule:evenodd;fill:#e7e7e7;fill-opacity:1" d="M258.836 13.816h164.656V28.29h-1.246V16.45h-163.41v-2.633Zm0 0"/><path style="stroke:none;fill-rule:evenodd;fill:#b5c8df;fill-opacity:1" d="M51.766 26.973H25.57V16.449h26.196v10.524Zm0 0"/><path style="stroke:none;fill-rule:evenodd;fill:#fefefe;fill-opacity:1" d="M221.414 16.45v68.417H97.922v-7.894c-12.7-.43-25.176.007-37.422 1.316v6.578h-2.496V16.45h163.41Zm0 0"/><path style="stroke:none;fill-rule:evenodd;fill:#b7c8df;fill-opacity:1" d="M221.414 13.816h2.496v47.368h-2.496V13.816Zm0 0"/><path style="stroke:none;fill-rule:evenodd;fill:#8faacc;fill-opacity:1" d="M223.91 13.816h32.43v47.368h-2.492V16.449h-27.446v44.735h-2.492V13.816Zm0 0"/><path style="stroke:none;fill-rule:evenodd;fill:#b5c7df;fill-opacity:1" d="M253.848 61.184h-27.446V16.449h27.446v44.735Zm0 0"/><path style="stroke:none;fill-rule:evenodd;fill:#becde2;fill-opacity:1" d="M256.34 13.816h2.496v47.368h-2.496V13.816Zm0 0"/><path style="stroke:none;fill-rule:evenodd;fill:#fefefe;fill-opacity:1" d="M258.836 16.45h163.41v68.417H298.754V32.238c-12.25-1.308-24.723-1.746-37.422-1.316v53.945h-2.496V16.45Zm0 0"/><path style="stroke:none;fill-rule:evenodd;fill:#b5c8df;fill-opacity:1" d="M454.68 28.29h-26.2V16.45h26.2v11.84Zm0 0"/><path style="stroke:none;fill-rule:evenodd;fill:#fefefe;fill-opacity:1" d="M599.375 16.45v68.417h-98.543v-25H463.41v25h-2.496V16.45h138.461Zm0 0"/><path style="stroke:none;fill-rule:evenodd;fill:#ebebca;fill-opacity:1" d="M298.754 32.238h-36.176c-.41 17.778.004 35.32 1.246 52.63v3.948h-2.492V30.922c12.7-.43 25.172.008 37.422 1.316Zm0 0"/><path style="stroke:none;fill-rule:evenodd;fill:#e3e3ae;fill-opacity:1" d="M298.754 32.238v52.63h-2.496V33.55h-32.434v51.316c-1.242-17.308-1.656-34.851-1.246-52.629h36.176Zm0 0"/><path style="stroke:none;fill-rule:evenodd;fill:#d5d586;fill-opacity:1" d="M296.258 84.867h-2.496V36.184H266.32v52.633h-2.496V33.55h32.434v51.316Zm0 0"/><path style="stroke:none;fill-rule:evenodd;fill:#e3e3af;fill-opacity:1" d="M293.762 84.867H266.32V36.184h27.442v48.683Zm0 0"/><path style="stroke:none;fill-rule:evenodd;fill:#b0c3dc;fill-opacity:1" d="M26.82 91.45c-1.207-2.774-1.625-5.845-1.25-9.212a779.92 779.92 0 0 1 25.575-27.633 28.41 28.41 0 0 1 0 11.844 668.135 668.135 0 0 1-24.325 25Zm0 0"/><path style="stroke:none;fill-rule:evenodd;fill:#e3e3ae;fill-opacity:1" d="M500.832 79.605h-2.496V62.5h-32.43v17.105h-2.496V59.867h37.422v19.738Zm0 0"/><path style="stroke:none;fill-rule:evenodd;fill:#d5d586;fill-opacity:1" d="M498.336 79.605h-2.492V65.133h-27.446v14.472h-2.492V62.5h32.43v17.105Zm0 0"/><path style="stroke:none;fill-rule:evenodd;fill:#e3e3ad;fill-opacity:1" d="M495.844 79.605h-27.446V65.133h27.446v14.472Zm0 0"/><path style="stroke:none;fill-rule:evenodd;fill:#f2f2da;fill-opacity:1" d="M60.5 78.29c12.246-1.31 24.723-1.747 37.422-1.317v7.894C96.734 83 96.32 80.81 96.672 78.29H60.5Zm0 0"/><path style="stroke:none;fill-rule:evenodd;fill:#bbbc3c;fill-opacity:1" d="M463.41 79.605h37.422v5.262H463.41v-5.262Zm0 0"/><path style="stroke:none;fill-rule:evenodd;fill:#dadaae;fill-opacity:1" d="M60.5 78.29h36.172c-.352 2.519.062 4.71 1.25 6.577V96.711h-1.25a42.59 42.59 0 0 0-2.492-6.578c-1.16 1.562-1.575 3.316-1.25 5.262H65.488c.328-1.946-.09-3.7-1.246-5.262-.695 2.41-1.941 4.164-3.742 5.262V78.289Zm0 0"/><path style="stroke:none;fill-rule:evenodd;fill:#d8d78c;fill-opacity:1" d="M62.992 79.605h32.434v5.262a97.566 97.566 0 0 0-31.184 0c-1.16-1.562-1.574-3.316-1.25-5.262Zm0 0"/><path style="stroke:none;fill-rule:evenodd;fill:#d2d2ad;fill-opacity:1" d="M266.32 84.867h32.434v3.95H266.32v-3.95Zm0 0"/><path style="stroke:none;fill-rule:evenodd;fill:#e5e5e5;fill-opacity:1" d="M298.754 84.867h123.492v5.266H298.754v-5.266Zm0 0"/><path style="stroke:none;fill-rule:evenodd;fill:#b7b75c;fill-opacity:1" d="M463.41 84.867h14.969a927.354 927.354 0 0 0-4.988 6.582c-3.055-1.281-6.383-1.722-9.98-1.316v-5.266Zm0 0"/><path style="stroke:none;fill-rule:evenodd;fill:#e5e6e5;fill-opacity:1" d="M500.832 84.867h98.543v5.266h-98.543v-5.266Zm0 0"/><path style="stroke:none;fill-rule:evenodd;fill:#fcfcfc;fill-opacity:1" d="M-.625 13.816h21.207v13.157A16312.401 16312.401 0 0 0 19.336 312.5H-.625V13.816Zm0 0"/><path style="stroke:none;fill-rule:evenodd;fill:#4d79b2;fill-opacity:1" d="M20.582 26.973h36.176V158.55c-3.196.398-6.106-.04-8.735-1.313 3.77-4.129 4.602-8.957 2.497-14.476a676.327 676.327 0 0 0-24.325 25 28.41 28.41 0 0 0 0 11.843 226.06 226.06 0 0 1 14.344-14.472h8.734a639.567 639.567 0 0 1-23.078 25 28.392 28.392 0 0 0 0 11.84 776.019 776.019 0 0 0 25.57-27.63c1.212-2.773 1.626-5.843 1.25-9.21h3.743V383.55H20.582V238.816h3.742c-.37 2.77.043 5.399 1.246 7.895.758-.164 1.176-.602 1.25-1.316a703.15 703.15 0 0 1 24.325-26.317c1.02-3.586.812-7.098-.625-10.527-8.34 8.363-16.657 16.695-24.95 25h-4.988V90.133h3.742c-.191 4.41.637 4.847 2.496 1.316a668.135 668.135 0 0 0 24.325-25 28.41 28.41 0 0 0 0-11.844A779.92 779.92 0 0 0 25.57 82.238c-1.207 1.719-2.867 2.594-4.988 2.63V26.972Zm0 0"/><path style="stroke:none;fill-rule:evenodd;fill:#b1c4dd;fill-opacity:1" d="M50.52 32.238c1.417 3.688 1.628 7.633.625 11.84l-24.95 26.317a28.41 28.41 0 0 1 0-11.844A706.37 706.37 0 0 0 50.52 32.238Zm0 0"/><path style="stroke:none;fill-rule:evenodd;fill:#b1c4de;fill-opacity:1" d="M29.313 32.238c3.765-.218 7.507 0 11.226.657-4.781 5.042-9.562 10.09-14.344 15.132-1.53-6.004-.492-11.265 3.117-15.789Zm0 0"/><path style="stroke:none;fill-rule:evenodd;fill:#b1c3db;fill-opacity:1" d="M49.273 76.973c1.555 1.097 2.387 2.851 2.493 5.265l-.621 5.262-24.95 26.316a28.41 28.41 0 0 1 0-11.843 250.845 250.845 0 0 0 23.078-25Zm0 0"/><path style="stroke:none;fill-rule:evenodd;fill:#4c78b2;fill-opacity:1" d="M221.414 61.184h37.422v23.683h-4.988c.16-.972-.047-1.847-.625-2.629-8.73 9.211-17.465 18.418-26.196 27.63a28.41 28.41 0 0 0 0 11.843c8.73-9.211 17.465-18.422 26.196-27.633a6.824 6.824 0 0 0 .625-3.945h3.742v68.418h-3.742a45.002 45.002 0 0 0-.625-10.524c-8.73 9.211-17.465 18.422-26.196 27.63a28.41 28.41 0 0 0 0 11.843 535.08 535.08 0 0 1 21.828-22.367h8.735v68.418h-11.227a59.673 59.673 0 0 1 6.86-7.895 28.392 28.392 0 0 0 0-11.84c-8.73 9.211-17.465 18.422-26.196 27.633a28.392 28.392 0 0 0 0 11.84 227.079 227.079 0 0 1 14.344-14.473c2.79-.39 5.285.051 7.484 1.317a573.09 573.09 0 0 1-21.828 23.683 28.392 28.392 0 0 0 0 11.84c8.73-9.207 17.465-18.418 26.196-27.629.62-3.039.828-6.109.625-9.21h3.742v68.421h-3.742a11.702 11.702 0 0 0-.625-5.265l-26.196 27.632a28.41 28.41 0 0 0 0 11.844 856.87 856.87 0 0 0 26.82-28.949h3.743v68.422c-1.996.351-3.66-.086-4.992-1.317 1.422-3.69 1.629-7.636.625-11.843a171.424 171.424 0 0 0-11.852 13.16h-9.976a567.69 567.69 0 0 1 21.828-23.684 28.41 28.41 0 0 0 0-11.843l-26.196 27.632a25.656 25.656 0 0 0-.625 7.895h-4.988V61.184Zm0 0"/><path style="stroke:none;fill-rule:evenodd;fill:#b0c2da;fill-opacity:1" d="M246.363 66.45h7.485a11.691 11.691 0 0 1-.625 5.26c-8.73 9.212-17.465 18.423-26.196 27.634a28.41 28.41 0 0 1 0-11.844 451.264 451.264 0 0 0 19.336-21.05Zm0 0"/><path style="stroke:none;fill-rule:evenodd;fill:#acc0db;fill-opacity:1" d="M226.402 66.45c3.766-.22 7.508 0 11.227.655-3.531 3.727-7.066 7.457-10.602 11.184a56.914 56.914 0 0 1-.625-11.84Zm0 0"/><path style="stroke:none;fill-rule:evenodd;fill:#b0c3dc;fill-opacity:1" d="M253.848 84.867v5.266a6.824 6.824 0 0 1-.625 3.945c-8.73 9.211-17.465 18.422-26.196 27.633a28.41 28.41 0 0 1 0-11.844c8.73-9.21 17.465-18.418 26.196-27.629.578.782.785 1.657.625 2.63Zm0 0"/><path style="stroke:none;fill-rule:evenodd;fill:#fefefe;fill-opacity:1" d="M300 90.133h122.246v68.418h-42.414v-10.524H342.41v84.211h-2.492c.406-14.273-.008-28.308-1.25-42.105v-50h-36.172c-1.031 5.894-1.656 12.035-1.871 18.418-.625-22.801-.832-45.61-.625-68.418Zm0 0"/><path style="stroke:none;fill-rule:evenodd;fill:#dedeac;fill-opacity:1" d="M478.379 84.867h11.226l-3.742 5.266a313.926 313.926 0 0 0-16.84 17.105 28.41 28.41 0 0 1 0-11.843 37.418 37.418 0 0 1 4.368-3.946 927.354 927.354 0 0 1 4.988-6.582Zm0 0"/><path style="stroke:none;fill-rule:evenodd;fill:#fefefe;fill-opacity:1" d="M500.832 90.133h98.543v142.105h-17.46c.41-19.093-.009-37.953-1.25-56.582V157.238c-12.282-.433-24.34.008-36.173 1.313h-43.66V90.133Zm0 0"/><path style="stroke:none;fill-rule:evenodd;fill:#b1c4de;fill-opacity:1" d="M50.52 98.027c1.417 3.688 1.628 7.637.625 11.84-8.317 8.774-16.633 17.547-24.95 26.317a28.392 28.392 0 0 1 0-11.84A709.579 709.579 0 0 0 50.52 98.027Zm0 0"/><path style="stroke:none;fill-rule:evenodd;fill:#b0c3dd;fill-opacity:1" d="M50.52 120.395c1.417 3.687 1.628 7.636.625 11.843a674.708 674.708 0 0 1-24.325 25c-1.437-3.43-1.644-6.941-.625-10.527a706.476 706.476 0 0 0 24.325-26.316Zm0 0"/><path style="stroke:none;fill-rule:evenodd;fill:#dfdfa8;fill-opacity:1" d="M276.3 157.238c-2.042 2.598-4.12 5.23-6.238 7.895-1.195.594-2.234 1.472-3.117 2.629-.582-.782-.789-1.657-.625-2.63v-6.581a298.885 298.885 0 0 1 26.82-30.262 28.41 28.41 0 0 1 0 11.844 319.692 319.692 0 0 1-16.84 17.105Zm0 0"/><path style="stroke:none;fill-rule:evenodd;fill:#dedea7;fill-opacity:1" d="M484.617 157.238a32.867 32.867 0 0 0-7.484 7.895 69.202 69.202 0 0 0-8.11 7.894 28.41 28.41 0 0 1 0-11.843c8.73-9.211 17.465-18.422 26.196-27.633a28.41 28.41 0 0 1 0 11.844 137.473 137.473 0 0 0-10.602 11.843Zm0 0"/><path style="stroke:none;fill-rule:evenodd;fill:#cfc5de;fill-opacity:1" d="M580.664 174.344c-1.223-4.559-1.64-9.383-1.246-14.477h-33.68c.395 5.094-.023 9.918-1.246 14.477V158.55c11.832-1.305 23.89-1.746 36.172-1.313v17.106Zm0 0"/><path style="stroke:none;fill-rule:evenodd;fill:#6587b2;fill-opacity:1" d="M48.023 157.238c2.63 1.274 5.54 1.711 8.735 1.313v6.582h-3.742c.375 3.367-.04 6.437-1.25 9.21.207-3.538 0-7.046-.621-10.527-.477.73-1.102 1.168-1.872 1.317H40.54c2.082-3.07 4.574-5.703 7.484-7.895Zm0 0"/><path style="stroke:none;fill-rule:evenodd;fill:#b8b859;fill-opacity:1" d="M276.3 157.238c2.2 1.262 4.696 1.703 7.485 1.313a1976.448 1976.448 0 0 0-6.238 7.898c-2.203-1.265-4.695-1.707-7.485-1.316 2.118-2.664 4.196-5.297 6.239-7.895Zm0 0"/><path style="stroke:none;fill-rule:evenodd;fill:#e8e8e8;fill-opacity:1" d="M379.832 158.55h42.414v6.583h-42.414v-6.582Zm0 0"/><path style="stroke:none;fill-rule:evenodd;fill:#b8b85b;fill-opacity:1" d="M484.617 157.238c2.2 1.262 4.695 1.703 7.485 1.313-1.664 2.633-3.743 4.828-6.239 6.582h-8.73a32.867 32.867 0 0 1 7.484-7.895Zm0 0"/><path style="stroke:none;fill-rule:evenodd;fill:#e7e7e8;fill-opacity:1" d="M500.832 158.55h43.66v17.106h-1.25v-10.523h-42.41v-6.582Zm0 0"/><path style="stroke:none;fill-rule:evenodd;fill:#b7a8ce;fill-opacity:1" d="M580.664 174.344v1.312h-36.172v-1.312c1.223-4.559 1.64-9.383 1.246-14.477h33.68c-.395 5.094.023 9.918 1.246 14.477Zm0 0"/><path style="stroke:none;fill-rule:evenodd;fill:#b1c3db;fill-opacity:1" d="M48.023 157.238c-2.91 2.192-5.402 4.825-7.484 7.895a226.06 226.06 0 0 0-14.344 14.472 28.41 28.41 0 0 1 0-11.843 676.327 676.327 0 0 1 24.325-25c2.105 5.52 1.273 10.347-2.497 14.476Zm0 0"/><path style="stroke:none;fill-rule:evenodd;fill:#b1c4dd;fill-opacity:1" d="M51.766 174.344a776.019 776.019 0 0 1-25.57 27.629 28.392 28.392 0 0 1 0-11.84 639.567 639.567 0 0 0 23.077-25c.77-.149 1.395-.586 1.872-1.317.62 3.48.828 6.989.62 10.528Zm0 0"/><path style="stroke:none;fill-rule:evenodd;fill:#bbbc3b;fill-opacity:1" d="M298.754 90.133V233.55c-3.602.406-6.926-.035-9.98-1.313 4.874-4.195 6.12-9.457 3.742-15.789-5.848 5.727-11.668 11.43-17.465 17.102a21.798 21.798 0 0 1-7.485-.656c.696-.504 1.11-1.16 1.25-1.973a672.841 672.841 0 0 0 24.325-25 28.41 28.41 0 0 0 0-11.844 783.348 783.348 0 0 0-25.575 27.633c-1.218 3.668-1.632 7.613-1.246 11.84h-3.742v-68.418h3.742c-.164.972.043 1.847.625 2.629.883-1.157 1.922-2.035 3.118-2.63 2.789-.39 5.28.052 7.484 1.317-3.7 3.238-7.23 6.746-10.602 10.524a28.41 28.41 0 0 0 0 11.843c8.73-9.21 17.461-18.421 26.196-27.632 1.02-3.586.812-7.098-.625-10.528a2592.125 2592.125 0 0 1-8.73 7.895c-2.79.39-5.286-.051-7.485-1.313a319.692 319.692 0 0 0 16.84-17.105 28.41 28.41 0 0 0 0-11.844 298.885 298.885 0 0 0-26.82 30.262h-3.743V90.133h36.176Zm0 0"/><path style="stroke:none;fill-rule:evenodd;fill:#e1e1a9;fill-opacity:1" d="M292.516 105.922c1.418 3.687 1.629 7.637.625 11.84-8.735 9.21-17.465 18.422-26.196 27.633a28.41 28.41 0 0 1 0-11.844 783.393 783.393 0 0 0 25.57-27.63Zm0 0"/><path style="stroke:none;fill-rule:evenodd;fill:#e1e1a8;fill-opacity:1" d="M282.535 94.078a48.49 48.49 0 0 1 11.227.66c-8.938 9.43-17.88 18.86-26.817 28.29a28.41 28.41 0 0 1 0-11.844 293.05 293.05 0 0 0 15.59-17.106Zm0 0"/><path style="stroke:none;fill-rule:evenodd;fill:#dcdc99;fill-opacity:1" d="M266.32 94.078c2.528-.21 5.024.008 7.485.66l-6.86 7.235a25.536 25.536 0 0 1-.625-7.895Zm0 0"/><path style="stroke:none;fill-rule:evenodd;fill:#dedea8;fill-opacity:1" d="M277.547 166.45c2.043-2.602 4.121-5.231 6.238-7.9 2.887-2.597 5.797-5.23 8.73-7.894 1.438 3.43 1.645 6.942.626 10.528-8.735 9.21-17.465 18.421-26.196 27.632a28.41 28.41 0 0 1 0-11.843 121.297 121.297 0 0 1 10.602-10.524Zm0 0"/><path style="stroke:none;fill-rule:evenodd;fill:#f3e6ce;fill-opacity:1" d="M298.754 90.133H300c-.207 22.808 0 45.617.625 68.418.215-6.383.84-12.524 1.871-18.418V383.55c-1.039-72.582-1.664-145.39-1.871-218.418-.21 47.59-.832 94.957-1.871 142.105V90.133Zm0 0"/><path style="stroke:none;fill-rule:evenodd;fill:#f1c8a4;fill-opacity:1" d="M302.496 140.133h36.172v48.683c-2.238-7.347-3.277-15.242-3.117-23.683a225.999 225.999 0 0 0-.625 23.683h-27.442v-43.421h27.442a70.219 70.219 0 0 0 .625 13.156c.62-5.242.832-10.508.625-15.79h-31.188c.805 15.856-.027 31.208-2.492 46.055v-48.683Zm0 0"/><path style="stroke:none;fill-rule:evenodd;fill:#cec2e1;fill-opacity:1" d="M379.832 158.55v39.477h-2.492v-47.37h-32.434v47.37h-2.496v-50h37.422v10.524Zm0 0"/><path style="stroke:none;fill-rule:evenodd;fill:#b4a0d2;fill-opacity:1" d="M377.34 198.027h-2.496V153.29h-27.442v44.738h-2.496v-47.37h32.434v47.37Zm0 0"/><path style="stroke:none;fill-rule:evenodd;fill:#cdc0e0;fill-opacity:1" d="M374.844 198.027h-27.442V153.29h27.442v44.738Zm0 0"/><path style="stroke:none;fill-rule:evenodd;fill:#bbbc3b;fill-opacity:1" d="M463.41 90.133c3.598-.406 6.926.035 9.98 1.316a37.418 37.418 0 0 0-4.367 3.946 28.41 28.41 0 0 0 0 11.843 313.926 313.926 0 0 1 16.84-17.105h8.73a776.02 776.02 0 0 1-25.57 27.629 28.41 28.41 0 0 0 0 11.843l26.196-27.632c.62-3.922.828-7.871.625-11.84h3.742v68.418h-3.742c.16-.969-.047-1.848-.625-2.63-.883 1.161-1.926 2.036-3.117 2.63-2.79.39-5.286-.051-7.485-1.313a137.473 137.473 0 0 1 10.602-11.843 28.41 28.41 0 0 0 0-11.844l-26.196 27.633a28.41 28.41 0 0 0 0 11.843 69.202 69.202 0 0 1 8.11-7.894h8.73a340.795 340.795 0 0 1-16.84 18.418 28.41 28.41 0 0 0 0 11.844 298.884 298.884 0 0 0 26.82-30.262h3.743v68.418h-3.742a56.914 56.914 0 0 0-.625-11.84 153.336 153.336 0 0 1-11.852 11.84c-2.789.39-5.281-.051-7.484-1.313a447.262 447.262 0 0 1 19.336-21.054 28.392 28.392 0 0 0 0-11.84c-8.73 9.207-17.465 18.418-26.196 27.629-1.003 4.207-.796 8.152.625 11.843h8.73a108.81 108.81 0 0 1-9.355 10.528 28.392 28.392 0 0 0 0 11.84 535.081 535.081 0 0 1 21.829-22.368h8.734v68.422h-11.227a58.9 58.9 0 0 1 6.86-7.894 28.41 28.41 0 0 0 0-11.844 418.067 418.067 0 0 1-19.336 19.738H463.41V90.133Zm0 0"/><path style="stroke:none;fill-rule:evenodd;fill:#e1e1a8;fill-opacity:1" d="M494.594 112.5c1.422 3.688 1.629 7.637.625 11.844-8.73 9.207-17.465 18.418-26.196 27.629a28.392 28.392 0 0 1 0-11.84c8.778-9.04 17.301-18.25 25.57-27.633Zm0 0"/><path style="stroke:none;fill-rule:evenodd;fill:#e1e1a9;fill-opacity:1" d="M494.594 90.133h1.25a56.914 56.914 0 0 1-.625 11.84l-26.196 27.632a28.41 28.41 0 0 1 0-11.843 776.02 776.02 0 0 0 25.57-27.63Zm0 0"/><path style="stroke:none;fill-rule:evenodd;fill:#e0e0aa;fill-opacity:1" d="M495.844 158.55v6.583a298.884 298.884 0 0 1-26.82 30.262 28.41 28.41 0 0 1 0-11.844 340.795 340.795 0 0 0 16.84-18.418c2.495-1.754 4.574-3.95 6.238-6.582 1.191-.594 2.234-1.469 3.117-2.63.578.782.785 1.661.625 2.63Zm0 0"/><path style="stroke:none;fill-rule:evenodd;fill:#c4c467;fill-opacity:1" d="M489.605 84.867h11.227v300H463.41v-3.945h17.465c5.89 1.246 10.672-.508 14.344-5.266.61 1.703.82 3.457.625 5.266h3.742V312.5h-3.742c.16-.973-.047-1.852-.625-2.633-1.297 1.594-2.754 2.91-4.367 3.95-2.2-1.266-4.696-1.704-7.485-1.317 1.25-2.195 2.91-3.95 4.992-5.262h11.227v-68.422h-8.734c1.25-2.195 2.91-3.949 4.992-5.265h3.742v-68.418h-3.742v-6.582h3.742V90.133H485.864l3.741-5.266Zm0 0"/><path style="stroke:none;fill-rule:evenodd;fill:#cec1e1;fill-opacity:1" d="M549.48 163.816h26.196v10.528H549.48v-10.528Zm0 0"/><path style="stroke:none;fill-rule:evenodd;fill:#aec1dc;fill-opacity:1" d="M50.52 186.184c1.417 3.691 1.628 7.636.625 11.843-8.735 9.211-17.465 18.422-26.196 27.63a28.392 28.392 0 0 1 0-11.84 776.13 776.13 0 0 0 25.57-27.633Zm0 0"/><path style="stroke:none;fill-rule:evenodd;fill:#ecab70;fill-opacity:1" d="M338.668 188.816v1.317h-36.172v-1.317c2.465-14.847 3.297-30.199 2.492-46.054h31.188a100.549 100.549 0 0 1-.625 15.789 70.219 70.219 0 0 1-.625-13.156h-27.442v43.421h27.442c-.207-7.906.004-15.8.625-23.683-.16 8.441.879 16.336 3.117 23.683Zm0 0"/><path style="stroke:none;fill-rule:evenodd;fill:#cbbddf;fill-opacity:1" d="M558.21 233.55c-2.077 1.317-3.741 3.071-4.987 5.266-1.246.88-2.496 1.754-3.743 2.633v-10.527a776.13 776.13 0 0 1 25.57-27.633 28.41 28.41 0 0 1 0 11.844 340.795 340.795 0 0 0-16.84 18.418Zm0 0"/><path style="stroke:none;fill-rule:evenodd;fill:#b0c2da;fill-opacity:1" d="M26.82 245.395c-1.218-3.668-1.636-7.614-1.25-11.844 8.293-8.305 16.61-16.637 24.95-25 1.437 3.43 1.644 6.941.625 10.527a703.15 703.15 0 0 0-24.325 26.317Zm0 0"/><path style="stroke:none;fill-rule:evenodd;fill:#afc2db;fill-opacity:1" d="M50.52 229.605c1.417 3.688 1.628 7.637.625 11.844-8.735 9.207-17.465 18.418-26.196 27.63a28.392 28.392 0 0 1 0-11.84c8.778-9.04 17.301-18.25 25.57-27.634Zm0 0"/><path style="stroke:none;fill-rule:evenodd;fill:#c8c96d;fill-opacity:1" d="M261.332 88.816h37.422v1.317h-36.176v68.418h3.742v6.582h-3.742v68.418h3.742c-.386-4.227.028-8.172 1.246-11.84-.375 3.367.043 6.437 1.25 9.21-.14.813-.554 1.47-1.25 1.974 2.461.652 4.957.87 7.485.656-1.7 2.226-3.363 4.422-4.988 6.582-2.204-1.266-4.696-1.707-7.485-1.317v68.422h4.988v11.84c-1.27-1.043-1.683-3.234-1.246-6.578h-3.742v68.422h-1.246V88.816Zm0 0"/><path style="stroke:none;fill-rule:evenodd;fill:#f8f8f2;fill-opacity:1" d="M460.914 84.867h2.496V384.867h-3.742a18105.47 18105.47 0 0 0 1.246-300Zm0 0"/><path style="stroke:none;fill-rule:evenodd;fill:#8a6aba;fill-opacity:1" d="M544.492 175.656h36.172v131.582c-3.191.395-6.101-.043-8.73-1.316 1.195-.598 2.234-1.473 3.117-2.633a28.392 28.392 0 0 0 0-11.84 270.602 270.602 0 0 1-15.59 15.79h-8.734a706.477 706.477 0 0 1 24.324-26.317 28.41 28.41 0 0 0 0-11.844 779.525 779.525 0 0 0-25.57 27.633c-1.215 3.219-1.63 6.73-1.247 10.527h-3.742v-68.422h3.742c-.32 2.5.098 3.38 1.246 2.633 1.247-.879 2.497-1.754 3.743-2.633 2.789-.39 5.28.051 7.484 1.317a138.67 138.67 0 0 1-10.602 11.84c-1.023 3.59-.816 7.097.622 10.527a668.651 668.651 0 0 0 24.324-25 28.41 28.41 0 0 0 0-11.844 69.477 69.477 0 0 1-8.106 7.895h-8.734a340.795 340.795 0 0 1 16.84-18.418 28.41 28.41 0 0 0 0-11.844 776.13 776.13 0 0 0-25.57 27.633c-1.208 1.719-2.872 2.594-4.989 2.629v-57.895Zm0 0"/><path style="stroke:none;fill-rule:evenodd;fill:#cbbde0;fill-opacity:1" d="M573.18 182.238c1.558 1.098 2.39 2.852 2.496 5.262-.207 1.754-.414 3.508-.625 5.262l-24.946 26.316a28.392 28.392 0 0 1 0-11.84 639.46 639.46 0 0 0 23.075-25Zm0 0"/><path style="stroke:none;fill-rule:evenodd;fill:#cabce0;fill-opacity:1" d="M554.469 180.922c3.426-.414 6.754.027 9.98 1.316a109.926 109.926 0 0 1-13.722 14.473c-2.38-6.332-1.13-11.598 3.742-15.79Zm0 0"/><path style="stroke:none;fill-rule:evenodd;fill:#c9bcde;fill-opacity:1" d="M560.707 240.133c2.496-1.754 4.574-3.95 6.238-6.582a69.477 69.477 0 0 0 8.106-7.895 28.41 28.41 0 0 1 0 11.844 668.651 668.651 0 0 1-24.324 25c-1.438-3.43-1.645-6.938-.622-10.527a138.67 138.67 0 0 0 10.602-11.84Zm0 0"/><path style="stroke:none;fill-rule:evenodd;fill:#aec1dc;fill-opacity:1" d="M50.52 251.973c1.417 3.691 1.628 7.636.625 11.843-8.735 9.211-17.465 18.422-26.196 27.633a28.41 28.41 0 0 1 0-11.844 772.764 772.764 0 0 0 25.57-27.632Zm0 0"/><path style="stroke:none;fill-rule:evenodd;fill:#b0c3dd;fill-opacity:1" d="M31.809 305.922c-2.032 1.48-3.903 3.234-5.614 5.262a45.023 45.023 0 0 1-.625-10.528 363.924 363.924 0 0 1 24.95-26.312c1.437 3.426 1.644 6.937.625 10.523a449.209 449.209 0 0 0-19.336 21.055Zm0 0"/><path style="stroke:none;fill-rule:evenodd;fill:#6e8cb4;fill-opacity:1" d="M25.57 300.656c-.203 3.54.004 7.047.625 10.528 1.711-2.028 3.582-3.782 5.614-5.262 2.203 1.262 4.695 1.703 7.484 1.316-1.246 2.192-2.91 3.946-4.988 5.262h-9.98c-.387-4.227.027-8.176 1.245-11.844Zm0 0"/><path style="stroke:none;fill-rule:evenodd;fill:#bbaad6;fill-opacity:1" d="M543.242 175.656h1.25v57.895c2.117-.035 3.781-.91 4.988-2.63v10.528c-1.148.746-1.566-.133-1.246-2.633h-3.742V383.551a8664.586 8664.586 0 0 1-1.25-207.895Zm0 0"/><path style="stroke:none;fill-rule:evenodd;fill:#93adce;fill-opacity:1" d="M20.582 26.973v57.894c2.121-.035 3.781-.91 4.988-2.629-.375 3.367.043 6.438 1.25 9.211-1.86 3.531-2.687 3.094-2.496-1.316h-3.742V233.55h4.988c-.386 4.23.032 8.176 1.25 11.844-.074.714-.492 1.152-1.25 1.316-1.203-2.496-1.617-5.125-1.246-7.895h-3.742v144.735h36.176c-12.25 1.308-24.723 1.746-37.422 1.316V312.5c-.418-95.398 0-190.574 1.246-285.527Zm0 0"/><path style="stroke:none;fill-rule:evenodd;fill:#aec1d9;fill-opacity:1" d="M34.305 312.5c2.078-1.316 3.742-3.07 4.988-5.262a154.09 154.09 0 0 0 11.852-11.843 28.41 28.41 0 0 1 0 11.843c-8.735 9.211-17.465 18.418-26.196 27.63a28.392 28.392 0 0 1 0-11.84 108.87 108.87 0 0 0 9.356-10.528Zm0 0"/><path style="stroke:none;fill-rule:evenodd;fill:#97afce;fill-opacity:1" d="M422.246 28.29h1.246v352.632h4.988c3.88.308 7.622-.129 11.227-1.317 2.656 1.485 5.566 1.704 8.734.657l6.86-7.235c.617 2.594.828 5.227.625 7.895h3.742V28.289h1.246v56.578a18105.47 18105.47 0 0 1-1.246 300 261.757 261.757 0 0 1-36.8-1.316c-.622-23.68-.833-47.363-.622-71.051V28.289Zm0 0"/><path style="stroke:none;fill-rule:evenodd;fill:#4e7ab2;fill-opacity:1" d="M423.492 28.29h36.176v352.632h-3.742c.203-2.668-.008-5.3-.625-7.895l-6.86 7.235c-3.168 1.047-6.078.828-8.734-.657a228.16 228.16 0 0 0 14.348-14.472 28.41 28.41 0 0 0 0-11.844 779.918 779.918 0 0 0-25.575 27.633h-4.988V28.289Zm0 0"/><path style="stroke:none;fill-rule:evenodd;fill:#b0c2db;fill-opacity:1" d="M453.43 155.922c1.422 3.687 1.629 7.637.625 11.84a668.652 668.652 0 0 1-24.325 25c-1.437-3.426-1.644-6.938-.625-10.524a706.223 706.223 0 0 0 24.325-26.316Zm0 0"/><path style="stroke:none;fill-rule:evenodd;fill:#b1c3db;fill-opacity:1" d="M453.43 133.55c1.422 3.692 1.629 7.641.625 11.845-8.317 8.773-16.633 17.542-24.95 26.316a28.41 28.41 0 0 1 0-11.844 703.15 703.15 0 0 0 24.325-26.316Zm0 0"/><path style="stroke:none;fill-rule:evenodd;fill:#b0c3dd;fill-opacity:1" d="M452.184 112.5c1.554 1.098 2.386 2.852 2.496 5.262-.211 1.754-.418 3.511-.625 5.265-8.317 8.77-16.633 17.543-24.95 26.317a28.41 28.41 0 0 1 0-11.844 636.773 636.773 0 0 0 23.079-25ZM453.43 90.133c1.422 3.687 1.629 7.637.625 11.84a668.652 668.652 0 0 1-24.325 25c-1.437-3.43-1.644-6.938-.625-10.524a706.223 706.223 0 0 0 24.325-26.316Zm0 0"/><path style="stroke:none;fill-rule:evenodd;fill:#b1c3db;fill-opacity:1" d="M453.43 67.762c1.422 3.691 1.629 7.636.625 11.843l-24.95 26.317a28.41 28.41 0 0 1 0-11.844 703.15 703.15 0 0 0 24.325-26.316Zm0 0"/><path style="stroke:none;fill-rule:evenodd;fill:#b0c3dd;fill-opacity:1" d="M452.184 46.71c1.554 1.099 2.386 2.852 2.496 5.263-.211 1.754-.418 3.511-.625 5.265l-24.95 26.313a28.392 28.392 0 0 1 0-11.84 636.774 636.774 0 0 0 23.079-25Zm0 0"/><path style="stroke:none;fill-rule:evenodd;fill:#afc3dd;fill-opacity:1" d="M444.7 33.55c3.425-.41 6.753.028 9.98 1.317a363.791 363.791 0 0 1-24.95 26.317c-1.437-3.43-1.644-6.938-.625-10.528A293.122 293.122 0 0 0 444.7 33.551ZM428.48 33.55c2.122-.206 4.2.013 6.239.66a8256.649 8256.649 0 0 0-5.614 5.923 17.905 17.905 0 0 1-.625-6.582Zm0 0"/><path style="stroke:none;fill-rule:evenodd;fill:#b2a0cd;fill-opacity:1" d="M580.664 175.656c1.242 18.63 1.66 37.489 1.25 56.582.207 50.438 0 100.88-.625 151.313-12.387 1.75-24.656 1.75-36.797 0v-2.63h8.73c3.88.31 7.622-.128 11.227-1.316 4.457 2.239 8.406 1.36 11.852-2.632a6.803 6.803 0 0 1 .62 3.949h3.743V175.656Zm0 0"/><path style="stroke:none;fill-rule:evenodd;fill:#fdfdfd;fill-opacity:1" d="M58.004 84.867H60.5V383.551c12.246 1.308 24.723 1.746 37.422 1.316V232.238h2.492v152.629h37.422V232.238h2.496v152.63c12.7.429 25.176-.009 37.422-1.317 1.246-23.453 1.66-47.137 1.25-71.051h42.41V384.867h37.422v-300h2.496v300c12.7.43 25.172-.008 37.422-1.316v-76.313c1.039-47.148 1.66-94.515 1.871-142.105.207 73.027.832 145.836 1.871 218.418a124.99 124.99 0 0 0 36.172 0 4587.562 4587.562 0 0 0 1.25-151.313h2.492v152.629h37.422V312.5h42.414c-.21 23.688 0 47.371.621 71.05a261.757 261.757 0 0 0 36.801 1.317H500.832V165.133h42.41v10.523c-.414 69.524.004 138.82 1.25 207.895 12.14 1.75 24.41 1.75 36.797 0 .625-50.434.832-100.875.625-151.313h17.461v167.106h-600V312.5h19.96v72.367c12.7.43 25.173-.008 37.423-1.316 1.246-99.336 1.66-198.899 1.246-298.684Zm0 0"/><path style="stroke:none;fill-rule:evenodd;fill:#d5d595;fill-opacity:1" d="M261.332 380.922h1.246c11.57 2.594 23.629 3.473 36.176 2.629-12.25 1.308-24.723 1.746-37.422 1.316v-3.945Zm0 0"/><path style="stroke:none;fill-rule:evenodd;fill:#dc995e;fill-opacity:1" d="M338.668 380.922v2.629a124.99 124.99 0 0 1-36.172 0v-2.63h3.742c-.297-1.698.117-3.015 1.246-3.948v3.949c2.645.23 5.141-.211 7.485-1.317 3.195 1.668 6.52 1.668 9.98 0 2.63 1.274 5.54 1.715 8.73 1.317.376-3.367-.038-6.438-1.245-9.211.351-1.04.976-1.918 1.87-2.633.622 3.926.829 7.871.622 11.844h3.742Zm0 0"/><path style="stroke:none;fill-rule:evenodd;fill:#9780b9;fill-opacity:1" d="M146.57 370.395a45.034 45.034 0 0 0 .621 10.527c.48-.73 1.102-1.172 1.871-1.317 2.63 1.274 5.543 1.715 8.735 1.317H177.753v2.629c-12.546.844-24.605-.035-36.175-2.63h3.742c-.379-3.796.035-7.304 1.25-10.526Zm0 0"/><path style="stroke:none;fill-rule:evenodd;fill:#d9985d;fill-opacity:1" d="M127.86 379.605c3.054 1.282 6.378 1.72 9.976 1.317v3.945h-37.422v-3.945h16.218c3.876.308 7.618-.129 11.227-1.317Zm0 0"/><path style="stroke:none;fill-rule:evenodd;fill:#baba60;fill-opacity:1" d="M267.566 374.344v6.578c2.239.176 4.317-.262 6.239-1.317 2.629 1.274 5.539 1.715 8.73 1.317h16.219v2.629c-12.547.844-24.606-.035-36.176-2.63h3.742c-.355-2.519.063-4.71 1.246-6.577Zm0 0"/><path style="stroke:none;fill-rule:evenodd;fill:#b9b95c;fill-opacity:1" d="M75.469 379.605c3.613 1.676 7.355 1.676 11.226 0 3.051 1.282 6.38 1.72 9.977 1.317-11.57 2.594-23.625 3.473-36.172 2.629v-2.63c5.113.345 10.102-.093 14.969-1.316Zm0 0"/><path style="stroke:none;fill-rule:evenodd;fill:#b2c5de;fill-opacity:1" d="M252.598 379.605c-3.606 1.188-7.348 1.625-11.227 1.317a171.424 171.424 0 0 1 11.852-13.16c1.004 4.207.797 8.152-.625 11.843Zm0 0"/><path style="stroke:none;fill-rule:evenodd;fill:#b1c4de;fill-opacity:1" d="M50.52 361.184c3.03 8.015.953 14.375-6.239 19.078a24.23 24.23 0 0 1-11.226 0 364.519 364.519 0 0 0 17.465-19.078ZM439.707 379.605c-3.605 1.188-7.348 1.625-11.227 1.317a779.918 779.918 0 0 1 25.575-27.633 28.41 28.41 0 0 1 0 11.844 228.16 228.16 0 0 1-14.348 14.472Zm0 0"/><path style="stroke:none;fill-rule:evenodd;fill:#b1c4dd;fill-opacity:1" d="M231.395 380.922h-4.993c-.199-2.668.008-5.3.625-7.895l26.196-27.632a28.41 28.41 0 0 1 0 11.843 567.69 567.69 0 0 0-21.828 23.684Zm0 0"/><path style="stroke:none;fill-rule:evenodd;fill:#b0c3dd;fill-opacity:1" d="M49.273 340.133c1.555 1.097 2.387 2.851 2.493 5.262l-.621 5.261a163026.45 163026.45 0 0 1-24.95 26.317 28.392 28.392 0 0 1 0-11.84 639.567 639.567 0 0 0 23.078-25Zm0 0"/><path style="stroke:none;fill-rule:evenodd;fill:#b1c4de;fill-opacity:1" d="M453.43 330.922c1.422 3.687 1.629 7.637.625 11.84l-24.95 26.316a28.392 28.392 0 0 1 0-11.84 706.223 706.223 0 0 0 24.325-26.316Zm0 0"/><path style="stroke:none;fill-rule:evenodd;fill:#afc3dd;fill-opacity:1" d="M252.598 323.027c1.422 3.688 1.629 7.637.625 11.84-8.73 9.211-17.465 18.422-26.196 27.633a28.41 28.41 0 0 1 0-11.844 776.019 776.019 0 0 0 25.57-27.629Zm0 0"/><path style="stroke:none;fill-rule:evenodd;fill:#aec1dc;fill-opacity:1" d="M50.52 317.762c1.417 3.691 1.628 7.636.625 11.843-8.735 9.211-17.465 18.422-26.196 27.633a28.41 28.41 0 0 1 0-11.843 772.763 772.763 0 0 0 25.57-27.633Zm0 0"/><path style="stroke:none;fill-rule:evenodd;fill:#cabcde;fill-opacity:1" d="M571.934 305.922c-1.625 2.16-3.29 4.351-4.989 6.578a26030.05 26030.05 0 0 0-16.218 15.79c-2.106-5.52-1.274-10.345 2.496-14.474 2.496-1.753 4.574-3.949 6.238-6.578a270.602 270.602 0 0 0 15.59-15.789 28.392 28.392 0 0 1 0 11.84c-.883 1.16-1.922 2.035-3.117 2.633Zm0 0"/><path style="stroke:none;fill-rule:evenodd;fill:#8a6aba;fill-opacity:1" d="M544.492 312.5c3.192-.398 6.102.043 8.73 1.316-3.769 4.13-4.6 8.954-2.495 14.473a26030.05 26030.05 0 0 1 16.218-15.789c2.785-.387 5.282.05 7.485 1.316a663.681 663.681 0 0 0-24.325 25 28.392 28.392 0 0 0 0 11.84 783.395 783.395 0 0 0 25.57-27.629c1.216-3.222 1.63-6.73 1.247-10.527h3.742v68.422h-3.742a6.803 6.803 0 0 0-.621-3.95c-3.446 3.993-7.395 4.872-11.852 2.633 3.696-3.238 7.23-6.75 10.602-10.527a28.392 28.392 0 0 0 0-11.84 573.093 573.093 0 0 0-21.828 23.684h-8.73V312.5Zm0 0"/><path style="stroke:none;fill-rule:evenodd;fill:#ccbee1;fill-opacity:1" d="M564.45 379.605c-3.606 1.188-7.348 1.625-11.227 1.317a573.093 573.093 0 0 1 21.828-23.684 28.392 28.392 0 0 1 0 11.84 121.893 121.893 0 0 1-10.602 10.527ZM574.43 334.867c1.418 3.692 1.625 7.637.62 11.844l-24.945 26.316a28.41 28.41 0 0 1 0-11.843 706.477 706.477 0 0 0 24.325-26.317Zm0 0"/><path style="stroke:none;fill-rule:evenodd;fill:#cbbde0;fill-opacity:1" d="M574.43 313.816c1.207 2.774 1.62 5.844 1.246 9.211a783.395 783.395 0 0 1-25.57 27.63 28.392 28.392 0 0 1 0-11.84 663.681 663.681 0 0 1 24.324-25Zm0 0"/><path style="stroke:none;fill-rule:evenodd;fill:#f3c7a0;fill-opacity:1" d="M535.758 312.5a45.046 45.046 0 0 1-.621 10.527c-8.735 9.211-17.465 18.422-26.196 27.63a28.392 28.392 0 0 1 0-11.84 706.477 706.477 0 0 0 24.325-26.317c1.117-1.324 1.945-1.324 2.492 0Zm0 0"/><path style="stroke:none;fill-rule:evenodd;fill:#efc5a0;fill-opacity:1" d="M530.77 305.922c-2.497 1.754-4.575 3.945-6.239 6.578a269.37 269.37 0 0 0-15.59 15.79 28.392 28.392 0 0 1 0-11.84c.883-1.16 1.922-2.04 3.118-2.634 1.625-2.16 3.289-4.355 4.988-6.578a366.573 366.573 0 0 0 18.09-18.422c1.82 6.809.363 12.508-4.367 17.106Zm0 0"/><path style="stroke:none;fill-rule:evenodd;fill:#e37f26;fill-opacity:1" d="M512.059 313.816c-1.196.594-2.235 1.473-3.118 2.633a28.392 28.392 0 0 0 0 11.84 269.37 269.37 0 0 1 15.59-15.789h8.735a706.477 706.477 0 0 1-24.325 26.316 28.392 28.392 0 0 0 0 11.84c8.73-9.207 17.461-18.418 26.196-27.629.617-3.484.828-6.992.62-10.527h4.993v68.422h-4.992c.07-4.781-1.176-5-3.742-.66-3.168 1.047-6.078.828-8.73-.657a170.642 170.642 0 0 1 11.85-13.156 28.41 28.41 0 0 0 0-11.844 633.771 633.771 0 0 0-23.077 25c-2.344 1.106-4.84 1.547-7.485 1.317V312.5c2.79-.387 5.281.05 7.485 1.316Zm0 0"/><path style="stroke:none;fill-rule:evenodd;fill:#f3c69f;fill-opacity:1" d="M523.285 379.605c-3.87 1.676-7.613 1.676-11.226 0a633.771 633.771 0 0 1 23.078-25 28.41 28.41 0 0 1 0 11.844 170.642 170.642 0 0 0-11.852 13.156ZM534.512 333.55c1.418 3.692 1.629 7.641.625 11.845-8.735 9.21-17.465 18.421-26.196 27.632a28.41 28.41 0 0 1 0-11.843 780.076 780.076 0 0 0 25.57-27.633Zm0 0"/><path style="stroke:none;fill-rule:evenodd;fill:#e1e1a8;fill-opacity:1" d="M495.844 312.5a34.527 34.527 0 0 1-.625 9.21c-8.73 9.212-17.465 18.423-26.196 27.634a28.41 28.41 0 0 1 0-11.844 573.091 573.091 0 0 0 21.829-23.684c1.613-1.039 3.07-2.355 4.367-3.949.578.781.785 1.66.625 2.633Zm0 0"/><path style="stroke:none;fill-rule:evenodd;fill:#dedeaa;fill-opacity:1" d="M488.36 307.238c-2.083 1.313-3.743 3.067-4.993 5.262a227.078 227.078 0 0 0-14.344 14.473c-1.23-5.23-.609-10.055 1.872-14.473 2.078-1.316 3.742-3.07 4.988-5.262a418.067 418.067 0 0 0 19.336-19.738 28.41 28.41 0 0 1 0 11.844 58.9 58.9 0 0 0-6.86 7.894Zm0 0"/><path style="stroke:none;fill-rule:evenodd;fill:#bbbc3a;fill-opacity:1" d="M463.41 312.5h7.485c-2.48 4.418-3.102 9.242-1.872 14.473a227.078 227.078 0 0 1 14.344-14.473c2.79-.387 5.285.05 7.485 1.316a573.091 573.091 0 0 1-21.829 23.684 28.41 28.41 0 0 0 0 11.844c8.73-9.211 17.465-18.422 26.196-27.633.62-3.04.828-6.11.625-9.211h3.742v68.422h-3.742a11.702 11.702 0 0 0-.625-5.266c-3.672 4.758-8.453 6.512-14.344 5.266a248.914 248.914 0 0 1 14.344-15.79 28.41 28.41 0 0 0 0-11.843 776.129 776.129 0 0 0-25.57 27.633h-6.239V312.5Zm0 0"/><path style="stroke:none;fill-rule:evenodd;fill:#e1e1a9;fill-opacity:1" d="M480.875 380.922h-11.227a776.129 776.129 0 0 1 25.57-27.633 28.41 28.41 0 0 1 0 11.844 248.914 248.914 0 0 0-14.343 15.789Zm0 0"/><path style="stroke:none;fill-rule:evenodd;fill:#e1e1a8;fill-opacity:1" d="M494.594 330.922c1.422 3.687 1.629 7.637.625 11.84l-26.196 27.633a28.41 28.41 0 0 1 0-11.844 776.019 776.019 0 0 0 25.57-27.63Zm0 0"/><path style="stroke:none;fill-rule:evenodd;fill:#b0c3dd;fill-opacity:1" d="M452.184 309.867c1.554 1.098 2.386 2.852 2.496 5.266-.211 1.754-.418 3.508-.625 5.262l-24.95 26.316a28.41 28.41 0 0 1 0-11.844 632.62 632.62 0 0 0 23.079-25Zm0 0"/><path style="stroke:none;fill-rule:evenodd;fill:#afc2da;fill-opacity:1" d="M453.43 287.5c1.422 3.691 1.629 7.637.625 11.844a676.328 676.328 0 0 1-24.325 25c-1.437-3.43-1.644-6.942-.625-10.528A703.15 703.15 0 0 0 453.43 287.5Zm0 0"/><path style="stroke:none;fill-rule:evenodd;fill:#9d84c0;fill-opacity:1" d="M378.586 198.027h1.246v186.84H342.41v-3.945H378.586V312.5h-3.742v-5.262h3.742v-68.422c-1.61-.312-2.86.125-3.742 1.317h-1.246c-2.203-1.266-4.7-1.707-7.485-1.317a22.882 22.882 0 0 1 6.235-6.578h6.238v-34.21Zm0 0"/><path style="stroke:none;fill-rule:evenodd;fill:#cabcdf;fill-opacity:1" d="M374.844 307.238v5.262a11.63 11.63 0 0 1-.625 5.262c-8.73 9.21-17.461 18.422-26.196 27.633a28.41 28.41 0 0 1 0-11.844 393.928 393.928 0 0 0 18.09-19.735 22.932 22.932 0 0 0 6.235-6.578c1.12-1.324 1.949-1.324 2.496 0Zm0 0"/><path style="stroke:none;fill-rule:evenodd;fill:#8969b9;fill-opacity:1" d="M342.41 238.816h11.227a40.788 40.788 0 0 1-5.614 6.579 28.41 28.41 0 0 0 0 11.843 363.295 363.295 0 0 1 18.09-18.422c2.785-.39 5.282.051 7.485 1.317a779.809 779.809 0 0 1-25.575 27.629 28.41 28.41 0 0 0 0 11.843c8.735-9.21 17.465-18.421 26.196-27.632.62-3.922.832-7.871.625-11.84.883-1.192 2.133-1.63 3.742-1.317v68.422h-3.742c-.547-1.324-1.375-1.324-2.496 0h-8.73a138.128 138.128 0 0 1 10.6-11.843 28.41 28.41 0 0 0 0-11.844c-8.73 9.21-17.46 18.422-26.195 27.633a28.41 28.41 0 0 0 0 11.843A121.932 121.932 0 0 1 358.63 312.5c2.785-.387 5.281.05 7.484 1.316a393.928 393.928 0 0 1-18.09 19.735 28.41 28.41 0 0 0 0 11.844c8.735-9.211 17.465-18.422 26.196-27.633.613-1.7.82-3.457.625-5.262h3.742v68.422h-3.742a34.527 34.527 0 0 0-.625-9.211 82.207 82.207 0 0 0-8.106 9.21h-9.98a394.08 394.08 0 0 1 18.086-19.737 28.392 28.392 0 0 0 0-11.84c-8.73 9.207-17.461 18.418-26.196 27.629a6.803 6.803 0 0 0-.62 3.949h-4.993V238.816Zm0 0"/><path style="stroke:none;fill-rule:evenodd;fill:#cbbde0;fill-opacity:1" d="M374.844 380.922h-8.73a82.207 82.207 0 0 1 8.105-9.211c.62 3.039.828 6.11.625 9.21ZM356.133 380.922h-8.73c-.188-1.387.019-2.7.62-3.95 8.735-9.21 17.465-18.421 26.196-27.628a28.392 28.392 0 0 1 0 11.84 394.08 394.08 0 0 0-18.086 19.738Zm0 0"/><path style="stroke:none;fill-rule:evenodd;fill:#cabce0;fill-opacity:1" d="M373.598 326.973c1.418 3.691 1.625 7.636.62 11.843-8.73 9.211-17.46 18.422-26.195 27.633a28.41 28.41 0 0 1 0-11.844 776.52 776.52 0 0 0 25.575-27.632Zm0 0"/><path style="stroke:none;fill-rule:evenodd;fill:#f1c6a1;fill-opacity:1" d="M332.434 305.922c1.207 2.773 1.62 5.844 1.246 9.21a776.02 776.02 0 0 1-25.57 27.63 28.392 28.392 0 0 1 0-11.84 315.337 315.337 0 0 1 16.84-17.106 927.75 927.75 0 0 1 4.988-6.578c.832-.441 1.664-.879 2.496-1.316Zm0 0"/><path style="stroke:none;fill-rule:evenodd;fill:#e38027;fill-opacity:1" d="M302.496 312.5h3.742a18.09 18.09 0 0 0 1.246 9.21c.758-.163 1.172-.6 1.246-1.315 2.91-2.633 5.825-5.262 8.735-7.895 2.785-.387 5.281.05 7.484 1.316a315.337 315.337 0 0 0-16.84 17.106 28.392 28.392 0 0 0 0 11.84 776.02 776.02 0 0 0 25.57-27.63c1.208-1.718 2.872-2.597 4.989-2.632v68.422h-3.742c.207-3.973 0-7.918-.621-11.844-.895.715-1.52 1.594-1.871 2.633a32.867 32.867 0 0 0-7.485 7.894c-3.46 1.668-6.785 1.668-9.98 0a361.582 361.582 0 0 0 18.086-18.421 28.392 28.392 0 0 0 0-11.84 783.394 783.394 0 0 0-25.57 27.629c-1.13.933-1.544 2.25-1.247 3.949h-3.742V312.5Zm0 0"/><path style="stroke:none;fill-rule:evenodd;fill:#f3c59d;fill-opacity:1" d="M332.434 371.71c1.207 2.774 1.62 5.845 1.246 9.212-3.192.398-6.102-.043-8.73-1.317a32.867 32.867 0 0 1 7.484-7.894Zm0 0"/><path style="stroke:none;fill-rule:evenodd;fill:#f3c7a1;fill-opacity:1" d="M314.969 379.605c-2.344 1.106-4.84 1.547-7.485 1.317v-3.95a783.394 783.394 0 0 1 25.57-27.628 28.392 28.392 0 0 1 0 11.84 361.582 361.582 0 0 1-18.085 18.421ZM332.434 326.973c1.418 3.691 1.625 7.636.62 11.843l-24.945 26.317a28.41 28.41 0 0 1 0-11.844 706.476 706.476 0 0 0 24.325-26.316Zm0 0"/><path style="stroke:none;fill-rule:evenodd;fill:#e0dfa9;fill-opacity:1" d="M283.785 312.5c2.078-1.316 3.742-3.07 4.988-5.262 1.614-1.039 3.07-2.355 4.368-3.949a28.41 28.41 0 0 1 0 11.844c-8.735 9.21-17.465 18.418-26.196 27.629a28.392 28.392 0 0 1 0-11.84 345.63 345.63 0 0 0 16.84-18.422Zm0 0"/><path style="stroke:none;fill-rule:evenodd;fill:#bbbc3b;fill-opacity:1" d="M270.063 240.133c-1.196.594-2.235 1.472-3.118 2.629a28.41 28.41 0 0 0 0 11.843 268.163 268.163 0 0 1 15.59-15.789h8.735a709.578 709.578 0 0 1-24.325 26.317 28.392 28.392 0 0 0 0 11.84c8.73-9.211 17.461-18.422 26.196-27.63.617-3.484.828-6.991.62-10.527h4.993v142.106h-4.992c.207-3.973 0-7.918-.621-11.844a138.767 138.767 0 0 0-10.606 11.844c-3.191.398-6.101-.043-8.73-1.317a449.209 449.209 0 0 1 19.336-21.054c1.02-3.586.812-7.094-.625-10.524a363.171 363.171 0 0 0-24.95 26.317c-1.183 1.867-1.601 4.058-1.246 6.578h-3.742V312.5h3.742c-.437 3.344-.023 5.535 1.246 6.578 2.497-2.191 4.993-4.383 7.485-6.578h8.734a345.63 345.63 0 0 1-16.84 18.422 28.392 28.392 0 0 0 0 11.84c8.73-9.211 17.461-18.418 26.196-27.63a28.41 28.41 0 0 0 0-11.843c-1.297 1.594-2.754 2.91-4.368 3.95-2.789.386-5.28-.055-7.484-1.317a171.424 171.424 0 0 1 11.852-13.16c1.02-3.586.812-7.098-.625-10.524-8.34 8.36-16.657 16.692-24.95 25h-4.988v-68.422c2.79-.39 5.281.051 7.485 1.317Zm0 0"/><path style="stroke:none;fill-rule:evenodd;fill:#e2e2ab;fill-opacity:1" d="M293.762 380.922h-11.227a138.767 138.767 0 0 1 10.606-11.844c.62 3.926.828 7.871.62 11.844Zm0 0"/><path style="stroke:none;fill-rule:evenodd;fill:#e1e1a9;fill-opacity:1" d="M273.805 379.605c-1.922 1.055-4 1.493-6.239 1.317v-6.578a363.171 363.171 0 0 1 24.95-26.317c1.437 3.43 1.644 6.938.625 10.524a449.209 449.209 0 0 0-19.336 21.054Zm0 0"/><path style="stroke:none;fill-rule:evenodd;fill:#e1e1a8;fill-opacity:1" d="M292.516 325.656c1.418 3.692 1.629 7.637.625 11.844-8.735 9.21-17.465 18.422-26.196 27.633a28.41 28.41 0 0 1 0-11.844 780.075 780.075 0 0 0 25.57-27.633Zm0 0"/><path style="stroke:none;fill-rule:evenodd;fill:#678ab8;fill-opacity:1" d="M253.848 84.867h4.988v300h-37.422v-3.945h19.957c3.879.308 7.621-.129 11.227-1.317 1.332 1.23 2.996 1.668 4.992 1.317V312.5h-3.742v-5.262h3.742v-68.422h-3.742c.16-.972-.047-1.851-.625-2.632-1.297 1.593-2.754 2.91-4.368 3.949-2.199-1.266-4.695-1.707-7.484-1.317 1.25-2.195 2.91-3.949 4.992-5.265h11.227v-68.418h-8.735l4.993-6.582h3.742V90.133h-3.742v-5.266Zm0 0"/><path style="stroke:none;fill-rule:evenodd;fill:#afc2db;fill-opacity:1" d="M253.848 307.238v5.262a856.87 856.87 0 0 1-26.82 28.95 28.41 28.41 0 0 1 0-11.845l26.195-27.632c.609 1.703.82 3.457.625 5.265Zm0 0"/><path style="stroke:none;fill-rule:evenodd;fill:#c9bbdd;fill-opacity:1" d="M159.043 312.5c2.082-1.316 3.742-3.07 4.992-5.262a69.794 69.794 0 0 0 8.106-7.894 28.392 28.392 0 0 1 0 11.84c-8.73 9.21-17.461 18.421-26.196 27.632a28.41 28.41 0 0 1 0-11.843 208.287 208.287 0 0 0 13.098-14.473Zm0 0"/><path style="stroke:none;fill-rule:evenodd;fill:#8969b9;fill-opacity:1" d="M146.57 249.344c3.743-3.512 7.485-7.02 11.227-10.528h8.73a505.736 505.736 0 0 1-20.582 22.368 28.41 28.41 0 0 0 0 11.843c8.735-9.21 17.465-18.422 26.196-27.632.617-2.149.824-4.344.625-6.579h4.988v142.106h-8.73c3.609-4.524 4.648-9.79 3.117-15.79a248.914 248.914 0 0 0-14.344 15.79c-3.192.398-6.106-.043-8.734-1.317a636.772 636.772 0 0 1 23.078-25c1.02-3.59.812-7.097-.621-10.527a362.278 362.278 0 0 0-24.95 26.317c-1.215 3.222-1.629 6.73-1.25 10.527h-3.742V312.5h3.742c-.316 2.5.102 3.379 1.25 2.633 1.246-.88 2.493-1.754 3.743-2.633h8.73a208.287 208.287 0 0 1-13.098 14.473 28.41 28.41 0 0 0 0 11.843c8.735-9.21 17.465-18.421 26.196-27.632a28.392 28.392 0 0 0 0-11.84 69.794 69.794 0 0 1-8.106 7.894c-2.789.387-5.285-.054-7.484-1.316a293.05 293.05 0 0 1 15.59-17.106c1.02-3.59.812-7.097-.621-10.527a361.477 361.477 0 0 0-24.95 26.316c-1.207 1.72-2.87 2.598-4.992 2.633v-68.422h3.742c-.422 4.567-.007 8.079 1.25 10.528Zm0 0"/><path style="stroke:none;fill-rule:evenodd;fill:#ccbee1;fill-opacity:1" d="M169.023 380.922h-11.226a248.914 248.914 0 0 1 14.344-15.79c1.53 6 .492 11.266-3.118 15.79Zm0 0"/><path style="stroke:none;fill-rule:evenodd;fill:#cbbde0;fill-opacity:1" d="M149.063 379.605c-.77.145-1.391.586-1.872 1.317a45.034 45.034 0 0 1-.62-10.527 362.278 362.278 0 0 1 24.949-26.317c1.433 3.43 1.64 6.938.62 10.527a636.772 636.772 0 0 0-23.077 25Zm0 0"/><path style="stroke:none;fill-rule:evenodd;fill:#cabbdf;fill-opacity:1" d="M171.52 321.71c1.417 3.688 1.625 7.638.62 11.84-8.73 9.212-17.46 18.423-26.195 27.634a28.392 28.392 0 0 1 0-11.84c8.778-9.04 17.301-18.25 25.575-27.633Zm0 0"/><path style="stroke:none;fill-rule:evenodd;fill:#ae9acc;fill-opacity:1" d="M141.578 208.55v25h8.734c-3.406 4.512-4.656 9.774-3.742 15.794-1.257-2.45-1.672-5.961-1.25-10.528h-3.742v68.422c2.121-.035 3.785-.914 4.992-2.633v10.528c-1.148.746-1.566-.133-1.25-2.633h-3.742v68.422c11.57 2.594 23.629 3.473 36.176 2.629-12.246 1.308-24.723 1.746-37.422 1.316V232.238c-.402-8.144.012-16.039 1.246-23.687Zm0 0"/><path style="stroke:none;fill-rule:evenodd;fill:#efc4a0;fill-opacity:1" d="M132.848 307.238c-.29 2.055-1.121 3.809-2.496 5.262a669.816 669.816 0 0 0-24.325 25 28.542 28.542 0 0 1 0-11.844 138.06 138.06 0 0 0 10.606-11.84 22.932 22.932 0 0 0 6.234-6.578 93.633 93.633 0 0 0 9.356-9.21c.62 3.038.828 6.109.625 9.21Zm0 0"/><path style="stroke:none;fill-rule:evenodd;fill:#e37f26;fill-opacity:1" d="M109.148 312.5c2.79-.387 5.282.05 7.485 1.316a138.06 138.06 0 0 1-10.606 11.84 28.542 28.542 0 0 0 0 11.844 669.816 669.816 0 0 1 24.325-25h7.484v68.422c-3.598.402-6.922-.035-9.977-1.317 1.614-1.039 3.07-2.355 4.364-3.949a28.392 28.392 0 0 0 0-11.84 293.051 293.051 0 0 0-15.59 17.106h-9.98a783.507 783.507 0 0 1 25.57-27.633 28.392 28.392 0 0 0 0-11.84l-26.196 27.63c-.62 3.925-.828 7.87-.62 11.843h-3.743v-67.106h3.742c-.082.575.125 1.016.621 1.317.887-1.16 1.926-2.035 3.121-2.633Zm0 0"/><path style="stroke:none;fill-rule:evenodd;fill:#f3c8a3;fill-opacity:1" d="M127.86 379.605c-3.61 1.188-7.352 1.625-11.227 1.317a293.051 293.051 0 0 1 15.59-17.106 28.392 28.392 0 0 1 0 11.84c-1.293 1.594-2.75 2.91-4.364 3.95Zm0 0"/><path style="stroke:none;fill-rule:evenodd;fill:#f3c7a1;fill-opacity:1" d="M106.652 380.922h-1.246c-.207-3.973 0-7.918.621-11.844 8.735-9.21 17.465-18.422 26.196-27.629a28.392 28.392 0 0 1 0 11.84 783.507 783.507 0 0 0-25.57 27.633Zm0 0"/><path style="stroke:none;fill-rule:evenodd;fill:#f3c69f;fill-opacity:1" d="M131.602 319.078c1.418 3.692 1.628 7.637.62 11.844-8.73 9.21-17.46 18.422-26.195 27.629a28.523 28.523 0 0 1 0-11.84 779.918 779.918 0 0 0 25.575-27.633Zm0 0"/><path style="stroke:none;fill-rule:evenodd;fill:#e28b3d;fill-opacity:1" d="M100.414 221.71h37.422v1.317h-36.172v9.211h8.73c-1.664 2.192-3.324 4.383-4.988 6.578h-3.742v68.422h3.742v6.578h-3.742v67.106h-1.25V221.71Zm0 0"/><path style="stroke:none;fill-rule:evenodd;fill:#cccd78;fill-opacity:1" d="M96.672 96.71h1.25v288.158c-12.7.429-25.176-.009-37.422-1.317 12.547.844 24.602-.035 36.172-2.63V312.5h-8.73c3.785-4.324 4.617-9.148 2.496-14.473.351-1.039.976-1.918 1.87-2.632.622 3.925.829 7.87.622 11.843h3.742v-68.422H92.93v-5.265h3.742v-68.418H92.93c.382 3.793-.032 7.304-1.246 10.523.375-3.367-.04-6.437-1.246-9.207-2.204-1.265-4.696-1.707-7.485-1.316 2.113-2.664 4.195-5.297 6.234-7.895 2.204 1.262 4.7 1.703 7.485 1.313V96.71Zm0 0"/><path style="stroke:none;fill-rule:evenodd;fill:#dfdeab;fill-opacity:1" d="M90.438 298.027c2.12 5.325 1.289 10.149-2.497 14.473a537.49 537.49 0 0 0-21.828 22.367 28.392 28.392 0 0 1 0-11.84c2.989-3.379 6.106-6.449 9.356-9.21 1.625-2.16 3.289-4.356 4.988-6.579l9.98-9.21Zm0 0"/><path style="stroke:none;fill-rule:evenodd;fill:#957eb8;fill-opacity:1" d="M571.934 305.922c2.629 1.273 5.539 1.71 8.73 1.316v5.262h-3.742c.383 3.797-.031 7.305-1.246 10.527.375-3.367-.04-6.437-1.246-9.21-2.203-1.266-4.7-1.704-7.485-1.317 1.7-2.227 3.364-4.418 4.989-6.578Zm0 0"/><path style="stroke:none;fill-rule:evenodd;fill:#9780b8;fill-opacity:1" d="M549.48 296.71c-.382 3.798.036 7.306 1.247 10.528h8.734c-1.664 2.63-3.742 4.825-6.238 6.578-2.63-1.273-5.54-1.714-8.73-1.316v-5.262h3.741c-.382-3.797.032-7.308 1.246-10.527Zm0 0"/><path style="stroke:none;fill-rule:evenodd;fill:#d28d4e;fill-opacity:1" d="M530.77 305.922c3.054 1.281 6.378 1.719 9.98 1.316v5.262h-4.992c-.547-1.324-1.375-1.324-2.492 0h-8.735c1.664-2.633 3.742-4.824 6.239-6.578Zm0 0"/><path style="stroke:none;fill-rule:evenodd;fill:#b7b75b;fill-opacity:1" d="M463.41 307.238h12.473c-1.246 2.192-2.91 3.946-4.988 5.262h-7.485v-5.262Zm0 0"/><path style="stroke:none;fill-rule:evenodd;fill:#e5e6e5;fill-opacity:1" d="M379.832 307.238h42.414v5.262h-42.414v-5.262Zm0 0"/><path style="stroke:none;fill-rule:evenodd;fill:#957eb6;fill-opacity:1" d="M363.617 307.238h8.73a22.932 22.932 0 0 1-6.234 6.578c-2.203-1.265-4.699-1.703-7.484-1.316 1.246-2.195 2.91-3.95 4.988-5.262Zm0 0"/><path style="stroke:none;fill-rule:evenodd;fill:#d38d4e;fill-opacity:1" d="M322.453 305.922c2.203 1.262 4.695 1.703 7.485 1.316a927.75 927.75 0 0 0-4.989 6.578c-2.203-1.265-4.699-1.703-7.484-1.316 1.7-2.227 3.363-4.418 4.988-6.578Zm0 0"/><path style="stroke:none;fill-rule:evenodd;fill:#d79050;fill-opacity:1" d="M302.496 307.238h7.484c-2.687 4.227-3.101 8.61-1.25 13.157-.074.714-.488 1.152-1.246 1.316a18.09 18.09 0 0 1-1.246-9.211h-3.742v-5.262Zm0 0"/><path style="stroke:none;fill-rule:evenodd;fill:#b8b85e;fill-opacity:1" d="M281.29 305.922c2.202 1.262 4.694 1.703 7.483 1.316-1.246 2.192-2.91 3.946-4.988 5.262h-8.734c1.664-2.633 3.742-4.824 6.238-6.578Zm0 0"/><path style="stroke:none;fill-rule:evenodd;fill:#e3e1e7;fill-opacity:1" d="M177.754 208.55c1.234 7.65 1.652 15.544 1.25 23.688v75h42.41v5.262h-42.41c.41 23.914-.004 47.598-1.25 71.05V208.552Zm0 0"/><path style="stroke:none;fill-rule:evenodd;fill:#957eb6;fill-opacity:1" d="M156.55 305.922c2.2 1.262 4.696 1.703 7.485 1.316-1.25 2.192-2.91 3.946-4.992 5.262h-8.73c1.664-2.633 3.742-4.824 6.238-6.578Zm0 0"/><path style="stroke:none;fill-rule:evenodd;fill:#d38e4f;fill-opacity:1" d="M114.137 307.238h8.73a22.932 22.932 0 0 1-6.234 6.578c-2.203-1.265-4.695-1.703-7.485-1.316 1.247-2.195 2.91-3.95 4.989-5.262Zm0 0"/><path style="stroke:none;fill-rule:evenodd;fill:#b8b85d;fill-opacity:1" d="M72.973 305.922c2.203 1.262 4.695 1.703 7.484 1.316a1062.85 1062.85 0 0 0-4.988 6.578c-2.203-1.265-4.696-1.703-7.485-1.316 1.7-2.227 3.364-4.418 4.989-6.578Zm0 0"/><path style="stroke:none;fill-rule:evenodd;fill:#cabddf;fill-opacity:1" d="M363.617 307.238c-2.078 1.313-3.742 3.067-4.988 5.262-3.7 3.238-7.23 6.75-10.606 10.527a28.41 28.41 0 0 1 0-11.843c8.735-9.211 17.465-18.422 26.196-27.633a28.41 28.41 0 0 1 0 11.844 138.128 138.128 0 0 0-10.602 11.843Zm0 0"/><path style="stroke:none;fill-rule:evenodd;fill:#efc6a2;fill-opacity:1" d="M322.453 305.922c-1.625 2.16-3.289 4.351-4.988 6.578-2.91 2.633-5.824 5.262-8.735 7.895-1.851-4.547-1.437-8.93 1.25-13.157a599.17 599.17 0 0 0 23.075-23.687 28.41 28.41 0 0 1 0 11.844 121.897 121.897 0 0 1-10.602 10.527Zm0 0"/><path style="stroke:none;fill-rule:evenodd;fill:#dfdfa9;fill-opacity:1" d="M281.29 305.922c-2.497 1.754-4.575 3.945-6.24 6.578a6003.086 6003.086 0 0 1-7.484 6.578v-11.84c8.293-8.308 16.61-16.64 24.95-25 1.437 3.426 1.644 6.938.625 10.524a171.424 171.424 0 0 0-11.852 13.16Zm0 0"/><path style="stroke:none;fill-rule:evenodd;fill:#b0c3db;fill-opacity:1" d="M252.598 279.605c1.422 3.688 1.629 7.637.625 11.844-8.73 9.207-17.465 18.418-26.196 27.63a28.392 28.392 0 0 1 0-11.84c8.778-9.04 17.301-18.25 25.57-27.634Zm0 0"/><path style="stroke:none;fill-rule:evenodd;fill:#cabcdf;fill-opacity:1" d="M156.55 305.922c-2.495 1.754-4.573 3.945-6.238 6.578-1.25.879-2.496 1.754-3.742 2.633v-10.528a361.477 361.477 0 0 1 24.95-26.316c1.433 3.43 1.64 6.938.62 10.527a293.05 293.05 0 0 0-15.59 17.106Zm0 0"/><path style="stroke:none;fill-rule:evenodd;fill:#f1c7a2;fill-opacity:1" d="M114.137 307.238c-2.078 1.313-3.742 3.067-4.989 5.262-1.195.598-2.234 1.473-3.12 2.633-.497-.301-.704-.742-.622-1.317v-6.578a6.798 6.798 0 0 1 .621-3.949c8.735-9.21 17.465-18.422 26.196-27.633a28.41 28.41 0 0 1 0 11.844 394.08 394.08 0 0 0-18.086 19.738Zm0 0"/><path style="stroke:none;fill-rule:evenodd;fill:#e0e0a8;fill-opacity:1" d="M72.973 305.922c-1.625 2.16-3.29 4.351-4.989 6.578-1.558-1.098-2.39-2.852-2.496-5.262.207-1.754.418-3.511.625-5.265 8.73-9.211 17.461-18.422 26.196-27.63a28.392 28.392 0 0 1 0 11.84 418.067 418.067 0 0 1-19.336 19.739Zm0 0"/><path style="stroke:none;fill-rule:evenodd;fill:#ccbee1;fill-opacity:1" d="M550.727 307.238c-1.211-3.222-1.63-6.73-1.247-10.527a779.525 779.525 0 0 1 25.57-27.633 28.41 28.41 0 0 1 0 11.844 706.477 706.477 0 0 0-24.323 26.316Zm0 0"/><path style="stroke:none;fill-rule:evenodd;fill:#e1e1a8;fill-opacity:1" d="M494.594 265.133c1.422 3.687 1.629 7.637.625 11.84l-26.196 27.632a28.41 28.41 0 0 1 0-11.843 776.02 776.02 0 0 0 25.57-27.63Zm0 0"/><path style="stroke:none;fill-rule:evenodd;fill:#b1c4de;fill-opacity:1" d="M453.43 265.133c1.422 3.687 1.629 7.637.625 11.84l-24.95 26.316a28.392 28.392 0 0 1 0-11.84 706.223 706.223 0 0 0 24.325-26.316Zm0 0"/><path style="stroke:none;fill-rule:evenodd;fill:#cabce0;fill-opacity:1" d="M373.598 261.184c1.418 3.691 1.625 7.636.62 11.843-8.73 9.211-17.46 18.422-26.195 27.63a28.392 28.392 0 0 1 0-11.84 779.92 779.92 0 0 0 25.575-27.633Zm0 0"/><path style="stroke:none;fill-rule:evenodd;fill:#e1e1a8;fill-opacity:1" d="M292.516 259.867c1.418 3.692 1.629 7.637.625 11.844-8.735 9.21-17.465 18.422-26.196 27.633a28.41 28.41 0 0 1 0-11.844 780.076 780.076 0 0 0 25.57-27.633Zm0 0"/><path style="stroke:none;fill-rule:evenodd;fill:#afc3dd;fill-opacity:1" d="M252.598 257.238c1.422 3.688 1.629 7.637.625 11.84-8.73 9.211-17.465 18.422-26.196 27.633a28.41 28.41 0 0 1 0-11.844 776.019 776.019 0 0 0 25.57-27.629Zm0 0"/><path style="stroke:none;fill-rule:evenodd;fill:#cabbdf;fill-opacity:1" d="M171.52 255.922c1.417 3.687 1.625 7.637.62 11.84-8.73 9.21-17.46 18.422-26.195 27.633a28.41 28.41 0 0 1 0-11.844 779.807 779.807 0 0 0 25.575-27.63Zm0 0"/><path style="stroke:none;fill-rule:evenodd;fill:#cbbde0;fill-opacity:1" d="M573.18 248.027c1.558 1.098 2.39 2.852 2.496 5.262-.207 1.754-.414 3.508-.625 5.262-8.317 8.773-16.63 17.547-24.946 26.316a28.392 28.392 0 0 1 0-11.84 639.46 639.46 0 0 0 23.075-25Zm0 0"/><path style="stroke:none;fill-rule:evenodd;fill:#e1e1a8;fill-opacity:1" d="M494.594 244.078c1.422 3.692 1.629 7.637.625 11.844-8.73 9.21-17.465 18.422-26.196 27.629a28.392 28.392 0 0 1 0-11.84 776.13 776.13 0 0 0 25.57-27.633Zm0 0"/><path style="stroke:none;fill-rule:evenodd;fill:#b0c3dd;fill-opacity:1" d="M452.184 244.078c1.554 1.098 2.386 2.852 2.496 5.266-.211 1.754-.418 3.508-.625 5.261l-24.95 26.317a28.41 28.41 0 0 1 0-11.844 636.773 636.773 0 0 0 23.079-25Zm0 0"/><path style="stroke:none;fill-rule:evenodd;fill:#cabce0;fill-opacity:1" d="M373.598 240.133h1.246a56.648 56.648 0 0 1-.625 11.84c-8.73 9.21-17.461 18.422-26.196 27.632a28.41 28.41 0 0 1 0-11.843 779.809 779.809 0 0 0 25.575-27.63Zm0 0"/><path style="stroke:none;fill-rule:evenodd;fill:#efc5a0;fill-opacity:1" d="M535.758 233.55c-1.246 1.755-2.492 3.512-3.742 5.266A601.75 601.75 0 0 0 508.94 262.5a28.41 28.41 0 0 1 0-11.844 121.297 121.297 0 0 1 10.602-10.523c1.625-2.16 3.289-4.356 4.988-6.582 3.7-3.238 7.23-6.746 10.606-10.524a45 45 0 0 1 .62 10.524Zm0 0"/><path style="stroke:none;fill-rule:evenodd;fill:#e37f25;fill-opacity:1" d="M508.316 238.816c-.164.973.043 1.848.625 2.633.883-1.16 1.922-2.039 3.118-2.633 2.789-.39 5.28.051 7.484 1.317-3.7 3.238-7.23 6.746-10.602 10.523a28.41 28.41 0 0 0 0 11.844 601.75 601.75 0 0 1 23.075-23.684h8.734v68.422c-3.602.403-6.926-.035-9.98-1.316 4.73-4.598 6.187-10.297 4.367-17.106a366.573 366.573 0 0 1-18.09 18.422c-2.785.387-5.281-.054-7.485-1.316a744.798 744.798 0 0 0 25.575-26.317 28.41 28.41 0 0 0 0-11.843c-8.735 9.21-17.465 18.422-26.196 27.633a45.035 45.035 0 0 0-.625 10.527c-.886 1.187-2.132 1.625-3.742 1.316v-68.422h3.742Zm0 0"/><path style="stroke:none;fill-rule:evenodd;fill:#f3c69f;fill-opacity:1" d="M509.563 305.922h-1.247a45.035 45.035 0 0 1 .625-10.527c8.73-9.211 17.461-18.422 26.196-27.633a28.41 28.41 0 0 1 0 11.843 744.798 744.798 0 0 1-25.574 26.317Zm0 0"/><path style="stroke:none;fill-rule:evenodd;fill:#f3c7a0;fill-opacity:1" d="M534.512 245.395c1.418 3.69 1.629 7.636.625 11.843-8.735 9.211-17.465 18.418-26.196 27.63a28.392 28.392 0 0 1 0-11.84 786.967 786.967 0 0 0 25.57-27.633Zm0 0"/><path style="stroke:none;fill-rule:evenodd;fill:#e09553;fill-opacity:1" d="M503.328 199.344h1.246v32.894h3.742v6.578h-3.742v68.422c1.61.309 2.856-.129 3.742-1.316h1.247c2.203 1.262 4.699 1.703 7.484 1.316a1062.85 1062.85 0 0 0-4.988 6.578c-2.204-1.265-4.696-1.703-7.485-1.316v68.422c2.645.23 5.14-.211 7.485-1.317 3.613 1.676 7.355 1.676 11.226 0 2.653 1.485 5.563 1.704 8.73.657 2.567-4.34 3.813-4.121 3.743.66h4.992v3.945h-37.422V199.344Zm0 0"/><path style="stroke:none;fill-rule:evenodd;fill:#dfdfaa;fill-opacity:1" d="M495.844 233.55c-2.082 1.317-3.742 3.071-4.992 5.266a535.081 535.081 0 0 0-21.829 22.368 28.392 28.392 0 0 1 0-11.84 108.81 108.81 0 0 0 9.356-10.528c2.078-1.316 3.742-3.07 4.988-5.265a153.336 153.336 0 0 0 11.852-11.84c.62 3.922.828 7.871.625 11.84Zm0 0"/><path style="stroke:none;fill-rule:evenodd;fill:#b0c2da;fill-opacity:1" d="M453.43 221.71c1.687 4.306 1.476 8.692-.621 13.157a598.233 598.233 0 0 1-23.079 23.684c-1.437-3.426-1.644-6.938-.625-10.524a706.224 706.224 0 0 0 24.325-26.316Zm0 0"/><path style="stroke:none;fill-rule:evenodd;fill:#fefefe;fill-opacity:1" d="M379.832 238.816h42.414v68.422h-42.414v-68.422Zm0 0"/><path style="stroke:none;fill-rule:evenodd;fill:#cabcde;fill-opacity:1" d="M372.348 232.238a22.882 22.882 0 0 0-6.235 6.578 363.295 363.295 0 0 0-18.09 18.422 28.41 28.41 0 0 1 0-11.843c2.13-2.024 4-4.215 5.614-6.579 2.082-1.316 3.742-3.07 4.992-5.265a268.162 268.162 0 0 0 15.59-15.79c1.234 5.231.61 10.055-1.871 14.477Zm0 0"/><path style="stroke:none;fill-rule:evenodd;fill:#ebb484;fill-opacity:1" d="M338.668 190.133c1.242 13.797 1.656 27.832 1.25 42.105.414 50.66-.004 101.102-1.25 151.313V312.5c-2.117.035-3.781.914-4.988 2.633.375-3.367-.04-6.438-1.246-9.211 1.855-3.535 2.687-3.098 2.492 1.316h3.742V190.133Zm0 0"/><path style="stroke:none;fill-rule:evenodd;fill:#f1c5a0;fill-opacity:1" d="M331.184 230.922c-2.04 2.598-4.122 5.23-6.235 7.894a26021.685 26021.685 0 0 0-16.219 15.79c-2.105-5.52-1.273-10.344 2.497-14.473a33.012 33.012 0 0 0 7.484-7.895 227.148 227.148 0 0 0 14.344-14.476 28.41 28.41 0 0 1 0 11.843c-.477.73-1.102 1.168-1.871 1.317Zm0 0"/><path style="stroke:none;fill-rule:evenodd;fill:#e38028;fill-opacity:1" d="M302.496 238.816c3.192-.398 6.102.043 8.73 1.317-3.769 4.129-4.601 8.953-2.496 14.472 5.434-5.292 10.836-10.554 16.22-15.789 2.784-.39 5.28.051 7.484 1.317a666.736 666.736 0 0 0-24.325 25 28.392 28.392 0 0 0 0 11.84 776.02 776.02 0 0 0 25.57-27.63c1.216-3.222 1.63-6.73 1.247-10.527h3.742v68.422h-3.742c.195-4.414-.637-4.851-2.492-1.316-.832.437-1.664.875-2.497 1.316-2.789.387-5.28-.054-7.484-1.316 3.7-3.242 7.23-6.75 10.602-10.527a28.41 28.41 0 0 0 0-11.844 599.17 599.17 0 0 1-23.075 23.687h-7.484v-68.422Zm0 0"/><path style="stroke:none;fill-rule:evenodd;fill:#f3c7a1;fill-opacity:1" d="M332.434 261.184c1.418 3.691 1.625 7.636.62 11.843-8.316 8.77-16.628 17.543-24.945 26.317a28.41 28.41 0 0 1 0-11.844 706.477 706.477 0 0 0 24.325-26.316Zm0 0"/><path style="stroke:none;fill-rule:evenodd;fill:#f3c7a0;fill-opacity:1" d="M332.434 240.133c1.207 2.77 1.62 5.844 1.246 9.21a776.02 776.02 0 0 1-25.57 27.63 28.392 28.392 0 0 1 0-11.84 666.736 666.736 0 0 1 24.324-25Zm0 0"/><path style="stroke:none;fill-rule:evenodd;fill:#e1e1a9;fill-opacity:1" d="M293.762 238.816a45.046 45.046 0 0 1-.621 10.528c-8.735 9.207-17.465 18.418-26.196 27.629a28.392 28.392 0 0 1 0-11.84 709.578 709.578 0 0 0 24.325-26.317c1.117-1.324 1.945-1.324 2.492 0Zm0 0"/><path style="stroke:none;fill-rule:evenodd;fill:#dedea8;fill-opacity:1" d="M288.773 232.238c-2.496 1.754-4.574 3.946-6.238 6.578a268.163 268.163 0 0 0-15.59 15.79 28.41 28.41 0 0 1 0-11.844c.883-1.157 1.922-2.035 3.118-2.63 1.625-2.16 3.289-4.355 4.988-6.581 5.797-5.672 11.617-11.375 17.465-17.102 2.379 6.332 1.132 11.594-3.743 15.79Zm0 0"/><path style="stroke:none;fill-rule:evenodd;fill:#afc3dd;fill-opacity:1" d="M253.848 238.816a34.527 34.527 0 0 1-.625 9.211c-8.73 9.211-17.465 18.422-26.196 27.63a28.392 28.392 0 0 1 0-11.84 573.09 573.09 0 0 0 21.828-23.684c1.614-1.04 3.07-2.356 4.368-3.95.578.782.785 1.66.625 2.633Zm0 0"/><path style="stroke:none;fill-rule:evenodd;fill:#b1c3db;fill-opacity:1" d="M246.363 233.55c-2.082 1.317-3.742 3.071-4.992 5.266a227.079 227.079 0 0 0-14.344 14.473 28.392 28.392 0 0 1 0-11.84l26.196-27.633a28.392 28.392 0 0 1 0 11.84 59.673 59.673 0 0 0-6.86 7.895Zm0 0"/><path style="stroke:none;fill-rule:evenodd;fill:#fefefe;fill-opacity:1" d="M179.004 238.816h42.41v68.422h-42.41v-68.422Zm0 0"/><path style="stroke:none;fill-rule:evenodd;fill:#cabcdf;fill-opacity:1" d="M172.766 238.816c.199 2.235-.008 4.43-.625 6.579-8.73 9.21-17.461 18.421-26.196 27.632a28.41 28.41 0 0 1 0-11.843 505.736 505.736 0 0 0 20.582-22.368 31.914 31.914 0 0 0 5.614-5.265c.613 1.703.82 3.457.625 5.265Zm0 0"/><path style="stroke:none;fill-rule:evenodd;fill:#cabddd;fill-opacity:1" d="M165.281 230.922a32.867 32.867 0 0 0-7.484 7.894c-3.742 3.508-7.484 7.016-11.227 10.528-.914-6.02.336-11.281 3.743-15.793a390.998 390.998 0 0 0 18.71-19.078 5.9 5.9 0 0 1 3.743-.657 34.527 34.527 0 0 1-.625 9.211 59.425 59.425 0 0 0-6.86 7.895Zm0 0"/><path style="stroke:none;fill-rule:evenodd;fill:#de893d;fill-opacity:1" d="M132.848 232.238h4.988V312.5h-7.484c1.375-1.453 2.207-3.207 2.496-5.262h3.742v-68.422h-3.742v-6.578Zm0 0"/><path style="stroke:none;fill-rule:evenodd;fill:#f1c6a0;fill-opacity:1" d="M131.602 232.238h1.246v6.578a11.63 11.63 0 0 1-.625 5.262c-8.73 9.211-17.461 18.422-26.196 27.633a28.542 28.542 0 0 1 0-11.844 393.929 393.929 0 0 0 18.09-19.734 33.089 33.089 0 0 0 7.485-7.895Zm0 0"/><path style="stroke:none;fill-rule:evenodd;fill:#e37f25;fill-opacity:1" d="M105.406 238.816a45.046 45.046 0 0 0 .621 10.528 121.933 121.933 0 0 1 10.606-10.528c2.789-.39 5.281.051 7.484 1.317a393.929 393.929 0 0 1-18.09 19.734 28.542 28.542 0 0 0 0 11.844c8.735-9.211 17.465-18.422 26.196-27.633.613-1.7.82-3.457.625-5.262h3.742v68.422h-3.742a34.527 34.527 0 0 0-.625-9.21 93.633 93.633 0 0 1-9.356 9.21h-8.73a394.08 394.08 0 0 1 18.086-19.738 28.41 28.41 0 0 0 0-11.844c-8.73 9.211-17.461 18.422-26.196 27.633a6.798 6.798 0 0 0-.62 3.95h-3.743v-68.423h3.742Zm0 0"/><path style="stroke:none;fill-rule:evenodd;fill:#f3c69f;fill-opacity:1" d="M131.602 253.29c1.418 3.69 1.628 7.636.62 11.843-8.73 9.21-17.46 18.418-26.195 27.629a28.523 28.523 0 0 1 0-11.84c8.778-9.04 17.301-18.25 25.575-27.633Zm0 0"/><path style="stroke:none;fill-rule:evenodd;fill:#dfdfa8;fill-opacity:1" d="M92.93 233.55v5.266a298.844 298.844 0 0 1-26.817 30.262 28.392 28.392 0 0 1 0-11.84 313.926 313.926 0 0 1 16.84-17.105c2.043-2.602 4.121-5.23 6.234-7.895 1.196-.597 2.239-1.472 3.122-2.633a6.79 6.79 0 0 1 .62 3.946Zm0 0"/><path style="stroke:none;fill-rule:evenodd;fill:#bbbc3b;fill-opacity:1" d="M60.5 165.133c3.191-.399 6.102.039 8.73 1.316-3.77 4.13-4.601 8.953-2.496 14.473 5.434-5.293 10.836-10.555 16.22-15.79 2.788-.39 5.28.052 7.484 1.317a663.681 663.681 0 0 0-24.325 25 28.392 28.392 0 0 0 0 11.84 772.763 772.763 0 0 0 25.57-27.633c1.215-3.219 1.63-6.73 1.247-10.523h3.742v68.418H92.93a6.79 6.79 0 0 0-.621-3.946c-.883 1.16-1.926 2.036-3.121 2.633-2.786.387-5.282-.054-7.485-1.316 3.7-3.242 7.234-6.75 10.606-10.527a28.41 28.41 0 0 0 0-11.844c-8.735 9.21-17.465 18.422-26.196 27.633-1.023 3.59-.812 7.097.621 10.527 2.938-2.664 5.848-5.293 8.735-7.895 2.789-.39 5.281.051 7.484 1.317a313.926 313.926 0 0 0-16.84 17.105 28.392 28.392 0 0 0 0 11.84 298.844 298.844 0 0 0 26.817-30.262h3.742v68.422H92.93c.207-3.972 0-7.918-.621-11.843-.895.714-1.52 1.593-1.871 2.632-3.329 3.07-6.653 6.141-9.981 9.211-2.789.387-5.281-.054-7.484-1.316a418.067 418.067 0 0 0 19.336-19.738 28.392 28.392 0 0 0 0-11.84c-8.735 9.207-17.465 18.418-26.196 27.629-.207 1.754-.418 3.511-.625 5.265.106 2.41.938 4.164 2.496 5.262 2.79-.387 5.282.05 7.485 1.316-3.25 2.762-6.367 5.832-9.356 9.211a28.392 28.392 0 0 0 0 11.84A537.49 537.49 0 0 1 87.941 312.5h8.73v68.422c-3.597.402-6.925-.035-9.976-1.317a40.621 40.621 0 0 1 5.614-6.578 28.41 28.41 0 0 0 0-11.843 342.348 342.348 0 0 0-16.84 18.421c-4.867 1.223-9.856 1.66-14.969 1.317v-215.79Zm0 0"/><path style="stroke:none;fill-rule:evenodd;fill:#e0e0a4;fill-opacity:1" d="M86.695 379.605c-3.87 1.676-7.613 1.676-11.226 0a342.348 342.348 0 0 1 16.84-18.421 28.41 28.41 0 0 1 0 11.843c-2.13 2.02-4 4.215-5.614 6.578Zm0 0"/><path style="stroke:none;fill-rule:evenodd;fill:#e1e1a7;fill-opacity:1" d="M91.684 340.133c1.418 3.687 1.629 7.637.625 11.84a740.103 740.103 0 0 1-25.575 26.316c-1.433-3.43-1.644-6.937-.62-10.527a776.02 776.02 0 0 0 25.57-27.63Zm0 0"/><path style="stroke:none;fill-rule:evenodd;fill:#e1e1a9;fill-opacity:1" d="M91.684 317.762c1.418 3.691 1.629 7.636.625 11.843-8.735 9.211-17.465 18.422-26.196 27.633a28.41 28.41 0 0 1 0-11.843 772.763 772.763 0 0 0 25.57-27.633ZM91.684 251.973c1.418 3.691 1.629 7.636.625 11.843-8.735 9.211-17.465 18.422-26.196 27.633a28.41 28.41 0 0 1 0-11.844 772.764 772.764 0 0 0 25.57-27.632Zm0 0"/><path style="stroke:none;fill-rule:evenodd;fill:#937cb5;fill-opacity:1" d="M342.41 232.238h4.992c-.164.973.043 1.848.621 2.63.883-1.157 1.926-2.036 3.122-2.63 2.199 1.262 4.695 1.703 7.484 1.313-1.25 2.195-2.91 3.949-4.992 5.265H342.41v-6.578Zm0 0"/><path style="stroke:none;fill-rule:evenodd;fill:#957eb6;fill-opacity:1" d="M558.21 233.55h8.735c-1.664 2.634-3.742 4.829-6.238 6.583-2.203-1.266-4.695-1.707-7.484-1.317 1.246-2.195 2.91-3.949 4.988-5.265Zm0 0"/><path style="stroke:none;fill-rule:evenodd;fill:#d38d4f;fill-opacity:1" d="M535.758 233.55h4.992v5.266h-8.734c1.25-1.754 2.496-3.511 3.742-5.265Zm0 0"/><path style="stroke:none;fill-rule:evenodd;fill:#d38c4c;fill-opacity:1" d="M517.047 233.55h7.484c-1.699 2.227-3.363 4.423-4.988 6.583-2.203-1.266-4.695-1.707-7.484-1.317 1.246-2.195 2.91-3.949 4.988-5.265Zm0 0"/><path style="stroke:none;fill-rule:evenodd;fill:#b8b85e;fill-opacity:1" d="M475.883 232.238c2.203 1.262 4.695 1.703 7.484 1.313-1.246 2.195-2.91 3.949-4.988 5.265h-8.73a22.882 22.882 0 0 1 6.234-6.578Zm0 0"/><path style="stroke:none;fill-rule:evenodd;fill:#e8e8e8;fill-opacity:1" d="M379.832 232.238h42.414v6.578h-42.414v-6.578Zm0 0"/><path style="stroke:none;fill-rule:evenodd;fill:#d78e4c;fill-opacity:1" d="M331.184 230.922c2.203 1.262 4.699 1.703 7.484 1.316v6.578h-3.742c.383 3.797-.031 7.305-1.246 10.528.375-3.367-.04-6.442-1.246-9.211-2.204-1.266-4.7-1.707-7.485-1.317 2.113-2.664 4.196-5.296 6.235-7.894Zm0 0"/><path style="stroke:none;fill-rule:evenodd;fill:#d68d4c;fill-opacity:1" d="M307.484 223.027a45.002 45.002 0 0 0 .625 10.524c.477-.73 1.102-1.168 1.871-1.313h8.73a33.012 33.012 0 0 1-7.483 7.895c-2.63-1.274-5.54-1.715-8.73-1.317v-5.265h3.741c-.383-3.793.032-7.305 1.246-10.524Zm0 0"/><path style="stroke:none;fill-rule:evenodd;fill:#b8b85d;fill-opacity:1" d="M288.773 232.238c3.055 1.278 6.38 1.719 9.98 1.313v5.265h-4.991c-.547-1.324-1.375-1.324-2.492 0h-8.735c1.664-2.632 3.742-4.824 6.238-6.578Zm0 0"/><path style="stroke:none;fill-rule:evenodd;fill:#e8e8e8;fill-opacity:1" d="M179.004 232.238h42.41v6.578h-42.41v-6.578Zm0 0"/><path style="stroke:none;fill-rule:evenodd;fill:#947cb6;fill-opacity:1" d="M165.281 230.922c3.899 1.289 8.055 1.726 12.473 1.316v6.578h-4.988a11.647 11.647 0 0 0-.625-5.265 31.914 31.914 0 0 1-5.614 5.265h-8.73a32.867 32.867 0 0 1 7.484-7.894Zm0 0"/><path style="stroke:none;fill-rule:evenodd;fill:#d48d4c;fill-opacity:1" d="M122.867 232.238h8.735a33.089 33.089 0 0 1-7.485 7.895c-2.203-1.266-4.695-1.707-7.484-1.317 1.664-2.632 3.742-4.824 6.234-6.578Zm0 0"/><path style="stroke:none;fill-rule:evenodd;fill:#e8c3a2;fill-opacity:1" d="M122.867 232.238c-2.492 1.754-4.57 3.946-6.234 6.578-3.7 3.239-7.23 6.75-10.606 10.528a45.046 45.046 0 0 1-.62-10.528c1.663-2.195 3.323-4.386 4.988-6.578 4.359-4.992 9.761-6.527 16.214-4.605a19.199 19.199 0 0 0-3.742 4.605Zm0 0"/><path style="stroke:none;fill-rule:evenodd;fill:#b9b95a;fill-opacity:1" d="M81.703 230.922c2.203 1.262 4.7 1.703 7.484 1.316a2051.016 2051.016 0 0 0-6.234 7.895c-2.203-1.266-4.695-1.707-7.484-1.317a768.209 768.209 0 0 1 6.234-7.894Zm0 0"/><path style="stroke:none;fill-rule:evenodd;fill:#dedea8;fill-opacity:1" d="M81.703 230.922a768.209 768.209 0 0 0-6.234 7.894c-2.887 2.602-5.797 5.23-8.735 7.895-1.433-3.43-1.644-6.938-.62-10.527 8.73-9.211 17.46-18.422 26.195-27.633a28.41 28.41 0 0 1 0 11.844 121.937 121.937 0 0 1-10.606 10.527Zm0 0"/><path style="stroke:none;fill-rule:evenodd;fill:#8968b9;fill-opacity:1" d="M141.578 208.55h36.176v23.688c-4.418.41-8.574-.027-12.473-1.316a59.425 59.425 0 0 1 6.86-7.895c.62-3.039.828-6.109.625-9.21a5.9 5.9 0 0 0-3.743.656 390.998 390.998 0 0 1-18.71 19.078h-8.735v-25Zm0 0"/><path style="stroke:none;fill-rule:evenodd;fill:#f0c59f;fill-opacity:1" d="M517.047 233.55c-2.078 1.317-3.742 3.071-4.988 5.266-1.196.594-2.235 1.473-3.118 2.633-.582-.785-.789-1.66-.625-2.633v-6.578a235.622 235.622 0 0 1 23.7-26.976 5.9 5.9 0 0 1 3.742-.657 34.687 34.687 0 0 1-.621 9.211 393.928 393.928 0 0 0-18.09 19.735Zm0 0"/><path style="stroke:none;fill-rule:evenodd;fill:#cbbde0;fill-opacity:1" d="M351.145 232.238c-1.196.594-2.239 1.473-3.122 2.63-.578-.782-.785-1.657-.62-2.63a34.687 34.687 0 0 1 .62-9.21c6.032-6.36 12.059-12.723 18.09-19.079a29.422 29.422 0 0 1 8.73-.66 6.779 6.779 0 0 1-.624 3.95 636.667 636.667 0 0 0-23.074 25Zm0 0"/><path style="stroke:none;fill-rule:evenodd;fill:#e0e0a8;fill-opacity:1" d="M475.883 232.238a22.882 22.882 0 0 0-6.235 6.578c-1.421-3.691-1.628-7.636-.625-11.843 8.73-9.211 17.465-18.422 26.196-27.63a28.392 28.392 0 0 1 0 11.84 447.262 447.262 0 0 0-19.336 21.055Zm0 0"/><path style="stroke:none;fill-rule:evenodd;fill:#b1c4dd;fill-opacity:1" d="M453.43 199.344c1.422 3.687 1.629 7.636.625 11.84l-24.95 26.316a28.41 28.41 0 0 1 0-11.844 706.118 706.118 0 0 0 24.325-26.312Zm0 0"/><path style="stroke:none;fill-rule:evenodd;fill:#e38027;fill-opacity:1" d="M504.574 199.344h36.176v34.207h-4.992a45 45 0 0 0-.621-10.524 121.882 121.882 0 0 1-10.606 10.524h-7.484a393.928 393.928 0 0 1 18.09-19.735c.617-3.039.824-6.109.62-9.21a5.9 5.9 0 0 0-3.741.656 235.622 235.622 0 0 0-23.7 26.976h-3.742v-32.894Zm0 0"/><path style="stroke:none;fill-rule:evenodd;fill:#f3c69f;fill-opacity:1" d="M510.813 204.605a48.513 48.513 0 0 1 11.226.657c-4.367 4.605-8.734 9.21-13.098 13.816-1.234-5.23-.609-10.055 1.872-14.473Zm0 0"/><path style="stroke:none;fill-rule:evenodd;fill:#8969b9;fill-opacity:1" d="M342.41 198.027h36.176v34.211h-6.238c2.48-4.422 3.105-9.246 1.87-14.476a268.162 268.162 0 0 1-15.59 15.789c-2.788.39-5.284-.051-7.483-1.313a636.667 636.667 0 0 1 23.074-25 6.779 6.779 0 0 0 .625-3.949 29.422 29.422 0 0 0-8.73.66c-6.032 6.356-12.06 12.719-18.09 19.078a34.687 34.687 0 0 0-.622 9.211h-4.992v-34.21Zm0 0"/><path style="stroke:none;fill-rule:evenodd;fill:#c8badf;fill-opacity:1" d="M347.402 203.29c3.024-.407 5.934.034 8.73 1.315a82.513 82.513 0 0 1-8.109 9.211 45.034 45.034 0 0 1-.62-10.527Zm0 0"/><path style="stroke:none;fill-rule:evenodd;fill:#f3c7a1;fill-opacity:1" d="M309.98 232.238c-.77.145-1.394.582-1.87 1.313a45.002 45.002 0 0 1-.626-10.524 780.076 780.076 0 0 1 25.57-27.632 28.41 28.41 0 0 1 0 11.843 636.666 636.666 0 0 0-23.074 25Zm0 0"/><path style="stroke:none;fill-rule:evenodd;fill:#e1e1a9;fill-opacity:1" d="M268.816 230.922c-1.207-2.774-1.625-5.844-1.25-9.211a783.348 783.348 0 0 1 25.575-27.633 28.41 28.41 0 0 1 0 11.844 672.841 672.841 0 0 1-24.325 25Zm0 0"/><path style="stroke:none;fill-rule:evenodd;fill:#afc3dd;fill-opacity:1" d="M252.598 191.45c1.422 3.687 1.629 7.636.625 11.84-8.73 9.21-17.465 18.42-26.196 27.632a28.41 28.41 0 0 1 0-11.844 776.019 776.019 0 0 0 25.57-27.629Zm0 0"/><path style="stroke:none;fill-rule:evenodd;fill:#e38028;fill-opacity:1" d="M302.496 190.133h36.172v42.105c-2.785.387-5.281-.054-7.484-1.316.77-.149 1.394-.586 1.87-1.317a28.41 28.41 0 0 0 0-11.843 227.148 227.148 0 0 1-14.343 14.476h-8.73a636.666 636.666 0 0 1 23.074-25 28.41 28.41 0 0 0 0-11.843 780.076 780.076 0 0 0-25.57 27.632c-1.215 3.22-1.63 6.73-1.247 10.524h-3.742v-43.418Zm0 0"/><path style="stroke:none;fill-rule:evenodd;fill:#f3c59d;fill-opacity:1" d="M312.473 194.078a48.49 48.49 0 0 1 11.226.66l-15.59 16.446c-1.824-6.809-.367-12.508 4.364-17.106Zm0 0"/><path style="stroke:none;fill-rule:evenodd;fill:#e1e1a9;fill-opacity:1" d="M91.684 186.184c1.418 3.691 1.629 7.636.625 11.843-8.735 9.211-17.465 18.422-26.196 27.63a28.392 28.392 0 0 1 0-11.84 776.13 776.13 0 0 0 25.57-27.633Zm0 0"/><path style="stroke:none;fill-rule:evenodd;fill:#edac72;fill-opacity:1" d="M540.75 198.027v1.317h-34.93v-14.477h32.434c-.711 5.04.121 9.426 2.496 13.16Zm0 0"/><path style="stroke:none;fill-rule:evenodd;fill:#f3c8a3;fill-opacity:1" d="M540.75 198.027c-2.375-3.734-3.207-8.12-2.496-13.16H505.82v14.477h-2.492v-17.106h37.422v15.79Zm0 0"/><path style="stroke:none;fill-rule:evenodd;fill:#f3c9a4;fill-opacity:1" d="M508.316 186.184h27.442v11.843h-27.442v-11.843Zm0 0"/><path style="stroke:none;fill-rule:evenodd;fill:#e1e1a8;fill-opacity:1" d="M494.594 178.29c1.422 3.69 1.629 7.636.625 11.843-8.73 9.21-17.465 18.418-26.196 27.629a28.392 28.392 0 0 1 0-11.84c8.778-9.04 17.301-18.25 25.57-27.633Zm0 0"/><path style="stroke:none;fill-rule:evenodd;fill:#b0c3dd;fill-opacity:1" d="M452.184 178.29c1.554 1.097 2.386 2.85 2.496 5.26-.211 1.755-.418 3.512-.625 5.266l-24.95 26.317a28.41 28.41 0 0 1 0-11.844 636.773 636.773 0 0 0 23.079-25Zm0 0"/><path style="stroke:none;fill-rule:evenodd;fill:#e1e1a9;fill-opacity:1" d="M292.516 171.71c1.418 3.688 1.629 7.638.625 11.84-8.735 9.212-17.465 18.423-26.196 27.634a28.392 28.392 0 0 1 0-11.84 786.966 786.966 0 0 0 25.57-27.633Zm0 0"/><path style="stroke:none;fill-rule:evenodd;fill:#afc3dd;fill-opacity:1" d="M252.598 170.395c1.422 3.69 1.629 7.636.625 11.843-8.73 9.211-17.465 18.418-26.196 27.63a28.392 28.392 0 0 1 0-11.84c8.778-9.04 17.301-18.25 25.57-27.633Zm0 0"/><path style="stroke:none;fill-rule:evenodd;fill:#e1e1a9;fill-opacity:1" d="M90.438 166.45c1.207 2.769 1.62 5.84 1.246 9.206a772.763 772.763 0 0 1-25.57 27.633 28.392 28.392 0 0 1 0-11.84 663.681 663.681 0 0 1 24.323-25Zm0 0"/><path style="stroke:none;fill-rule:evenodd;fill:#fefffe;fill-opacity:1" d="M379.832 165.133h42.414v67.105h-42.414v-67.105Zm0 0"/><path style="stroke:none;fill-rule:evenodd;fill:#b1c3db;fill-opacity:1" d="M253.848 158.55c-1.664 2.196-3.328 4.387-4.993 6.583a535.08 535.08 0 0 0-21.828 22.367 28.41 28.41 0 0 1 0-11.844c8.73-9.207 17.465-18.418 26.196-27.629.62 3.48.828 6.989.625 10.524Zm0 0"/><path style="stroke:none;fill-rule:evenodd;fill:#fefefe;fill-opacity:1" d="M97.922 165.133h123.492v67.105h-42.41c.402-8.144-.016-16.039-1.25-23.687v-15.79h-36.176v15.79c-1.234 7.648-1.648 15.543-1.246 23.687h-2.496v-26.317h-37.422v26.317h-2.492v-67.105Zm0 0"/><path style="stroke:none;fill-rule:evenodd;fill:#e37e24;fill-opacity:1" d="M137.836 223.027v9.211h-14.969a19.199 19.199 0 0 1 3.742-4.605c-6.453-1.922-11.855-.387-16.214 4.605h-8.73v-9.21h36.17Zm0 0"/><path style="stroke:none;fill-rule:evenodd;fill:#c6b7dd;fill-opacity:1" d="M149.063 213.816a48.534 48.534 0 0 1 11.23.657l-14.348 15.132c-1.53-6.003-.488-11.265 3.118-15.789Zm0 0"/><path style="stroke:none;fill-rule:evenodd;fill:#f4cdab;fill-opacity:1" d="M137.836 221.71h-2.492v-13.16H102.91v13.16h-2.496v-15.788h37.422v15.789Zm0 0"/><path style="stroke:none;fill-rule:evenodd;fill:#edac73;fill-opacity:1" d="M135.344 221.71h-2.496v-10.526h-27.442v10.527h-2.496v-13.16h32.434v13.16Zm0 0"/><path style="stroke:none;fill-rule:evenodd;fill:#f3caa6;fill-opacity:1" d="M132.848 221.71h-27.442v-10.526h27.442v10.527Zm0 0"/><path style="stroke:none;fill-rule:evenodd;fill:#c0afda;fill-opacity:1" d="M177.754 208.55h-4.988v-10.523H146.57v10.524h-4.992v-15.79h36.176v15.79Zm0 0"/><path style="stroke:none;fill-rule:evenodd;fill:#cec2e2;fill-opacity:1" d="M172.766 208.55H146.57v-10.523h26.196v10.524Zm0 0"/><path style="stroke:none;fill-rule:evenodd;fill:#e8e8e8;fill-opacity:1" d="M97.922 158.55h123.492v6.583H97.922v-6.582Zm0 0"/><path style="stroke:none;fill-rule:evenodd;fill:#b8b85a;fill-opacity:1" d="M60.5 158.55h4.988c.547 1.325 1.38 1.325 2.496 0h8.73a32.957 32.957 0 0 1-7.484 7.9c-2.628-1.278-5.539-1.716-8.73-1.317v-6.582Zm0 0"/><path style="stroke:none;fill-rule:evenodd;fill:#dedea8;fill-opacity:1" d="M89.188 157.238c-2.04 2.598-4.122 5.23-6.235 7.895a26027.293 26027.293 0 0 0-16.219 15.789c-2.105-5.52-1.273-10.344 2.496-14.473a32.957 32.957 0 0 0 7.485-7.898 268.22 268.22 0 0 0 15.594-15.79 28.41 28.41 0 0 1 0 11.844c-.883 1.16-1.926 2.036-3.121 2.633Zm0 0"/><path style="stroke:none;fill-rule:evenodd;fill:#afc2dc;fill-opacity:1" d="M252.598 125.656c1.422 3.692 1.629 7.637.625 11.844l-26.196 27.633a28.41 28.41 0 0 1 0-11.844 772.762 772.762 0 0 0 25.57-27.633Zm0 0"/><path style="stroke:none;fill-rule:evenodd;fill:#e1e1a9;fill-opacity:1" d="M67.984 158.55c-1.117 1.325-1.949 1.325-2.496 0a45.002 45.002 0 0 1 .625-10.523c8.73-9.21 17.461-18.422 26.196-27.632a28.41 28.41 0 0 1 0 11.843 706.118 706.118 0 0 0-24.325 26.313Zm0 0"/><path style="stroke:none;fill-rule:evenodd;fill:#afc3dd;fill-opacity:1" d="M252.598 104.605c1.422 3.688 1.629 7.637.625 11.844-8.73 9.207-17.465 18.418-26.196 27.63a28.392 28.392 0 0 1 0-11.84c8.778-9.04 17.301-18.25 25.57-27.634Zm0 0"/><path style="stroke:none;fill-rule:evenodd;fill:#bcbd3b;fill-opacity:1" d="M60.5 96.71h36.172v61.84c-2.785.391-5.281-.05-7.484-1.312 1.195-.597 2.238-1.472 3.12-2.633a28.41 28.41 0 0 0 0-11.843 268.22 268.22 0 0 1-15.593 15.789h-8.73a706.118 706.118 0 0 1 24.324-26.313 28.41 28.41 0 0 0 0-11.843c-8.735 9.21-17.465 18.421-26.196 27.632a45.002 45.002 0 0 0-.625 10.524H60.5V96.71Zm0 0"/><path style="stroke:none;fill-rule:evenodd;fill:#e1e1a7;fill-opacity:1" d="M89.188 100.656h3.742a34.525 34.525 0 0 1-.621 9.211c-8.735 9.211-17.465 18.422-26.196 27.633a28.41 28.41 0 0 1 0-11.844 633.666 633.666 0 0 0 23.075-25Zm0 0"/><path style="stroke:none;fill-rule:evenodd;fill:#e1e1a8;fill-opacity:1" d="M67.984 101.973c3.426-.41 6.75.027 9.977 1.316a73.672 73.672 0 0 1-11.227 11.844c-1.824-4.738-1.41-9.121 1.25-13.16Zm0 0"/><path style="stroke:none;fill-rule:evenodd;fill:#d5d585;fill-opacity:1" d="M96.672 96.71H60.5v-1.315c1.8-1.098 3.047-2.852 3.742-5.262 1.156 1.562 1.574 3.316 1.246 5.262H92.93c-.325-1.946.09-3.7 1.25-5.262a42.59 42.59 0 0 1 2.492 6.578Zm0 0"/><path style="stroke:none;fill-rule:evenodd;fill:#fefefe;fill-opacity:1" d="M97.922 90.133h123.492v68.418H97.922V90.133Zm0 0"/><path style="stroke:none;fill-rule:evenodd;fill:#e5e6e5;fill-opacity:1" d="M97.922 84.867h123.492v5.266H97.922v-5.266Zm0 0"/></svg>