<svg xmlns="http://www.w3.org/2000/svg" width="600" height="400"><path d="M20.66 128.348A8214 8214 0 0 1 7.438 29.133Q5.07 15.175 5.784.789h112.399v127.559zm0 0" style="stroke:none;fill-rule:evenodd;fill:#fefefe;fill-opacity:1"/><path d="M.828-.79h598.344V.79H485.125v127.558h114.047v6.297H485.125v127.558h114.047v6.3H486.777v40.946h6.61q-6.908 2.309-14.875 1.574v-40.945H366.117v48.82h8.262c-11.02 1.051-22.035 2.098-33.055 3.149h-66.117a949 949 0 0 1-59.504-4.723q-60.005-8.427-114.05-35.433c-9.063-5.754-17.325-12.317-24.794-19.688h41.325V134.645q-48.833-1.544-95.871 3.152-2.379-4.17-1.653-9.45h97.524V.79H5.785Q5.07 15.176 7.437 29.133H.829zm0 0" style="stroke:none;fill-rule:evenodd;fill:#e6e6e6;fill-opacity:1"/><path d="M245.453.79h112.399v127.558H245.453zM124.793.79h114.05v127.558h-114.05zM366.117.79h112.395v127.558H366.117zM599.172.79v127.558H485.125V.789zm0 0" style="stroke:none;fill-rule:evenodd;fill:#fefefe;fill-opacity:1"/><path d="M2.48 29.133h4.958q6.32 49.739 13.222 99.215-.726 5.279 1.652 9.449 7.196 52.05 31.407 99.21-19.107-27.384-27.274-59.843A1249 1249 0 0 1 2.48 29.133m0 0" style="stroke:none;fill-rule:evenodd;fill:#14161a;fill-opacity:1"/><path d="M76.86 262.203q-9.158-7.148-16.528-15.746-2.085-5.559-6.613-9.45-24.211-47.16-31.406-99.21c31.359-3.133 63.316-4.18 95.87-3.152v127.558zm0 0" style="stroke:none;fill-rule:evenodd;fill:#fdfefe;fill-opacity:1"/><path d="M124.793 134.645h114.05v127.558h-114.05zM245.453 134.645h112.399v127.558H245.453zM366.117 134.645h112.395v127.558H366.117zM599.172 134.645v127.558H485.125V134.645zm0 0" style="stroke:none;fill-rule:evenodd;fill:#fefefe;fill-opacity:1"/><path d="M7.438 140.945q7.712 45.65 26.445 88.188a235.7 235.7 0 0 0 19.836 31.496q-23.518 2.349-47.934 1.574-.82-61.036 1.652-121.258m0 0" style="stroke:none;fill-rule:evenodd;fill:#fbfbfb;fill-opacity:1"/><path d="M.828 65.355q7.453 65.773 23.965 130.707a325 325 0 0 1 10.746 29.922q.422 2.343-1.656 3.149-18.733-42.538-26.446-88.188a465 465 0 0 1-6.609-75.59m0 0" style="stroke:none;fill-rule:evenodd;fill:#16191e;fill-opacity:1"/><path d="M35.54 225.984q18.191 37.804 52.89 62.993a32.4 32.4 0 0 1-8.266-3.938 296 296 0 0 1-19.832-16.535q-1.545-5.326-6.613-7.875a235.7 235.7 0 0 1-19.836-31.496c1.387-.54 1.937-1.586 1.656-3.149m0 0" style="stroke:none;fill-rule:evenodd;fill:#252d39;fill-opacity:1"/><path d="M60.332 246.457q7.37 8.596 16.527 15.746c7.47 7.371 15.73 13.934 24.793 19.688q54.047 27.007 114.051 35.433-53.601-5.289-102.48-26.773a40.2 40.2 0 0 1-4.957 7.875q27.074 12.335 56.195 19.683 1.657.788 3.309 1.575-.57.941-1.653.789h-4.96a566 566 0 0 1-44.63-15.75q-15.281-6.09-28.097-15.746a44.5 44.5 0 0 1 13.222 6.3 51 51 0 0 0 8.266-3.152q-10.536-11.196-24.793-18.11a134.5 134.5 0 0 0-23.14-19.683q-2.01-3.716-1.653-7.875m0 0" style="stroke:none;fill-rule:evenodd;fill:#375070;fill-opacity:1"/><path d="M.828 29.133H2.48a1249 1249 0 0 0 23.965 148.031q8.167 32.459 27.274 59.844 4.528 3.89 6.613 9.449-.357 4.16 1.652 7.875a134.5 134.5 0 0 1 23.141 19.684q14.257 6.913 24.793 18.109a51 51 0 0 1-8.266 3.152 44.5 44.5 0 0 0-13.222-6.3q-34.699-25.189-52.89-62.993a325 325 0 0 0-10.747-29.922Q8.281 131.129.828 65.356zm0 0" style="stroke:none;fill-rule:evenodd;fill:#4271a9;fill-opacity:1"/><path d="M60.332 268.504a296 296 0 0 0 19.832 16.535 32.4 32.4 0 0 0 8.266 3.938q12.815 9.657 28.097 15.746a1311 1311 0 0 1 1.657 91.34H5.785v-127.56zM126.445 270.078h112.399v45.668c-38.438-5.168-75.625-14.617-111.57-28.344a91.5 91.5 0 0 1-.829-17.324M245.453 270.078h112.399v45.668a758 758 0 0 1-70.25 4.727 241 241 0 0 1-42.149-3.149zM478.512 296.852a2077 2077 0 0 1-112.395 17.32v-44.094h112.395zm0 0" style="stroke:none;fill-rule:evenodd;fill:#fefefe;fill-opacity:1"/><path d="M599.172 268.504v127.558a529 529 0 0 1-64.461-10.234 4075 4075 0 0 1 57.851 3.938c.5-4.032-.054-7.707-1.652-11.028a132.3 132.3 0 0 1-34.71-5.511 227 227 0 0 1 36.362.789v-28.348h4.958v-14.172h-4.957v-28.348a3998 3998 0 0 0-87.606 6.301h-18.18v-40.945zm0 0" style="stroke:none;fill-rule:evenodd;fill:#fbfbfc;fill-opacity:1"/><path d="M478.512 296.852v14.171c-34.352 3.973-69.059 6.598-104.133 7.875h-8.262v-4.726a2077 2077 0 0 0 112.395-17.32m0 0" style="stroke:none;fill-rule:evenodd;fill:#f1f4f9;fill-opacity:1"/><path d="M215.703 317.324c19.906 4.406 40.293 7.035 61.156 7.871 2.528.223 4.184 1.274 4.957 3.153q.733 5.279-1.652 9.449a794 794 0 0 0-24.793-1.578q-1.652-.785-3.305-1.574c-23.109-3.586-46.25-8.051-69.421-13.383q-7.11-1.893-13.223.785-2.46.405-3.305-1.574 1.084.153 1.653-.79-1.652-.786-3.31-1.574-29.12-7.348-56.194-19.683a40.2 40.2 0 0 0 4.957-7.875q48.879 21.484 102.48 26.773m0 0" style="stroke:none;fill-rule:evenodd;fill:#4373ab;fill-opacity:1"/><path d="M592.563 331.496h-1.653v-11.023q-47.949 1.213-95.867 3.148a22.4 22.4 0 0 1-8.266-.785q52.125-2.585 104.133-6.3a478 478 0 0 0-62.812.788c-6.274.36-10.957-.687-14.047-3.152a107 107 0 0 1-28.926.789 426 426 0 0 1 38.016-4.727q-9.054-1.177-18.184-.785a3998 3998 0 0 1 87.606-6.3zm0 0" style="stroke:none;fill-rule:evenodd;fill:#cad8e8;fill-opacity:1"/><path d="M161.156 320.473h4.961q.844 1.979 3.305 1.574a546 546 0 0 0 67.77 11.023v62.993H124.792q-.826-42.546 1.652-85.04 16.53 7.614 34.711 9.45m0 0" style="stroke:none;fill-rule:evenodd;fill:#fefefe;fill-opacity:1"/><path d="M493.387 309.45h11.57q9.13-.392 18.184.784a426 426 0 0 0-38.016 4.727 107 107 0 0 0 28.926-.79c3.09 2.466 7.773 3.513 14.047 3.153a478 478 0 0 1 62.812-.789 4791 4791 0 0 1-104.133 6.3q4.051 1.167 8.266.786a5867 5867 0 0 1-147.934 1.574l-10.746-.785q6.615-.786 13.223-1.574a22.4 22.4 0 0 0-8.262-.79c11.02-1.05 22.035-2.097 33.055-3.148 35.074-1.277 69.781-3.902 104.133-7.875q7.968.734 14.875-1.574m0 0" style="stroke:none;fill-rule:evenodd;fill:#b2c6dd;fill-opacity:1"/><path d="M169.422 322.047q6.113-2.678 13.223-.785c23.171 5.332 46.312 9.797 69.421 13.383h-6.613q-4.44.316-8.262-1.575a546 546 0 0 1-67.77-11.023m0 0" style="stroke:none;fill-rule:evenodd;fill:#486080;fill-opacity:1"/><path d="M215.703 317.324a949 949 0 0 0 59.504 4.723q4.13 1.574 8.266 3.148v3.153h-1.657c-.773-1.88-2.43-2.93-4.957-3.153-20.863-.836-41.25-3.465-61.156-7.87m0 0" style="stroke:none;fill-rule:evenodd;fill:#3b5373;fill-opacity:1"/><path d="M283.473 325.195a8589 8589 0 0 0 100.824 4.727q51.21 2.02 102.48 1.574H597.52v14.172h-6.61a6236 6236 0 0 1-272.726-4.723 648 648 0 0 0-34.711-3.148v-12.602m0 0" style="stroke:none;fill-rule:evenodd;fill:#e07e28;fill-opacity:1"/><path d="M486.777 331.496q-51.27.447-102.48-1.574 66.486-4.322 133.887-2.363 1.652.786 3.304 1.574-17.8.405-34.71 2.363m0 0" style="stroke:none;fill-rule:evenodd;fill:#738fb6;fill-opacity:1"/><path d="M590.91 331.496H486.777q16.91-1.959 34.711-2.363-1.652-.788-3.304-1.574-67.401-1.96-133.887 2.363a8589 8589 0 0 1-100.824-4.727q-4.136-1.573-8.266-3.148h66.117c2.805-.25 5.563.012 8.262.789q-6.608.786-13.223 1.574l10.746.785q74.352.142 147.934-1.574 47.918-1.935 95.867-3.148zm0 0" style="stroke:none;fill-rule:evenodd;fill:#91abcd;fill-opacity:1"/><path d="M245.453 334.645h6.613q1.653.79 3.305 1.574c33.328 10.246 67.484 18.12 102.48 23.625v36.219H245.454zm0 0" style="stroke:none;fill-rule:evenodd;fill:#fefefe;fill-opacity:1"/><path d="M318.184 340.945a6236 6236 0 0 0 272.726 4.723v12.602a1037 1037 0 0 0-77.687-4.727c-8.813.523-17.633 1.05-26.446 1.574a25.2 25.2 0 0 0 8.266 2.363 343.4 343.4 0 0 1-52.895-2.363q-2.748-1.865-6.609-2.36a2568 2568 0 0 1-117.355-11.812m0 0" style="stroke:none;fill-rule:evenodd;fill:#7e9dc4;fill-opacity:1"/><path d="M281.816 328.348h1.657v9.449a648 648 0 0 1 34.71 3.148 2568 2568 0 0 0 117.356 11.813q3.86.494 6.61 2.36-.013 2.166 4.96 2.362a5899 5899 0 0 0 51.239 4.723c-3.856.527-7.715 1.05-11.57 1.578q9.251 2.294-1.653 2.36a700.5 700.5 0 0 0-104.133-11.024q-51.937-2.344-100.828-17.32 2.384-4.17 1.652-9.45m0 0" style="stroke:none;fill-rule:evenodd;fill:#99b3d3;fill-opacity:1"/><path d="M590.91 358.27v7.87a3843 3843 0 0 0-57.851-2.359 2031 2031 0 0 0 52.89 6.297 525 525 0 0 1-80.992-5.512q-3.304.392-6.61.79a1017 1017 0 0 0 29.75 4.722 567 567 0 0 1-101.652-10.234c-5.129.55-4.855 1.34.828 2.36q-1.476 1.097-3.304.788a779 779 0 0 1-42.977-7.875 700.5 700.5 0 0 1 104.133 11.024q10.904-.066 1.652-2.36c3.856-.527 7.715-1.05 11.57-1.578a5899 5899 0 0 1-51.238-4.723q-4.973-.197-4.96-2.363a343.4 343.4 0 0 0 52.894 2.363 25.2 25.2 0 0 1-8.266-2.363c8.813-.523 17.633-1.05 26.446-1.574q38.97.907 77.687 4.727m0 0" style="stroke:none;fill-rule:evenodd;fill:#abc1db;fill-opacity:1"/><path d="M590.91 345.668h1.653v28.348a227 227 0 0 0-36.364-.79 132.3 132.3 0 0 0 34.711 5.512v7.875a1880 1880 0 0 1-104.133-12.597v4.722h-8.265a1264 1264 0 0 0-54.543-9.445c17.582-.164 35.215 1.934 52.89 6.297l1.653-1.574q-27.477-5.797-54.543-11.024 1.828.309 3.304-.789-8.523-1.531-.828-2.36a567 567 0 0 0 101.653 10.235 1017 1017 0 0 1-29.75-4.723q3.305-.397 6.609-.789a525 525 0 0 0 80.992 5.512 2031 2031 0 0 1-52.89-6.297q28.89.96 57.851 2.36v-20.473m0 0" style="stroke:none;fill-rule:evenodd;fill:#d2deeb;fill-opacity:1"/><path d="M-.828-.79H.828v66.145a465 465 0 0 0 6.61 75.59 2226 2226 0 0 0-1.653 121.258q24.416.775 47.934-1.574 5.068 2.55 6.613 7.875H5.785v127.558h112.399q.762-45.777-1.657-91.34a566 566 0 0 0 44.63 15.75q-18.183-1.835-34.712-9.449a1095 1095 0 0 0-1.652 85.04h112.398V333.07q3.82 1.892 8.262 1.575v61.418h112.399v-36.22c-34.997-5.503-69.153-13.378-102.48-23.624q12.416.596 24.792 1.578 48.89 14.976 100.828 17.32a779 779 0 0 0 42.977 7.875 3254 3254 0 0 1 54.543 11.024q-.827.786-1.653 1.574c-17.675-4.363-35.308-6.461-52.89-6.297a765 765 0 0 1-57.852-7.875v34.644h112.395v-17.324h8.265v-4.722a1880 1880 0 0 0 104.133 12.597v-7.875c1.598 3.32 2.153 6.996 1.653 11.028a4075 4075 0 0 0-57.852-3.938 529 529 0 0 0 64.46 10.235v3.148h-600zm0 0" style="stroke:none;fill-rule:evenodd;fill:#e9eaeb;fill-opacity:1"/><path d="M486.777 380.316q41.35 7.326 82.645 14.961-41.313 1.178-82.645.786zM423.969 369.293a1264 1264 0 0 1 54.543 9.445v17.325H366.117v-34.645a765 765 0 0 0 57.852 7.875m0 0" style="stroke:none;fill-rule:evenodd;fill:#fefefe;fill-opacity:1"/></svg>