<svg xmlns="http://www.w3.org/2000/svg" width="600" height="400"><path d="M-.844-.562h600v400h-600zm0 0" style="stroke:none;fill-rule:evenodd;fill:#0a080a;fill-opacity:1"/><path d="M203.09 10.676v7.863q-3.263-.398-5.055 1.125v17.977q1.792 1.523 5.055 1.125v7.863h-5.055v16.855h-30.34v5.618h30.34V65.73h5.055v8.989h-5.055v17.976q1.792 1.523 5.055 1.125v7.864h-5.055v19.101h5.055v8.988h-33.707c-3.88 1.915-8.371 2.665-13.485 2.25q-6.104-2.214-14.324-2.25-8.222.036-14.328 2.25H115.45q-7.328-2.085-16.011-2.25-8.22.036-14.325 2.25H73.316q-6.106-2.214-14.328-2.25-8.22.036-14.324 2.25H31.18c-7.68-2.183-16.106-2.93-25.282-2.25a631 631 0 0 0 0-60.671H31.18v-5.618H7.586c.539-5.836-.024-11.457-1.688-16.855V2.809h92.696v7.867h6.742V2.809h92.7v7.867zm0 0" style="stroke:none;fill-rule:evenodd;fill:#4775ae;fill-opacity:1"/><path d="M300.844 10.676v7.863h-5.059v19.102h8.43q-2.244 4.306-1.688 8.988h-5.054v16.855h-5.059v5.618h8.43v5.617q-3.317 3.78-3.371 8.988.054 5.21 3.37 8.988v8.989q-3.323 4.071-3.37 9.55c.03 3.657 1.156 6.84 3.37 9.551v8.988h-8.429v5.622h5.059v13.48h5.054v7.867h-5.054q-1.561 10.278 3.37 19.102-.56 4.68 1.684 8.988h-5.054v11.234q-4.246-.363-5.059 2.25h-11.797q-6.538-2.22-15.168-2.25-8.63.03-15.168 2.25h-11.797q-6.106-2.214-14.328-2.25-8.22.036-14.324 2.25h-5.059v-13.484h-6.738v11.234h-28.652v4.496h28.652v3.372q-14.43-3.181-30.34-2.25v-4.493h-11.797a91.8 91.8 0 0 0-28.652 0H115.45v4.493c-4.023-.27-7.39.48-10.113 2.25v-3.371h8.43v-4.497h-8.43v-11.234h-6.742v11.234a81.7 81.7 0 0 0-13.48.563q2.116 1.707 1.683 3.934 6.47-.509 11.797 1.12h-13.48v-3.367H73.315q-6.106-2.214-14.328-2.25-8.22.036-14.324 2.25h-11.8v3.368H7.585q11.298-1.66 23.594-1.121v-4.497H7.586a9239 9239 0 0 1 0-60.671H31.18v-3.372h13.484v3.372h28.652v-3.372h11.797v3.372h13.48v13.48h6.743v-13.48h10.113v-3.372h11.797v3.372h28.652v-3.372c5.114.415 9.606-.335 13.485-2.25v5.622h28.652v13.48h6.738c.543-6.582-.015-12.95-1.683-19.102v-8.988q3.369-9.55 0-19.101V93.82q-3.263.398-5.055-1.125h6.738q.813-9.31-1.683-17.976V65.73q3.369-9.55 0-19.101v-7.863q-3.263.398-5.055-1.125h6.738V19.664h-6.738q1.792-1.523 5.055-1.125v-7.863q2.45-3.555 1.683-7.867h92.7q-1.292 4.868 3.37 7.867m0 0" style="stroke:none;fill-rule:evenodd;fill:#203148;fill-opacity:1"/><path d="M395.227 2.809v7.867h8.425V2.809h91.012v7.867h8.426V2.809h91.012v60.675h-11.797v5.618h11.797v60.671c-4.868-.57-8.801.176-11.797 2.25h-11.801q-6.105-2.214-14.324-2.25-8.22.036-14.325 2.25h-13.484q-7.399-2.226-16.855-2.25-9.451.024-16.852 2.25h-6.742q-6.103-2.214-14.328-2.25-8.22.036-14.324 2.25h-13.485q-6.104-2.214-14.324-2.25c-5.48.024-10.258.774-14.324 2.25q-7.672.622-13.485-2.25-15.416-1.037-28.652 2.25h-11.797q-6.107-2.214-14.328-2.25-8.22.036-14.324 2.25h-13.485q-8.918-3.24-20.222-2.25v-8.988q3.32-4.066 3.37-9.55-.05-5.48-3.37-9.551v-8.989q3.314-3.78 3.37-8.988-.056-5.21-3.37-8.988v-5.617h20.222v-5.618h-16.851c.539-5.836-.024-11.457-1.688-16.855q-.555-4.681 1.688-8.988 1.557-10.278-3.371-19.102v-7.863q4.659-2.999 3.37-7.867zm0 0" style="stroke:none;fill-rule:evenodd;fill:#8766b8;fill-opacity:1"/><path d="M395.227 2.809h8.425v7.867h-8.425zm0 0" style="stroke:none;fill-rule:evenodd;fill:#20192c;fill-opacity:1"/><path d="M494.664 2.809h8.426v7.867h-8.426zm0 0" style="stroke:none;fill-rule:evenodd;fill:#21192d;fill-opacity:1"/><path d="M98.594 18.54h6.742v19.1h-6.742zm0 0" style="stroke:none;fill-rule:evenodd;fill:#0e1925;fill-opacity:1"/><path d="M198.035 19.664h6.738v17.977h-6.738zm0 0" style="stroke:none;fill-rule:evenodd;fill:#0d151f;fill-opacity:1"/><path d="M300.844 18.54q4.929 8.824 3.37 19.1h-8.429v-19.1zm0 0" style="stroke:none;fill-rule:evenodd;fill:#151521;fill-opacity:1"/><path d="M403.652 19.664h-6.742v17.977h6.742c-2.39 1.07-5.199 1.441-8.425 1.125V18.539q4.84-.48 8.425 1.125m0 0" style="stroke:none;fill-rule:evenodd;fill:#493763;fill-opacity:1"/><path d="M403.652 19.664v17.977h-6.742V19.664zm0 0" style="stroke:none;fill-rule:evenodd;fill:#1a1525;fill-opacity:1"/><path d="M494.664 18.54h8.426v20.226h-8.426zm0 0" style="stroke:none;fill-rule:evenodd;fill:#271d35;fill-opacity:1"/><path d="M98.594 46.629h6.742v16.855h10.113v5.618H85.113v-5.618h13.48zm0 0" style="stroke:none;fill-rule:evenodd;fill:#101b28;fill-opacity:1"/><path d="M302.527 46.629c1.664 5.398 2.227 11.02 1.688 16.855h16.851v5.618h-28.652v-5.618h5.059V46.63zm0 0" style="stroke:none;fill-rule:evenodd;fill:#13111b;fill-opacity:1"/><path d="M395.227 46.629h8.425a113.7 113.7 0 0 0 1.684 22.473H375v-5.618h20.227zm0 0" style="stroke:none;fill-rule:evenodd;fill:#221a2f;fill-opacity:1"/><path d="M5.898 46.629c1.665 5.398 2.227 11.02 1.688 16.855H31.18v5.618H5.898zm0 0" style="stroke:none;fill-rule:evenodd;fill:#132030;fill-opacity:1"/><path d="M127.246 63.484h28.652v5.618h-28.652zm0 0" style="stroke:none;fill-rule:evenodd;fill:#111d2b;fill-opacity:1"/><path d="M209.832 63.484h28.652v5.618h-28.652zm0 0" style="stroke:none;fill-rule:evenodd;fill:#070c13;fill-opacity:1"/><path d="M334.55 63.484h28.653v5.618h-28.652zm0 0" style="stroke:none;fill-rule:evenodd;fill:#211a2d;fill-opacity:1"/><path d="M417.137 63.484h28.648v5.618h-28.648zm0 0" style="stroke:none;fill-rule:evenodd;fill:#21192d;fill-opacity:1"/><path d="M494.664 46.629h8.426v16.855h25.281v5.618H499.72V65.73h-5.055zm0 0" style="stroke:none;fill-rule:evenodd;fill:#20192c;fill-opacity:1"/><path d="M594.102 63.484v5.618h-11.797v-5.618zm0 0" style="stroke:none;fill-rule:evenodd;fill:#231b30;fill-opacity:1"/><path d="M44.664 63.484h28.652v5.618H44.664zm0 0" style="stroke:none;fill-rule:evenodd;fill:#142132;fill-opacity:1"/><path d="M203.09 46.629q3.369 9.55 0 19.101h-5.055v3.372h-30.34v-5.618h30.34V46.63zm0 0" style="stroke:none;fill-rule:evenodd;fill:#131f2e;fill-opacity:1"/><path d="M251.965 63.484h28.652v5.618h-28.652zm0 0" style="stroke:none;fill-rule:evenodd;fill:#090e16;fill-opacity:1"/><path d="M457.586 63.484h30.336v5.618h-30.336zm0 0" style="stroke:none;fill-rule:evenodd;fill:#291f38;fill-opacity:1"/><path d="M541.855 63.484h28.649v5.618h-28.649zm0 0" style="stroke:none;fill-rule:evenodd;fill:#271e35;fill-opacity:1"/><path d="M96.91 73.594h10.113V93.82H96.91zm0 0" style="stroke:none;fill-rule:evenodd;fill:#32527b;fill-opacity:1"/><path d="M98.594 74.719h6.742v17.976h-6.742zm0 0" style="stroke:none;fill-rule:evenodd;fill:#0e1823;fill-opacity:1"/><path d="M203.09 74.719q2.497 8.666 1.683 17.976h-6.738V74.72zm0 0" style="stroke:none;fill-rule:evenodd;fill:#0d151f;fill-opacity:1"/><path d="M300.844 74.719q3.314 3.78 3.37 8.988-.056 5.21-3.37 8.988-3.317-3.78-3.371-8.988.054-5.21 3.37-8.988m0 0" style="stroke:none;fill-rule:evenodd;fill:#0e0d16;fill-opacity:1"/><path d="M403.652 74.719h-6.742v17.976h6.742q-3.585 1.606-8.425 1.125V73.594q4.84-.475 8.425 1.125m0 0" style="stroke:none;fill-rule:evenodd;fill:#493763;fill-opacity:1"/><path d="M403.652 74.719v17.976h-6.742V74.72zm0 0" style="stroke:none;fill-rule:evenodd;fill:#1a1525;fill-opacity:1"/><path d="M494.664 73.594h8.426V93.82h-8.426zm0 0" style="stroke:none;fill-rule:evenodd;fill:#271d35;fill-opacity:1"/><path d="M98.594 101.684h6.742v19.101h-6.742zm0 0" style="stroke:none;fill-rule:evenodd;fill:#0e1823;fill-opacity:1"/><path d="M203.09 101.684q3.369 9.55 0 19.101h-5.055v-19.101zm0 0" style="stroke:none;fill-rule:evenodd;fill:#0d151f;fill-opacity:1"/><path d="M300.844 101.684q3.32 4.071 3.37 9.55-.05 5.485-3.37 9.551-3.323-4.066-3.371-9.55c.03-3.653 1.156-6.837 3.37-9.551m0 0" style="stroke:none;fill-rule:evenodd;fill:#0e0d16;fill-opacity:1"/><path d="M395.227 101.684h8.425v19.101h-8.425zm0 0" style="stroke:none;fill-rule:evenodd;fill:#221a2e;fill-opacity:1"/><path d="M494.664 101.684h8.426v19.101h-8.426zm0 0" style="stroke:none;fill-rule:evenodd;fill:#21192d;fill-opacity:1"/><path d="M300.844 129.773q11.303-.99 20.222 2.25v3.372h-16.851c.531 4.718-.031 9.214-1.688 13.48h-5.054v-13.48h-5.059v-5.622zm0 0" style="stroke:none;fill-rule:evenodd;fill:#0b0a11;fill-opacity:1"/><path d="M209.832 129.773h28.652v5.622h-28.652zm0 0" style="stroke:none;fill-rule:evenodd;fill:#070d12;fill-opacity:1"/><path d="M251.965 129.773h28.652v5.622h-28.652zm0 0" style="stroke:none;fill-rule:evenodd;fill:#080d13;fill-opacity:1"/><path d="M73.316 132.023v3.372H44.664v-3.372q6.105-2.214 14.324-2.25 8.221.036 14.328 2.25m0 0" style="stroke:none;fill-rule:evenodd;fill:#0b1219;fill-opacity:1"/><path d="M155.898 132.023v3.372h-28.652v-3.372q6.107-2.214 14.328-2.25 8.22.036 14.324 2.25m0 0" style="stroke:none;fill-rule:evenodd;fill:#0b1119;fill-opacity:1"/><path d="M169.383 129.773h33.707c1.668 6.153 2.226 12.52 1.683 19.102h-6.738v-13.48h-28.652zm0 0" style="stroke:none;fill-rule:evenodd;fill:#090f16;fill-opacity:1"/><path d="M403.652 129.773q5.813 2.872 13.485 2.25v3.372h28.648v-3.372h13.485v3.372h28.652v-3.372h6.742v16.852h8.426v-13.48h25.281v-3.372h13.484v3.372h28.649v-3.372h11.8v3.372h11.798v60.671q-6.47-.51-11.797 1.125h-11.801c-13.77-1.168-27.817-1.168-42.133 0q-12.149-1.664-25.281-1.125v-11.234h-8.426v12.36q-18.075-2.016-35.394 0h-13.485a91.8 91.8 0 0 0-28.648 0h-13.485v-12.36h-8.425v11.234q-10.623-.532-20.227 1.125h-11.797a91.8 91.8 0 0 0-28.652 0h-13.485q-7.897-1.652-16.851-1.125c.527-3.98-.035-7.722-1.688-11.234q-2.245-4.306-1.683-8.988 3.32-4.073 3.37-9.551-.005-5.092-1.687-9.55v-7.868c1.657-4.266 2.22-8.762 1.688-13.48h16.851v-3.372h13.485v3.372h28.652v-3.372H375v3.372h20.227v13.48h8.425zm0 0" style="stroke:none;fill-rule:evenodd;fill:#382c4b;fill-opacity:1"/><path d="M363.203 132.023v3.372h-28.652v-3.372q6.104-2.214 14.324-2.25 8.221.036 14.328 2.25M445.785 132.023v3.372h-28.648v-3.372q6.1-2.214 14.324-2.25 8.22.036 14.324 2.25m0 0" style="stroke:none;fill-rule:evenodd;fill:#14101a;fill-opacity:1"/><path d="M487.922 132.023v3.372H459.27v-3.372q6.104-2.214 14.324-2.25 8.224.036 14.328 2.25m0 0" style="stroke:none;fill-rule:evenodd;fill:#140f19;fill-opacity:1"/><path d="M528.371 132.023v3.372H503.09v13.48h-8.426v-16.852q7.4-2.226 16.852-2.25 9.455.024 16.855 2.25m0 0" style="stroke:none;fill-rule:evenodd;fill:#130e18;fill-opacity:1"/><path d="M570.504 132.023v3.372h-28.649v-3.372q6.104-2.214 14.325-2.25 8.22.036 14.324 2.25m0 0" style="stroke:none;fill-rule:evenodd;fill:#140f19;fill-opacity:1"/><path d="M115.45 132.023v3.372h-10.114v13.48h-6.742v-13.48h-13.48v-3.372q6.104-2.214 14.323-2.25 8.684.165 16.012 2.25m0 0" style="stroke:none;fill-rule:evenodd;fill:#080e14;fill-opacity:1"/><path d="M403.652 129.773v19.102h-8.425v-13.48H375v-3.372q13.236-3.287 28.652-2.25m0 0" style="stroke:none;fill-rule:evenodd;fill:#110d16;fill-opacity:1"/><path d="M98.594 156.742h6.742v19.102h-6.742zM198.035 156.742h6.738v19.102h-6.738zm0 0" style="stroke:none;fill-rule:evenodd;fill:#060a0f;fill-opacity:1"/><path d="M302.527 156.742q1.682 4.459 1.688 9.551c-.035 3.652-1.156 6.836-3.371 9.55-3.29-5.882-4.41-12.25-3.371-19.1zm0 0" style="stroke:none;fill-rule:evenodd;fill:#09090f;fill-opacity:1"/><path d="M395.227 156.742h8.425v20.223h-8.425zm0 0" style="stroke:none;fill-rule:evenodd;fill:#110d15;fill-opacity:1"/><path d="M494.664 156.742h8.426v19.102h-8.426zm0 0" style="stroke:none;fill-rule:evenodd;fill:#100c15;fill-opacity:1"/><path d="M204.773 198.316q.72 3.225-1.683 5.618h-5.055v-3.371h-28.652v-4.497h28.652v-11.234h6.738zm0 0" style="stroke:none;fill-rule:evenodd;fill:#0f0e17;fill-opacity:1"/><path d="M105.336 203.934c-3.34.382-5.59-.364-6.742-2.25q-5.328-1.63-11.797-1.121.432-2.228-1.684-3.934a81.7 81.7 0 0 1 13.48-.563v-11.234h6.743v11.234h8.43v4.496h-8.43zm0 0" style="stroke:none;fill-rule:evenodd;fill:#0e0c15;fill-opacity:1"/><path d="M238.484 198.316v3.368h-28.652v-3.368q6.105-2.214 14.324-2.25 8.221.036 14.328 2.25m0 0" style="stroke:none;fill-rule:evenodd;fill:#0e0c13;fill-opacity:1"/><path d="M302.527 184.832c1.653 3.512 2.215 7.254 1.688 11.234q8.954-.527 16.851 1.125v3.371q-8.953-.526-16.851 1.122-.001 2.25-3.371 2.25-3.82-1.687-8.43-2.25v-3.368q.813-2.613 5.059-2.25v-11.234zm0 0" style="stroke:none;fill-rule:evenodd;fill:#140d0c;fill-opacity:1"/><path d="M403.652 197.191v4.493q-.736 1.94-4.214 2.25-3.48-.31-4.211-2.25-10.419-.803-20.227-3.368v-1.125q9.603-1.657 20.227-1.125v-11.234h8.425zm0 0" style="stroke:none;fill-rule:evenodd;fill:#160e0c;fill-opacity:1"/><path d="M280.617 198.316v3.368h-30.336v-3.368q6.538-2.22 15.168-2.25 8.63.03 15.168 2.25m0 0" style="stroke:none;fill-rule:evenodd;fill:#0f0d15;fill-opacity:1"/><path d="M494.664 197.191h5.055q-.866 3.342 3.37 4.493c-1.773 1.976-4.581 2.722-8.425 2.25v-5.618h-6.742q-13.576 3.166-28.652 2.246v-3.37q17.318-2.016 35.394 0m0 0" style="stroke:none;fill-rule:evenodd;fill:#26170d;fill-opacity:1"/><path d="M528.371 197.191v1.125H503.09v3.368q-4.238-1.15-3.371-4.493h-5.055v-12.359h8.426v11.234q13.132-.539 25.281 1.125m0 0" style="stroke:none;fill-rule:evenodd;fill:#100a0d;fill-opacity:1"/><path d="M127.246 197.191v4.493h28.652v-4.493h11.797v4.493q15.91-.931 30.34 2.25h5.055v7.863q-3.263-.398-5.055 1.125v17.976h5.055v8.989h-5.055v19.101h5.055v7.867h-5.055q.674-2.695-1.687-4.496h-26.965c-1.606 1.594-2.164 3.465-1.688 5.618h28.653q-.814 9.873 1.687 19.101h5.055v7.867h-5.055v19.102h5.055v8.988h-5.055v5.617h-28.652v4.493h28.652v8.992h5.055V350h-5.055v19.102h5.055v8.988h-5.055c-1.664 5.023-2.222 10.265-1.687 15.73q-14.807-.545-28.653 1.125h-62.36V378.09h-6.741v16.855H31.18q-11.302-1.664-23.594-1.125c.535-5.465-.024-10.707-1.688-15.73v-35.953q2.45-3.555 1.688-7.867 12.292.538 23.594-1.125v-4.493q-11.302-1.663-23.594-1.125.826-16.595-1.688-32.582v-7.867q2.502-9.229 1.688-19.101 12.292.538 23.594-1.122v-4.496H5.898q.123-30.563 1.688-60.675h25.277v-3.368h11.801v3.368h28.652v-3.368h11.797v3.368h13.48c1.153 1.886 3.403 2.632 6.743 2.25 2.723-1.77 6.09-2.52 10.113-2.25v-4.493zm0 0" style="stroke:none;fill-rule:evenodd;fill:#8665b7;fill-opacity:1"/><path d="M73.316 198.316v3.368H44.664v-3.368q6.105-2.214 14.324-2.25 8.221.036 14.328 2.25m0 0" style="stroke:none;fill-rule:evenodd;fill:#1e182a;fill-opacity:1"/><path d="M155.898 197.191v4.493h-28.652v-4.493a91.8 91.8 0 0 1 28.652 0m0 0" style="stroke:none;fill-rule:evenodd;fill:#1e1829;fill-opacity:1"/><path d="M204.773 198.316h5.059v3.368h28.652v-3.368h11.797v3.368h30.336v-3.368h11.797v3.368q4.61.563 8.43 2.25v7.863q-3.11 4.605-3.371 10.113.054 5.21 3.37 8.988v8.989q-3.323 4.072-3.37 9.55c.03 3.657 1.156 6.836 3.37 9.551v3.371h-8.429v4.496h5.059q-1.4 10.602 3.37 20.223v7.867q-3.323 4.067-3.37 9.551c.03 3.652 1.156 6.836 3.37 9.55v8.99c-2.96 1.179-4.085 3.054-3.37 5.616h-5.059v4.493h5.059a183 183 0 0 0 3.37 16.855q-3.323 4.072-3.37 9.55c.03 3.653 1.156 6.837 3.37 9.552v8.988q-4.91 7.68-3.37 16.855h-92.7q.813-8.759-1.683-16.855v-8.988q3.369-9.552 0-19.102v-7.863c2.246-6.371 2.246-12.735 0-19.102v-8.988c2.246-6.371 2.246-12.735 0-19.102v-7.867h-5.055v-1.125h6.738q.813-9.311-1.683-17.976v-8.989q3.369-9.55 0-19.101v-8.989c1.664-5.773 2.226-11.77 1.683-17.976h-6.738q1.792-1.523 5.055-1.125v-7.863c1.601-1.594 2.164-3.47 1.683-5.618m0 0" style="stroke:none;fill-rule:evenodd;fill:#382c4a;fill-opacity:1"/><path d="M363.203 197.191H375v4.493h20.227q.731 1.94 4.21 2.25 3.479-.31 4.215-2.25 2.286-1.191 1.684-3.368h11.8v3.368h28.65v-3.368h11.8v3.368h30.336v-3.368h6.742v5.618c3.844.472 6.652-.274 8.426-2.25h25.281v-3.368h13.484v3.368h28.649v-4.493h11.8v4.493h11.798v60.675h-10.114q-2.403 2.39-1.683 5.618h11.797v60.675h-11.797v4.493h11.797v61.8H503.09V378.09h-8.426v16.855h-91.012V378.09h-6.742q-2.492 7.534-1.683 15.73-10.623-.533-20.227 1.125h-70.785q.808-8.759-1.688-16.855-.555-4.681 1.688-8.988-1.5-18.029 0-35.957h16.851v-4.493q-7.044-1.646-15.168-1.125-2.59-6.617-3.37-13.48c1.12-2.977 1.683-6.156 1.687-9.55-.035-3.657-1.156-6.84-3.371-9.552v-7.867h1.683q2.502-9.792 1.688-20.223h16.851v-4.496h-20.222v-3.37c2.215-2.716 3.336-5.895 3.37-9.551q-.005-5.093-1.687-9.551-.555-4.681 1.688-8.989 1.557-10.276-3.371-19.101v-7.863q3.37 0 3.37-2.25h18.54v-3.368h11.797v3.368h28.652zm0 0" style="stroke:none;fill-rule:evenodd;fill:#e17d22;fill-opacity:1"/><path d="M403.652 197.191h13.485v1.125h-11.801q.603 2.177-1.684 3.368zm0 0" style="stroke:none;fill-rule:evenodd;fill:#864f2d;fill-opacity:1"/><path d="M363.203 197.191v4.493h-28.652v-4.493a91.8 91.8 0 0 1 28.652 0m0 0" style="stroke:none;fill-rule:evenodd;fill:#321c0c;fill-opacity:1"/><path d="M445.785 197.191v4.493h-28.648v-4.493q14.323-2.25 28.648 0m0 0" style="stroke:none;fill-rule:evenodd;fill:#311c0c;fill-opacity:1"/><path d="M528.371 198.316v3.368H503.09v-3.368zm0 0" style="stroke:none;fill-rule:evenodd;fill:#3d220c;fill-opacity:1"/><path d="M570.504 197.191v4.493h-28.649v-3.368h-13.484v-1.125q21.477-1.752 42.133 0m0 0" style="stroke:none;fill-rule:evenodd;fill:#392110;fill-opacity:1"/><path d="M321.066 197.191h13.485v1.125h-11.797v3.368h-18.54q7.9-1.648 16.852-1.121zm0 0" style="stroke:none;fill-rule:evenodd;fill:#7e481d;fill-opacity:1"/><path d="M375 198.316q9.809 2.565 20.227 3.368H375zm0 0" style="stroke:none;fill-rule:evenodd;fill:#754112;fill-opacity:1"/><path d="M445.785 198.316v-1.125h13.485v3.371q15.075.92 28.652-2.246v3.368h-30.336v-3.368zm0 0" style="stroke:none;fill-rule:evenodd;fill:#7a451a;fill-opacity:1"/><path d="M582.305 198.316q5.54 2.35 11.797 3.368h-11.797zm0 0" style="stroke:none;fill-rule:evenodd;fill:#713f11;fill-opacity:1"/><path d="M98.594 230.898q-2.497-9.229-1.684-19.101h10.113v20.226c-3.226.317-6.035-.054-8.43-1.125m0 0" style="stroke:none;fill-rule:evenodd;fill:#5f4881;fill-opacity:1"/><path d="M98.594 230.898v-17.976h6.742v17.976zm0 0" style="stroke:none;fill-rule:evenodd;fill:#1a1525;fill-opacity:1"/><path d="M198.035 212.922h6.738c.543 6.207-.02 12.203-1.683 17.976h-5.055zm0 0" style="stroke:none;fill-rule:evenodd;fill:#181320;fill-opacity:1"/><path d="M300.844 211.797q4.929 8.825 3.37 19.101h-3.37q-3.317-3.78-3.371-8.988.262-5.508 3.37-10.113m0 0" style="stroke:none;fill-rule:evenodd;fill:#190f0d;fill-opacity:1"/><path d="M403.652 212.922h-6.742v17.976h6.742c-2.39 1.07-5.199 1.442-8.425 1.125v-20.226c3.226-.317 6.035.055 8.425 1.125m0 0" style="stroke:none;fill-rule:evenodd;fill:#794312;fill-opacity:1"/><path d="M403.652 212.922v17.976h-6.742v-17.976zm0 0" style="stroke:none;fill-rule:evenodd;fill:#2c1906;fill-opacity:1"/><path d="M503.09 212.922h-6.742v17.976h6.742c-2.39 1.07-5.2 1.442-8.426 1.125v-20.226c3.227-.317 6.035.055 8.426 1.125m0 0" style="stroke:none;fill-rule:evenodd;fill:#6c3c10;fill-opacity:1"/><path d="M503.09 212.922v17.976h-6.742v-17.976zm0 0" style="stroke:none;fill-rule:evenodd;fill:#2f1a07;fill-opacity:1"/><path d="M300.844 230.898h3.37q-2.243 4.308-1.687 8.989h-1.683zm0 0" style="stroke:none;fill-rule:evenodd;fill:#865031;fill-opacity:1"/><path d="M98.594 239.887h6.742v19.101h-6.742zm0 0" style="stroke:none;fill-rule:evenodd;fill:#1a1525;fill-opacity:1"/><path d="M203.09 239.887q3.369 9.55 0 19.101h-5.055v-19.101zm0 0" style="stroke:none;fill-rule:evenodd;fill:#181320;fill-opacity:1"/><path d="M300.844 239.887h1.683q1.682 4.458 1.688 9.55c-.035 3.657-1.156 6.836-3.371 9.551-2.215-2.715-3.34-5.894-3.371-9.55.03-3.653 1.156-6.836 3.37-9.551m0 0" style="stroke:none;fill-rule:evenodd;fill:#170e0c;fill-opacity:1"/><path d="M395.227 239.887h8.425v19.101h-8.425zm0 0" style="stroke:none;fill-rule:evenodd;fill:#381f0a;fill-opacity:1"/><path d="M494.664 239.887h8.426v19.101h-8.426zm0 0" style="stroke:none;fill-rule:evenodd;fill:#371e09;fill-opacity:1"/><path d="M5.898 262.36H31.18v4.495H5.898zm0 0" style="stroke:none;fill-rule:evenodd;fill:#1a1424;fill-opacity:1"/><path d="M44.664 262.36h28.652v4.495H44.664zm0 0" style="stroke:none;fill-rule:evenodd;fill:#1b1525;fill-opacity:1"/><path d="M127.246 262.36h28.652v4.495h-28.652zm0 0" style="stroke:none;fill-rule:evenodd;fill:#1a1525;fill-opacity:1"/><path d="M209.832 262.36h28.652v4.495h-28.652zM251.965 262.36h28.652v4.495h-28.652zm0 0" style="stroke:none;fill-rule:evenodd;fill:#0b090f;fill-opacity:1"/><path d="M302.527 262.36h18.54v4.495h-16.852q.814 10.432-1.688 20.223zm0 0" style="stroke:none;fill-rule:evenodd;fill:#2e1907;fill-opacity:1"/><path d="M334.55 262.36h28.653v4.495h-28.652zm0 0" style="stroke:none;fill-rule:evenodd;fill:#2d1907;fill-opacity:1"/><path d="M376.684 262.36h26.968v4.495h-26.968zM417.137 262.36h28.648v4.495h-28.648zM486.234 262.36v4.495H459.27v-4.496zm0 0" style="stroke:none;fill-rule:evenodd;fill:#2c1906;fill-opacity:1"/><path d="M528.371 266.855H499.72v-4.496h28.652zM541.855 262.36h28.649v4.495h-28.649zm0 0" style="stroke:none;fill-rule:evenodd;fill:#2e1907;fill-opacity:1"/><path d="M486.234 262.36c1.606 1.593 2.164 3.464 1.688 5.617q-14.813.544-28.652-1.122h26.964zm0 0" style="stroke:none;fill-rule:evenodd;fill:#824814;fill-opacity:1"/><path d="M583.988 262.36v4.495q5.649-.497 10.114 1.122h-11.797q-.72-3.228 1.683-5.618m0 0" style="stroke:none;fill-rule:evenodd;fill:#7d4513;fill-opacity:1"/><path d="M5.898 266.855H31.18q-11.302 1.659-23.594 1.122.814 9.873-1.688 19.101zm0 0" style="stroke:none;fill-rule:evenodd;fill:#46355f;fill-opacity:1"/><path d="M86.797 262.36v4.495h11.797v19.098h6.742v-19.098h8.43v-4.496q2.403 2.39 1.683 5.618h-8.426v19.101H96.91v-19.101H85.113q-.72-3.228 1.684-5.618m0 0" style="stroke:none;fill-rule:evenodd;fill:#5b457c;fill-opacity:1"/><path d="M86.797 262.36h26.969v4.495h-8.43v19.098h-6.742v-19.098H86.797zm0 0" style="stroke:none;fill-rule:evenodd;fill:#1b1525;fill-opacity:1"/><path d="M169.383 262.36v4.495h26.965v-4.496q2.36 1.801 1.687 4.496h5.055v1.122h-5.055v19.101q-2.502-9.229-1.687-19.101h-28.653c-.476-2.153.082-4.024 1.688-5.618m0 0" style="stroke:none;fill-rule:evenodd;fill:#59437a;fill-opacity:1"/><path d="M169.383 262.36h26.965v4.495h-26.965zm0 0" style="stroke:none;fill-rule:evenodd;fill:#1a1525;fill-opacity:1"/><path d="M203.09 267.977q2.497 8.666 1.683 17.976h-6.738v-17.976zm0 0" style="stroke:none;fill-rule:evenodd;fill:#181320;fill-opacity:1"/><path d="M300.844 262.36h1.683v24.718h-1.683q-4.771-9.622-3.371-20.223h-5.059v-4.496zm0 0" style="stroke:none;fill-rule:evenodd;fill:#110c0f;fill-opacity:1"/><path d="M376.684 262.36v4.495h26.968v1.122h-6.742v17.976h6.742q-3.585 1.605-8.425 1.125v-19.101H375q-.72-3.228 1.684-5.618m0 0" style="stroke:none;fill-rule:evenodd;fill:#754112;fill-opacity:1"/><path d="M403.652 267.977v17.976h-6.742v-17.976zm0 0" style="stroke:none;fill-rule:evenodd;fill:#2c1906;fill-opacity:1"/><path d="M499.719 266.855h28.652q-12.149 1.666-25.281 1.122h-6.742v17.976h6.742q-3.586 1.605-8.426 1.125v-20.223zm0 0" style="stroke:none;fill-rule:evenodd;fill:#703e11;fill-opacity:1"/><path d="M503.09 267.977v17.976h-6.742v-17.976zm0 0" style="stroke:none;fill-rule:evenodd;fill:#2f1a07;fill-opacity:1"/><path d="M98.594 294.945h6.742v19.102h-6.742zm0 0" style="stroke:none;fill-rule:evenodd;fill:#1b1525;fill-opacity:1"/><path d="M203.09 294.945c2.246 6.368 2.246 12.73 0 19.102h-5.055v-19.102zm0 0" style="stroke:none;fill-rule:evenodd;fill:#181321;fill-opacity:1"/><path d="M300.844 294.945q3.32 4.067 3.37 9.551c-.003 3.395-.566 6.574-1.687 9.55h-1.683q-3.323-4.072-3.371-9.55c.03-3.656 1.156-6.84 3.37-9.55m0 0" style="stroke:none;fill-rule:evenodd;fill:#180f0d;fill-opacity:1"/><path d="M395.227 294.945h8.425v19.102h-8.425zm0 0" style="stroke:none;fill-rule:evenodd;fill:#381f0a;fill-opacity:1"/><path d="M494.664 294.945h8.426v19.102h-8.426zm0 0" style="stroke:none;fill-rule:evenodd;fill:#3d220a;fill-opacity:1"/><path d="M496.348 323.035v17.977h6.742q-3.586 1.599-8.426 1.125c-.543-6.582.016-12.953 1.684-19.102m0 0" style="stroke:none;fill-rule:evenodd;fill:#61360e;fill-opacity:1"/><path d="M5.898 294.945q2.514 15.987 1.688 32.582 12.292-.538 23.594 1.125H5.898zm0 0" style="stroke:none;fill-rule:evenodd;fill:#5d467e;fill-opacity:1"/><path d="M300.844 314.047h1.683c.52 4.574 1.645 9.07 3.371 13.48 5.414-.347 10.473.028 15.168 1.125h-16.851q1.065-3.845-3.371-5.617zm0 0" style="stroke:none;fill-rule:evenodd;fill:#ac6124;fill-opacity:1"/><path d="M44.664 328.652h28.652v4.493H44.664zm0 0" style="stroke:none;fill-rule:evenodd;fill:#1b1525;fill-opacity:1"/><path d="M98.594 323.035h6.742v5.617h8.43v4.493h-8.43v8.992h-6.742v-8.992H86.797v-4.493h11.797zm0 0" style="stroke:none;fill-rule:evenodd;fill:#16111d;fill-opacity:1"/><path d="M127.246 328.652h28.652v4.493h-28.652zm0 0" style="stroke:none;fill-rule:evenodd;fill:#1a1525;fill-opacity:1"/><path d="M203.09 323.035c2.246 6.367 2.246 12.73 0 19.102h-5.055v-8.992h-28.652v-4.493h28.652v-5.617zm0 0" style="stroke:none;fill-rule:evenodd;fill:#1a1424;fill-opacity:1"/><path d="M209.832 328.652h28.652v4.493h-28.652zM251.965 328.652h28.652v4.493h-28.652zm0 0" style="stroke:none;fill-rule:evenodd;fill:#0b090f;fill-opacity:1"/><path d="M300.844 323.035q4.437 1.772 3.37 5.617v4.493q-1.5 17.928 0 35.957h-3.37V350a183 183 0 0 1-3.371-16.855h-5.059v-4.493h5.059q-1.071-3.845 3.37-5.617m0 0" style="stroke:none;fill-rule:evenodd;fill:#180f0c;fill-opacity:1"/><path d="M304.215 328.652h16.851v4.493h-16.851zm0 0" style="stroke:none;fill-rule:evenodd;fill:#2c1806;fill-opacity:1"/><path d="M334.55 328.652h28.653v4.493h-28.652zm0 0" style="stroke:none;fill-rule:evenodd;fill:#2d1907;fill-opacity:1"/><path d="M403.652 323.035v17.977h-6.742v-7.867h-20.226v-4.493h20.226v-5.617zm0 0" style="stroke:none;fill-rule:evenodd;fill:#221405;fill-opacity:1"/><path d="M417.137 328.652h28.648v4.493h-28.648zM459.27 328.652h26.964v4.493H459.27zm0 0" style="stroke:none;fill-rule:evenodd;fill:#2c1906;fill-opacity:1"/><path d="M496.348 323.035h6.742v5.617h25.281v4.493H503.09v7.867h-6.742zm0 0" style="stroke:none;fill-rule:evenodd;fill:#2b1806;fill-opacity:1"/><path d="M541.855 328.652h28.649v4.493h-28.649zm0 0" style="stroke:none;fill-rule:evenodd;fill:#2e1907;fill-opacity:1"/><path d="M98.594 323.035v5.617H86.797v4.493h11.797v8.992q-2.446-3.555-1.684-7.867H85.113v-6.743H96.91q-.678-2.695 1.684-4.492m0 0" style="stroke:none;fill-rule:evenodd;fill:#5f4882;fill-opacity:1"/><path d="M403.652 323.035h-6.742v5.617h-20.226v4.493h20.226v7.867h6.742q-3.585 1.599-8.425 1.125v-7.867H375v-6.743h20.227v-5.617q4.84-.48 8.425 1.125m0 0" style="stroke:none;fill-rule:evenodd;fill:#905016;fill-opacity:1"/><path d="M459.27 328.652c9.226-1.113 18.777-1.484 28.652-1.125v6.743q-14.813.545-28.652-1.125h26.964v-4.493zm0 0" style="stroke:none;fill-rule:evenodd;fill:#9e5718;fill-opacity:1"/><path d="M31.18 333.145q-11.302 1.663-23.594 1.125.762 4.311-1.688 7.867v-8.992zm0 0" style="stroke:none;fill-rule:evenodd;fill:#4b3865;fill-opacity:1"/><path d="M98.594 350h6.742v19.102h-6.742zm0 0" style="stroke:none;fill-rule:evenodd;fill:#1c1526;fill-opacity:1"/><path d="M203.09 350q3.369 9.55 0 19.102h-5.055V350zm0 0" style="stroke:none;fill-rule:evenodd;fill:#191422;fill-opacity:1"/><path d="M300.844 350v19.102q-3.323-4.073-3.371-9.551c.03-3.653 1.156-6.836 3.37-9.551m0 0" style="stroke:none;fill-rule:evenodd;fill:#0b090f;fill-opacity:1"/><path d="M403.652 351.125h-6.742v17.977h6.742q-3.585 1.599-8.425 1.125V350q4.84-.48 8.425 1.125m0 0" style="stroke:none;fill-rule:evenodd;fill:#794312;fill-opacity:1"/><path d="M403.652 351.125v17.977h-6.742v-17.977zm0 0" style="stroke:none;fill-rule:evenodd;fill:#2c1906;fill-opacity:1"/><path d="M494.664 350h8.426v19.102h-8.426zm0 0" style="stroke:none;fill-rule:evenodd;fill:#3e220a;fill-opacity:1"/><path d="M594.102 314.047a486.5 486.5 0 0 1 0 80.898v-61.8h-11.797v-4.493h11.797zm0 0" style="stroke:none;fill-rule:evenodd;fill:#331d0a;fill-opacity:1"/><path d="M300.844 369.102h3.37q-2.243 4.306-1.687 8.988h-1.683zm0 0" style="stroke:none;fill-rule:evenodd;fill:#885231;fill-opacity:1"/><path d="M105.336 394.945h-6.742V378.09h6.742zm0 0" style="stroke:none;fill-rule:evenodd;fill:#1a1424;fill-opacity:1"/><path d="M396.91 378.09h6.742v16.855h-6.742zm0 0" style="stroke:none;fill-rule:evenodd;fill:#2b1806;fill-opacity:1"/><path d="M503.09 394.945h-8.426V378.09h8.426zm0 0" style="stroke:none;fill-rule:evenodd;fill:#371e09;fill-opacity:1"/><path d="M5.898 378.09c1.665 5.023 2.223 10.265 1.688 15.73q12.292-.54 23.594 1.125H5.898zm0 0" style="stroke:none;fill-rule:evenodd;fill:#513e6f;fill-opacity:1"/><path d="M198.035 378.09v16.855h-30.34q13.846-1.67 28.653-1.125c-.536-5.465.023-10.707 1.687-15.73m0 0" style="stroke:none;fill-rule:evenodd;fill:#5c457d;fill-opacity:1"/><path d="M396.91 378.09v16.855H375q9.603-1.658 20.227-1.125-.808-8.197 1.683-15.73m0 0" style="stroke:none;fill-rule:evenodd;fill:#8b4d15;fill-opacity:1"/></svg>