<svg xmlns="http://www.w3.org/2000/svg" width="600" height="400"><path d="M-.875-.766H133.82a11443 11443 0 0 0-29.738 174.711q-64.782-.708-75.219 55.172-3.498 2.302 0 4.598v1.535q12.992 60.09 82.215 52.871c22.656-5.3 38.399-17.308 47.23-36.016q76.74 18.081 150.438 41.383a29.1 29.1 0 0 0-1.75 10.727c-.414 1.976.168 3.512 1.75 4.598 3.102 34.902 24.68 53.292 64.723 55.171q59.594-3.17 66.472-55.171 3.498-2.3 0-4.598-.298-14.842-8.746-27.586 8.116-5.085 17.493-7.664 26.789 29.929 69.972 22.223 45.53-12.681 48.977-54.407 3.498-2.299 0-4.597-8.896-57.206-75.219-55.172A4808 4808 0 0 0 457.434-.766h141.691v400h-600zm0 0" style="stroke:none;fill-rule:evenodd;fill:#fefefe;fill-opacity:1"/><path d="M133.82-.766h3.496a13403 13403 0 0 1-27.988 167.817q.217 4.423 1.75 8.43l-6.996-1.536A11443 11443 0 0 1 133.82-.765m0 0" style="stroke:none;fill-rule:evenodd;fill:#c8c8c8;fill-opacity:1"/><path d="M137.316-.766h110.207a440 440 0 0 0 24.489 39.848c-19.961 10.953-30.453 26.79-31.489 47.508-2.332 1.531-2.332 3.066 0 4.597q-.03 17.531 10.497 32.184a3494 3494 0 0 1-104.958 70.5q-14.179-13.886-34.984-18.39-1.533-4.007-1.75-8.43A13403 13403 0 0 0 137.316-.766m0 0" style="stroke:none;fill-rule:evenodd;fill:#fefefe;fill-opacity:1"/><path d="M247.523-.766h5.247a160 160 0 0 0 24.488 36.782q-2.071 2.072-5.246 3.066A440 440 0 0 1 247.523-.766m0 0" style="stroke:none;fill-rule:evenodd;fill:#c7c7c7;fill-opacity:1"/><path d="M252.77-.766h62.972a302 302 0 0 1-3.496 32.184q-18.176-1.232-34.988 4.598A160 160 0 0 1 252.77-.766m0 0" style="stroke:none;fill-rule:evenodd;fill:#fdfdfd;fill-opacity:1"/><path d="M315.742-.766h5.25a382 382 0 0 0-3.5 32.184q3.387-.544 5.25 1.531a37.9 37.9 0 0 1-10.496-1.531 302 302 0 0 0 3.496-32.184m0 0" style="stroke:none;fill-rule:evenodd;fill:#c5c5c5;fill-opacity:1"/><path d="M320.992-.766h132.945a8302 8302 0 0 1 33.235 177.778q-19.836 5.63-34.985 18.39a4366 4366 0 0 1-92.71-70.5q11.356-15.299 12.242-33.714 3.498-2.3 0-4.598-2.848-31.436-33.235-48.277a6522 6522 0 0 0-15.742-5.364q-1.863-2.075-5.25-1.531a382 382 0 0 1 3.5-32.184m0 0" style="stroke:none;fill-rule:evenodd;fill:#fefefe;fill-opacity:1"/><path d="M453.938-.766h3.496a4808 4808 0 0 1 34.984 177.778h-5.246A8302 8302 0 0 0 453.937-.766m0 0" style="stroke:none;fill-rule:evenodd;fill:#c8c8c8;fill-opacity:1"/><path d="M368.223 86.59h3.496c2.332 1.531 2.332 3.066 0 4.597h-3.496q-26.461 5.573-41.11-13.792-8.11-16.534-20.117-30.653-11.607 10.355-16.617 24.524c-9.871 17.304-25.91 23.945-48.106 19.921h-1.75c-2.332-1.53-2.332-3.066 0-4.597h1.75q16.43 1.44 31.489-3.832 14.127-16.693 23.613-36.016c4.332-4.633 9.578-5.656 15.746-3.062a462 462 0 0 1 19.242 32.183q13.816 14.993 35.86 10.727m0 0" style="stroke:none;fill-rule:evenodd;fill:#eaa936;fill-opacity:1"/><path d="M312.246 31.418a37.9 37.9 0 0 0 10.496 1.531c5.2 1.766 10.45 3.551 15.742 5.364q30.387 16.84 33.235 48.277h-3.496q-6.786-48.852-62.977-52.106-41.913 1.325-58.598 35.246-3.439 8.21-4.375 16.86h-1.75c1.036-20.719 11.528-36.555 31.489-47.508q3.177-.995 5.246-3.066 16.81-5.83 34.988-4.598m0 0" style="stroke:none;fill-rule:evenodd;fill:#1d1d1d;fill-opacity:1"/><path d="M368.223 86.59q-22.044 4.267-35.86-10.727a462 462 0 0 0-19.242-32.183c-6.168-2.594-11.414-1.57-15.746 3.062q-9.486 19.323-23.613 36.016-15.059 5.273-31.489 3.832.936-8.65 4.375-16.86 16.685-33.92 58.598-35.246c37.461 2.168 58.453 19.54 62.977 52.106m0 0" style="stroke:none;fill-rule:evenodd;fill:#fcfbfa;fill-opacity:1"/><path d="M368.223 91.188c-4.317 33.152-25.602 51.035-63.848 53.64q-54.948-5.612-62.102-53.64c22.196 4.023 38.235-2.618 48.106-19.922q5.01-14.17 16.617-24.524 12.007 14.12 20.117 30.653 14.649 19.365 41.11 13.793m0 0" style="stroke:none;fill-rule:evenodd;fill:#fdfcfc;fill-opacity:1"/><path d="M251.02 123.371c1.75.512 2.917 1.531 3.5 3.067a3480 3480 0 0 1-104.958 70.496c-1.75-.508-2.914-1.532-3.5-3.063a3494 3494 0 0 0 104.958-70.5M359.477 124.902a4366 4366 0 0 0 92.71 70.5 10.87 10.87 0 0 1-3.5 4.598q-.028-3.487-3.496-5.363a2183 2183 0 0 1-80.468-59.77 55 55 0 0 0-10.496-5.367q1.752-3.063 5.25-4.598m0 0" style="stroke:none;fill-rule:evenodd;fill:#c7c7c7;fill-opacity:1"/><path d="M254.52 126.438q27.844 25.845 68.222 19.921a2394 2394 0 0 1 29.735 105.746q-29.654 9.897-41.98 35.25a12356 12356 0 0 1-150.438-39.847 33.8 33.8 0 0 1 1.75-12.258v-1.535q3.498-2.296 0-4.598c-.95-11.687-5.032-22.418-12.246-32.183a3480 3480 0 0 0 104.957-70.496m0 0" style="stroke:none;fill-rule:evenodd;fill:#fefefe;fill-opacity:1"/><path d="M354.227 129.5a55 55 0 0 1 10.496 5.367 2183 2183 0 0 0 80.468 59.77q3.468 1.876 3.497 5.363-10.5 12.276-12.247 27.586-3.492 2.298 0 4.598-.645 16.111 7 30.652-5.19 6.823-13.996 10.726-27.001-28.65-69.968-24.519a2781 2781 0 0 1-33.239-104.215q15.491-5.268 27.989-15.328m0 0" style="stroke:none;fill-rule:evenodd;fill:#fdfdfd;fill-opacity:1"/><path d="M240.523 91.188h1.75q7.154 48.028 62.102 53.64c38.246-2.605 59.531-20.488 63.848-53.64h3.496q-.886 18.416-12.242 33.714-3.498 1.535-5.25 4.598-12.497 10.06-27.989 15.328-2.6-.395-3.496 1.531-40.378 5.925-68.222-19.922c-.583-1.535-1.75-2.554-3.5-3.066q-10.525-14.654-10.497-32.183m0 0" style="stroke:none;fill-rule:evenodd;fill:#1d1d1d;fill-opacity:1"/><path d="M326.238 144.828a2781 2781 0 0 0 33.239 104.215q-3.075 1.941-7 3.062a2394 2394 0 0 0-29.735-105.746q.896-1.926 3.496-1.53m0 0" style="stroke:none;fill-rule:evenodd;fill:#c8c8c8;fill-opacity:1"/><path d="M564.14 232.184q-16.36-.322-29.738-8.43a290156 290156 0 0 1-34.984-33.715q-10.499-4.599-20.992 0a580 580 0 0 1-38.485 36.016q11.263-42.82 61.227-45.977 46.869.814 62.098 39.844a43.9 43.9 0 0 1 .875 12.262m0 0" style="stroke:none;fill-rule:evenodd;fill:#fbf9f7;fill-opacity:1"/><path d="M158.309 229.117h3.5q3.498 2.302 0 4.598c-18.668.258-37.329 0-55.977-.766q-4.043-3.629-6.125-8.43a559 559 0 0 1-9.621-32.183 432 432 0 0 1-11.367 36.781q-2.19 1.917-4.375 3.832-22.723 1.151-45.48.766-3.5-2.296 0-4.598h3.5a483 483 0 0 0 38.48-.765q4.77-4.138 6.125-9.961a353 353 0 0 0 6.996-27.586q2.403-7.95 10.496-4.598a537 537 0 0 1 10.496 36.781q1.22 3.288 4.371 5.364a782 782 0 0 0 48.98.765m0 0" style="stroke:none;fill-rule:evenodd;fill:#e2a332;fill-opacity:1"/><path d="M564.14 232.184h3.497c2.332 1.53 2.332 3.066 0 4.597h-3.496c-17.192.004-31.477-5.613-42.86-16.86-7.207-8.874-15.082-17.3-23.613-25.284q-10.272-5.009-19.242 1.531-11.057 10.452-20.117 22.223-8.948 8.302-20.118 13.793h-1.75q-3.492-2.3 0-4.598c1.168-.512 2.332-1.024 3.5-1.531a580 580 0 0 0 38.485-36.016q10.493-4.599 20.992 0 17.489 16.858 34.984 33.715 13.378 8.108 29.739 8.43m0 0" style="stroke:none;fill-rule:evenodd;fill:#eaa937;fill-opacity:1"/><path d="M487.172 177.012h5.246q66.323-2.034 75.219 55.172h-3.496a43.9 43.9 0 0 0-.875-12.262q-15.23-39.029-62.098-39.844-49.964 3.158-61.227 45.977c-1.168.507-2.332 1.02-3.5 1.53q1.747-15.309 12.247-27.585a10.87 10.87 0 0 0 3.5-4.598c10.097-8.507 21.761-14.636 34.984-18.39m0 0" style="stroke:none;fill-rule:evenodd;fill:#1c1c1c;fill-opacity:1"/><path d="M564.14 236.781q-5.449 49.98-62.972 53.64-59.25-5.932-62.977-58.237 11.17-5.49 20.118-13.793 9.06-11.77 20.117-22.223 8.97-6.54 19.242-1.531c8.531 7.984 16.406 16.41 23.613 25.285 11.383 11.246 25.668 16.863 42.86 16.86m0 0" style="stroke:none;fill-rule:evenodd;fill:#fdfdfc;fill-opacity:1"/><path d="M161.809 233.715v1.535c-4.364 9.57-9.317 19.273-14.871 29.117q-39.689 38.859-90.086 11.496Q36.3 258.56 28.863 235.25v-1.535c15.172.258 30.332 0 45.48-.766q2.186-1.915 4.376-3.832a432 432 0 0 0 11.367-36.781 559 559 0 0 0 9.621 32.184q2.082 4.8 6.125 8.43c18.648.765 37.309 1.023 55.977.765m0 0" style="stroke:none;fill-rule:evenodd;fill:#989695;fill-opacity:1"/><path d="m104.082 173.945 6.996 1.535q20.805 4.505 34.985 18.391c.585 1.531 1.75 2.555 3.5 3.063 7.214 9.765 11.296 20.496 12.246 32.183h-3.5c-4.551-32.594-25.543-49.965-62.973-52.105q-56.116 3.186-62.973 52.105h-3.5q10.437-55.88 75.219-55.172m0 0" style="stroke:none;fill-rule:evenodd;fill:#191919;fill-opacity:1"/><path d="M158.309 229.117c-16.336.258-32.664 0-48.98-.765q-3.154-2.075-4.372-5.364a537 537 0 0 0-10.496-36.781q-8.094-3.352-10.496 4.598a353 353 0 0 1-6.996 27.586q-1.356 5.824-6.125 9.96a483 483 0 0 1-38.48.766q6.856-48.918 62.972-52.105 56.146 3.212 62.973 52.105m0 0" style="stroke:none;fill-rule:evenodd;fill:#969696;fill-opacity:1"/><path d="M160.059 247.508a12356 12356 0 0 0 150.437 39.847c.469 2.454-.117 4.497-1.75 6.133q-73.698-23.301-150.437-41.383.15-2.548 1.75-4.597m0 0" style="stroke:none;fill-rule:evenodd;fill:#c6c6c6;fill-opacity:1"/><path d="M436.441 304.215h3.5q3.498 2.298 0 4.598h-3.5c-14.246.55-25.035-4.56-32.359-15.325a305 305 0 0 0-15.742-26.054q-5.251-6.135-10.496 0a305 305 0 0 0-15.746 26.054q-6.866 10.611-20.114 14.559-15.72 1.147-31.488.765h-1.75c-1.582-1.085-2.164-2.62-1.75-4.597h3.5q18.904 1.277 36.734-3.832 6.665-5.07 11.372-11.492a157 157 0 0 1 16.617-26.055c5.246-4.09 10.496-4.09 15.742 0a157 157 0 0 1 16.621 26.055c6.016 10.418 15.637 15.53 28.86 15.324m0 0" style="stroke:none;fill-rule:evenodd;fill:#eaaa37;fill-opacity:1"/><path d="M359.477 249.043q42.967-4.132 69.968 24.52-.449 2.28 1.75 3.066 8.448 12.744 8.746 27.586h-3.5c-4.64-32.93-25.925-50.3-63.847-52.11-36.918 2.465-57.621 19.833-62.098 52.11h-3.5a29.1 29.1 0 0 1 1.75-10.727c1.633-1.636 2.219-3.68 1.75-6.133q12.327-25.353 41.98-35.25c2.618-.746 4.95-1.77 7-3.062m0 0" style="stroke:none;fill-rule:evenodd;fill:#1c1c1c;fill-opacity:1"/><path d="M436.441 304.215c-13.222.207-22.843-4.906-28.859-15.324a157 157 0 0 0-16.621-26.055c-5.246-4.09-10.496-4.09-15.742 0a157 157 0 0 0-16.617 26.055q-4.707 6.422-11.372 11.492-17.83 5.109-36.734 3.832c4.477-32.277 25.18-49.645 62.098-52.11 37.922 1.81 59.207 19.18 63.847 52.11m0 0" style="stroke:none;fill-rule:evenodd;fill:#fbfaf9;fill-opacity:1"/><path d="M436.441 308.813q-7.317 48.936-63.847 53.64-54.897-5.572-62.098-53.64 15.768.381 31.488-.766 13.248-3.949 20.114-14.559a305 305 0 0 1 15.746-26.054q5.245-6.135 10.496 0a305 305 0 0 1 15.742 26.054q10.988 16.15 32.36 15.325m0 0" style="stroke:none;fill-rule:evenodd;fill:#fdfcfc;fill-opacity:1"/><path d="M443.441 262.836a498 498 0 0 1 5.247 6.129q-9.377 2.578-17.493 7.664-2.199-.786-1.75-3.067c5.871-2.601 10.535-6.18 13.996-10.726m0 0" style="stroke:none;fill-rule:evenodd;fill:#bfbfbf;fill-opacity:1"/><path d="M28.863 235.25c4.957 15.54 14.29 29.078 27.989 40.613q50.397 27.363 90.086-11.496c5.554-9.844 10.507-19.547 14.87-29.117a33.8 33.8 0 0 0-1.75 12.258q-1.598 2.05-1.75 4.597-13.246 28.063-47.23 36.016-69.223 7.219-82.215-52.871m0 0" style="stroke:none;fill-rule:evenodd;fill:#191919;fill-opacity:1"/><path d="M436.441 232.184h1.75c2.485 34.87 23.477 54.28 62.977 58.238q57.523-3.662 62.973-53.64h3.496q-3.447 41.725-48.977 54.405-43.184 7.707-69.972-22.222a498 498 0 0 0-5.247-6.13q-7.645-14.54-7-30.651m0 0" style="stroke:none;fill-rule:evenodd;fill:#1b1b1b;fill-opacity:1"/><path d="M308.746 308.813h1.75q7.2 48.068 62.098 53.64 56.53-4.704 63.847-53.64h3.5q-6.878 52.001-66.472 55.171c-40.043-1.879-61.621-20.27-64.723-55.171m0 0" style="stroke:none;fill-rule:evenodd;fill:#1c1c1b;fill-opacity:1"/></svg>