<svg xmlns="http://www.w3.org/2000/svg" width="600" height="400"><path d="M-.684-.535h600v55.762h-72.27v-22.52c4.38.332 8.474-.023 12.27-1.07q-6.68-2.127-15-2.145c-5 .356-9.996.715-15 1.07a44.4 44.4 0 0 0 13.637 1.075v23.59h-43.637V26.273h13.637v-3.218H461.59v3.218h13.637v28.954H-.683zm0 0" style="stroke:none;fill-rule:evenodd;fill:#fefefe;fill-opacity:1"/><path d="M479.316 119.57h15c-.453 87.403.004 174.621 1.368 261.664h10.906v1.07a554 554 0 0 1-65.453 0v-1.07h17.726c1.364-87.043 1.817-174.261 1.364-261.664h15V26.273q-5.736-1.317-12.274-1.609 32.55-1.107 15 .535-.675 47.46 1.363 94.371m0 0" style="stroke:none;fill-rule:evenodd;fill:#878787;fill-opacity:1"/><path d="M539.316 31.637h-13.632v48.258h16.363v302.409a147 147 0 0 1-35.457 0q2.046-150.934 1.363-302.41 7.921.503 15-1.074V31.637a44.4 44.4 0 0 1-13.637-1.075c5.004-.355 10-.714 15-1.07q8.32.018 15 2.145m0 0" style="stroke:none;fill-rule:evenodd;fill:#af8047;fill-opacity:1"/><path d="M-.684 55.227h475.91v2.144H-.683zm0 0" style="stroke:none;fill-rule:evenodd;fill:#d7d7d7;fill-opacity:1"/><path d="M539.316 31.637c-3.796 1.047-7.89 1.402-12.27 1.07v22.52h72.27v2.144h-72.27v21.45q7.917-.507 15 1.074h-16.362V31.637zm0 0" style="stroke:none;fill-rule:evenodd;fill:#dedbd7;fill-opacity:1"/><path d="M-.684 57.371h475.91v62.2h-15c-1.347 5.511-1.8 11.234-1.363 17.16H393.41q-7.769-1.584-16.363-1.075v-19.3q6.95.512 13.637-1.075c-10-1.43-20.004-1.43-30 0 4.453 1.059 9 1.414 13.632 1.074v19.301q-8.591-.508-16.363 1.074h-10.906q.58-3.08-1.363-5.363h-16.368v-5.363a44.4 44.4 0 0 0 13.637-1.07q-15-2.145-30 0a44.4 44.4 0 0 0 13.637 1.07v5.363h-16.363v5.363h-113.18v-4.289h-16.363v-10.726h13.632V118.5h-30v3.215h13.637v9.652H161.59v5.363H96.137V85.254H79.773V68.098q6.95.514 13.637-1.075-15-2.145-30 0 6.683 1.589 13.637 1.075v17.156H60.684a487 487 0 0 0-1.368 51.476H48.41V83.11H32.047V60.59q6.95.514 13.637-1.074-15-2.145-30 0c4.453 1.058 9 1.418 13.632 1.074v22.52h-15a529 529 0 0 0-1.363 53.62H-.684zm0 0" style="stroke:none;fill-rule:evenodd;fill:#fefefe;fill-opacity:1"/><path d="M522.953 55.227v2.144h-43.637v62.2a1638 1638 0 0 1-1.363-94.372q17.55-1.642-15-.535 6.539.291 12.274 1.61H461.59v-3.22h31.363v3.22h-13.637v28.953zm0 0" style="stroke:none;fill-rule:evenodd;fill:#c6c6c6;fill-opacity:1"/><path d="M522.953 57.371v21.45H506.59v57.91h-10.906c.437-5.926-.02-11.649-1.368-17.16h-15v-62.2zM599.316 57.371v79.36h-57.27V79.894c-4.722-1.055-9.722-1.41-15-1.075V57.371zm0 0" style="stroke:none;fill-rule:evenodd;fill:#fefefe;fill-opacity:1"/><path d="M48.41 136.73v244.504h12.274v1.07a448 448 0 0 1-61.368 0v-1.07h13.637c1.363-99.195 1.82-198.57 1.363-298.125h15V60.59a44.4 44.4 0 0 1-13.632-1.073q15-2.145 30 0a44.4 44.4 0 0 1-13.637 1.074v22.52H48.41zm0 0" style="stroke:none;fill-rule:evenodd;fill:#7f7f7f;fill-opacity:1"/><path d="M79.773 85.254c4.72 1.055 9.72 1.41 15 1.074q-.68 148.26 1.364 295.977a147 147 0 0 1-35.453 0V85.254h16.363V68.098a44.4 44.4 0 0 1-13.637-1.075q15-2.145 30 0a44.4 44.4 0 0 1-13.637 1.075zm0 0" style="stroke:none;fill-rule:evenodd;fill:#af8048;fill-opacity:1"/><path d="M509.316 82.04h13.637v47.183h-13.637zm0 0" style="stroke:none;fill-rule:evenodd;fill:#d4bc9c;fill-opacity:1"/><path d="M525.684 82.04h13.632v47.183h-13.632zm0 0" style="stroke:none;fill-rule:evenodd;fill:#d4bb9b;fill-opacity:1"/><path d="M15.684 85.254h13.632v22.52H15.684zm0 0" style="stroke:none;fill-rule:evenodd;fill:#bababa;fill-opacity:1"/><path d="M32.047 85.254h13.637v22.52H32.047zm0 0" style="stroke:none;fill-rule:evenodd;fill:#bbb;fill-opacity:1"/><path d="M63.41 87.398h13.637v17.16H63.41zm0 0" style="stroke:none;fill-rule:evenodd;fill:#d3ba99;fill-opacity:1"/><path d="M79.773 87.398H93.41v17.16H79.773zm0 0" style="stroke:none;fill-rule:evenodd;fill:#d3b998;fill-opacity:1"/><path d="M63.41 107.773h28.637v273.461H63.41zm0 0" style="stroke:none;fill-rule:evenodd;fill:#d5bd9e;fill-opacity:1"/><path d="M63.41 107.773q14.619-1.593 30-1.07v275.602q-15.381.522-30-1.07h28.637V107.772zm0 0" style="stroke:none;fill-rule:evenodd;fill:#c29f73;fill-opacity:1"/><path d="M17.047 109.918v271.316h27.27V109.918c1.363 90.617 1.82 181.41 1.367 272.387h-30c-.457-90.977 0-181.77 1.363-272.387m0 0" style="stroke:none;fill-rule:evenodd;fill:#acacac;fill-opacity:1"/><path d="M17.047 109.918h27.27v271.316h-27.27zm0 0" style="stroke:none;fill-rule:evenodd;fill:#bdbebd;fill-opacity:1"/><path d="M393.41 136.73v245.574a147 147 0 0 1-35.457 0V136.73c5.18-1.054 10.637-1.414 16.363-1.074v-19.3c-4.632.34-9.18-.016-13.632-1.075 9.996-1.43 20-1.43 30 0a44.6 44.6 0 0 1-13.637 1.074v19.301q8.594-.508 16.363 1.074m0 0" style="stroke:none;fill-rule:evenodd;fill:#b1824b;fill-opacity:1"/><path d="M197.047 136.73v2.145q-.683 121.45 1.363 242.36h10.906v1.07a576 576 0 0 1-66.816 0v-1.07h19.09c1.363-82.75 1.82-165.684 1.363-248.794q7.922.505 15-1.074v-9.652h-13.637V118.5h30v3.215h-13.632v10.726h16.363zm0 0" style="stroke:none;fill-rule:evenodd;fill:#828282;fill-opacity:1"/><path d="M462.953 121.715h12.274v93.297h-12.274zM479.316 121.715h12.274v93.297h-12.274zm0 0" style="stroke:none;fill-rule:evenodd;fill:#bdbdbd;fill-opacity:1"/><path d="M345.684 131.367q-.684 125.204 1.363 249.867h10.906v1.07a576 576 0 0 1-66.816 0v-1.07h19.09V131.367h16.363v-5.363a44.4 44.4 0 0 1-13.637-1.07q15-2.145 30 0a44.4 44.4 0 0 1-13.637 1.07v5.363zm0 0" style="stroke:none;fill-rule:evenodd;fill:#878787;fill-opacity:1"/><path d="M509.316 131.367h30v250.938h-30zm0 0" style="stroke:none;fill-rule:evenodd;fill:#caab85;fill-opacity:1"/><path d="M510.684 132.441h27.27v248.793h-27.27zm0 0" style="stroke:none;fill-rule:evenodd;fill:#d5be9e;fill-opacity:1"/><path d="M164.316 134.586h13.637v10.723h-13.637zM180.684 134.586h13.632v10.723h-13.632zm0 0" style="stroke:none;fill-rule:evenodd;fill:#bababa;fill-opacity:1"/><path d="M312.953 133.512h13.637v5.363h-13.637zm0 0" style="stroke:none;fill-rule:evenodd;fill:#b7b7b7;fill-opacity:1"/><path d="M329.316 133.512h13.637v5.363h-13.637zm0 0" style="stroke:none;fill-rule:evenodd;fill:#b8b8b8;fill-opacity:1"/><path d="M96.137 136.73h65.453v2.145H96.137zM197.047 136.73h113.18v2.145h-113.18zm0 0" style="stroke:none;fill-rule:evenodd;fill:#dadada;fill-opacity:1"/><path d="M460.227 119.57c.453 87.403 0 174.621-1.364 261.664V138.875H393.41v-2.145h65.453c-.437-5.925.016-11.648 1.364-17.16m0 0" style="stroke:none;fill-rule:evenodd;fill:#cacaca;fill-opacity:1"/><path d="M542.047 136.73h57.27v2.145h-57.27zm0 0" style="stroke:none;fill-rule:evenodd;fill:#dadada;fill-opacity:1"/><path d="M360.684 137.8h13.632v19.305h-13.632zm0 0" style="stroke:none;fill-rule:evenodd;fill:#d4bb9b;fill-opacity:1"/><path d="M377.047 137.8h13.637v19.305h-13.637zm0 0" style="stroke:none;fill-rule:evenodd;fill:#d4ba9a;fill-opacity:1"/><path d="M-.684 138.875h13.637v80.43H-.684zM48.41 139.945h10.906v78.285H48.41zm0 0" style="stroke:none;fill-rule:evenodd;fill:#fefefe;fill-opacity:1"/><path d="M60.684 85.254v295.98h-1.368V302.95H48.41v-3.219h10.906v-78.28H48.41v-3.22h10.906v-78.285H48.41v-3.215h10.906a487 487 0 0 1 1.368-51.476m0 0" style="stroke:none;fill-rule:evenodd;fill:#efeae5;fill-opacity:1"/><path d="M96.137 138.875h65.453v79.355h-17.727q.548-2.571-1.363-4.289h-15V200q6.284.512 12.273-1.074a96.4 96.4 0 0 0-28.636 0q5.987 1.585 12.273 1.074v13.941h-15c-1.273 1.145-1.73 2.575-1.363 4.29h-10.91zM310.227 139.945v78.285h-65.454v-31.097H228.41v-19.305a44.4 44.4 0 0 0 13.637-1.07q-15-2.145-30 0 6.68 1.587 13.637 1.07v19.305h-16.368v31.097H198.41v-78.285zm0 0" style="stroke:none;fill-rule:evenodd;fill:#fefefe;fill-opacity:1"/><path d="M357.953 139.945v78.285h-10.906v-78.285zm0 0" style="stroke:none;fill-rule:evenodd;fill:#fefffe;fill-opacity:1"/><path d="M393.41 138.875h65.453v79.355H393.41zM506.59 138.875v79.355h-10.906v-79.355zM542.047 138.875h57.27v79.355h-57.27zm0 0" style="stroke:none;fill-rule:evenodd;fill:#fefefe;fill-opacity:1"/><path d="M314.316 141.02v240.214h28.637q-14.619 1.593-30 1.07c-.453-80.609.004-161.038 1.363-241.284m0 0" style="stroke:none;fill-rule:evenodd;fill:#9b9b9b;fill-opacity:1"/><path d="M314.316 141.02h28.637v240.214h-28.637zm0 0" style="stroke:none;fill-rule:evenodd;fill:#bdbdbd;fill-opacity:1"/><path d="M165.684 147.453v233.781h28.632q-14.619 1.593-30 1.07c-.453-78.464.004-156.75 1.368-234.85m0 0" style="stroke:none;fill-rule:evenodd;fill:#9f9f9f;fill-opacity:1"/><path d="M165.684 147.453h28.632v233.781h-28.632zm0 0" style="stroke:none;fill-rule:evenodd;fill:#bdbdbd;fill-opacity:1"/><path d="M360.684 159.25h30v223.055h-30zm0 0" style="stroke:none;fill-rule:evenodd;fill:#c9a982;fill-opacity:1"/><path d="M362.047 160.32h27.27v220.914h-27.27zm0 0" style="stroke:none;fill-rule:evenodd;fill:#d5be9e;fill-opacity:1"/><path d="M244.773 218.23v164.074a147 147 0 0 1-35.457 0V187.134h16.368v-19.305a44.4 44.4 0 0 1-13.637-1.07q15-2.145 30 0a44.4 44.4 0 0 1-13.637 1.07v19.305h16.363zm0 0" style="stroke:none;fill-rule:evenodd;fill:#b1834c;fill-opacity:1"/><path d="M212.047 189.277h13.637v19.301h-13.637zM228.41 189.277h13.637v19.301H228.41zm0 0" style="stroke:none;fill-rule:evenodd;fill:#d3ba99;fill-opacity:1"/><path d="M142.5 213.941v168.363q-22.853 1.782-46.363 0v-1.07h10.91a5140 5140 0 0 0 1.363-167.293h15V200q-6.286.512-12.273-1.074a96.4 96.4 0 0 1 28.636 0q-5.99 1.585-12.273 1.074v13.941zm0 0" style="stroke:none;fill-rule:evenodd;fill:#efc3c3;fill-opacity:1"/><path d="M212.047 210.723h28.637v171.582h-28.637zm0 0" style="stroke:none;fill-rule:evenodd;fill:#d5bd9e;fill-opacity:1"/><path d="M212.047 210.723q14.619-1.593 30-1.07c.453 57.73-.004 115.285-1.363 172.652V210.723zm0 0" style="stroke:none;fill-rule:evenodd;fill:#c3a176;fill-opacity:1"/><path d="M462.953 218.23h28.637v164.075h-28.637zm0 0" style="stroke:none;fill-rule:evenodd;fill:#bdbdbd;fill-opacity:1"/><path d="M244.773 218.23h65.454v3.22h-65.454zM393.41 218.23h65.453v3.22H393.41zm0 0" style="stroke:none;fill-rule:evenodd;fill:#dfdfdf;fill-opacity:1"/><path d="M542.047 218.23h57.27v3.22h-12.27q-7.131-1.075-15-1.075c-5.543.012-10.547.727-15 2.145q-7.295-1.485-15-1.07zm0 0" style="stroke:none;fill-rule:evenodd;fill:#dfdddd;fill-opacity:1"/><path d="M587.047 221.45q-6.394 1.57-13.637 1.07v34.316c4.719 1.055 9.719 1.41 15 1.074q-.68 61.936 1.363 123.324h9.543v1.07a398 398 0 0 1-57.27 0v-1.07h12.27V257.91h16.368v-35.39h-13.637c4.453-1.418 9.457-2.133 15-2.145q7.869.002 15 1.074m0 0" style="stroke:none;fill-rule:evenodd;fill:#edbfbf;fill-opacity:1"/><path d="M48.41 221.45h10.906v78.28H48.41zM96.137 221.45h10.91v79.355h-10.91zm0 0" style="stroke:none;fill-rule:evenodd;fill:#fefefe;fill-opacity:1"/><path d="M108.41 213.941a5140 5140 0 0 1-1.363 167.293V302.95h-10.91v-2.144h10.91v-79.356h-10.91v-3.219h10.91q-.549-2.571 1.363-4.289m0 0" style="stroke:none;fill-rule:evenodd;fill:#f2e0e0;fill-opacity:1"/><path d="M142.5 213.941q1.911 1.718 1.363 4.29h17.727v3.218h-17.727v79.356h17.727v2.144h-17.727v78.285H142.5zm0 0" style="stroke:none;fill-rule:evenodd;fill:#f0e2e2;fill-opacity:1"/><path d="M161.59 221.45v79.355h-17.727v-79.356zm0 0" style="stroke:none;fill-rule:evenodd;fill:#fefefe;fill-opacity:1"/><path d="M177.953 131.367c-4.719 1.055-9.719 1.41-15 1.074q.683 124.666-1.363 248.793V131.367zm0 0" style="stroke:none;fill-rule:evenodd;fill:#a1a1a1;fill-opacity:1"/><path d="M197.047 138.875h113.18v1.07H198.41v78.285h10.906v3.22H198.41v78.28h10.906v3.22H198.41v78.284a10745 10745 0 0 1-1.363-242.359m0 0" style="stroke:none;fill-rule:evenodd;fill:#eee;fill-opacity:1"/><path d="M209.316 221.45v78.28H198.41v-78.28zM244.773 221.45h65.454v79.355h-65.454zm0 0" style="stroke:none;fill-rule:evenodd;fill:#fefefe;fill-opacity:1"/><path d="M357.953 221.45v78.28h-10.906v-78.28zm0 0" style="stroke:none;fill-rule:evenodd;fill:#fefffe;fill-opacity:1"/><path d="M393.41 221.45h65.453v79.355h-17.726V263.27h-16.364v-10.723q6.95.514 13.637-1.074-15-2.139-30 0 5.987 1.585 12.274 1.074v10.723h-15v117.964H393.41zm0 0" style="stroke:none;fill-rule:evenodd;fill:#fefdfd;fill-opacity:1"/><path d="M506.59 221.45v78.28h-10.906v-78.28zm0 0" style="stroke:none;fill-rule:evenodd;fill:#fefffe;fill-opacity:1"/><path d="M542.047 221.45q7.705-.415 15 1.07h13.637v35.39h-16.368v123.324h-12.27zm0 0" style="stroke:none;fill-rule:evenodd;fill:#fefdfd;fill-opacity:1"/><path d="M587.047 221.45h12.27v79.355h-9.544v-43.97H573.41V222.52q7.243.5 13.637-1.07m0 0" style="stroke:none;fill-rule:evenodd;fill:#fefefe;fill-opacity:1"/><path d="M111.137 233.242h28.636v149.063h-28.636zm0 0" style="stroke:none;fill-rule:evenodd;fill:#f2d0d0;fill-opacity:1"/><path d="M424.773 263.27q7.08 1.58 15 1.074-.678 58.718 1.364 116.89v1.07a315 315 0 0 1-47.727 0v-1.07h12.274V263.27h15v-10.723q-6.287.512-12.274-1.074 15-2.139 30 0a44.4 44.4 0 0 1-13.637 1.074zm0 0" style="stroke:none;fill-rule:evenodd;fill:#eec3c2;fill-opacity:1"/><path d="M557.047 260.055h13.637v34.316h-13.637zm0 0" style="stroke:none;fill-rule:evenodd;fill:#f2d0d0;fill-opacity:1"/><path d="M573.41 260.055h12.274v34.316H573.41zm0 0" style="stroke:none;fill-rule:evenodd;fill:#f2d1d0;fill-opacity:1"/><path d="M408.41 279.355h28.637v102.95H408.41zM557.047 297.586h28.637v83.648h-28.637zm0 0" style="stroke:none;fill-rule:evenodd;fill:#f2d0d0;fill-opacity:1"/><path d="M244.773 300.805h65.454v2.144h-65.454zm0 0" style="stroke:none;fill-rule:evenodd;fill:#dedede;fill-opacity:1"/><path d="M-.684 220.375h13.637v160.86H-.684zm0 0" style="stroke:none;fill-rule:evenodd;fill:#fefefe;fill-opacity:1"/><path d="M14.316 83.11c.457 99.554 0 198.93-1.363 298.124V220.375H-.684v-1.07h13.637v-80.43H-.684v-2.145h13.637a529 529 0 0 1 1.363-53.62m0 0" style="stroke:none;fill-rule:evenodd;fill:#989898;fill-opacity:1"/><path d="M48.41 302.95h10.906v78.284H48.41zm0 0" style="stroke:none;fill-rule:evenodd;fill:#fefefe;fill-opacity:1"/><path d="M79.773 85.254h16.364v297.05a16062 16062 0 0 1-1.364-295.976q-7.92.505-15-1.074m0 0" style="stroke:none;fill-rule:evenodd;fill:#c5a37a;fill-opacity:1"/><path d="M96.137 302.95h10.91v78.284h-10.91zM161.59 302.95v78.284h-17.727V302.95zm0 0" style="stroke:none;fill-rule:evenodd;fill:#fefffe;fill-opacity:1"/><path d="M209.316 302.95v78.284H198.41V302.95zM244.773 302.95h65.454v78.284h-19.09v-11.796h-15v-8.579c4.633.34 9.18-.015 13.636-1.074q-15-2.145-30 0a44.6 44.6 0 0 0 13.637 1.074v8.579h-16.363v11.796h-12.274zm0 0" style="stroke:none;fill-rule:evenodd;fill:#fefefe;fill-opacity:1"/><path d="M345.684 131.367c1.296 1.524 1.75 3.309 1.363 5.363h10.906v3.215h-10.906v78.285h10.906v3.22h-10.906v78.28h10.906v3.22h-10.906v78.284c-1.363-83.109-1.82-166.398-1.363-249.867m0 0" style="stroke:none;fill-rule:evenodd;fill:#e5e5e5;fill-opacity:1"/><path d="M357.953 302.95v78.284h-10.906V302.95zm0 0" style="stroke:none;fill-rule:evenodd;fill:#fefffe;fill-opacity:1"/><path d="M424.773 263.27h16.364v37.535h17.726v2.144h-17.726v78.285a2508 2508 0 0 1-1.364-116.89q-7.92.506-15-1.074m0 0" style="stroke:none;fill-rule:evenodd;fill:#f1d9d9;fill-opacity:1"/><path d="M458.863 302.95v78.284h-17.726V302.95zm0 0" style="stroke:none;fill-rule:evenodd;fill:#fefffe;fill-opacity:1"/><path d="M494.316 119.57c1.348 5.512 1.805 11.235 1.368 17.16h10.906v2.145h-10.906v79.355h10.906v3.22h-10.906v78.28h10.906v3.22h-10.906v78.284a12553 12553 0 0 1-1.368-261.664m0 0" style="stroke:none;fill-rule:evenodd;fill:#dcdcdc;fill-opacity:1"/><path d="M506.59 302.95v78.284h-10.906V302.95zm0 0" style="stroke:none;fill-rule:evenodd;fill:#fefffe;fill-opacity:1"/><path d="M522.953 78.82q-7.079 1.577-15 1.075c.457 100.984 0 201.785-1.363 302.41V78.82zm0 0" style="stroke:none;fill-rule:evenodd;fill:#b88e5b;fill-opacity:1"/><path d="M573.41 256.836h16.363v43.969h9.543v2.144h-9.543v78.285a2786 2786 0 0 1-1.363-123.324q-7.921.506-15-1.074m0 0" style="stroke:none;fill-rule:evenodd;fill:#f2d5d5;fill-opacity:1"/><path d="M599.316 302.95v78.284h-9.543V302.95zm0 0" style="stroke:none;fill-rule:evenodd;fill:#fefffe;fill-opacity:1"/><path d="M291.137 381.234v1.07q-22.854 1.782-46.364 0v-1.07h12.274v-11.796h16.363v-8.579c-4.633.34-9.18-.015-13.637-1.074q15-2.145 30 0a44.6 44.6 0 0 1-13.636 1.074v8.579h15zm0 0" style="stroke:none;fill-rule:evenodd;fill:#edc3c3;fill-opacity:1"/><path d="M-.684 382.305a448 448 0 0 0 61.368 0 147 147 0 0 0 35.453 0c15.672 1.187 31.129 1.187 46.363 0a576 576 0 0 0 66.816 0 147 147 0 0 0 35.457 0c15.672 1.187 31.13 1.187 46.364 0a576 576 0 0 0 66.816 0 147 147 0 0 0 35.457 0 315 315 0 0 0 47.727 0 554 554 0 0 0 65.453 0 147 147 0 0 0 35.457 0 398 398 0 0 0 57.27 0v2.144h-600zm0 0" style="stroke:none;fill-rule:evenodd;fill:#100f0f;fill-opacity:1"/><path d="M-.684 384.45h375q1.365 23.595 2.73 0h145.907q1.365 23.595 2.73 0h73.633v15.015h-600zm0 0" style="stroke:none;fill-rule:evenodd;fill:#fefefe;fill-opacity:1"/><path d="M374.316 384.45h2.73q-1.365 23.595-2.73 0m0 0" style="stroke:none;fill-rule:evenodd;fill:#bbb;fill-opacity:1"/><path d="M522.953 384.45h2.73q-1.365 23.595-2.73 0m0 0" style="stroke:none;fill-rule:evenodd;fill:#b7b7b7;fill-opacity:1"/></svg>