<svg xmlns="http://www.w3.org/2000/svg" width="600" height="400"><path d="M-.523-.418h600v400h-600zm0 0" style="stroke:none;fill-rule:evenodd;fill:#f9f9f9;fill-opacity:1"/><path d="M160.734 43.75h-3.144a51 51 0 0 1-8.375-2.918q-10.055-1.215-17.8 4.168a105 105 0 0 1-9.427 7.082c-6-2.937-11.582-6.27-16.754-10V3.75h94.243v40zm0 0" style="stroke:none;fill-rule:evenodd;fill:#f9f9f9;fill-opacity:1"/><path d="M101.047 39.582q1.197 2.206 4.187 2.5 7.756 5.595 16.754 10-1.57 2.084-4.187 3.336A1592 1592 0 0 1 78.01 32.5q-18.592-7.793-36.652.832A476 476 0 0 1 3.664 53.75v-5.832c3.152-.977 5.945-2.363 8.379-4.168q13.044-7.28 26.176-14.582Q61.54 18.123 84.293 30a268 268 0 0 0 16.754 9.582m0 0" style="stroke:none;fill-rule:evenodd;fill:#e1822b;fill-opacity:1"/><path d="M157.59 43.75c2.07 1.93 4.168 3.871 6.285 5.832a35448 35448 0 0 0 29.32 36.668q6.265 7.513 16.754 5c3.32-.426 5.766-1.812 7.328-4.168q1.048 0 1.047-.832 6.873-4.218 11.52-10 3.142-1.665 5.234-4.168c6.41-6.715 14.785-10.879 25.133-12.5h8.375c2.02 1.645 4.46 2.895 7.332 3.75q9.343 6.883 16.754 14.586-.158 2.565 2.094 4.164c.242 1.305.941 2.414 2.093 3.336q0 .832 1.047.832a869 869 0 0 0 5.235 8.332 310 310 0 0 0 14.136 18.336c6.063 7.121 13.57 8.371 22.512 3.75a141 141 0 0 0 10.473-8.75c1.746-.836 3.14-1.945 4.187-3.336a712 712 0 0 1 4.192-4.164c4.562-3.078 8.754-6.414 12.562-10a72 72 0 0 0 9.426-5.836q2.595-.199 4.187-1.664a90 90 0 0 0 9.426-2.5h7.328a1270 1270 0 0 1 51.309 10q2.011 1.787 5.234 1.664 1.993 1.936 5.239 2.5a1920 1920 0 0 1 10.468 5.836c2.07 1.363 4.164 2.754 6.285 4.164q1.243 1.13 3.141 1.668 1.57 2.085 4.188 3.332 9.563 8.91 23.562 12.5 12.229-1.196 19.371-9.164c1.746-.836 3.14-1.945 4.188-3.336a70.6 70.6 0 0 0 8.379-7.5q1.314-.428 1.046-1.664 7.01-3.158 2.094-8.336a28.2 28.2 0 0 1 5.758 2.5c10.945-10.39 24.73-14 41.363-10.832q1.114 1.13 3.14.832v5q-11.278-2.45-23.038-1.25-9.404 2.709-15.707 8.75c-1.047.277-1.742.836-2.094 1.668q-2.618 1.25-4.187 3.332a19.5 19.5 0 0 0-4.188 4.168 70.6 70.6 0 0 0-8.379 7.5q-3.274 1.354-4.187 4.168-4.28 1.512-7.328 4.582-5.924 2.772-12.567 4.168-7.575.158-14.66-2.086c-.98-1.227-2.379-2.059-4.187-2.5a120 120 0 0 1-14.66-10q-1.706-2.606-5.235-3.332-2.098-2.5-5.238-4.168a80 80 0 0 0-12.567-6.664q-2.614-.837-5.234-1.668a26.7 26.7 0 0 0-7.328-1.668q-20.443-5.555-41.887-9.164c-3.707-.262-7.2.016-10.469.832q-5.36.679-9.425 3.332-10.833 5.285-18.848 13.336-3.142 1.667-5.235 4.164l-1.046 1.668c-2.188.902-3.582 2.293-4.192 4.168a193 193 0 0 0-13.613 8.75q-11.402 6.1-21.988-.836-9.445-7.284-15.707-16.25-1.836-3.762-5.235-6.664-1.3-3.732-4.187-6.668-.252-2.067-2.098-3.332c-.45-1.008-1.148-1.844-2.094-2.5q-.954-2.418-3.14-4.168-2.057-3.293-5.235-5.832c-4.129-6.637-10.761-10.246-19.894-10.836-3.711-.305-6.856.527-9.426 2.5-5.879 2.18-10.414 5.512-13.613 10Q227.536 86.627 215.184 95a47.4 47.4 0 0 1-8.38 2.082c-3.695.16-7.187-.394-10.468-1.664a94 94 0 0 1-8.902-6.668 1052 1052 0 0 1-26.176-34.168q-2.694-4.02-7.856-5.832-4.441-4.3-11.515-2.918c-6.028 2.445-11.266 5.637-15.707 9.586-1.352.945-2.399 2.059-3.145 3.332q-5.66 2.467-9.422 6.668-2.894 1.127-4.187 3.332a314 314 0 0 0-4.192 2.5l-4.187.832q-22.525 3.458-39.79 15-3.278 1.357-4.19 4.168-12.452 6.164-23.036 14.168a72.5 72.5 0 0 0-9.426 5 176 176 0 0 0-18.847 10q-1.528-2.806-1.047-5.836 5.536-1.572 9.426-5 8.618-3.222 15.707-8.332 6.254-2.895 10.468-7.5 7.137-2.339 11.52-7.5c1.813-.437 3.207-1.273 4.188-2.5 12.37-7.84 26.332-13.254 41.886-16.25 2.184-.582 3.926-1.555 5.235-2.918 2.027-.508 3.77-1.34 5.238-2.5q4.751-3.37 9.422-6.664c1.746-.836 3.14-1.945 4.187-3.336A105 105 0 0 0 131.414 45q7.746-5.383 17.8-4.168a51 51 0 0 0 8.376 2.918m0 0" style="stroke:none;fill-rule:evenodd;fill:#8668b5;fill-opacity:1"/><path d="M108.379 62.082c-1.469 1.16-3.211 1.992-5.238 2.5q-10.028-10.694-25.13-16.25-6.908-1.418-11.519 2.918-12.31 12.511-18.847 27.5a8.5 8.5 0 0 0-2.094 4.168c-2.582 3.285-4.324 6.894-5.239 10.832q-4.214 4.605-10.468 7.5.086-1.388 1.047-2.5a51.4 51.4 0 0 0 3.14-7.5q3.517-5.044 5.235-10.832 2.251-1.6 2.093-4.168 7.249-12.362 16.23-24.168 5.718-5.801 14.138-8.75 7.757-.584 14.66 2.5c8.168 4.695 15.496 10.11 21.992 16.25m0 0" style="stroke:none;fill-rule:evenodd;fill:#b62e31;fill-opacity:1"/><path d="M596.336 2.082v82.5q-2.028.3-3.14-.832a322 322 0 0 0 1.046-36.668H500q-.51 8.572 1.047 16.668-2.198 1.736-5.235 2.5V47.082H401.57v33.336h-5.234V47.082H303.14v18.336a606 606 0 0 1-6.282-4.168q1.552-6.843 1.047-14.168h-94.242v15.836a314 314 0 0 1-4.187-2.5V47.082q-12.854-.406-25.133.836a124 124 0 0 0-13.61-4.168h38.743v-40h-94.243v38.332q-2.99-.294-4.187-2.5V3.75H6.805v40h5.238c-2.434 1.805-5.227 3.191-8.379 4.168V2.082zm0 0" style="stroke:none;fill-rule:evenodd;fill:#e0e0e0;fill-opacity:1"/><path d="M500 3.75h94.242v40H500zM401.57 3.75h94.243v40H401.57zM302.094 3.75h95.289q.263 19.587-.524 39.168-23.449.826-47.12.832a1348 1348 0 0 1-47.122-.832q-.786-19.582-.523-39.168M203.664 3.75h94.242v40h-94.242zm0 0" style="stroke:none;fill-rule:evenodd;fill:#f9f9f9;fill-opacity:1"/><path d="M101.047 39.582A268 268 0 0 1 84.293 30q-22.753-11.877-46.074-.832Q25.088 36.47 12.043 43.75H6.805v-40h94.242zm0 0" style="stroke:none;fill-rule:evenodd;fill:#f9f9f8;fill-opacity:1"/><path d="M157.59 43.75h3.144q6.843 1.668 13.61 4.168c8.398 4.187 16.773 8.355 25.133 12.5q2.032 1.235 4.187 2.5c10.04 3.992 20.512 7.05 31.414 9.164q-2.092 2.503-5.234 4.168a318 318 0 0 1-25.133-7.5q-2.298-1.546-5.234-2.5a511 511 0 0 1-25.133-12.918 80 80 0 0 0-10.469-3.75c-2.117-1.96-4.215-3.902-6.285-5.832m0 0" style="stroke:none;fill-rule:evenodd;fill:#4c75b1;fill-opacity:1"/><path d="M153.402 48.75a58 58 0 0 0-9.422 2.082 121 121 0 0 1-12.566 5.418 26.4 26.4 0 0 0-5.234-.832c4.441-3.95 9.68-7.14 15.707-9.586q7.073-1.383 11.515 2.918m0 0" style="stroke:none;fill-rule:evenodd;fill:#5477b1;fill-opacity:1"/><path d="M117.8 55.418a4494 4494 0 0 0-9.421 6.664q-9.742-9.209-21.992-16.25-6.903-3.084-14.66-2.5-8.42 2.949-14.137 8.75-8.983 11.806-16.23 24.168-8.392-.207-16.755.418a287 287 0 0 1-20.94 4.582v-27.5a476 476 0 0 0 37.694-20.418q18.06-8.625 36.653-.832A1592 1592 0 0 0 117.8 55.418m0 0" style="stroke:none;fill-rule:evenodd;fill:#f6f5f4;fill-opacity:1"/><path d="M174.344 47.918c8.187-.828 16.562-1.105 25.133-.836v13.336q-12.538-6.218-25.133-12.5m0 0" style="stroke:none;fill-rule:evenodd;fill:#f7f7f8;fill-opacity:1"/><path d="M296.86 61.25Q284.676 50.868 267.54 55c-2.895 1.14-5.34 2.672-7.33 4.582-10.347 1.621-18.722 5.785-25.132 12.5-10.902-2.113-21.375-5.172-31.414-9.164V47.082h94.242q.505 7.325-1.047 14.168m0 0" style="stroke:none;fill-rule:evenodd;fill:#f9f8f8;fill-opacity:1"/><path d="M396.336 80.418h-2.094q-9.151-2.457-18.847-1.25a270 270 0 0 0-18.852 8.75 99 99 0 0 1-15.707.832c-5.504-4.797-11.785-8.828-18.848-12.082-2.984-1.191-6.129-1.887-9.422-2.086q-5.342-4.242-9.425-9.164V47.082h93.195zm0 0" style="stroke:none;fill-rule:evenodd;fill:#f9f9f8;fill-opacity:1"/><path d="M495.813 66.25v.832c-6.704-.39-12.633 1.137-17.801 4.586a764 764 0 0 0-25.133 18.75c-17-3.68-34.106-7.012-51.309-10V47.082h94.243zm0 0" style="stroke:none;fill-rule:evenodd;fill:#f9f8f9;fill-opacity:1"/><path d="M593.195 83.75c-16.633-3.168-30.418.441-41.363 10.832a28.2 28.2 0 0 0-5.758-2.5q-7.712-17.507-25.133-29.582-10.336-2.844-19.894 1.25-1.559-8.096-1.047-16.668h94.242a322 322 0 0 1-1.047 36.668m0 0" style="stroke:none;fill-rule:evenodd;fill:#f8f9f8;fill-opacity:1"/><path d="M103.14 64.582c-1.308 1.363-3.05 2.336-5.234 2.918-15.554 2.996-29.515 8.41-41.886 16.25q-3.001-3.701-8.375-5 6.537-14.989 18.847-27.5 4.611-4.335 11.52-2.918 15.101 5.556 25.129 16.25m0 0" style="stroke:none;fill-rule:evenodd;fill:#f8f7f7;fill-opacity:1"/><path d="M153.402 48.75q5.162 1.811 7.856 5.832a1052 1052 0 0 0 26.176 34.168 94 94 0 0 0 8.902 6.668q-9.18 2.069-18.848 1.664a726 726 0 0 0-21.468-24.164 224 224 0 0 0-24.606-16.668q6.45-2.36 12.566-5.418a58 58 0 0 1 9.422-2.082m0 0" style="stroke:none;fill-rule:evenodd;fill:#f6f6f5;fill-opacity:1"/><path d="M163.875 49.582a80 80 0 0 1 10.469 3.75 511 511 0 0 0 25.133 12.918v20h-6.282a35448 35448 0 0 1-29.32-36.668m0 0" style="stroke:none;fill-rule:evenodd;fill:#f7f7f8;fill-opacity:1"/><path d="M296.86 61.25q3.076 2.07 6.28 4.168 4.084 4.922 9.426 9.164h-8.378c-5.125-5.23-11.055-9.812-17.801-13.75q-8.496-4.923-17.801-1.25h-8.375c1.988-1.91 4.434-3.441 7.328-4.582q17.14-4.132 29.32 6.25m0 0" style="stroke:none;fill-rule:evenodd;fill:#e18029;fill-opacity:1"/><path d="M126.18 55.418a26.4 26.4 0 0 1 5.234.832 224 224 0 0 1 24.606 16.668 726 726 0 0 1 21.468 24.164q-4.365.276-8.379-.832c-8.105-11.637-18.578-21.773-31.414-30.418a116 116 0 0 0-11.515-5.414q-.743-1.76-3.145-1.668c.746-1.273 1.793-2.387 3.145-3.332m0 0" style="stroke:none;fill-rule:evenodd;fill:#e0812a;fill-opacity:1"/><path d="M123.035 58.75q2.402-.091 3.145 1.668-6.115 1.952-10.473 5.832c-.7-.277-1.394-.555-2.094-.832q3.762-4.2 9.422-6.668m0 0" style="stroke:none;fill-rule:evenodd;fill:#5677b1;fill-opacity:1"/><path d="M304.188 74.582a67 67 0 0 0-11.516 3.336c-4.942-5.137-10.524-9.996-16.754-14.586q-4.305-1.282-7.332-3.75 9.305-3.673 17.8 1.25c6.747 3.938 12.676 8.52 17.801 13.75m0 0" style="stroke:none;fill-rule:evenodd;fill:#f6f4f3;fill-opacity:1"/><path d="M126.18 60.418a116 116 0 0 1 11.515 5.414c12.836 8.645 23.309 18.781 31.414 30.418a58.7 58.7 0 0 1-10.468-.832 538 538 0 0 1-20.946-16.25q-11.659-5.876-21.988-12.918 4.358-3.88 10.473-5.832m0 0" style="stroke:none;fill-rule:evenodd;fill:#f6f3f2;fill-opacity:1"/><path d="M546.074 92.082q4.915 5.178-2.094 8.336c-.168-1.379-.867-2.488-2.093-3.336-.063-.922-.41-1.758-1.051-2.5a41.3 41.3 0 0 0-4.188-7.5c-3.867-8.25-10.152-15.055-18.847-20.414q-8.504-1.417-15.707 2.082c-2.176-.39-4.27-.95-6.281-1.668v-.832q3.036-.764 5.234-2.5 9.558-4.094 19.894-1.25 17.422 12.075 25.133 29.582m0 0" style="stroke:none;fill-rule:evenodd;fill:#639e3f;fill-opacity:1"/><path d="M261.258 64.582q-1.05 1.253-2.094 2.5h-7.332c2.57-1.973 5.715-2.805 9.426-2.5m0 0" style="stroke:none;fill-rule:evenodd;fill:#d17f29;fill-opacity:1"/><path d="M261.258 64.582q13.7.883 19.894 10.836-6.722-3.098-13.613-6.25a47.5 47.5 0 0 0-8.375-2.086q1.044-1.247 2.094-2.5m0 0" style="stroke:none;fill-rule:evenodd;fill:#f1f1ef;fill-opacity:1"/><path d="M113.613 65.418c.7.277 1.395.555 2.094.832q10.33 7.042 21.988 12.918a538 538 0 0 0 20.946 16.25c1.312 2.437 3.41 4.383 6.28 5.832q6.688 6.825 16.755 10h7.328a288 288 0 0 0 28.273-9.582q5.325-.972 10.473-2.086 3.846.251 7.328-.832 18.945.825 33.508-8.332 4.507-1.167 7.332-4.168 3.603-1.218 6.281-3.332 1.733-1.376 4.188-1.668 2.186 1.75 3.14 4.168c-1.039-.145-1.734.133-2.093.832q-5.198 2.48-9.422 5.832-10.793 5.754-23.04 9.586a240 240 0 0 1-25.128 2.914q-4.588-.27-8.38 1.668-13.728 3.592-26.175 9.168a67 67 0 0 0-7.332.832 43.9 43.9 0 0 1-11.516-1.25q-12.173-6.146-21.992-14.582-2.01-3.685-6.281-5.836c-1.395-1.664-3.14-3.055-5.234-4.164q-2.098-2.503-5.239-4.168a439 439 0 0 0-28.27-17.5q1.295-2.205 4.188-3.332m0 0" style="stroke:none;fill-rule:evenodd;fill:#b72e31;fill-opacity:1"/><path d="M536.648 87.082a157 157 0 0 0-20.941-6.664c-3.797-4.414-8.336-8.3-13.613-11.668 4.8-2.332 10.039-3.027 15.707-2.082q13.045 8.04 18.847 20.414m0 0" style="stroke:none;fill-rule:evenodd;fill:#f5f5f4;fill-opacity:1"/><path d="M199.477 66.25q2.937.954 5.234 2.5c-1.035 5.68-1.387 11.512-1.047 17.5h14.66q.001.832-1.047.832-4.109 1.61-7.328 4.168-10.489 2.513-16.754-5h6.282zm0 0" style="stroke:none;fill-rule:evenodd;fill:#dddede;fill-opacity:1"/><path d="M251.832 67.082h7.332a47.5 47.5 0 0 1 8.375 2.086q6.892 3.152 13.613 6.25 3.178 2.538 5.235 5.832-2.455.292-4.188 1.668-7.764-5.941-17.8-9.586a31.7 31.7 0 0 0-10.473-1.25c-4.258-.242-7.746.867-10.469 3.336-1.637.191-3.031.75-4.191 1.664h-1.047q4.796-6.731 13.613-10m0 0" style="stroke:none;fill-rule:evenodd;fill:#659e41;fill-opacity:1"/><path d="M495.813 67.082a39 39 0 0 0 6.28 1.668q7.918 5.049 13.614 11.668c.606 2.36 2 4.3 4.188 5.832q2.878 5.418 7.332 10c.515 1.934 1.562 3.598 3.14 5l4.188 8.332q-1.57 2.083-4.188 3.336c-2.43-3.867-4.87-7.758-7.332-11.668q-1.334-2.977-4.187-5-2.841-6.189-7.328-11.668-1.887-3.01-5.239-5-3.204-5.46-10.469-7.5-10.342-.463-16.753 5.836-6.184 2.83-10.473 7.5a59 59 0 0 1-10.473 6.664q-3.223.123-5.234-1.664a764 764 0 0 1 25.133-18.75c5.168-3.45 11.097-4.977 17.8-4.586m0 0" style="stroke:none;fill-rule:evenodd;fill:#b62e30;fill-opacity:1"/><path d="M109.426 68.75a439 439 0 0 1 28.27 17.5q-15.945 1.242-32.462.832V71.25a314 314 0 0 1 4.192-2.5m0 0" style="stroke:none;fill-rule:evenodd;fill:#f8f6f6;fill-opacity:1"/><path d="M204.71 68.75a318 318 0 0 0 25.134 7.5q-4.647 5.782-11.52 10h-14.66c-.34-5.988.012-11.82 1.047-17.5m0 0" style="stroke:none;fill-rule:evenodd;fill:#f5f6f5;fill-opacity:1"/><path d="M253.926 72.082c-1.746 2.223-3.488 4.445-5.235 6.668q-1.047 1.667-2.093 3.332a116.3 116.3 0 0 0-11.52 16.668c-2.32.723-4.766 1-7.328.832a297 297 0 0 1 12.563-19.164q2.371-2.104 3.144-5c2.723-2.469 6.211-3.578 10.469-3.336m0 0" style="stroke:none;fill-rule:evenodd;fill:#e08029;fill-opacity:1"/><path d="M253.926 72.082a31.7 31.7 0 0 1 10.472 1.25q10.038 3.645 17.801 9.586-2.678 2.114-6.281 3.332a50 50 0 0 1-12.566-2.082 158 158 0 0 0-14.66-5.418zm0 0" style="stroke:none;fill-rule:evenodd;fill:#f6f6f6;fill-opacity:1"/><path d="M495.813 72.082q-14.802 12.615-32.461 22.5-3.246-.564-5.239-2.5a59 59 0 0 0 10.473-6.664q6.182-2.835 10.473-7.5 6.41-6.3 16.753-5.836m0 0" style="stroke:none;fill-rule:evenodd;fill:#649e3f;fill-opacity:1"/><path d="M98.953 73.75q2.055 2.59 2.094 6.25A23.1 23.1 0 0 1 100 86.668q-17.027 1.03-33.508-.418 15.598-7.249 32.461-12.5m0 0" style="stroke:none;fill-rule:evenodd;fill:#f5f6f7;fill-opacity:1"/><path d="M304.188 74.582h8.378c3.293.2 6.438.895 9.422 2.086 7.063 3.254 13.344 7.285 18.848 12.082l4.191 5q1.57 1.667 3.141 3.332l6.281 7.5q-1.57 2.083-4.187 3.336l-7.328-8.336a712 712 0 0 1-4.192-4.164c-.449-1.008-1.148-1.844-2.094-2.5-5.984-7.379-14.359-11.82-25.128-13.336-5.903-.375-11.489.461-16.754 2.5q-2.251-1.598-2.094-4.164a67 67 0 0 1 11.515-3.336m0 0" style="stroke:none;fill-rule:evenodd;fill:#b62e2f;fill-opacity:1"/><path d="M495.813 72.082q7.264 2.04 10.468 7.5-19.87 5.18-29.84 20-1.056.942-2.62.836a1920 1920 0 0 0-10.47-5.836q17.66-9.885 32.462-22.5m0 0" style="stroke:none;fill-rule:evenodd;fill:#f0f0f0;fill-opacity:1"/><path d="M101.047 72.082c-.7.559-1.395 1.113-2.094 1.668q-16.863 5.251-32.46 12.5-1.737 1.376-4.188 1.668-1.049.001-1.047-.836 17.264-11.542 39.789-15m0 0" style="stroke:none;fill-rule:evenodd;fill:#4d73b0;fill-opacity:1"/><path d="M41.36 76.25c.105 1.71-.594 3.102-2.094 4.168a87 87 0 0 0-14.66 1.25A287 287 0 0 1 3.663 86.25v-5q10.605-1.91 20.941-4.582 8.363-.625 16.754-.418m0 0" style="stroke:none;fill-rule:evenodd;fill:#659f41;fill-opacity:1"/><path d="M243.457 75.418q-.773 2.896-3.144 5a767 767 0 0 0-3.141-1.25q1.384-.885 2.094-2.086c1.16-.914 2.554-1.473 4.191-1.664m0 0" style="stroke:none;fill-rule:evenodd;fill:#607cac;fill-opacity:1"/><path d="M248.691 78.75a158 158 0 0 1 14.66 5.418 50 50 0 0 0 12.567 2.082q-2.825 3-7.332 4.168-12.105-2.53-21.988-8.336c.699-1.11 1.394-2.223 2.093-3.332m0 0" style="stroke:none;fill-rule:evenodd;fill:#4f75b0;fill-opacity:1"/><path d="M394.242 80.418a90 90 0 0 1-9.426 2.5q-5.226-.358-9.421 1.664-6.884 2.73-12.567 6.668-6.187 2.432-11.52 5.832h-3.14l-3.14-3.332q6.616-1.999 11.515-5.832a270 270 0 0 1 18.852-8.75q9.696-1.207 18.847 1.25m0 0" style="stroke:none;fill-rule:evenodd;fill:#629c3b;fill-opacity:1"/><path d="M47.645 78.75q5.374 1.299 8.375 5c-.98 1.227-2.375 2.063-4.188 2.5q-3.14-1.667-6.281-3.332a8.5 8.5 0 0 1 2.094-4.168m0 0" style="stroke:none;fill-rule:evenodd;fill:#639c3f;fill-opacity:1"/><path d="M311.52 79.582c1.394 1.39 2.793 2.777 4.187 4.168q-9.614-.288-18.848 1.668c-1.152-.922-1.851-2.031-2.093-3.336 5.265-2.039 10.851-2.875 16.754-2.5m0 0" style="stroke:none;fill-rule:evenodd;fill:#ece7e7;fill-opacity:1"/><path d="M311.52 79.582c10.77 1.516 19.144 5.957 25.128 13.336-7.93-1.766-14.906-4.82-20.941-9.168-1.394-1.39-2.793-2.777-4.187-4.168m0 0" style="stroke:none;fill-rule:evenodd;fill:#db7a25;fill-opacity:1"/><path d="M506.281 79.582q3.351 1.99 5.239 5c-6.262-.004-11.844 1.523-16.754 4.586-5.946 4.578-10.832 9.719-14.66 15.414q-3.181-2.117-6.286-4.164 1.566.106 2.621-.836 9.97-14.82 29.84-20m0 0" style="stroke:none;fill-rule:evenodd;fill:#4e75b0;fill-opacity:1"/><path d="M515.707 80.418c7.215 1.758 14.2 3.98 20.941 6.664a41.3 41.3 0 0 1 4.188 7.5 208 208 0 0 0-20.941-8.332q-3.28-2.295-4.188-5.832m0 0" style="stroke:none;fill-rule:evenodd;fill:#4b73ad;fill-opacity:1"/><path d="M384.816 82.918q-1.593 1.465-4.187 1.664h-5.234q4.195-2.022 9.421-1.664m0 0" style="stroke:none;fill-rule:evenodd;fill:#e3e8dc;fill-opacity:1"/><path d="M315.707 83.75c6.035 4.348 13.012 7.402 20.941 9.168.946.656 1.645 1.492 2.094 2.5h-2.094q-13.957-8.145-31.414-6.668a39.7 39.7 0 0 1-7.328-2.5q-1.048 0-1.047-.832 9.234-1.957 18.848-1.668m0 0" style="stroke:none;fill-rule:evenodd;fill:#5176ae;fill-opacity:1"/><path d="M479.059 77.918q-4.29 4.665-10.473 7.5 4.29-4.67 10.473-7.5m0 0" style="stroke:none;fill-rule:evenodd;fill:#a2b981;fill-opacity:1"/><path d="M287.434 86.25q.536-1.05 2.093-.832c.946.656 1.645 1.492 2.094 2.5q-2.451-.292-4.187-1.668m0 0" style="stroke:none;fill-rule:evenodd;fill:#6a9151;fill-opacity:1"/><path d="M375.395 84.582h5.234a72 72 0 0 1-9.426 5.836l-8.375.832q5.684-3.938 12.567-6.668m0 0" style="stroke:none;fill-rule:evenodd;fill:#db7f2b;fill-opacity:1"/><path d="M393.195 86.25q4.906-1.224 10.47-.832c6.92 6.2 14.952 11.34 24.085 15.414q4.156.622 8.375.418-2.62 2.916-6.281 5-3.14-.832-6.285-1.668-10.31-4.455-18.848-10.832-4.384-5.161-11.516-7.5m0 0" style="stroke:none;fill-rule:evenodd;fill:#679c3c;fill-opacity:1"/><path d="M393.195 86.25q7.132 2.339 11.516 7.5c-6.68-2.422-13.664-3.812-20.941-4.168q4.065-2.654 9.425-3.332m0 0" style="stroke:none;fill-rule:evenodd;fill:#dc8029;fill-opacity:1"/><path d="M39.266 80.418q-1.718 5.789-5.235 10.832-13.324-1.242-27.226-.832-.506 7.734 1.047 15-1.115 1.13-3.141.832c-.313 1.754.039 3.422 1.047 5a45 45 0 0 1 8.379-1.668q-3.89 3.428-9.426 5A214 214 0 0 1 3.664 86.25q10.605-1.91 20.941-4.582a87 87 0 0 1 14.66-1.25m0 0" style="stroke:none;fill-rule:evenodd;fill:#e6e6e5;fill-opacity:1"/><path d="M45.55 82.918q3.142 1.667 6.282 3.332-4.383 5.161-11.52 7.5c.915-3.937 2.657-7.547 5.239-10.832m0 0" style="stroke:none;fill-rule:evenodd;fill:#e5e0e1;fill-opacity:1"/><path d="M105.234 71.25v15.832q16.518.41 32.461-.832 3.14 1.665 5.239 4.168h-37.7q-.505 7.32 1.047 14.164-2.748 1.716-6.281 2.5V90.418q-17.038-.41-33.508.832-2.618-1.25-4.187-3.332 2.45-.292 4.187-1.668 16.481 1.448 33.508.418A23.1 23.1 0 0 0 101.047 80q-.039-3.66-2.094-6.25c.7-.555 1.395-1.11 2.094-1.668zm0 0" style="stroke:none;fill-rule:evenodd;fill:#dfe0e0;fill-opacity:1"/><path d="M287.434 86.25q1.736 1.376 4.187 1.668 1.845 1.265 2.098 3.332c-5.207.555-10.446.832-15.707.832q4.224-3.352 9.422-5.832m0 0" style="stroke:none;fill-rule:evenodd;fill:#5878b0;fill-opacity:1"/><path d="M61.258 87.082q-.002.837 1.047.836 1.57 2.082 4.187 3.332 8.802 10.542 23.035 16.25 5.293.679 10.473-.418 3.534-.784 6.281-2.5a397 397 0 0 1 23.04-8.75 88.5 88.5 0 0 1 18.847-1.25q4.272 2.15 6.281 5.836a79.8 79.8 0 0 0-25.129.414l-24.086 9.586q-2.345.608-4.187 1.664-11.209 2.15-20.942-2.914-12.351-8.373-23.039-17.918c.61-1.875 2.004-3.262 4.192-4.168m0 0" style="stroke:none;fill-rule:evenodd;fill:#649f40;fill-opacity:1"/><path d="M297.906 86.25a39.7 39.7 0 0 0 7.328 2.5c9.274 5.418 19.743 7.637 31.414 6.668h2.094a712 712 0 0 0 4.192 4.164 86.4 86.4 0 0 1-19.899.418 158.5 158.5 0 0 1-19.894-5.418 869 869 0 0 1-5.235-8.332m0 0" style="stroke:none;fill-rule:evenodd;fill:#649e41;fill-opacity:1"/><path d="M356.543 87.918q-4.9 3.833-11.516 5.832l-4.191-5a99 99 0 0 0 15.707-.832m0 0" style="stroke:none;fill-rule:evenodd;fill:#dc8028;fill-opacity:1"/><path d="M34.031 91.25a51.4 51.4 0 0 1-3.14 7.5 188 188 0 0 1-23.04 6.668q-1.551-7.266-1.046-15 13.903-.41 27.226.832m0 0" style="stroke:none;fill-rule:evenodd;fill:#f8f8f8;fill-opacity:1"/><path d="M100 107.082q-5.18 1.096-10.473.418-14.233-5.709-23.035-16.25 16.47-1.242 33.508-.832zm0 0" style="stroke:none;fill-rule:evenodd;fill:#f8f8f7;fill-opacity:1"/><path d="M142.934 90.418q3.141 1.667 5.234 4.164a88.5 88.5 0 0 0-18.848 1.25 397 397 0 0 0-23.039 8.75q-1.552-6.844-1.047-14.164zm0 0" style="stroke:none;fill-rule:evenodd;fill:#f8f9f8;fill-opacity:1"/><path d="M217.277 87.082c-1.562 2.356-4.007 3.742-7.328 4.168q3.22-2.559 7.328-4.168m0 0" style="stroke:none;fill-rule:evenodd;fill:#759e5f;fill-opacity:1"/><path d="M246.598 82.082q9.884 5.805 21.988 8.336-14.562 9.158-33.508 8.332a116.3 116.3 0 0 1 11.52-16.668m0 0" style="stroke:none;fill-rule:evenodd;fill:#f3f1f0;fill-opacity:1"/><path d="M305.234 88.75q17.457-1.477 31.414 6.668c-11.671.969-22.14-1.25-31.414-6.668m0 0" style="stroke:none;fill-rule:evenodd;fill:#ecefed;fill-opacity:1"/><path d="M383.77 89.582c7.277.356 14.261 1.746 20.94 4.168 5.692 4.25 11.978 7.863 18.849 10.832 1.078 1.414 2.472 2.523 4.191 3.336q-10.003 9.21-21.992 16.664a23908 23908 0 0 0-40.836-21.664q8.015-8.051 18.848-13.336m0 0" style="stroke:none;fill-rule:evenodd;fill:#f5f4f5;fill-opacity:1"/><path d="M403.664 85.418q21.444 3.608 41.887 9.164-3.772 4.254-9.426 6.668a42.6 42.6 0 0 1-8.375-.418c-9.133-4.074-17.164-9.215-24.086-15.414m0 0" style="stroke:none;fill-rule:evenodd;fill:#f4f3f2;fill-opacity:1"/><path d="M511.52 84.582q4.487 5.48 7.328 11.668c-13.41.066-25.278 3.402-35.602 10q-1.899-.538-3.14-1.668c3.828-5.695 8.714-10.836 14.66-15.414q7.363-4.593 16.754-4.586m0 0" style="stroke:none;fill-rule:evenodd;fill:#eaeaea;fill-opacity:1"/><path d="M519.895 86.25a208 208 0 0 1 20.94 8.332c.642.742.99 1.578 1.052 2.5q-7.39.082-14.66-.832-4.455-4.582-7.332-10m0 0" style="stroke:none;fill-rule:evenodd;fill:#f0eded;fill-opacity:1"/><path d="M57.066 91.25q10.688 9.545 23.04 17.918 9.732 5.064 20.94 2.914v17.5q-39.823.82-78.534-1.664a501 501 0 0 0 11.52-22.5q10.583-8.004 23.034-14.168m0 0" style="stroke:none;fill-rule:evenodd;fill:#f9f9f9;fill-opacity:1"/><path d="M293.719 91.25q2.888 2.936 4.187 6.668v32.5h-94.242v-6.668q2.028.3 3.14-.832 9.482-1.908 15.184-8.336a110 110 0 0 0 7.856-10q12.611-.792 25.129-2.914 12.246-3.832 23.039-9.586c5.261 0 10.5-.277 15.707-.832m0 0" style="stroke:none;fill-rule:evenodd;fill:#f9f8f8;fill-opacity:1"/><path d="M371.203 90.418c-3.808 3.586-8 6.922-12.562 10a41.3 41.3 0 0 0-7.332-3.336q5.331-3.399 11.52-5.832zm0 0" style="stroke:none;fill-rule:evenodd;fill:#f0eded;fill-opacity:1"/><path d="M445.55 94.582q3.873.336 7.329 1.668c-4.16 2.754-8 5.813-11.52 9.168-1.992.195-3.39 1.031-4.187 2.5q-2.617 1.247-4.188 3.332-10.511 7.95-20.941 15.832c-1.98.922-3.723 2.031-5.238 3.336a59.4 59.4 0 0 1-12.563 5c-5.441.34-10.68-.215-15.707-1.668a46 46 0 0 1-7.332-4.168q-9.13-7.875-16.754-16.664c.61-1.875 2.004-3.266 4.192-4.168 5.183 8.164 12.515 14.969 21.988 20.418 4.41 1.277 8.945 1.555 13.613.832q3.967-.528 6.281-2.918 3.037-.761 5.235-2.5 11.989-7.453 21.992-16.664c1.047-.277 1.746-.836 2.094-1.668q3.662-2.084 6.281-5 5.654-2.414 9.426-6.668m0 0" style="stroke:none;fill-rule:evenodd;fill:#b62e31;fill-opacity:1"/><path d="M303.14 94.582A158.5 158.5 0 0 0 323.036 100a86.4 86.4 0 0 0 19.899-.418l7.328 8.336a141 141 0 0 1-10.473 8.75c-8.941 4.621-16.45 3.371-22.512-3.75a310 310 0 0 1-14.136-18.336m0 0" style="stroke:none;fill-rule:evenodd;fill:#f7f7f7;fill-opacity:1"/><path d="M158.64 95.418c3.438.586 6.93.867 10.47.832q4.013 1.108 8.378.832 9.668.405 18.848-1.664 4.923 1.904 10.469 1.664c-8.14 3.188-16.864 4.574-26.176 4.168h-15.707c-2.871-1.45-4.969-3.395-6.281-5.832m0 0" style="stroke:none;fill-rule:evenodd;fill:#619c3c;fill-opacity:1"/><path d="M518.848 96.25q2.853 2.023 4.187 5-20.08-1.611-35.601 8.332-2.619-1.247-4.188-3.332c10.324-6.598 22.192-9.934 35.602-10m0 0" style="stroke:none;fill-rule:evenodd;fill:#e1812a;fill-opacity:1"/><path d="M348.168 97.082h3.14a41.3 41.3 0 0 1 7.333 3.336 712 712 0 0 0-4.192 4.164zm0 0" style="stroke:none;fill-rule:evenodd;fill:#4f72ab;fill-opacity:1"/><path d="M452.879 96.25q2.62.832 5.234 1.668-7.342 5.01-16.754 7.5a83 83 0 0 1 11.52-9.168m0 0" style="stroke:none;fill-rule:evenodd;fill:#689d42;fill-opacity:1"/><path d="M527.227 96.25q7.27.915 14.66.832c1.226.848 1.926 1.957 2.093 3.336q.268 1.236-1.046 1.664l-12.567-.832c-1.578-1.402-2.625-3.066-3.14-5m0 0" style="stroke:none;fill-rule:evenodd;fill:#e08028;fill-opacity:1"/><path d="M557.59 97.082q6.539 2.281 12.566 5a214 214 0 0 1-14.66-3.332c.352-.832 1.047-1.39 2.094-1.668m0 0" style="stroke:none;fill-rule:evenodd;fill:#6378a3;fill-opacity:1"/><path d="M458.113 97.918a80 80 0 0 1 12.567 6.664c-1.746 2.777-3.489 5.559-5.235 8.336-4.34.953-8.879 1.094-13.613.414a160 160 0 0 1-14.66-5.414c.797-1.469 2.195-2.305 4.187-2.5q9.412-2.49 16.754-7.5m0 0" style="stroke:none;fill-rule:evenodd;fill:#f7f6f5;fill-opacity:1"/><path d="M30.89 98.75q-.96 1.112-1.046 2.5-7.09 5.11-15.707 8.332a45 45 0 0 0-8.38 1.668c-1.007-1.578-1.359-3.246-1.046-5q2.027.3 3.14-.832a188 188 0 0 0 23.04-6.668m0 0" style="stroke:none;fill-rule:evenodd;fill:#4d75b1;fill-opacity:1"/><path d="M154.45 100.418q9.817 8.436 21.991 14.582a43.9 43.9 0 0 0 11.516 1.25c3.23 2.84 7.066 5.063 11.52 6.668v6.664h-94.243v-19.164l24.086-9.586a79.8 79.8 0 0 1 25.13-.414m0 0" style="stroke:none;fill-rule:evenodd;fill:#f9f9f9;fill-opacity:1"/><path d="M555.496 98.75c4.813 1.273 9.7 2.387 14.66 3.332q11.969 6.019 25.133 10.836 2.028 2.666 0 5c-1.398-.277-2.793-.559-4.191-.836q-17.913-9.417-38.743-14.164.001-.837-1.046-.836 1.569-2.082 4.187-3.332m0 0" style="stroke:none;fill-rule:evenodd;fill:#de7e27;fill-opacity:1"/><path d="M238.219 77.082h1.047q-.71 1.2-2.094 2.086 1.617.64 3.14 1.25a297 297 0 0 0-12.562 19.164 331 331 0 0 1-10.473 2.086 288 288 0 0 1-28.273 9.582c-2.356-3.547-5.145-6.879-8.375-10 9.312.406 18.035-.98 26.176-4.168A47.4 47.4 0 0 0 215.184 95q12.352-8.373 23.035-17.918m0 0" style="stroke:none;fill-rule:evenodd;fill:#f2f1ee;fill-opacity:1"/><path d="M164.922 101.25h9.422c2.445 3.332 4.89 6.668 7.332 10q-10.068-3.175-16.754-10m0 0" style="stroke:none;fill-rule:evenodd;fill:#f5ece7;fill-opacity:1"/><path d="M523.035 101.25q3.69 5.865 7.332 11.668-7.143 7.968-19.37 9.164-14-3.59-23.563-12.5 15.52-9.943 35.601-8.332m0 0" style="stroke:none;fill-rule:evenodd;fill:#f7f5f5;fill-opacity:1"/><path d="M174.344 101.25h6.285q4.844 4.68 8.375 10h-7.328a16271 16271 0 0 0-7.332-10m0 0" style="stroke:none;fill-rule:evenodd;fill:#dd8127;fill-opacity:1"/><path d="m530.367 101.25 12.567.832a70.6 70.6 0 0 1-8.38 7.5q-2.093-4.166-4.187-8.332m0 0" style="stroke:none;fill-rule:evenodd;fill:#f5efef;fill-opacity:1"/><path d="M551.309 102.082q1.047-.001 1.046.836a305 305 0 0 0 12.043 20q13.443 19.979 31.414 2.5.778 2.884.524 5.832c-11.344 9.992-22.336 9.715-32.984-.832q-8.983-11.806-16.23-24.168a19.5 19.5 0 0 1 4.187-4.168m0 0" style="stroke:none;fill-rule:evenodd;fill:#639f3f;fill-opacity:1"/><path d="M364.922 102.918q20.383 10.788 40.836 21.664-2.198 1.739-5.235 2.5c-13.086-7.293-26.699-13.957-40.836-20 1.395-1.664 3.141-3.055 5.235-4.164m0 0" style="stroke:none;fill-rule:evenodd;fill:#4b74b0;fill-opacity:1"/><path d="M596.336 2.082a2082 2082 0 0 1 0 129.168 16.7 16.7 0 0 0-.524-5.832q-17.971 17.479-31.414-2.5a305 305 0 0 1-12.043-20q20.83 4.747 38.743 14.164 1.587 2.301 4.715 3.336.737-1.346-.524-2.5 2.028-2.334 0-5-13.163-4.817-25.133-10.836a153 153 0 0 0-12.566-5q6.303-6.041 15.707-8.75 11.76-1.2 23.039 1.25v-87.5m0 0" style="stroke:none;fill-rule:evenodd;fill:#f3f3f2;fill-opacity:1"/><path d="M229.844 104.582q-3.573 5.147-7.856 10-5.702 6.427-15.183 8.336h-7.328c-4.454-1.606-8.29-3.828-11.52-6.668a67 67 0 0 1 7.332-.832q4.916 3.627 11.516 2.914 9.76-4.224 14.66-12.082 3.79-1.939 8.379-1.668m0 0" style="stroke:none;fill-rule:evenodd;fill:#e18027;fill-opacity:1"/><path d="M303.14 104.582q6.262 8.966 15.708 16.25 10.586 6.936 21.988.836a193 193 0 0 1 13.613-8.75q7.624 8.79 16.754 16.664a929 929 0 0 1-68.062.418q-2.087-12.832 0-25.418m0 0" style="stroke:none;fill-rule:evenodd;fill:#f7f6f7;fill-opacity:1"/><path d="M423.559 104.582q3.145.837 6.285 1.668-.523 1.25-2.094 1.668c-1.719-.813-3.113-1.922-4.191-3.336m0 0" style="stroke:none;fill-rule:evenodd;fill:#d97c25;fill-opacity:1"/><path d="M470.68 104.582q3.14 1.668 5.238 4.168-4.299 3.376-10.473 4.168c1.746-2.777 3.489-5.559 5.235-8.336m0 0" style="stroke:none;fill-rule:evenodd;fill:#5778ae;fill-opacity:1"/><path d="M34.031 105.418a501 501 0 0 1-11.52 22.5q-2.811 2.406-3.14 5.832a208 208 0 0 1-12.566 14.168c-.93.508-1.98.785-3.14.832q-.258-3.356.523-6.668c9.292-9.512 16.101-20.066 20.417-31.664a72.5 72.5 0 0 1 9.426-5m0 0" style="stroke:none;fill-rule:evenodd;fill:#b73033;fill-opacity:1"/><path d="M221.465 106.25q-4.9 7.858-14.66 12.082-6.6.714-11.516-2.914 12.447-5.577 26.176-9.168m0 0" style="stroke:none;fill-rule:evenodd;fill:#f4ede9;fill-opacity:1"/><path d="M359.688 107.082c14.136 6.043 27.75 12.707 40.835 20q-2.314 2.39-6.28 2.918c-4.669.723-9.204.445-13.614-.832-9.473-5.45-16.805-12.254-21.988-20.418zm0 0" style="stroke:none;fill-rule:evenodd;fill:#f6f4f5;fill-opacity:1"/><path d="M437.172 107.918a160 160 0 0 0 14.66 5.414q7.102 1.019 13.613-.414c4.118-.527 7.606-1.918 10.473-4.168q3.529.725 5.234 3.332a80.4 80.4 0 0 1-14.66 5.836 67 67 0 0 0-7.328.832c-9.695-.387-18.418-2.887-26.18-7.5q1.57-2.085 4.188-3.332m0 0" style="stroke:none;fill-rule:evenodd;fill:#e08029;fill-opacity:1"/><path d="M432.984 111.25c7.762 4.613 16.485 7.113 26.18 7.5q-18.808 21.076-47.121 8.332 10.43-7.88 20.941-15.832m0 0" style="stroke:none;fill-rule:evenodd;fill:#f6f6f6;fill-opacity:1"/><path d="M481.152 112.082a120 120 0 0 0 14.66 10v8.336c-13.8.273-27.41-.004-40.84-.836a218 218 0 0 0 12.567-11.25c-.238-.332-.59-.469-1.047-.414a80.4 80.4 0 0 0 14.66-5.836m0 0" style="stroke:none;fill-rule:evenodd;fill:#f7f6f7;fill-opacity:1"/><path d="M538.742 113.75q17.236 29.538 57.594 35.832.743 3.229-2.094 5-26.969-5.301-46.074-20.832-1.572-2.084-4.188-3.332a137 137 0 0 1-9.425-12.5q.914-2.814 4.187-4.168m0 0" style="stroke:none;fill-rule:evenodd;fill:#b83133;fill-opacity:1"/><path d="M591.098 117.082c1.398.277 2.793.559 4.191.836q1.261 1.154.524 2.5c-2.086-.691-3.657-1.8-4.715-3.336m0 0" style="stroke:none;fill-rule:evenodd;fill:#5a7cae;fill-opacity:1"/><path d="M466.492 117.918c.457-.055.809.082 1.047.414a218 218 0 0 1-12.566 11.25 606 606 0 0 0-6.282 4.168q-17.204 6.58-34.554 0-3.353-1.965-7.332-3.332c1.515-1.305 3.257-2.414 5.238-3.336q28.313 12.744 47.121-8.332a67 67 0 0 1 7.328-.832m0 0" style="stroke:none;fill-rule:evenodd;fill:#4e76b1;fill-opacity:1"/><path d="M534.555 117.918a137 137 0 0 0 9.425 12.5H500v-5.836q7.085 2.244 14.66 2.086 6.643-1.396 12.567-4.168c2.03-2.047 4.476-3.574 7.328-4.582m0 0" style="stroke:none;fill-rule:evenodd;fill:#f6f4f5;fill-opacity:1"/><path d="M19.371 133.75H100v39.168H6.805v-25c4.449-4.586 8.64-9.305 12.566-14.168m0 0" style="stroke:none;fill-rule:evenodd;fill:#f9f9f9;fill-opacity:1"/><path d="M297.906 97.918q3.4 2.901 5.235 6.664-2.087 12.585 0 25.418a929 929 0 0 0 68.062-.418 46 46 0 0 0 7.332 4.168h-75.394v40h93.195q1.019-19.629-2.094-38.332a59.4 59.4 0 0 0 12.563-5q3.979 1.367 7.332 3.332H401.57v40h94.243v-40H448.69q3.077-2.07 6.282-4.168c13.43.832 27.039 1.11 40.84.836v-8.336c1.808.441 3.207 1.273 4.187 2.5v5.836h43.98q2.616 1.247 4.188 3.332H500v40h94.242v-19.168q2.837-1.771 2.094-5 1.56 12.692 1.047 25.836H3.664V148.75c1.16-.047 2.211-.324 3.14-.832v25H100V133.75H19.371q.329-3.426 3.14-5.832c25.81 1.656 51.985 2.21 78.536 1.664v-17.5c1.226-.703 2.625-1.258 4.187-1.664v19.164h94.243v-6.664h7.328q-1.115 1.13-3.14.832v6.668h94.241zm0 0" style="stroke:none;fill-rule:evenodd;fill:#e2e1e1;fill-opacity:1"/><path d="M105.234 133.75h94.243v39.168h-94.243zm0 0" style="stroke:none;fill-rule:evenodd;fill:#f9faf9;fill-opacity:1"/><path d="M203.664 133.75h94.242v40h-94.242zM378.535 133.75c5.027 1.453 10.266 2.008 15.707 1.668q3.113 18.703 2.094 38.332H303.14v-40zM414.137 133.75q17.35 6.58 34.554 0h47.122v40H401.57v-40zM548.168 133.75q19.106 15.531 46.074 20.832v19.168H500v-40zm0 0" style="stroke:none;fill-rule:evenodd;fill:#f9f9f9;fill-opacity:1"/><path d="M596.336 244.582q-1.05 1.67-2.094 0v-19.164H500v40h6.281q-2.005 3.265-5.234 5.832-2.356 1.563-5.235 2.5v-5H401.57v22.5c-2.945-2.453-5.386-5.234-7.328-8.332a34 34 0 0 0-5.238-5.836c-2.41-2.2-4.856-4.422-7.328-6.664q-.182-3.06-3.14-5h18.847v-40h-95.29v29.164q-1.469 1.845-4.187 2.5v-31.664h-94.242v40h83.77a710 710 0 0 0-4.188 4.164 1897 1897 0 0 0-79.582-.832q-.263 15.837.524 31.668a15 15 0 0 1 3.664-2.5v1.664q-.955 2.42-3.141 4.168c-2.11-.09-3.852.465-5.234 1.668V268.75h-50.262a271 271 0 0 1-3.14-3.332h53.402v-40h-94.243v25.832h3.145v.832h-2.098q-2.813.17-5.234-.832-1.048 0-1.047-.832 1.56-12.275 1.047-25H5.757v22.5H9.95c-1.488.793-3.23 1.07-5.238.832v-25h591.625zm0 0" style="stroke:none;fill-rule:evenodd;fill:#e0e0e0;fill-opacity:1"/><path d="M100 250.418c-3.828-1.527-7.316-3.473-10.473-5.836q-2.496-2.665-6.28-4.164c-3.958-1.856-8.15-3.242-12.567-4.168q-5.761-1.665-11.516 0-5.889.315-11.52 1.668-5.36.676-9.425 3.332a156 156 0 0 1-12.563 3.332q-2.7 1.91-6.285 2.5-4.682.58-9.422.836H5.758v-22.5h95.289c.344 8.484-.008 16.816-1.047 25m0 0" style="stroke:none;fill-rule:evenodd;fill:#f7f8f8;fill-opacity:1"/><path d="M146.074 265.418c-4.344-6.098-10.277-10.957-17.8-14.586-6.669-1.555-13.297-1.418-19.895.418h-3.145v-25.832h94.243v40zM297.906 257.082a69 69 0 0 1-10.472 8.336h-83.77v-40h94.242zM378.535 265.418c-10.285-9.094-23.2-14.23-38.746-15.418q-19.894-2.426-37.695 4.582v-29.164h95.289v40zM401.57 225.418h94.243v40H401.57zM594.242 244.582a4731 4731 0 0 0-32.46-3.75c-20.122-2.41-35.829 3.004-47.122 16.25q-3.769 2.244-5.234 5.836-1.048 1.663-3.145 2.5H500v-40h94.242zm0 0" style="stroke:none;fill-rule:evenodd;fill:#f9f9f9;fill-opacity:1"/><path d="M59.164 236.25q2.632.855 2.094 3.332c-1.676-.223-3.07.055-4.192.836q-5.454.093-10.468 1.664-.212-2.237 1.047-4.164a64 64 0 0 1 11.52-1.668m0 0" style="stroke:none;fill-rule:evenodd;fill:#131416;fill-opacity:1"/><path d="M70.68 236.25c4.418.926 8.61 2.313 12.566 4.168.086 1.457-.785 2.293-2.617 2.5a33 33 0 0 1-4.711-1.668h-1.05q-2.691-1.546-6.282-1.668-.538-2.477 2.094-3.332m0 0" style="stroke:none;fill-rule:evenodd;fill:#0b0c0e;fill-opacity:1"/><path d="M59.164 236.25q5.755-1.665 11.516 0-2.632.855-2.094 3.332 3.591.122 6.281 1.668a163 163 0 0 0-17.8-.832q1.679-1.171 4.19-.836.539-2.477-2.093-3.332m0 0" style="stroke:none;fill-rule:evenodd;fill:#a1b4cb;fill-opacity:1"/><path d="M38.219 241.25q2.635.855 2.093 3.332-2.027-.294-3.14.836c-3.781 1-7.617 1.836-11.516 2.5v-3.336a156 156 0 0 0 12.563-3.332m0 0" style="stroke:none;fill-rule:evenodd;fill:#111214;fill-opacity:1"/><path d="M89.527 244.582c3.157 2.363 6.645 4.309 10.473 5.836q0 .832 1.047.832-.41 2.631-3.14 2.918l-11.52-7.5a10.9 10.9 0 0 1 3.14-2.086m0 0" style="stroke:none;fill-rule:evenodd;fill:#0f1013;fill-opacity:1"/><path d="M19.371 247.082c.18 1.102-.172 2.074-1.047 2.918a64.2 64.2 0 0 1-13.613 2.082v-3.332c2.008.238 3.75-.04 5.238-.832q4.74-.257 9.422-.836m0 0" style="stroke:none;fill-rule:evenodd;fill:#0d0e0f;fill-opacity:1"/><path d="M106.281 252.082h15.708v3.336a68.6 68.6 0 0 0-13.61.832q-2.76-1.314-2.098-4.168m0 0" style="stroke:none;fill-rule:evenodd;fill:#151718;fill-opacity:1"/><path d="M83.246 240.418q3.786 1.5 6.281 4.164a10.9 10.9 0 0 0-3.14 2.086l11.52 7.5q2.73-.287 3.14-2.918 2.421 1.002 5.234.832-.662 2.854 2.098 4.168-1.118 1.13-3.145.832v2.5H100q.335-2.05-1.047-3.75-10.997-6.247-21.988-12.5-1.184-.84-1.047-2.082c1.48.656 3.05 1.215 4.71 1.668 1.833-.207 2.704-1.043 2.618-2.5m0 0" style="stroke:none;fill-rule:evenodd;fill:#a9b8ce;fill-opacity:1"/><path d="M100 259.582h5.234q8.02 2.337 7.332 9.168a15.7 15.7 0 0 0-2.093 2.918l6.28 4.164c-.519.965-1.394 1.66-2.616 2.086q-6.549-4.214-15.184-3.75c-1.004-1.223-2.402-1.914-4.187-2.086-4.27.54-8.286 1.648-12.043 3.336-1.957-.727-2.48-1.695-1.57-2.918q5.858-2.625 12.566-2.918v-4.164q.89-4.46 6.281-5.836m0 0" style="stroke:none;fill-rule:evenodd;fill:#020305;fill-opacity:1"/><path d="M509.426 262.918q5.238.866 1.57 4.164l-7.332 6.668q-1.64-1.092-2.617-2.5 3.229-2.567 5.234-5.832 2.098-.837 3.145-2.5m0 0" style="stroke:none;fill-rule:evenodd;fill:#0d0e10;fill-opacity:1"/><path d="M378.535 265.418q2.96 1.94 3.14 5-3.802-3.686-5.234.832a8.6 8.6 0 0 1-2.097-2.082q-35.596-.628-71.203-.418v34.168H285.34q5.964-1.23 12.566-.836a322 322 0 0 0-1.047-36.664 168 168 0 0 0-4.187 2.5 7.4 7.4 0 0 1-2.621-1.668q-5.855 4.03-9.946 9.168c.727.848 1.422 1.68 2.094 2.5a24.6 24.6 0 0 1-5.234 5.832q2.093-4.165-3.145-2.5 3.421-6.475 9.426-11.668a710 710 0 0 1 4.188-4.164 69 69 0 0 0 10.472-8.336q2.718-.655 4.188-2.5 17.801-7.008 37.695-4.582c15.547 1.188 28.461 6.324 38.746 15.418m0 0" style="stroke:none;fill-rule:evenodd;fill:#b9c6d4;fill-opacity:1"/><path d="M364.922 263.75q-4.547-.945-6.281-4.168a31 31 0 0 0 2.093-1.664c4.621 1.875 8.813 4.234 12.563 7.082q-.856 1.156-2.094 2.082-3.188-1.677-6.281-3.332m0 0" style="stroke:none;fill-rule:evenodd;fill:#0f1011;fill-opacity:1"/><path d="M310.473 257.918q-3.33 2.372-7.332 4.164-2.69 2.122-6.282 2.086-1.568-2.614 2.094-4.168 4.104-2.361 8.899-3.75 1.588.697 2.62 1.668m0 0" style="stroke:none;fill-rule:evenodd;fill:#0f1012;fill-opacity:1"/><path d="M331.414 254.582h6.281q.124 1.564 2.094 2.086 5.683.44 10.996 2.082 1.417-.304 2.617-.832 2.99.368 5.239 1.664c1.156 2.148 3.25 3.54 6.28 4.168q-30.615 1.249-61.78.832v-2.5q4.003-1.792 7.332-4.164c1.03-1.59 2.777-2.426 5.234-2.5.125.902.824 1.46 2.094 1.664 4.992-.18 9.531-1.016 13.613-2.5m0 0" style="stroke:none;fill-rule:evenodd;fill:#c6d2df;fill-opacity:1"/><path d="M353.402 257.918q-1.2.528-2.617.832a50.3 50.3 0 0 0-10.996-2.082q-1.97-.522-2.094-2.086c-.03-.828.493-1.387 1.57-1.664 4.708.898 9.419 1.734 14.137 2.5zm0 0" style="stroke:none;fill-rule:evenodd;fill:#121315;fill-opacity:1"/><path d="M331.414 254.582c-4.082 1.484-8.621 2.32-13.613 2.5-1.27-.203-1.969-.762-2.094-1.664.082-1.043.777-1.738 2.094-2.086q3.406-.207 6.804-.414 4.102.04 6.81 1.664m0 0" style="stroke:none;fill-rule:evenodd;fill:#161719;fill-opacity:1"/><path d="M93.719 265.418v4.164q-6.708.293-12.567 2.918c-.91 1.223-.386 2.191 1.57 2.918 3.758-1.688 7.774-2.797 12.044-3.336 1.785.172 3.183.863 4.187 2.086q8.635-.464 15.184 3.75c1.222-.426 2.097-1.121 2.617-2.086q-3.141-2.082-6.281-4.164a15.7 15.7 0 0 1 2.093-2.918q11.338 6.726 20.418 15.832 15.708 17.503 31.414 35 7.558 7.074 17.278 11.668-6.995.57-9.426 5.832c-6.484-3.066-12.246-6.957-17.277-11.664a186 186 0 0 0-13.086-13.336q-.96-2.416-3.145-4.164c-7.125-8.973-15.156-17.445-24.082-25.418q-14.113-10.493-31.414-3.332Q64.396 289.581 45.551 300a455 455 0 0 1-38.746 13.75q-2.755-1.314-2.094-4.168a50.7 50.7 0 0 0 13.613-2.082c.875-.844 1.227-1.816 1.047-2.918a134 134 0 0 1-14.66 1.668c-.281-1.566.414-2.676 2.094-3.332a305 305 0 0 0 27.226-8.75 640 640 0 0 0 39.79-21.668 143 143 0 0 1 19.898-7.082m0 0" style="stroke:none;fill-rule:evenodd;fill:#456faa;fill-opacity:1"/><path d="M47.645 237.918q-1.26 1.927-1.047 4.164 5.014-1.57 10.468-1.664a163 163 0 0 1 17.801.832h1.051q-.136 1.243 1.047 2.082 10.991 6.253 21.988 12.5 1.382 1.7 1.047 3.75-5.39 1.377-6.281 5.836A143 143 0 0 0 73.82 272.5a640 640 0 0 1-39.789 21.668 305 305 0 0 1-27.226 8.75v-47.5a277 277 0 0 0 28.273-7.918q1.384-.886 2.094-2.082 1.113-1.13 3.14-.836c.36-1.652-.335-2.762-2.093-3.332q4.064-2.657 9.426-3.332m0 0" style="stroke:none;fill-rule:evenodd;fill:#c6d2e0;fill-opacity:1"/><path d="M146.074 265.418a271 271 0 0 0 3.14 3.332q1.425 1.83 0 3.332 2.475.55 3.665 2.5 4.295 6.001 6.809 12.5a277 277 0 0 1-3.668-4.164c-1.973.676-2.668 1.789-2.094 3.332a70 70 0 0 0 6.285 9.168c1.785-.676 2.656-1.785 2.617-3.336q2.89 2.936 4.188 6.668c-1.664.105-3.063.664-4.188 1.668q3.135 5.823 7.852 10.832 1.641-1.092 2.617-2.5 3.351 1.987 5.238 5-2.664.23-4.191 2.082 6.012 6.387 14.66 2.918c1.195-1.578.496-2.414-2.094-2.5q2.501-2.664 6.285-4.168.975 1.41 2.618 2.5 3.245-2.368 5.757-5c1.961-.297 3.532-1.133 4.711-2.5q7.594-9.374 19.375-15.414 6.659-1.821 13.61-.836 11.084 5.722 24.086 4.168a46 46 0 0 0 6.28-3.75q3.067-4.107 7.333-7.5a24.6 24.6 0 0 0 5.234-5.832c3.88-3.086 7.367-6.418 10.473-10a168 168 0 0 1 4.187-2.5 322 322 0 0 1 1.047 36.664q-6.602-.393-12.566.836-9.438.252-18.848.832-10.118-3.02-15.707 4.168a172 172 0 0 0-15.707 5.414c-12.742 6.805-26.008 12.918-39.789 18.336q-4.16.62-8.379.414a27 27 0 0 0-5.234-.832q-9.719-4.594-17.278-11.668-15.706-17.497-31.414-35-9.08-9.106-20.418-15.832c.457-4.555-1.984-7.61-7.332-9.168v-2.5q2.027.3 3.145-.832a68.6 68.6 0 0 1 13.61-.832v-3.336h-13.61v-.832c6.598-1.836 13.226-1.973 19.894-.418 7.524 3.629 13.457 8.488 17.801 14.586m0 0" style="stroke:none;fill-rule:evenodd;fill:#c2cfdd;fill-opacity:1"/><path d="M283.246 269.582q-6.005 5.193-9.426 11.668a3104 3104 0 0 0-7.328 6.668q-3.697 1.049-6.281 3.332-6.918.587-12.566-2.5c-2.168-1.203-4.614-2.04-7.333-2.5q-8.208-1.863-15.707.832a41.3 41.3 0 0 0-7.328 3.336q-5.234 3.334-9.425 7.5a15 15 0 0 0-3.665 2.5q-.786-15.832-.523-31.668 40.06-.416 79.582.832m0 0" style="stroke:none;fill-rule:evenodd;fill:#f8f8f9;fill-opacity:1"/><path d="M149.215 268.75h50.262v36.668q-2.538 3.687-6.282 6.664c-2.523 1.004-4.617 2.39-6.285 4.168q-5.397 1.612-8.375-2.5-1.887-3.013-5.238-5c-2.64-3.098-4.738-6.43-6.281-10q-1.298-3.731-4.188-6.668c-1.578-1.398-2.629-3.066-3.14-5q-2.514-6.499-6.81-12.5-1.19-1.95-3.663-2.5 1.425-1.502 0-3.332m0 0" style="stroke:none;fill-rule:evenodd;fill:#f7f7f7;fill-opacity:1"/><path d="M149.215 272.082a44 44 0 0 1 3.14 5.418q-.177 1.6-2.093 2.082-4.167-4.95-8.375-10 1.328-2.227 4.187-1.25a24.4 24.4 0 0 0 3.14 3.75m0 0" style="stroke:none;fill-rule:evenodd;fill:#111214;fill-opacity:1"/><path d="M292.672 267.918c-3.106 3.582-6.594 6.914-10.473 10-.672-.82-1.367-1.652-2.094-2.5q4.091-5.137 9.946-9.168a7.4 7.4 0 0 0 2.62 1.668m0 0" style="stroke:none;fill-rule:evenodd;fill:#121315;fill-opacity:1"/><path d="M128.273 254.582a6.4 6.4 0 0 1 3.141.418c1.441 1.426 3.188 2.54 5.234 3.332 1.977 1.625 3.2 3.434 3.665 5.418q-.88.65-2.094.832c-2.633-2.371-5.602-4.457-8.899-6.25q-1.385-1.694-1.047-3.75m0 0" style="stroke:none;fill-rule:evenodd;fill:#101113;fill-opacity:1"/><path d="M594.242 244.582q1.045 1.67 2.094 0a1698 1698 0 0 1 0 119.168h-5.238c-4.965.02-9.68-.816-14.133-2.5q-.44 1.141-1.57 1.668c-.997-1.234-2.391-2.066-4.192-2.5q-.047-1.247 1.57-1.668c7.618 2.148 15.473 2.984 23.563 2.5V247.082a170 170 0 0 1-30.367-3.75 191 191 0 0 0-17.801-.414q-3.51-.37-6.281.832a60 60 0 0 0-9.426 1.668q-.439 2.304 2.094 3.332a70 70 0 0 1 7.332-1.668h6.281v-2.5h6.281v2.5q6.327.562 12.567 1.668 2.414.06 3.14-1.668h6.285v3.336a67.2 67.2 0 0 0 14.657 1.664q1.206-.952 1.574-2.5.783 24.581.523 49.168h-5.238q-11.342-.486-21.988-3.75a270 270 0 0 0-32.461-10.832c-9.54-1.785-18.961-1.645-28.274.414q-9.756-5.608-16.23 2.5a16.8 16.8 0 0 0-.524 5.836 1118 1118 0 0 0-43.453 45.832c-9.93 9.68-20.925 10.648-32.984 2.918a450 450 0 0 1-27.227-20.836q-18.825-13.318-43.98-15.832a544 544 0 0 0-37.695-2.082V268.75q35.607-.21 71.203.418a8.6 8.6 0 0 0 2.097 2.082 39 39 0 0 1 6.282 5.832 1109 1109 0 0 0 37.172 49.168c3.406 3.27 7.418 5.906 12.043 7.918a8.44 8.44 0 0 0 5.234 0q3.381-.123 5.238-2.086-.374-2.378-3.144-3.332 2.097-2.5 5.238-4.168 1.829 3.849 4.71.836a139 139 0 0 1 6.806-8.75q-1.437-.349-2.094-1.25a15.2 15.2 0 0 0 3.14-4.168q1.845.276 3.145-.832c2.094-2.777 4.187-5.559 6.281-8.336-.91-1.91-2.305-2.469-4.187-1.664q1.384-4.008 5.234-6.668c.524 2.406 2.094 2.965 4.711 1.668a88 88 0 0 1 7.855-7.5q-1.084-1.695-3.14-2.5 2.214-3.018 6.281-4.168c.133 1.324.832 2.438 2.094 3.332q6.711-2.842 12.566-6.664-.597-2.144-3.14-2.5.52-.837 1.046-1.668 2.879-.937 5.235-2.5.977 1.408 2.617 2.5l7.332-6.668q3.668-3.298-1.57-4.164 1.465-3.592 5.234-5.836c11.293-13.246 27-18.66 47.121-16.25a4731 4731 0 0 1 32.461 3.75m0 0" style="stroke:none;fill-rule:evenodd;fill:#c4d1de;fill-opacity:1"/><path d="M381.676 270.418c2.472 2.242 4.918 4.465 7.328 6.664q-.392 1.781-2.617 2.5a15 15 0 0 0-3.664-2.5 39 39 0 0 0-6.282-5.832q1.432-4.519 5.235-.832m0 0" style="stroke:none;fill-rule:evenodd;fill:#0f1112;fill-opacity:1"/><path d="M548.168 242.918c5.941-.14 11.879 0 17.8.414a170 170 0 0 0 30.368 3.75v52.5q-4.535.387-8.379-.832h5.238q.26-24.586-.523-49.168-.368 1.548-1.574 2.5v-3.332a66.6 66.6 0 0 1-14.657-1.668h-6.285q-.738-1.488-3.14-1.664a149 149 0 0 1-10.996-1.668q-1.202.088-1.57.832h-6.282zm0 0" style="stroke:none;fill-rule:evenodd;fill:#9fb0c9;fill-opacity:1"/><path d="M495.813 273.75q-.527.832-1.047 1.668-5.303 3.364-11.52 5.832-4.066 1.15-6.281 4.168a4351 4351 0 0 0-9.426 8.332q-3.85 2.66-5.234 6.668a47.6 47.6 0 0 1-5.239 7.5H413.09a105 105 0 0 0-8.38-10.836 15.7 15.7 0 0 1-3.14-4.164V268.75h94.243zm0 0" style="stroke:none;fill-rule:evenodd;fill:#f9f9f9;fill-opacity:1"/><path d="M514.66 257.082a106 106 0 0 0 9.422-7.082c1.781-.29 3.18.27 4.191 1.668-3.14 2.5-6.285 5-9.425 7.5q-3.84 1.137-4.188-2.086m0 0" style="stroke:none;fill-rule:evenodd;fill:#121416;fill-opacity:1"/><path d="M576.441 247.082a66.6 66.6 0 0 0 14.657 1.668v3.332a67.2 67.2 0 0 1-14.657-1.664zm0 0" style="stroke:none;fill-rule:evenodd;fill:#0b0c0d;fill-opacity:1"/><path d="M570.156 247.082q-.726 1.727-3.14 1.668a146 146 0 0 0-12.567-1.668v-2.5q.37-.744 1.57-.832c3.63.691 7.293 1.246 10.997 1.668q2.402.176 3.14 1.664m0 0" style="stroke:none;fill-rule:evenodd;fill:#0c0d0e;fill-opacity:1"/><path d="M541.887 243.75h5.234v2.5c-2.008-.238-3.75.04-5.234.832q-3.716.637-7.332 1.668-2.533-1.028-2.094-3.332a60 60 0 0 1 9.426-1.668m0 0" style="stroke:none;fill-rule:evenodd;fill:#0d0e0f;fill-opacity:1"/><path d="M541.887 243.75q2.77-1.2 6.281-.832v4.164h-6.281c1.484-.793 3.226-1.07 5.234-.832v-2.5zm0 0" style="stroke:none;fill-rule:evenodd;fill:#525b66;fill-opacity:1"/><path d="M494.766 275.418q2.543.356 3.14 2.5c-3.902 2.547-8.094 4.77-12.566 6.664-1.262-.894-1.961-2.008-2.094-3.332q6.217-2.468 11.52-5.832m0 0" style="stroke:none;fill-rule:evenodd;fill:#131415;fill-opacity:1"/><path d="M72.773 276.25c1.7.238 2.747 1.074 3.145 2.5a61 61 0 0 0-8.379 5.418c-2.941 1.941-4.516 1.523-4.71-1.25 3.292-2.34 6.608-4.559 9.944-6.668m0 0" style="stroke:none;fill-rule:evenodd;fill:#05080e;fill-opacity:1"/><path d="M120.941 280.418q6.967 3.247 11.52 8.75a22 22 0 0 1-3.664 2.082l-8.379-8.332q-.737-1.346.523-2.5m0 0" style="stroke:none;fill-rule:evenodd;fill:#05070c;fill-opacity:1"/><path d="M276.965 283.75q-4.268 3.393-7.332 7.5-3.786-.242-3.14-3.332 3.62-3.305 7.327-6.668 5.238-1.665 3.145 2.5m0 0" style="stroke:none;fill-rule:evenodd;fill:#101113;fill-opacity:1"/><path d="M394.242 282.918c1.942 3.098 4.383 5.879 7.328 8.332v1.668q-2.135 1.406-4.187 0a151 151 0 0 1-7.332-8.75c1.113-.992 2.512-1.406 4.191-1.25m0 0" style="stroke:none;fill-rule:evenodd;fill:#0f0f11;fill-opacity:1"/><path d="M505.234 284.582q.509 2.041 3.145 2.5 2.564-.68 5.234-.832.095 4.98-6.285 4.168a14 14 0 0 1-1.047 4.164c-1.808 1.441-3.902 2.55-6.281 3.336a24.2 24.2 0 0 0-6.281.414 167 167 0 0 1-8.903 7.918c-.87-.695-1.746-1.39-2.617-2.082q4.131-4.54 9.422-8.336a28 28 0 0 1-3.14-2.914c-.168-1.965.003-3.91.523-5.836q6.474-8.108 16.23-2.5m0 0" style="stroke:none;fill-rule:evenodd;fill:#040507;fill-opacity:1"/><path d="M587.957 298.75q3.845 1.22 8.379.832v7.5a49 49 0 0 1-12.566-1.664c-1.485.418-2.184 1.254-2.094 2.5a24.8 24.8 0 0 1-6.281-.836q.06-1.352 1.046-2.5a61 61 0 0 0-14.66-3.75q-1.182.838-1.047 2.086-4.307-.26-7.332-2.5 3.09-.944 1.047-2.918l-11.515-4.582q-3.82 1.92 0 4.164-11.187-4.15-23.563-5-6.92.104-13.09 2.5a14 14 0 0 0 1.047-4.164q6.38.813 6.285-4.168a26.2 26.2 0 0 0-5.234.832q-2.636-.459-3.145-2.5c9.313-2.059 18.735-2.2 28.274-.414q16.74 4.44 32.46 10.832 10.646 3.264 21.989 3.75m0 0" style="stroke:none;fill-rule:evenodd;fill:#446fab;fill-opacity:1"/><path d="M159.688 287.082c.511 1.934 1.562 3.602 3.14 5q.06 2.324-2.617 3.336a70 70 0 0 1-6.285-9.168c-.574-1.543.12-2.656 2.094-3.332a277 277 0 0 0 3.667 4.164m0 0" style="stroke:none;fill-rule:evenodd;fill:#0f1112;fill-opacity:1"/><path d="M240.313 286.25c.277 1.23-.075 2.344-1.047 3.332-3.817-1.043-7.653-1.043-11.516 0q-2.63-.459-3.145-2.5 7.5-2.695 15.708-.832m0 0" style="stroke:none;fill-rule:evenodd;fill:#131415;fill-opacity:1"/><path d="M476.965 285.418q2.056.805 3.14 2.5a88 88 0 0 0-7.855 7.5c-2.617 1.297-4.187.738-4.71-1.668 3.108-2.758 6.253-5.535 9.425-8.332m0 0" style="stroke:none;fill-rule:evenodd;fill:#111314;fill-opacity:1"/><path d="M520.941 287.082c5.188.266 10.07 1.375 14.66 3.336q-.656 1.464-2.093 2.5c-4.356-1.492-8.89-2.328-13.613-2.5-.07-1.219.277-2.328 1.046-3.336m0 0" style="stroke:none;fill-rule:evenodd;fill:#05080d;fill-opacity:1"/><path d="M54.973 287.082c2.906.281 3.605 1.39 2.093 3.336q-5.014 4.066-11.515 5.414-1.495-.898-.524-2.082a116 116 0 0 0 9.946-6.668m0 0" style="stroke:none;fill-rule:evenodd;fill:#04060b;fill-opacity:1"/><path d="M240.313 286.25c2.718.46 5.164 1.297 7.332 2.5a15 15 0 0 1-2.094 2.918q7.223 3.582 15.707 2.914.42-1.997-1.047-3.332 2.584-2.284 6.281-3.332-.645 3.09 3.14 3.332a46 46 0 0 1-6.28 3.75q-13.001 1.554-24.086-4.168-6.951-.985-13.61.836-11.781 6.04-19.375 15.414c-1.18 1.367-2.75 2.203-4.71 2.5 1.37-1.371 2.769-2.762 4.187-4.164a37 37 0 0 1-1.047-1.668q2.186-1.747 3.14-4.168 1.453 1.006 3.145.418l9.422-7.5q-.908-1.77-3.14-2.082a41.3 41.3 0 0 1 7.327-3.336q.515 2.041 3.145 2.5 5.793-1.565 11.516 0c.972-.988 1.324-2.102 1.047-3.332m0 0" style="stroke:none;fill-rule:evenodd;fill:#a0b2cb;fill-opacity:1"/><path d="M247.645 288.75q5.647 3.087 12.566 2.5c.976.89 1.328 2 1.047 3.332q-8.483.667-15.707-2.914c.844-.93 1.539-1.902 2.094-2.918m0 0" style="stroke:none;fill-rule:evenodd;fill:#101113;fill-opacity:1"/><path d="M217.277 290.418q2.234.311 3.141 2.082l-9.422 7.5c-1.129.39-2.176.254-3.144-.418v-1.664q4.191-4.166 9.425-7.5m0 0" style="stroke:none;fill-rule:evenodd;fill:#0f1011;fill-opacity:1"/><path d="M553.402 300.418q-5.243-1.671-10.468-3.336-3.82-2.243 0-4.164l11.515 4.582c1.364 1.316 1.012 2.29-1.047 2.918m0 0" style="stroke:none;fill-rule:evenodd;fill:#06090e;fill-opacity:1"/><path d="M135.602 293.75q5.249 4.366 9.425 9.582a11.1 11.1 0 0 1-3.14 2.086 96 96 0 0 0-7.856-8.336q-.762-2.115 1.57-3.332m0 0" style="stroke:none;fill-rule:evenodd;fill:#04070d;fill-opacity:1"/><path d="M37.172 297.082q2.55.362 3.14 2.5a141 141 0 0 1-13.609 5.836 22 22 0 0 1-2.098-2.918 117 117 0 0 0 12.567-5.418m0 0" style="stroke:none;fill-rule:evenodd;fill:#080c12;fill-opacity:1"/><path d="M404.71 297.082a105 105 0 0 1 8.38 10.836 169 169 0 0 0-3.14 1.664c-2.446-3.332-4.887-6.664-7.333-10 .727-.848 1.422-1.68 2.094-2.5m0 0" style="stroke:none;fill-rule:evenodd;fill:#111213;fill-opacity:1"/><path d="M167.016 298.75c1.543 3.57 3.64 6.902 6.28 10-.648.938-1.523 1.773-2.616 2.5q-4.717-5.01-7.852-10.832c1.125-1.004 2.524-1.563 4.188-1.668m0 0" style="stroke:none;fill-rule:evenodd;fill:#101113;fill-opacity:1"/><path d="M457.066 311.25q-2.091-1.667 0-3.332a47.6 47.6 0 0 0 5.239-7.5c1.882-.805 3.277-.246 4.187 1.664-2.094 2.777-4.187 5.559-6.281 8.336q-1.3 1.108-3.145.832m0 0" style="stroke:none;fill-rule:evenodd;fill:#0f1112;fill-opacity:1"/><path d="M575.395 307.082c-5.274-.746-10.16-2.137-14.66-4.164q-.136-1.248 1.046-2.086 7.553.96 14.66 3.75-.986 1.148-1.046 2.5m0 0" style="stroke:none;fill-rule:evenodd;fill:#0a0d13;fill-opacity:1"/><path d="M266.492 303.75q2.129 3.773 7.328 3.332v3.336q-4.147-.018-4.187 3.332c-3.461 3.79-8 4.898-13.613 3.332a30.6 30.6 0 0 1-3.665-2.5 256 256 0 0 0-13.09 5 10.3 10.3 0 0 1-2.093-2.082q5.77-3.546 12.566-5.832 1.382-1.7 1.047-3.75 5.59-7.188 15.707-4.168m0 0" style="stroke:none;fill-rule:evenodd;fill:#040609;fill-opacity:1"/><path d="M488.48 292.918q1.36 1.483 3.141 2.914-5.29 3.796-9.422 8.336c.871.691 1.746 1.387 2.617 2.082a167 167 0 0 0 8.903-7.918 24.2 24.2 0 0 1 6.281-.414q-22.043 19.666-40.312 41.664c-3.497 3.754-7.508 7.086-12.043 10a10.8 10.8 0 0 1-3.141-2.082 57.6 57.6 0 0 0 9.945-7.082q.544-2.128-2.094-3.336-11.924 12.039-30.89 11.668-.265 1.653 1.047 2.918 3.098.617 6.285.414-.212 2.242 1.047 4.168a60 60 0 0 1-12.567-.832 185 185 0 0 1-20.941-11.668 364 364 0 0 0-24.086-19.168q3.087 1.177 6.285 2.5c2.762-1.766 2.414-3.297-1.047-4.582q-4.716-2.291-9.425-4.582-1.355 1.581-2.094 3.332-4.687-1.032-8.38-3.332 2.923.047 4.192-2.086-7.358-3.27-15.707-3.75c-.07 1.219.278 2.328 1.047 3.336a554 554 0 0 0-38.742-2.5 129 129 0 0 0-29.32 0 54 54 0 0 0-9.426.832q.04-3.35 4.187-3.332v-3.336q-5.2.44-7.328-3.332a541 541 0 0 1 18.848-.832h17.8q18.904.388 37.696 2.082 25.155 2.514 43.98 15.832a450 450 0 0 0 27.227 20.836c12.059 7.73 23.055 6.762 32.984-2.918a1118 1118 0 0 1 43.453-45.832m0 0" style="stroke:none;fill-rule:evenodd;fill:#4670ab;fill-opacity:1"/><path d="M204.71 303.75q.48.814 1.048 1.668a1067 1067 0 0 0-4.188 4.164q-2.512 2.632-5.757 5c-1.094-.727-1.97-1.559-2.618-2.5q3.744-2.977 6.282-6.664 2.072-1.804 5.234-1.668m0 0" style="stroke:none;fill-rule:evenodd;fill:#121315;fill-opacity:1"/><path d="M4.71 309.582v-3.332q7.407-.433 14.661-1.668c.18 1.102-.172 2.074-1.047 2.918a50.7 50.7 0 0 1-13.613 2.082m0 0" style="stroke:none;fill-rule:evenodd;fill:#03060a;fill-opacity:1"/><path d="M596.336 307.082v3.336h-3.14q-6.276-.334-11.52-2.5c-.09-1.246.61-2.082 2.094-2.5a49 49 0 0 0 12.566 1.664m0 0" style="stroke:none;fill-rule:evenodd;fill:#101113;fill-opacity:1"/><path d="M280.105 306.25h15.707v3.332h-15.707zm0 0" style="stroke:none;fill-rule:evenodd;fill:#03060b;fill-opacity:1"/><path d="M302.094 307.082H317.8v4.168a224 224 0 0 0-15.707-.832zm0 0" style="stroke:none;fill-rule:evenodd;fill:#0b0f16;fill-opacity:1"/><path d="M148.168 307.918q5.444 4.464 9.422 10-.839 1.999-3.14 1.25-3.927-3.958-7.852-7.918-.475-1.956 1.57-3.332m0 0" style="stroke:none;fill-rule:evenodd;fill:#05080f;fill-opacity:1"/><path d="M250.785 307.918q.335 2.05-1.047 3.75-6.795 2.286-12.566 5.832.86 1.156 2.094 2.082a256 256 0 0 1 13.09-5q1.799 1.423 3.664 2.5-9.914 2.068-18.848 6.25a914 914 0 0 1-33.508 16.25q-2.29-.083-4.187.836-4.014 1.108-8.38.832a21 21 0 0 0 2.098-5.832q-4.387-.154-6.285-3.336a42.6 42.6 0 0 0 8.38-.414c13.78-5.418 27.046-11.531 39.788-18.336a172 172 0 0 1 15.707-5.414m0 0" style="stroke:none;fill-rule:evenodd;fill:#456faa;fill-opacity:1"/><path d="M324.082 308.75q7.827.69 15.707.832v3.336a601 601 0 0 1-15.707-.836zm0 0" style="stroke:none;fill-rule:evenodd;fill:#06090f;fill-opacity:1"/><path d="M413.09 307.918h43.976q-2.091 1.667 0 3.332a15.2 15.2 0 0 1-3.14 4.168h-2.094q-.265-1.652 1.047-2.918-18.076-1.032-35.602.418h-2.093c-1.184-1.516-1.883-3.18-2.094-5m0 0" style="stroke:none;fill-rule:evenodd;fill:#dfe0e1;fill-opacity:1"/><path d="M126.18 312.082a41.3 41.3 0 0 0 4.187 7.5q-1.457 2.471-4.187.836-3.779-4.727-4.715-10 .65-.573 1.57-.836c1.293.703 2.344 1.535 3.145 2.5m0 0" style="stroke:none;fill-rule:evenodd;fill:#0e0f11;fill-opacity:1"/><path d="M476.965 308.75c1.773.152 3.172.848 4.187 2.082a199 199 0 0 1-8.902 9.586c-1.21-.418-2.082-1.11-2.617-2.086a173 173 0 0 0 7.332-9.582m0 0" style="stroke:none;fill-rule:evenodd;fill:#06090f;fill-opacity:1"/><path d="M79.059 313.75a70 70 0 0 0-6.286 9.168q-6.338-.093-2.617-4.168a55 55 0 0 1 6.285-7.5c1.48.48 2.356 1.316 2.618 2.5m0 0" style="stroke:none;fill-rule:evenodd;fill:#0e1011;fill-opacity:1"/><path d="M81.152 312.082h19.895v39.168a859 859 0 0 1-53.402-.832q3.71-3.37 7.328-6.668 3.737-2.97 6.285-6.668l6.281-8.332q3.769-2.245 5.234-5.832a70 70 0 0 1 6.286-9.168q1.57-.415 2.093-1.668m0 0" style="stroke:none;fill-rule:evenodd;fill:#f8f8f8;fill-opacity:1"/><path d="M138.742 307.918q-7.613 1.641-15.707 0a15 15 0 0 0-3.14-4.168q-2.876-5.418-7.329-10-1.886-3.013-5.238-5c-2.36-.68-4.8-1.234-7.328-1.668q-4.7 1.455-8.379 4.168-2.867 2.058-4.187 5a54.2 54.2 0 0 0-7.329 9.582c.688 2.086 2.082 2.5 4.188 1.25-.496 1.906-1.543 3.57-3.14 5q-.524 1.252-2.094 1.668-.395-1.778-2.618-2.5a55 55 0 0 0-6.285 7.5c-2.48 2.719-1.61 4.105 2.617 4.168q-1.465 3.587-5.234 5.832-1.833-3.71-4.187-.832a72.3 72.3 0 0 0-12.043 11.664A118 118 0 0 1 37.172 350q-14.092 5.948-29.32 10.418a523 523 0 0 1-1.047-46.668A455 455 0 0 0 45.55 300q18.845-10.418 37.695-20.832 17.3-7.16 31.414 3.332c8.926 7.973 16.957 16.445 24.082 25.418m0 0" style="stroke:none;fill-rule:evenodd;fill:#c5d1df;fill-opacity:1"/><path d="M87.434 296.25q4.852.93 2.093 4.168-3.844 2.66-5.234 6.664c-2.106 1.25-3.5.836-4.188-1.25a54.2 54.2 0 0 1 7.329-9.582m0 0" style="stroke:none;fill-rule:evenodd;fill:#0f1112;fill-opacity:1"/><path d="M112.566 293.75c2.97 3.055 5.41 6.387 7.329 10-1.25 2.066-2.825 2.066-4.711 0q-2.285-4.266-5.758-7.918a10.8 10.8 0 0 1 3.14-2.082m0 0" style="stroke:none;fill-rule:evenodd;fill:#101213;fill-opacity:1"/><path d="M107.328 288.75q-1.559 3.866-6.281 1.668a49 49 0 0 0-5.758 2.5c-1.531-.258-2.75-.813-3.668-1.668q3.68-2.715 8.379-4.168 3.79.65 7.328 1.668m0 0" style="stroke:none;fill-rule:evenodd;fill:#0d0f10;fill-opacity:1"/><path d="M382.723 277.082a15 15 0 0 1 3.664 2.5q2.225-.719 2.617-2.5a34 34 0 0 1 5.238 5.836c-1.68-.156-3.078.258-4.191 1.25a151 151 0 0 0 7.332 8.75q2.052 1.406 4.187 0a15.7 15.7 0 0 0 3.14 4.164q-1.004 1.229-2.093 2.5 3.666 5.003 7.332 10a169 169 0 0 1 3.14-1.664c.212 1.82.911 3.484 2.095 5a30 30 0 0 1-2.094 1.664q4.065 5.222 8.898 10a7.3 7.3 0 0 1 2.617-1.664c1.426 1.687 3.172 3.078 5.239 4.164q-2.754-.1-3.14 2.086 6.432 5.72 15.706 2.914-1.857 1.963-5.238 2.086a8.44 8.44 0 0 1-5.235 0c-4.625-2.012-8.636-4.648-12.042-7.918a1109 1109 0 0 1-37.172-49.168m0 0" style="stroke:none;fill-rule:evenodd;fill:#9fb2cb;fill-opacity:1"/><path d="M542.934 297.082q5.225 1.666 10.468 3.336 3.025 2.24 7.332 2.5c4.5 2.027 9.387 3.418 14.66 4.164q3.036.813 6.282.836 5.244 2.166 11.52 2.5v48.332q-17.86.096-32.462-7.918c-12.761-9.324-24.457-19.46-35.078-30.414q-4.347-4.095-9.949-6.668-3.14-.001-3.14 2.5-4.004-1.79-7.333-4.168 3.791-.24 3.145-3.332-9.69-2.97-15.707 3.75 1.669 1.483 4.187 1.25c-.347 1.11-.699 2.223-1.046 3.332-1.399.836-2.793 1.668-4.192 2.5q-.392-1.775-2.617-2.5a92.5 92.5 0 0 0-7.852 10q1.289 2.014 4.188 1.668a29 29 0 0 1-4.188 5.832c-1.308-1.824-3.05-2.102-5.234-.832a356 356 0 0 1-15.184 17.5q-6.927 5.302-15.183 9.168-.955-.158-1.047-.836 5.941-4.06 3.14-10c4.536-2.914 8.547-6.246 12.043-10 12.18-14.664 25.618-28.555 40.313-41.664q3.569-1.176 6.281-3.336 6.17-2.396 13.09-2.5 12.376.85 23.563 5m0 0" style="stroke:none;fill-rule:evenodd;fill:#c5d1df;fill-opacity:1"/><path d="M501.047 312.082h4.187q3.33 2.377 7.332 4.168 4.758 4.2 9.422 8.332 1.572 2.084 4.192 3.336-.175.769-1.047 1.25a157 157 0 0 0 10.469 9.582q3.667.417 4.187 3.332-.233 1.318.524 2.5a60 60 0 0 1 6.808 5.836 669 669 0 0 1-47.121.832 375 375 0 0 1 1.047-39.168m0 0" style="stroke:none;fill-rule:evenodd;fill:#f8f8f8;fill-opacity:1"/><path d="M505.234 312.082h-4.187q-2.454.292-4.188 1.668-2.519.233-4.187-1.25 6.017-6.72 15.707-3.75.646 3.093-3.145 3.332m0 0" style="stroke:none;fill-rule:evenodd;fill:#151617;fill-opacity:1"/><path d="M515.707 313.75a90 90 0 0 1 7.852 7.5q.76 2.117-1.57 3.332-4.664-4.13-9.423-8.332 0-2.501 3.141-2.5m0 0" style="stroke:none;fill-rule:evenodd;fill:#101213;fill-opacity:1"/><path d="m67.54 328.75-6.282 8.332c-1.813 1.23-3.207.953-4.192-.832q3.164-4.2 6.286-8.332 2.354-2.876 4.187.832m0 0" style="stroke:none;fill-rule:evenodd;fill:#0b0c0e;fill-opacity:1"/><path d="M535.602 338.75a157 157 0 0 1-10.47-9.582q.873-.481 1.048-1.25 1.564.106 2.617-.836a197 197 0 0 1 8.898 9.586q-1.381.886-2.093 2.082m0 0" style="stroke:none;fill-rule:evenodd;fill:#121213;fill-opacity:1"/><path d="M54.973 343.75c-2.41 2.2-4.856 4.422-7.328 6.668l-3.141 1.664c-.477-.797-1.172-1.492-2.094-2.082q4.417-4.975 10.469-8.75 2.227.632 2.094 2.5m0 0" style="stroke:none;fill-rule:evenodd;fill:#0d0e10;fill-opacity:1"/><path d="M551.309 351.25q-2.297 1.213-4.188-.832a60 60 0 0 0-6.808-5.836q-.757-1.182-.524-2.5c.969-.668 2.016-.809 3.145-.414l8.898 7.082q.737 1.346-.523 2.5m0 0" style="stroke:none;fill-rule:evenodd;fill:#151516;fill-opacity:1"/><path d="M25.656 244.582v3.336c3.899-.664 7.735-1.5 11.516-2.5q-.71 1.196-2.094 2.082a277 277 0 0 1-28.273 7.918v47.5c-1.68.656-2.375 1.766-2.094 3.332v3.332q-.66 2.854 2.094 4.168a523 523 0 0 0 1.047 46.668q15.228-4.47 29.32-10.418a118 118 0 0 0 14.137-10.418 72.3 72.3 0 0 1 12.043-11.664 5674 5674 0 0 0-6.286 8.332q1.476 2.678 4.192.832-2.549 3.698-6.285 6.668.133-1.868-2.094-2.5-6.052 3.775-10.469 8.75c.922.59 1.617 1.285 2.094 2.082-2.027.508-3.774 1.344-5.238 2.5a55 55 0 0 1-2.094-.832q-6.773 2.918-12.567 6.668c-2.457.074-4.203.91-5.234 2.5q-1.2-.533-2.617-.836A64.3 64.3 0 0 1 4.71 363.75c-.36 1.652.34 2.766 2.094 3.332v.836h-3.14c-.349-39.863.003-79.586 1.046-119.168v3.332A64.2 64.2 0 0 0 18.324 250c.875-.844 1.227-1.816 1.047-2.918q3.584-.59 6.285-2.5m0 0" style="stroke:none;fill-rule:evenodd;fill:#a9b9cd;fill-opacity:1"/><path d="M107.328 288.75q3.351 1.987 5.238 5c-1.18.52-2.226 1.21-3.14 2.082q3.473 3.651 5.758 7.918c1.886 2.066 3.46 2.066 4.71 0a15 15 0 0 1 3.141 4.168q8.094 1.641 15.707 0c1.457 1.164 2.504 2.555 3.145 4.164H126.18q-1.204-1.446-3.145-2.5a4 4 0 0 0-1.57.836q.936 5.273 4.715 10 2.73 1.635 4.187-.836c1 2.11 2.399 4.055 4.188 5.836q-2.495.158-4.188 1.664 3.428 5.477 8.375 10c1.07-.293 1.77-.852 2.094-1.664q2.619 2.497 5.238 5-2.498.158-4.187 1.664c2.765 3.73 6.43 6.79 10.992 9.168q1.87-1.33 1.57-3.332c2.371 1.816 5.164 2.93 8.38 3.332h-3.142v3.332h15.708v-3.332h-3.145q13.312-.335 27.227 0v-10.832q1.897-.918 4.187-.836.833 10.47 0 20.836a139 139 0 0 1-13.613-5.836q-3.81-1.927-8.375-2.5-.21 2.57 2.094 4.168a239 239 0 0 0-26.18-.832 74 74 0 0 1-9.422-5c-12.402-11.383-22.172-24.164-29.32-38.336q-6.323-10.272-14.66-19.582-4.789-1.073-8.376 1.668a29 29 0 0 1-6.285 6.25q2.759-3.238-2.093-4.168 1.32-2.942 4.187-5c.918.855 2.137 1.41 3.668 1.668a49 49 0 0 1 5.758-2.5q4.722 2.198 6.281-1.668m0 0" style="stroke:none;fill-rule:evenodd;fill:#b6c2d1;fill-opacity:1"/><path d="M39.266 354.582v1.668a85.5 85.5 0 0 1-10.47 5.418q-2.66.602-4.19-1.25 5.793-3.75 12.566-6.668 1.073.45 2.094.832m0 0" style="stroke:none;fill-rule:evenodd;fill:#111112;fill-opacity:1"/><path d="M570.156 360.418c-.324.812-1.023 1.371-2.093 1.664q-6.926-2.742-12.567-6.664.527-.837 1.047-1.668.972-.14 1.57-.832 6.67 3.345 12.043 7.5m0 0" style="stroke:none;fill-rule:evenodd;fill:#141414;fill-opacity:1"/><path d="M6.805 367.918v-.836A167 167 0 0 0 18.325 365q1.181-.84 1.046-2.082c1.031-1.59 2.777-2.426 5.234-2.5q1.53 1.852 4.192 1.25a85.5 85.5 0 0 0 10.469-5.418q30.247-1.236 60.734-.832v39.164H6.805zM555.496 355.418q5.642 3.92 12.567 6.664c1.07-.293 1.769-.852 2.093-1.664h1.047q2.698.65 4.192 2.5.598 2.24 3.664 2.5a64.3 64.3 0 0 0 12.039 1.664v-3.332h3.144v31.668H500v-40zm0 0" style="stroke:none;fill-rule:evenodd;fill:#f9f9f9;fill-opacity:1"/><path d="M593.195 310.418h3.14v50.832c-8.089.484-15.944-.352-23.562-2.5q-1.617.42-1.57 1.668h-1.047q-5.374-4.155-12.043-7.5-.597.69-1.57.832-2.233-1.78-5.234-2.5 1.26-1.154.523-2.5l-8.898-7.082c-1.13-.395-2.176-.254-3.145.414-.348-1.941-1.742-3.055-4.187-3.332.476-.797 1.171-1.492 2.093-2.082a197 197 0 0 0-8.898-9.586q-1.053.942-2.617.836c-1.746-.836-3.145-1.945-4.192-3.336q2.332-1.215 1.57-3.332a90 90 0 0 0-7.851-7.5q5.6 2.573 9.95 6.668c10.62 10.953 22.316 21.09 35.077 30.414 9.735 5.344 20.555 7.98 32.461 7.918zm0 0" style="stroke:none;fill-rule:evenodd;fill:#a5b7d1;fill-opacity:1"/><path d="M19.371 362.918q.136 1.243-1.047 2.082a167 167 0 0 1-11.52 2.082c-1.753-.566-2.452-1.68-2.093-3.332q6.135-.269 12.043-1.668 1.416.303 2.617.836m0 0" style="stroke:none;fill-rule:evenodd;fill:#0c0c0d;fill-opacity:1"/><path d="M591.098 363.75v3.332a64.3 64.3 0 0 1-12.04-1.664q-3.064-.26-3.663-2.5 1.13-.526 1.57-1.668c4.453 1.684 9.168 2.52 14.133 2.5m0 0" style="stroke:none;fill-rule:evenodd;fill:#101010;fill-opacity:1"/><path d="M118.848 312.082h-13.614v39.168a555 555 0 0 0 42.934-.832q4.5 2.825 9.422 5h-52.356v39.164h94.243v-29.164q2.989.368 5.234 1.664v27.5h93.195v-36.664q2.966 1.379 5.235 3.332v33.332h94.242v-9.164h4.187q1.115 1.13 3.14.832-1.112 1.13-3.14.832v8.336h94.243v-40h-31.415q2.144-2.115 4.188-4.168 13.326 1.242 27.226.832v-35c.348-1.11.7-2.223 1.047-3.332q1.734-1.376 4.188-1.668A375 375 0 0 0 500 351.25q23.836.41 47.121-.832 1.891 2.044 4.188.832 3.001.72 5.234 2.5-.52.832-1.047 1.668H500v40h94.242V363.75h2.094v33.332H3.664v-29.164h3.14v26.664H100v-39.164q-30.487-.404-60.734.832v-1.668c1.464-1.156 3.21-1.992 5.238-2.5l3.14-1.664a859 859 0 0 0 53.403.832v-39.168H81.152c1.598-1.43 2.645-3.094 3.141-5q1.39-4.002 5.234-6.664a29 29 0 0 0 6.285-6.25q3.587-2.741 8.376-1.668 8.337 9.31 14.66 19.582m0 0" style="stroke:none;fill-rule:evenodd;fill:#e4e4e4;fill-opacity:1"/><path d="M417.277 381.25v1.668c-4.109 1.273-8.3 2.387-12.566 3.332q-2.028.3-3.14-.832v-2.5q7.141-.224 13.09-3.336a7.4 7.4 0 0 0 2.616 1.668m0 0" style="stroke:none;fill-rule:evenodd;fill:#121314;fill-opacity:1"/><path d="M395.29 384.582q.046 1.247-1.571 1.668-6.645-1.502-13.09-3.332v-3.336a342 342 0 0 1 13.09 3.336c1.078.277 1.601.836 1.57 1.664m0 0" style="stroke:none;fill-rule:evenodd;fill:#131313;fill-opacity:1"/><path d="M359.688 372.918q7.53 1.23 14.656 3.75 1.728.962 0 2.082-.37.744-1.57.832a115 115 0 0 1-12.563-4.164q-.76-1.189-.524-2.5m0 0" style="stroke:none;fill-rule:evenodd;fill:#121213;fill-opacity:1"/><path d="M353.402 372.082c.137.73-.21 1.29-1.047 1.668a123 123 0 0 0-13.613-3.332q-.411-1.85 1.047-3.336l14.66 3.75q-.872.481-1.047 1.25m0 0" style="stroke:none;fill-rule:evenodd;fill:#131314;fill-opacity:1"/><path d="M321.988 362.918a304 304 0 0 1 28.274 2.914q22.978 7.001 46.074 13.75 2.537.674 5.234.836 10.334.45 18.848-4.168 1.05 1.25 2.094 2.5-3.819-.282-5.235 2.5a7.4 7.4 0 0 1-2.617-1.668q-5.947 3.113-13.09 3.336v2.5h-4.187c-.36-.7-1.055-.977-2.094-.836.031-.828-.492-1.387-1.57-1.664a342 342 0 0 0-13.09-3.336v3.336q-.825-4.176-6.285-4.168 1.728-1.12 0-2.082a85 85 0 0 0-14.656-3.75c-2.098-.277-4.192-.559-6.286-.836q.175-.769 1.047-1.25l-14.66-3.75q-1.458 1.486-1.047 3.336-3.07-2.062-7.328-1.668 1.153-1.51 1.047-3.332c-3.836-.188-7.324-1.02-10.473-2.5m0 0" style="stroke:none;fill-rule:evenodd;fill:#a5b8d0;fill-opacity:1"/><path d="M318.848 362.082c.933.508 1.98.79 3.14.836 3.149 1.48 6.637 2.312 10.473 2.5q.106 1.821-1.047 3.332a105 105 0 0 1-10.473-1.668 181 181 0 0 0-4.187-2.5 5.87 5.87 0 0 1 2.094-2.5m0 0" style="stroke:none;fill-rule:evenodd;fill:#131415;fill-opacity:1"/><path d="M215.184 367.082H204.71q-2.245-1.295-5.234-1.664v-1.668a7.4 7.4 0 0 0 2.617-1.668q5.97 3.034 13.09 2.5zm0 0" style="stroke:none;fill-rule:evenodd;fill:#0a0b0b;fill-opacity:1"/><path d="M303.14 361.25a108.4 108.4 0 0 0 17.801 5.832q5.17 1.094 10.473 1.668 4.259-.394 7.328 1.668a123 123 0 0 1 13.613 3.332q1.253-.57 1.047-1.668c2.094.277 4.188.559 6.286.836q-.237 1.311.523 2.5 6.076 2.416 12.562 4.164 1.202-.088 1.57-.832 5.46-.008 6.286 4.168a249 249 0 0 0 13.09 3.332q1.617-.42 1.57-1.668c1.04-.14 1.734.137 2.094.836v9.164H303.14zm0 0" style="stroke:none;fill-rule:evenodd;fill:#f9f9f9;fill-opacity:1"/><path d="M452.879 362.918a99 99 0 0 0-11.52 4.164c-5.511-1.789-5.16-3.18 1.051-4.164 2.762-1.102 5.555-2.211 8.375-3.336q2.533 1.027 2.094 3.336m0 0" style="stroke:none;fill-rule:evenodd;fill:#0f1012;fill-opacity:1"/><path d="M464.398 355.418h31.414v40H401.57v-8.336q2.028.3 3.14-.832a158 158 0 0 0 12.567-3.332q13.425-6.509 24.082-15.836a99 99 0 0 1 11.52-4.164 26.7 26.7 0 0 1 7.332-4.168q1.57-2.085 4.187-3.332m0 0" style="stroke:none;fill-rule:evenodd;fill:#f8f9f9;fill-opacity:1"/><path d="M417.277 355.418q6.18 1.072 12.567.832 3.159 6.053 11.515 5 1.32.427 1.051 1.668c-6.21.984-6.562 2.375-1.05 4.164q-10.659 9.327-24.083 15.836v-1.668c.946-1.855 2.688-2.687 5.235-2.5q5.887-3.3 10.996-7.5.473-3.24-3.664-2.082a106 106 0 0 1-9.426 7.082q-8.513 4.618-18.848 4.168v-25zm0 0" style="stroke:none;fill-rule:evenodd;fill:#c5d1df;fill-opacity:1"/><path d="M422.512 378.75q-1.045-1.25-2.094-2.5a106 106 0 0 0 9.426-7.082q4.137-1.159 3.664 2.082-5.108 4.2-10.996 7.5m0 0" style="stroke:none;fill-rule:evenodd;fill:#0f1012;fill-opacity:1"/><path d="M396.336 379.582a4204 4204 0 0 1-46.074-13.75 304 304 0 0 0-28.274-2.914q-1.74-.072-3.14-.836a471 471 0 0 0-6.282-2.5c-2.402-.812-4.5-1.922-6.285-3.332q44.758-1.249 90.055-.832zm0 0" style="stroke:none;fill-rule:evenodd;fill:#c7d3e0;fill-opacity:1"/><path d="M234.031 355.418h60.735q2.091.832 3.14 2.5v36.664h-93.195v-27.5h10.473q1.42-.884 1.046-2.5a26.4 26.4 0 0 0 5.235-.832c.062.453.414.73 1.047.832q7.4-3.387 11.52-9.164m0 0" style="stroke:none;fill-rule:evenodd;fill:#f9f9f9;fill-opacity:1"/><path d="M252.879 330.418A28.6 28.6 0 0 0 248.69 335q.387 2.186 3.141 2.082-2.664 2.533-5.234 5-.978-1.405-2.618-2.5c-2.445 2.777-4.886 5.559-7.332 8.336q-1.428 3.054 2.618 3.332v.832c-2.977-.129-4.723.98-5.235 3.336q-1.944-1.143-4.187-.418a107 107 0 0 1-9.426 7.082q.573.854 1.047 1.668-2.539.675-5.235.832.373 1.616-1.046 2.5v-2.5q-7.12.534-13.09-2.5a7.4 7.4 0 0 1-2.617 1.668q-3.645-.614-6.282-2.5c1.18-.52 2.227-1.21 3.14-2.082q-3.555-2.02-6.284-4.586a139 139 0 0 0 13.613 5.836c3.434.824 6.926.965 10.473.414q19.013-9.717 30.89-25.414 3.304-3.277 7.852-5m0 0" style="stroke:none;fill-rule:evenodd;fill:#a1b3cb;fill-opacity:1"/><path d="M157.59 355.418c8.77-.203 17.496.078 26.18.832a71 71 0 0 1 9.425 5q2.637 1.886 6.282 2.5v30.832h-94.243v-39.164zm0 0" style="stroke:none;fill-rule:evenodd;fill:#f9f9f9;fill-opacity:1"/><path d="M234.031 355.418q-4.119 5.777-11.52 9.164c-.632-.102-.984-.379-1.046-.832a31 31 0 0 0-1.047-1.668q4.95-3.312 9.426-7.082 2.243-.726 4.187.418m0 0" style="stroke:none;fill-rule:evenodd;fill:#171718;fill-opacity:1"/><path d="M279.059 312.918a129 129 0 0 1 29.32 0h-5.238v38.332h93.195v-7.5a185 185 0 0 0 20.941 11.668H401.57v25a26.7 26.7 0 0 1-5.234-.836v-24.164c-30.2-.277-60.215 0-90.055.832q-3.54-1.145-6.281-3.332c-1.453.906-1.977 2.02-1.57 3.332 3.504 2.367 7.34 4.309 11.52 5.832q2.054-.784 2.616-2.5a471 471 0 0 1 6.282 2.5 5.87 5.87 0 0 0-2.094 2.5q2.202 1.277 4.187 2.5a108.4 108.4 0 0 1-17.8-5.832c-1.512-1.3-3.258-2.414-5.235-3.332q-1.049-1.668-3.14-2.5c-1.836-1.457-3.23-3.121-4.192-5q5.238 1.665 3.145-2.5 1.94.276 3.14 1.664a322 322 0 0 0 1.047-36.664zm0 0" style="stroke:none;fill-rule:evenodd;fill:#bac6d4;fill-opacity:1"/><path d="M306.281 356.25c1.785 1.41 3.883 2.52 6.285 3.332q-.561 1.716-2.617 2.5c-4.18-1.523-8.015-3.465-11.52-5.832-.406-1.312.118-2.426 1.571-3.332q2.742 2.187 6.281 3.332m0 0" style="stroke:none;fill-rule:evenodd;fill:#121315;fill-opacity:1"/><path d="M289.527 350.418h1.047c.961 1.879 2.356 3.543 4.192 5H234.03c.512-2.356 2.258-3.465 5.235-3.336q25.71.814 50.261-1.664m0 0" style="stroke:none;fill-rule:evenodd;fill:#e0e0e0;fill-opacity:1"/><path d="M190.05 354.582q2.73 2.565 6.286 4.586a10.8 10.8 0 0 1-3.14 2.082 71 71 0 0 0-9.426-5q-2.305-1.597-2.094-4.168 4.565.573 8.375 2.5m0 0" style="stroke:none;fill-rule:evenodd;fill:#121315;fill-opacity:1"/><path d="M162.828 351.25h12.567v3.332h-15.708v-3.332zm0 0" style="stroke:none;fill-rule:evenodd;fill:#0b0c0d;fill-opacity:1"/><path d="M469.633 348.75q-.087 1.388-1.047 2.5a710 710 0 0 1-4.188 4.168q-2.618 1.247-4.187 3.332-4.525-1.279-1.57-4.168 3.985-2.753 6.804-6.25 2.074-.242 4.188.418m0 0" style="stroke:none;fill-rule:evenodd;fill:#121314;fill-opacity:1"/><path d="M475.918 333.75q-1.986 4.612-5.238 8.75.99 1.636 3.14 2.082a19.4 19.4 0 0 1-4.187 4.168q-2.114-.66-4.188-.418-2.82 3.497-6.804 6.25-2.955 2.89 1.57 4.168a26.7 26.7 0 0 0-7.332 4.168q.439-2.31-2.094-3.336c-2.82 1.125-5.613 2.234-8.375 3.336q.269-1.241-1.05-1.668c.827-.75 1.874-1.309 3.144-1.668q.092.678 1.047.836 8.257-3.866 15.183-9.168a356 356 0 0 0 15.184-17.5m0 0" style="stroke:none;fill-rule:evenodd;fill:#a3b5cd;fill-opacity:1"/><path d="M293.719 347.918q2.092 4.165-3.145 2.5a80 80 0 0 0-7.851-6.668q-.544-2.126 2.093-3.332a101 101 0 0 1 8.903 7.5m0 0" style="stroke:none;fill-rule:evenodd;fill:#0e0f11;fill-opacity:1"/><path d="M146.074 340.418q3.066 4.524 8.375 7.5.3 2.003-1.57 3.332-6.845-3.57-10.992-9.168 1.69-1.506 4.187-1.664m0 0" style="stroke:none;fill-rule:evenodd;fill:#101112;fill-opacity:1"/><path d="M402.617 339.582q6.231 2.848 12.567 5.836 1.71 1.112 0 2.5-1.36 1.352-3.141.414c-3.14-1.805-6.285-3.61-9.426-5.414q-1.242-1.5 0-3.336m0 0" style="stroke:none;fill-rule:evenodd;fill:#080b11;fill-opacity:1"/><path d="M246.598 342.082a78.4 78.4 0 0 1-7.332 9.168q-4.045-.278-2.618-3.332c2.446-2.777 4.887-5.559 7.332-8.336q1.64 1.095 2.618 2.5m0 0" style="stroke:none;fill-rule:evenodd;fill:#0f1011;fill-opacity:1"/><path d="M447.645 349.582q2.8 5.94-3.141 10-1.904.541-3.145 1.668-8.356 1.053-11.515-5-1.26-1.926-1.047-4.168a24.2 24.2 0 0 1-6.285-.414q-1.312-1.265-1.047-2.918c12.644.246 22.941-3.64 30.89-11.668q2.638 1.208 2.094 3.336a57.6 57.6 0 0 1-9.945 7.082q1.37 1.307 3.14 2.082m0 0" style="stroke:none;fill-rule:evenodd;fill:#050609;fill-opacity:1"/><path d="M481.152 334.582c-2.43 3.305-4.87 6.64-7.332 10q-2.15-.446-3.14-2.082 3.252-4.138 5.238-8.75c2.184-1.27 3.926-.992 5.234.832m0 0" style="stroke:none;fill-rule:evenodd;fill:#0f1112;fill-opacity:1"/><path d="M181.676 331.25q2.696.165 5.234.832 1.898 3.182 6.285 3.336a21 21 0 0 1-2.097 5.832c-3.711 6.23-9.121 7.344-16.23 3.332q-2.994-3.381-2.618-7.5 2.43-5.263 9.426-5.832m0 0" style="stroke:none;fill-rule:evenodd;fill:#060709;fill-opacity:1"/><path d="M261.258 330.418q2.813-.17 5.234.832 4.6 1.572 7.328 5 6.114 8.203 15.707 14.168-24.55 2.478-50.261 1.664v-.832a78.4 78.4 0 0 0 7.332-9.168q2.57-2.467 5.234-5 2.753-5.11 9.426-6.664m0 0" style="stroke:none;fill-rule:evenodd;fill:#f7f7f7;fill-opacity:1"/><path d="M210.996 329.582c2.441.555 3.14 1.664 2.094 3.336q-6.336 3.149-13.613 4.164v-3.332q6.41-1.096 11.52-4.168m0 0" style="stroke:none;fill-rule:evenodd;fill:#04070d;fill-opacity:1"/><path d="M385.863 328.75q6.613 2.537 12.043 6.668.541 2.126-2.094 3.332a101 101 0 0 0-10.472-7.5q-.738-1.346.523-2.5m0 0" style="stroke:none;fill-rule:evenodd;fill:#060910;fill-opacity:1"/><path d="M429.844 327.082c2.515 2.516 5.66 3.07 9.422 1.668q2.77.954 3.144 3.332-9.274 2.805-15.707-2.914.387-2.185 3.14-2.086m0 0" style="stroke:none;fill-rule:evenodd;fill:#111214;fill-opacity:1"/><path d="M134.555 325.418q3.14 4.997 6.28 10c-.323.812-1.023 1.371-2.093 1.664q-4.947-4.523-8.375-10 1.694-1.506 4.188-1.664m0 0" style="stroke:none;fill-rule:evenodd;fill:#101112;fill-opacity:1"/><path d="M464.398 323.75q2.52-.233 4.188 1.25-3.861 5.36-9.422 9.582c-1.05-.277-1.746-.832-2.098-1.664a77 77 0 0 1 7.332-9.168m0 0" style="stroke:none;fill-rule:evenodd;fill:#04060b;fill-opacity:1"/><path d="M161.781 322.082a120 120 0 0 1 9.946 7.5c.734 1.313.382 2.422-1.047 3.336-4.364-2.363-8.028-5.277-10.993-8.75q1.381-.885 2.094-2.086m0 0" style="stroke:none;fill-rule:evenodd;fill:#04070c;fill-opacity:1"/><path d="M228.797 320.418q2.917-.052 4.187 2.082-5.233 2.918-10.472 5.832-4.138 1.159-3.664-2.082 5.502-2.486 9.949-5.832m0 0" style="stroke:none;fill-rule:evenodd;fill:#05070d;fill-opacity:1"/><path d="M372.25 324.582q-2.584-2.282-6.281-3.332.739-1.75 2.094-3.332 4.709 2.291 9.425 4.582c3.461 1.285 3.809 2.816 1.047 4.582a241 241 0 0 0-6.285-2.5m0 0" style="stroke:none;fill-rule:evenodd;fill:#080b12;fill-opacity:1"/><path d="M495.813 317.082v35q-13.9.41-27.227-.832.96-1.112 1.047-2.5a19.4 19.4 0 0 0 4.187-4.168q3.69-5.041 7.332-10a29 29 0 0 0 4.188-5.832 70 70 0 0 1 6.281-9.168c1.399-.832 2.793-1.664 4.192-2.5m0 0" style="stroke:none;fill-rule:evenodd;fill:#f6f7f7;fill-opacity:1"/><path d="M491.621 319.582a70 70 0 0 0-6.281 9.168q-2.9.346-4.188-1.668a92.5 92.5 0 0 1 7.852-10q2.225.725 2.617 2.5m0 0" style="stroke:none;fill-rule:evenodd;fill:#0f1012;fill-opacity:1"/><path d="M451.832 315.418h2.094q.657.901 2.094 1.25a139 139 0 0 0-6.805 8.75q-2.883 3.012-4.711-.836a79 79 0 0 0 7.328-9.164m0 0" style="stroke:none;fill-rule:evenodd;fill:#101113;fill-opacity:1"/><path d="M178.535 313.75q2.978 4.112 8.375 2.5c2.59.086 3.29.922 2.094 2.5q-8.648 3.47-14.66-2.918c1.02-1.234 2.414-1.93 4.191-2.082m0 0" style="stroke:none;fill-rule:evenodd;fill:#0f1012;fill-opacity:1"/><path d="M415.184 312.918h2.093q3.665 4.997 7.328 10-1.502.563-2.617 1.664a103 103 0 0 1-8.898-10 30 30 0 0 0 2.094-1.664m0 0" style="stroke:none;fill-rule:evenodd;fill:#0f1011;fill-opacity:1"/><path d="M308.379 312.918a554 554 0 0 1 38.742 2.5c3.598.574 7.09 1.41 10.469 2.5q3.69 2.298 8.379 3.332 3.697 1.052 6.281 3.332a364 364 0 0 1 24.086 19.168v7.5H303.14v-38.332zm0 0" style="stroke:none;fill-rule:evenodd;fill:#c7d3e0;fill-opacity:1"/><path d="M279.059 312.918h18.847a322 322 0 0 1-1.047 36.664q-1.2-1.388-3.14-1.664a101 101 0 0 0-8.903-7.5q-2.637 1.206-2.093 3.332a80 80 0 0 1 7.851 6.668h-1.047q-9.593-5.966-15.707-14.168a15.1 15.1 0 0 1 3.668 2.5c1.07-.71 1.942-1.547 2.617-2.5q-4.78-5.056-11.52-8.332c-1.26.894-1.96 2.008-2.093 3.332q-2.421-1.002-5.234-.832.433-2.31-2.094-3.336c-2.422.836-4.52 1.945-6.285 3.336q-4.547 1.723-7.852 5-11.876 15.698-30.89 25.414-5.322.824-10.473-.414.833-10.366 0-20.836a914 914 0 0 0 33.508-16.25q8.934-4.182 18.848-6.25 8.42 2.35 13.613-3.332a54 54 0 0 1 9.426-.832m0 0" style="stroke:none;fill-rule:evenodd;fill:#c4d1df;fill-opacity:1"/><path d="M273.82 336.25q-2.729-3.428-7.328-5 .2-1.988 2.094-3.332 6.738 3.275 11.52 8.332c-.676.953-1.547 1.79-2.618 2.5a15.1 15.1 0 0 0-3.668-2.5m0 0" style="stroke:none;fill-rule:evenodd;fill:#121416;fill-opacity:1"/><path d="M261.258 330.418q-6.673 1.554-9.426 6.664-2.754.104-3.14-2.082a28.6 28.6 0 0 1 4.187-4.582q2.65-2.084 6.285-3.336 2.527 1.027 2.094 3.336m0 0" style="stroke:none;fill-rule:evenodd;fill:#121314;fill-opacity:1"/><path d="M126.18 312.082h15.707a186 186 0 0 1 13.086 13.336c5.03 4.707 10.793 8.598 17.277 11.664q-.376 4.119 2.617 7.5c7.11 4.012 12.52 2.898 16.23-3.332q4.365.276 8.38-.832v10.832a555 555 0 0 0-27.227 0h-9.422c-3.215-.402-6.008-1.516-8.379-3.332q-5.31-2.976-8.375-7.5-2.619-2.503-5.238-5-3.141-5.003-6.281-10-2.686-2.672-4.188-5.836a41.3 41.3 0 0 1-4.187-7.5m0 0" style="stroke:none;fill-rule:evenodd;fill:#c5d1df;fill-opacity:1"/><path d="M451.832 315.418a79 79 0 0 1-7.328 9.164q-3.141 1.668-5.238 4.168c-3.762 1.402-6.907.848-9.422-1.668-2.067-1.086-3.813-2.477-5.239-4.164-2.44-3.336-4.886-6.668-7.328-10q17.526-1.452 35.602-.418-1.312 1.265-1.047 2.918m0 0" style="stroke:none;fill-rule:evenodd;fill:#f6f7f7;fill-opacity:1"/><path d="M357.59 317.918a70 70 0 0 0-10.469-2.5c-.77-1.008-1.117-2.117-1.047-3.336q8.35.48 15.707 3.75-1.269 2.133-4.191 2.086m0 0" style="stroke:none;fill-rule:evenodd;fill:#080c12;fill-opacity:1"/><path d="M118.848 312.082c7.148 14.172 16.918 26.953 29.32 38.336a555 555 0 0 1-42.934.832v-39.168zm0 0" style="stroke:none;fill-rule:evenodd;fill:#f9f9f9;fill-opacity:1"/></svg>