<svg xmlns="http://www.w3.org/2000/svg" xml:space="preserve" width="559.37" height="396.85"><defs><clipPath clipPathUnits="userSpaceOnUse" id="a"><path d="M11.99 11.99h395.547v273.657H11.991Z"/></clipPath></defs><g clip-path="url(#a)" transform="matrix(1.33333 0 0 -1.33333 0 396.85)"><path d="M-190.145-211.97h683.62v624.767h-683.62Z" style="fill:#fff;fill-opacity:1;fill-rule:nonzero;stroke:none"/><path d="M-49.316-126.663h516.15v512.82h-516.15z" style="fill:#fff;fill-opacity:1;fill-rule:nonzero;stroke:none"/><path d="M116.87 23.056v-3.5" style="fill:#000;fill-opacity:1;fill-rule:nonzero;stroke:#000;stroke-width:.8;stroke-linecap:butt;stroke-linejoin:round;stroke-miterlimit:10;stroke-dasharray:none;stroke-opacity:1" transform="matrix(3.7 0 0 3.7 -190.145 -211.97)"/><text transform="matrix(3.7 0 0 -3.7 224.395 -178.162)" style="font-variant:normal;font-weight:400;font-size:9.96264px;font-family:CMMI10;-inkscape-font-specification:CMMI10;writing-mode:lr-tb;fill:#000;fill-opacity:1;fill-rule:nonzero;stroke:none"><tspan x="0" y="0">x</tspan></text><text transform="matrix(3.7 0 0 -3.7 245.463 -183.69)" style="font-variant:normal;font-weight:400;font-size:6.97385px;font-family:CMR7;-inkscape-font-specification:CMR7;writing-mode:lr-tb;fill:#000;fill-opacity:1;fill-rule:nonzero;stroke:none"><tspan x="0" y="0">0</tspan></text><path d="M38.062 83.208h-3.5" style="fill:#000;fill-opacity:1;fill-rule:nonzero;stroke:#000;stroke-width:.8;stroke-linecap:butt;stroke-linejoin:round;stroke-miterlimit:10;stroke-dasharray:none;stroke-opacity:1" transform="matrix(3.7 0 0 3.7 -190.145 -211.97)"/><text transform="matrix(3.7 0 0 -3.7 -163.505 82.076)" style="font-variant:normal;font-weight:400;font-size:9.96264px;font-family:CMMI10;-inkscape-font-specification:CMMI10;writing-mode:lr-tb;fill:#000;fill-opacity:1;fill-rule:nonzero;stroke:none"><tspan x="0" y="0">f</tspan></text><text transform="matrix(3.7 0 0 -3.7 -141.49 82.076)" style="font-variant:normal;font-weight:400;font-size:9.96264px;font-family:CMR10;-inkscape-font-specification:CMR10;writing-mode:lr-tb;fill:#000;fill-opacity:1;fill-rule:nonzero;stroke:none"><tspan x="0" y="0">(</tspan></text><text transform="matrix(3.7 0 0 -3.7 -127.155 82.076)" style="font-variant:normal;font-weight:400;font-size:9.96264px;font-family:CMMI10;-inkscape-font-specification:CMMI10;writing-mode:lr-tb;fill:#000;fill-opacity:1;fill-rule:nonzero;stroke:none"><tspan x="0" y="0">x</tspan></text><text transform="matrix(3.7 0 0 -3.7 -106.088 76.547)" style="font-variant:normal;font-weight:400;font-size:6.97385px;font-family:CMR7;-inkscape-font-specification:CMR7;writing-mode:lr-tb;fill:#000;fill-opacity:1;fill-rule:nonzero;stroke:none"><tspan x="0" y="0">0</tspan></text><text transform="matrix(3.7 0 0 -3.7 -89.55 82.076)" style="font-variant:normal;font-weight:400;font-size:9.96264px;font-family:CMR10;-inkscape-font-specification:CMR10;writing-mode:lr-tb;fill:#000;fill-opacity:1;fill-rule:nonzero;stroke:none"><tspan x="0" y="0">)</tspan></text><path d="m44.403 104.076 2.539 10.573 2.03 7.584 1.778 5.855 1.65 4.7 1.524 3.655 1.27 2.518 1.269 2.023 1.142 1.39 1.016.893.888.517.889.273.889.034.888-.2.889-.429 1.015-.758 1.016-1.03 1.142-1.468 1.27-1.982 1.523-2.818 1.777-3.804 2.159-5.205 2.92-7.701 6.854-18.313 2.412-5.725 2.158-4.56 1.905-3.516 1.777-2.82 1.65-2.207 1.523-1.687 1.524-1.357 1.396-.964 1.397-.71 1.396-.47 1.396-.247 1.524-.037 1.523.182 1.65.417 1.905.725 2.03 1.016 2.413 1.467 2.792 1.968 3.555 2.79 6.6 5.54 4.19 3.355 2.666 1.861 2.158 1.244 1.777.785 1.65.489 1.524.21 1.396-.041 1.27-.252 1.27-.475 1.269-.714 1.27-.968 1.269-1.236 1.396-1.68 1.396-2.023 1.524-2.605 1.65-3.286 1.777-4.064 1.904-4.918 2.158-6.198 2.666-8.38 4.316-14.463 3.809-12.488 1.65-4.985v0" style="fill:none;stroke:#000;stroke-width:1.5;stroke-linecap:square;stroke-linejoin:round;stroke-miterlimit:10;stroke-dasharray:none;stroke-opacity:1" transform="matrix(3.7 0 0 3.7 -190.145 -211.97)"/><path d="m44.403 135.492 4.443-6.215 4.316-5.66 4.19-5.14 4.188-4.79 4.063-4.311 3.935-3.863 3.935-3.555 3.809-3.147 3.808-2.857 3.681-2.488 3.682-2.218 3.554-1.886 3.555-1.634 3.427-1.337 3.428-1.103 3.427-.87 3.428-.635 3.3-.391 3.301-.174 3.3.042 3.301.26 3.3.477 3.428.725 3.428.958 3.427 1.193 3.428 1.426 3.554 1.727 3.555 1.978 3.554 2.229 3.682 2.574 3.681 2.845 3.808 3.226 3.809 3.515 3.935 3.935 2.158 2.29v0" style="fill:none;stroke:#1f77b4;stroke-width:1.5;stroke-linecap:square;stroke-linejoin:round;stroke-miterlimit:10;stroke-dasharray:none;stroke-opacity:1" transform="matrix(3.7 0 0 3.7 -190.145 -211.97)"/><path d="m44.403 78.508 3.681-2.283 3.555-1.947 3.554-1.696 3.555-1.445 3.427-1.154 3.428-.921 3.427-.687 3.3-.44 3.301-.224 3.301-.006 3.3.21 3.301.428 3.3.644 3.428.899 3.428 1.133 3.427 1.366 3.428 1.6 3.554 1.907 3.555 2.159 3.681 2.5 3.681 2.771 3.809 3.15 3.808 3.439 3.935 3.857 3.936 4.165 4.062 4.623 4.19 5.112 4.188 5.46 4.317 5.993 4.443 6.556 4.57 7.153 4.57 7.569 4.697 8.213 3.681 6.744v0" style="fill:none;stroke:#ff7f0e;stroke-width:1.5;stroke-linecap:square;stroke-linejoin:round;stroke-miterlimit:10;stroke-dasharray:none;stroke-opacity:1" transform="matrix(3.7 0 0 3.7 -190.145 -211.97)"/><path d="m116.87 85.946-.614-1.892h-1.99l1.61-1.17-.615-1.892 1.61 1.17 1.61-1.17-.616 1.892 1.61 1.17h-1.99z" style="fill:#000;fill-opacity:1;fill-rule:nonzero;stroke:#000;stroke-width:1;stroke-linecap:butt;stroke-linejoin:round;stroke-miterlimit:10;stroke-dasharray:none;stroke-opacity:1" transform="matrix(3.7 0 0 3.7 -190.145 -211.97)"/><path d="M38.062 23.056v138.6M177.562 23.056v138.6M38.062 23.056h139.5M38.062 161.656h139.5" style="fill:none;stroke:#000;stroke-width:.8;stroke-linecap:square;stroke-linejoin:miter;stroke-miterlimit:10;stroke-dasharray:none;stroke-opacity:1" transform="matrix(3.7 0 0 3.7 -190.145 -211.97)"/></g></svg>